G04 #@! TF.GenerationSoftware,KiCad,Pcbnew,8.0.6*
G04 #@! TF.CreationDate,2025-01-22T16:51:43-05:00*
G04 #@! TF.ProjectId,Main_Board_Rev1,4d61696e-5f42-46f6-9172-645f52657631,rev?*
G04 #@! TF.SameCoordinates,Original*
G04 #@! TF.FileFunction,Legend,Top*
G04 #@! TF.FilePolarity,Positive*
%FSLAX46Y46*%
G04 Gerber Fmt 4.6, Leading zero omitted, Abs format (unit mm)*
G04 Created by KiCad (PCBNEW 8.0.6) date 2025-01-22 16:51:43*
%MOMM*%
%LPD*%
G01*
G04 APERTURE LIST*
G04 Aperture macros list*
%AMRoundRect*
0 Rectangle with rounded corners*
0 $1 Rounding radius*
0 $2 $3 $4 $5 $6 $7 $8 $9 X,Y pos of 4 corners*
0 Add a 4 corners polygon primitive as box body*
4,1,4,$2,$3,$4,$5,$6,$7,$8,$9,$2,$3,0*
0 Add four circle primitives for the rounded corners*
1,1,$1+$1,$2,$3*
1,1,$1+$1,$4,$5*
1,1,$1+$1,$6,$7*
1,1,$1+$1,$8,$9*
0 Add four rect primitives between the rounded corners*
20,1,$1+$1,$2,$3,$4,$5,0*
20,1,$1+$1,$4,$5,$6,$7,0*
20,1,$1+$1,$6,$7,$8,$9,0*
20,1,$1+$1,$8,$9,$2,$3,0*%
G04 Aperture macros list end*
%ADD10C,0.150000*%
%ADD11C,0.120000*%
%ADD12C,0.200000*%
%ADD13C,0.152400*%
%ADD14C,0.127000*%
%ADD15C,0.508000*%
%ADD16C,0.000000*%
%ADD17C,0.010000*%
%ADD18RoundRect,0.250000X0.450000X-0.262500X0.450000X0.262500X-0.450000X0.262500X-0.450000X-0.262500X0*%
%ADD19RoundRect,0.250000X-0.450000X0.262500X-0.450000X-0.262500X0.450000X-0.262500X0.450000X0.262500X0*%
%ADD20RoundRect,0.102000X0.600000X-0.350000X0.600000X0.350000X-0.600000X0.350000X-0.600000X-0.350000X0*%
%ADD21RoundRect,0.102000X0.600000X-0.380000X0.600000X0.380000X-0.600000X0.380000X-0.600000X-0.380000X0*%
%ADD22RoundRect,0.102000X0.600000X-0.400000X0.600000X0.400000X-0.600000X0.400000X-0.600000X-0.400000X0*%
%ADD23R,1.625600X1.625600*%
%ADD24C,1.625600*%
%ADD25RoundRect,0.250000X0.262500X0.450000X-0.262500X0.450000X-0.262500X-0.450000X0.262500X-0.450000X0*%
%ADD26C,2.000000*%
%ADD27RoundRect,0.250000X-0.475000X0.250000X-0.475000X-0.250000X0.475000X-0.250000X0.475000X0.250000X0*%
%ADD28RoundRect,0.250000X0.250000X0.475000X-0.250000X0.475000X-0.250000X-0.475000X0.250000X-0.475000X0*%
%ADD29C,9.200000*%
%ADD30RoundRect,0.243750X-0.243750X-0.456250X0.243750X-0.456250X0.243750X0.456250X-0.243750X0.456250X0*%
%ADD31R,2.184400X3.200400*%
%ADD32R,0.406400X0.990600*%
%ADD33R,1.320800X0.558800*%
%ADD34RoundRect,0.243750X-0.456250X0.243750X-0.456250X-0.243750X0.456250X-0.243750X0.456250X0.243750X0*%
%ADD35C,1.524000*%
%ADD36R,0.990600X0.406400*%
%ADD37RoundRect,0.250000X-0.250000X-0.475000X0.250000X-0.475000X0.250000X0.475000X-0.250000X0.475000X0*%
%ADD38R,1.800000X1.800000*%
%ADD39O,1.800000X1.800000*%
%ADD40R,1.700000X1.700000*%
%ADD41O,1.700000X1.700000*%
%ADD42RoundRect,0.250000X-0.262500X-0.450000X0.262500X-0.450000X0.262500X0.450000X-0.262500X0.450000X0*%
%ADD43R,0.812800X0.228600*%
%ADD44R,0.228600X0.812800*%
%ADD45R,1.193800X1.727200*%
%ADD46R,0.381000X0.381000*%
%ADD47RoundRect,0.250000X0.325000X0.650000X-0.325000X0.650000X-0.325000X-0.650000X0.325000X-0.650000X0*%
%ADD48C,1.270000*%
%ADD49R,0.900000X2.000000*%
%ADD50RoundRect,1.025000X1.025000X1.025000X-1.025000X1.025000X-1.025000X-1.025000X1.025000X-1.025000X0*%
%ADD51C,4.100000*%
%ADD52R,0.558800X1.320800*%
%ADD53RoundRect,0.250000X0.475000X-0.250000X0.475000X0.250000X-0.475000X0.250000X-0.475000X-0.250000X0*%
%ADD54RoundRect,0.218750X-0.381250X0.218750X-0.381250X-0.218750X0.381250X-0.218750X0.381250X0.218750X0*%
%ADD55C,1.803400*%
%ADD56C,1.320800*%
%ADD57RoundRect,0.102000X-0.600000X0.600000X-0.600000X-0.600000X0.600000X-0.600000X0.600000X0.600000X0*%
%ADD58C,1.404000*%
%ADD59RoundRect,0.102000X-0.450000X0.925000X-0.450000X-0.925000X0.450000X-0.925000X0.450000X0.925000X0*%
%ADD60RoundRect,0.102000X-1.600000X0.925000X-1.600000X-0.925000X1.600000X-0.925000X1.600000X0.925000X0*%
%ADD61RoundRect,0.218750X0.218750X0.381250X-0.218750X0.381250X-0.218750X-0.381250X0.218750X-0.381250X0*%
%ADD62RoundRect,0.102000X1.500000X1.500000X-1.500000X1.500000X-1.500000X-1.500000X1.500000X-1.500000X0*%
%ADD63C,3.204000*%
G04 APERTURE END LIST*
D10*
X156304819Y-117642857D02*
X155828628Y-117976190D01*
X156304819Y-118214285D02*
X155304819Y-118214285D01*
X155304819Y-118214285D02*
X155304819Y-117833333D01*
X155304819Y-117833333D02*
X155352438Y-117738095D01*
X155352438Y-117738095D02*
X155400057Y-117690476D01*
X155400057Y-117690476D02*
X155495295Y-117642857D01*
X155495295Y-117642857D02*
X155638152Y-117642857D01*
X155638152Y-117642857D02*
X155733390Y-117690476D01*
X155733390Y-117690476D02*
X155781009Y-117738095D01*
X155781009Y-117738095D02*
X155828628Y-117833333D01*
X155828628Y-117833333D02*
X155828628Y-118214285D01*
X155733390Y-117071428D02*
X155685771Y-117166666D01*
X155685771Y-117166666D02*
X155638152Y-117214285D01*
X155638152Y-117214285D02*
X155542914Y-117261904D01*
X155542914Y-117261904D02*
X155495295Y-117261904D01*
X155495295Y-117261904D02*
X155400057Y-117214285D01*
X155400057Y-117214285D02*
X155352438Y-117166666D01*
X155352438Y-117166666D02*
X155304819Y-117071428D01*
X155304819Y-117071428D02*
X155304819Y-116880952D01*
X155304819Y-116880952D02*
X155352438Y-116785714D01*
X155352438Y-116785714D02*
X155400057Y-116738095D01*
X155400057Y-116738095D02*
X155495295Y-116690476D01*
X155495295Y-116690476D02*
X155542914Y-116690476D01*
X155542914Y-116690476D02*
X155638152Y-116738095D01*
X155638152Y-116738095D02*
X155685771Y-116785714D01*
X155685771Y-116785714D02*
X155733390Y-116880952D01*
X155733390Y-116880952D02*
X155733390Y-117071428D01*
X155733390Y-117071428D02*
X155781009Y-117166666D01*
X155781009Y-117166666D02*
X155828628Y-117214285D01*
X155828628Y-117214285D02*
X155923866Y-117261904D01*
X155923866Y-117261904D02*
X156114342Y-117261904D01*
X156114342Y-117261904D02*
X156209580Y-117214285D01*
X156209580Y-117214285D02*
X156257200Y-117166666D01*
X156257200Y-117166666D02*
X156304819Y-117071428D01*
X156304819Y-117071428D02*
X156304819Y-116880952D01*
X156304819Y-116880952D02*
X156257200Y-116785714D01*
X156257200Y-116785714D02*
X156209580Y-116738095D01*
X156209580Y-116738095D02*
X156114342Y-116690476D01*
X156114342Y-116690476D02*
X155923866Y-116690476D01*
X155923866Y-116690476D02*
X155828628Y-116738095D01*
X155828628Y-116738095D02*
X155781009Y-116785714D01*
X155781009Y-116785714D02*
X155733390Y-116880952D01*
X155304819Y-115785714D02*
X155304819Y-116261904D01*
X155304819Y-116261904D02*
X155781009Y-116309523D01*
X155781009Y-116309523D02*
X155733390Y-116261904D01*
X155733390Y-116261904D02*
X155685771Y-116166666D01*
X155685771Y-116166666D02*
X155685771Y-115928571D01*
X155685771Y-115928571D02*
X155733390Y-115833333D01*
X155733390Y-115833333D02*
X155781009Y-115785714D01*
X155781009Y-115785714D02*
X155876247Y-115738095D01*
X155876247Y-115738095D02*
X156114342Y-115738095D01*
X156114342Y-115738095D02*
X156209580Y-115785714D01*
X156209580Y-115785714D02*
X156257200Y-115833333D01*
X156257200Y-115833333D02*
X156304819Y-115928571D01*
X156304819Y-115928571D02*
X156304819Y-116166666D01*
X156304819Y-116166666D02*
X156257200Y-116261904D01*
X156257200Y-116261904D02*
X156209580Y-116309523D01*
X159604819Y-113142857D02*
X159128628Y-113476190D01*
X159604819Y-113714285D02*
X158604819Y-113714285D01*
X158604819Y-113714285D02*
X158604819Y-113333333D01*
X158604819Y-113333333D02*
X158652438Y-113238095D01*
X158652438Y-113238095D02*
X158700057Y-113190476D01*
X158700057Y-113190476D02*
X158795295Y-113142857D01*
X158795295Y-113142857D02*
X158938152Y-113142857D01*
X158938152Y-113142857D02*
X159033390Y-113190476D01*
X159033390Y-113190476D02*
X159081009Y-113238095D01*
X159081009Y-113238095D02*
X159128628Y-113333333D01*
X159128628Y-113333333D02*
X159128628Y-113714285D01*
X159033390Y-112571428D02*
X158985771Y-112666666D01*
X158985771Y-112666666D02*
X158938152Y-112714285D01*
X158938152Y-112714285D02*
X158842914Y-112761904D01*
X158842914Y-112761904D02*
X158795295Y-112761904D01*
X158795295Y-112761904D02*
X158700057Y-112714285D01*
X158700057Y-112714285D02*
X158652438Y-112666666D01*
X158652438Y-112666666D02*
X158604819Y-112571428D01*
X158604819Y-112571428D02*
X158604819Y-112380952D01*
X158604819Y-112380952D02*
X158652438Y-112285714D01*
X158652438Y-112285714D02*
X158700057Y-112238095D01*
X158700057Y-112238095D02*
X158795295Y-112190476D01*
X158795295Y-112190476D02*
X158842914Y-112190476D01*
X158842914Y-112190476D02*
X158938152Y-112238095D01*
X158938152Y-112238095D02*
X158985771Y-112285714D01*
X158985771Y-112285714D02*
X159033390Y-112380952D01*
X159033390Y-112380952D02*
X159033390Y-112571428D01*
X159033390Y-112571428D02*
X159081009Y-112666666D01*
X159081009Y-112666666D02*
X159128628Y-112714285D01*
X159128628Y-112714285D02*
X159223866Y-112761904D01*
X159223866Y-112761904D02*
X159414342Y-112761904D01*
X159414342Y-112761904D02*
X159509580Y-112714285D01*
X159509580Y-112714285D02*
X159557200Y-112666666D01*
X159557200Y-112666666D02*
X159604819Y-112571428D01*
X159604819Y-112571428D02*
X159604819Y-112380952D01*
X159604819Y-112380952D02*
X159557200Y-112285714D01*
X159557200Y-112285714D02*
X159509580Y-112238095D01*
X159509580Y-112238095D02*
X159414342Y-112190476D01*
X159414342Y-112190476D02*
X159223866Y-112190476D01*
X159223866Y-112190476D02*
X159128628Y-112238095D01*
X159128628Y-112238095D02*
X159081009Y-112285714D01*
X159081009Y-112285714D02*
X159033390Y-112380952D01*
X158938152Y-111333333D02*
X159604819Y-111333333D01*
X158557200Y-111571428D02*
X159271485Y-111809523D01*
X159271485Y-111809523D02*
X159271485Y-111190476D01*
X161019819Y-115754523D02*
X161734104Y-115754523D01*
X161734104Y-115754523D02*
X161876961Y-115802142D01*
X161876961Y-115802142D02*
X161972200Y-115897380D01*
X161972200Y-115897380D02*
X162019819Y-116040237D01*
X162019819Y-116040237D02*
X162019819Y-116135475D01*
X162019819Y-114754523D02*
X162019819Y-115325951D01*
X162019819Y-115040237D02*
X161019819Y-115040237D01*
X161019819Y-115040237D02*
X161162676Y-115135475D01*
X161162676Y-115135475D02*
X161257914Y-115230713D01*
X161257914Y-115230713D02*
X161305533Y-115325951D01*
X161353152Y-113897380D02*
X162019819Y-113897380D01*
X160972200Y-114135475D02*
X161686485Y-114373570D01*
X161686485Y-114373570D02*
X161686485Y-113754523D01*
X45715405Y-77879819D02*
X45715405Y-76879819D01*
X45715405Y-76879819D02*
X45953500Y-76879819D01*
X45953500Y-76879819D02*
X46096357Y-76927438D01*
X46096357Y-76927438D02*
X46191595Y-77022676D01*
X46191595Y-77022676D02*
X46239214Y-77117914D01*
X46239214Y-77117914D02*
X46286833Y-77308390D01*
X46286833Y-77308390D02*
X46286833Y-77451247D01*
X46286833Y-77451247D02*
X46239214Y-77641723D01*
X46239214Y-77641723D02*
X46191595Y-77736961D01*
X46191595Y-77736961D02*
X46096357Y-77832200D01*
X46096357Y-77832200D02*
X45953500Y-77879819D01*
X45953500Y-77879819D02*
X45715405Y-77879819D01*
X47143976Y-76879819D02*
X46953500Y-76879819D01*
X46953500Y-76879819D02*
X46858262Y-76927438D01*
X46858262Y-76927438D02*
X46810643Y-76975057D01*
X46810643Y-76975057D02*
X46715405Y-77117914D01*
X46715405Y-77117914D02*
X46667786Y-77308390D01*
X46667786Y-77308390D02*
X46667786Y-77689342D01*
X46667786Y-77689342D02*
X46715405Y-77784580D01*
X46715405Y-77784580D02*
X46763024Y-77832200D01*
X46763024Y-77832200D02*
X46858262Y-77879819D01*
X46858262Y-77879819D02*
X47048738Y-77879819D01*
X47048738Y-77879819D02*
X47143976Y-77832200D01*
X47143976Y-77832200D02*
X47191595Y-77784580D01*
X47191595Y-77784580D02*
X47239214Y-77689342D01*
X47239214Y-77689342D02*
X47239214Y-77451247D01*
X47239214Y-77451247D02*
X47191595Y-77356009D01*
X47191595Y-77356009D02*
X47143976Y-77308390D01*
X47143976Y-77308390D02*
X47048738Y-77260771D01*
X47048738Y-77260771D02*
X46858262Y-77260771D01*
X46858262Y-77260771D02*
X46763024Y-77308390D01*
X46763024Y-77308390D02*
X46715405Y-77356009D01*
X46715405Y-77356009D02*
X46667786Y-77451247D01*
X123644642Y-144104819D02*
X123311309Y-143628628D01*
X123073214Y-144104819D02*
X123073214Y-143104819D01*
X123073214Y-143104819D02*
X123454166Y-143104819D01*
X123454166Y-143104819D02*
X123549404Y-143152438D01*
X123549404Y-143152438D02*
X123597023Y-143200057D01*
X123597023Y-143200057D02*
X123644642Y-143295295D01*
X123644642Y-143295295D02*
X123644642Y-143438152D01*
X123644642Y-143438152D02*
X123597023Y-143533390D01*
X123597023Y-143533390D02*
X123549404Y-143581009D01*
X123549404Y-143581009D02*
X123454166Y-143628628D01*
X123454166Y-143628628D02*
X123073214Y-143628628D01*
X124597023Y-144104819D02*
X124025595Y-144104819D01*
X124311309Y-144104819D02*
X124311309Y-143104819D01*
X124311309Y-143104819D02*
X124216071Y-143247676D01*
X124216071Y-143247676D02*
X124120833Y-143342914D01*
X124120833Y-143342914D02*
X124025595Y-143390533D01*
X124930357Y-143104819D02*
X125549404Y-143104819D01*
X125549404Y-143104819D02*
X125216071Y-143485771D01*
X125216071Y-143485771D02*
X125358928Y-143485771D01*
X125358928Y-143485771D02*
X125454166Y-143533390D01*
X125454166Y-143533390D02*
X125501785Y-143581009D01*
X125501785Y-143581009D02*
X125549404Y-143676247D01*
X125549404Y-143676247D02*
X125549404Y-143914342D01*
X125549404Y-143914342D02*
X125501785Y-144009580D01*
X125501785Y-144009580D02*
X125454166Y-144057200D01*
X125454166Y-144057200D02*
X125358928Y-144104819D01*
X125358928Y-144104819D02*
X125073214Y-144104819D01*
X125073214Y-144104819D02*
X124977976Y-144057200D01*
X124977976Y-144057200D02*
X124930357Y-144009580D01*
X162238095Y-130456819D02*
X162809523Y-130456819D01*
X162523809Y-131456819D02*
X162523809Y-130456819D01*
X163142857Y-131456819D02*
X163142857Y-130456819D01*
X163142857Y-130456819D02*
X163523809Y-130456819D01*
X163523809Y-130456819D02*
X163619047Y-130504438D01*
X163619047Y-130504438D02*
X163666666Y-130552057D01*
X163666666Y-130552057D02*
X163714285Y-130647295D01*
X163714285Y-130647295D02*
X163714285Y-130790152D01*
X163714285Y-130790152D02*
X163666666Y-130885390D01*
X163666666Y-130885390D02*
X163619047Y-130933009D01*
X163619047Y-130933009D02*
X163523809Y-130980628D01*
X163523809Y-130980628D02*
X163142857Y-130980628D01*
X164571428Y-130456819D02*
X164380952Y-130456819D01*
X164380952Y-130456819D02*
X164285714Y-130504438D01*
X164285714Y-130504438D02*
X164238095Y-130552057D01*
X164238095Y-130552057D02*
X164142857Y-130694914D01*
X164142857Y-130694914D02*
X164095238Y-130885390D01*
X164095238Y-130885390D02*
X164095238Y-131266342D01*
X164095238Y-131266342D02*
X164142857Y-131361580D01*
X164142857Y-131361580D02*
X164190476Y-131409200D01*
X164190476Y-131409200D02*
X164285714Y-131456819D01*
X164285714Y-131456819D02*
X164476190Y-131456819D01*
X164476190Y-131456819D02*
X164571428Y-131409200D01*
X164571428Y-131409200D02*
X164619047Y-131361580D01*
X164619047Y-131361580D02*
X164666666Y-131266342D01*
X164666666Y-131266342D02*
X164666666Y-131028247D01*
X164666666Y-131028247D02*
X164619047Y-130933009D01*
X164619047Y-130933009D02*
X164571428Y-130885390D01*
X164571428Y-130885390D02*
X164476190Y-130837771D01*
X164476190Y-130837771D02*
X164285714Y-130837771D01*
X164285714Y-130837771D02*
X164190476Y-130885390D01*
X164190476Y-130885390D02*
X164142857Y-130933009D01*
X164142857Y-130933009D02*
X164095238Y-131028247D01*
X77738095Y-50956819D02*
X78309523Y-50956819D01*
X78023809Y-51956819D02*
X78023809Y-50956819D01*
X78642857Y-51956819D02*
X78642857Y-50956819D01*
X78642857Y-50956819D02*
X79023809Y-50956819D01*
X79023809Y-50956819D02*
X79119047Y-51004438D01*
X79119047Y-51004438D02*
X79166666Y-51052057D01*
X79166666Y-51052057D02*
X79214285Y-51147295D01*
X79214285Y-51147295D02*
X79214285Y-51290152D01*
X79214285Y-51290152D02*
X79166666Y-51385390D01*
X79166666Y-51385390D02*
X79119047Y-51433009D01*
X79119047Y-51433009D02*
X79023809Y-51480628D01*
X79023809Y-51480628D02*
X78642857Y-51480628D01*
X79690476Y-51956819D02*
X79880952Y-51956819D01*
X79880952Y-51956819D02*
X79976190Y-51909200D01*
X79976190Y-51909200D02*
X80023809Y-51861580D01*
X80023809Y-51861580D02*
X80119047Y-51718723D01*
X80119047Y-51718723D02*
X80166666Y-51528247D01*
X80166666Y-51528247D02*
X80166666Y-51147295D01*
X80166666Y-51147295D02*
X80119047Y-51052057D01*
X80119047Y-51052057D02*
X80071428Y-51004438D01*
X80071428Y-51004438D02*
X79976190Y-50956819D01*
X79976190Y-50956819D02*
X79785714Y-50956819D01*
X79785714Y-50956819D02*
X79690476Y-51004438D01*
X79690476Y-51004438D02*
X79642857Y-51052057D01*
X79642857Y-51052057D02*
X79595238Y-51147295D01*
X79595238Y-51147295D02*
X79595238Y-51385390D01*
X79595238Y-51385390D02*
X79642857Y-51480628D01*
X79642857Y-51480628D02*
X79690476Y-51528247D01*
X79690476Y-51528247D02*
X79785714Y-51575866D01*
X79785714Y-51575866D02*
X79976190Y-51575866D01*
X79976190Y-51575866D02*
X80071428Y-51528247D01*
X80071428Y-51528247D02*
X80119047Y-51480628D01*
X80119047Y-51480628D02*
X80166666Y-51385390D01*
X140514580Y-157142857D02*
X140562200Y-157190476D01*
X140562200Y-157190476D02*
X140609819Y-157333333D01*
X140609819Y-157333333D02*
X140609819Y-157428571D01*
X140609819Y-157428571D02*
X140562200Y-157571428D01*
X140562200Y-157571428D02*
X140466961Y-157666666D01*
X140466961Y-157666666D02*
X140371723Y-157714285D01*
X140371723Y-157714285D02*
X140181247Y-157761904D01*
X140181247Y-157761904D02*
X140038390Y-157761904D01*
X140038390Y-157761904D02*
X139847914Y-157714285D01*
X139847914Y-157714285D02*
X139752676Y-157666666D01*
X139752676Y-157666666D02*
X139657438Y-157571428D01*
X139657438Y-157571428D02*
X139609819Y-157428571D01*
X139609819Y-157428571D02*
X139609819Y-157333333D01*
X139609819Y-157333333D02*
X139657438Y-157190476D01*
X139657438Y-157190476D02*
X139705057Y-157142857D01*
X140609819Y-156190476D02*
X140609819Y-156761904D01*
X140609819Y-156476190D02*
X139609819Y-156476190D01*
X139609819Y-156476190D02*
X139752676Y-156571428D01*
X139752676Y-156571428D02*
X139847914Y-156666666D01*
X139847914Y-156666666D02*
X139895533Y-156761904D01*
X140609819Y-155238095D02*
X140609819Y-155809523D01*
X140609819Y-155523809D02*
X139609819Y-155523809D01*
X139609819Y-155523809D02*
X139752676Y-155619047D01*
X139752676Y-155619047D02*
X139847914Y-155714285D01*
X139847914Y-155714285D02*
X139895533Y-155809523D01*
X87720809Y-141174927D02*
X87387476Y-140698736D01*
X87149381Y-141174927D02*
X87149381Y-140174927D01*
X87149381Y-140174927D02*
X87530333Y-140174927D01*
X87530333Y-140174927D02*
X87625571Y-140222546D01*
X87625571Y-140222546D02*
X87673190Y-140270165D01*
X87673190Y-140270165D02*
X87720809Y-140365403D01*
X87720809Y-140365403D02*
X87720809Y-140508260D01*
X87720809Y-140508260D02*
X87673190Y-140603498D01*
X87673190Y-140603498D02*
X87625571Y-140651117D01*
X87625571Y-140651117D02*
X87530333Y-140698736D01*
X87530333Y-140698736D02*
X87149381Y-140698736D01*
X88292238Y-140603498D02*
X88197000Y-140555879D01*
X88197000Y-140555879D02*
X88149381Y-140508260D01*
X88149381Y-140508260D02*
X88101762Y-140413022D01*
X88101762Y-140413022D02*
X88101762Y-140365403D01*
X88101762Y-140365403D02*
X88149381Y-140270165D01*
X88149381Y-140270165D02*
X88197000Y-140222546D01*
X88197000Y-140222546D02*
X88292238Y-140174927D01*
X88292238Y-140174927D02*
X88482714Y-140174927D01*
X88482714Y-140174927D02*
X88577952Y-140222546D01*
X88577952Y-140222546D02*
X88625571Y-140270165D01*
X88625571Y-140270165D02*
X88673190Y-140365403D01*
X88673190Y-140365403D02*
X88673190Y-140413022D01*
X88673190Y-140413022D02*
X88625571Y-140508260D01*
X88625571Y-140508260D02*
X88577952Y-140555879D01*
X88577952Y-140555879D02*
X88482714Y-140603498D01*
X88482714Y-140603498D02*
X88292238Y-140603498D01*
X88292238Y-140603498D02*
X88197000Y-140651117D01*
X88197000Y-140651117D02*
X88149381Y-140698736D01*
X88149381Y-140698736D02*
X88101762Y-140793974D01*
X88101762Y-140793974D02*
X88101762Y-140984450D01*
X88101762Y-140984450D02*
X88149381Y-141079688D01*
X88149381Y-141079688D02*
X88197000Y-141127308D01*
X88197000Y-141127308D02*
X88292238Y-141174927D01*
X88292238Y-141174927D02*
X88482714Y-141174927D01*
X88482714Y-141174927D02*
X88577952Y-141127308D01*
X88577952Y-141127308D02*
X88625571Y-141079688D01*
X88625571Y-141079688D02*
X88673190Y-140984450D01*
X88673190Y-140984450D02*
X88673190Y-140793974D01*
X88673190Y-140793974D02*
X88625571Y-140698736D01*
X88625571Y-140698736D02*
X88577952Y-140651117D01*
X88577952Y-140651117D02*
X88482714Y-140603498D01*
X103339556Y-151786774D02*
X103387176Y-151834393D01*
X103387176Y-151834393D02*
X103434795Y-151977250D01*
X103434795Y-151977250D02*
X103434795Y-152072488D01*
X103434795Y-152072488D02*
X103387176Y-152215345D01*
X103387176Y-152215345D02*
X103291937Y-152310583D01*
X103291937Y-152310583D02*
X103196699Y-152358202D01*
X103196699Y-152358202D02*
X103006223Y-152405821D01*
X103006223Y-152405821D02*
X102863366Y-152405821D01*
X102863366Y-152405821D02*
X102672890Y-152358202D01*
X102672890Y-152358202D02*
X102577652Y-152310583D01*
X102577652Y-152310583D02*
X102482414Y-152215345D01*
X102482414Y-152215345D02*
X102434795Y-152072488D01*
X102434795Y-152072488D02*
X102434795Y-151977250D01*
X102434795Y-151977250D02*
X102482414Y-151834393D01*
X102482414Y-151834393D02*
X102530033Y-151786774D01*
X102434795Y-151453440D02*
X102434795Y-150834393D01*
X102434795Y-150834393D02*
X102815747Y-151167726D01*
X102815747Y-151167726D02*
X102815747Y-151024869D01*
X102815747Y-151024869D02*
X102863366Y-150929631D01*
X102863366Y-150929631D02*
X102910985Y-150882012D01*
X102910985Y-150882012D02*
X103006223Y-150834393D01*
X103006223Y-150834393D02*
X103244318Y-150834393D01*
X103244318Y-150834393D02*
X103339556Y-150882012D01*
X103339556Y-150882012D02*
X103387176Y-150929631D01*
X103387176Y-150929631D02*
X103434795Y-151024869D01*
X103434795Y-151024869D02*
X103434795Y-151310583D01*
X103434795Y-151310583D02*
X103387176Y-151405821D01*
X103387176Y-151405821D02*
X103339556Y-151453440D01*
X79183309Y-153109688D02*
X79135690Y-153157308D01*
X79135690Y-153157308D02*
X78992833Y-153204927D01*
X78992833Y-153204927D02*
X78897595Y-153204927D01*
X78897595Y-153204927D02*
X78754738Y-153157308D01*
X78754738Y-153157308D02*
X78659500Y-153062069D01*
X78659500Y-153062069D02*
X78611881Y-152966831D01*
X78611881Y-152966831D02*
X78564262Y-152776355D01*
X78564262Y-152776355D02*
X78564262Y-152633498D01*
X78564262Y-152633498D02*
X78611881Y-152443022D01*
X78611881Y-152443022D02*
X78659500Y-152347784D01*
X78659500Y-152347784D02*
X78754738Y-152252546D01*
X78754738Y-152252546D02*
X78897595Y-152204927D01*
X78897595Y-152204927D02*
X78992833Y-152204927D01*
X78992833Y-152204927D02*
X79135690Y-152252546D01*
X79135690Y-152252546D02*
X79183309Y-152300165D01*
X79564262Y-152300165D02*
X79611881Y-152252546D01*
X79611881Y-152252546D02*
X79707119Y-152204927D01*
X79707119Y-152204927D02*
X79945214Y-152204927D01*
X79945214Y-152204927D02*
X80040452Y-152252546D01*
X80040452Y-152252546D02*
X80088071Y-152300165D01*
X80088071Y-152300165D02*
X80135690Y-152395403D01*
X80135690Y-152395403D02*
X80135690Y-152490641D01*
X80135690Y-152490641D02*
X80088071Y-152633498D01*
X80088071Y-152633498D02*
X79516643Y-153204927D01*
X79516643Y-153204927D02*
X80135690Y-153204927D01*
X23238095Y-160354819D02*
X23238095Y-159354819D01*
X23238095Y-159831009D02*
X23809523Y-159831009D01*
X23809523Y-160354819D02*
X23809523Y-159354819D01*
X24190476Y-159354819D02*
X24809523Y-159354819D01*
X24809523Y-159354819D02*
X24476190Y-159735771D01*
X24476190Y-159735771D02*
X24619047Y-159735771D01*
X24619047Y-159735771D02*
X24714285Y-159783390D01*
X24714285Y-159783390D02*
X24761904Y-159831009D01*
X24761904Y-159831009D02*
X24809523Y-159926247D01*
X24809523Y-159926247D02*
X24809523Y-160164342D01*
X24809523Y-160164342D02*
X24761904Y-160259580D01*
X24761904Y-160259580D02*
X24714285Y-160307200D01*
X24714285Y-160307200D02*
X24619047Y-160354819D01*
X24619047Y-160354819D02*
X24333333Y-160354819D01*
X24333333Y-160354819D02*
X24238095Y-160307200D01*
X24238095Y-160307200D02*
X24190476Y-160259580D01*
X80466642Y-160351117D02*
X80133309Y-160351117D01*
X80133309Y-160874927D02*
X80133309Y-159874927D01*
X80133309Y-159874927D02*
X80609499Y-159874927D01*
X81514261Y-160874927D02*
X80942833Y-160874927D01*
X81228547Y-160874927D02*
X81228547Y-159874927D01*
X81228547Y-159874927D02*
X81133309Y-160017784D01*
X81133309Y-160017784D02*
X81038071Y-160113022D01*
X81038071Y-160113022D02*
X80942833Y-160160641D01*
X162238095Y-136956819D02*
X162809523Y-136956819D01*
X162523809Y-137956819D02*
X162523809Y-136956819D01*
X163142857Y-137956819D02*
X163142857Y-136956819D01*
X163142857Y-136956819D02*
X163523809Y-136956819D01*
X163523809Y-136956819D02*
X163619047Y-137004438D01*
X163619047Y-137004438D02*
X163666666Y-137052057D01*
X163666666Y-137052057D02*
X163714285Y-137147295D01*
X163714285Y-137147295D02*
X163714285Y-137290152D01*
X163714285Y-137290152D02*
X163666666Y-137385390D01*
X163666666Y-137385390D02*
X163619047Y-137433009D01*
X163619047Y-137433009D02*
X163523809Y-137480628D01*
X163523809Y-137480628D02*
X163142857Y-137480628D01*
X164047619Y-136956819D02*
X164714285Y-136956819D01*
X164714285Y-136956819D02*
X164285714Y-137956819D01*
X47294594Y-83470180D02*
X47294594Y-84470180D01*
X47294594Y-84470180D02*
X47056499Y-84470180D01*
X47056499Y-84470180D02*
X46913642Y-84422561D01*
X46913642Y-84422561D02*
X46818404Y-84327323D01*
X46818404Y-84327323D02*
X46770785Y-84232085D01*
X46770785Y-84232085D02*
X46723166Y-84041609D01*
X46723166Y-84041609D02*
X46723166Y-83898752D01*
X46723166Y-83898752D02*
X46770785Y-83708276D01*
X46770785Y-83708276D02*
X46818404Y-83613038D01*
X46818404Y-83613038D02*
X46913642Y-83517800D01*
X46913642Y-83517800D02*
X47056499Y-83470180D01*
X47056499Y-83470180D02*
X47294594Y-83470180D01*
X46389832Y-84470180D02*
X45723166Y-84470180D01*
X45723166Y-84470180D02*
X46151737Y-83470180D01*
X41304819Y-142166666D02*
X40828628Y-142499999D01*
X41304819Y-142738094D02*
X40304819Y-142738094D01*
X40304819Y-142738094D02*
X40304819Y-142357142D01*
X40304819Y-142357142D02*
X40352438Y-142261904D01*
X40352438Y-142261904D02*
X40400057Y-142214285D01*
X40400057Y-142214285D02*
X40495295Y-142166666D01*
X40495295Y-142166666D02*
X40638152Y-142166666D01*
X40638152Y-142166666D02*
X40733390Y-142214285D01*
X40733390Y-142214285D02*
X40781009Y-142261904D01*
X40781009Y-142261904D02*
X40828628Y-142357142D01*
X40828628Y-142357142D02*
X40828628Y-142738094D01*
X41304819Y-141214285D02*
X41304819Y-141785713D01*
X41304819Y-141499999D02*
X40304819Y-141499999D01*
X40304819Y-141499999D02*
X40447676Y-141595237D01*
X40447676Y-141595237D02*
X40542914Y-141690475D01*
X40542914Y-141690475D02*
X40590533Y-141785713D01*
X79765476Y-27997819D02*
X79765476Y-28712104D01*
X79765476Y-28712104D02*
X79717857Y-28854961D01*
X79717857Y-28854961D02*
X79622619Y-28950200D01*
X79622619Y-28950200D02*
X79479762Y-28997819D01*
X79479762Y-28997819D02*
X79384524Y-28997819D01*
X80765476Y-28997819D02*
X80194048Y-28997819D01*
X80479762Y-28997819D02*
X80479762Y-27997819D01*
X80479762Y-27997819D02*
X80384524Y-28140676D01*
X80384524Y-28140676D02*
X80289286Y-28235914D01*
X80289286Y-28235914D02*
X80194048Y-28283533D01*
X81717857Y-28997819D02*
X81146429Y-28997819D01*
X81432143Y-28997819D02*
X81432143Y-27997819D01*
X81432143Y-27997819D02*
X81336905Y-28140676D01*
X81336905Y-28140676D02*
X81241667Y-28235914D01*
X81241667Y-28235914D02*
X81146429Y-28283533D01*
X109306094Y-57045180D02*
X109306094Y-58045180D01*
X109306094Y-58045180D02*
X109067999Y-58045180D01*
X109067999Y-58045180D02*
X108925142Y-57997561D01*
X108925142Y-57997561D02*
X108829904Y-57902323D01*
X108829904Y-57902323D02*
X108782285Y-57807085D01*
X108782285Y-57807085D02*
X108734666Y-57616609D01*
X108734666Y-57616609D02*
X108734666Y-57473752D01*
X108734666Y-57473752D02*
X108782285Y-57283276D01*
X108782285Y-57283276D02*
X108829904Y-57188038D01*
X108829904Y-57188038D02*
X108925142Y-57092800D01*
X108925142Y-57092800D02*
X109067999Y-57045180D01*
X109067999Y-57045180D02*
X109306094Y-57045180D01*
X108353713Y-57949942D02*
X108306094Y-57997561D01*
X108306094Y-57997561D02*
X108210856Y-58045180D01*
X108210856Y-58045180D02*
X107972761Y-58045180D01*
X107972761Y-58045180D02*
X107877523Y-57997561D01*
X107877523Y-57997561D02*
X107829904Y-57949942D01*
X107829904Y-57949942D02*
X107782285Y-57854704D01*
X107782285Y-57854704D02*
X107782285Y-57759466D01*
X107782285Y-57759466D02*
X107829904Y-57616609D01*
X107829904Y-57616609D02*
X108401332Y-57045180D01*
X108401332Y-57045180D02*
X107782285Y-57045180D01*
X70761905Y-138454819D02*
X70761905Y-137454819D01*
X70761905Y-137454819D02*
X71000000Y-137454819D01*
X71000000Y-137454819D02*
X71142857Y-137502438D01*
X71142857Y-137502438D02*
X71238095Y-137597676D01*
X71238095Y-137597676D02*
X71285714Y-137692914D01*
X71285714Y-137692914D02*
X71333333Y-137883390D01*
X71333333Y-137883390D02*
X71333333Y-138026247D01*
X71333333Y-138026247D02*
X71285714Y-138216723D01*
X71285714Y-138216723D02*
X71238095Y-138311961D01*
X71238095Y-138311961D02*
X71142857Y-138407200D01*
X71142857Y-138407200D02*
X71000000Y-138454819D01*
X71000000Y-138454819D02*
X70761905Y-138454819D01*
X72285714Y-138454819D02*
X71714286Y-138454819D01*
X72000000Y-138454819D02*
X72000000Y-137454819D01*
X72000000Y-137454819D02*
X71904762Y-137597676D01*
X71904762Y-137597676D02*
X71809524Y-137692914D01*
X71809524Y-137692914D02*
X71714286Y-137740533D01*
X23238095Y-19854819D02*
X23238095Y-18854819D01*
X23238095Y-19331009D02*
X23809523Y-19331009D01*
X23809523Y-19854819D02*
X23809523Y-18854819D01*
X24238095Y-18950057D02*
X24285714Y-18902438D01*
X24285714Y-18902438D02*
X24380952Y-18854819D01*
X24380952Y-18854819D02*
X24619047Y-18854819D01*
X24619047Y-18854819D02*
X24714285Y-18902438D01*
X24714285Y-18902438D02*
X24761904Y-18950057D01*
X24761904Y-18950057D02*
X24809523Y-19045295D01*
X24809523Y-19045295D02*
X24809523Y-19140533D01*
X24809523Y-19140533D02*
X24761904Y-19283390D01*
X24761904Y-19283390D02*
X24190476Y-19854819D01*
X24190476Y-19854819D02*
X24809523Y-19854819D01*
X67969947Y-117607680D02*
X68446137Y-117607680D01*
X68446137Y-117607680D02*
X68446137Y-118607680D01*
X67636613Y-118131490D02*
X67303280Y-118131490D01*
X67160423Y-117607680D02*
X67636613Y-117607680D01*
X67636613Y-117607680D02*
X67636613Y-118607680D01*
X67636613Y-118607680D02*
X67160423Y-118607680D01*
X66731851Y-117607680D02*
X66731851Y-118607680D01*
X66731851Y-118607680D02*
X66493756Y-118607680D01*
X66493756Y-118607680D02*
X66350899Y-118560061D01*
X66350899Y-118560061D02*
X66255661Y-118464823D01*
X66255661Y-118464823D02*
X66208042Y-118369585D01*
X66208042Y-118369585D02*
X66160423Y-118179109D01*
X66160423Y-118179109D02*
X66160423Y-118036252D01*
X66160423Y-118036252D02*
X66208042Y-117845776D01*
X66208042Y-117845776D02*
X66255661Y-117750538D01*
X66255661Y-117750538D02*
X66350899Y-117655300D01*
X66350899Y-117655300D02*
X66493756Y-117607680D01*
X66493756Y-117607680D02*
X66731851Y-117607680D01*
X65827089Y-118607680D02*
X65208042Y-118607680D01*
X65208042Y-118607680D02*
X65541375Y-118226728D01*
X65541375Y-118226728D02*
X65398518Y-118226728D01*
X65398518Y-118226728D02*
X65303280Y-118179109D01*
X65303280Y-118179109D02*
X65255661Y-118131490D01*
X65255661Y-118131490D02*
X65208042Y-118036252D01*
X65208042Y-118036252D02*
X65208042Y-117798157D01*
X65208042Y-117798157D02*
X65255661Y-117702919D01*
X65255661Y-117702919D02*
X65303280Y-117655300D01*
X65303280Y-117655300D02*
X65398518Y-117607680D01*
X65398518Y-117607680D02*
X65684232Y-117607680D01*
X65684232Y-117607680D02*
X65779470Y-117655300D01*
X65779470Y-117655300D02*
X65827089Y-117702919D01*
X41356257Y-120047738D02*
X41308638Y-120142976D01*
X41308638Y-120142976D02*
X41213400Y-120238214D01*
X41213400Y-120238214D02*
X41070542Y-120381071D01*
X41070542Y-120381071D02*
X41022923Y-120476309D01*
X41022923Y-120476309D02*
X41022923Y-120571547D01*
X41261019Y-120523928D02*
X41213400Y-120619166D01*
X41213400Y-120619166D02*
X41118161Y-120714404D01*
X41118161Y-120714404D02*
X40927685Y-120762023D01*
X40927685Y-120762023D02*
X40594352Y-120762023D01*
X40594352Y-120762023D02*
X40403876Y-120714404D01*
X40403876Y-120714404D02*
X40308638Y-120619166D01*
X40308638Y-120619166D02*
X40261019Y-120523928D01*
X40261019Y-120523928D02*
X40261019Y-120333452D01*
X40261019Y-120333452D02*
X40308638Y-120238214D01*
X40308638Y-120238214D02*
X40403876Y-120142976D01*
X40403876Y-120142976D02*
X40594352Y-120095357D01*
X40594352Y-120095357D02*
X40927685Y-120095357D01*
X40927685Y-120095357D02*
X41118161Y-120142976D01*
X41118161Y-120142976D02*
X41213400Y-120238214D01*
X41213400Y-120238214D02*
X41261019Y-120333452D01*
X41261019Y-120333452D02*
X41261019Y-120523928D01*
X40261019Y-119762023D02*
X40261019Y-119142976D01*
X40261019Y-119142976D02*
X40641971Y-119476309D01*
X40641971Y-119476309D02*
X40641971Y-119333452D01*
X40641971Y-119333452D02*
X40689590Y-119238214D01*
X40689590Y-119238214D02*
X40737209Y-119190595D01*
X40737209Y-119190595D02*
X40832447Y-119142976D01*
X40832447Y-119142976D02*
X41070542Y-119142976D01*
X41070542Y-119142976D02*
X41165780Y-119190595D01*
X41165780Y-119190595D02*
X41213400Y-119238214D01*
X41213400Y-119238214D02*
X41261019Y-119333452D01*
X41261019Y-119333452D02*
X41261019Y-119619166D01*
X41261019Y-119619166D02*
X41213400Y-119714404D01*
X41213400Y-119714404D02*
X41165780Y-119762023D01*
X137556009Y-133333333D02*
X137556009Y-133666666D01*
X138079819Y-133666666D02*
X137079819Y-133666666D01*
X137079819Y-133666666D02*
X137079819Y-133190476D01*
X137079819Y-132904761D02*
X137079819Y-132285714D01*
X137079819Y-132285714D02*
X137460771Y-132619047D01*
X137460771Y-132619047D02*
X137460771Y-132476190D01*
X137460771Y-132476190D02*
X137508390Y-132380952D01*
X137508390Y-132380952D02*
X137556009Y-132333333D01*
X137556009Y-132333333D02*
X137651247Y-132285714D01*
X137651247Y-132285714D02*
X137889342Y-132285714D01*
X137889342Y-132285714D02*
X137984580Y-132333333D01*
X137984580Y-132333333D02*
X138032200Y-132380952D01*
X138032200Y-132380952D02*
X138079819Y-132476190D01*
X138079819Y-132476190D02*
X138079819Y-132761904D01*
X138079819Y-132761904D02*
X138032200Y-132857142D01*
X138032200Y-132857142D02*
X137984580Y-132904761D01*
X167775180Y-73636666D02*
X167060895Y-73636666D01*
X167060895Y-73636666D02*
X166918038Y-73589047D01*
X166918038Y-73589047D02*
X166822800Y-73493809D01*
X166822800Y-73493809D02*
X166775180Y-73350952D01*
X166775180Y-73350952D02*
X166775180Y-73255714D01*
X166775180Y-74636666D02*
X166775180Y-74065238D01*
X166775180Y-74350952D02*
X167775180Y-74350952D01*
X167775180Y-74350952D02*
X167632323Y-74255714D01*
X167632323Y-74255714D02*
X167537085Y-74160476D01*
X167537085Y-74160476D02*
X167489466Y-74065238D01*
X129929819Y-138603047D02*
X129929819Y-139079237D01*
X129929819Y-139079237D02*
X128929819Y-139079237D01*
X129406009Y-138269713D02*
X129406009Y-137936380D01*
X129929819Y-137793523D02*
X129929819Y-138269713D01*
X129929819Y-138269713D02*
X128929819Y-138269713D01*
X128929819Y-138269713D02*
X128929819Y-137793523D01*
X129929819Y-137364951D02*
X128929819Y-137364951D01*
X128929819Y-137364951D02*
X128929819Y-137126856D01*
X128929819Y-137126856D02*
X128977438Y-136983999D01*
X128977438Y-136983999D02*
X129072676Y-136888761D01*
X129072676Y-136888761D02*
X129167914Y-136841142D01*
X129167914Y-136841142D02*
X129358390Y-136793523D01*
X129358390Y-136793523D02*
X129501247Y-136793523D01*
X129501247Y-136793523D02*
X129691723Y-136841142D01*
X129691723Y-136841142D02*
X129786961Y-136888761D01*
X129786961Y-136888761D02*
X129882200Y-136983999D01*
X129882200Y-136983999D02*
X129929819Y-137126856D01*
X129929819Y-137126856D02*
X129929819Y-137364951D01*
X129263152Y-135936380D02*
X129929819Y-135936380D01*
X128882200Y-136174475D02*
X129596485Y-136412570D01*
X129596485Y-136412570D02*
X129596485Y-135793523D01*
X85833333Y-105242080D02*
X85785714Y-105289700D01*
X85785714Y-105289700D02*
X85642857Y-105337319D01*
X85642857Y-105337319D02*
X85547619Y-105337319D01*
X85547619Y-105337319D02*
X85404762Y-105289700D01*
X85404762Y-105289700D02*
X85309524Y-105194461D01*
X85309524Y-105194461D02*
X85261905Y-105099223D01*
X85261905Y-105099223D02*
X85214286Y-104908747D01*
X85214286Y-104908747D02*
X85214286Y-104765890D01*
X85214286Y-104765890D02*
X85261905Y-104575414D01*
X85261905Y-104575414D02*
X85309524Y-104480176D01*
X85309524Y-104480176D02*
X85404762Y-104384938D01*
X85404762Y-104384938D02*
X85547619Y-104337319D01*
X85547619Y-104337319D02*
X85642857Y-104337319D01*
X85642857Y-104337319D02*
X85785714Y-104384938D01*
X85785714Y-104384938D02*
X85833333Y-104432557D01*
X86404762Y-104765890D02*
X86309524Y-104718271D01*
X86309524Y-104718271D02*
X86261905Y-104670652D01*
X86261905Y-104670652D02*
X86214286Y-104575414D01*
X86214286Y-104575414D02*
X86214286Y-104527795D01*
X86214286Y-104527795D02*
X86261905Y-104432557D01*
X86261905Y-104432557D02*
X86309524Y-104384938D01*
X86309524Y-104384938D02*
X86404762Y-104337319D01*
X86404762Y-104337319D02*
X86595238Y-104337319D01*
X86595238Y-104337319D02*
X86690476Y-104384938D01*
X86690476Y-104384938D02*
X86738095Y-104432557D01*
X86738095Y-104432557D02*
X86785714Y-104527795D01*
X86785714Y-104527795D02*
X86785714Y-104575414D01*
X86785714Y-104575414D02*
X86738095Y-104670652D01*
X86738095Y-104670652D02*
X86690476Y-104718271D01*
X86690476Y-104718271D02*
X86595238Y-104765890D01*
X86595238Y-104765890D02*
X86404762Y-104765890D01*
X86404762Y-104765890D02*
X86309524Y-104813509D01*
X86309524Y-104813509D02*
X86261905Y-104861128D01*
X86261905Y-104861128D02*
X86214286Y-104956366D01*
X86214286Y-104956366D02*
X86214286Y-105146842D01*
X86214286Y-105146842D02*
X86261905Y-105242080D01*
X86261905Y-105242080D02*
X86309524Y-105289700D01*
X86309524Y-105289700D02*
X86404762Y-105337319D01*
X86404762Y-105337319D02*
X86595238Y-105337319D01*
X86595238Y-105337319D02*
X86690476Y-105289700D01*
X86690476Y-105289700D02*
X86738095Y-105242080D01*
X86738095Y-105242080D02*
X86785714Y-105146842D01*
X86785714Y-105146842D02*
X86785714Y-104956366D01*
X86785714Y-104956366D02*
X86738095Y-104861128D01*
X86738095Y-104861128D02*
X86690476Y-104813509D01*
X86690476Y-104813509D02*
X86595238Y-104765890D01*
X75709819Y-57846904D02*
X76519342Y-57846904D01*
X76519342Y-57846904D02*
X76614580Y-57799285D01*
X76614580Y-57799285D02*
X76662200Y-57751666D01*
X76662200Y-57751666D02*
X76709819Y-57656428D01*
X76709819Y-57656428D02*
X76709819Y-57465952D01*
X76709819Y-57465952D02*
X76662200Y-57370714D01*
X76662200Y-57370714D02*
X76614580Y-57323095D01*
X76614580Y-57323095D02*
X76519342Y-57275476D01*
X76519342Y-57275476D02*
X75709819Y-57275476D01*
X75805057Y-56846904D02*
X75757438Y-56799285D01*
X75757438Y-56799285D02*
X75709819Y-56704047D01*
X75709819Y-56704047D02*
X75709819Y-56465952D01*
X75709819Y-56465952D02*
X75757438Y-56370714D01*
X75757438Y-56370714D02*
X75805057Y-56323095D01*
X75805057Y-56323095D02*
X75900295Y-56275476D01*
X75900295Y-56275476D02*
X75995533Y-56275476D01*
X75995533Y-56275476D02*
X76138390Y-56323095D01*
X76138390Y-56323095D02*
X76709819Y-56894523D01*
X76709819Y-56894523D02*
X76709819Y-56275476D01*
X107960405Y-51954819D02*
X107960405Y-50954819D01*
X107960405Y-50954819D02*
X108198500Y-50954819D01*
X108198500Y-50954819D02*
X108341357Y-51002438D01*
X108341357Y-51002438D02*
X108436595Y-51097676D01*
X108436595Y-51097676D02*
X108484214Y-51192914D01*
X108484214Y-51192914D02*
X108531833Y-51383390D01*
X108531833Y-51383390D02*
X108531833Y-51526247D01*
X108531833Y-51526247D02*
X108484214Y-51716723D01*
X108484214Y-51716723D02*
X108436595Y-51811961D01*
X108436595Y-51811961D02*
X108341357Y-51907200D01*
X108341357Y-51907200D02*
X108198500Y-51954819D01*
X108198500Y-51954819D02*
X107960405Y-51954819D01*
X108865167Y-50954819D02*
X109484214Y-50954819D01*
X109484214Y-50954819D02*
X109150881Y-51335771D01*
X109150881Y-51335771D02*
X109293738Y-51335771D01*
X109293738Y-51335771D02*
X109388976Y-51383390D01*
X109388976Y-51383390D02*
X109436595Y-51431009D01*
X109436595Y-51431009D02*
X109484214Y-51526247D01*
X109484214Y-51526247D02*
X109484214Y-51764342D01*
X109484214Y-51764342D02*
X109436595Y-51859580D01*
X109436595Y-51859580D02*
X109388976Y-51907200D01*
X109388976Y-51907200D02*
X109293738Y-51954819D01*
X109293738Y-51954819D02*
X109008024Y-51954819D01*
X109008024Y-51954819D02*
X108912786Y-51907200D01*
X108912786Y-51907200D02*
X108865167Y-51859580D01*
X132279819Y-143642857D02*
X131803628Y-143976190D01*
X132279819Y-144214285D02*
X131279819Y-144214285D01*
X131279819Y-144214285D02*
X131279819Y-143833333D01*
X131279819Y-143833333D02*
X131327438Y-143738095D01*
X131327438Y-143738095D02*
X131375057Y-143690476D01*
X131375057Y-143690476D02*
X131470295Y-143642857D01*
X131470295Y-143642857D02*
X131613152Y-143642857D01*
X131613152Y-143642857D02*
X131708390Y-143690476D01*
X131708390Y-143690476D02*
X131756009Y-143738095D01*
X131756009Y-143738095D02*
X131803628Y-143833333D01*
X131803628Y-143833333D02*
X131803628Y-144214285D01*
X132279819Y-142690476D02*
X132279819Y-143261904D01*
X132279819Y-142976190D02*
X131279819Y-142976190D01*
X131279819Y-142976190D02*
X131422676Y-143071428D01*
X131422676Y-143071428D02*
X131517914Y-143166666D01*
X131517914Y-143166666D02*
X131565533Y-143261904D01*
X131375057Y-142309523D02*
X131327438Y-142261904D01*
X131327438Y-142261904D02*
X131279819Y-142166666D01*
X131279819Y-142166666D02*
X131279819Y-141928571D01*
X131279819Y-141928571D02*
X131327438Y-141833333D01*
X131327438Y-141833333D02*
X131375057Y-141785714D01*
X131375057Y-141785714D02*
X131470295Y-141738095D01*
X131470295Y-141738095D02*
X131565533Y-141738095D01*
X131565533Y-141738095D02*
X131708390Y-141785714D01*
X131708390Y-141785714D02*
X132279819Y-142357142D01*
X132279819Y-142357142D02*
X132279819Y-141738095D01*
X21942857Y-137056819D02*
X22514285Y-137056819D01*
X22228571Y-138056819D02*
X22228571Y-137056819D01*
X22847619Y-138056819D02*
X22847619Y-137056819D01*
X22847619Y-137056819D02*
X23228571Y-137056819D01*
X23228571Y-137056819D02*
X23323809Y-137104438D01*
X23323809Y-137104438D02*
X23371428Y-137152057D01*
X23371428Y-137152057D02*
X23419047Y-137247295D01*
X23419047Y-137247295D02*
X23419047Y-137390152D01*
X23419047Y-137390152D02*
X23371428Y-137485390D01*
X23371428Y-137485390D02*
X23323809Y-137533009D01*
X23323809Y-137533009D02*
X23228571Y-137580628D01*
X23228571Y-137580628D02*
X22847619Y-137580628D01*
X23847619Y-137675866D02*
X24609524Y-137675866D01*
X24942857Y-137056819D02*
X25276190Y-138056819D01*
X25276190Y-138056819D02*
X25609523Y-137056819D01*
X26466666Y-137104438D02*
X26371428Y-137056819D01*
X26371428Y-137056819D02*
X26228571Y-137056819D01*
X26228571Y-137056819D02*
X26085714Y-137104438D01*
X26085714Y-137104438D02*
X25990476Y-137199676D01*
X25990476Y-137199676D02*
X25942857Y-137294914D01*
X25942857Y-137294914D02*
X25895238Y-137485390D01*
X25895238Y-137485390D02*
X25895238Y-137628247D01*
X25895238Y-137628247D02*
X25942857Y-137818723D01*
X25942857Y-137818723D02*
X25990476Y-137913961D01*
X25990476Y-137913961D02*
X26085714Y-138009200D01*
X26085714Y-138009200D02*
X26228571Y-138056819D01*
X26228571Y-138056819D02*
X26323809Y-138056819D01*
X26323809Y-138056819D02*
X26466666Y-138009200D01*
X26466666Y-138009200D02*
X26514285Y-137961580D01*
X26514285Y-137961580D02*
X26514285Y-137628247D01*
X26514285Y-137628247D02*
X26323809Y-137628247D01*
X26895238Y-138009200D02*
X27038095Y-138056819D01*
X27038095Y-138056819D02*
X27276190Y-138056819D01*
X27276190Y-138056819D02*
X27371428Y-138009200D01*
X27371428Y-138009200D02*
X27419047Y-137961580D01*
X27419047Y-137961580D02*
X27466666Y-137866342D01*
X27466666Y-137866342D02*
X27466666Y-137771104D01*
X27466666Y-137771104D02*
X27419047Y-137675866D01*
X27419047Y-137675866D02*
X27371428Y-137628247D01*
X27371428Y-137628247D02*
X27276190Y-137580628D01*
X27276190Y-137580628D02*
X27085714Y-137533009D01*
X27085714Y-137533009D02*
X26990476Y-137485390D01*
X26990476Y-137485390D02*
X26942857Y-137437771D01*
X26942857Y-137437771D02*
X26895238Y-137342533D01*
X26895238Y-137342533D02*
X26895238Y-137247295D01*
X26895238Y-137247295D02*
X26942857Y-137152057D01*
X26942857Y-137152057D02*
X26990476Y-137104438D01*
X26990476Y-137104438D02*
X27085714Y-137056819D01*
X27085714Y-137056819D02*
X27323809Y-137056819D01*
X27323809Y-137056819D02*
X27466666Y-137104438D01*
X27800000Y-137056819D02*
X28038095Y-138056819D01*
X28038095Y-138056819D02*
X28228571Y-137342533D01*
X28228571Y-137342533D02*
X28419047Y-138056819D01*
X28419047Y-138056819D02*
X28657143Y-137056819D01*
X29561904Y-138056819D02*
X28990476Y-138056819D01*
X29276190Y-138056819D02*
X29276190Y-137056819D01*
X29276190Y-137056819D02*
X29180952Y-137199676D01*
X29180952Y-137199676D02*
X29085714Y-137294914D01*
X29085714Y-137294914D02*
X28990476Y-137342533D01*
X79183309Y-145749688D02*
X79135690Y-145797308D01*
X79135690Y-145797308D02*
X78992833Y-145844927D01*
X78992833Y-145844927D02*
X78897595Y-145844927D01*
X78897595Y-145844927D02*
X78754738Y-145797308D01*
X78754738Y-145797308D02*
X78659500Y-145702069D01*
X78659500Y-145702069D02*
X78611881Y-145606831D01*
X78611881Y-145606831D02*
X78564262Y-145416355D01*
X78564262Y-145416355D02*
X78564262Y-145273498D01*
X78564262Y-145273498D02*
X78611881Y-145083022D01*
X78611881Y-145083022D02*
X78659500Y-144987784D01*
X78659500Y-144987784D02*
X78754738Y-144892546D01*
X78754738Y-144892546D02*
X78897595Y-144844927D01*
X78897595Y-144844927D02*
X78992833Y-144844927D01*
X78992833Y-144844927D02*
X79135690Y-144892546D01*
X79135690Y-144892546D02*
X79183309Y-144940165D01*
X80088071Y-144844927D02*
X79611881Y-144844927D01*
X79611881Y-144844927D02*
X79564262Y-145321117D01*
X79564262Y-145321117D02*
X79611881Y-145273498D01*
X79611881Y-145273498D02*
X79707119Y-145225879D01*
X79707119Y-145225879D02*
X79945214Y-145225879D01*
X79945214Y-145225879D02*
X80040452Y-145273498D01*
X80040452Y-145273498D02*
X80088071Y-145321117D01*
X80088071Y-145321117D02*
X80135690Y-145416355D01*
X80135690Y-145416355D02*
X80135690Y-145654450D01*
X80135690Y-145654450D02*
X80088071Y-145749688D01*
X80088071Y-145749688D02*
X80040452Y-145797308D01*
X80040452Y-145797308D02*
X79945214Y-145844927D01*
X79945214Y-145844927D02*
X79707119Y-145844927D01*
X79707119Y-145844927D02*
X79611881Y-145797308D01*
X79611881Y-145797308D02*
X79564262Y-145749688D01*
X91604795Y-151649274D02*
X91128604Y-151982607D01*
X91604795Y-152220702D02*
X90604795Y-152220702D01*
X90604795Y-152220702D02*
X90604795Y-151839750D01*
X90604795Y-151839750D02*
X90652414Y-151744512D01*
X90652414Y-151744512D02*
X90700033Y-151696893D01*
X90700033Y-151696893D02*
X90795271Y-151649274D01*
X90795271Y-151649274D02*
X90938128Y-151649274D01*
X90938128Y-151649274D02*
X91033366Y-151696893D01*
X91033366Y-151696893D02*
X91080985Y-151744512D01*
X91080985Y-151744512D02*
X91128604Y-151839750D01*
X91128604Y-151839750D02*
X91128604Y-152220702D01*
X90604795Y-150744512D02*
X90604795Y-151220702D01*
X90604795Y-151220702D02*
X91080985Y-151268321D01*
X91080985Y-151268321D02*
X91033366Y-151220702D01*
X91033366Y-151220702D02*
X90985747Y-151125464D01*
X90985747Y-151125464D02*
X90985747Y-150887369D01*
X90985747Y-150887369D02*
X91033366Y-150792131D01*
X91033366Y-150792131D02*
X91080985Y-150744512D01*
X91080985Y-150744512D02*
X91176223Y-150696893D01*
X91176223Y-150696893D02*
X91414318Y-150696893D01*
X91414318Y-150696893D02*
X91509556Y-150744512D01*
X91509556Y-150744512D02*
X91557176Y-150792131D01*
X91557176Y-150792131D02*
X91604795Y-150887369D01*
X91604795Y-150887369D02*
X91604795Y-151125464D01*
X91604795Y-151125464D02*
X91557176Y-151220702D01*
X91557176Y-151220702D02*
X91509556Y-151268321D01*
X75284819Y-102333333D02*
X75999104Y-102333333D01*
X75999104Y-102333333D02*
X76141961Y-102380952D01*
X76141961Y-102380952D02*
X76237200Y-102476190D01*
X76237200Y-102476190D02*
X76284819Y-102619047D01*
X76284819Y-102619047D02*
X76284819Y-102714285D01*
X75284819Y-101428571D02*
X75284819Y-101619047D01*
X75284819Y-101619047D02*
X75332438Y-101714285D01*
X75332438Y-101714285D02*
X75380057Y-101761904D01*
X75380057Y-101761904D02*
X75522914Y-101857142D01*
X75522914Y-101857142D02*
X75713390Y-101904761D01*
X75713390Y-101904761D02*
X76094342Y-101904761D01*
X76094342Y-101904761D02*
X76189580Y-101857142D01*
X76189580Y-101857142D02*
X76237200Y-101809523D01*
X76237200Y-101809523D02*
X76284819Y-101714285D01*
X76284819Y-101714285D02*
X76284819Y-101523809D01*
X76284819Y-101523809D02*
X76237200Y-101428571D01*
X76237200Y-101428571D02*
X76189580Y-101380952D01*
X76189580Y-101380952D02*
X76094342Y-101333333D01*
X76094342Y-101333333D02*
X75856247Y-101333333D01*
X75856247Y-101333333D02*
X75761009Y-101380952D01*
X75761009Y-101380952D02*
X75713390Y-101428571D01*
X75713390Y-101428571D02*
X75665771Y-101523809D01*
X75665771Y-101523809D02*
X75665771Y-101714285D01*
X75665771Y-101714285D02*
X75713390Y-101809523D01*
X75713390Y-101809523D02*
X75761009Y-101857142D01*
X75761009Y-101857142D02*
X75856247Y-101904761D01*
X87720809Y-142874927D02*
X87387476Y-142398736D01*
X87149381Y-142874927D02*
X87149381Y-141874927D01*
X87149381Y-141874927D02*
X87530333Y-141874927D01*
X87530333Y-141874927D02*
X87625571Y-141922546D01*
X87625571Y-141922546D02*
X87673190Y-141970165D01*
X87673190Y-141970165D02*
X87720809Y-142065403D01*
X87720809Y-142065403D02*
X87720809Y-142208260D01*
X87720809Y-142208260D02*
X87673190Y-142303498D01*
X87673190Y-142303498D02*
X87625571Y-142351117D01*
X87625571Y-142351117D02*
X87530333Y-142398736D01*
X87530333Y-142398736D02*
X87149381Y-142398736D01*
X88577952Y-141874927D02*
X88387476Y-141874927D01*
X88387476Y-141874927D02*
X88292238Y-141922546D01*
X88292238Y-141922546D02*
X88244619Y-141970165D01*
X88244619Y-141970165D02*
X88149381Y-142113022D01*
X88149381Y-142113022D02*
X88101762Y-142303498D01*
X88101762Y-142303498D02*
X88101762Y-142684450D01*
X88101762Y-142684450D02*
X88149381Y-142779688D01*
X88149381Y-142779688D02*
X88197000Y-142827308D01*
X88197000Y-142827308D02*
X88292238Y-142874927D01*
X88292238Y-142874927D02*
X88482714Y-142874927D01*
X88482714Y-142874927D02*
X88577952Y-142827308D01*
X88577952Y-142827308D02*
X88625571Y-142779688D01*
X88625571Y-142779688D02*
X88673190Y-142684450D01*
X88673190Y-142684450D02*
X88673190Y-142446355D01*
X88673190Y-142446355D02*
X88625571Y-142351117D01*
X88625571Y-142351117D02*
X88577952Y-142303498D01*
X88577952Y-142303498D02*
X88482714Y-142255879D01*
X88482714Y-142255879D02*
X88292238Y-142255879D01*
X88292238Y-142255879D02*
X88197000Y-142303498D01*
X88197000Y-142303498D02*
X88149381Y-142351117D01*
X88149381Y-142351117D02*
X88101762Y-142446355D01*
X85323786Y-153024927D02*
X85323786Y-152024927D01*
X86371404Y-152929688D02*
X86323785Y-152977308D01*
X86323785Y-152977308D02*
X86180928Y-153024927D01*
X86180928Y-153024927D02*
X86085690Y-153024927D01*
X86085690Y-153024927D02*
X85942833Y-152977308D01*
X85942833Y-152977308D02*
X85847595Y-152882069D01*
X85847595Y-152882069D02*
X85799976Y-152786831D01*
X85799976Y-152786831D02*
X85752357Y-152596355D01*
X85752357Y-152596355D02*
X85752357Y-152453498D01*
X85752357Y-152453498D02*
X85799976Y-152263022D01*
X85799976Y-152263022D02*
X85847595Y-152167784D01*
X85847595Y-152167784D02*
X85942833Y-152072546D01*
X85942833Y-152072546D02*
X86085690Y-152024927D01*
X86085690Y-152024927D02*
X86180928Y-152024927D01*
X86180928Y-152024927D02*
X86323785Y-152072546D01*
X86323785Y-152072546D02*
X86371404Y-152120165D01*
X87323785Y-153024927D02*
X86752357Y-153024927D01*
X87038071Y-153024927D02*
X87038071Y-152024927D01*
X87038071Y-152024927D02*
X86942833Y-152167784D01*
X86942833Y-152167784D02*
X86847595Y-152263022D01*
X86847595Y-152263022D02*
X86752357Y-152310641D01*
X82866276Y-148643171D02*
X82866276Y-148881266D01*
X82628181Y-148786028D02*
X82866276Y-148881266D01*
X82866276Y-148881266D02*
X83104371Y-148786028D01*
X82723419Y-149071742D02*
X82866276Y-148881266D01*
X82866276Y-148881266D02*
X83009133Y-149071742D01*
X82866276Y-148643171D02*
X82866276Y-148881266D01*
X82628181Y-148786028D02*
X82866276Y-148881266D01*
X82866276Y-148881266D02*
X83104371Y-148786028D01*
X82723419Y-149071742D02*
X82866276Y-148881266D01*
X82866276Y-148881266D02*
X83009133Y-149071742D01*
X163738095Y-19854819D02*
X163738095Y-18854819D01*
X163738095Y-19331009D02*
X164309523Y-19331009D01*
X164309523Y-19854819D02*
X164309523Y-18854819D01*
X165309523Y-19854819D02*
X164738095Y-19854819D01*
X165023809Y-19854819D02*
X165023809Y-18854819D01*
X165023809Y-18854819D02*
X164928571Y-18997676D01*
X164928571Y-18997676D02*
X164833333Y-19092914D01*
X164833333Y-19092914D02*
X164738095Y-19140533D01*
X99965476Y-27997819D02*
X99965476Y-28712104D01*
X99965476Y-28712104D02*
X99917857Y-28854961D01*
X99917857Y-28854961D02*
X99822619Y-28950200D01*
X99822619Y-28950200D02*
X99679762Y-28997819D01*
X99679762Y-28997819D02*
X99584524Y-28997819D01*
X100965476Y-28997819D02*
X100394048Y-28997819D01*
X100679762Y-28997819D02*
X100679762Y-27997819D01*
X100679762Y-27997819D02*
X100584524Y-28140676D01*
X100584524Y-28140676D02*
X100489286Y-28235914D01*
X100489286Y-28235914D02*
X100394048Y-28283533D01*
X101346429Y-28093057D02*
X101394048Y-28045438D01*
X101394048Y-28045438D02*
X101489286Y-27997819D01*
X101489286Y-27997819D02*
X101727381Y-27997819D01*
X101727381Y-27997819D02*
X101822619Y-28045438D01*
X101822619Y-28045438D02*
X101870238Y-28093057D01*
X101870238Y-28093057D02*
X101917857Y-28188295D01*
X101917857Y-28188295D02*
X101917857Y-28283533D01*
X101917857Y-28283533D02*
X101870238Y-28426390D01*
X101870238Y-28426390D02*
X101298810Y-28997819D01*
X101298810Y-28997819D02*
X101917857Y-28997819D01*
X90952819Y-97824404D02*
X90952819Y-97252976D01*
X91952819Y-97538690D02*
X90952819Y-97538690D01*
X91952819Y-96919642D02*
X90952819Y-96919642D01*
X90952819Y-96919642D02*
X90952819Y-96538690D01*
X90952819Y-96538690D02*
X91000438Y-96443452D01*
X91000438Y-96443452D02*
X91048057Y-96395833D01*
X91048057Y-96395833D02*
X91143295Y-96348214D01*
X91143295Y-96348214D02*
X91286152Y-96348214D01*
X91286152Y-96348214D02*
X91381390Y-96395833D01*
X91381390Y-96395833D02*
X91429009Y-96443452D01*
X91429009Y-96443452D02*
X91476628Y-96538690D01*
X91476628Y-96538690D02*
X91476628Y-96919642D01*
X90952819Y-95443452D02*
X90952819Y-95919642D01*
X90952819Y-95919642D02*
X91429009Y-95967261D01*
X91429009Y-95967261D02*
X91381390Y-95919642D01*
X91381390Y-95919642D02*
X91333771Y-95824404D01*
X91333771Y-95824404D02*
X91333771Y-95586309D01*
X91333771Y-95586309D02*
X91381390Y-95491071D01*
X91381390Y-95491071D02*
X91429009Y-95443452D01*
X91429009Y-95443452D02*
X91524247Y-95395833D01*
X91524247Y-95395833D02*
X91762342Y-95395833D01*
X91762342Y-95395833D02*
X91857580Y-95443452D01*
X91857580Y-95443452D02*
X91905200Y-95491071D01*
X91905200Y-95491071D02*
X91952819Y-95586309D01*
X91952819Y-95586309D02*
X91952819Y-95824404D01*
X91952819Y-95824404D02*
X91905200Y-95919642D01*
X91905200Y-95919642D02*
X91857580Y-95967261D01*
X96845156Y-153896952D02*
X96845156Y-153420762D01*
X96845156Y-153420762D02*
X97845156Y-153420762D01*
X97368966Y-154230286D02*
X97368966Y-154563619D01*
X96845156Y-154706476D02*
X96845156Y-154230286D01*
X96845156Y-154230286D02*
X97845156Y-154230286D01*
X97845156Y-154230286D02*
X97845156Y-154706476D01*
X96845156Y-155135048D02*
X97845156Y-155135048D01*
X97845156Y-155135048D02*
X97845156Y-155373143D01*
X97845156Y-155373143D02*
X97797537Y-155516000D01*
X97797537Y-155516000D02*
X97702299Y-155611238D01*
X97702299Y-155611238D02*
X97607061Y-155658857D01*
X97607061Y-155658857D02*
X97416585Y-155706476D01*
X97416585Y-155706476D02*
X97273728Y-155706476D01*
X97273728Y-155706476D02*
X97083252Y-155658857D01*
X97083252Y-155658857D02*
X96988014Y-155611238D01*
X96988014Y-155611238D02*
X96892776Y-155516000D01*
X96892776Y-155516000D02*
X96845156Y-155373143D01*
X96845156Y-155373143D02*
X96845156Y-155135048D01*
X96845156Y-156658857D02*
X96845156Y-156087429D01*
X96845156Y-156373143D02*
X97845156Y-156373143D01*
X97845156Y-156373143D02*
X97702299Y-156277905D01*
X97702299Y-156277905D02*
X97607061Y-156182667D01*
X97607061Y-156182667D02*
X97559442Y-156087429D01*
X120465476Y-27997819D02*
X120465476Y-28712104D01*
X120465476Y-28712104D02*
X120417857Y-28854961D01*
X120417857Y-28854961D02*
X120322619Y-28950200D01*
X120322619Y-28950200D02*
X120179762Y-28997819D01*
X120179762Y-28997819D02*
X120084524Y-28997819D01*
X121465476Y-28997819D02*
X120894048Y-28997819D01*
X121179762Y-28997819D02*
X121179762Y-27997819D01*
X121179762Y-27997819D02*
X121084524Y-28140676D01*
X121084524Y-28140676D02*
X120989286Y-28235914D01*
X120989286Y-28235914D02*
X120894048Y-28283533D01*
X121798810Y-27997819D02*
X122417857Y-27997819D01*
X122417857Y-27997819D02*
X122084524Y-28378771D01*
X122084524Y-28378771D02*
X122227381Y-28378771D01*
X122227381Y-28378771D02*
X122322619Y-28426390D01*
X122322619Y-28426390D02*
X122370238Y-28474009D01*
X122370238Y-28474009D02*
X122417857Y-28569247D01*
X122417857Y-28569247D02*
X122417857Y-28807342D01*
X122417857Y-28807342D02*
X122370238Y-28902580D01*
X122370238Y-28902580D02*
X122322619Y-28950200D01*
X122322619Y-28950200D02*
X122227381Y-28997819D01*
X122227381Y-28997819D02*
X121941667Y-28997819D01*
X121941667Y-28997819D02*
X121846429Y-28950200D01*
X121846429Y-28950200D02*
X121798810Y-28902580D01*
X73633309Y-149279688D02*
X73585690Y-149327308D01*
X73585690Y-149327308D02*
X73442833Y-149374927D01*
X73442833Y-149374927D02*
X73347595Y-149374927D01*
X73347595Y-149374927D02*
X73204738Y-149327308D01*
X73204738Y-149327308D02*
X73109500Y-149232069D01*
X73109500Y-149232069D02*
X73061881Y-149136831D01*
X73061881Y-149136831D02*
X73014262Y-148946355D01*
X73014262Y-148946355D02*
X73014262Y-148803498D01*
X73014262Y-148803498D02*
X73061881Y-148613022D01*
X73061881Y-148613022D02*
X73109500Y-148517784D01*
X73109500Y-148517784D02*
X73204738Y-148422546D01*
X73204738Y-148422546D02*
X73347595Y-148374927D01*
X73347595Y-148374927D02*
X73442833Y-148374927D01*
X73442833Y-148374927D02*
X73585690Y-148422546D01*
X73585690Y-148422546D02*
X73633309Y-148470165D01*
X73966643Y-148374927D02*
X74633309Y-148374927D01*
X74633309Y-148374927D02*
X74204738Y-149374927D01*
X103339556Y-158186774D02*
X103387176Y-158234393D01*
X103387176Y-158234393D02*
X103434795Y-158377250D01*
X103434795Y-158377250D02*
X103434795Y-158472488D01*
X103434795Y-158472488D02*
X103387176Y-158615345D01*
X103387176Y-158615345D02*
X103291937Y-158710583D01*
X103291937Y-158710583D02*
X103196699Y-158758202D01*
X103196699Y-158758202D02*
X103006223Y-158805821D01*
X103006223Y-158805821D02*
X102863366Y-158805821D01*
X102863366Y-158805821D02*
X102672890Y-158758202D01*
X102672890Y-158758202D02*
X102577652Y-158710583D01*
X102577652Y-158710583D02*
X102482414Y-158615345D01*
X102482414Y-158615345D02*
X102434795Y-158472488D01*
X102434795Y-158472488D02*
X102434795Y-158377250D01*
X102434795Y-158377250D02*
X102482414Y-158234393D01*
X102482414Y-158234393D02*
X102530033Y-158186774D01*
X102768128Y-157329631D02*
X103434795Y-157329631D01*
X102387176Y-157567726D02*
X103101461Y-157805821D01*
X103101461Y-157805821D02*
X103101461Y-157186774D01*
X144759819Y-140333333D02*
X145474104Y-140333333D01*
X145474104Y-140333333D02*
X145616961Y-140380952D01*
X145616961Y-140380952D02*
X145712200Y-140476190D01*
X145712200Y-140476190D02*
X145759819Y-140619047D01*
X145759819Y-140619047D02*
X145759819Y-140714285D01*
X145188390Y-139714285D02*
X145140771Y-139809523D01*
X145140771Y-139809523D02*
X145093152Y-139857142D01*
X145093152Y-139857142D02*
X144997914Y-139904761D01*
X144997914Y-139904761D02*
X144950295Y-139904761D01*
X144950295Y-139904761D02*
X144855057Y-139857142D01*
X144855057Y-139857142D02*
X144807438Y-139809523D01*
X144807438Y-139809523D02*
X144759819Y-139714285D01*
X144759819Y-139714285D02*
X144759819Y-139523809D01*
X144759819Y-139523809D02*
X144807438Y-139428571D01*
X144807438Y-139428571D02*
X144855057Y-139380952D01*
X144855057Y-139380952D02*
X144950295Y-139333333D01*
X144950295Y-139333333D02*
X144997914Y-139333333D01*
X144997914Y-139333333D02*
X145093152Y-139380952D01*
X145093152Y-139380952D02*
X145140771Y-139428571D01*
X145140771Y-139428571D02*
X145188390Y-139523809D01*
X145188390Y-139523809D02*
X145188390Y-139714285D01*
X145188390Y-139714285D02*
X145236009Y-139809523D01*
X145236009Y-139809523D02*
X145283628Y-139857142D01*
X145283628Y-139857142D02*
X145378866Y-139904761D01*
X145378866Y-139904761D02*
X145569342Y-139904761D01*
X145569342Y-139904761D02*
X145664580Y-139857142D01*
X145664580Y-139857142D02*
X145712200Y-139809523D01*
X145712200Y-139809523D02*
X145759819Y-139714285D01*
X145759819Y-139714285D02*
X145759819Y-139523809D01*
X145759819Y-139523809D02*
X145712200Y-139428571D01*
X145712200Y-139428571D02*
X145664580Y-139380952D01*
X145664580Y-139380952D02*
X145569342Y-139333333D01*
X145569342Y-139333333D02*
X145378866Y-139333333D01*
X145378866Y-139333333D02*
X145283628Y-139380952D01*
X145283628Y-139380952D02*
X145236009Y-139428571D01*
X145236009Y-139428571D02*
X145188390Y-139523809D01*
X105395419Y-70032142D02*
X105347800Y-69984523D01*
X105347800Y-69984523D02*
X105300180Y-69841666D01*
X105300180Y-69841666D02*
X105300180Y-69746428D01*
X105300180Y-69746428D02*
X105347800Y-69603571D01*
X105347800Y-69603571D02*
X105443038Y-69508333D01*
X105443038Y-69508333D02*
X105538276Y-69460714D01*
X105538276Y-69460714D02*
X105728752Y-69413095D01*
X105728752Y-69413095D02*
X105871609Y-69413095D01*
X105871609Y-69413095D02*
X106062085Y-69460714D01*
X106062085Y-69460714D02*
X106157323Y-69508333D01*
X106157323Y-69508333D02*
X106252561Y-69603571D01*
X106252561Y-69603571D02*
X106300180Y-69746428D01*
X106300180Y-69746428D02*
X106300180Y-69841666D01*
X106300180Y-69841666D02*
X106252561Y-69984523D01*
X106252561Y-69984523D02*
X106204942Y-70032142D01*
X105300180Y-70984523D02*
X105300180Y-70413095D01*
X105300180Y-70698809D02*
X106300180Y-70698809D01*
X106300180Y-70698809D02*
X106157323Y-70603571D01*
X106157323Y-70603571D02*
X106062085Y-70508333D01*
X106062085Y-70508333D02*
X106014466Y-70413095D01*
X106300180Y-71841666D02*
X106300180Y-71651190D01*
X106300180Y-71651190D02*
X106252561Y-71555952D01*
X106252561Y-71555952D02*
X106204942Y-71508333D01*
X106204942Y-71508333D02*
X106062085Y-71413095D01*
X106062085Y-71413095D02*
X105871609Y-71365476D01*
X105871609Y-71365476D02*
X105490657Y-71365476D01*
X105490657Y-71365476D02*
X105395419Y-71413095D01*
X105395419Y-71413095D02*
X105347800Y-71460714D01*
X105347800Y-71460714D02*
X105300180Y-71555952D01*
X105300180Y-71555952D02*
X105300180Y-71746428D01*
X105300180Y-71746428D02*
X105347800Y-71841666D01*
X105347800Y-71841666D02*
X105395419Y-71889285D01*
X105395419Y-71889285D02*
X105490657Y-71936904D01*
X105490657Y-71936904D02*
X105728752Y-71936904D01*
X105728752Y-71936904D02*
X105823990Y-71889285D01*
X105823990Y-71889285D02*
X105871609Y-71841666D01*
X105871609Y-71841666D02*
X105919228Y-71746428D01*
X105919228Y-71746428D02*
X105919228Y-71555952D01*
X105919228Y-71555952D02*
X105871609Y-71460714D01*
X105871609Y-71460714D02*
X105823990Y-71413095D01*
X105823990Y-71413095D02*
X105728752Y-71365476D01*
X163738095Y-160354819D02*
X163738095Y-159354819D01*
X163738095Y-159831009D02*
X164309523Y-159831009D01*
X164309523Y-160354819D02*
X164309523Y-159354819D01*
X165214285Y-159688152D02*
X165214285Y-160354819D01*
X164976190Y-159307200D02*
X164738095Y-160021485D01*
X164738095Y-160021485D02*
X165357142Y-160021485D01*
X96104795Y-147736774D02*
X95628604Y-148070107D01*
X96104795Y-148308202D02*
X95104795Y-148308202D01*
X95104795Y-148308202D02*
X95104795Y-147927250D01*
X95104795Y-147927250D02*
X95152414Y-147832012D01*
X95152414Y-147832012D02*
X95200033Y-147784393D01*
X95200033Y-147784393D02*
X95295271Y-147736774D01*
X95295271Y-147736774D02*
X95438128Y-147736774D01*
X95438128Y-147736774D02*
X95533366Y-147784393D01*
X95533366Y-147784393D02*
X95580985Y-147832012D01*
X95580985Y-147832012D02*
X95628604Y-147927250D01*
X95628604Y-147927250D02*
X95628604Y-148308202D01*
X95438128Y-146879631D02*
X96104795Y-146879631D01*
X95057176Y-147117726D02*
X95771461Y-147355821D01*
X95771461Y-147355821D02*
X95771461Y-146736774D01*
X55666666Y-171304819D02*
X55666666Y-172019104D01*
X55666666Y-172019104D02*
X55619047Y-172161961D01*
X55619047Y-172161961D02*
X55523809Y-172257200D01*
X55523809Y-172257200D02*
X55380952Y-172304819D01*
X55380952Y-172304819D02*
X55285714Y-172304819D01*
X56619047Y-171304819D02*
X56142857Y-171304819D01*
X56142857Y-171304819D02*
X56095238Y-171781009D01*
X56095238Y-171781009D02*
X56142857Y-171733390D01*
X56142857Y-171733390D02*
X56238095Y-171685771D01*
X56238095Y-171685771D02*
X56476190Y-171685771D01*
X56476190Y-171685771D02*
X56571428Y-171733390D01*
X56571428Y-171733390D02*
X56619047Y-171781009D01*
X56619047Y-171781009D02*
X56666666Y-171876247D01*
X56666666Y-171876247D02*
X56666666Y-172114342D01*
X56666666Y-172114342D02*
X56619047Y-172209580D01*
X56619047Y-172209580D02*
X56571428Y-172257200D01*
X56571428Y-172257200D02*
X56476190Y-172304819D01*
X56476190Y-172304819D02*
X56238095Y-172304819D01*
X56238095Y-172304819D02*
X56142857Y-172257200D01*
X56142857Y-172257200D02*
X56095238Y-172209580D01*
X49528571Y-151964700D02*
X50671429Y-151964700D01*
X50100000Y-152536128D02*
X50100000Y-151393271D01*
X61828571Y-151964700D02*
X62971429Y-151964700D01*
X32904761Y-125550057D02*
X32809523Y-125502438D01*
X32809523Y-125502438D02*
X32714285Y-125407200D01*
X32714285Y-125407200D02*
X32571428Y-125264342D01*
X32571428Y-125264342D02*
X32476190Y-125216723D01*
X32476190Y-125216723D02*
X32380952Y-125216723D01*
X32428571Y-125454819D02*
X32333333Y-125407200D01*
X32333333Y-125407200D02*
X32238095Y-125311961D01*
X32238095Y-125311961D02*
X32190476Y-125121485D01*
X32190476Y-125121485D02*
X32190476Y-124788152D01*
X32190476Y-124788152D02*
X32238095Y-124597676D01*
X32238095Y-124597676D02*
X32333333Y-124502438D01*
X32333333Y-124502438D02*
X32428571Y-124454819D01*
X32428571Y-124454819D02*
X32619047Y-124454819D01*
X32619047Y-124454819D02*
X32714285Y-124502438D01*
X32714285Y-124502438D02*
X32809523Y-124597676D01*
X32809523Y-124597676D02*
X32857142Y-124788152D01*
X32857142Y-124788152D02*
X32857142Y-125121485D01*
X32857142Y-125121485D02*
X32809523Y-125311961D01*
X32809523Y-125311961D02*
X32714285Y-125407200D01*
X32714285Y-125407200D02*
X32619047Y-125454819D01*
X32619047Y-125454819D02*
X32428571Y-125454819D01*
X33809523Y-125454819D02*
X33238095Y-125454819D01*
X33523809Y-125454819D02*
X33523809Y-124454819D01*
X33523809Y-124454819D02*
X33428571Y-124597676D01*
X33428571Y-124597676D02*
X33333333Y-124692914D01*
X33333333Y-124692914D02*
X33238095Y-124740533D01*
X73633309Y-153279688D02*
X73585690Y-153327308D01*
X73585690Y-153327308D02*
X73442833Y-153374927D01*
X73442833Y-153374927D02*
X73347595Y-153374927D01*
X73347595Y-153374927D02*
X73204738Y-153327308D01*
X73204738Y-153327308D02*
X73109500Y-153232069D01*
X73109500Y-153232069D02*
X73061881Y-153136831D01*
X73061881Y-153136831D02*
X73014262Y-152946355D01*
X73014262Y-152946355D02*
X73014262Y-152803498D01*
X73014262Y-152803498D02*
X73061881Y-152613022D01*
X73061881Y-152613022D02*
X73109500Y-152517784D01*
X73109500Y-152517784D02*
X73204738Y-152422546D01*
X73204738Y-152422546D02*
X73347595Y-152374927D01*
X73347595Y-152374927D02*
X73442833Y-152374927D01*
X73442833Y-152374927D02*
X73585690Y-152422546D01*
X73585690Y-152422546D02*
X73633309Y-152470165D01*
X74490452Y-152374927D02*
X74299976Y-152374927D01*
X74299976Y-152374927D02*
X74204738Y-152422546D01*
X74204738Y-152422546D02*
X74157119Y-152470165D01*
X74157119Y-152470165D02*
X74061881Y-152613022D01*
X74061881Y-152613022D02*
X74014262Y-152803498D01*
X74014262Y-152803498D02*
X74014262Y-153184450D01*
X74014262Y-153184450D02*
X74061881Y-153279688D01*
X74061881Y-153279688D02*
X74109500Y-153327308D01*
X74109500Y-153327308D02*
X74204738Y-153374927D01*
X74204738Y-153374927D02*
X74395214Y-153374927D01*
X74395214Y-153374927D02*
X74490452Y-153327308D01*
X74490452Y-153327308D02*
X74538071Y-153279688D01*
X74538071Y-153279688D02*
X74585690Y-153184450D01*
X74585690Y-153184450D02*
X74585690Y-152946355D01*
X74585690Y-152946355D02*
X74538071Y-152851117D01*
X74538071Y-152851117D02*
X74490452Y-152803498D01*
X74490452Y-152803498D02*
X74395214Y-152755879D01*
X74395214Y-152755879D02*
X74204738Y-152755879D01*
X74204738Y-152755879D02*
X74109500Y-152803498D01*
X74109500Y-152803498D02*
X74061881Y-152851117D01*
X74061881Y-152851117D02*
X74014262Y-152946355D01*
X108039594Y-83545180D02*
X108039594Y-84545180D01*
X108039594Y-84545180D02*
X107801499Y-84545180D01*
X107801499Y-84545180D02*
X107658642Y-84497561D01*
X107658642Y-84497561D02*
X107563404Y-84402323D01*
X107563404Y-84402323D02*
X107515785Y-84307085D01*
X107515785Y-84307085D02*
X107468166Y-84116609D01*
X107468166Y-84116609D02*
X107468166Y-83973752D01*
X107468166Y-83973752D02*
X107515785Y-83783276D01*
X107515785Y-83783276D02*
X107563404Y-83688038D01*
X107563404Y-83688038D02*
X107658642Y-83592800D01*
X107658642Y-83592800D02*
X107801499Y-83545180D01*
X107801499Y-83545180D02*
X108039594Y-83545180D01*
X106896737Y-84116609D02*
X106991975Y-84164228D01*
X106991975Y-84164228D02*
X107039594Y-84211847D01*
X107039594Y-84211847D02*
X107087213Y-84307085D01*
X107087213Y-84307085D02*
X107087213Y-84354704D01*
X107087213Y-84354704D02*
X107039594Y-84449942D01*
X107039594Y-84449942D02*
X106991975Y-84497561D01*
X106991975Y-84497561D02*
X106896737Y-84545180D01*
X106896737Y-84545180D02*
X106706261Y-84545180D01*
X106706261Y-84545180D02*
X106611023Y-84497561D01*
X106611023Y-84497561D02*
X106563404Y-84449942D01*
X106563404Y-84449942D02*
X106515785Y-84354704D01*
X106515785Y-84354704D02*
X106515785Y-84307085D01*
X106515785Y-84307085D02*
X106563404Y-84211847D01*
X106563404Y-84211847D02*
X106611023Y-84164228D01*
X106611023Y-84164228D02*
X106706261Y-84116609D01*
X106706261Y-84116609D02*
X106896737Y-84116609D01*
X106896737Y-84116609D02*
X106991975Y-84068990D01*
X106991975Y-84068990D02*
X107039594Y-84021371D01*
X107039594Y-84021371D02*
X107087213Y-83926133D01*
X107087213Y-83926133D02*
X107087213Y-83735657D01*
X107087213Y-83735657D02*
X107039594Y-83640419D01*
X107039594Y-83640419D02*
X106991975Y-83592800D01*
X106991975Y-83592800D02*
X106896737Y-83545180D01*
X106896737Y-83545180D02*
X106706261Y-83545180D01*
X106706261Y-83545180D02*
X106611023Y-83592800D01*
X106611023Y-83592800D02*
X106563404Y-83640419D01*
X106563404Y-83640419D02*
X106515785Y-83735657D01*
X106515785Y-83735657D02*
X106515785Y-83926133D01*
X106515785Y-83926133D02*
X106563404Y-84021371D01*
X106563404Y-84021371D02*
X106611023Y-84068990D01*
X106611023Y-84068990D02*
X106706261Y-84116609D01*
X83952819Y-95261904D02*
X83952819Y-94690476D01*
X84952819Y-94976190D02*
X83952819Y-94976190D01*
X84952819Y-94357142D02*
X83952819Y-94357142D01*
X83952819Y-94357142D02*
X83952819Y-93976190D01*
X83952819Y-93976190D02*
X84000438Y-93880952D01*
X84000438Y-93880952D02*
X84048057Y-93833333D01*
X84048057Y-93833333D02*
X84143295Y-93785714D01*
X84143295Y-93785714D02*
X84286152Y-93785714D01*
X84286152Y-93785714D02*
X84381390Y-93833333D01*
X84381390Y-93833333D02*
X84429009Y-93880952D01*
X84429009Y-93880952D02*
X84476628Y-93976190D01*
X84476628Y-93976190D02*
X84476628Y-94357142D01*
X84286152Y-92928571D02*
X84952819Y-92928571D01*
X83905200Y-93166666D02*
X84619485Y-93404761D01*
X84619485Y-93404761D02*
X84619485Y-92785714D01*
X77604819Y-113229166D02*
X77128628Y-113562499D01*
X77604819Y-113800594D02*
X76604819Y-113800594D01*
X76604819Y-113800594D02*
X76604819Y-113419642D01*
X76604819Y-113419642D02*
X76652438Y-113324404D01*
X76652438Y-113324404D02*
X76700057Y-113276785D01*
X76700057Y-113276785D02*
X76795295Y-113229166D01*
X76795295Y-113229166D02*
X76938152Y-113229166D01*
X76938152Y-113229166D02*
X77033390Y-113276785D01*
X77033390Y-113276785D02*
X77081009Y-113324404D01*
X77081009Y-113324404D02*
X77128628Y-113419642D01*
X77128628Y-113419642D02*
X77128628Y-113800594D01*
X77604819Y-112752975D02*
X77604819Y-112562499D01*
X77604819Y-112562499D02*
X77557200Y-112467261D01*
X77557200Y-112467261D02*
X77509580Y-112419642D01*
X77509580Y-112419642D02*
X77366723Y-112324404D01*
X77366723Y-112324404D02*
X77176247Y-112276785D01*
X77176247Y-112276785D02*
X76795295Y-112276785D01*
X76795295Y-112276785D02*
X76700057Y-112324404D01*
X76700057Y-112324404D02*
X76652438Y-112372023D01*
X76652438Y-112372023D02*
X76604819Y-112467261D01*
X76604819Y-112467261D02*
X76604819Y-112657737D01*
X76604819Y-112657737D02*
X76652438Y-112752975D01*
X76652438Y-112752975D02*
X76700057Y-112800594D01*
X76700057Y-112800594D02*
X76795295Y-112848213D01*
X76795295Y-112848213D02*
X77033390Y-112848213D01*
X77033390Y-112848213D02*
X77128628Y-112800594D01*
X77128628Y-112800594D02*
X77176247Y-112752975D01*
X77176247Y-112752975D02*
X77223866Y-112657737D01*
X77223866Y-112657737D02*
X77223866Y-112467261D01*
X77223866Y-112467261D02*
X77176247Y-112372023D01*
X77176247Y-112372023D02*
X77128628Y-112324404D01*
X77128628Y-112324404D02*
X77033390Y-112276785D01*
X133654580Y-164142857D02*
X133702200Y-164190476D01*
X133702200Y-164190476D02*
X133749819Y-164333333D01*
X133749819Y-164333333D02*
X133749819Y-164428571D01*
X133749819Y-164428571D02*
X133702200Y-164571428D01*
X133702200Y-164571428D02*
X133606961Y-164666666D01*
X133606961Y-164666666D02*
X133511723Y-164714285D01*
X133511723Y-164714285D02*
X133321247Y-164761904D01*
X133321247Y-164761904D02*
X133178390Y-164761904D01*
X133178390Y-164761904D02*
X132987914Y-164714285D01*
X132987914Y-164714285D02*
X132892676Y-164666666D01*
X132892676Y-164666666D02*
X132797438Y-164571428D01*
X132797438Y-164571428D02*
X132749819Y-164428571D01*
X132749819Y-164428571D02*
X132749819Y-164333333D01*
X132749819Y-164333333D02*
X132797438Y-164190476D01*
X132797438Y-164190476D02*
X132845057Y-164142857D01*
X133749819Y-163190476D02*
X133749819Y-163761904D01*
X133749819Y-163476190D02*
X132749819Y-163476190D01*
X132749819Y-163476190D02*
X132892676Y-163571428D01*
X132892676Y-163571428D02*
X132987914Y-163666666D01*
X132987914Y-163666666D02*
X133035533Y-163761904D01*
X132845057Y-162809523D02*
X132797438Y-162761904D01*
X132797438Y-162761904D02*
X132749819Y-162666666D01*
X132749819Y-162666666D02*
X132749819Y-162428571D01*
X132749819Y-162428571D02*
X132797438Y-162333333D01*
X132797438Y-162333333D02*
X132845057Y-162285714D01*
X132845057Y-162285714D02*
X132940295Y-162238095D01*
X132940295Y-162238095D02*
X133035533Y-162238095D01*
X133035533Y-162238095D02*
X133178390Y-162285714D01*
X133178390Y-162285714D02*
X133749819Y-162857142D01*
X133749819Y-162857142D02*
X133749819Y-162238095D01*
X144432142Y-157579580D02*
X144384523Y-157627200D01*
X144384523Y-157627200D02*
X144241666Y-157674819D01*
X144241666Y-157674819D02*
X144146428Y-157674819D01*
X144146428Y-157674819D02*
X144003571Y-157627200D01*
X144003571Y-157627200D02*
X143908333Y-157531961D01*
X143908333Y-157531961D02*
X143860714Y-157436723D01*
X143860714Y-157436723D02*
X143813095Y-157246247D01*
X143813095Y-157246247D02*
X143813095Y-157103390D01*
X143813095Y-157103390D02*
X143860714Y-156912914D01*
X143860714Y-156912914D02*
X143908333Y-156817676D01*
X143908333Y-156817676D02*
X144003571Y-156722438D01*
X144003571Y-156722438D02*
X144146428Y-156674819D01*
X144146428Y-156674819D02*
X144241666Y-156674819D01*
X144241666Y-156674819D02*
X144384523Y-156722438D01*
X144384523Y-156722438D02*
X144432142Y-156770057D01*
X145384523Y-157674819D02*
X144813095Y-157674819D01*
X145098809Y-157674819D02*
X145098809Y-156674819D01*
X145098809Y-156674819D02*
X145003571Y-156817676D01*
X145003571Y-156817676D02*
X144908333Y-156912914D01*
X144908333Y-156912914D02*
X144813095Y-156960533D01*
X145717857Y-156674819D02*
X146336904Y-156674819D01*
X146336904Y-156674819D02*
X146003571Y-157055771D01*
X146003571Y-157055771D02*
X146146428Y-157055771D01*
X146146428Y-157055771D02*
X146241666Y-157103390D01*
X146241666Y-157103390D02*
X146289285Y-157151009D01*
X146289285Y-157151009D02*
X146336904Y-157246247D01*
X146336904Y-157246247D02*
X146336904Y-157484342D01*
X146336904Y-157484342D02*
X146289285Y-157579580D01*
X146289285Y-157579580D02*
X146241666Y-157627200D01*
X146241666Y-157627200D02*
X146146428Y-157674819D01*
X146146428Y-157674819D02*
X145860714Y-157674819D01*
X145860714Y-157674819D02*
X145765476Y-157627200D01*
X145765476Y-157627200D02*
X145717857Y-157579580D01*
X140479819Y-163666666D02*
X140479819Y-164142856D01*
X140479819Y-164142856D02*
X139479819Y-164142856D01*
X139575057Y-163380951D02*
X139527438Y-163333332D01*
X139527438Y-163333332D02*
X139479819Y-163238094D01*
X139479819Y-163238094D02*
X139479819Y-162999999D01*
X139479819Y-162999999D02*
X139527438Y-162904761D01*
X139527438Y-162904761D02*
X139575057Y-162857142D01*
X139575057Y-162857142D02*
X139670295Y-162809523D01*
X139670295Y-162809523D02*
X139765533Y-162809523D01*
X139765533Y-162809523D02*
X139908390Y-162857142D01*
X139908390Y-162857142D02*
X140479819Y-163428570D01*
X140479819Y-163428570D02*
X140479819Y-162809523D01*
X24738095Y-144456819D02*
X25309523Y-144456819D01*
X25023809Y-145456819D02*
X25023809Y-144456819D01*
X25642857Y-145456819D02*
X25642857Y-144456819D01*
X25642857Y-144456819D02*
X26023809Y-144456819D01*
X26023809Y-144456819D02*
X26119047Y-144504438D01*
X26119047Y-144504438D02*
X26166666Y-144552057D01*
X26166666Y-144552057D02*
X26214285Y-144647295D01*
X26214285Y-144647295D02*
X26214285Y-144790152D01*
X26214285Y-144790152D02*
X26166666Y-144885390D01*
X26166666Y-144885390D02*
X26119047Y-144933009D01*
X26119047Y-144933009D02*
X26023809Y-144980628D01*
X26023809Y-144980628D02*
X25642857Y-144980628D01*
X27166666Y-145456819D02*
X26595238Y-145456819D01*
X26880952Y-145456819D02*
X26880952Y-144456819D01*
X26880952Y-144456819D02*
X26785714Y-144599676D01*
X26785714Y-144599676D02*
X26690476Y-144694914D01*
X26690476Y-144694914D02*
X26595238Y-144742533D01*
X83133309Y-141174927D02*
X82799976Y-140698736D01*
X82561881Y-141174927D02*
X82561881Y-140174927D01*
X82561881Y-140174927D02*
X82942833Y-140174927D01*
X82942833Y-140174927D02*
X83038071Y-140222546D01*
X83038071Y-140222546D02*
X83085690Y-140270165D01*
X83085690Y-140270165D02*
X83133309Y-140365403D01*
X83133309Y-140365403D02*
X83133309Y-140508260D01*
X83133309Y-140508260D02*
X83085690Y-140603498D01*
X83085690Y-140603498D02*
X83038071Y-140651117D01*
X83038071Y-140651117D02*
X82942833Y-140698736D01*
X82942833Y-140698736D02*
X82561881Y-140698736D01*
X83466643Y-140174927D02*
X84133309Y-140174927D01*
X84133309Y-140174927D02*
X83704738Y-141174927D01*
X68604819Y-113705357D02*
X68128628Y-114038690D01*
X68604819Y-114276785D02*
X67604819Y-114276785D01*
X67604819Y-114276785D02*
X67604819Y-113895833D01*
X67604819Y-113895833D02*
X67652438Y-113800595D01*
X67652438Y-113800595D02*
X67700057Y-113752976D01*
X67700057Y-113752976D02*
X67795295Y-113705357D01*
X67795295Y-113705357D02*
X67938152Y-113705357D01*
X67938152Y-113705357D02*
X68033390Y-113752976D01*
X68033390Y-113752976D02*
X68081009Y-113800595D01*
X68081009Y-113800595D02*
X68128628Y-113895833D01*
X68128628Y-113895833D02*
X68128628Y-114276785D01*
X68604819Y-112752976D02*
X68604819Y-113324404D01*
X68604819Y-113038690D02*
X67604819Y-113038690D01*
X67604819Y-113038690D02*
X67747676Y-113133928D01*
X67747676Y-113133928D02*
X67842914Y-113229166D01*
X67842914Y-113229166D02*
X67890533Y-113324404D01*
X67604819Y-112133928D02*
X67604819Y-112038690D01*
X67604819Y-112038690D02*
X67652438Y-111943452D01*
X67652438Y-111943452D02*
X67700057Y-111895833D01*
X67700057Y-111895833D02*
X67795295Y-111848214D01*
X67795295Y-111848214D02*
X67985771Y-111800595D01*
X67985771Y-111800595D02*
X68223866Y-111800595D01*
X68223866Y-111800595D02*
X68414342Y-111848214D01*
X68414342Y-111848214D02*
X68509580Y-111895833D01*
X68509580Y-111895833D02*
X68557200Y-111943452D01*
X68557200Y-111943452D02*
X68604819Y-112038690D01*
X68604819Y-112038690D02*
X68604819Y-112133928D01*
X68604819Y-112133928D02*
X68557200Y-112229166D01*
X68557200Y-112229166D02*
X68509580Y-112276785D01*
X68509580Y-112276785D02*
X68414342Y-112324404D01*
X68414342Y-112324404D02*
X68223866Y-112372023D01*
X68223866Y-112372023D02*
X67985771Y-112372023D01*
X67985771Y-112372023D02*
X67795295Y-112324404D01*
X67795295Y-112324404D02*
X67700057Y-112276785D01*
X67700057Y-112276785D02*
X67652438Y-112229166D01*
X67652438Y-112229166D02*
X67604819Y-112133928D01*
X40833333Y-168045180D02*
X40833333Y-167330895D01*
X40833333Y-167330895D02*
X40880952Y-167188038D01*
X40880952Y-167188038D02*
X40976190Y-167092800D01*
X40976190Y-167092800D02*
X41119047Y-167045180D01*
X41119047Y-167045180D02*
X41214285Y-167045180D01*
X40452380Y-168045180D02*
X39833333Y-168045180D01*
X39833333Y-168045180D02*
X40166666Y-167664228D01*
X40166666Y-167664228D02*
X40023809Y-167664228D01*
X40023809Y-167664228D02*
X39928571Y-167616609D01*
X39928571Y-167616609D02*
X39880952Y-167568990D01*
X39880952Y-167568990D02*
X39833333Y-167473752D01*
X39833333Y-167473752D02*
X39833333Y-167235657D01*
X39833333Y-167235657D02*
X39880952Y-167140419D01*
X39880952Y-167140419D02*
X39928571Y-167092800D01*
X39928571Y-167092800D02*
X40023809Y-167045180D01*
X40023809Y-167045180D02*
X40309523Y-167045180D01*
X40309523Y-167045180D02*
X40404761Y-167092800D01*
X40404761Y-167092800D02*
X40452380Y-167140419D01*
X61294580Y-70067857D02*
X61342200Y-70115476D01*
X61342200Y-70115476D02*
X61389819Y-70258333D01*
X61389819Y-70258333D02*
X61389819Y-70353571D01*
X61389819Y-70353571D02*
X61342200Y-70496428D01*
X61342200Y-70496428D02*
X61246961Y-70591666D01*
X61246961Y-70591666D02*
X61151723Y-70639285D01*
X61151723Y-70639285D02*
X60961247Y-70686904D01*
X60961247Y-70686904D02*
X60818390Y-70686904D01*
X60818390Y-70686904D02*
X60627914Y-70639285D01*
X60627914Y-70639285D02*
X60532676Y-70591666D01*
X60532676Y-70591666D02*
X60437438Y-70496428D01*
X60437438Y-70496428D02*
X60389819Y-70353571D01*
X60389819Y-70353571D02*
X60389819Y-70258333D01*
X60389819Y-70258333D02*
X60437438Y-70115476D01*
X60437438Y-70115476D02*
X60485057Y-70067857D01*
X61389819Y-69115476D02*
X61389819Y-69686904D01*
X61389819Y-69401190D02*
X60389819Y-69401190D01*
X60389819Y-69401190D02*
X60532676Y-69496428D01*
X60532676Y-69496428D02*
X60627914Y-69591666D01*
X60627914Y-69591666D02*
X60675533Y-69686904D01*
X60389819Y-68210714D02*
X60389819Y-68686904D01*
X60389819Y-68686904D02*
X60866009Y-68734523D01*
X60866009Y-68734523D02*
X60818390Y-68686904D01*
X60818390Y-68686904D02*
X60770771Y-68591666D01*
X60770771Y-68591666D02*
X60770771Y-68353571D01*
X60770771Y-68353571D02*
X60818390Y-68258333D01*
X60818390Y-68258333D02*
X60866009Y-68210714D01*
X60866009Y-68210714D02*
X60961247Y-68163095D01*
X60961247Y-68163095D02*
X61199342Y-68163095D01*
X61199342Y-68163095D02*
X61294580Y-68210714D01*
X61294580Y-68210714D02*
X61342200Y-68258333D01*
X61342200Y-68258333D02*
X61389819Y-68353571D01*
X61389819Y-68353571D02*
X61389819Y-68591666D01*
X61389819Y-68591666D02*
X61342200Y-68686904D01*
X61342200Y-68686904D02*
X61294580Y-68734523D01*
X144432142Y-162579580D02*
X144384523Y-162627200D01*
X144384523Y-162627200D02*
X144241666Y-162674819D01*
X144241666Y-162674819D02*
X144146428Y-162674819D01*
X144146428Y-162674819D02*
X144003571Y-162627200D01*
X144003571Y-162627200D02*
X143908333Y-162531961D01*
X143908333Y-162531961D02*
X143860714Y-162436723D01*
X143860714Y-162436723D02*
X143813095Y-162246247D01*
X143813095Y-162246247D02*
X143813095Y-162103390D01*
X143813095Y-162103390D02*
X143860714Y-161912914D01*
X143860714Y-161912914D02*
X143908333Y-161817676D01*
X143908333Y-161817676D02*
X144003571Y-161722438D01*
X144003571Y-161722438D02*
X144146428Y-161674819D01*
X144146428Y-161674819D02*
X144241666Y-161674819D01*
X144241666Y-161674819D02*
X144384523Y-161722438D01*
X144384523Y-161722438D02*
X144432142Y-161770057D01*
X145384523Y-162674819D02*
X144813095Y-162674819D01*
X145098809Y-162674819D02*
X145098809Y-161674819D01*
X145098809Y-161674819D02*
X145003571Y-161817676D01*
X145003571Y-161817676D02*
X144908333Y-161912914D01*
X144908333Y-161912914D02*
X144813095Y-161960533D01*
X146241666Y-162008152D02*
X146241666Y-162674819D01*
X146003571Y-161627200D02*
X145765476Y-162341485D01*
X145765476Y-162341485D02*
X146384523Y-162341485D01*
X162238095Y-143456819D02*
X162809523Y-143456819D01*
X162523809Y-144456819D02*
X162523809Y-143456819D01*
X163142857Y-144456819D02*
X163142857Y-143456819D01*
X163142857Y-143456819D02*
X163523809Y-143456819D01*
X163523809Y-143456819D02*
X163619047Y-143504438D01*
X163619047Y-143504438D02*
X163666666Y-143552057D01*
X163666666Y-143552057D02*
X163714285Y-143647295D01*
X163714285Y-143647295D02*
X163714285Y-143790152D01*
X163714285Y-143790152D02*
X163666666Y-143885390D01*
X163666666Y-143885390D02*
X163619047Y-143933009D01*
X163619047Y-143933009D02*
X163523809Y-143980628D01*
X163523809Y-143980628D02*
X163142857Y-143980628D01*
X164285714Y-143885390D02*
X164190476Y-143837771D01*
X164190476Y-143837771D02*
X164142857Y-143790152D01*
X164142857Y-143790152D02*
X164095238Y-143694914D01*
X164095238Y-143694914D02*
X164095238Y-143647295D01*
X164095238Y-143647295D02*
X164142857Y-143552057D01*
X164142857Y-143552057D02*
X164190476Y-143504438D01*
X164190476Y-143504438D02*
X164285714Y-143456819D01*
X164285714Y-143456819D02*
X164476190Y-143456819D01*
X164476190Y-143456819D02*
X164571428Y-143504438D01*
X164571428Y-143504438D02*
X164619047Y-143552057D01*
X164619047Y-143552057D02*
X164666666Y-143647295D01*
X164666666Y-143647295D02*
X164666666Y-143694914D01*
X164666666Y-143694914D02*
X164619047Y-143790152D01*
X164619047Y-143790152D02*
X164571428Y-143837771D01*
X164571428Y-143837771D02*
X164476190Y-143885390D01*
X164476190Y-143885390D02*
X164285714Y-143885390D01*
X164285714Y-143885390D02*
X164190476Y-143933009D01*
X164190476Y-143933009D02*
X164142857Y-143980628D01*
X164142857Y-143980628D02*
X164095238Y-144075866D01*
X164095238Y-144075866D02*
X164095238Y-144266342D01*
X164095238Y-144266342D02*
X164142857Y-144361580D01*
X164142857Y-144361580D02*
X164190476Y-144409200D01*
X164190476Y-144409200D02*
X164285714Y-144456819D01*
X164285714Y-144456819D02*
X164476190Y-144456819D01*
X164476190Y-144456819D02*
X164571428Y-144409200D01*
X164571428Y-144409200D02*
X164619047Y-144361580D01*
X164619047Y-144361580D02*
X164666666Y-144266342D01*
X164666666Y-144266342D02*
X164666666Y-144075866D01*
X164666666Y-144075866D02*
X164619047Y-143980628D01*
X164619047Y-143980628D02*
X164571428Y-143933009D01*
X164571428Y-143933009D02*
X164476190Y-143885390D01*
X74530052Y-118517319D02*
X74053862Y-118517319D01*
X74053862Y-118517319D02*
X74053862Y-117517319D01*
X74863386Y-117993509D02*
X75196719Y-117993509D01*
X75339576Y-118517319D02*
X74863386Y-118517319D01*
X74863386Y-118517319D02*
X74863386Y-117517319D01*
X74863386Y-117517319D02*
X75339576Y-117517319D01*
X75768148Y-118517319D02*
X75768148Y-117517319D01*
X75768148Y-117517319D02*
X76006243Y-117517319D01*
X76006243Y-117517319D02*
X76149100Y-117564938D01*
X76149100Y-117564938D02*
X76244338Y-117660176D01*
X76244338Y-117660176D02*
X76291957Y-117755414D01*
X76291957Y-117755414D02*
X76339576Y-117945890D01*
X76339576Y-117945890D02*
X76339576Y-118088747D01*
X76339576Y-118088747D02*
X76291957Y-118279223D01*
X76291957Y-118279223D02*
X76244338Y-118374461D01*
X76244338Y-118374461D02*
X76149100Y-118469700D01*
X76149100Y-118469700D02*
X76006243Y-118517319D01*
X76006243Y-118517319D02*
X75768148Y-118517319D01*
X76720529Y-117612557D02*
X76768148Y-117564938D01*
X76768148Y-117564938D02*
X76863386Y-117517319D01*
X76863386Y-117517319D02*
X77101481Y-117517319D01*
X77101481Y-117517319D02*
X77196719Y-117564938D01*
X77196719Y-117564938D02*
X77244338Y-117612557D01*
X77244338Y-117612557D02*
X77291957Y-117707795D01*
X77291957Y-117707795D02*
X77291957Y-117803033D01*
X77291957Y-117803033D02*
X77244338Y-117945890D01*
X77244338Y-117945890D02*
X76672910Y-118517319D01*
X76672910Y-118517319D02*
X77291957Y-118517319D01*
X91604795Y-156736774D02*
X91128604Y-157070107D01*
X91604795Y-157308202D02*
X90604795Y-157308202D01*
X90604795Y-157308202D02*
X90604795Y-156927250D01*
X90604795Y-156927250D02*
X90652414Y-156832012D01*
X90652414Y-156832012D02*
X90700033Y-156784393D01*
X90700033Y-156784393D02*
X90795271Y-156736774D01*
X90795271Y-156736774D02*
X90938128Y-156736774D01*
X90938128Y-156736774D02*
X91033366Y-156784393D01*
X91033366Y-156784393D02*
X91080985Y-156832012D01*
X91080985Y-156832012D02*
X91128604Y-156927250D01*
X91128604Y-156927250D02*
X91128604Y-157308202D01*
X90604795Y-156403440D02*
X90604795Y-155784393D01*
X90604795Y-155784393D02*
X90985747Y-156117726D01*
X90985747Y-156117726D02*
X90985747Y-155974869D01*
X90985747Y-155974869D02*
X91033366Y-155879631D01*
X91033366Y-155879631D02*
X91080985Y-155832012D01*
X91080985Y-155832012D02*
X91176223Y-155784393D01*
X91176223Y-155784393D02*
X91414318Y-155784393D01*
X91414318Y-155784393D02*
X91509556Y-155832012D01*
X91509556Y-155832012D02*
X91557176Y-155879631D01*
X91557176Y-155879631D02*
X91604795Y-155974869D01*
X91604795Y-155974869D02*
X91604795Y-156260583D01*
X91604795Y-156260583D02*
X91557176Y-156355821D01*
X91557176Y-156355821D02*
X91509556Y-156403440D01*
X54800974Y-24496419D02*
X54800974Y-25210704D01*
X54800974Y-25210704D02*
X54753355Y-25353561D01*
X54753355Y-25353561D02*
X54658117Y-25448800D01*
X54658117Y-25448800D02*
X54515260Y-25496419D01*
X54515260Y-25496419D02*
X54420022Y-25496419D01*
X55800974Y-25496419D02*
X55229546Y-25496419D01*
X55515260Y-25496419D02*
X55515260Y-24496419D01*
X55515260Y-24496419D02*
X55420022Y-24639276D01*
X55420022Y-24639276D02*
X55324784Y-24734514D01*
X55324784Y-24734514D02*
X55229546Y-24782133D01*
X56420022Y-24496419D02*
X56515260Y-24496419D01*
X56515260Y-24496419D02*
X56610498Y-24544038D01*
X56610498Y-24544038D02*
X56658117Y-24591657D01*
X56658117Y-24591657D02*
X56705736Y-24686895D01*
X56705736Y-24686895D02*
X56753355Y-24877371D01*
X56753355Y-24877371D02*
X56753355Y-25115466D01*
X56753355Y-25115466D02*
X56705736Y-25305942D01*
X56705736Y-25305942D02*
X56658117Y-25401180D01*
X56658117Y-25401180D02*
X56610498Y-25448800D01*
X56610498Y-25448800D02*
X56515260Y-25496419D01*
X56515260Y-25496419D02*
X56420022Y-25496419D01*
X56420022Y-25496419D02*
X56324784Y-25448800D01*
X56324784Y-25448800D02*
X56277165Y-25401180D01*
X56277165Y-25401180D02*
X56229546Y-25305942D01*
X56229546Y-25305942D02*
X56181927Y-25115466D01*
X56181927Y-25115466D02*
X56181927Y-24877371D01*
X56181927Y-24877371D02*
X56229546Y-24686895D01*
X56229546Y-24686895D02*
X56277165Y-24591657D01*
X56277165Y-24591657D02*
X56324784Y-24544038D01*
X56324784Y-24544038D02*
X56420022Y-24496419D01*
X72581009Y-113395833D02*
X72581009Y-113729166D01*
X73104819Y-113729166D02*
X72104819Y-113729166D01*
X72104819Y-113729166D02*
X72104819Y-113252976D01*
X72200057Y-112919642D02*
X72152438Y-112872023D01*
X72152438Y-112872023D02*
X72104819Y-112776785D01*
X72104819Y-112776785D02*
X72104819Y-112538690D01*
X72104819Y-112538690D02*
X72152438Y-112443452D01*
X72152438Y-112443452D02*
X72200057Y-112395833D01*
X72200057Y-112395833D02*
X72295295Y-112348214D01*
X72295295Y-112348214D02*
X72390533Y-112348214D01*
X72390533Y-112348214D02*
X72533390Y-112395833D01*
X72533390Y-112395833D02*
X73104819Y-112967261D01*
X73104819Y-112967261D02*
X73104819Y-112348214D01*
X106563405Y-90954819D02*
X106563405Y-89954819D01*
X106563405Y-89954819D02*
X106801500Y-89954819D01*
X106801500Y-89954819D02*
X106944357Y-90002438D01*
X106944357Y-90002438D02*
X107039595Y-90097676D01*
X107039595Y-90097676D02*
X107087214Y-90192914D01*
X107087214Y-90192914D02*
X107134833Y-90383390D01*
X107134833Y-90383390D02*
X107134833Y-90526247D01*
X107134833Y-90526247D02*
X107087214Y-90716723D01*
X107087214Y-90716723D02*
X107039595Y-90811961D01*
X107039595Y-90811961D02*
X106944357Y-90907200D01*
X106944357Y-90907200D02*
X106801500Y-90954819D01*
X106801500Y-90954819D02*
X106563405Y-90954819D01*
X107611024Y-90954819D02*
X107801500Y-90954819D01*
X107801500Y-90954819D02*
X107896738Y-90907200D01*
X107896738Y-90907200D02*
X107944357Y-90859580D01*
X107944357Y-90859580D02*
X108039595Y-90716723D01*
X108039595Y-90716723D02*
X108087214Y-90526247D01*
X108087214Y-90526247D02*
X108087214Y-90145295D01*
X108087214Y-90145295D02*
X108039595Y-90050057D01*
X108039595Y-90050057D02*
X107991976Y-90002438D01*
X107991976Y-90002438D02*
X107896738Y-89954819D01*
X107896738Y-89954819D02*
X107706262Y-89954819D01*
X107706262Y-89954819D02*
X107611024Y-90002438D01*
X107611024Y-90002438D02*
X107563405Y-90050057D01*
X107563405Y-90050057D02*
X107515786Y-90145295D01*
X107515786Y-90145295D02*
X107515786Y-90383390D01*
X107515786Y-90383390D02*
X107563405Y-90478628D01*
X107563405Y-90478628D02*
X107611024Y-90526247D01*
X107611024Y-90526247D02*
X107706262Y-90573866D01*
X107706262Y-90573866D02*
X107896738Y-90573866D01*
X107896738Y-90573866D02*
X107991976Y-90526247D01*
X107991976Y-90526247D02*
X108039595Y-90478628D01*
X108039595Y-90478628D02*
X108087214Y-90383390D01*
X131579819Y-133555357D02*
X131103628Y-133888690D01*
X131579819Y-134126785D02*
X130579819Y-134126785D01*
X130579819Y-134126785D02*
X130579819Y-133745833D01*
X130579819Y-133745833D02*
X130627438Y-133650595D01*
X130627438Y-133650595D02*
X130675057Y-133602976D01*
X130675057Y-133602976D02*
X130770295Y-133555357D01*
X130770295Y-133555357D02*
X130913152Y-133555357D01*
X130913152Y-133555357D02*
X131008390Y-133602976D01*
X131008390Y-133602976D02*
X131056009Y-133650595D01*
X131056009Y-133650595D02*
X131103628Y-133745833D01*
X131103628Y-133745833D02*
X131103628Y-134126785D01*
X131579819Y-132602976D02*
X131579819Y-133174404D01*
X131579819Y-132888690D02*
X130579819Y-132888690D01*
X130579819Y-132888690D02*
X130722676Y-132983928D01*
X130722676Y-132983928D02*
X130817914Y-133079166D01*
X130817914Y-133079166D02*
X130865533Y-133174404D01*
X131579819Y-131650595D02*
X131579819Y-132222023D01*
X131579819Y-131936309D02*
X130579819Y-131936309D01*
X130579819Y-131936309D02*
X130722676Y-132031547D01*
X130722676Y-132031547D02*
X130817914Y-132126785D01*
X130817914Y-132126785D02*
X130865533Y-132222023D01*
X57196047Y-134044918D02*
X57135095Y-134014442D01*
X57135095Y-134014442D02*
X57074142Y-133953490D01*
X57074142Y-133953490D02*
X56982714Y-133862061D01*
X56982714Y-133862061D02*
X56921761Y-133831585D01*
X56921761Y-133831585D02*
X56860809Y-133831585D01*
X56891285Y-133983966D02*
X56830333Y-133953490D01*
X56830333Y-133953490D02*
X56769380Y-133892537D01*
X56769380Y-133892537D02*
X56738904Y-133770632D01*
X56738904Y-133770632D02*
X56738904Y-133557299D01*
X56738904Y-133557299D02*
X56769380Y-133435394D01*
X56769380Y-133435394D02*
X56830333Y-133374442D01*
X56830333Y-133374442D02*
X56891285Y-133343966D01*
X56891285Y-133343966D02*
X57013190Y-133343966D01*
X57013190Y-133343966D02*
X57074142Y-133374442D01*
X57074142Y-133374442D02*
X57135095Y-133435394D01*
X57135095Y-133435394D02*
X57165571Y-133557299D01*
X57165571Y-133557299D02*
X57165571Y-133770632D01*
X57165571Y-133770632D02*
X57135095Y-133892537D01*
X57135095Y-133892537D02*
X57074142Y-133953490D01*
X57074142Y-133953490D02*
X57013190Y-133983966D01*
X57013190Y-133983966D02*
X56891285Y-133983966D01*
X57744618Y-133343966D02*
X57439856Y-133343966D01*
X57439856Y-133343966D02*
X57409380Y-133648728D01*
X57409380Y-133648728D02*
X57439856Y-133618251D01*
X57439856Y-133618251D02*
X57500809Y-133587775D01*
X57500809Y-133587775D02*
X57653190Y-133587775D01*
X57653190Y-133587775D02*
X57714142Y-133618251D01*
X57714142Y-133618251D02*
X57744618Y-133648728D01*
X57744618Y-133648728D02*
X57775095Y-133709680D01*
X57775095Y-133709680D02*
X57775095Y-133862061D01*
X57775095Y-133862061D02*
X57744618Y-133923013D01*
X57744618Y-133923013D02*
X57714142Y-133953490D01*
X57714142Y-133953490D02*
X57653190Y-133983966D01*
X57653190Y-133983966D02*
X57500809Y-133983966D01*
X57500809Y-133983966D02*
X57439856Y-133953490D01*
X57439856Y-133953490D02*
X57409380Y-133923013D01*
X136777166Y-17162420D02*
X136777166Y-17876705D01*
X136777166Y-17876705D02*
X136729547Y-18019562D01*
X136729547Y-18019562D02*
X136634309Y-18114801D01*
X136634309Y-18114801D02*
X136491452Y-18162420D01*
X136491452Y-18162420D02*
X136396214Y-18162420D01*
X137300976Y-18162420D02*
X137491452Y-18162420D01*
X137491452Y-18162420D02*
X137586690Y-18114801D01*
X137586690Y-18114801D02*
X137634309Y-18067181D01*
X137634309Y-18067181D02*
X137729547Y-17924324D01*
X137729547Y-17924324D02*
X137777166Y-17733848D01*
X137777166Y-17733848D02*
X137777166Y-17352896D01*
X137777166Y-17352896D02*
X137729547Y-17257658D01*
X137729547Y-17257658D02*
X137681928Y-17210039D01*
X137681928Y-17210039D02*
X137586690Y-17162420D01*
X137586690Y-17162420D02*
X137396214Y-17162420D01*
X137396214Y-17162420D02*
X137300976Y-17210039D01*
X137300976Y-17210039D02*
X137253357Y-17257658D01*
X137253357Y-17257658D02*
X137205738Y-17352896D01*
X137205738Y-17352896D02*
X137205738Y-17590991D01*
X137205738Y-17590991D02*
X137253357Y-17686229D01*
X137253357Y-17686229D02*
X137300976Y-17733848D01*
X137300976Y-17733848D02*
X137396214Y-17781467D01*
X137396214Y-17781467D02*
X137586690Y-17781467D01*
X137586690Y-17781467D02*
X137681928Y-17733848D01*
X137681928Y-17733848D02*
X137729547Y-17686229D01*
X137729547Y-17686229D02*
X137777166Y-17590991D01*
X94584795Y-162403441D02*
X95299080Y-162403441D01*
X95299080Y-162403441D02*
X95441937Y-162451060D01*
X95441937Y-162451060D02*
X95537176Y-162546298D01*
X95537176Y-162546298D02*
X95584795Y-162689155D01*
X95584795Y-162689155D02*
X95584795Y-162784393D01*
X94918128Y-161498679D02*
X95584795Y-161498679D01*
X94537176Y-161736774D02*
X95251461Y-161974869D01*
X95251461Y-161974869D02*
X95251461Y-161355822D01*
X23939819Y-117408333D02*
X24654104Y-117408333D01*
X24654104Y-117408333D02*
X24796961Y-117455952D01*
X24796961Y-117455952D02*
X24892200Y-117551190D01*
X24892200Y-117551190D02*
X24939819Y-117694047D01*
X24939819Y-117694047D02*
X24939819Y-117789285D01*
X24035057Y-116979761D02*
X23987438Y-116932142D01*
X23987438Y-116932142D02*
X23939819Y-116836904D01*
X23939819Y-116836904D02*
X23939819Y-116598809D01*
X23939819Y-116598809D02*
X23987438Y-116503571D01*
X23987438Y-116503571D02*
X24035057Y-116455952D01*
X24035057Y-116455952D02*
X24130295Y-116408333D01*
X24130295Y-116408333D02*
X24225533Y-116408333D01*
X24225533Y-116408333D02*
X24368390Y-116455952D01*
X24368390Y-116455952D02*
X24939819Y-117027380D01*
X24939819Y-117027380D02*
X24939819Y-116408333D01*
X33095238Y-114449942D02*
X33190476Y-114497561D01*
X33190476Y-114497561D02*
X33285714Y-114592800D01*
X33285714Y-114592800D02*
X33428571Y-114735657D01*
X33428571Y-114735657D02*
X33523809Y-114783276D01*
X33523809Y-114783276D02*
X33619047Y-114783276D01*
X33571428Y-114545180D02*
X33666666Y-114592800D01*
X33666666Y-114592800D02*
X33761904Y-114688038D01*
X33761904Y-114688038D02*
X33809523Y-114878514D01*
X33809523Y-114878514D02*
X33809523Y-115211847D01*
X33809523Y-115211847D02*
X33761904Y-115402323D01*
X33761904Y-115402323D02*
X33666666Y-115497561D01*
X33666666Y-115497561D02*
X33571428Y-115545180D01*
X33571428Y-115545180D02*
X33380952Y-115545180D01*
X33380952Y-115545180D02*
X33285714Y-115497561D01*
X33285714Y-115497561D02*
X33190476Y-115402323D01*
X33190476Y-115402323D02*
X33142857Y-115211847D01*
X33142857Y-115211847D02*
X33142857Y-114878514D01*
X33142857Y-114878514D02*
X33190476Y-114688038D01*
X33190476Y-114688038D02*
X33285714Y-114592800D01*
X33285714Y-114592800D02*
X33380952Y-114545180D01*
X33380952Y-114545180D02*
X33571428Y-114545180D01*
X32761904Y-115449942D02*
X32714285Y-115497561D01*
X32714285Y-115497561D02*
X32619047Y-115545180D01*
X32619047Y-115545180D02*
X32380952Y-115545180D01*
X32380952Y-115545180D02*
X32285714Y-115497561D01*
X32285714Y-115497561D02*
X32238095Y-115449942D01*
X32238095Y-115449942D02*
X32190476Y-115354704D01*
X32190476Y-115354704D02*
X32190476Y-115259466D01*
X32190476Y-115259466D02*
X32238095Y-115116609D01*
X32238095Y-115116609D02*
X32809523Y-114545180D01*
X32809523Y-114545180D02*
X32190476Y-114545180D01*
X61238095Y-139956819D02*
X61809523Y-139956819D01*
X61523809Y-140956819D02*
X61523809Y-139956819D01*
X62142857Y-140956819D02*
X62142857Y-139956819D01*
X62142857Y-139956819D02*
X62523809Y-139956819D01*
X62523809Y-139956819D02*
X62619047Y-140004438D01*
X62619047Y-140004438D02*
X62666666Y-140052057D01*
X62666666Y-140052057D02*
X62714285Y-140147295D01*
X62714285Y-140147295D02*
X62714285Y-140290152D01*
X62714285Y-140290152D02*
X62666666Y-140385390D01*
X62666666Y-140385390D02*
X62619047Y-140433009D01*
X62619047Y-140433009D02*
X62523809Y-140480628D01*
X62523809Y-140480628D02*
X62142857Y-140480628D01*
X63047619Y-139956819D02*
X63666666Y-139956819D01*
X63666666Y-139956819D02*
X63333333Y-140337771D01*
X63333333Y-140337771D02*
X63476190Y-140337771D01*
X63476190Y-140337771D02*
X63571428Y-140385390D01*
X63571428Y-140385390D02*
X63619047Y-140433009D01*
X63619047Y-140433009D02*
X63666666Y-140528247D01*
X63666666Y-140528247D02*
X63666666Y-140766342D01*
X63666666Y-140766342D02*
X63619047Y-140861580D01*
X63619047Y-140861580D02*
X63571428Y-140909200D01*
X63571428Y-140909200D02*
X63476190Y-140956819D01*
X63476190Y-140956819D02*
X63190476Y-140956819D01*
X63190476Y-140956819D02*
X63095238Y-140909200D01*
X63095238Y-140909200D02*
X63047619Y-140861580D01*
X145014580Y-150192857D02*
X145062200Y-150240476D01*
X145062200Y-150240476D02*
X145109819Y-150383333D01*
X145109819Y-150383333D02*
X145109819Y-150478571D01*
X145109819Y-150478571D02*
X145062200Y-150621428D01*
X145062200Y-150621428D02*
X144966961Y-150716666D01*
X144966961Y-150716666D02*
X144871723Y-150764285D01*
X144871723Y-150764285D02*
X144681247Y-150811904D01*
X144681247Y-150811904D02*
X144538390Y-150811904D01*
X144538390Y-150811904D02*
X144347914Y-150764285D01*
X144347914Y-150764285D02*
X144252676Y-150716666D01*
X144252676Y-150716666D02*
X144157438Y-150621428D01*
X144157438Y-150621428D02*
X144109819Y-150478571D01*
X144109819Y-150478571D02*
X144109819Y-150383333D01*
X144109819Y-150383333D02*
X144157438Y-150240476D01*
X144157438Y-150240476D02*
X144205057Y-150192857D01*
X145109819Y-149240476D02*
X145109819Y-149811904D01*
X145109819Y-149526190D02*
X144109819Y-149526190D01*
X144109819Y-149526190D02*
X144252676Y-149621428D01*
X144252676Y-149621428D02*
X144347914Y-149716666D01*
X144347914Y-149716666D02*
X144395533Y-149811904D01*
X144109819Y-148621428D02*
X144109819Y-148526190D01*
X144109819Y-148526190D02*
X144157438Y-148430952D01*
X144157438Y-148430952D02*
X144205057Y-148383333D01*
X144205057Y-148383333D02*
X144300295Y-148335714D01*
X144300295Y-148335714D02*
X144490771Y-148288095D01*
X144490771Y-148288095D02*
X144728866Y-148288095D01*
X144728866Y-148288095D02*
X144919342Y-148335714D01*
X144919342Y-148335714D02*
X145014580Y-148383333D01*
X145014580Y-148383333D02*
X145062200Y-148430952D01*
X145062200Y-148430952D02*
X145109819Y-148526190D01*
X145109819Y-148526190D02*
X145109819Y-148621428D01*
X145109819Y-148621428D02*
X145062200Y-148716666D01*
X145062200Y-148716666D02*
X145014580Y-148764285D01*
X145014580Y-148764285D02*
X144919342Y-148811904D01*
X144919342Y-148811904D02*
X144728866Y-148859523D01*
X144728866Y-148859523D02*
X144490771Y-148859523D01*
X144490771Y-148859523D02*
X144300295Y-148811904D01*
X144300295Y-148811904D02*
X144205057Y-148764285D01*
X144205057Y-148764285D02*
X144157438Y-148716666D01*
X144157438Y-148716666D02*
X144109819Y-148621428D01*
X85454819Y-114324404D02*
X86264342Y-114324404D01*
X86264342Y-114324404D02*
X86359580Y-114276785D01*
X86359580Y-114276785D02*
X86407200Y-114229166D01*
X86407200Y-114229166D02*
X86454819Y-114133928D01*
X86454819Y-114133928D02*
X86454819Y-113943452D01*
X86454819Y-113943452D02*
X86407200Y-113848214D01*
X86407200Y-113848214D02*
X86359580Y-113800595D01*
X86359580Y-113800595D02*
X86264342Y-113752976D01*
X86264342Y-113752976D02*
X85454819Y-113752976D01*
X86454819Y-112752976D02*
X86454819Y-113324404D01*
X86454819Y-113038690D02*
X85454819Y-113038690D01*
X85454819Y-113038690D02*
X85597676Y-113133928D01*
X85597676Y-113133928D02*
X85692914Y-113229166D01*
X85692914Y-113229166D02*
X85740533Y-113324404D01*
X110538071Y-154526927D02*
X111109499Y-154526927D01*
X110823785Y-155526927D02*
X110823785Y-154526927D01*
X111442833Y-155526927D02*
X111442833Y-154526927D01*
X111442833Y-154526927D02*
X111823785Y-154526927D01*
X111823785Y-154526927D02*
X111919023Y-154574546D01*
X111919023Y-154574546D02*
X111966642Y-154622165D01*
X111966642Y-154622165D02*
X112014261Y-154717403D01*
X112014261Y-154717403D02*
X112014261Y-154860260D01*
X112014261Y-154860260D02*
X111966642Y-154955498D01*
X111966642Y-154955498D02*
X111919023Y-155003117D01*
X111919023Y-155003117D02*
X111823785Y-155050736D01*
X111823785Y-155050736D02*
X111442833Y-155050736D01*
X112395214Y-154622165D02*
X112442833Y-154574546D01*
X112442833Y-154574546D02*
X112538071Y-154526927D01*
X112538071Y-154526927D02*
X112776166Y-154526927D01*
X112776166Y-154526927D02*
X112871404Y-154574546D01*
X112871404Y-154574546D02*
X112919023Y-154622165D01*
X112919023Y-154622165D02*
X112966642Y-154717403D01*
X112966642Y-154717403D02*
X112966642Y-154812641D01*
X112966642Y-154812641D02*
X112919023Y-154955498D01*
X112919023Y-154955498D02*
X112347595Y-155526927D01*
X112347595Y-155526927D02*
X112966642Y-155526927D01*
X45715405Y-62879819D02*
X45715405Y-61879819D01*
X45715405Y-61879819D02*
X45953500Y-61879819D01*
X45953500Y-61879819D02*
X46096357Y-61927438D01*
X46096357Y-61927438D02*
X46191595Y-62022676D01*
X46191595Y-62022676D02*
X46239214Y-62117914D01*
X46239214Y-62117914D02*
X46286833Y-62308390D01*
X46286833Y-62308390D02*
X46286833Y-62451247D01*
X46286833Y-62451247D02*
X46239214Y-62641723D01*
X46239214Y-62641723D02*
X46191595Y-62736961D01*
X46191595Y-62736961D02*
X46096357Y-62832200D01*
X46096357Y-62832200D02*
X45953500Y-62879819D01*
X45953500Y-62879819D02*
X45715405Y-62879819D01*
X47143976Y-62213152D02*
X47143976Y-62879819D01*
X46905881Y-61832200D02*
X46667786Y-62546485D01*
X46667786Y-62546485D02*
X47286833Y-62546485D01*
X80633309Y-159074927D02*
X80157119Y-159074927D01*
X80157119Y-159074927D02*
X80157119Y-158074927D01*
X81490452Y-159074927D02*
X80919024Y-159074927D01*
X81204738Y-159074927D02*
X81204738Y-158074927D01*
X81204738Y-158074927D02*
X81109500Y-158217784D01*
X81109500Y-158217784D02*
X81014262Y-158313022D01*
X81014262Y-158313022D02*
X80919024Y-158360641D01*
X47294594Y-55970180D02*
X47294594Y-56970180D01*
X47294594Y-56970180D02*
X47056499Y-56970180D01*
X47056499Y-56970180D02*
X46913642Y-56922561D01*
X46913642Y-56922561D02*
X46818404Y-56827323D01*
X46818404Y-56827323D02*
X46770785Y-56732085D01*
X46770785Y-56732085D02*
X46723166Y-56541609D01*
X46723166Y-56541609D02*
X46723166Y-56398752D01*
X46723166Y-56398752D02*
X46770785Y-56208276D01*
X46770785Y-56208276D02*
X46818404Y-56113038D01*
X46818404Y-56113038D02*
X46913642Y-56017800D01*
X46913642Y-56017800D02*
X47056499Y-55970180D01*
X47056499Y-55970180D02*
X47294594Y-55970180D01*
X45818404Y-56970180D02*
X46294594Y-56970180D01*
X46294594Y-56970180D02*
X46342213Y-56493990D01*
X46342213Y-56493990D02*
X46294594Y-56541609D01*
X46294594Y-56541609D02*
X46199356Y-56589228D01*
X46199356Y-56589228D02*
X45961261Y-56589228D01*
X45961261Y-56589228D02*
X45866023Y-56541609D01*
X45866023Y-56541609D02*
X45818404Y-56493990D01*
X45818404Y-56493990D02*
X45770785Y-56398752D01*
X45770785Y-56398752D02*
X45770785Y-56160657D01*
X45770785Y-56160657D02*
X45818404Y-56065419D01*
X45818404Y-56065419D02*
X45866023Y-56017800D01*
X45866023Y-56017800D02*
X45961261Y-55970180D01*
X45961261Y-55970180D02*
X46199356Y-55970180D01*
X46199356Y-55970180D02*
X46294594Y-56017800D01*
X46294594Y-56017800D02*
X46342213Y-56065419D01*
X75284819Y-97333333D02*
X75999104Y-97333333D01*
X75999104Y-97333333D02*
X76141961Y-97380952D01*
X76141961Y-97380952D02*
X76237200Y-97476190D01*
X76237200Y-97476190D02*
X76284819Y-97619047D01*
X76284819Y-97619047D02*
X76284819Y-97714285D01*
X75284819Y-96952380D02*
X75284819Y-96285714D01*
X75284819Y-96285714D02*
X76284819Y-96714285D01*
X152845476Y-22819819D02*
X153512142Y-23819819D01*
X153512142Y-22819819D02*
X152845476Y-23819819D01*
X154416904Y-23819819D02*
X153845476Y-23819819D01*
X154131190Y-23819819D02*
X154131190Y-22819819D01*
X154131190Y-22819819D02*
X154035952Y-22962676D01*
X154035952Y-22962676D02*
X153940714Y-23057914D01*
X153940714Y-23057914D02*
X153845476Y-23105533D01*
X46865476Y-22819819D02*
X47532142Y-23819819D01*
X47532142Y-22819819D02*
X46865476Y-23819819D01*
X47865476Y-22915057D02*
X47913095Y-22867438D01*
X47913095Y-22867438D02*
X48008333Y-22819819D01*
X48008333Y-22819819D02*
X48246428Y-22819819D01*
X48246428Y-22819819D02*
X48341666Y-22867438D01*
X48341666Y-22867438D02*
X48389285Y-22915057D01*
X48389285Y-22915057D02*
X48436904Y-23010295D01*
X48436904Y-23010295D02*
X48436904Y-23105533D01*
X48436904Y-23105533D02*
X48389285Y-23248390D01*
X48389285Y-23248390D02*
X47817857Y-23819819D01*
X47817857Y-23819819D02*
X48436904Y-23819819D01*
X36449580Y-139252386D02*
X36497200Y-139300005D01*
X36497200Y-139300005D02*
X36544819Y-139442862D01*
X36544819Y-139442862D02*
X36544819Y-139538100D01*
X36544819Y-139538100D02*
X36497200Y-139680957D01*
X36497200Y-139680957D02*
X36401961Y-139776195D01*
X36401961Y-139776195D02*
X36306723Y-139823814D01*
X36306723Y-139823814D02*
X36116247Y-139871433D01*
X36116247Y-139871433D02*
X35973390Y-139871433D01*
X35973390Y-139871433D02*
X35782914Y-139823814D01*
X35782914Y-139823814D02*
X35687676Y-139776195D01*
X35687676Y-139776195D02*
X35592438Y-139680957D01*
X35592438Y-139680957D02*
X35544819Y-139538100D01*
X35544819Y-139538100D02*
X35544819Y-139442862D01*
X35544819Y-139442862D02*
X35592438Y-139300005D01*
X35592438Y-139300005D02*
X35640057Y-139252386D01*
X36544819Y-138300005D02*
X36544819Y-138871433D01*
X36544819Y-138585719D02*
X35544819Y-138585719D01*
X35544819Y-138585719D02*
X35687676Y-138680957D01*
X35687676Y-138680957D02*
X35782914Y-138776195D01*
X35782914Y-138776195D02*
X35830533Y-138871433D01*
X90179580Y-107229166D02*
X90227200Y-107276785D01*
X90227200Y-107276785D02*
X90274819Y-107419642D01*
X90274819Y-107419642D02*
X90274819Y-107514880D01*
X90274819Y-107514880D02*
X90227200Y-107657737D01*
X90227200Y-107657737D02*
X90131961Y-107752975D01*
X90131961Y-107752975D02*
X90036723Y-107800594D01*
X90036723Y-107800594D02*
X89846247Y-107848213D01*
X89846247Y-107848213D02*
X89703390Y-107848213D01*
X89703390Y-107848213D02*
X89512914Y-107800594D01*
X89512914Y-107800594D02*
X89417676Y-107752975D01*
X89417676Y-107752975D02*
X89322438Y-107657737D01*
X89322438Y-107657737D02*
X89274819Y-107514880D01*
X89274819Y-107514880D02*
X89274819Y-107419642D01*
X89274819Y-107419642D02*
X89322438Y-107276785D01*
X89322438Y-107276785D02*
X89370057Y-107229166D01*
X90274819Y-106752975D02*
X90274819Y-106562499D01*
X90274819Y-106562499D02*
X90227200Y-106467261D01*
X90227200Y-106467261D02*
X90179580Y-106419642D01*
X90179580Y-106419642D02*
X90036723Y-106324404D01*
X90036723Y-106324404D02*
X89846247Y-106276785D01*
X89846247Y-106276785D02*
X89465295Y-106276785D01*
X89465295Y-106276785D02*
X89370057Y-106324404D01*
X89370057Y-106324404D02*
X89322438Y-106372023D01*
X89322438Y-106372023D02*
X89274819Y-106467261D01*
X89274819Y-106467261D02*
X89274819Y-106657737D01*
X89274819Y-106657737D02*
X89322438Y-106752975D01*
X89322438Y-106752975D02*
X89370057Y-106800594D01*
X89370057Y-106800594D02*
X89465295Y-106848213D01*
X89465295Y-106848213D02*
X89703390Y-106848213D01*
X89703390Y-106848213D02*
X89798628Y-106800594D01*
X89798628Y-106800594D02*
X89846247Y-106752975D01*
X89846247Y-106752975D02*
X89893866Y-106657737D01*
X89893866Y-106657737D02*
X89893866Y-106467261D01*
X89893866Y-106467261D02*
X89846247Y-106372023D01*
X89846247Y-106372023D02*
X89798628Y-106324404D01*
X89798628Y-106324404D02*
X89703390Y-106276785D01*
X51604819Y-136166666D02*
X51128628Y-136499999D01*
X51604819Y-136738094D02*
X50604819Y-136738094D01*
X50604819Y-136738094D02*
X50604819Y-136357142D01*
X50604819Y-136357142D02*
X50652438Y-136261904D01*
X50652438Y-136261904D02*
X50700057Y-136214285D01*
X50700057Y-136214285D02*
X50795295Y-136166666D01*
X50795295Y-136166666D02*
X50938152Y-136166666D01*
X50938152Y-136166666D02*
X51033390Y-136214285D01*
X51033390Y-136214285D02*
X51081009Y-136261904D01*
X51081009Y-136261904D02*
X51128628Y-136357142D01*
X51128628Y-136357142D02*
X51128628Y-136738094D01*
X50700057Y-135785713D02*
X50652438Y-135738094D01*
X50652438Y-135738094D02*
X50604819Y-135642856D01*
X50604819Y-135642856D02*
X50604819Y-135404761D01*
X50604819Y-135404761D02*
X50652438Y-135309523D01*
X50652438Y-135309523D02*
X50700057Y-135261904D01*
X50700057Y-135261904D02*
X50795295Y-135214285D01*
X50795295Y-135214285D02*
X50890533Y-135214285D01*
X50890533Y-135214285D02*
X51033390Y-135261904D01*
X51033390Y-135261904D02*
X51604819Y-135833332D01*
X51604819Y-135833332D02*
X51604819Y-135214285D01*
D11*
X156765000Y-117227064D02*
X156765000Y-116772936D01*
X158235000Y-117227064D02*
X158235000Y-116772936D01*
X158235000Y-112272936D02*
X158235000Y-112727064D01*
X156765000Y-112272936D02*
X156765000Y-112727064D01*
D12*
X170100000Y-110350000D02*
X168950000Y-110350000D01*
X170100000Y-119290000D02*
X170100000Y-110350000D01*
X168950000Y-119290000D02*
X170100000Y-119290000D01*
D13*
X38655700Y-76790000D02*
X38655700Y-78060000D01*
X38655700Y-77425000D02*
X39417700Y-76790000D01*
X38655700Y-77425000D02*
X39417700Y-76917000D01*
X38655700Y-77425000D02*
X39417700Y-77044000D01*
X38655700Y-77425000D02*
X39417700Y-77171000D01*
X38655700Y-77425000D02*
X39417700Y-77298000D01*
X38655700Y-77425000D02*
X39417700Y-77552000D01*
X38655700Y-77425000D02*
X39417700Y-77679000D01*
X38655700Y-77425000D02*
X39417700Y-77806000D01*
X38655700Y-77425000D02*
X39417700Y-77933000D01*
X38655700Y-77425000D02*
X39417700Y-78060000D01*
X39417700Y-76790000D02*
X39417700Y-78060000D01*
X39671700Y-77425000D02*
X38401700Y-77425000D01*
X44276500Y-75998000D02*
X44276500Y-78852000D01*
X44276500Y-78852000D02*
X48630500Y-78852000D01*
X48630500Y-75998000D02*
X44276500Y-75998000D01*
X48630500Y-78852000D02*
X48630500Y-75998000D01*
D11*
X124514564Y-141265000D02*
X124060436Y-141265000D01*
X124514564Y-142735000D02*
X124060436Y-142735000D01*
D14*
X135787500Y-149520000D02*
X135787500Y-149980000D01*
D12*
X138075000Y-148000000D02*
G75*
G02*
X137875000Y-148000000I-100000J0D01*
G01*
X137875000Y-148000000D02*
G75*
G02*
X138075000Y-148000000I100000J0D01*
G01*
D11*
X164700000Y-133000000D02*
G75*
G02*
X162300000Y-133000000I-1200000J0D01*
G01*
X162300000Y-133000000D02*
G75*
G02*
X164700000Y-133000000I1200000J0D01*
G01*
X80200000Y-53500000D02*
G75*
G02*
X77800000Y-53500000I-1200000J0D01*
G01*
X77800000Y-53500000D02*
G75*
G02*
X80200000Y-53500000I1200000J0D01*
G01*
X137740000Y-156238748D02*
X137740000Y-156761252D01*
X139210000Y-156238748D02*
X139210000Y-156761252D01*
X88114540Y-138335108D02*
X87660412Y-138335108D01*
X88114540Y-139805108D02*
X87660412Y-139805108D01*
X100564976Y-151358856D02*
X100564976Y-151881360D01*
X102034976Y-151358856D02*
X102034976Y-151881360D01*
X79611228Y-150335108D02*
X79088724Y-150335108D01*
X79611228Y-151805108D02*
X79088724Y-151805108D01*
X80541398Y-161360108D02*
X81058554Y-161360108D01*
X80541398Y-162780108D02*
X81058554Y-162780108D01*
X164700000Y-139500000D02*
G75*
G02*
X162300000Y-139500000I-1200000J0D01*
G01*
X162300000Y-139500000D02*
G75*
G02*
X164700000Y-139500000I1200000J0D01*
G01*
D13*
X44379500Y-82498000D02*
X44379500Y-85352000D01*
X44379500Y-85352000D02*
X48733500Y-85352000D01*
X48733500Y-82498000D02*
X44379500Y-82498000D01*
X48733500Y-85352000D02*
X48733500Y-82498000D01*
X53338300Y-83925000D02*
X54608300Y-83925000D01*
X53592300Y-84560000D02*
X53592300Y-83290000D01*
X54354300Y-83925000D02*
X53592300Y-83290000D01*
X54354300Y-83925000D02*
X53592300Y-83417000D01*
X54354300Y-83925000D02*
X53592300Y-83544000D01*
X54354300Y-83925000D02*
X53592300Y-83671000D01*
X54354300Y-83925000D02*
X53592300Y-83798000D01*
X54354300Y-83925000D02*
X53592300Y-84052000D01*
X54354300Y-83925000D02*
X53592300Y-84179000D01*
X54354300Y-83925000D02*
X53592300Y-84306000D01*
X54354300Y-83925000D02*
X53592300Y-84433000D01*
X54354300Y-83925000D02*
X53592300Y-84560000D01*
X54354300Y-84560000D02*
X54354300Y-83290000D01*
D11*
X41765000Y-142227064D02*
X41765000Y-141772936D01*
X43235000Y-142227064D02*
X43235000Y-141772936D01*
D14*
X69050000Y-20400000D02*
X69050000Y-20650000D01*
X69050000Y-25600000D02*
X69050000Y-24300000D01*
X71530000Y-25600000D02*
X69050000Y-25600000D01*
X79535000Y-27595000D02*
X79835000Y-27095000D01*
X79835000Y-27095000D02*
X80135000Y-27595000D01*
X80135000Y-27595000D02*
X79535000Y-27595000D01*
X82950000Y-20400000D02*
X69050000Y-20400000D01*
X82950000Y-20400000D02*
X82950000Y-20650000D01*
X82950000Y-24300000D02*
X82950000Y-25600000D01*
X82950000Y-25600000D02*
X80470000Y-25600000D01*
D13*
X106391000Y-56073000D02*
X106391000Y-58927000D01*
X106391000Y-58927000D02*
X110745000Y-58927000D01*
X110745000Y-56073000D02*
X106391000Y-56073000D01*
X110745000Y-58927000D02*
X110745000Y-56073000D01*
X115349800Y-57500000D02*
X116619800Y-57500000D01*
X115603800Y-58135000D02*
X115603800Y-56865000D01*
X116365800Y-57500000D02*
X115603800Y-56865000D01*
X116365800Y-57500000D02*
X115603800Y-56992000D01*
X116365800Y-57500000D02*
X115603800Y-57119000D01*
X116365800Y-57500000D02*
X115603800Y-57246000D01*
X116365800Y-57500000D02*
X115603800Y-57373000D01*
X116365800Y-57500000D02*
X115603800Y-57627000D01*
X116365800Y-57500000D02*
X115603800Y-57754000D01*
X116365800Y-57500000D02*
X115603800Y-57881000D01*
X116365800Y-57500000D02*
X115603800Y-58008000D01*
X116365800Y-57500000D02*
X115603800Y-58135000D01*
X116365800Y-58135000D02*
X116365800Y-56865000D01*
X67912000Y-137365000D02*
X67912000Y-138635000D01*
X67912000Y-138000000D02*
X68674000Y-137365000D01*
X67912000Y-138000000D02*
X68674000Y-137492000D01*
X67912000Y-138000000D02*
X68674000Y-137619000D01*
X67912000Y-138000000D02*
X68674000Y-137746000D01*
X67912000Y-138000000D02*
X68674000Y-137873000D01*
X67912000Y-138000000D02*
X68674000Y-138127000D01*
X67912000Y-138000000D02*
X68674000Y-138254000D01*
X67912000Y-138000000D02*
X68674000Y-138381000D01*
X67912000Y-138000000D02*
X68674000Y-138508000D01*
X67912000Y-138000000D02*
X68674000Y-138635000D01*
X68674000Y-137365000D02*
X68674000Y-138635000D01*
X68928000Y-138000000D02*
X67658000Y-138000000D01*
X69309000Y-134761500D02*
X69309000Y-136067060D01*
X69309000Y-139932940D02*
X69309000Y-141238500D01*
X69309000Y-141238500D02*
X77691000Y-141238500D01*
X77691000Y-134761500D02*
X69309000Y-134761500D01*
X77691000Y-136067060D02*
X77691000Y-134761500D01*
X77691000Y-141238500D02*
X77691000Y-139932940D01*
X66336665Y-118862600D02*
X67365135Y-118862600D01*
X67365135Y-117262400D02*
X66336665Y-117262400D01*
X68921000Y-118062500D02*
X70191000Y-118062500D01*
X69175000Y-118697500D02*
X69175000Y-117427500D01*
X69937000Y-118062500D02*
X69175000Y-117427500D01*
X69937000Y-118062500D02*
X69175000Y-117554500D01*
X69937000Y-118062500D02*
X69175000Y-117681500D01*
X69937000Y-118062500D02*
X69175000Y-117808500D01*
X69937000Y-118062500D02*
X69175000Y-117935500D01*
X69937000Y-118062500D02*
X69175000Y-118189500D01*
X69937000Y-118062500D02*
X69175000Y-118316500D01*
X69937000Y-118062500D02*
X69175000Y-118443500D01*
X69937000Y-118062500D02*
X69175000Y-118570500D01*
X69937000Y-118062500D02*
X69175000Y-118697500D01*
X69937000Y-118697500D02*
X69937000Y-117427500D01*
X39777500Y-118276100D02*
X39777500Y-119340360D01*
X39777500Y-120564640D02*
X39777500Y-121628900D01*
X39777500Y-121628900D02*
X41834900Y-121628900D01*
X41834900Y-118276100D02*
X39777500Y-118276100D01*
X41834900Y-120292860D02*
X41834900Y-119612140D01*
D11*
X135265000Y-132741422D02*
X135265000Y-133258578D01*
X136685000Y-132741422D02*
X136685000Y-133258578D01*
D13*
X164524900Y-48036600D02*
X164524900Y-99903400D01*
X164524900Y-99903400D02*
X169935100Y-99903400D01*
X169935100Y-48036600D02*
X164524900Y-48036600D01*
X169935100Y-99903400D02*
X169935100Y-48036600D01*
D15*
X166341000Y-46258600D02*
G75*
G02*
X165579000Y-46258600I-381000J0D01*
G01*
X165579000Y-46258600D02*
G75*
G02*
X166341000Y-46258600I381000J0D01*
G01*
D13*
X128674900Y-136969765D02*
X128674900Y-137998235D01*
X128840000Y-139808100D02*
X130110000Y-139808100D01*
X128840000Y-140570100D02*
X130110000Y-140570100D01*
X129475000Y-139554100D02*
X129475000Y-140824100D01*
X129475000Y-140570100D02*
X128840000Y-139808100D01*
X129475000Y-140570100D02*
X128967000Y-139808100D01*
X129475000Y-140570100D02*
X129094000Y-139808100D01*
X129475000Y-140570100D02*
X129221000Y-139808100D01*
X129475000Y-140570100D02*
X129348000Y-139808100D01*
X129475000Y-140570100D02*
X129602000Y-139808100D01*
X129475000Y-140570100D02*
X129729000Y-139808100D01*
X129475000Y-140570100D02*
X129856000Y-139808100D01*
X129475000Y-140570100D02*
X129983000Y-139808100D01*
X129475000Y-140570100D02*
X130110000Y-139808100D01*
X130275100Y-137998235D02*
X130275100Y-136969765D01*
D11*
X85738748Y-105827500D02*
X86261252Y-105827500D01*
X85738748Y-107297500D02*
X86261252Y-107297500D01*
X78379000Y-58360000D02*
X78379000Y-60036000D01*
X78379000Y-59690000D02*
X74970000Y-59690000D01*
X78379000Y-61885000D02*
X78379000Y-62576000D01*
X78379000Y-62230000D02*
X74985000Y-62230000D01*
X78379000Y-64425000D02*
X78379000Y-65116000D01*
X78379000Y-64770000D02*
X74985000Y-64770000D01*
X78379000Y-66965000D02*
X78379000Y-67656000D01*
X78379000Y-67310000D02*
X74985000Y-67310000D01*
X78379000Y-69505000D02*
X78379000Y-70196000D01*
X78379000Y-69850000D02*
X74985000Y-69850000D01*
X78379000Y-72045000D02*
X78379000Y-72736000D01*
X78379000Y-72390000D02*
X74985000Y-72390000D01*
X78379000Y-74585000D02*
X78379000Y-75276000D01*
X78379000Y-74930000D02*
X74985000Y-74930000D01*
X78379000Y-77125000D02*
X78379000Y-78800000D01*
X78379000Y-77470000D02*
X74985000Y-77470000D01*
X81780000Y-58360000D02*
X81780000Y-78800000D01*
X83620000Y-58360000D02*
X78379000Y-58360000D01*
X83620000Y-58360000D02*
X83620000Y-78800000D01*
X83620000Y-66731000D02*
X81780000Y-66731000D01*
X83620000Y-70430000D02*
X81780000Y-70430000D01*
X83620000Y-78800000D02*
X78379000Y-78800000D01*
D13*
X100900700Y-50865000D02*
X100900700Y-52135000D01*
X100900700Y-51500000D02*
X101662700Y-50865000D01*
X100900700Y-51500000D02*
X101662700Y-50992000D01*
X100900700Y-51500000D02*
X101662700Y-51119000D01*
X100900700Y-51500000D02*
X101662700Y-51246000D01*
X100900700Y-51500000D02*
X101662700Y-51373000D01*
X100900700Y-51500000D02*
X101662700Y-51627000D01*
X100900700Y-51500000D02*
X101662700Y-51754000D01*
X100900700Y-51500000D02*
X101662700Y-51881000D01*
X100900700Y-51500000D02*
X101662700Y-52008000D01*
X100900700Y-51500000D02*
X101662700Y-52135000D01*
X101662700Y-50865000D02*
X101662700Y-52135000D01*
X101916700Y-51500000D02*
X100646700Y-51500000D01*
X106521500Y-50073000D02*
X106521500Y-52927000D01*
X106521500Y-52927000D02*
X110875500Y-52927000D01*
X110875500Y-50073000D02*
X106521500Y-50073000D01*
X110875500Y-52927000D02*
X110875500Y-50073000D01*
D11*
X132740000Y-143227064D02*
X132740000Y-142772936D01*
X134210000Y-143227064D02*
X134210000Y-142772936D01*
X27000000Y-139600000D02*
G75*
G02*
X24600000Y-139600000I-1200000J0D01*
G01*
X24600000Y-139600000D02*
G75*
G02*
X27000000Y-139600000I1200000J0D01*
G01*
X79088724Y-146335108D02*
X79611228Y-146335108D01*
X79088724Y-147805108D02*
X79611228Y-147805108D01*
X92064976Y-151709672D02*
X92064976Y-151255544D01*
X93534976Y-151709672D02*
X93534976Y-151255544D01*
X69630000Y-100670000D02*
X69630000Y-103330000D01*
X72230000Y-100670000D02*
X69630000Y-100670000D01*
X72230000Y-100670000D02*
X72230000Y-103330000D01*
X72230000Y-103330000D02*
X69630000Y-103330000D01*
X73500000Y-100670000D02*
X74830000Y-100670000D01*
X74830000Y-100670000D02*
X74830000Y-102000000D01*
X87660412Y-143335108D02*
X88114540Y-143335108D01*
X87660412Y-144805108D02*
X88114540Y-144805108D01*
D16*
G36*
X83747276Y-154511049D02*
G01*
X83493276Y-154511049D01*
X83493276Y-154130049D01*
X83747276Y-154130049D01*
X83747276Y-154511049D01*
G37*
G36*
X89106676Y-150009915D02*
G01*
X88852676Y-150009915D01*
X88852676Y-149628915D01*
X89106676Y-149628915D01*
X89106676Y-150009915D01*
G37*
G36*
X89106676Y-155011175D02*
G01*
X88852676Y-155011175D01*
X88852676Y-154630175D01*
X89106676Y-154630175D01*
X89106676Y-155011175D01*
G37*
D14*
X89250000Y-20400000D02*
X89250000Y-20650000D01*
X89250000Y-25600000D02*
X89250000Y-24300000D01*
X91730000Y-25600000D02*
X89250000Y-25600000D01*
X99735000Y-27595000D02*
X100035000Y-27095000D01*
X100035000Y-27095000D02*
X100335000Y-27595000D01*
X100335000Y-27595000D02*
X99735000Y-27595000D01*
X103150000Y-20400000D02*
X89250000Y-20400000D01*
X103150000Y-20400000D02*
X103150000Y-20650000D01*
X103150000Y-24300000D02*
X103150000Y-25600000D01*
X103150000Y-25600000D02*
X100670000Y-25600000D01*
D11*
X90700000Y-96562500D02*
G75*
G02*
X88300000Y-96562500I-1200000J0D01*
G01*
X88300000Y-96562500D02*
G75*
G02*
X90700000Y-96562500I1200000J0D01*
G01*
D13*
X96499876Y-154501765D02*
X96499876Y-155530235D01*
X97299976Y-151929900D02*
X96664976Y-152691900D01*
X97299976Y-151929900D02*
X96791976Y-152691900D01*
X97299976Y-151929900D02*
X96918976Y-152691900D01*
X97299976Y-151929900D02*
X97045976Y-152691900D01*
X97299976Y-151929900D02*
X97172976Y-152691900D01*
X97299976Y-151929900D02*
X97426976Y-152691900D01*
X97299976Y-151929900D02*
X97553976Y-152691900D01*
X97299976Y-151929900D02*
X97680976Y-152691900D01*
X97299976Y-151929900D02*
X97807976Y-152691900D01*
X97299976Y-151929900D02*
X97934976Y-152691900D01*
X97299976Y-152945900D02*
X97299976Y-151675900D01*
X97934976Y-151929900D02*
X96664976Y-151929900D01*
X97934976Y-152691900D02*
X96664976Y-152691900D01*
X98100076Y-155530235D02*
X98100076Y-154501765D01*
D14*
X109750000Y-20400000D02*
X109750000Y-20650000D01*
X109750000Y-25600000D02*
X109750000Y-24300000D01*
X112230000Y-25600000D02*
X109750000Y-25600000D01*
X120235000Y-27595000D02*
X120535000Y-27095000D01*
X120535000Y-27095000D02*
X120835000Y-27595000D01*
X120835000Y-27595000D02*
X120235000Y-27595000D01*
X123650000Y-20400000D02*
X109750000Y-20400000D01*
X123650000Y-20400000D02*
X123650000Y-20650000D01*
X123650000Y-24300000D02*
X123650000Y-25600000D01*
X123650000Y-25600000D02*
X121170000Y-25600000D01*
D11*
X74511228Y-146160108D02*
X73088724Y-146160108D01*
X74511228Y-147980108D02*
X73088724Y-147980108D01*
X100564976Y-157758856D02*
X100564976Y-158281360D01*
X102034976Y-157758856D02*
X102034976Y-158281360D01*
X139105000Y-138670000D02*
X139105000Y-141330000D01*
X141705000Y-138670000D02*
X139105000Y-138670000D01*
X141705000Y-138670000D02*
X141705000Y-141330000D01*
X141705000Y-141330000D02*
X139105000Y-141330000D01*
X142975000Y-138670000D02*
X144305000Y-138670000D01*
X144305000Y-138670000D02*
X144305000Y-140000000D01*
D13*
X108255000Y-65747400D02*
X108255000Y-67017400D01*
X108890000Y-66382400D02*
X107620000Y-66382400D01*
X111785600Y-70675000D02*
G75*
G02*
X104724400Y-70675000I-3530600J0D01*
G01*
X104724400Y-70675000D02*
G75*
G02*
X111785600Y-70675000I3530600J0D01*
G01*
D11*
X96564976Y-147797172D02*
X96564976Y-147343044D01*
X98034976Y-147797172D02*
X98034976Y-147343044D01*
X48140000Y-170810000D02*
X48140000Y-156500000D01*
X57290000Y-152390000D02*
X53550000Y-152390000D01*
X63860000Y-170810000D02*
X48140000Y-170810000D01*
X63860000Y-170810000D02*
X63860000Y-156500000D01*
X48140000Y-156500000D02*
G75*
G02*
X51048352Y-152569587I4110000J0D01*
G01*
X61866806Y-152977042D02*
G75*
G02*
X63860000Y-156500000I-2116805J-3522957D01*
G01*
D13*
X31323600Y-123971300D02*
X31323600Y-126028700D01*
X32387860Y-123971300D02*
X31323600Y-123971300D01*
X32659640Y-126028700D02*
X33340360Y-126028700D01*
X34676400Y-123971300D02*
X33612140Y-123971300D01*
X34676400Y-126028700D02*
X34676400Y-123971300D01*
D11*
X74511228Y-150160108D02*
X73088724Y-150160108D01*
X74511228Y-151980108D02*
X73088724Y-151980108D01*
D13*
X105124500Y-82573000D02*
X105124500Y-85427000D01*
X105124500Y-85427000D02*
X109478500Y-85427000D01*
X109478500Y-82573000D02*
X105124500Y-82573000D01*
X109478500Y-85427000D02*
X109478500Y-82573000D01*
X114083300Y-84000000D02*
X115353300Y-84000000D01*
X114337300Y-84635000D02*
X114337300Y-83365000D01*
X115099300Y-84000000D02*
X114337300Y-83365000D01*
X115099300Y-84000000D02*
X114337300Y-83492000D01*
X115099300Y-84000000D02*
X114337300Y-83619000D01*
X115099300Y-84000000D02*
X114337300Y-83746000D01*
X115099300Y-84000000D02*
X114337300Y-83873000D01*
X115099300Y-84000000D02*
X114337300Y-84127000D01*
X115099300Y-84000000D02*
X114337300Y-84254000D01*
X115099300Y-84000000D02*
X114337300Y-84381000D01*
X115099300Y-84000000D02*
X114337300Y-84508000D01*
X115099300Y-84000000D02*
X114337300Y-84635000D01*
X115099300Y-84635000D02*
X115099300Y-83365000D01*
D11*
X83700000Y-94000000D02*
G75*
G02*
X81300000Y-94000000I-1200000J0D01*
G01*
X81300000Y-94000000D02*
G75*
G02*
X83700000Y-94000000I1200000J0D01*
G01*
X74765000Y-112835436D02*
X74765000Y-113289564D01*
X76235000Y-112835436D02*
X76235000Y-113289564D01*
X134240000Y-163761252D02*
X134240000Y-163238748D01*
X135710000Y-163761252D02*
X135710000Y-163238748D01*
X144813748Y-158165000D02*
X145336252Y-158165000D01*
X144813748Y-159635000D02*
X145336252Y-159635000D01*
X137915000Y-163100378D02*
X137915000Y-163899622D01*
X139035000Y-163100378D02*
X139035000Y-163899622D01*
X27200000Y-147000000D02*
G75*
G02*
X24800000Y-147000000I-1200000J0D01*
G01*
X24800000Y-147000000D02*
G75*
G02*
X27200000Y-147000000I1200000J0D01*
G01*
X83527040Y-138335108D02*
X83072912Y-138335108D01*
X83527040Y-139805108D02*
X83072912Y-139805108D01*
X65765000Y-112835436D02*
X65765000Y-113289564D01*
X67235000Y-112835436D02*
X67235000Y-113289564D01*
D13*
X35369200Y-163278401D02*
X35369200Y-171127001D01*
X35369200Y-171127001D02*
X45630800Y-171127001D01*
X45630800Y-163278401D02*
X35369200Y-163278401D01*
X45630800Y-171127001D02*
X45630800Y-163278401D01*
D15*
X47789800Y-167500000D02*
G75*
G02*
X47027800Y-167500000I-381000J0D01*
G01*
X47027800Y-167500000D02*
G75*
G02*
X47789800Y-167500000I381000J0D01*
G01*
D11*
X58520000Y-69163748D02*
X58520000Y-69686252D01*
X59990000Y-69163748D02*
X59990000Y-69686252D01*
X144813748Y-163165000D02*
X145336252Y-163165000D01*
X144813748Y-164635000D02*
X145336252Y-164635000D01*
X164700000Y-146000000D02*
G75*
G02*
X162300000Y-146000000I-1200000J0D01*
G01*
X162300000Y-146000000D02*
G75*
G02*
X164700000Y-146000000I1200000J0D01*
G01*
D13*
X72563000Y-117427500D02*
X72563000Y-118697500D01*
X72563000Y-118062500D02*
X73325000Y-117427500D01*
X72563000Y-118062500D02*
X73325000Y-117554500D01*
X72563000Y-118062500D02*
X73325000Y-117681500D01*
X72563000Y-118062500D02*
X73325000Y-117808500D01*
X72563000Y-118062500D02*
X73325000Y-117935500D01*
X72563000Y-118062500D02*
X73325000Y-118189500D01*
X72563000Y-118062500D02*
X73325000Y-118316500D01*
X72563000Y-118062500D02*
X73325000Y-118443500D01*
X72563000Y-118062500D02*
X73325000Y-118570500D01*
X72563000Y-118062500D02*
X73325000Y-118697500D01*
X73325000Y-117427500D02*
X73325000Y-118697500D01*
X73579000Y-118062500D02*
X72309000Y-118062500D01*
X75134865Y-118862600D02*
X76163335Y-118862600D01*
X76163335Y-117262400D02*
X75134865Y-117262400D01*
D11*
X92064976Y-156797172D02*
X92064976Y-156343044D01*
X93534976Y-156797172D02*
X93534976Y-156343044D01*
D13*
X49919999Y-19173000D02*
X49919999Y-23922801D01*
X49919999Y-23922801D02*
X60079999Y-23922801D01*
X60079999Y-19173000D02*
X49919999Y-19173000D01*
X60079999Y-23922801D02*
X60079999Y-19173000D01*
D15*
X49665999Y-21000000D02*
G75*
G02*
X48903999Y-21000000I-381000J0D01*
G01*
X48903999Y-21000000D02*
G75*
G02*
X49665999Y-21000000I381000J0D01*
G01*
D11*
X70290000Y-112803922D02*
X70290000Y-113321078D01*
X71710000Y-112803922D02*
X71710000Y-113321078D01*
D13*
X99503700Y-89865000D02*
X99503700Y-91135000D01*
X99503700Y-90500000D02*
X100265700Y-89865000D01*
X99503700Y-90500000D02*
X100265700Y-89992000D01*
X99503700Y-90500000D02*
X100265700Y-90119000D01*
X99503700Y-90500000D02*
X100265700Y-90246000D01*
X99503700Y-90500000D02*
X100265700Y-90373000D01*
X99503700Y-90500000D02*
X100265700Y-90627000D01*
X99503700Y-90500000D02*
X100265700Y-90754000D01*
X99503700Y-90500000D02*
X100265700Y-90881000D01*
X99503700Y-90500000D02*
X100265700Y-91008000D01*
X99503700Y-90500000D02*
X100265700Y-91135000D01*
X100265700Y-89865000D02*
X100265700Y-91135000D01*
X100519700Y-90500000D02*
X99249700Y-90500000D01*
X105124500Y-89073000D02*
X105124500Y-91927000D01*
X105124500Y-91927000D02*
X109478500Y-91927000D01*
X109478500Y-89073000D02*
X105124500Y-89073000D01*
X109478500Y-91927000D02*
X109478500Y-89073000D01*
D11*
X128740000Y-132685436D02*
X128740000Y-133139564D01*
X130210000Y-132685436D02*
X130210000Y-133139564D01*
D14*
X55500000Y-134400000D02*
X58500000Y-134400000D01*
X55500000Y-137600000D02*
X58500000Y-137600000D01*
D12*
X54925000Y-134995000D02*
G75*
G02*
X54725000Y-134995000I-100000J0D01*
G01*
X54725000Y-134995000D02*
G75*
G02*
X54925000Y-134995000I100000J0D01*
G01*
D13*
X131920001Y-19173000D02*
X131920001Y-23922801D01*
X131920001Y-23922801D02*
X142080001Y-23922801D01*
X142080001Y-19173000D02*
X131920001Y-19173000D01*
X142080001Y-23922801D02*
X142080001Y-19173000D01*
D15*
X131666001Y-21000000D02*
G75*
G02*
X130904001Y-21000000I-381000J0D01*
G01*
X130904001Y-21000000D02*
G75*
G02*
X131666001Y-21000000I381000J0D01*
G01*
D11*
X88929976Y-160740108D02*
X88929976Y-163400108D01*
X91529976Y-160740108D02*
X88929976Y-160740108D01*
X91529976Y-160740108D02*
X91529976Y-163400108D01*
X91529976Y-163400108D02*
X88929976Y-163400108D01*
X92799976Y-160740108D02*
X94129976Y-160740108D01*
X94129976Y-160740108D02*
X94129976Y-162070108D01*
D14*
X19000000Y-114900000D02*
X22600000Y-114900000D01*
X19000000Y-124700000D02*
X19000000Y-114900000D01*
X22600000Y-124700000D02*
X19000000Y-124700000D01*
X22600000Y-124700000D02*
X22600000Y-114900000D01*
D12*
X21100000Y-125350000D02*
G75*
G02*
X20900000Y-125350000I-100000J0D01*
G01*
X20900000Y-125350000D02*
G75*
G02*
X21100000Y-125350000I100000J0D01*
G01*
D13*
X31323600Y-113971300D02*
X31323600Y-116028700D01*
X31323600Y-116028700D02*
X32387860Y-116028700D01*
X33340360Y-113971300D02*
X32659640Y-113971300D01*
X33612140Y-116028700D02*
X34676400Y-116028700D01*
X34676400Y-116028700D02*
X34676400Y-113971300D01*
D11*
X63700000Y-142500000D02*
G75*
G02*
X61300000Y-142500000I-1200000J0D01*
G01*
X61300000Y-142500000D02*
G75*
G02*
X63700000Y-142500000I1200000J0D01*
G01*
X142240000Y-149288748D02*
X142240000Y-149811252D01*
X143710000Y-149288748D02*
X143710000Y-149811252D01*
D12*
X82750000Y-111812500D02*
X89250000Y-111812500D01*
X82750000Y-115312500D02*
X82750000Y-111812500D01*
X89100000Y-109537500D02*
X89100000Y-111387500D01*
X89250000Y-111812500D02*
X89250000Y-115312500D01*
X89250000Y-115312500D02*
X82750000Y-115312500D01*
D11*
X112999976Y-157070108D02*
G75*
G02*
X110599976Y-157070108I-1200000J0D01*
G01*
X110599976Y-157070108D02*
G75*
G02*
X112999976Y-157070108I1200000J0D01*
G01*
D13*
X38655700Y-61790000D02*
X38655700Y-63060000D01*
X38655700Y-62425000D02*
X39417700Y-61790000D01*
X38655700Y-62425000D02*
X39417700Y-61917000D01*
X38655700Y-62425000D02*
X39417700Y-62044000D01*
X38655700Y-62425000D02*
X39417700Y-62171000D01*
X38655700Y-62425000D02*
X39417700Y-62298000D01*
X38655700Y-62425000D02*
X39417700Y-62552000D01*
X38655700Y-62425000D02*
X39417700Y-62679000D01*
X38655700Y-62425000D02*
X39417700Y-62806000D01*
X38655700Y-62425000D02*
X39417700Y-62933000D01*
X38655700Y-62425000D02*
X39417700Y-63060000D01*
X39417700Y-61790000D02*
X39417700Y-63060000D01*
X39671700Y-62425000D02*
X38401700Y-62425000D01*
X44276500Y-60998000D02*
X44276500Y-63852000D01*
X44276500Y-63852000D02*
X48630500Y-63852000D01*
X48630500Y-60998000D02*
X44276500Y-60998000D01*
X48630500Y-63852000D02*
X48630500Y-60998000D01*
D11*
X81199598Y-156510108D02*
X80400354Y-156510108D01*
X81199598Y-157630108D02*
X80400354Y-157630108D01*
D13*
X44379500Y-54998000D02*
X44379500Y-57852000D01*
X44379500Y-57852000D02*
X48733500Y-57852000D01*
X48733500Y-54998000D02*
X44379500Y-54998000D01*
X48733500Y-57852000D02*
X48733500Y-54998000D01*
X53338300Y-56425000D02*
X54608300Y-56425000D01*
X53592300Y-57060000D02*
X53592300Y-55790000D01*
X54354300Y-56425000D02*
X53592300Y-55790000D01*
X54354300Y-56425000D02*
X53592300Y-55917000D01*
X54354300Y-56425000D02*
X53592300Y-56044000D01*
X54354300Y-56425000D02*
X53592300Y-56171000D01*
X54354300Y-56425000D02*
X53592300Y-56298000D01*
X54354300Y-56425000D02*
X53592300Y-56552000D01*
X54354300Y-56425000D02*
X53592300Y-56679000D01*
X54354300Y-56425000D02*
X53592300Y-56806000D01*
X54354300Y-56425000D02*
X53592300Y-56933000D01*
X54354300Y-56425000D02*
X53592300Y-57060000D01*
X54354300Y-57060000D02*
X54354300Y-55790000D01*
D11*
X69630000Y-95670000D02*
X69630000Y-98330000D01*
X72230000Y-95670000D02*
X69630000Y-95670000D01*
X72230000Y-95670000D02*
X72230000Y-98330000D01*
X72230000Y-98330000D02*
X69630000Y-98330000D01*
X73500000Y-95670000D02*
X74830000Y-95670000D01*
X74830000Y-95670000D02*
X74830000Y-97000000D01*
D13*
X144570000Y-19200000D02*
X152430000Y-19200000D01*
X144570000Y-26000000D02*
X144570000Y-19200000D01*
X145820000Y-27700000D02*
X145820000Y-26000000D01*
X151180000Y-27700000D02*
X145820000Y-27700000D01*
X151180000Y-27700000D02*
X151180000Y-26000000D01*
X152430000Y-19200000D02*
X152430000Y-26000000D01*
X152430000Y-26000000D02*
X144570000Y-26000000D01*
X38590000Y-19200000D02*
X46450000Y-19200000D01*
X38590000Y-26000000D02*
X38590000Y-19200000D01*
X39840000Y-27700000D02*
X39840000Y-26000000D01*
X45200000Y-27700000D02*
X39840000Y-27700000D01*
X45200000Y-27700000D02*
X45200000Y-26000000D01*
X46450000Y-19200000D02*
X46450000Y-26000000D01*
X46450000Y-26000000D02*
X38590000Y-26000000D01*
D11*
X37035000Y-139346972D02*
X37035000Y-138824468D01*
X38505000Y-139346972D02*
X38505000Y-138824468D01*
X90765000Y-107323752D02*
X90765000Y-106801248D01*
X92235000Y-107323752D02*
X92235000Y-106801248D01*
X48765000Y-135772936D02*
X48765000Y-136227064D01*
X50235000Y-135772936D02*
X50235000Y-136227064D01*
%LPC*%
D17*
X164034000Y-109851000D02*
X164068000Y-109854000D01*
X164102000Y-109858000D01*
X164135000Y-109864000D01*
X164168000Y-109872000D01*
X164201000Y-109882000D01*
X164233000Y-109893000D01*
X164264000Y-109906000D01*
X164295000Y-109921000D01*
X164325000Y-109937000D01*
X164354000Y-109955000D01*
X164382000Y-109974000D01*
X164409000Y-109995000D01*
X164435000Y-110017000D01*
X164460000Y-110040000D01*
X164483000Y-110065000D01*
X164505000Y-110091000D01*
X164526000Y-110118000D01*
X164545000Y-110146000D01*
X164563000Y-110175000D01*
X164579000Y-110205000D01*
X164594000Y-110236000D01*
X164607000Y-110267000D01*
X164618000Y-110299000D01*
X164628000Y-110332000D01*
X164636000Y-110365000D01*
X164642000Y-110398000D01*
X164646000Y-110432000D01*
X164649000Y-110466000D01*
X164650000Y-110500000D01*
X164649000Y-110534000D01*
X164646000Y-110568000D01*
X164642000Y-110602000D01*
X164636000Y-110635000D01*
X164628000Y-110668000D01*
X164618000Y-110701000D01*
X164607000Y-110733000D01*
X164594000Y-110764000D01*
X164579000Y-110795000D01*
X164563000Y-110825000D01*
X164545000Y-110854000D01*
X164526000Y-110882000D01*
X164505000Y-110909000D01*
X164483000Y-110935000D01*
X164460000Y-110960000D01*
X164435000Y-110983000D01*
X164409000Y-111005000D01*
X164382000Y-111026000D01*
X164354000Y-111045000D01*
X164325000Y-111063000D01*
X164295000Y-111079000D01*
X164264000Y-111094000D01*
X164233000Y-111107000D01*
X164201000Y-111118000D01*
X164168000Y-111128000D01*
X164135000Y-111136000D01*
X164102000Y-111142000D01*
X164068000Y-111146000D01*
X164034000Y-111149000D01*
X164000000Y-111150000D01*
X163400000Y-111150000D01*
X163366000Y-111149000D01*
X163332000Y-111146000D01*
X163298000Y-111142000D01*
X163265000Y-111136000D01*
X163232000Y-111128000D01*
X163199000Y-111118000D01*
X163167000Y-111107000D01*
X163136000Y-111094000D01*
X163105000Y-111079000D01*
X163075000Y-111063000D01*
X163046000Y-111045000D01*
X163018000Y-111026000D01*
X162991000Y-111005000D01*
X162965000Y-110983000D01*
X162940000Y-110960000D01*
X162917000Y-110935000D01*
X162895000Y-110909000D01*
X162874000Y-110882000D01*
X162855000Y-110854000D01*
X162837000Y-110825000D01*
X162821000Y-110795000D01*
X162806000Y-110764000D01*
X162793000Y-110733000D01*
X162782000Y-110701000D01*
X162772000Y-110668000D01*
X162764000Y-110635000D01*
X162758000Y-110602000D01*
X162754000Y-110568000D01*
X162751000Y-110534000D01*
X162750000Y-110500000D01*
X162751000Y-110466000D01*
X162754000Y-110432000D01*
X162758000Y-110398000D01*
X162764000Y-110365000D01*
X162772000Y-110332000D01*
X162782000Y-110299000D01*
X162793000Y-110267000D01*
X162806000Y-110236000D01*
X162821000Y-110205000D01*
X162837000Y-110175000D01*
X162855000Y-110146000D01*
X162874000Y-110118000D01*
X162895000Y-110091000D01*
X162917000Y-110065000D01*
X162940000Y-110040000D01*
X162965000Y-110017000D01*
X162991000Y-109995000D01*
X163018000Y-109974000D01*
X163046000Y-109955000D01*
X163075000Y-109937000D01*
X163105000Y-109921000D01*
X163136000Y-109906000D01*
X163167000Y-109893000D01*
X163199000Y-109882000D01*
X163232000Y-109872000D01*
X163265000Y-109864000D01*
X163298000Y-109858000D01*
X163332000Y-109854000D01*
X163366000Y-109851000D01*
X163400000Y-109850000D01*
X164000000Y-109850000D01*
X164034000Y-109851000D01*
G36*
X164034000Y-109851000D02*
G01*
X164068000Y-109854000D01*
X164102000Y-109858000D01*
X164135000Y-109864000D01*
X164168000Y-109872000D01*
X164201000Y-109882000D01*
X164233000Y-109893000D01*
X164264000Y-109906000D01*
X164295000Y-109921000D01*
X164325000Y-109937000D01*
X164354000Y-109955000D01*
X164382000Y-109974000D01*
X164409000Y-109995000D01*
X164435000Y-110017000D01*
X164460000Y-110040000D01*
X164483000Y-110065000D01*
X164505000Y-110091000D01*
X164526000Y-110118000D01*
X164545000Y-110146000D01*
X164563000Y-110175000D01*
X164579000Y-110205000D01*
X164594000Y-110236000D01*
X164607000Y-110267000D01*
X164618000Y-110299000D01*
X164628000Y-110332000D01*
X164636000Y-110365000D01*
X164642000Y-110398000D01*
X164646000Y-110432000D01*
X164649000Y-110466000D01*
X164650000Y-110500000D01*
X164649000Y-110534000D01*
X164646000Y-110568000D01*
X164642000Y-110602000D01*
X164636000Y-110635000D01*
X164628000Y-110668000D01*
X164618000Y-110701000D01*
X164607000Y-110733000D01*
X164594000Y-110764000D01*
X164579000Y-110795000D01*
X164563000Y-110825000D01*
X164545000Y-110854000D01*
X164526000Y-110882000D01*
X164505000Y-110909000D01*
X164483000Y-110935000D01*
X164460000Y-110960000D01*
X164435000Y-110983000D01*
X164409000Y-111005000D01*
X164382000Y-111026000D01*
X164354000Y-111045000D01*
X164325000Y-111063000D01*
X164295000Y-111079000D01*
X164264000Y-111094000D01*
X164233000Y-111107000D01*
X164201000Y-111118000D01*
X164168000Y-111128000D01*
X164135000Y-111136000D01*
X164102000Y-111142000D01*
X164068000Y-111146000D01*
X164034000Y-111149000D01*
X164000000Y-111150000D01*
X163400000Y-111150000D01*
X163366000Y-111149000D01*
X163332000Y-111146000D01*
X163298000Y-111142000D01*
X163265000Y-111136000D01*
X163232000Y-111128000D01*
X163199000Y-111118000D01*
X163167000Y-111107000D01*
X163136000Y-111094000D01*
X163105000Y-111079000D01*
X163075000Y-111063000D01*
X163046000Y-111045000D01*
X163018000Y-111026000D01*
X162991000Y-111005000D01*
X162965000Y-110983000D01*
X162940000Y-110960000D01*
X162917000Y-110935000D01*
X162895000Y-110909000D01*
X162874000Y-110882000D01*
X162855000Y-110854000D01*
X162837000Y-110825000D01*
X162821000Y-110795000D01*
X162806000Y-110764000D01*
X162793000Y-110733000D01*
X162782000Y-110701000D01*
X162772000Y-110668000D01*
X162764000Y-110635000D01*
X162758000Y-110602000D01*
X162754000Y-110568000D01*
X162751000Y-110534000D01*
X162750000Y-110500000D01*
X162751000Y-110466000D01*
X162754000Y-110432000D01*
X162758000Y-110398000D01*
X162764000Y-110365000D01*
X162772000Y-110332000D01*
X162782000Y-110299000D01*
X162793000Y-110267000D01*
X162806000Y-110236000D01*
X162821000Y-110205000D01*
X162837000Y-110175000D01*
X162855000Y-110146000D01*
X162874000Y-110118000D01*
X162895000Y-110091000D01*
X162917000Y-110065000D01*
X162940000Y-110040000D01*
X162965000Y-110017000D01*
X162991000Y-109995000D01*
X163018000Y-109974000D01*
X163046000Y-109955000D01*
X163075000Y-109937000D01*
X163105000Y-109921000D01*
X163136000Y-109906000D01*
X163167000Y-109893000D01*
X163199000Y-109882000D01*
X163232000Y-109872000D01*
X163265000Y-109864000D01*
X163298000Y-109858000D01*
X163332000Y-109854000D01*
X163366000Y-109851000D01*
X163400000Y-109850000D01*
X164000000Y-109850000D01*
X164034000Y-109851000D01*
G37*
X164034000Y-118491000D02*
X164068000Y-118494000D01*
X164102000Y-118498000D01*
X164135000Y-118504000D01*
X164168000Y-118512000D01*
X164201000Y-118522000D01*
X164233000Y-118533000D01*
X164264000Y-118546000D01*
X164295000Y-118561000D01*
X164325000Y-118577000D01*
X164354000Y-118595000D01*
X164382000Y-118614000D01*
X164409000Y-118635000D01*
X164435000Y-118657000D01*
X164460000Y-118680000D01*
X164483000Y-118705000D01*
X164505000Y-118731000D01*
X164526000Y-118758000D01*
X164545000Y-118786000D01*
X164563000Y-118815000D01*
X164579000Y-118845000D01*
X164594000Y-118876000D01*
X164607000Y-118907000D01*
X164618000Y-118939000D01*
X164628000Y-118972000D01*
X164636000Y-119005000D01*
X164642000Y-119038000D01*
X164646000Y-119072000D01*
X164649000Y-119106000D01*
X164650000Y-119140000D01*
X164649000Y-119174000D01*
X164646000Y-119208000D01*
X164642000Y-119242000D01*
X164636000Y-119275000D01*
X164628000Y-119308000D01*
X164618000Y-119341000D01*
X164607000Y-119373000D01*
X164594000Y-119404000D01*
X164579000Y-119435000D01*
X164563000Y-119465000D01*
X164545000Y-119494000D01*
X164526000Y-119522000D01*
X164505000Y-119549000D01*
X164483000Y-119575000D01*
X164460000Y-119600000D01*
X164435000Y-119623000D01*
X164409000Y-119645000D01*
X164382000Y-119666000D01*
X164354000Y-119685000D01*
X164325000Y-119703000D01*
X164295000Y-119719000D01*
X164264000Y-119734000D01*
X164233000Y-119747000D01*
X164201000Y-119758000D01*
X164168000Y-119768000D01*
X164135000Y-119776000D01*
X164102000Y-119782000D01*
X164068000Y-119786000D01*
X164034000Y-119789000D01*
X164000000Y-119790000D01*
X163400000Y-119790000D01*
X163366000Y-119789000D01*
X163332000Y-119786000D01*
X163298000Y-119782000D01*
X163265000Y-119776000D01*
X163232000Y-119768000D01*
X163199000Y-119758000D01*
X163167000Y-119747000D01*
X163136000Y-119734000D01*
X163105000Y-119719000D01*
X163075000Y-119703000D01*
X163046000Y-119685000D01*
X163018000Y-119666000D01*
X162991000Y-119645000D01*
X162965000Y-119623000D01*
X162940000Y-119600000D01*
X162917000Y-119575000D01*
X162895000Y-119549000D01*
X162874000Y-119522000D01*
X162855000Y-119494000D01*
X162837000Y-119465000D01*
X162821000Y-119435000D01*
X162806000Y-119404000D01*
X162793000Y-119373000D01*
X162782000Y-119341000D01*
X162772000Y-119308000D01*
X162764000Y-119275000D01*
X162758000Y-119242000D01*
X162754000Y-119208000D01*
X162751000Y-119174000D01*
X162750000Y-119140000D01*
X162751000Y-119106000D01*
X162754000Y-119072000D01*
X162758000Y-119038000D01*
X162764000Y-119005000D01*
X162772000Y-118972000D01*
X162782000Y-118939000D01*
X162793000Y-118907000D01*
X162806000Y-118876000D01*
X162821000Y-118845000D01*
X162837000Y-118815000D01*
X162855000Y-118786000D01*
X162874000Y-118758000D01*
X162895000Y-118731000D01*
X162917000Y-118705000D01*
X162940000Y-118680000D01*
X162965000Y-118657000D01*
X162991000Y-118635000D01*
X163018000Y-118614000D01*
X163046000Y-118595000D01*
X163075000Y-118577000D01*
X163105000Y-118561000D01*
X163136000Y-118546000D01*
X163167000Y-118533000D01*
X163199000Y-118522000D01*
X163232000Y-118512000D01*
X163265000Y-118504000D01*
X163298000Y-118498000D01*
X163332000Y-118494000D01*
X163366000Y-118491000D01*
X163400000Y-118490000D01*
X164000000Y-118490000D01*
X164034000Y-118491000D01*
G36*
X164034000Y-118491000D02*
G01*
X164068000Y-118494000D01*
X164102000Y-118498000D01*
X164135000Y-118504000D01*
X164168000Y-118512000D01*
X164201000Y-118522000D01*
X164233000Y-118533000D01*
X164264000Y-118546000D01*
X164295000Y-118561000D01*
X164325000Y-118577000D01*
X164354000Y-118595000D01*
X164382000Y-118614000D01*
X164409000Y-118635000D01*
X164435000Y-118657000D01*
X164460000Y-118680000D01*
X164483000Y-118705000D01*
X164505000Y-118731000D01*
X164526000Y-118758000D01*
X164545000Y-118786000D01*
X164563000Y-118815000D01*
X164579000Y-118845000D01*
X164594000Y-118876000D01*
X164607000Y-118907000D01*
X164618000Y-118939000D01*
X164628000Y-118972000D01*
X164636000Y-119005000D01*
X164642000Y-119038000D01*
X164646000Y-119072000D01*
X164649000Y-119106000D01*
X164650000Y-119140000D01*
X164649000Y-119174000D01*
X164646000Y-119208000D01*
X164642000Y-119242000D01*
X164636000Y-119275000D01*
X164628000Y-119308000D01*
X164618000Y-119341000D01*
X164607000Y-119373000D01*
X164594000Y-119404000D01*
X164579000Y-119435000D01*
X164563000Y-119465000D01*
X164545000Y-119494000D01*
X164526000Y-119522000D01*
X164505000Y-119549000D01*
X164483000Y-119575000D01*
X164460000Y-119600000D01*
X164435000Y-119623000D01*
X164409000Y-119645000D01*
X164382000Y-119666000D01*
X164354000Y-119685000D01*
X164325000Y-119703000D01*
X164295000Y-119719000D01*
X164264000Y-119734000D01*
X164233000Y-119747000D01*
X164201000Y-119758000D01*
X164168000Y-119768000D01*
X164135000Y-119776000D01*
X164102000Y-119782000D01*
X164068000Y-119786000D01*
X164034000Y-119789000D01*
X164000000Y-119790000D01*
X163400000Y-119790000D01*
X163366000Y-119789000D01*
X163332000Y-119786000D01*
X163298000Y-119782000D01*
X163265000Y-119776000D01*
X163232000Y-119768000D01*
X163199000Y-119758000D01*
X163167000Y-119747000D01*
X163136000Y-119734000D01*
X163105000Y-119719000D01*
X163075000Y-119703000D01*
X163046000Y-119685000D01*
X163018000Y-119666000D01*
X162991000Y-119645000D01*
X162965000Y-119623000D01*
X162940000Y-119600000D01*
X162917000Y-119575000D01*
X162895000Y-119549000D01*
X162874000Y-119522000D01*
X162855000Y-119494000D01*
X162837000Y-119465000D01*
X162821000Y-119435000D01*
X162806000Y-119404000D01*
X162793000Y-119373000D01*
X162782000Y-119341000D01*
X162772000Y-119308000D01*
X162764000Y-119275000D01*
X162758000Y-119242000D01*
X162754000Y-119208000D01*
X162751000Y-119174000D01*
X162750000Y-119140000D01*
X162751000Y-119106000D01*
X162754000Y-119072000D01*
X162758000Y-119038000D01*
X162764000Y-119005000D01*
X162772000Y-118972000D01*
X162782000Y-118939000D01*
X162793000Y-118907000D01*
X162806000Y-118876000D01*
X162821000Y-118845000D01*
X162837000Y-118815000D01*
X162855000Y-118786000D01*
X162874000Y-118758000D01*
X162895000Y-118731000D01*
X162917000Y-118705000D01*
X162940000Y-118680000D01*
X162965000Y-118657000D01*
X162991000Y-118635000D01*
X163018000Y-118614000D01*
X163046000Y-118595000D01*
X163075000Y-118577000D01*
X163105000Y-118561000D01*
X163136000Y-118546000D01*
X163167000Y-118533000D01*
X163199000Y-118522000D01*
X163232000Y-118512000D01*
X163265000Y-118504000D01*
X163298000Y-118498000D01*
X163332000Y-118494000D01*
X163366000Y-118491000D01*
X163400000Y-118490000D01*
X164000000Y-118490000D01*
X164034000Y-118491000D01*
G37*
X167834000Y-109851000D02*
X167868000Y-109854000D01*
X167902000Y-109858000D01*
X167935000Y-109864000D01*
X167968000Y-109872000D01*
X168001000Y-109882000D01*
X168033000Y-109893000D01*
X168064000Y-109906000D01*
X168095000Y-109921000D01*
X168125000Y-109937000D01*
X168154000Y-109955000D01*
X168182000Y-109974000D01*
X168209000Y-109995000D01*
X168235000Y-110017000D01*
X168260000Y-110040000D01*
X168283000Y-110065000D01*
X168305000Y-110091000D01*
X168326000Y-110118000D01*
X168345000Y-110146000D01*
X168363000Y-110175000D01*
X168379000Y-110205000D01*
X168394000Y-110236000D01*
X168407000Y-110267000D01*
X168418000Y-110299000D01*
X168428000Y-110332000D01*
X168436000Y-110365000D01*
X168442000Y-110398000D01*
X168446000Y-110432000D01*
X168449000Y-110466000D01*
X168450000Y-110500000D01*
X168449000Y-110534000D01*
X168446000Y-110568000D01*
X168442000Y-110602000D01*
X168436000Y-110635000D01*
X168428000Y-110668000D01*
X168418000Y-110701000D01*
X168407000Y-110733000D01*
X168394000Y-110764000D01*
X168379000Y-110795000D01*
X168363000Y-110825000D01*
X168345000Y-110854000D01*
X168326000Y-110882000D01*
X168305000Y-110909000D01*
X168283000Y-110935000D01*
X168260000Y-110960000D01*
X168235000Y-110983000D01*
X168209000Y-111005000D01*
X168182000Y-111026000D01*
X168154000Y-111045000D01*
X168125000Y-111063000D01*
X168095000Y-111079000D01*
X168064000Y-111094000D01*
X168033000Y-111107000D01*
X168001000Y-111118000D01*
X167968000Y-111128000D01*
X167935000Y-111136000D01*
X167902000Y-111142000D01*
X167868000Y-111146000D01*
X167834000Y-111149000D01*
X167800000Y-111150000D01*
X167200000Y-111150000D01*
X167166000Y-111149000D01*
X167132000Y-111146000D01*
X167098000Y-111142000D01*
X167065000Y-111136000D01*
X167032000Y-111128000D01*
X166999000Y-111118000D01*
X166967000Y-111107000D01*
X166936000Y-111094000D01*
X166905000Y-111079000D01*
X166875000Y-111063000D01*
X166846000Y-111045000D01*
X166818000Y-111026000D01*
X166791000Y-111005000D01*
X166765000Y-110983000D01*
X166740000Y-110960000D01*
X166717000Y-110935000D01*
X166695000Y-110909000D01*
X166674000Y-110882000D01*
X166655000Y-110854000D01*
X166637000Y-110825000D01*
X166621000Y-110795000D01*
X166606000Y-110764000D01*
X166593000Y-110733000D01*
X166582000Y-110701000D01*
X166572000Y-110668000D01*
X166564000Y-110635000D01*
X166558000Y-110602000D01*
X166554000Y-110568000D01*
X166551000Y-110534000D01*
X166550000Y-110500000D01*
X166551000Y-110466000D01*
X166554000Y-110432000D01*
X166558000Y-110398000D01*
X166564000Y-110365000D01*
X166572000Y-110332000D01*
X166582000Y-110299000D01*
X166593000Y-110267000D01*
X166606000Y-110236000D01*
X166621000Y-110205000D01*
X166637000Y-110175000D01*
X166655000Y-110146000D01*
X166674000Y-110118000D01*
X166695000Y-110091000D01*
X166717000Y-110065000D01*
X166740000Y-110040000D01*
X166765000Y-110017000D01*
X166791000Y-109995000D01*
X166818000Y-109974000D01*
X166846000Y-109955000D01*
X166875000Y-109937000D01*
X166905000Y-109921000D01*
X166936000Y-109906000D01*
X166967000Y-109893000D01*
X166999000Y-109882000D01*
X167032000Y-109872000D01*
X167065000Y-109864000D01*
X167098000Y-109858000D01*
X167132000Y-109854000D01*
X167166000Y-109851000D01*
X167200000Y-109850000D01*
X167800000Y-109850000D01*
X167834000Y-109851000D01*
G36*
X167834000Y-109851000D02*
G01*
X167868000Y-109854000D01*
X167902000Y-109858000D01*
X167935000Y-109864000D01*
X167968000Y-109872000D01*
X168001000Y-109882000D01*
X168033000Y-109893000D01*
X168064000Y-109906000D01*
X168095000Y-109921000D01*
X168125000Y-109937000D01*
X168154000Y-109955000D01*
X168182000Y-109974000D01*
X168209000Y-109995000D01*
X168235000Y-110017000D01*
X168260000Y-110040000D01*
X168283000Y-110065000D01*
X168305000Y-110091000D01*
X168326000Y-110118000D01*
X168345000Y-110146000D01*
X168363000Y-110175000D01*
X168379000Y-110205000D01*
X168394000Y-110236000D01*
X168407000Y-110267000D01*
X168418000Y-110299000D01*
X168428000Y-110332000D01*
X168436000Y-110365000D01*
X168442000Y-110398000D01*
X168446000Y-110432000D01*
X168449000Y-110466000D01*
X168450000Y-110500000D01*
X168449000Y-110534000D01*
X168446000Y-110568000D01*
X168442000Y-110602000D01*
X168436000Y-110635000D01*
X168428000Y-110668000D01*
X168418000Y-110701000D01*
X168407000Y-110733000D01*
X168394000Y-110764000D01*
X168379000Y-110795000D01*
X168363000Y-110825000D01*
X168345000Y-110854000D01*
X168326000Y-110882000D01*
X168305000Y-110909000D01*
X168283000Y-110935000D01*
X168260000Y-110960000D01*
X168235000Y-110983000D01*
X168209000Y-111005000D01*
X168182000Y-111026000D01*
X168154000Y-111045000D01*
X168125000Y-111063000D01*
X168095000Y-111079000D01*
X168064000Y-111094000D01*
X168033000Y-111107000D01*
X168001000Y-111118000D01*
X167968000Y-111128000D01*
X167935000Y-111136000D01*
X167902000Y-111142000D01*
X167868000Y-111146000D01*
X167834000Y-111149000D01*
X167800000Y-111150000D01*
X167200000Y-111150000D01*
X167166000Y-111149000D01*
X167132000Y-111146000D01*
X167098000Y-111142000D01*
X167065000Y-111136000D01*
X167032000Y-111128000D01*
X166999000Y-111118000D01*
X166967000Y-111107000D01*
X166936000Y-111094000D01*
X166905000Y-111079000D01*
X166875000Y-111063000D01*
X166846000Y-111045000D01*
X166818000Y-111026000D01*
X166791000Y-111005000D01*
X166765000Y-110983000D01*
X166740000Y-110960000D01*
X166717000Y-110935000D01*
X166695000Y-110909000D01*
X166674000Y-110882000D01*
X166655000Y-110854000D01*
X166637000Y-110825000D01*
X166621000Y-110795000D01*
X166606000Y-110764000D01*
X166593000Y-110733000D01*
X166582000Y-110701000D01*
X166572000Y-110668000D01*
X166564000Y-110635000D01*
X166558000Y-110602000D01*
X166554000Y-110568000D01*
X166551000Y-110534000D01*
X166550000Y-110500000D01*
X166551000Y-110466000D01*
X166554000Y-110432000D01*
X166558000Y-110398000D01*
X166564000Y-110365000D01*
X166572000Y-110332000D01*
X166582000Y-110299000D01*
X166593000Y-110267000D01*
X166606000Y-110236000D01*
X166621000Y-110205000D01*
X166637000Y-110175000D01*
X166655000Y-110146000D01*
X166674000Y-110118000D01*
X166695000Y-110091000D01*
X166717000Y-110065000D01*
X166740000Y-110040000D01*
X166765000Y-110017000D01*
X166791000Y-109995000D01*
X166818000Y-109974000D01*
X166846000Y-109955000D01*
X166875000Y-109937000D01*
X166905000Y-109921000D01*
X166936000Y-109906000D01*
X166967000Y-109893000D01*
X166999000Y-109882000D01*
X167032000Y-109872000D01*
X167065000Y-109864000D01*
X167098000Y-109858000D01*
X167132000Y-109854000D01*
X167166000Y-109851000D01*
X167200000Y-109850000D01*
X167800000Y-109850000D01*
X167834000Y-109851000D01*
G37*
X167834000Y-118491000D02*
X167868000Y-118494000D01*
X167902000Y-118498000D01*
X167935000Y-118504000D01*
X167968000Y-118512000D01*
X168001000Y-118522000D01*
X168033000Y-118533000D01*
X168064000Y-118546000D01*
X168095000Y-118561000D01*
X168125000Y-118577000D01*
X168154000Y-118595000D01*
X168182000Y-118614000D01*
X168209000Y-118635000D01*
X168235000Y-118657000D01*
X168260000Y-118680000D01*
X168283000Y-118705000D01*
X168305000Y-118731000D01*
X168326000Y-118758000D01*
X168345000Y-118786000D01*
X168363000Y-118815000D01*
X168379000Y-118845000D01*
X168394000Y-118876000D01*
X168407000Y-118907000D01*
X168418000Y-118939000D01*
X168428000Y-118972000D01*
X168436000Y-119005000D01*
X168442000Y-119038000D01*
X168446000Y-119072000D01*
X168449000Y-119106000D01*
X168450000Y-119140000D01*
X168449000Y-119174000D01*
X168446000Y-119208000D01*
X168442000Y-119242000D01*
X168436000Y-119275000D01*
X168428000Y-119308000D01*
X168418000Y-119341000D01*
X168407000Y-119373000D01*
X168394000Y-119404000D01*
X168379000Y-119435000D01*
X168363000Y-119465000D01*
X168345000Y-119494000D01*
X168326000Y-119522000D01*
X168305000Y-119549000D01*
X168283000Y-119575000D01*
X168260000Y-119600000D01*
X168235000Y-119623000D01*
X168209000Y-119645000D01*
X168182000Y-119666000D01*
X168154000Y-119685000D01*
X168125000Y-119703000D01*
X168095000Y-119719000D01*
X168064000Y-119734000D01*
X168033000Y-119747000D01*
X168001000Y-119758000D01*
X167968000Y-119768000D01*
X167935000Y-119776000D01*
X167902000Y-119782000D01*
X167868000Y-119786000D01*
X167834000Y-119789000D01*
X167800000Y-119790000D01*
X167200000Y-119790000D01*
X167166000Y-119789000D01*
X167132000Y-119786000D01*
X167098000Y-119782000D01*
X167065000Y-119776000D01*
X167032000Y-119768000D01*
X166999000Y-119758000D01*
X166967000Y-119747000D01*
X166936000Y-119734000D01*
X166905000Y-119719000D01*
X166875000Y-119703000D01*
X166846000Y-119685000D01*
X166818000Y-119666000D01*
X166791000Y-119645000D01*
X166765000Y-119623000D01*
X166740000Y-119600000D01*
X166717000Y-119575000D01*
X166695000Y-119549000D01*
X166674000Y-119522000D01*
X166655000Y-119494000D01*
X166637000Y-119465000D01*
X166621000Y-119435000D01*
X166606000Y-119404000D01*
X166593000Y-119373000D01*
X166582000Y-119341000D01*
X166572000Y-119308000D01*
X166564000Y-119275000D01*
X166558000Y-119242000D01*
X166554000Y-119208000D01*
X166551000Y-119174000D01*
X166550000Y-119140000D01*
X166551000Y-119106000D01*
X166554000Y-119072000D01*
X166558000Y-119038000D01*
X166564000Y-119005000D01*
X166572000Y-118972000D01*
X166582000Y-118939000D01*
X166593000Y-118907000D01*
X166606000Y-118876000D01*
X166621000Y-118845000D01*
X166637000Y-118815000D01*
X166655000Y-118786000D01*
X166674000Y-118758000D01*
X166695000Y-118731000D01*
X166717000Y-118705000D01*
X166740000Y-118680000D01*
X166765000Y-118657000D01*
X166791000Y-118635000D01*
X166818000Y-118614000D01*
X166846000Y-118595000D01*
X166875000Y-118577000D01*
X166905000Y-118561000D01*
X166936000Y-118546000D01*
X166967000Y-118533000D01*
X166999000Y-118522000D01*
X167032000Y-118512000D01*
X167065000Y-118504000D01*
X167098000Y-118498000D01*
X167132000Y-118494000D01*
X167166000Y-118491000D01*
X167200000Y-118490000D01*
X167800000Y-118490000D01*
X167834000Y-118491000D01*
G36*
X167834000Y-118491000D02*
G01*
X167868000Y-118494000D01*
X167902000Y-118498000D01*
X167935000Y-118504000D01*
X167968000Y-118512000D01*
X168001000Y-118522000D01*
X168033000Y-118533000D01*
X168064000Y-118546000D01*
X168095000Y-118561000D01*
X168125000Y-118577000D01*
X168154000Y-118595000D01*
X168182000Y-118614000D01*
X168209000Y-118635000D01*
X168235000Y-118657000D01*
X168260000Y-118680000D01*
X168283000Y-118705000D01*
X168305000Y-118731000D01*
X168326000Y-118758000D01*
X168345000Y-118786000D01*
X168363000Y-118815000D01*
X168379000Y-118845000D01*
X168394000Y-118876000D01*
X168407000Y-118907000D01*
X168418000Y-118939000D01*
X168428000Y-118972000D01*
X168436000Y-119005000D01*
X168442000Y-119038000D01*
X168446000Y-119072000D01*
X168449000Y-119106000D01*
X168450000Y-119140000D01*
X168449000Y-119174000D01*
X168446000Y-119208000D01*
X168442000Y-119242000D01*
X168436000Y-119275000D01*
X168428000Y-119308000D01*
X168418000Y-119341000D01*
X168407000Y-119373000D01*
X168394000Y-119404000D01*
X168379000Y-119435000D01*
X168363000Y-119465000D01*
X168345000Y-119494000D01*
X168326000Y-119522000D01*
X168305000Y-119549000D01*
X168283000Y-119575000D01*
X168260000Y-119600000D01*
X168235000Y-119623000D01*
X168209000Y-119645000D01*
X168182000Y-119666000D01*
X168154000Y-119685000D01*
X168125000Y-119703000D01*
X168095000Y-119719000D01*
X168064000Y-119734000D01*
X168033000Y-119747000D01*
X168001000Y-119758000D01*
X167968000Y-119768000D01*
X167935000Y-119776000D01*
X167902000Y-119782000D01*
X167868000Y-119786000D01*
X167834000Y-119789000D01*
X167800000Y-119790000D01*
X167200000Y-119790000D01*
X167166000Y-119789000D01*
X167132000Y-119786000D01*
X167098000Y-119782000D01*
X167065000Y-119776000D01*
X167032000Y-119768000D01*
X166999000Y-119758000D01*
X166967000Y-119747000D01*
X166936000Y-119734000D01*
X166905000Y-119719000D01*
X166875000Y-119703000D01*
X166846000Y-119685000D01*
X166818000Y-119666000D01*
X166791000Y-119645000D01*
X166765000Y-119623000D01*
X166740000Y-119600000D01*
X166717000Y-119575000D01*
X166695000Y-119549000D01*
X166674000Y-119522000D01*
X166655000Y-119494000D01*
X166637000Y-119465000D01*
X166621000Y-119435000D01*
X166606000Y-119404000D01*
X166593000Y-119373000D01*
X166582000Y-119341000D01*
X166572000Y-119308000D01*
X166564000Y-119275000D01*
X166558000Y-119242000D01*
X166554000Y-119208000D01*
X166551000Y-119174000D01*
X166550000Y-119140000D01*
X166551000Y-119106000D01*
X166554000Y-119072000D01*
X166558000Y-119038000D01*
X166564000Y-119005000D01*
X166572000Y-118972000D01*
X166582000Y-118939000D01*
X166593000Y-118907000D01*
X166606000Y-118876000D01*
X166621000Y-118845000D01*
X166637000Y-118815000D01*
X166655000Y-118786000D01*
X166674000Y-118758000D01*
X166695000Y-118731000D01*
X166717000Y-118705000D01*
X166740000Y-118680000D01*
X166765000Y-118657000D01*
X166791000Y-118635000D01*
X166818000Y-118614000D01*
X166846000Y-118595000D01*
X166875000Y-118577000D01*
X166905000Y-118561000D01*
X166936000Y-118546000D01*
X166967000Y-118533000D01*
X166999000Y-118522000D01*
X167032000Y-118512000D01*
X167065000Y-118504000D01*
X167098000Y-118498000D01*
X167132000Y-118494000D01*
X167166000Y-118491000D01*
X167200000Y-118490000D01*
X167800000Y-118490000D01*
X167834000Y-118491000D01*
G37*
X136225000Y-149250000D02*
X135825000Y-149250000D01*
X135825000Y-148550000D01*
X136225000Y-148550000D01*
X136225000Y-149250000D01*
G36*
X136225000Y-149250000D02*
G01*
X135825000Y-149250000D01*
X135825000Y-148550000D01*
X136225000Y-148550000D01*
X136225000Y-149250000D01*
G37*
X136225000Y-150950000D02*
X135825000Y-150950000D01*
X135825000Y-150250000D01*
X136225000Y-150250000D01*
X136225000Y-150950000D01*
G36*
X136225000Y-150950000D02*
G01*
X135825000Y-150950000D01*
X135825000Y-150250000D01*
X136225000Y-150250000D01*
X136225000Y-150950000D01*
G37*
X136675000Y-149250000D02*
X136275000Y-149250000D01*
X136275000Y-148550000D01*
X136675000Y-148550000D01*
X136675000Y-149250000D01*
G36*
X136675000Y-149250000D02*
G01*
X136275000Y-149250000D01*
X136275000Y-148550000D01*
X136675000Y-148550000D01*
X136675000Y-149250000D01*
G37*
X136675000Y-150950000D02*
X136275000Y-150950000D01*
X136275000Y-150250000D01*
X136675000Y-150250000D01*
X136675000Y-150950000D01*
G36*
X136675000Y-150950000D02*
G01*
X136275000Y-150950000D01*
X136275000Y-150250000D01*
X136675000Y-150250000D01*
X136675000Y-150950000D01*
G37*
X137125000Y-149250000D02*
X136725000Y-149250000D01*
X136725000Y-148550000D01*
X137125000Y-148550000D01*
X137125000Y-149250000D01*
G36*
X137125000Y-149250000D02*
G01*
X136725000Y-149250000D01*
X136725000Y-148550000D01*
X137125000Y-148550000D01*
X137125000Y-149250000D01*
G37*
X137125000Y-150950000D02*
X136725000Y-150950000D01*
X136725000Y-150250000D01*
X137125000Y-150250000D01*
X137125000Y-150950000D01*
G36*
X137125000Y-150950000D02*
G01*
X136725000Y-150950000D01*
X136725000Y-150250000D01*
X137125000Y-150250000D01*
X137125000Y-150950000D01*
G37*
X138750000Y-149450000D02*
X137200000Y-149450000D01*
X137200000Y-148550000D01*
X138750000Y-148550000D01*
X138750000Y-149450000D01*
G36*
X138750000Y-149450000D02*
G01*
X137200000Y-149450000D01*
X137200000Y-148550000D01*
X138750000Y-148550000D01*
X138750000Y-149450000D01*
G37*
X138750000Y-150950000D02*
X137200000Y-150950000D01*
X137200000Y-150050000D01*
X138750000Y-150050000D01*
X138750000Y-150950000D01*
G36*
X138750000Y-150950000D02*
G01*
X137200000Y-150950000D01*
X137200000Y-150050000D01*
X138750000Y-150050000D01*
X138750000Y-150950000D01*
G37*
X139025000Y-149950000D02*
X137200000Y-149950000D01*
X137200000Y-149550000D01*
X139025000Y-149550000D01*
X139025000Y-149950000D01*
G36*
X139025000Y-149950000D02*
G01*
X137200000Y-149950000D01*
X137200000Y-149550000D01*
X139025000Y-149550000D01*
X139025000Y-149950000D01*
G37*
X70826200Y-24076200D02*
X68573800Y-24076200D01*
X68573800Y-20923800D01*
X70826200Y-20923800D01*
X70826200Y-24076200D01*
G36*
X70826200Y-24076200D02*
G01*
X68573800Y-24076200D01*
X68573800Y-20923800D01*
X70826200Y-20923800D01*
X70826200Y-24076200D01*
G37*
X72726200Y-26276200D02*
X71773800Y-26276200D01*
X71773800Y-24523800D01*
X72726200Y-24523800D01*
X72726200Y-26276200D01*
G36*
X72726200Y-26276200D02*
G01*
X71773800Y-26276200D01*
X71773800Y-24523800D01*
X72726200Y-24523800D01*
X72726200Y-26276200D01*
G37*
X73976200Y-26276200D02*
X73023800Y-26276200D01*
X73023800Y-24523800D01*
X73976200Y-24523800D01*
X73976200Y-26276200D01*
G36*
X73976200Y-26276200D02*
G01*
X73023800Y-26276200D01*
X73023800Y-24523800D01*
X73976200Y-24523800D01*
X73976200Y-26276200D01*
G37*
X75226200Y-26276200D02*
X74273800Y-26276200D01*
X74273800Y-24523800D01*
X75226200Y-24523800D01*
X75226200Y-26276200D01*
G36*
X75226200Y-26276200D02*
G01*
X74273800Y-26276200D01*
X74273800Y-24523800D01*
X75226200Y-24523800D01*
X75226200Y-26276200D01*
G37*
X76476200Y-26276200D02*
X75523800Y-26276200D01*
X75523800Y-24523800D01*
X76476200Y-24523800D01*
X76476200Y-26276200D01*
G36*
X76476200Y-26276200D02*
G01*
X75523800Y-26276200D01*
X75523800Y-24523800D01*
X76476200Y-24523800D01*
X76476200Y-26276200D01*
G37*
X77726200Y-26276200D02*
X76773800Y-26276200D01*
X76773800Y-24523800D01*
X77726200Y-24523800D01*
X77726200Y-26276200D01*
G36*
X77726200Y-26276200D02*
G01*
X76773800Y-26276200D01*
X76773800Y-24523800D01*
X77726200Y-24523800D01*
X77726200Y-26276200D01*
G37*
X78976200Y-26276200D02*
X78023800Y-26276200D01*
X78023800Y-24523800D01*
X78976200Y-24523800D01*
X78976200Y-26276200D01*
G36*
X78976200Y-26276200D02*
G01*
X78023800Y-26276200D01*
X78023800Y-24523800D01*
X78976200Y-24523800D01*
X78976200Y-26276200D01*
G37*
X80226200Y-26276200D02*
X79273800Y-26276200D01*
X79273800Y-24523800D01*
X80226200Y-24523800D01*
X80226200Y-26276200D01*
G36*
X80226200Y-26276200D02*
G01*
X79273800Y-26276200D01*
X79273800Y-24523800D01*
X80226200Y-24523800D01*
X80226200Y-26276200D01*
G37*
X83426200Y-24076200D02*
X81173800Y-24076200D01*
X81173800Y-20923800D01*
X83426200Y-20923800D01*
X83426200Y-24076200D01*
G36*
X83426200Y-24076200D02*
G01*
X81173800Y-24076200D01*
X81173800Y-20923800D01*
X83426200Y-20923800D01*
X83426200Y-24076200D01*
G37*
X91026200Y-24076200D02*
X88773800Y-24076200D01*
X88773800Y-20923800D01*
X91026200Y-20923800D01*
X91026200Y-24076200D01*
G36*
X91026200Y-24076200D02*
G01*
X88773800Y-24076200D01*
X88773800Y-20923800D01*
X91026200Y-20923800D01*
X91026200Y-24076200D01*
G37*
X92926200Y-26276200D02*
X91973800Y-26276200D01*
X91973800Y-24523800D01*
X92926200Y-24523800D01*
X92926200Y-26276200D01*
G36*
X92926200Y-26276200D02*
G01*
X91973800Y-26276200D01*
X91973800Y-24523800D01*
X92926200Y-24523800D01*
X92926200Y-26276200D01*
G37*
X94176200Y-26276200D02*
X93223800Y-26276200D01*
X93223800Y-24523800D01*
X94176200Y-24523800D01*
X94176200Y-26276200D01*
G36*
X94176200Y-26276200D02*
G01*
X93223800Y-26276200D01*
X93223800Y-24523800D01*
X94176200Y-24523800D01*
X94176200Y-26276200D01*
G37*
X95426200Y-26276200D02*
X94473800Y-26276200D01*
X94473800Y-24523800D01*
X95426200Y-24523800D01*
X95426200Y-26276200D01*
G36*
X95426200Y-26276200D02*
G01*
X94473800Y-26276200D01*
X94473800Y-24523800D01*
X95426200Y-24523800D01*
X95426200Y-26276200D01*
G37*
X96676200Y-26276200D02*
X95723800Y-26276200D01*
X95723800Y-24523800D01*
X96676200Y-24523800D01*
X96676200Y-26276200D01*
G36*
X96676200Y-26276200D02*
G01*
X95723800Y-26276200D01*
X95723800Y-24523800D01*
X96676200Y-24523800D01*
X96676200Y-26276200D01*
G37*
X97926200Y-26276200D02*
X96973800Y-26276200D01*
X96973800Y-24523800D01*
X97926200Y-24523800D01*
X97926200Y-26276200D01*
G36*
X97926200Y-26276200D02*
G01*
X96973800Y-26276200D01*
X96973800Y-24523800D01*
X97926200Y-24523800D01*
X97926200Y-26276200D01*
G37*
X99176200Y-26276200D02*
X98223800Y-26276200D01*
X98223800Y-24523800D01*
X99176200Y-24523800D01*
X99176200Y-26276200D01*
G36*
X99176200Y-26276200D02*
G01*
X98223800Y-26276200D01*
X98223800Y-24523800D01*
X99176200Y-24523800D01*
X99176200Y-26276200D01*
G37*
X100426200Y-26276200D02*
X99473800Y-26276200D01*
X99473800Y-24523800D01*
X100426200Y-24523800D01*
X100426200Y-26276200D01*
G36*
X100426200Y-26276200D02*
G01*
X99473800Y-26276200D01*
X99473800Y-24523800D01*
X100426200Y-24523800D01*
X100426200Y-26276200D01*
G37*
X103626200Y-24076200D02*
X101373800Y-24076200D01*
X101373800Y-20923800D01*
X103626200Y-20923800D01*
X103626200Y-24076200D01*
G36*
X103626200Y-24076200D02*
G01*
X101373800Y-24076200D01*
X101373800Y-20923800D01*
X103626200Y-20923800D01*
X103626200Y-24076200D01*
G37*
X111526200Y-24076200D02*
X109273800Y-24076200D01*
X109273800Y-20923800D01*
X111526200Y-20923800D01*
X111526200Y-24076200D01*
G36*
X111526200Y-24076200D02*
G01*
X109273800Y-24076200D01*
X109273800Y-20923800D01*
X111526200Y-20923800D01*
X111526200Y-24076200D01*
G37*
X113426200Y-26276200D02*
X112473800Y-26276200D01*
X112473800Y-24523800D01*
X113426200Y-24523800D01*
X113426200Y-26276200D01*
G36*
X113426200Y-26276200D02*
G01*
X112473800Y-26276200D01*
X112473800Y-24523800D01*
X113426200Y-24523800D01*
X113426200Y-26276200D01*
G37*
X114676200Y-26276200D02*
X113723800Y-26276200D01*
X113723800Y-24523800D01*
X114676200Y-24523800D01*
X114676200Y-26276200D01*
G36*
X114676200Y-26276200D02*
G01*
X113723800Y-26276200D01*
X113723800Y-24523800D01*
X114676200Y-24523800D01*
X114676200Y-26276200D01*
G37*
X115926200Y-26276200D02*
X114973800Y-26276200D01*
X114973800Y-24523800D01*
X115926200Y-24523800D01*
X115926200Y-26276200D01*
G36*
X115926200Y-26276200D02*
G01*
X114973800Y-26276200D01*
X114973800Y-24523800D01*
X115926200Y-24523800D01*
X115926200Y-26276200D01*
G37*
X117176200Y-26276200D02*
X116223800Y-26276200D01*
X116223800Y-24523800D01*
X117176200Y-24523800D01*
X117176200Y-26276200D01*
G36*
X117176200Y-26276200D02*
G01*
X116223800Y-26276200D01*
X116223800Y-24523800D01*
X117176200Y-24523800D01*
X117176200Y-26276200D01*
G37*
X118426200Y-26276200D02*
X117473800Y-26276200D01*
X117473800Y-24523800D01*
X118426200Y-24523800D01*
X118426200Y-26276200D01*
G36*
X118426200Y-26276200D02*
G01*
X117473800Y-26276200D01*
X117473800Y-24523800D01*
X118426200Y-24523800D01*
X118426200Y-26276200D01*
G37*
X119676200Y-26276200D02*
X118723800Y-26276200D01*
X118723800Y-24523800D01*
X119676200Y-24523800D01*
X119676200Y-26276200D01*
G36*
X119676200Y-26276200D02*
G01*
X118723800Y-26276200D01*
X118723800Y-24523800D01*
X119676200Y-24523800D01*
X119676200Y-26276200D01*
G37*
X120926200Y-26276200D02*
X119973800Y-26276200D01*
X119973800Y-24523800D01*
X120926200Y-24523800D01*
X120926200Y-26276200D01*
G36*
X120926200Y-26276200D02*
G01*
X119973800Y-26276200D01*
X119973800Y-24523800D01*
X120926200Y-24523800D01*
X120926200Y-26276200D01*
G37*
X124126200Y-24076200D02*
X121873800Y-24076200D01*
X121873800Y-20923800D01*
X124126200Y-20923800D01*
X124126200Y-24076200D01*
G36*
X124126200Y-24076200D02*
G01*
X121873800Y-24076200D01*
X121873800Y-20923800D01*
X124126200Y-20923800D01*
X124126200Y-24076200D01*
G37*
X56275000Y-137180000D02*
X55875000Y-137180000D01*
X55475000Y-137180000D01*
X55475000Y-136830000D01*
X56275000Y-136830000D01*
X56275000Y-137180000D01*
G36*
X56275000Y-137180000D02*
G01*
X55875000Y-137180000D01*
X55475000Y-137180000D01*
X55475000Y-136830000D01*
X56275000Y-136830000D01*
X56275000Y-137180000D01*
G37*
X56275000Y-136510000D02*
X55475000Y-136510000D01*
X55475000Y-136160000D01*
X55850000Y-136160000D01*
X55850000Y-135840000D01*
X55475000Y-135840000D01*
X55475000Y-135490000D01*
X55850000Y-135490000D01*
X55850000Y-135170000D01*
X55475000Y-135170000D01*
X55475000Y-134820000D01*
X56275000Y-134820000D01*
X56275000Y-136510000D01*
G36*
X56275000Y-136510000D02*
G01*
X55475000Y-136510000D01*
X55475000Y-136160000D01*
X55850000Y-136160000D01*
X55850000Y-135840000D01*
X55475000Y-135840000D01*
X55475000Y-135490000D01*
X55850000Y-135490000D01*
X55850000Y-135170000D01*
X55475000Y-135170000D01*
X55475000Y-134820000D01*
X56275000Y-134820000D01*
X56275000Y-136510000D01*
G37*
X58525000Y-135170000D02*
X58175000Y-135170000D01*
X58175000Y-135490000D01*
X58525000Y-135490000D01*
X58525000Y-135840000D01*
X58175000Y-135840000D01*
X58175000Y-136160000D01*
X58525000Y-136160000D01*
X58525000Y-136510000D01*
X58175000Y-136510000D01*
X58175000Y-136830000D01*
X58525000Y-136830000D01*
X58525000Y-137180000D01*
X56646000Y-137180000D01*
X56646000Y-134820000D01*
X58525000Y-134820000D01*
X58525000Y-135170000D01*
G36*
X58525000Y-135170000D02*
G01*
X58175000Y-135170000D01*
X58175000Y-135490000D01*
X58525000Y-135490000D01*
X58525000Y-135840000D01*
X58175000Y-135840000D01*
X58175000Y-136160000D01*
X58525000Y-136160000D01*
X58525000Y-136510000D01*
X58175000Y-136510000D01*
X58175000Y-136830000D01*
X58525000Y-136830000D01*
X58525000Y-137180000D01*
X56646000Y-137180000D01*
X56646000Y-134820000D01*
X58525000Y-134820000D01*
X58525000Y-135170000D01*
G37*
D18*
X157500000Y-117912500D03*
X157500000Y-116087500D03*
D19*
X157500000Y-111587500D03*
X157500000Y-113412500D03*
D20*
X163620000Y-114320000D03*
X163620000Y-115320000D03*
D21*
X163620000Y-113300000D03*
X163620000Y-116340000D03*
D22*
X163620000Y-112070000D03*
X163620000Y-117570000D03*
D23*
X40865500Y-77425000D03*
D24*
X52041500Y-77425000D03*
D25*
X125200000Y-142000000D03*
X123375000Y-142000000D03*
D26*
X163500000Y-133000000D03*
X79000000Y-53500000D03*
D27*
X138475000Y-155550000D03*
X138475000Y-157450000D03*
D25*
X88799976Y-139070108D03*
X86974976Y-139070108D03*
D27*
X101299976Y-150670108D03*
X101299976Y-152570108D03*
D28*
X80299976Y-151070108D03*
X78399976Y-151070108D03*
D29*
X24000000Y-165500000D03*
D30*
X79862476Y-162070108D03*
X81737476Y-162070108D03*
D26*
X163500000Y-139500000D03*
D23*
X52144500Y-83925000D03*
D24*
X40968500Y-83925000D03*
D18*
X42500000Y-142912500D03*
X42500000Y-141087500D03*
D23*
X114156000Y-57500000D03*
D24*
X102980000Y-57500000D03*
D31*
X70375800Y-138000000D03*
X76624200Y-138000000D03*
D29*
X24000000Y-25000000D03*
D32*
X67701800Y-118062500D03*
X66000000Y-118062500D03*
D33*
X42000000Y-120905000D03*
X42000000Y-119000000D03*
X39612400Y-119952500D03*
D34*
X135975000Y-132062500D03*
X135975000Y-133937500D03*
D35*
X165960000Y-49840000D03*
X168500000Y-49840000D03*
X165960000Y-52380000D03*
X168500000Y-52380000D03*
X165960000Y-54920000D03*
X168500000Y-54920000D03*
X165960000Y-57460000D03*
X168500000Y-57460000D03*
X165960000Y-60000000D03*
X168500000Y-60000000D03*
X165960000Y-62540000D03*
X168500000Y-62540000D03*
X165960000Y-65080000D03*
X168500000Y-65080000D03*
X165960000Y-67620000D03*
X168500000Y-67620000D03*
X165960000Y-70160000D03*
X168500000Y-70160000D03*
X165960000Y-72700000D03*
X168500000Y-72700000D03*
X165960000Y-75240000D03*
X168500000Y-75240000D03*
X165960000Y-77780000D03*
X168500000Y-77780000D03*
X165960000Y-80320000D03*
X168500000Y-80320000D03*
X165960000Y-82860000D03*
X168500000Y-82860000D03*
X165960000Y-85400000D03*
X168500000Y-85400000D03*
X165960000Y-87940000D03*
X168500000Y-87940000D03*
X165960000Y-90480000D03*
X168500000Y-90480000D03*
X165960000Y-93020000D03*
X168500000Y-93020000D03*
X165960000Y-95560000D03*
X168500000Y-95560000D03*
X165960000Y-98100000D03*
X168500000Y-98100000D03*
D36*
X129475000Y-138334900D03*
X129475000Y-136633100D03*
D37*
X85050000Y-106562500D03*
X86950000Y-106562500D03*
D38*
X73920000Y-59690000D03*
D39*
X79000000Y-60960000D03*
X73920000Y-62230000D03*
X79000000Y-63500000D03*
X73920000Y-64770000D03*
X79000000Y-66040000D03*
X73920000Y-67310000D03*
X79000000Y-68580000D03*
X73920000Y-69850000D03*
X79000000Y-71120000D03*
X73920000Y-72390000D03*
X79000000Y-73660000D03*
X73920000Y-74930000D03*
X79000000Y-76200000D03*
X73920000Y-77470000D03*
D23*
X103110500Y-51500000D03*
D24*
X114286500Y-51500000D03*
D18*
X133475000Y-143912500D03*
X133475000Y-142087500D03*
D26*
X25800000Y-139600000D03*
D37*
X78399976Y-147070108D03*
X80299976Y-147070108D03*
D18*
X92799976Y-152395108D03*
X92799976Y-150570108D03*
D40*
X73500000Y-102000000D03*
D41*
X70960000Y-102000000D03*
D42*
X86974976Y-144070108D03*
X88799976Y-144070108D03*
D43*
X84407676Y-149819415D03*
X84407676Y-150319541D03*
X84407676Y-150819667D03*
X84407676Y-151319793D03*
X84407676Y-151819919D03*
X84407676Y-152320045D03*
X84407676Y-152820171D03*
X84407676Y-153320297D03*
X84407676Y-153820423D03*
X84407676Y-154320549D03*
X84407676Y-154820675D03*
X84407676Y-155320801D03*
D44*
X85049661Y-155973708D03*
X85549787Y-155973708D03*
X86049913Y-155973708D03*
X86550039Y-155973708D03*
X87050165Y-155973708D03*
X87550291Y-155973708D03*
D43*
X88192276Y-155320801D03*
X88192276Y-154820675D03*
X88192276Y-154320549D03*
X88192276Y-153820423D03*
X88192276Y-153320297D03*
X88192276Y-152820171D03*
X88192276Y-152320045D03*
X88192276Y-151819919D03*
X88192276Y-151319793D03*
X88192276Y-150819667D03*
X88192276Y-150319541D03*
X88192276Y-149819415D03*
D44*
X87550291Y-149166508D03*
X87050165Y-149166508D03*
X86550039Y-149166508D03*
X86049913Y-149166508D03*
X85549787Y-149166508D03*
X85049661Y-149166508D03*
D45*
X85599952Y-150640108D03*
X87000000Y-150640108D03*
X85599952Y-152570108D03*
X87000000Y-152570108D03*
X85599952Y-154500000D03*
X87000000Y-154500000D03*
D46*
X84487476Y-149257607D03*
X84487476Y-155882609D03*
X88112476Y-155882609D03*
X88112476Y-149257607D03*
D29*
X164500000Y-25000000D03*
D26*
X89500000Y-96562500D03*
D36*
X97299976Y-154165100D03*
X97299976Y-155866900D03*
D47*
X75274976Y-147070108D03*
X72324976Y-147070108D03*
D27*
X101299976Y-157070108D03*
X101299976Y-158970108D03*
D40*
X142975000Y-140000000D03*
D41*
X140435000Y-140000000D03*
D48*
X108255000Y-69425000D03*
X108255000Y-71925000D03*
D29*
X164500000Y-165500000D03*
D18*
X97299976Y-148482608D03*
X97299976Y-146657608D03*
D49*
X62750000Y-160350000D03*
X49250000Y-160350000D03*
D50*
X59600000Y-154350000D03*
D51*
X52400000Y-154350000D03*
D52*
X32047500Y-126193800D03*
X33952500Y-126193800D03*
X33000000Y-123806200D03*
D47*
X75274976Y-151070108D03*
X72324976Y-151070108D03*
D23*
X112889500Y-84000000D03*
D24*
X101713500Y-84000000D03*
D26*
X82500000Y-94000000D03*
D19*
X75500000Y-112150000D03*
X75500000Y-113975000D03*
D53*
X134975000Y-164450000D03*
X134975000Y-162550000D03*
D37*
X144125000Y-158900000D03*
X146025000Y-158900000D03*
D54*
X138475000Y-162437500D03*
X138475000Y-164562500D03*
D26*
X26000000Y-147000000D03*
D25*
X84212476Y-139070108D03*
X82387476Y-139070108D03*
D19*
X66500000Y-112150000D03*
X66500000Y-113975000D03*
D55*
X43000000Y-167500000D03*
X38000000Y-167500000D03*
D27*
X59255000Y-68475000D03*
X59255000Y-70375000D03*
D37*
X144125000Y-163900000D03*
X146025000Y-163900000D03*
D26*
X163500000Y-146000000D03*
D32*
X74798200Y-118062500D03*
X76500000Y-118062500D03*
D18*
X92799976Y-157482608D03*
X92799976Y-155657608D03*
D56*
X52000000Y-21000000D03*
X53999999Y-21000000D03*
X56000000Y-21000000D03*
X57999998Y-21000000D03*
D34*
X71000000Y-112125000D03*
X71000000Y-114000000D03*
D23*
X101713500Y-90500000D03*
D24*
X112889500Y-90500000D03*
D19*
X129475000Y-132000000D03*
X129475000Y-133825000D03*
D56*
X134000002Y-21000000D03*
X136000001Y-21000000D03*
X138000002Y-21000000D03*
X140000000Y-21000000D03*
D40*
X92799976Y-162070108D03*
D41*
X90259976Y-162070108D03*
D57*
X21000000Y-122500000D03*
D58*
X21000000Y-120500000D03*
X21000000Y-118500000D03*
X21000000Y-116500000D03*
D52*
X33952500Y-113806200D03*
X32047500Y-113806200D03*
X33000000Y-116193800D03*
D26*
X62500000Y-142500000D03*
D27*
X142975000Y-148600000D03*
X142975000Y-150500000D03*
D59*
X88300000Y-110462500D03*
X86000000Y-110462500D03*
X83700000Y-110462500D03*
D60*
X86000000Y-116662500D03*
D26*
X111799976Y-157070108D03*
D23*
X40865500Y-62425000D03*
D24*
X52041500Y-62425000D03*
D61*
X81862476Y-157070108D03*
X79737476Y-157070108D03*
D23*
X52144500Y-56425000D03*
D24*
X40968500Y-56425000D03*
D40*
X73500000Y-97000000D03*
D41*
X70960000Y-97000000D03*
D62*
X150480000Y-24000000D03*
D63*
X146520000Y-24000000D03*
D62*
X44500000Y-24000000D03*
D63*
X40540000Y-24000000D03*
D53*
X37770000Y-140035720D03*
X37770000Y-138135720D03*
X91500000Y-108012500D03*
X91500000Y-106112500D03*
D19*
X49500000Y-135087500D03*
X49500000Y-136912500D03*
%LPD*%
M02*
