G04 #@! TF.GenerationSoftware,KiCad,Pcbnew,8.0.6*
G04 #@! TF.CreationDate,2025-01-22T16:51:43-05:00*
G04 #@! TF.ProjectId,Main_Board_Rev1,4d61696e-5f42-46f6-9172-645f52657631,rev?*
G04 #@! TF.SameCoordinates,Original*
G04 #@! TF.FileFunction,Legend,Bot*
G04 #@! TF.FilePolarity,Positive*
%FSLAX46Y46*%
G04 Gerber Fmt 4.6, Leading zero omitted, Abs format (unit mm)*
G04 Created by KiCad (PCBNEW 8.0.6) date 2025-01-22 16:51:43*
%MOMM*%
%LPD*%
G01*
G04 APERTURE LIST*
G04 Aperture macros list*
%AMRoundRect*
0 Rectangle with rounded corners*
0 $1 Rounding radius*
0 $2 $3 $4 $5 $6 $7 $8 $9 X,Y pos of 4 corners*
0 Add a 4 corners polygon primitive as box body*
4,1,4,$2,$3,$4,$5,$6,$7,$8,$9,$2,$3,0*
0 Add four circle primitives for the rounded corners*
1,1,$1+$1,$2,$3*
1,1,$1+$1,$4,$5*
1,1,$1+$1,$6,$7*
1,1,$1+$1,$8,$9*
0 Add four rect primitives between the rounded corners*
20,1,$1+$1,$2,$3,$4,$5,0*
20,1,$1+$1,$4,$5,$6,$7,0*
20,1,$1+$1,$6,$7,$8,$9,0*
20,1,$1+$1,$8,$9,$2,$3,0*%
G04 Aperture macros list end*
%ADD10C,0.508000*%
%ADD11C,0.010000*%
%ADD12R,1.625600X1.625600*%
%ADD13C,1.625600*%
%ADD14C,9.200000*%
%ADD15C,1.524000*%
%ADD16R,1.800000X1.800000*%
%ADD17O,1.800000X1.800000*%
%ADD18R,1.700000X1.700000*%
%ADD19O,1.700000X1.700000*%
%ADD20C,1.270000*%
%ADD21R,0.900000X2.000000*%
%ADD22RoundRect,1.025000X1.025000X1.025000X-1.025000X1.025000X-1.025000X-1.025000X1.025000X-1.025000X0*%
%ADD23C,4.100000*%
%ADD24C,1.803400*%
%ADD25C,1.320800*%
%ADD26RoundRect,0.102000X-0.600000X0.600000X-0.600000X-0.600000X0.600000X-0.600000X0.600000X0.600000X0*%
%ADD27C,1.404000*%
%ADD28RoundRect,0.102000X1.500000X1.500000X-1.500000X1.500000X-1.500000X-1.500000X1.500000X-1.500000X0*%
%ADD29C,3.204000*%
G04 APERTURE END LIST*
D10*
X166341000Y-46258600D02*
G75*
G02*
X165579000Y-46258600I-381000J0D01*
G01*
X165579000Y-46258600D02*
G75*
G02*
X166341000Y-46258600I381000J0D01*
G01*
X47789800Y-167500000D02*
G75*
G02*
X47027800Y-167500000I-381000J0D01*
G01*
X47027800Y-167500000D02*
G75*
G02*
X47789800Y-167500000I381000J0D01*
G01*
X49665999Y-21000000D02*
G75*
G02*
X48903999Y-21000000I-381000J0D01*
G01*
X48903999Y-21000000D02*
G75*
G02*
X49665999Y-21000000I381000J0D01*
G01*
X131666001Y-21000000D02*
G75*
G02*
X130904001Y-21000000I-381000J0D01*
G01*
X130904001Y-21000000D02*
G75*
G02*
X131666001Y-21000000I381000J0D01*
G01*
%LPC*%
D11*
X164034000Y-109851000D02*
X164068000Y-109854000D01*
X164102000Y-109858000D01*
X164135000Y-109864000D01*
X164168000Y-109872000D01*
X164201000Y-109882000D01*
X164233000Y-109893000D01*
X164264000Y-109906000D01*
X164295000Y-109921000D01*
X164325000Y-109937000D01*
X164354000Y-109955000D01*
X164382000Y-109974000D01*
X164409000Y-109995000D01*
X164435000Y-110017000D01*
X164460000Y-110040000D01*
X164483000Y-110065000D01*
X164505000Y-110091000D01*
X164526000Y-110118000D01*
X164545000Y-110146000D01*
X164563000Y-110175000D01*
X164579000Y-110205000D01*
X164594000Y-110236000D01*
X164607000Y-110267000D01*
X164618000Y-110299000D01*
X164628000Y-110332000D01*
X164636000Y-110365000D01*
X164642000Y-110398000D01*
X164646000Y-110432000D01*
X164649000Y-110466000D01*
X164650000Y-110500000D01*
X164649000Y-110534000D01*
X164646000Y-110568000D01*
X164642000Y-110602000D01*
X164636000Y-110635000D01*
X164628000Y-110668000D01*
X164618000Y-110701000D01*
X164607000Y-110733000D01*
X164594000Y-110764000D01*
X164579000Y-110795000D01*
X164563000Y-110825000D01*
X164545000Y-110854000D01*
X164526000Y-110882000D01*
X164505000Y-110909000D01*
X164483000Y-110935000D01*
X164460000Y-110960000D01*
X164435000Y-110983000D01*
X164409000Y-111005000D01*
X164382000Y-111026000D01*
X164354000Y-111045000D01*
X164325000Y-111063000D01*
X164295000Y-111079000D01*
X164264000Y-111094000D01*
X164233000Y-111107000D01*
X164201000Y-111118000D01*
X164168000Y-111128000D01*
X164135000Y-111136000D01*
X164102000Y-111142000D01*
X164068000Y-111146000D01*
X164034000Y-111149000D01*
X164000000Y-111150000D01*
X163400000Y-111150000D01*
X163366000Y-111149000D01*
X163332000Y-111146000D01*
X163298000Y-111142000D01*
X163265000Y-111136000D01*
X163232000Y-111128000D01*
X163199000Y-111118000D01*
X163167000Y-111107000D01*
X163136000Y-111094000D01*
X163105000Y-111079000D01*
X163075000Y-111063000D01*
X163046000Y-111045000D01*
X163018000Y-111026000D01*
X162991000Y-111005000D01*
X162965000Y-110983000D01*
X162940000Y-110960000D01*
X162917000Y-110935000D01*
X162895000Y-110909000D01*
X162874000Y-110882000D01*
X162855000Y-110854000D01*
X162837000Y-110825000D01*
X162821000Y-110795000D01*
X162806000Y-110764000D01*
X162793000Y-110733000D01*
X162782000Y-110701000D01*
X162772000Y-110668000D01*
X162764000Y-110635000D01*
X162758000Y-110602000D01*
X162754000Y-110568000D01*
X162751000Y-110534000D01*
X162750000Y-110500000D01*
X162751000Y-110466000D01*
X162754000Y-110432000D01*
X162758000Y-110398000D01*
X162764000Y-110365000D01*
X162772000Y-110332000D01*
X162782000Y-110299000D01*
X162793000Y-110267000D01*
X162806000Y-110236000D01*
X162821000Y-110205000D01*
X162837000Y-110175000D01*
X162855000Y-110146000D01*
X162874000Y-110118000D01*
X162895000Y-110091000D01*
X162917000Y-110065000D01*
X162940000Y-110040000D01*
X162965000Y-110017000D01*
X162991000Y-109995000D01*
X163018000Y-109974000D01*
X163046000Y-109955000D01*
X163075000Y-109937000D01*
X163105000Y-109921000D01*
X163136000Y-109906000D01*
X163167000Y-109893000D01*
X163199000Y-109882000D01*
X163232000Y-109872000D01*
X163265000Y-109864000D01*
X163298000Y-109858000D01*
X163332000Y-109854000D01*
X163366000Y-109851000D01*
X163400000Y-109850000D01*
X164000000Y-109850000D01*
X164034000Y-109851000D01*
G36*
X164034000Y-109851000D02*
G01*
X164068000Y-109854000D01*
X164102000Y-109858000D01*
X164135000Y-109864000D01*
X164168000Y-109872000D01*
X164201000Y-109882000D01*
X164233000Y-109893000D01*
X164264000Y-109906000D01*
X164295000Y-109921000D01*
X164325000Y-109937000D01*
X164354000Y-109955000D01*
X164382000Y-109974000D01*
X164409000Y-109995000D01*
X164435000Y-110017000D01*
X164460000Y-110040000D01*
X164483000Y-110065000D01*
X164505000Y-110091000D01*
X164526000Y-110118000D01*
X164545000Y-110146000D01*
X164563000Y-110175000D01*
X164579000Y-110205000D01*
X164594000Y-110236000D01*
X164607000Y-110267000D01*
X164618000Y-110299000D01*
X164628000Y-110332000D01*
X164636000Y-110365000D01*
X164642000Y-110398000D01*
X164646000Y-110432000D01*
X164649000Y-110466000D01*
X164650000Y-110500000D01*
X164649000Y-110534000D01*
X164646000Y-110568000D01*
X164642000Y-110602000D01*
X164636000Y-110635000D01*
X164628000Y-110668000D01*
X164618000Y-110701000D01*
X164607000Y-110733000D01*
X164594000Y-110764000D01*
X164579000Y-110795000D01*
X164563000Y-110825000D01*
X164545000Y-110854000D01*
X164526000Y-110882000D01*
X164505000Y-110909000D01*
X164483000Y-110935000D01*
X164460000Y-110960000D01*
X164435000Y-110983000D01*
X164409000Y-111005000D01*
X164382000Y-111026000D01*
X164354000Y-111045000D01*
X164325000Y-111063000D01*
X164295000Y-111079000D01*
X164264000Y-111094000D01*
X164233000Y-111107000D01*
X164201000Y-111118000D01*
X164168000Y-111128000D01*
X164135000Y-111136000D01*
X164102000Y-111142000D01*
X164068000Y-111146000D01*
X164034000Y-111149000D01*
X164000000Y-111150000D01*
X163400000Y-111150000D01*
X163366000Y-111149000D01*
X163332000Y-111146000D01*
X163298000Y-111142000D01*
X163265000Y-111136000D01*
X163232000Y-111128000D01*
X163199000Y-111118000D01*
X163167000Y-111107000D01*
X163136000Y-111094000D01*
X163105000Y-111079000D01*
X163075000Y-111063000D01*
X163046000Y-111045000D01*
X163018000Y-111026000D01*
X162991000Y-111005000D01*
X162965000Y-110983000D01*
X162940000Y-110960000D01*
X162917000Y-110935000D01*
X162895000Y-110909000D01*
X162874000Y-110882000D01*
X162855000Y-110854000D01*
X162837000Y-110825000D01*
X162821000Y-110795000D01*
X162806000Y-110764000D01*
X162793000Y-110733000D01*
X162782000Y-110701000D01*
X162772000Y-110668000D01*
X162764000Y-110635000D01*
X162758000Y-110602000D01*
X162754000Y-110568000D01*
X162751000Y-110534000D01*
X162750000Y-110500000D01*
X162751000Y-110466000D01*
X162754000Y-110432000D01*
X162758000Y-110398000D01*
X162764000Y-110365000D01*
X162772000Y-110332000D01*
X162782000Y-110299000D01*
X162793000Y-110267000D01*
X162806000Y-110236000D01*
X162821000Y-110205000D01*
X162837000Y-110175000D01*
X162855000Y-110146000D01*
X162874000Y-110118000D01*
X162895000Y-110091000D01*
X162917000Y-110065000D01*
X162940000Y-110040000D01*
X162965000Y-110017000D01*
X162991000Y-109995000D01*
X163018000Y-109974000D01*
X163046000Y-109955000D01*
X163075000Y-109937000D01*
X163105000Y-109921000D01*
X163136000Y-109906000D01*
X163167000Y-109893000D01*
X163199000Y-109882000D01*
X163232000Y-109872000D01*
X163265000Y-109864000D01*
X163298000Y-109858000D01*
X163332000Y-109854000D01*
X163366000Y-109851000D01*
X163400000Y-109850000D01*
X164000000Y-109850000D01*
X164034000Y-109851000D01*
G37*
X164034000Y-118491000D02*
X164068000Y-118494000D01*
X164102000Y-118498000D01*
X164135000Y-118504000D01*
X164168000Y-118512000D01*
X164201000Y-118522000D01*
X164233000Y-118533000D01*
X164264000Y-118546000D01*
X164295000Y-118561000D01*
X164325000Y-118577000D01*
X164354000Y-118595000D01*
X164382000Y-118614000D01*
X164409000Y-118635000D01*
X164435000Y-118657000D01*
X164460000Y-118680000D01*
X164483000Y-118705000D01*
X164505000Y-118731000D01*
X164526000Y-118758000D01*
X164545000Y-118786000D01*
X164563000Y-118815000D01*
X164579000Y-118845000D01*
X164594000Y-118876000D01*
X164607000Y-118907000D01*
X164618000Y-118939000D01*
X164628000Y-118972000D01*
X164636000Y-119005000D01*
X164642000Y-119038000D01*
X164646000Y-119072000D01*
X164649000Y-119106000D01*
X164650000Y-119140000D01*
X164649000Y-119174000D01*
X164646000Y-119208000D01*
X164642000Y-119242000D01*
X164636000Y-119275000D01*
X164628000Y-119308000D01*
X164618000Y-119341000D01*
X164607000Y-119373000D01*
X164594000Y-119404000D01*
X164579000Y-119435000D01*
X164563000Y-119465000D01*
X164545000Y-119494000D01*
X164526000Y-119522000D01*
X164505000Y-119549000D01*
X164483000Y-119575000D01*
X164460000Y-119600000D01*
X164435000Y-119623000D01*
X164409000Y-119645000D01*
X164382000Y-119666000D01*
X164354000Y-119685000D01*
X164325000Y-119703000D01*
X164295000Y-119719000D01*
X164264000Y-119734000D01*
X164233000Y-119747000D01*
X164201000Y-119758000D01*
X164168000Y-119768000D01*
X164135000Y-119776000D01*
X164102000Y-119782000D01*
X164068000Y-119786000D01*
X164034000Y-119789000D01*
X164000000Y-119790000D01*
X163400000Y-119790000D01*
X163366000Y-119789000D01*
X163332000Y-119786000D01*
X163298000Y-119782000D01*
X163265000Y-119776000D01*
X163232000Y-119768000D01*
X163199000Y-119758000D01*
X163167000Y-119747000D01*
X163136000Y-119734000D01*
X163105000Y-119719000D01*
X163075000Y-119703000D01*
X163046000Y-119685000D01*
X163018000Y-119666000D01*
X162991000Y-119645000D01*
X162965000Y-119623000D01*
X162940000Y-119600000D01*
X162917000Y-119575000D01*
X162895000Y-119549000D01*
X162874000Y-119522000D01*
X162855000Y-119494000D01*
X162837000Y-119465000D01*
X162821000Y-119435000D01*
X162806000Y-119404000D01*
X162793000Y-119373000D01*
X162782000Y-119341000D01*
X162772000Y-119308000D01*
X162764000Y-119275000D01*
X162758000Y-119242000D01*
X162754000Y-119208000D01*
X162751000Y-119174000D01*
X162750000Y-119140000D01*
X162751000Y-119106000D01*
X162754000Y-119072000D01*
X162758000Y-119038000D01*
X162764000Y-119005000D01*
X162772000Y-118972000D01*
X162782000Y-118939000D01*
X162793000Y-118907000D01*
X162806000Y-118876000D01*
X162821000Y-118845000D01*
X162837000Y-118815000D01*
X162855000Y-118786000D01*
X162874000Y-118758000D01*
X162895000Y-118731000D01*
X162917000Y-118705000D01*
X162940000Y-118680000D01*
X162965000Y-118657000D01*
X162991000Y-118635000D01*
X163018000Y-118614000D01*
X163046000Y-118595000D01*
X163075000Y-118577000D01*
X163105000Y-118561000D01*
X163136000Y-118546000D01*
X163167000Y-118533000D01*
X163199000Y-118522000D01*
X163232000Y-118512000D01*
X163265000Y-118504000D01*
X163298000Y-118498000D01*
X163332000Y-118494000D01*
X163366000Y-118491000D01*
X163400000Y-118490000D01*
X164000000Y-118490000D01*
X164034000Y-118491000D01*
G36*
X164034000Y-118491000D02*
G01*
X164068000Y-118494000D01*
X164102000Y-118498000D01*
X164135000Y-118504000D01*
X164168000Y-118512000D01*
X164201000Y-118522000D01*
X164233000Y-118533000D01*
X164264000Y-118546000D01*
X164295000Y-118561000D01*
X164325000Y-118577000D01*
X164354000Y-118595000D01*
X164382000Y-118614000D01*
X164409000Y-118635000D01*
X164435000Y-118657000D01*
X164460000Y-118680000D01*
X164483000Y-118705000D01*
X164505000Y-118731000D01*
X164526000Y-118758000D01*
X164545000Y-118786000D01*
X164563000Y-118815000D01*
X164579000Y-118845000D01*
X164594000Y-118876000D01*
X164607000Y-118907000D01*
X164618000Y-118939000D01*
X164628000Y-118972000D01*
X164636000Y-119005000D01*
X164642000Y-119038000D01*
X164646000Y-119072000D01*
X164649000Y-119106000D01*
X164650000Y-119140000D01*
X164649000Y-119174000D01*
X164646000Y-119208000D01*
X164642000Y-119242000D01*
X164636000Y-119275000D01*
X164628000Y-119308000D01*
X164618000Y-119341000D01*
X164607000Y-119373000D01*
X164594000Y-119404000D01*
X164579000Y-119435000D01*
X164563000Y-119465000D01*
X164545000Y-119494000D01*
X164526000Y-119522000D01*
X164505000Y-119549000D01*
X164483000Y-119575000D01*
X164460000Y-119600000D01*
X164435000Y-119623000D01*
X164409000Y-119645000D01*
X164382000Y-119666000D01*
X164354000Y-119685000D01*
X164325000Y-119703000D01*
X164295000Y-119719000D01*
X164264000Y-119734000D01*
X164233000Y-119747000D01*
X164201000Y-119758000D01*
X164168000Y-119768000D01*
X164135000Y-119776000D01*
X164102000Y-119782000D01*
X164068000Y-119786000D01*
X164034000Y-119789000D01*
X164000000Y-119790000D01*
X163400000Y-119790000D01*
X163366000Y-119789000D01*
X163332000Y-119786000D01*
X163298000Y-119782000D01*
X163265000Y-119776000D01*
X163232000Y-119768000D01*
X163199000Y-119758000D01*
X163167000Y-119747000D01*
X163136000Y-119734000D01*
X163105000Y-119719000D01*
X163075000Y-119703000D01*
X163046000Y-119685000D01*
X163018000Y-119666000D01*
X162991000Y-119645000D01*
X162965000Y-119623000D01*
X162940000Y-119600000D01*
X162917000Y-119575000D01*
X162895000Y-119549000D01*
X162874000Y-119522000D01*
X162855000Y-119494000D01*
X162837000Y-119465000D01*
X162821000Y-119435000D01*
X162806000Y-119404000D01*
X162793000Y-119373000D01*
X162782000Y-119341000D01*
X162772000Y-119308000D01*
X162764000Y-119275000D01*
X162758000Y-119242000D01*
X162754000Y-119208000D01*
X162751000Y-119174000D01*
X162750000Y-119140000D01*
X162751000Y-119106000D01*
X162754000Y-119072000D01*
X162758000Y-119038000D01*
X162764000Y-119005000D01*
X162772000Y-118972000D01*
X162782000Y-118939000D01*
X162793000Y-118907000D01*
X162806000Y-118876000D01*
X162821000Y-118845000D01*
X162837000Y-118815000D01*
X162855000Y-118786000D01*
X162874000Y-118758000D01*
X162895000Y-118731000D01*
X162917000Y-118705000D01*
X162940000Y-118680000D01*
X162965000Y-118657000D01*
X162991000Y-118635000D01*
X163018000Y-118614000D01*
X163046000Y-118595000D01*
X163075000Y-118577000D01*
X163105000Y-118561000D01*
X163136000Y-118546000D01*
X163167000Y-118533000D01*
X163199000Y-118522000D01*
X163232000Y-118512000D01*
X163265000Y-118504000D01*
X163298000Y-118498000D01*
X163332000Y-118494000D01*
X163366000Y-118491000D01*
X163400000Y-118490000D01*
X164000000Y-118490000D01*
X164034000Y-118491000D01*
G37*
X167834000Y-109851000D02*
X167868000Y-109854000D01*
X167902000Y-109858000D01*
X167935000Y-109864000D01*
X167968000Y-109872000D01*
X168001000Y-109882000D01*
X168033000Y-109893000D01*
X168064000Y-109906000D01*
X168095000Y-109921000D01*
X168125000Y-109937000D01*
X168154000Y-109955000D01*
X168182000Y-109974000D01*
X168209000Y-109995000D01*
X168235000Y-110017000D01*
X168260000Y-110040000D01*
X168283000Y-110065000D01*
X168305000Y-110091000D01*
X168326000Y-110118000D01*
X168345000Y-110146000D01*
X168363000Y-110175000D01*
X168379000Y-110205000D01*
X168394000Y-110236000D01*
X168407000Y-110267000D01*
X168418000Y-110299000D01*
X168428000Y-110332000D01*
X168436000Y-110365000D01*
X168442000Y-110398000D01*
X168446000Y-110432000D01*
X168449000Y-110466000D01*
X168450000Y-110500000D01*
X168449000Y-110534000D01*
X168446000Y-110568000D01*
X168442000Y-110602000D01*
X168436000Y-110635000D01*
X168428000Y-110668000D01*
X168418000Y-110701000D01*
X168407000Y-110733000D01*
X168394000Y-110764000D01*
X168379000Y-110795000D01*
X168363000Y-110825000D01*
X168345000Y-110854000D01*
X168326000Y-110882000D01*
X168305000Y-110909000D01*
X168283000Y-110935000D01*
X168260000Y-110960000D01*
X168235000Y-110983000D01*
X168209000Y-111005000D01*
X168182000Y-111026000D01*
X168154000Y-111045000D01*
X168125000Y-111063000D01*
X168095000Y-111079000D01*
X168064000Y-111094000D01*
X168033000Y-111107000D01*
X168001000Y-111118000D01*
X167968000Y-111128000D01*
X167935000Y-111136000D01*
X167902000Y-111142000D01*
X167868000Y-111146000D01*
X167834000Y-111149000D01*
X167800000Y-111150000D01*
X167200000Y-111150000D01*
X167166000Y-111149000D01*
X167132000Y-111146000D01*
X167098000Y-111142000D01*
X167065000Y-111136000D01*
X167032000Y-111128000D01*
X166999000Y-111118000D01*
X166967000Y-111107000D01*
X166936000Y-111094000D01*
X166905000Y-111079000D01*
X166875000Y-111063000D01*
X166846000Y-111045000D01*
X166818000Y-111026000D01*
X166791000Y-111005000D01*
X166765000Y-110983000D01*
X166740000Y-110960000D01*
X166717000Y-110935000D01*
X166695000Y-110909000D01*
X166674000Y-110882000D01*
X166655000Y-110854000D01*
X166637000Y-110825000D01*
X166621000Y-110795000D01*
X166606000Y-110764000D01*
X166593000Y-110733000D01*
X166582000Y-110701000D01*
X166572000Y-110668000D01*
X166564000Y-110635000D01*
X166558000Y-110602000D01*
X166554000Y-110568000D01*
X166551000Y-110534000D01*
X166550000Y-110500000D01*
X166551000Y-110466000D01*
X166554000Y-110432000D01*
X166558000Y-110398000D01*
X166564000Y-110365000D01*
X166572000Y-110332000D01*
X166582000Y-110299000D01*
X166593000Y-110267000D01*
X166606000Y-110236000D01*
X166621000Y-110205000D01*
X166637000Y-110175000D01*
X166655000Y-110146000D01*
X166674000Y-110118000D01*
X166695000Y-110091000D01*
X166717000Y-110065000D01*
X166740000Y-110040000D01*
X166765000Y-110017000D01*
X166791000Y-109995000D01*
X166818000Y-109974000D01*
X166846000Y-109955000D01*
X166875000Y-109937000D01*
X166905000Y-109921000D01*
X166936000Y-109906000D01*
X166967000Y-109893000D01*
X166999000Y-109882000D01*
X167032000Y-109872000D01*
X167065000Y-109864000D01*
X167098000Y-109858000D01*
X167132000Y-109854000D01*
X167166000Y-109851000D01*
X167200000Y-109850000D01*
X167800000Y-109850000D01*
X167834000Y-109851000D01*
G36*
X167834000Y-109851000D02*
G01*
X167868000Y-109854000D01*
X167902000Y-109858000D01*
X167935000Y-109864000D01*
X167968000Y-109872000D01*
X168001000Y-109882000D01*
X168033000Y-109893000D01*
X168064000Y-109906000D01*
X168095000Y-109921000D01*
X168125000Y-109937000D01*
X168154000Y-109955000D01*
X168182000Y-109974000D01*
X168209000Y-109995000D01*
X168235000Y-110017000D01*
X168260000Y-110040000D01*
X168283000Y-110065000D01*
X168305000Y-110091000D01*
X168326000Y-110118000D01*
X168345000Y-110146000D01*
X168363000Y-110175000D01*
X168379000Y-110205000D01*
X168394000Y-110236000D01*
X168407000Y-110267000D01*
X168418000Y-110299000D01*
X168428000Y-110332000D01*
X168436000Y-110365000D01*
X168442000Y-110398000D01*
X168446000Y-110432000D01*
X168449000Y-110466000D01*
X168450000Y-110500000D01*
X168449000Y-110534000D01*
X168446000Y-110568000D01*
X168442000Y-110602000D01*
X168436000Y-110635000D01*
X168428000Y-110668000D01*
X168418000Y-110701000D01*
X168407000Y-110733000D01*
X168394000Y-110764000D01*
X168379000Y-110795000D01*
X168363000Y-110825000D01*
X168345000Y-110854000D01*
X168326000Y-110882000D01*
X168305000Y-110909000D01*
X168283000Y-110935000D01*
X168260000Y-110960000D01*
X168235000Y-110983000D01*
X168209000Y-111005000D01*
X168182000Y-111026000D01*
X168154000Y-111045000D01*
X168125000Y-111063000D01*
X168095000Y-111079000D01*
X168064000Y-111094000D01*
X168033000Y-111107000D01*
X168001000Y-111118000D01*
X167968000Y-111128000D01*
X167935000Y-111136000D01*
X167902000Y-111142000D01*
X167868000Y-111146000D01*
X167834000Y-111149000D01*
X167800000Y-111150000D01*
X167200000Y-111150000D01*
X167166000Y-111149000D01*
X167132000Y-111146000D01*
X167098000Y-111142000D01*
X167065000Y-111136000D01*
X167032000Y-111128000D01*
X166999000Y-111118000D01*
X166967000Y-111107000D01*
X166936000Y-111094000D01*
X166905000Y-111079000D01*
X166875000Y-111063000D01*
X166846000Y-111045000D01*
X166818000Y-111026000D01*
X166791000Y-111005000D01*
X166765000Y-110983000D01*
X166740000Y-110960000D01*
X166717000Y-110935000D01*
X166695000Y-110909000D01*
X166674000Y-110882000D01*
X166655000Y-110854000D01*
X166637000Y-110825000D01*
X166621000Y-110795000D01*
X166606000Y-110764000D01*
X166593000Y-110733000D01*
X166582000Y-110701000D01*
X166572000Y-110668000D01*
X166564000Y-110635000D01*
X166558000Y-110602000D01*
X166554000Y-110568000D01*
X166551000Y-110534000D01*
X166550000Y-110500000D01*
X166551000Y-110466000D01*
X166554000Y-110432000D01*
X166558000Y-110398000D01*
X166564000Y-110365000D01*
X166572000Y-110332000D01*
X166582000Y-110299000D01*
X166593000Y-110267000D01*
X166606000Y-110236000D01*
X166621000Y-110205000D01*
X166637000Y-110175000D01*
X166655000Y-110146000D01*
X166674000Y-110118000D01*
X166695000Y-110091000D01*
X166717000Y-110065000D01*
X166740000Y-110040000D01*
X166765000Y-110017000D01*
X166791000Y-109995000D01*
X166818000Y-109974000D01*
X166846000Y-109955000D01*
X166875000Y-109937000D01*
X166905000Y-109921000D01*
X166936000Y-109906000D01*
X166967000Y-109893000D01*
X166999000Y-109882000D01*
X167032000Y-109872000D01*
X167065000Y-109864000D01*
X167098000Y-109858000D01*
X167132000Y-109854000D01*
X167166000Y-109851000D01*
X167200000Y-109850000D01*
X167800000Y-109850000D01*
X167834000Y-109851000D01*
G37*
X167834000Y-118491000D02*
X167868000Y-118494000D01*
X167902000Y-118498000D01*
X167935000Y-118504000D01*
X167968000Y-118512000D01*
X168001000Y-118522000D01*
X168033000Y-118533000D01*
X168064000Y-118546000D01*
X168095000Y-118561000D01*
X168125000Y-118577000D01*
X168154000Y-118595000D01*
X168182000Y-118614000D01*
X168209000Y-118635000D01*
X168235000Y-118657000D01*
X168260000Y-118680000D01*
X168283000Y-118705000D01*
X168305000Y-118731000D01*
X168326000Y-118758000D01*
X168345000Y-118786000D01*
X168363000Y-118815000D01*
X168379000Y-118845000D01*
X168394000Y-118876000D01*
X168407000Y-118907000D01*
X168418000Y-118939000D01*
X168428000Y-118972000D01*
X168436000Y-119005000D01*
X168442000Y-119038000D01*
X168446000Y-119072000D01*
X168449000Y-119106000D01*
X168450000Y-119140000D01*
X168449000Y-119174000D01*
X168446000Y-119208000D01*
X168442000Y-119242000D01*
X168436000Y-119275000D01*
X168428000Y-119308000D01*
X168418000Y-119341000D01*
X168407000Y-119373000D01*
X168394000Y-119404000D01*
X168379000Y-119435000D01*
X168363000Y-119465000D01*
X168345000Y-119494000D01*
X168326000Y-119522000D01*
X168305000Y-119549000D01*
X168283000Y-119575000D01*
X168260000Y-119600000D01*
X168235000Y-119623000D01*
X168209000Y-119645000D01*
X168182000Y-119666000D01*
X168154000Y-119685000D01*
X168125000Y-119703000D01*
X168095000Y-119719000D01*
X168064000Y-119734000D01*
X168033000Y-119747000D01*
X168001000Y-119758000D01*
X167968000Y-119768000D01*
X167935000Y-119776000D01*
X167902000Y-119782000D01*
X167868000Y-119786000D01*
X167834000Y-119789000D01*
X167800000Y-119790000D01*
X167200000Y-119790000D01*
X167166000Y-119789000D01*
X167132000Y-119786000D01*
X167098000Y-119782000D01*
X167065000Y-119776000D01*
X167032000Y-119768000D01*
X166999000Y-119758000D01*
X166967000Y-119747000D01*
X166936000Y-119734000D01*
X166905000Y-119719000D01*
X166875000Y-119703000D01*
X166846000Y-119685000D01*
X166818000Y-119666000D01*
X166791000Y-119645000D01*
X166765000Y-119623000D01*
X166740000Y-119600000D01*
X166717000Y-119575000D01*
X166695000Y-119549000D01*
X166674000Y-119522000D01*
X166655000Y-119494000D01*
X166637000Y-119465000D01*
X166621000Y-119435000D01*
X166606000Y-119404000D01*
X166593000Y-119373000D01*
X166582000Y-119341000D01*
X166572000Y-119308000D01*
X166564000Y-119275000D01*
X166558000Y-119242000D01*
X166554000Y-119208000D01*
X166551000Y-119174000D01*
X166550000Y-119140000D01*
X166551000Y-119106000D01*
X166554000Y-119072000D01*
X166558000Y-119038000D01*
X166564000Y-119005000D01*
X166572000Y-118972000D01*
X166582000Y-118939000D01*
X166593000Y-118907000D01*
X166606000Y-118876000D01*
X166621000Y-118845000D01*
X166637000Y-118815000D01*
X166655000Y-118786000D01*
X166674000Y-118758000D01*
X166695000Y-118731000D01*
X166717000Y-118705000D01*
X166740000Y-118680000D01*
X166765000Y-118657000D01*
X166791000Y-118635000D01*
X166818000Y-118614000D01*
X166846000Y-118595000D01*
X166875000Y-118577000D01*
X166905000Y-118561000D01*
X166936000Y-118546000D01*
X166967000Y-118533000D01*
X166999000Y-118522000D01*
X167032000Y-118512000D01*
X167065000Y-118504000D01*
X167098000Y-118498000D01*
X167132000Y-118494000D01*
X167166000Y-118491000D01*
X167200000Y-118490000D01*
X167800000Y-118490000D01*
X167834000Y-118491000D01*
G36*
X167834000Y-118491000D02*
G01*
X167868000Y-118494000D01*
X167902000Y-118498000D01*
X167935000Y-118504000D01*
X167968000Y-118512000D01*
X168001000Y-118522000D01*
X168033000Y-118533000D01*
X168064000Y-118546000D01*
X168095000Y-118561000D01*
X168125000Y-118577000D01*
X168154000Y-118595000D01*
X168182000Y-118614000D01*
X168209000Y-118635000D01*
X168235000Y-118657000D01*
X168260000Y-118680000D01*
X168283000Y-118705000D01*
X168305000Y-118731000D01*
X168326000Y-118758000D01*
X168345000Y-118786000D01*
X168363000Y-118815000D01*
X168379000Y-118845000D01*
X168394000Y-118876000D01*
X168407000Y-118907000D01*
X168418000Y-118939000D01*
X168428000Y-118972000D01*
X168436000Y-119005000D01*
X168442000Y-119038000D01*
X168446000Y-119072000D01*
X168449000Y-119106000D01*
X168450000Y-119140000D01*
X168449000Y-119174000D01*
X168446000Y-119208000D01*
X168442000Y-119242000D01*
X168436000Y-119275000D01*
X168428000Y-119308000D01*
X168418000Y-119341000D01*
X168407000Y-119373000D01*
X168394000Y-119404000D01*
X168379000Y-119435000D01*
X168363000Y-119465000D01*
X168345000Y-119494000D01*
X168326000Y-119522000D01*
X168305000Y-119549000D01*
X168283000Y-119575000D01*
X168260000Y-119600000D01*
X168235000Y-119623000D01*
X168209000Y-119645000D01*
X168182000Y-119666000D01*
X168154000Y-119685000D01*
X168125000Y-119703000D01*
X168095000Y-119719000D01*
X168064000Y-119734000D01*
X168033000Y-119747000D01*
X168001000Y-119758000D01*
X167968000Y-119768000D01*
X167935000Y-119776000D01*
X167902000Y-119782000D01*
X167868000Y-119786000D01*
X167834000Y-119789000D01*
X167800000Y-119790000D01*
X167200000Y-119790000D01*
X167166000Y-119789000D01*
X167132000Y-119786000D01*
X167098000Y-119782000D01*
X167065000Y-119776000D01*
X167032000Y-119768000D01*
X166999000Y-119758000D01*
X166967000Y-119747000D01*
X166936000Y-119734000D01*
X166905000Y-119719000D01*
X166875000Y-119703000D01*
X166846000Y-119685000D01*
X166818000Y-119666000D01*
X166791000Y-119645000D01*
X166765000Y-119623000D01*
X166740000Y-119600000D01*
X166717000Y-119575000D01*
X166695000Y-119549000D01*
X166674000Y-119522000D01*
X166655000Y-119494000D01*
X166637000Y-119465000D01*
X166621000Y-119435000D01*
X166606000Y-119404000D01*
X166593000Y-119373000D01*
X166582000Y-119341000D01*
X166572000Y-119308000D01*
X166564000Y-119275000D01*
X166558000Y-119242000D01*
X166554000Y-119208000D01*
X166551000Y-119174000D01*
X166550000Y-119140000D01*
X166551000Y-119106000D01*
X166554000Y-119072000D01*
X166558000Y-119038000D01*
X166564000Y-119005000D01*
X166572000Y-118972000D01*
X166582000Y-118939000D01*
X166593000Y-118907000D01*
X166606000Y-118876000D01*
X166621000Y-118845000D01*
X166637000Y-118815000D01*
X166655000Y-118786000D01*
X166674000Y-118758000D01*
X166695000Y-118731000D01*
X166717000Y-118705000D01*
X166740000Y-118680000D01*
X166765000Y-118657000D01*
X166791000Y-118635000D01*
X166818000Y-118614000D01*
X166846000Y-118595000D01*
X166875000Y-118577000D01*
X166905000Y-118561000D01*
X166936000Y-118546000D01*
X166967000Y-118533000D01*
X166999000Y-118522000D01*
X167032000Y-118512000D01*
X167065000Y-118504000D01*
X167098000Y-118498000D01*
X167132000Y-118494000D01*
X167166000Y-118491000D01*
X167200000Y-118490000D01*
X167800000Y-118490000D01*
X167834000Y-118491000D01*
G37*
D12*
X40865500Y-77425000D03*
D13*
X52041500Y-77425000D03*
D14*
X24000000Y-165500000D03*
D12*
X52144500Y-83925000D03*
D13*
X40968500Y-83925000D03*
D12*
X114156000Y-57500000D03*
D13*
X102980000Y-57500000D03*
D14*
X24000000Y-25000000D03*
D15*
X165960000Y-49840000D03*
X168500000Y-49840000D03*
X165960000Y-52380000D03*
X168500000Y-52380000D03*
X165960000Y-54920000D03*
X168500000Y-54920000D03*
X165960000Y-57460000D03*
X168500000Y-57460000D03*
X165960000Y-60000000D03*
X168500000Y-60000000D03*
X165960000Y-62540000D03*
X168500000Y-62540000D03*
X165960000Y-65080000D03*
X168500000Y-65080000D03*
X165960000Y-67620000D03*
X168500000Y-67620000D03*
X165960000Y-70160000D03*
X168500000Y-70160000D03*
X165960000Y-72700000D03*
X168500000Y-72700000D03*
X165960000Y-75240000D03*
X168500000Y-75240000D03*
X165960000Y-77780000D03*
X168500000Y-77780000D03*
X165960000Y-80320000D03*
X168500000Y-80320000D03*
X165960000Y-82860000D03*
X168500000Y-82860000D03*
X165960000Y-85400000D03*
X168500000Y-85400000D03*
X165960000Y-87940000D03*
X168500000Y-87940000D03*
X165960000Y-90480000D03*
X168500000Y-90480000D03*
X165960000Y-93020000D03*
X168500000Y-93020000D03*
X165960000Y-95560000D03*
X168500000Y-95560000D03*
X165960000Y-98100000D03*
X168500000Y-98100000D03*
D16*
X73920000Y-59690000D03*
D17*
X79000000Y-60960000D03*
X73920000Y-62230000D03*
X79000000Y-63500000D03*
X73920000Y-64770000D03*
X79000000Y-66040000D03*
X73920000Y-67310000D03*
X79000000Y-68580000D03*
X73920000Y-69850000D03*
X79000000Y-71120000D03*
X73920000Y-72390000D03*
X79000000Y-73660000D03*
X73920000Y-74930000D03*
X79000000Y-76200000D03*
X73920000Y-77470000D03*
D12*
X103110500Y-51500000D03*
D13*
X114286500Y-51500000D03*
D18*
X73500000Y-102000000D03*
D19*
X70960000Y-102000000D03*
D14*
X164500000Y-25000000D03*
D18*
X142975000Y-140000000D03*
D19*
X140435000Y-140000000D03*
D20*
X108255000Y-69425000D03*
X108255000Y-71925000D03*
D14*
X164500000Y-165500000D03*
D21*
X62750000Y-160350000D03*
X49250000Y-160350000D03*
D22*
X59600000Y-154350000D03*
D23*
X52400000Y-154350000D03*
D12*
X112889500Y-84000000D03*
D13*
X101713500Y-84000000D03*
D24*
X43000000Y-167500000D03*
X38000000Y-167500000D03*
D25*
X52000000Y-21000000D03*
X53999999Y-21000000D03*
X56000000Y-21000000D03*
X57999998Y-21000000D03*
D12*
X101713500Y-90500000D03*
D13*
X112889500Y-90500000D03*
D25*
X134000002Y-21000000D03*
X136000001Y-21000000D03*
X138000002Y-21000000D03*
X140000000Y-21000000D03*
D18*
X92799976Y-162070108D03*
D19*
X90259976Y-162070108D03*
D26*
X21000000Y-122500000D03*
D27*
X21000000Y-120500000D03*
X21000000Y-118500000D03*
X21000000Y-116500000D03*
D12*
X40865500Y-62425000D03*
D13*
X52041500Y-62425000D03*
D12*
X52144500Y-56425000D03*
D13*
X40968500Y-56425000D03*
D18*
X73500000Y-97000000D03*
D19*
X70960000Y-97000000D03*
D28*
X150480000Y-24000000D03*
D29*
X146520000Y-24000000D03*
D28*
X44500000Y-24000000D03*
D29*
X40540000Y-24000000D03*
%LPD*%
M02*
