G04 #@! TF.GenerationSoftware,KiCad,Pcbnew,8.0.6*
G04 #@! TF.CreationDate,2025-01-26T18:36:01-05:00*
G04 #@! TF.ProjectId,Mic_Board_Omni_NEW,4d69635f-426f-4617-9264-5f4f6d6e695f,rev?*
G04 #@! TF.SameCoordinates,Original*
G04 #@! TF.FileFunction,Copper,L2,Bot*
G04 #@! TF.FilePolarity,Positive*
%FSLAX46Y46*%
G04 Gerber Fmt 4.6, Leading zero omitted, Abs format (unit mm)*
G04 Created by KiCad (PCBNEW 8.0.6) date 2025-01-26 18:36:01*
%MOMM*%
%LPD*%
G01*
G04 APERTURE LIST*
G04 #@! TA.AperFunction,ComponentPad*
%ADD10C,5.600000*%
G04 #@! TD*
G04 #@! TA.AperFunction,ComponentPad*
%ADD11R,1.378000X1.378000*%
G04 #@! TD*
G04 #@! TA.AperFunction,ComponentPad*
%ADD12C,1.378000*%
G04 #@! TD*
G04 #@! TA.AperFunction,ViaPad*
%ADD13C,0.600000*%
G04 #@! TD*
G04 #@! TA.AperFunction,Conductor*
%ADD14C,0.200000*%
G04 #@! TD*
G04 APERTURE END LIST*
D10*
X132000000Y-93500000D03*
X132000000Y-93500000D03*
X175500000Y-93500000D03*
D11*
X135500000Y-81770000D03*
D12*
X135500000Y-79230000D03*
D10*
X132000000Y-69500000D03*
X175500000Y-93500000D03*
X175500000Y-69500000D03*
X132000000Y-69500000D03*
D13*
X142900000Y-73500000D03*
X144500000Y-73500000D03*
X149500000Y-80500000D03*
X145500000Y-80000000D03*
X171500000Y-73500000D03*
X161500000Y-94500000D03*
X140000000Y-79500000D03*
X157000000Y-82000000D03*
X157600000Y-89000000D03*
X160000000Y-89500000D03*
X143000000Y-79500000D03*
X133000000Y-73500000D03*
X159000000Y-94000000D03*
X163500000Y-73500000D03*
X139000000Y-73500000D03*
X158500000Y-92000000D03*
X151500000Y-80500000D03*
X162500000Y-89500000D03*
X156000000Y-89000000D03*
X156000000Y-92000000D03*
X145400000Y-81400000D03*
X148000000Y-81400000D03*
X145055500Y-96400000D03*
X139180500Y-96400000D03*
X152500000Y-76000000D03*
X146600000Y-79600000D03*
X150500000Y-76000000D03*
X156000000Y-76000000D03*
X151000000Y-88800000D03*
X150000000Y-84900000D03*
X148300000Y-88800000D03*
X146600000Y-83000000D03*
X149200000Y-79500000D03*
X147200000Y-85600000D03*
X153230500Y-85430500D03*
X143300000Y-86900000D03*
X146099998Y-86900002D03*
X174500000Y-86000000D03*
X170000000Y-90000000D03*
X155100000Y-87400000D03*
X170000000Y-87000000D03*
X155500000Y-79500000D03*
X165000000Y-87500000D03*
X153000000Y-78000000D03*
X157000000Y-83000000D03*
X162500000Y-87500000D03*
X154000000Y-79500000D03*
X155100000Y-83500000D03*
X153000000Y-88000000D03*
X144500000Y-78100000D03*
X157600000Y-87500000D03*
X160000000Y-87500000D03*
X159500000Y-78500000D03*
X156200000Y-78500000D03*
X161500000Y-86000000D03*
X158800000Y-86000000D03*
X153400000Y-67000000D03*
X158777750Y-77122250D03*
X153400000Y-77122250D03*
X157000000Y-67000000D03*
X171699262Y-83500735D03*
X166500000Y-86000000D03*
X166000000Y-84000000D03*
X171100000Y-82900735D03*
X166000000Y-82175004D03*
X170500000Y-82000000D03*
X166000000Y-80225003D03*
X171500000Y-80000000D03*
X151200000Y-67000000D03*
X137500000Y-67000000D03*
D14*
X142900000Y-73500000D02*
X144500000Y-73500000D01*
X151500000Y-80500000D02*
X151500000Y-82000000D01*
X156500000Y-82500000D02*
X157000000Y-82000000D01*
X146000000Y-80500000D02*
X149500000Y-80500000D01*
X145500000Y-80000000D02*
X146000000Y-80500000D01*
X171500000Y-73500000D02*
X163500000Y-73500000D01*
X140000000Y-79500000D02*
X143000000Y-79500000D01*
X160000000Y-89500000D02*
X162500000Y-89500000D01*
X158500000Y-92000000D02*
X156000000Y-92000000D01*
X139000000Y-73500000D02*
X133000000Y-73500000D01*
X157600000Y-89000000D02*
X156000000Y-89000000D01*
X161500000Y-94500000D02*
X159500000Y-94500000D01*
X152000000Y-82500000D02*
X156500000Y-82500000D01*
X159500000Y-94500000D02*
X159000000Y-94000000D01*
X151500000Y-82000000D02*
X152000000Y-82500000D01*
X145400000Y-81400000D02*
X148000000Y-81400000D01*
X139180500Y-96400000D02*
X139280500Y-96500000D01*
X139280500Y-96500000D02*
X144955500Y-96500000D01*
X144955500Y-96500000D02*
X145055500Y-96400000D01*
X152500000Y-76000000D02*
X156000000Y-76000000D01*
X151000000Y-88800000D02*
X148300000Y-88800000D01*
X150500000Y-76000000D02*
X152500000Y-76000000D01*
X149200000Y-79500000D02*
X146700000Y-79500000D01*
X146700000Y-79500000D02*
X146600000Y-79600000D01*
X150000000Y-84500000D02*
X150000000Y-84900000D01*
X148500000Y-83000000D02*
X150000000Y-84500000D01*
X146600000Y-83000000D02*
X148500000Y-83000000D01*
X143300000Y-86900000D02*
X143400000Y-86800000D01*
X145999996Y-86800000D02*
X146099998Y-86900002D01*
X143400000Y-86800000D02*
X145999996Y-86800000D01*
X153161000Y-85500000D02*
X147300000Y-85500000D01*
X153230500Y-85430500D02*
X153161000Y-85500000D01*
X147300000Y-85500000D02*
X147200000Y-85600000D01*
X157600000Y-87500000D02*
X153500000Y-87500000D01*
X165000000Y-87500000D02*
X165000000Y-88500000D01*
X166500000Y-90000000D02*
X170000000Y-90000000D01*
X153000000Y-78000000D02*
X152900000Y-78100000D01*
X170000000Y-87000000D02*
X173500000Y-87000000D01*
X155600000Y-83000000D02*
X155100000Y-83500000D01*
X160000000Y-87500000D02*
X162500000Y-87500000D01*
X154000000Y-79500000D02*
X155500000Y-79500000D01*
X157000000Y-83000000D02*
X155600000Y-83000000D01*
X173500000Y-87000000D02*
X174500000Y-86000000D01*
X155100000Y-87400000D02*
X155000000Y-87500000D01*
X152900000Y-78100000D02*
X144500000Y-78100000D01*
X153500000Y-87500000D02*
X153000000Y-88000000D01*
X165000000Y-88500000D02*
X166500000Y-90000000D01*
X159500000Y-78500000D02*
X156200000Y-78500000D01*
X158800000Y-86000000D02*
X161500000Y-86000000D01*
X153400000Y-67000000D02*
X157000000Y-67000000D01*
X153400000Y-77122250D02*
X158777750Y-77122250D01*
X167500000Y-86000000D02*
X168500000Y-86000000D01*
X169000000Y-85500000D02*
X169699997Y-85500000D01*
X169699997Y-85500000D02*
X171699262Y-83500735D01*
X168500000Y-86000000D02*
X169000000Y-85500000D01*
X166500000Y-86000000D02*
X167500000Y-86000000D01*
X166000000Y-84000000D02*
X170000735Y-84000000D01*
X170000735Y-84000000D02*
X171100000Y-82900735D01*
X170324996Y-82175004D02*
X170500000Y-82000000D01*
X166000000Y-82175004D02*
X170324996Y-82175004D01*
X166000000Y-80225003D02*
X166225003Y-80000000D01*
X166225003Y-80000000D02*
X171500000Y-80000000D01*
X151200000Y-67000000D02*
X144000000Y-67000000D01*
X137500000Y-67000000D02*
X144000000Y-67000000D01*
M02*
