%TF.GenerationSoftware,KiCad,Pcbnew,8.0.6*%
%TF.CreationDate,2025-01-26T18:36:17-05:00*%
%TF.ProjectId,Mic_Board_Omni_NEW,4d69635f-426f-4617-9264-5f4f6d6e695f,rev?*%
%TF.SameCoordinates,Original*%
%TF.FileFunction,Drillmap*%
%TF.FilePolarity,Positive*%
%FSLAX45Y45*%
G04 Gerber Fmt 4.5, Leading zero omitted, Abs format (unit mm)*
G04 Created by KiCad (PCBNEW 8.0.6) date 2025-01-26 18:36:17*
%MOMM*%
%LPD*%
G01*
G04 APERTURE LIST*
%ADD10C,0.050000*%
%ADD11C,0.200000*%
%ADD12C,0.100000*%
%ADD13C,0.320000*%
G04 APERTURE END LIST*
D10*
X17923050Y-9490000D02*
X17923050Y-6840000D01*
X17923050Y-9490000D02*
G75*
G02*
X17673050Y-9740000I-250000J0D01*
G01*
X13073050Y-9740000D02*
X17673050Y-9740000D01*
X13073050Y-9740000D02*
G75*
G02*
X12823050Y-9490000I0J250000D01*
G01*
X17673050Y-6590000D02*
G75*
G02*
X17923050Y-6840000I0J-250000D01*
G01*
X12823050Y-6840000D02*
G75*
G02*
X13073050Y-6590000I250000J0D01*
G01*
X17673050Y-6590000D02*
X13073050Y-6590000D01*
X12823050Y-6840000D02*
X12823050Y-9490000D01*
D11*
D12*
X13285000Y-7335000D02*
X13315000Y-7365000D01*
X13315000Y-7335000D02*
X13285000Y-7365000D01*
X13735000Y-6685000D02*
X13765000Y-6715000D01*
X13765000Y-6685000D02*
X13735000Y-6715000D01*
X13885000Y-7335000D02*
X13915000Y-7365000D01*
X13915000Y-7335000D02*
X13885000Y-7365000D01*
X13903050Y-9625000D02*
X13933050Y-9655000D01*
X13933050Y-9625000D02*
X13903050Y-9655000D01*
X13985000Y-7935000D02*
X14015000Y-7965000D01*
X14015000Y-7935000D02*
X13985000Y-7965000D01*
X14275000Y-7335000D02*
X14305000Y-7365000D01*
X14305000Y-7335000D02*
X14275000Y-7365000D01*
X14285000Y-7935000D02*
X14315000Y-7965000D01*
X14315000Y-7935000D02*
X14285000Y-7965000D01*
X14315000Y-8675000D02*
X14345000Y-8705000D01*
X14345000Y-8675000D02*
X14315000Y-8705000D01*
X14435000Y-7335000D02*
X14465000Y-7365000D01*
X14465000Y-7335000D02*
X14435000Y-7365000D01*
X14435000Y-7795000D02*
X14465000Y-7825000D01*
X14465000Y-7795000D02*
X14435000Y-7825000D01*
X14490550Y-9625000D02*
X14520550Y-9655000D01*
X14520550Y-9625000D02*
X14490550Y-9655000D01*
X14525000Y-8125000D02*
X14555000Y-8155000D01*
X14555000Y-8125000D02*
X14525000Y-8155000D01*
X14535000Y-7985000D02*
X14565000Y-8015000D01*
X14565000Y-7985000D02*
X14535000Y-8015000D01*
X14595000Y-8675000D02*
X14625000Y-8705000D01*
X14625000Y-8675000D02*
X14595000Y-8705000D01*
X14645000Y-7945000D02*
X14675000Y-7975000D01*
X14675000Y-7945000D02*
X14645000Y-7975000D01*
X14645000Y-8285000D02*
X14675000Y-8315000D01*
X14675000Y-8285000D02*
X14645000Y-8315000D01*
X14705000Y-8545000D02*
X14735000Y-8575000D01*
X14735000Y-8545000D02*
X14705000Y-8575000D01*
X14785000Y-8125000D02*
X14815000Y-8155000D01*
X14815000Y-8125000D02*
X14785000Y-8155000D01*
X14815000Y-8865000D02*
X14845000Y-8895000D01*
X14845000Y-8865000D02*
X14815000Y-8895000D01*
X14905000Y-7935000D02*
X14935000Y-7965000D01*
X14935000Y-7935000D02*
X14905000Y-7965000D01*
X14935000Y-8035000D02*
X14965000Y-8065000D01*
X14965000Y-8035000D02*
X14935000Y-8065000D01*
X14985000Y-8475000D02*
X15015000Y-8505000D01*
X15015000Y-8475000D02*
X14985000Y-8505000D01*
X15035000Y-7585000D02*
X15065000Y-7615000D01*
X15065000Y-7585000D02*
X15035000Y-7615000D01*
X15085000Y-8865000D02*
X15115000Y-8895000D01*
X15115000Y-8865000D02*
X15085000Y-8895000D01*
X15105000Y-6685000D02*
X15135000Y-6715000D01*
X15135000Y-6685000D02*
X15105000Y-6715000D01*
X15135000Y-8035000D02*
X15165000Y-8065000D01*
X15165000Y-8035000D02*
X15135000Y-8065000D01*
X15235000Y-7585000D02*
X15265000Y-7615000D01*
X15265000Y-7585000D02*
X15235000Y-7615000D01*
X15285000Y-7785000D02*
X15315000Y-7815000D01*
X15315000Y-7785000D02*
X15285000Y-7815000D01*
X15285000Y-8785000D02*
X15315000Y-8815000D01*
X15315000Y-8785000D02*
X15285000Y-8815000D01*
X15308050Y-8528050D02*
X15338050Y-8558050D01*
X15338050Y-8528050D02*
X15308050Y-8558050D01*
X15325000Y-6685000D02*
X15355000Y-6715000D01*
X15355000Y-6685000D02*
X15325000Y-6715000D01*
X15325000Y-7697225D02*
X15355000Y-7727225D01*
X15355000Y-7697225D02*
X15325000Y-7727225D01*
X15385000Y-7935000D02*
X15415000Y-7965000D01*
X15415000Y-7935000D02*
X15385000Y-7965000D01*
X15495000Y-8335000D02*
X15525000Y-8365000D01*
X15525000Y-8335000D02*
X15495000Y-8365000D01*
X15495000Y-8725000D02*
X15525000Y-8755000D01*
X15525000Y-8725000D02*
X15495000Y-8755000D01*
X15535000Y-7935000D02*
X15565000Y-7965000D01*
X15565000Y-7935000D02*
X15535000Y-7965000D01*
X15585000Y-7585000D02*
X15615000Y-7615000D01*
X15615000Y-7585000D02*
X15585000Y-7615000D01*
X15585000Y-8885000D02*
X15615000Y-8915000D01*
X15615000Y-8885000D02*
X15585000Y-8915000D01*
X15585000Y-9185000D02*
X15615000Y-9215000D01*
X15615000Y-9185000D02*
X15585000Y-9215000D01*
X15605000Y-7835000D02*
X15635000Y-7865000D01*
X15635000Y-7835000D02*
X15605000Y-7865000D01*
X15685000Y-6685000D02*
X15715000Y-6715000D01*
X15715000Y-6685000D02*
X15685000Y-6715000D01*
X15685000Y-8185000D02*
X15715000Y-8215000D01*
X15715000Y-8185000D02*
X15685000Y-8215000D01*
X15685000Y-8285000D02*
X15715000Y-8315000D01*
X15715000Y-8285000D02*
X15685000Y-8315000D01*
X15745000Y-8735000D02*
X15775000Y-8765000D01*
X15775000Y-8735000D02*
X15745000Y-8765000D01*
X15745000Y-8885000D02*
X15775000Y-8915000D01*
X15775000Y-8885000D02*
X15745000Y-8915000D01*
X15835000Y-9185000D02*
X15865000Y-9215000D01*
X15865000Y-9185000D02*
X15835000Y-9215000D01*
X15862775Y-7697225D02*
X15892775Y-7727225D01*
X15892775Y-7697225D02*
X15862775Y-7727225D01*
X15865000Y-8585000D02*
X15895000Y-8615000D01*
X15895000Y-8585000D02*
X15865000Y-8615000D01*
X15885000Y-9385000D02*
X15915000Y-9415000D01*
X15915000Y-9385000D02*
X15885000Y-9415000D01*
X15935000Y-7835000D02*
X15965000Y-7865000D01*
X15965000Y-7835000D02*
X15935000Y-7865000D01*
X15985000Y-8735000D02*
X16015000Y-8765000D01*
X16015000Y-8735000D02*
X15985000Y-8765000D01*
X15985000Y-8935000D02*
X16015000Y-8965000D01*
X16015000Y-8935000D02*
X15985000Y-8965000D01*
X16135000Y-8585000D02*
X16165000Y-8615000D01*
X16165000Y-8585000D02*
X16135000Y-8615000D01*
X16135000Y-9435000D02*
X16165000Y-9465000D01*
X16165000Y-9435000D02*
X16135000Y-9465000D01*
X16235000Y-8735000D02*
X16265000Y-8765000D01*
X16265000Y-8735000D02*
X16235000Y-8765000D01*
X16235000Y-8935000D02*
X16265000Y-8965000D01*
X16265000Y-8935000D02*
X16235000Y-8965000D01*
X16335000Y-7335000D02*
X16365000Y-7365000D01*
X16365000Y-7335000D02*
X16335000Y-7365000D01*
X16485000Y-8735000D02*
X16515000Y-8765000D01*
X16515000Y-8735000D02*
X16485000Y-8765000D01*
X16585000Y-8007500D02*
X16615000Y-8037500D01*
X16615000Y-8007500D02*
X16585000Y-8037500D01*
X16585000Y-8202500D02*
X16615000Y-8232500D01*
X16615000Y-8202500D02*
X16585000Y-8232500D01*
X16585000Y-8385000D02*
X16615000Y-8415000D01*
X16615000Y-8385000D02*
X16585000Y-8415000D01*
X16635000Y-8585000D02*
X16665000Y-8615000D01*
X16665000Y-8585000D02*
X16635000Y-8615000D01*
X16985000Y-8685000D02*
X17015000Y-8715000D01*
X17015000Y-8685000D02*
X16985000Y-8715000D01*
X16985000Y-8985000D02*
X17015000Y-9015000D01*
X17015000Y-8985000D02*
X16985000Y-9015000D01*
X17035000Y-8185000D02*
X17065000Y-8215000D01*
X17065000Y-8185000D02*
X17035000Y-8215000D01*
X17095000Y-8275073D02*
X17125000Y-8305073D01*
X17125000Y-8275073D02*
X17095000Y-8305073D01*
X17135000Y-7335000D02*
X17165000Y-7365000D01*
X17165000Y-7335000D02*
X17135000Y-7365000D01*
X17135000Y-7985000D02*
X17165000Y-8015000D01*
X17165000Y-7985000D02*
X17135000Y-8015000D01*
X17154926Y-8335073D02*
X17184926Y-8365073D01*
X17184926Y-8335073D02*
X17154926Y-8365073D01*
X17435000Y-8585000D02*
X17465000Y-8615000D01*
X17465000Y-8585000D02*
X17435000Y-8615000D01*
X13593500Y-7923000D02*
G75*
G02*
X13506500Y-7923000I-43500J0D01*
G01*
X13506500Y-7923000D02*
G75*
G02*
X13593500Y-7923000I43500J0D01*
G01*
X13593500Y-8177000D02*
G75*
G02*
X13506500Y-8177000I-43500J0D01*
G01*
X13506500Y-8177000D02*
G75*
G02*
X13593500Y-8177000I43500J0D01*
G01*
D13*
X13200000Y-6790000D02*
X13200000Y-7110000D01*
X13040000Y-6950000D02*
X13360000Y-6950000D01*
X13200000Y-6790000D02*
X13200000Y-7110000D01*
X13040000Y-6950000D02*
X13360000Y-6950000D01*
X13200000Y-9190000D02*
X13200000Y-9510000D01*
X13040000Y-9350000D02*
X13360000Y-9350000D01*
X13200000Y-9190000D02*
X13200000Y-9510000D01*
X13040000Y-9350000D02*
X13360000Y-9350000D01*
X17550000Y-6790000D02*
X17550000Y-7110000D01*
X17390000Y-6950000D02*
X17710000Y-6950000D01*
X17550000Y-9190000D02*
X17550000Y-9510000D01*
X17390000Y-9350000D02*
X17710000Y-9350000D01*
X17550000Y-9190000D02*
X17550000Y-9510000D01*
X17390000Y-9350000D02*
X17710000Y-9350000D01*
D11*
X13081327Y-10053984D02*
X13081327Y-9853984D01*
X13081327Y-9853984D02*
X13128946Y-9853984D01*
X13128946Y-9853984D02*
X13157517Y-9863508D01*
X13157517Y-9863508D02*
X13176565Y-9882555D01*
X13176565Y-9882555D02*
X13186089Y-9901603D01*
X13186089Y-9901603D02*
X13195612Y-9939698D01*
X13195612Y-9939698D02*
X13195612Y-9968270D01*
X13195612Y-9968270D02*
X13186089Y-10006365D01*
X13186089Y-10006365D02*
X13176565Y-10025413D01*
X13176565Y-10025413D02*
X13157517Y-10044460D01*
X13157517Y-10044460D02*
X13128946Y-10053984D01*
X13128946Y-10053984D02*
X13081327Y-10053984D01*
X13281327Y-10053984D02*
X13281327Y-9920651D01*
X13281327Y-9958746D02*
X13290851Y-9939698D01*
X13290851Y-9939698D02*
X13300374Y-9930174D01*
X13300374Y-9930174D02*
X13319422Y-9920651D01*
X13319422Y-9920651D02*
X13338470Y-9920651D01*
X13405136Y-10053984D02*
X13405136Y-9920651D01*
X13405136Y-9853984D02*
X13395612Y-9863508D01*
X13395612Y-9863508D02*
X13405136Y-9873032D01*
X13405136Y-9873032D02*
X13414660Y-9863508D01*
X13414660Y-9863508D02*
X13405136Y-9853984D01*
X13405136Y-9853984D02*
X13405136Y-9873032D01*
X13528946Y-10053984D02*
X13509898Y-10044460D01*
X13509898Y-10044460D02*
X13500374Y-10025413D01*
X13500374Y-10025413D02*
X13500374Y-9853984D01*
X13633708Y-10053984D02*
X13614660Y-10044460D01*
X13614660Y-10044460D02*
X13605136Y-10025413D01*
X13605136Y-10025413D02*
X13605136Y-9853984D01*
X13862279Y-10053984D02*
X13862279Y-9853984D01*
X13862279Y-9853984D02*
X13928946Y-9996841D01*
X13928946Y-9996841D02*
X13995612Y-9853984D01*
X13995612Y-9853984D02*
X13995612Y-10053984D01*
X14176565Y-10053984D02*
X14176565Y-9949222D01*
X14176565Y-9949222D02*
X14167041Y-9930174D01*
X14167041Y-9930174D02*
X14147993Y-9920651D01*
X14147993Y-9920651D02*
X14109898Y-9920651D01*
X14109898Y-9920651D02*
X14090851Y-9930174D01*
X14176565Y-10044460D02*
X14157517Y-10053984D01*
X14157517Y-10053984D02*
X14109898Y-10053984D01*
X14109898Y-10053984D02*
X14090851Y-10044460D01*
X14090851Y-10044460D02*
X14081327Y-10025413D01*
X14081327Y-10025413D02*
X14081327Y-10006365D01*
X14081327Y-10006365D02*
X14090851Y-9987317D01*
X14090851Y-9987317D02*
X14109898Y-9977794D01*
X14109898Y-9977794D02*
X14157517Y-9977794D01*
X14157517Y-9977794D02*
X14176565Y-9968270D01*
X14271803Y-9920651D02*
X14271803Y-10120651D01*
X14271803Y-9930174D02*
X14290851Y-9920651D01*
X14290851Y-9920651D02*
X14328946Y-9920651D01*
X14328946Y-9920651D02*
X14347993Y-9930174D01*
X14347993Y-9930174D02*
X14357517Y-9939698D01*
X14357517Y-9939698D02*
X14367041Y-9958746D01*
X14367041Y-9958746D02*
X14367041Y-10015889D01*
X14367041Y-10015889D02*
X14357517Y-10034936D01*
X14357517Y-10034936D02*
X14347993Y-10044460D01*
X14347993Y-10044460D02*
X14328946Y-10053984D01*
X14328946Y-10053984D02*
X14290851Y-10053984D01*
X14290851Y-10053984D02*
X14271803Y-10044460D01*
X14452755Y-10034936D02*
X14462279Y-10044460D01*
X14462279Y-10044460D02*
X14452755Y-10053984D01*
X14452755Y-10053984D02*
X14443232Y-10044460D01*
X14443232Y-10044460D02*
X14452755Y-10034936D01*
X14452755Y-10034936D02*
X14452755Y-10053984D01*
X14452755Y-9930174D02*
X14462279Y-9939698D01*
X14462279Y-9939698D02*
X14452755Y-9949222D01*
X14452755Y-9949222D02*
X14443232Y-9939698D01*
X14443232Y-9939698D02*
X14452755Y-9930174D01*
X14452755Y-9930174D02*
X14452755Y-9949222D01*
D12*
X12790550Y-10367500D02*
X12820550Y-10397500D01*
X12820550Y-10367500D02*
X12790550Y-10397500D01*
D11*
X13119422Y-10273984D02*
X13138470Y-10273984D01*
X13138470Y-10273984D02*
X13157517Y-10283508D01*
X13157517Y-10283508D02*
X13167041Y-10293032D01*
X13167041Y-10293032D02*
X13176565Y-10312079D01*
X13176565Y-10312079D02*
X13186089Y-10350174D01*
X13186089Y-10350174D02*
X13186089Y-10397794D01*
X13186089Y-10397794D02*
X13176565Y-10435889D01*
X13176565Y-10435889D02*
X13167041Y-10454936D01*
X13167041Y-10454936D02*
X13157517Y-10464460D01*
X13157517Y-10464460D02*
X13138470Y-10473984D01*
X13138470Y-10473984D02*
X13119422Y-10473984D01*
X13119422Y-10473984D02*
X13100374Y-10464460D01*
X13100374Y-10464460D02*
X13090851Y-10454936D01*
X13090851Y-10454936D02*
X13081327Y-10435889D01*
X13081327Y-10435889D02*
X13071803Y-10397794D01*
X13071803Y-10397794D02*
X13071803Y-10350174D01*
X13071803Y-10350174D02*
X13081327Y-10312079D01*
X13081327Y-10312079D02*
X13090851Y-10293032D01*
X13090851Y-10293032D02*
X13100374Y-10283508D01*
X13100374Y-10283508D02*
X13119422Y-10273984D01*
X13271803Y-10454936D02*
X13281327Y-10464460D01*
X13281327Y-10464460D02*
X13271803Y-10473984D01*
X13271803Y-10473984D02*
X13262279Y-10464460D01*
X13262279Y-10464460D02*
X13271803Y-10454936D01*
X13271803Y-10454936D02*
X13271803Y-10473984D01*
X13347993Y-10273984D02*
X13471803Y-10273984D01*
X13471803Y-10273984D02*
X13405136Y-10350174D01*
X13405136Y-10350174D02*
X13433708Y-10350174D01*
X13433708Y-10350174D02*
X13452755Y-10359698D01*
X13452755Y-10359698D02*
X13462279Y-10369222D01*
X13462279Y-10369222D02*
X13471803Y-10388270D01*
X13471803Y-10388270D02*
X13471803Y-10435889D01*
X13471803Y-10435889D02*
X13462279Y-10454936D01*
X13462279Y-10454936D02*
X13452755Y-10464460D01*
X13452755Y-10464460D02*
X13433708Y-10473984D01*
X13433708Y-10473984D02*
X13376565Y-10473984D01*
X13376565Y-10473984D02*
X13357517Y-10464460D01*
X13357517Y-10464460D02*
X13347993Y-10454936D01*
X13595612Y-10273984D02*
X13614660Y-10273984D01*
X13614660Y-10273984D02*
X13633708Y-10283508D01*
X13633708Y-10283508D02*
X13643232Y-10293032D01*
X13643232Y-10293032D02*
X13652755Y-10312079D01*
X13652755Y-10312079D02*
X13662279Y-10350174D01*
X13662279Y-10350174D02*
X13662279Y-10397794D01*
X13662279Y-10397794D02*
X13652755Y-10435889D01*
X13652755Y-10435889D02*
X13643232Y-10454936D01*
X13643232Y-10454936D02*
X13633708Y-10464460D01*
X13633708Y-10464460D02*
X13614660Y-10473984D01*
X13614660Y-10473984D02*
X13595612Y-10473984D01*
X13595612Y-10473984D02*
X13576565Y-10464460D01*
X13576565Y-10464460D02*
X13567041Y-10454936D01*
X13567041Y-10454936D02*
X13557517Y-10435889D01*
X13557517Y-10435889D02*
X13547993Y-10397794D01*
X13547993Y-10397794D02*
X13547993Y-10350174D01*
X13547993Y-10350174D02*
X13557517Y-10312079D01*
X13557517Y-10312079D02*
X13567041Y-10293032D01*
X13567041Y-10293032D02*
X13576565Y-10283508D01*
X13576565Y-10283508D02*
X13595612Y-10273984D01*
X13786089Y-10273984D02*
X13805136Y-10273984D01*
X13805136Y-10273984D02*
X13824184Y-10283508D01*
X13824184Y-10283508D02*
X13833708Y-10293032D01*
X13833708Y-10293032D02*
X13843232Y-10312079D01*
X13843232Y-10312079D02*
X13852755Y-10350174D01*
X13852755Y-10350174D02*
X13852755Y-10397794D01*
X13852755Y-10397794D02*
X13843232Y-10435889D01*
X13843232Y-10435889D02*
X13833708Y-10454936D01*
X13833708Y-10454936D02*
X13824184Y-10464460D01*
X13824184Y-10464460D02*
X13805136Y-10473984D01*
X13805136Y-10473984D02*
X13786089Y-10473984D01*
X13786089Y-10473984D02*
X13767041Y-10464460D01*
X13767041Y-10464460D02*
X13757517Y-10454936D01*
X13757517Y-10454936D02*
X13747993Y-10435889D01*
X13747993Y-10435889D02*
X13738470Y-10397794D01*
X13738470Y-10397794D02*
X13738470Y-10350174D01*
X13738470Y-10350174D02*
X13747993Y-10312079D01*
X13747993Y-10312079D02*
X13757517Y-10293032D01*
X13757517Y-10293032D02*
X13767041Y-10283508D01*
X13767041Y-10283508D02*
X13786089Y-10273984D01*
X13938470Y-10473984D02*
X13938470Y-10340651D01*
X13938470Y-10359698D02*
X13947993Y-10350174D01*
X13947993Y-10350174D02*
X13967041Y-10340651D01*
X13967041Y-10340651D02*
X13995613Y-10340651D01*
X13995613Y-10340651D02*
X14014660Y-10350174D01*
X14014660Y-10350174D02*
X14024184Y-10369222D01*
X14024184Y-10369222D02*
X14024184Y-10473984D01*
X14024184Y-10369222D02*
X14033708Y-10350174D01*
X14033708Y-10350174D02*
X14052755Y-10340651D01*
X14052755Y-10340651D02*
X14081327Y-10340651D01*
X14081327Y-10340651D02*
X14100374Y-10350174D01*
X14100374Y-10350174D02*
X14109898Y-10369222D01*
X14109898Y-10369222D02*
X14109898Y-10473984D01*
X14205136Y-10473984D02*
X14205136Y-10340651D01*
X14205136Y-10359698D02*
X14214660Y-10350174D01*
X14214660Y-10350174D02*
X14233708Y-10340651D01*
X14233708Y-10340651D02*
X14262279Y-10340651D01*
X14262279Y-10340651D02*
X14281327Y-10350174D01*
X14281327Y-10350174D02*
X14290851Y-10369222D01*
X14290851Y-10369222D02*
X14290851Y-10473984D01*
X14290851Y-10369222D02*
X14300374Y-10350174D01*
X14300374Y-10350174D02*
X14319422Y-10340651D01*
X14319422Y-10340651D02*
X14347993Y-10340651D01*
X14347993Y-10340651D02*
X14367041Y-10350174D01*
X14367041Y-10350174D02*
X14376565Y-10369222D01*
X14376565Y-10369222D02*
X14376565Y-10473984D01*
X14767041Y-10264460D02*
X14595613Y-10521603D01*
X15024184Y-10273984D02*
X15043232Y-10273984D01*
X15043232Y-10273984D02*
X15062279Y-10283508D01*
X15062279Y-10283508D02*
X15071803Y-10293032D01*
X15071803Y-10293032D02*
X15081327Y-10312079D01*
X15081327Y-10312079D02*
X15090851Y-10350174D01*
X15090851Y-10350174D02*
X15090851Y-10397794D01*
X15090851Y-10397794D02*
X15081327Y-10435889D01*
X15081327Y-10435889D02*
X15071803Y-10454936D01*
X15071803Y-10454936D02*
X15062279Y-10464460D01*
X15062279Y-10464460D02*
X15043232Y-10473984D01*
X15043232Y-10473984D02*
X15024184Y-10473984D01*
X15024184Y-10473984D02*
X15005136Y-10464460D01*
X15005136Y-10464460D02*
X14995613Y-10454936D01*
X14995613Y-10454936D02*
X14986089Y-10435889D01*
X14986089Y-10435889D02*
X14976565Y-10397794D01*
X14976565Y-10397794D02*
X14976565Y-10350174D01*
X14976565Y-10350174D02*
X14986089Y-10312079D01*
X14986089Y-10312079D02*
X14995613Y-10293032D01*
X14995613Y-10293032D02*
X15005136Y-10283508D01*
X15005136Y-10283508D02*
X15024184Y-10273984D01*
X15176565Y-10454936D02*
X15186089Y-10464460D01*
X15186089Y-10464460D02*
X15176565Y-10473984D01*
X15176565Y-10473984D02*
X15167041Y-10464460D01*
X15167041Y-10464460D02*
X15176565Y-10454936D01*
X15176565Y-10454936D02*
X15176565Y-10473984D01*
X15309898Y-10273984D02*
X15328946Y-10273984D01*
X15328946Y-10273984D02*
X15347994Y-10283508D01*
X15347994Y-10283508D02*
X15357517Y-10293032D01*
X15357517Y-10293032D02*
X15367041Y-10312079D01*
X15367041Y-10312079D02*
X15376565Y-10350174D01*
X15376565Y-10350174D02*
X15376565Y-10397794D01*
X15376565Y-10397794D02*
X15367041Y-10435889D01*
X15367041Y-10435889D02*
X15357517Y-10454936D01*
X15357517Y-10454936D02*
X15347994Y-10464460D01*
X15347994Y-10464460D02*
X15328946Y-10473984D01*
X15328946Y-10473984D02*
X15309898Y-10473984D01*
X15309898Y-10473984D02*
X15290851Y-10464460D01*
X15290851Y-10464460D02*
X15281327Y-10454936D01*
X15281327Y-10454936D02*
X15271803Y-10435889D01*
X15271803Y-10435889D02*
X15262279Y-10397794D01*
X15262279Y-10397794D02*
X15262279Y-10350174D01*
X15262279Y-10350174D02*
X15271803Y-10312079D01*
X15271803Y-10312079D02*
X15281327Y-10293032D01*
X15281327Y-10293032D02*
X15290851Y-10283508D01*
X15290851Y-10283508D02*
X15309898Y-10273984D01*
X15567041Y-10473984D02*
X15452756Y-10473984D01*
X15509898Y-10473984D02*
X15509898Y-10273984D01*
X15509898Y-10273984D02*
X15490851Y-10302555D01*
X15490851Y-10302555D02*
X15471803Y-10321603D01*
X15471803Y-10321603D02*
X15452756Y-10331127D01*
X15757517Y-10473984D02*
X15643232Y-10473984D01*
X15700375Y-10473984D02*
X15700375Y-10273984D01*
X15700375Y-10273984D02*
X15681327Y-10302555D01*
X15681327Y-10302555D02*
X15662279Y-10321603D01*
X15662279Y-10321603D02*
X15643232Y-10331127D01*
X15871803Y-10359698D02*
X15852756Y-10350174D01*
X15852756Y-10350174D02*
X15843232Y-10340651D01*
X15843232Y-10340651D02*
X15833708Y-10321603D01*
X15833708Y-10321603D02*
X15833708Y-10312079D01*
X15833708Y-10312079D02*
X15843232Y-10293032D01*
X15843232Y-10293032D02*
X15852756Y-10283508D01*
X15852756Y-10283508D02*
X15871803Y-10273984D01*
X15871803Y-10273984D02*
X15909898Y-10273984D01*
X15909898Y-10273984D02*
X15928946Y-10283508D01*
X15928946Y-10283508D02*
X15938470Y-10293032D01*
X15938470Y-10293032D02*
X15947994Y-10312079D01*
X15947994Y-10312079D02*
X15947994Y-10321603D01*
X15947994Y-10321603D02*
X15938470Y-10340651D01*
X15938470Y-10340651D02*
X15928946Y-10350174D01*
X15928946Y-10350174D02*
X15909898Y-10359698D01*
X15909898Y-10359698D02*
X15871803Y-10359698D01*
X15871803Y-10359698D02*
X15852756Y-10369222D01*
X15852756Y-10369222D02*
X15843232Y-10378746D01*
X15843232Y-10378746D02*
X15833708Y-10397794D01*
X15833708Y-10397794D02*
X15833708Y-10435889D01*
X15833708Y-10435889D02*
X15843232Y-10454936D01*
X15843232Y-10454936D02*
X15852756Y-10464460D01*
X15852756Y-10464460D02*
X15871803Y-10473984D01*
X15871803Y-10473984D02*
X15909898Y-10473984D01*
X15909898Y-10473984D02*
X15928946Y-10464460D01*
X15928946Y-10464460D02*
X15938470Y-10454936D01*
X15938470Y-10454936D02*
X15947994Y-10435889D01*
X15947994Y-10435889D02*
X15947994Y-10397794D01*
X15947994Y-10397794D02*
X15938470Y-10378746D01*
X15938470Y-10378746D02*
X15928946Y-10369222D01*
X15928946Y-10369222D02*
X15909898Y-10359698D01*
X16024184Y-10273984D02*
X16024184Y-10312079D01*
X16100375Y-10273984D02*
X16100375Y-10312079D01*
X16395613Y-10550174D02*
X16386089Y-10540651D01*
X16386089Y-10540651D02*
X16367041Y-10512079D01*
X16367041Y-10512079D02*
X16357518Y-10493032D01*
X16357518Y-10493032D02*
X16347994Y-10464460D01*
X16347994Y-10464460D02*
X16338470Y-10416841D01*
X16338470Y-10416841D02*
X16338470Y-10378746D01*
X16338470Y-10378746D02*
X16347994Y-10331127D01*
X16347994Y-10331127D02*
X16357518Y-10302555D01*
X16357518Y-10302555D02*
X16367041Y-10283508D01*
X16367041Y-10283508D02*
X16386089Y-10254936D01*
X16386089Y-10254936D02*
X16395613Y-10245413D01*
X16452756Y-10273984D02*
X16586089Y-10273984D01*
X16586089Y-10273984D02*
X16500375Y-10473984D01*
X16700375Y-10273984D02*
X16719422Y-10273984D01*
X16719422Y-10273984D02*
X16738470Y-10283508D01*
X16738470Y-10283508D02*
X16747994Y-10293032D01*
X16747994Y-10293032D02*
X16757518Y-10312079D01*
X16757518Y-10312079D02*
X16767041Y-10350174D01*
X16767041Y-10350174D02*
X16767041Y-10397794D01*
X16767041Y-10397794D02*
X16757518Y-10435889D01*
X16757518Y-10435889D02*
X16747994Y-10454936D01*
X16747994Y-10454936D02*
X16738470Y-10464460D01*
X16738470Y-10464460D02*
X16719422Y-10473984D01*
X16719422Y-10473984D02*
X16700375Y-10473984D01*
X16700375Y-10473984D02*
X16681327Y-10464460D01*
X16681327Y-10464460D02*
X16671803Y-10454936D01*
X16671803Y-10454936D02*
X16662279Y-10435889D01*
X16662279Y-10435889D02*
X16652756Y-10397794D01*
X16652756Y-10397794D02*
X16652756Y-10350174D01*
X16652756Y-10350174D02*
X16662279Y-10312079D01*
X16662279Y-10312079D02*
X16671803Y-10293032D01*
X16671803Y-10293032D02*
X16681327Y-10283508D01*
X16681327Y-10283508D02*
X16700375Y-10273984D01*
X17005137Y-10473984D02*
X17005137Y-10273984D01*
X17090851Y-10473984D02*
X17090851Y-10369222D01*
X17090851Y-10369222D02*
X17081327Y-10350174D01*
X17081327Y-10350174D02*
X17062280Y-10340651D01*
X17062280Y-10340651D02*
X17033708Y-10340651D01*
X17033708Y-10340651D02*
X17014661Y-10350174D01*
X17014661Y-10350174D02*
X17005137Y-10359698D01*
X17214661Y-10473984D02*
X17195613Y-10464460D01*
X17195613Y-10464460D02*
X17186089Y-10454936D01*
X17186089Y-10454936D02*
X17176565Y-10435889D01*
X17176565Y-10435889D02*
X17176565Y-10378746D01*
X17176565Y-10378746D02*
X17186089Y-10359698D01*
X17186089Y-10359698D02*
X17195613Y-10350174D01*
X17195613Y-10350174D02*
X17214661Y-10340651D01*
X17214661Y-10340651D02*
X17243232Y-10340651D01*
X17243232Y-10340651D02*
X17262280Y-10350174D01*
X17262280Y-10350174D02*
X17271803Y-10359698D01*
X17271803Y-10359698D02*
X17281327Y-10378746D01*
X17281327Y-10378746D02*
X17281327Y-10435889D01*
X17281327Y-10435889D02*
X17271803Y-10454936D01*
X17271803Y-10454936D02*
X17262280Y-10464460D01*
X17262280Y-10464460D02*
X17243232Y-10473984D01*
X17243232Y-10473984D02*
X17214661Y-10473984D01*
X17395613Y-10473984D02*
X17376565Y-10464460D01*
X17376565Y-10464460D02*
X17367042Y-10445413D01*
X17367042Y-10445413D02*
X17367042Y-10273984D01*
X17547994Y-10464460D02*
X17528946Y-10473984D01*
X17528946Y-10473984D02*
X17490851Y-10473984D01*
X17490851Y-10473984D02*
X17471803Y-10464460D01*
X17471803Y-10464460D02*
X17462280Y-10445413D01*
X17462280Y-10445413D02*
X17462280Y-10369222D01*
X17462280Y-10369222D02*
X17471803Y-10350174D01*
X17471803Y-10350174D02*
X17490851Y-10340651D01*
X17490851Y-10340651D02*
X17528946Y-10340651D01*
X17528946Y-10340651D02*
X17547994Y-10350174D01*
X17547994Y-10350174D02*
X17557518Y-10369222D01*
X17557518Y-10369222D02*
X17557518Y-10388270D01*
X17557518Y-10388270D02*
X17462280Y-10407317D01*
X17633708Y-10464460D02*
X17652756Y-10473984D01*
X17652756Y-10473984D02*
X17690851Y-10473984D01*
X17690851Y-10473984D02*
X17709899Y-10464460D01*
X17709899Y-10464460D02*
X17719423Y-10445413D01*
X17719423Y-10445413D02*
X17719423Y-10435889D01*
X17719423Y-10435889D02*
X17709899Y-10416841D01*
X17709899Y-10416841D02*
X17690851Y-10407317D01*
X17690851Y-10407317D02*
X17662280Y-10407317D01*
X17662280Y-10407317D02*
X17643232Y-10397794D01*
X17643232Y-10397794D02*
X17633708Y-10378746D01*
X17633708Y-10378746D02*
X17633708Y-10369222D01*
X17633708Y-10369222D02*
X17643232Y-10350174D01*
X17643232Y-10350174D02*
X17662280Y-10340651D01*
X17662280Y-10340651D02*
X17690851Y-10340651D01*
X17690851Y-10340651D02*
X17709899Y-10350174D01*
X17786089Y-10550174D02*
X17795613Y-10540651D01*
X17795613Y-10540651D02*
X17814661Y-10512079D01*
X17814661Y-10512079D02*
X17824184Y-10493032D01*
X17824184Y-10493032D02*
X17833708Y-10464460D01*
X17833708Y-10464460D02*
X17843232Y-10416841D01*
X17843232Y-10416841D02*
X17843232Y-10378746D01*
X17843232Y-10378746D02*
X17833708Y-10331127D01*
X17833708Y-10331127D02*
X17824184Y-10302555D01*
X17824184Y-10302555D02*
X17814661Y-10283508D01*
X17814661Y-10283508D02*
X17795613Y-10254936D01*
X17795613Y-10254936D02*
X17786089Y-10245413D01*
D12*
X12820550Y-10646500D02*
G75*
G02*
X12733550Y-10646500I-43500J0D01*
G01*
X12733550Y-10646500D02*
G75*
G02*
X12820550Y-10646500I43500J0D01*
G01*
D11*
X13119422Y-10537984D02*
X13138470Y-10537984D01*
X13138470Y-10537984D02*
X13157517Y-10547508D01*
X13157517Y-10547508D02*
X13167041Y-10557032D01*
X13167041Y-10557032D02*
X13176565Y-10576079D01*
X13176565Y-10576079D02*
X13186089Y-10614174D01*
X13186089Y-10614174D02*
X13186089Y-10661794D01*
X13186089Y-10661794D02*
X13176565Y-10699889D01*
X13176565Y-10699889D02*
X13167041Y-10718936D01*
X13167041Y-10718936D02*
X13157517Y-10728460D01*
X13157517Y-10728460D02*
X13138470Y-10737984D01*
X13138470Y-10737984D02*
X13119422Y-10737984D01*
X13119422Y-10737984D02*
X13100374Y-10728460D01*
X13100374Y-10728460D02*
X13090851Y-10718936D01*
X13090851Y-10718936D02*
X13081327Y-10699889D01*
X13081327Y-10699889D02*
X13071803Y-10661794D01*
X13071803Y-10661794D02*
X13071803Y-10614174D01*
X13071803Y-10614174D02*
X13081327Y-10576079D01*
X13081327Y-10576079D02*
X13090851Y-10557032D01*
X13090851Y-10557032D02*
X13100374Y-10547508D01*
X13100374Y-10547508D02*
X13119422Y-10537984D01*
X13271803Y-10718936D02*
X13281327Y-10728460D01*
X13281327Y-10728460D02*
X13271803Y-10737984D01*
X13271803Y-10737984D02*
X13262279Y-10728460D01*
X13262279Y-10728460D02*
X13271803Y-10718936D01*
X13271803Y-10718936D02*
X13271803Y-10737984D01*
X13395612Y-10623698D02*
X13376565Y-10614174D01*
X13376565Y-10614174D02*
X13367041Y-10604651D01*
X13367041Y-10604651D02*
X13357517Y-10585603D01*
X13357517Y-10585603D02*
X13357517Y-10576079D01*
X13357517Y-10576079D02*
X13367041Y-10557032D01*
X13367041Y-10557032D02*
X13376565Y-10547508D01*
X13376565Y-10547508D02*
X13395612Y-10537984D01*
X13395612Y-10537984D02*
X13433708Y-10537984D01*
X13433708Y-10537984D02*
X13452755Y-10547508D01*
X13452755Y-10547508D02*
X13462279Y-10557032D01*
X13462279Y-10557032D02*
X13471803Y-10576079D01*
X13471803Y-10576079D02*
X13471803Y-10585603D01*
X13471803Y-10585603D02*
X13462279Y-10604651D01*
X13462279Y-10604651D02*
X13452755Y-10614174D01*
X13452755Y-10614174D02*
X13433708Y-10623698D01*
X13433708Y-10623698D02*
X13395612Y-10623698D01*
X13395612Y-10623698D02*
X13376565Y-10633222D01*
X13376565Y-10633222D02*
X13367041Y-10642746D01*
X13367041Y-10642746D02*
X13357517Y-10661794D01*
X13357517Y-10661794D02*
X13357517Y-10699889D01*
X13357517Y-10699889D02*
X13367041Y-10718936D01*
X13367041Y-10718936D02*
X13376565Y-10728460D01*
X13376565Y-10728460D02*
X13395612Y-10737984D01*
X13395612Y-10737984D02*
X13433708Y-10737984D01*
X13433708Y-10737984D02*
X13452755Y-10728460D01*
X13452755Y-10728460D02*
X13462279Y-10718936D01*
X13462279Y-10718936D02*
X13471803Y-10699889D01*
X13471803Y-10699889D02*
X13471803Y-10661794D01*
X13471803Y-10661794D02*
X13462279Y-10642746D01*
X13462279Y-10642746D02*
X13452755Y-10633222D01*
X13452755Y-10633222D02*
X13433708Y-10623698D01*
X13538470Y-10537984D02*
X13671803Y-10537984D01*
X13671803Y-10537984D02*
X13586089Y-10737984D01*
X13786089Y-10537984D02*
X13805136Y-10537984D01*
X13805136Y-10537984D02*
X13824184Y-10547508D01*
X13824184Y-10547508D02*
X13833708Y-10557032D01*
X13833708Y-10557032D02*
X13843232Y-10576079D01*
X13843232Y-10576079D02*
X13852755Y-10614174D01*
X13852755Y-10614174D02*
X13852755Y-10661794D01*
X13852755Y-10661794D02*
X13843232Y-10699889D01*
X13843232Y-10699889D02*
X13833708Y-10718936D01*
X13833708Y-10718936D02*
X13824184Y-10728460D01*
X13824184Y-10728460D02*
X13805136Y-10737984D01*
X13805136Y-10737984D02*
X13786089Y-10737984D01*
X13786089Y-10737984D02*
X13767041Y-10728460D01*
X13767041Y-10728460D02*
X13757517Y-10718936D01*
X13757517Y-10718936D02*
X13747993Y-10699889D01*
X13747993Y-10699889D02*
X13738470Y-10661794D01*
X13738470Y-10661794D02*
X13738470Y-10614174D01*
X13738470Y-10614174D02*
X13747993Y-10576079D01*
X13747993Y-10576079D02*
X13757517Y-10557032D01*
X13757517Y-10557032D02*
X13767041Y-10547508D01*
X13767041Y-10547508D02*
X13786089Y-10537984D01*
X13938470Y-10737984D02*
X13938470Y-10604651D01*
X13938470Y-10623698D02*
X13947993Y-10614174D01*
X13947993Y-10614174D02*
X13967041Y-10604651D01*
X13967041Y-10604651D02*
X13995613Y-10604651D01*
X13995613Y-10604651D02*
X14014660Y-10614174D01*
X14014660Y-10614174D02*
X14024184Y-10633222D01*
X14024184Y-10633222D02*
X14024184Y-10737984D01*
X14024184Y-10633222D02*
X14033708Y-10614174D01*
X14033708Y-10614174D02*
X14052755Y-10604651D01*
X14052755Y-10604651D02*
X14081327Y-10604651D01*
X14081327Y-10604651D02*
X14100374Y-10614174D01*
X14100374Y-10614174D02*
X14109898Y-10633222D01*
X14109898Y-10633222D02*
X14109898Y-10737984D01*
X14205136Y-10737984D02*
X14205136Y-10604651D01*
X14205136Y-10623698D02*
X14214660Y-10614174D01*
X14214660Y-10614174D02*
X14233708Y-10604651D01*
X14233708Y-10604651D02*
X14262279Y-10604651D01*
X14262279Y-10604651D02*
X14281327Y-10614174D01*
X14281327Y-10614174D02*
X14290851Y-10633222D01*
X14290851Y-10633222D02*
X14290851Y-10737984D01*
X14290851Y-10633222D02*
X14300374Y-10614174D01*
X14300374Y-10614174D02*
X14319422Y-10604651D01*
X14319422Y-10604651D02*
X14347993Y-10604651D01*
X14347993Y-10604651D02*
X14367041Y-10614174D01*
X14367041Y-10614174D02*
X14376565Y-10633222D01*
X14376565Y-10633222D02*
X14376565Y-10737984D01*
X14767041Y-10528460D02*
X14595613Y-10785603D01*
X15024184Y-10537984D02*
X15043232Y-10537984D01*
X15043232Y-10537984D02*
X15062279Y-10547508D01*
X15062279Y-10547508D02*
X15071803Y-10557032D01*
X15071803Y-10557032D02*
X15081327Y-10576079D01*
X15081327Y-10576079D02*
X15090851Y-10614174D01*
X15090851Y-10614174D02*
X15090851Y-10661794D01*
X15090851Y-10661794D02*
X15081327Y-10699889D01*
X15081327Y-10699889D02*
X15071803Y-10718936D01*
X15071803Y-10718936D02*
X15062279Y-10728460D01*
X15062279Y-10728460D02*
X15043232Y-10737984D01*
X15043232Y-10737984D02*
X15024184Y-10737984D01*
X15024184Y-10737984D02*
X15005136Y-10728460D01*
X15005136Y-10728460D02*
X14995613Y-10718936D01*
X14995613Y-10718936D02*
X14986089Y-10699889D01*
X14986089Y-10699889D02*
X14976565Y-10661794D01*
X14976565Y-10661794D02*
X14976565Y-10614174D01*
X14976565Y-10614174D02*
X14986089Y-10576079D01*
X14986089Y-10576079D02*
X14995613Y-10557032D01*
X14995613Y-10557032D02*
X15005136Y-10547508D01*
X15005136Y-10547508D02*
X15024184Y-10537984D01*
X15176565Y-10718936D02*
X15186089Y-10728460D01*
X15186089Y-10728460D02*
X15176565Y-10737984D01*
X15176565Y-10737984D02*
X15167041Y-10728460D01*
X15167041Y-10728460D02*
X15176565Y-10718936D01*
X15176565Y-10718936D02*
X15176565Y-10737984D01*
X15309898Y-10537984D02*
X15328946Y-10537984D01*
X15328946Y-10537984D02*
X15347994Y-10547508D01*
X15347994Y-10547508D02*
X15357517Y-10557032D01*
X15357517Y-10557032D02*
X15367041Y-10576079D01*
X15367041Y-10576079D02*
X15376565Y-10614174D01*
X15376565Y-10614174D02*
X15376565Y-10661794D01*
X15376565Y-10661794D02*
X15367041Y-10699889D01*
X15367041Y-10699889D02*
X15357517Y-10718936D01*
X15357517Y-10718936D02*
X15347994Y-10728460D01*
X15347994Y-10728460D02*
X15328946Y-10737984D01*
X15328946Y-10737984D02*
X15309898Y-10737984D01*
X15309898Y-10737984D02*
X15290851Y-10728460D01*
X15290851Y-10728460D02*
X15281327Y-10718936D01*
X15281327Y-10718936D02*
X15271803Y-10699889D01*
X15271803Y-10699889D02*
X15262279Y-10661794D01*
X15262279Y-10661794D02*
X15262279Y-10614174D01*
X15262279Y-10614174D02*
X15271803Y-10576079D01*
X15271803Y-10576079D02*
X15281327Y-10557032D01*
X15281327Y-10557032D02*
X15290851Y-10547508D01*
X15290851Y-10547508D02*
X15309898Y-10537984D01*
X15443232Y-10537984D02*
X15567041Y-10537984D01*
X15567041Y-10537984D02*
X15500375Y-10614174D01*
X15500375Y-10614174D02*
X15528946Y-10614174D01*
X15528946Y-10614174D02*
X15547994Y-10623698D01*
X15547994Y-10623698D02*
X15557517Y-10633222D01*
X15557517Y-10633222D02*
X15567041Y-10652270D01*
X15567041Y-10652270D02*
X15567041Y-10699889D01*
X15567041Y-10699889D02*
X15557517Y-10718936D01*
X15557517Y-10718936D02*
X15547994Y-10728460D01*
X15547994Y-10728460D02*
X15528946Y-10737984D01*
X15528946Y-10737984D02*
X15471803Y-10737984D01*
X15471803Y-10737984D02*
X15452756Y-10728460D01*
X15452756Y-10728460D02*
X15443232Y-10718936D01*
X15738470Y-10604651D02*
X15738470Y-10737984D01*
X15690851Y-10528460D02*
X15643232Y-10671317D01*
X15643232Y-10671317D02*
X15767041Y-10671317D01*
X15824184Y-10537984D02*
X15947994Y-10537984D01*
X15947994Y-10537984D02*
X15881327Y-10614174D01*
X15881327Y-10614174D02*
X15909898Y-10614174D01*
X15909898Y-10614174D02*
X15928946Y-10623698D01*
X15928946Y-10623698D02*
X15938470Y-10633222D01*
X15938470Y-10633222D02*
X15947994Y-10652270D01*
X15947994Y-10652270D02*
X15947994Y-10699889D01*
X15947994Y-10699889D02*
X15938470Y-10718936D01*
X15938470Y-10718936D02*
X15928946Y-10728460D01*
X15928946Y-10728460D02*
X15909898Y-10737984D01*
X15909898Y-10737984D02*
X15852756Y-10737984D01*
X15852756Y-10737984D02*
X15833708Y-10728460D01*
X15833708Y-10728460D02*
X15824184Y-10718936D01*
X16024184Y-10537984D02*
X16024184Y-10576079D01*
X16100375Y-10537984D02*
X16100375Y-10576079D01*
X16395613Y-10814174D02*
X16386089Y-10804651D01*
X16386089Y-10804651D02*
X16367041Y-10776079D01*
X16367041Y-10776079D02*
X16357518Y-10757032D01*
X16357518Y-10757032D02*
X16347994Y-10728460D01*
X16347994Y-10728460D02*
X16338470Y-10680841D01*
X16338470Y-10680841D02*
X16338470Y-10642746D01*
X16338470Y-10642746D02*
X16347994Y-10595127D01*
X16347994Y-10595127D02*
X16357518Y-10566555D01*
X16357518Y-10566555D02*
X16367041Y-10547508D01*
X16367041Y-10547508D02*
X16386089Y-10518936D01*
X16386089Y-10518936D02*
X16395613Y-10509413D01*
X16462279Y-10557032D02*
X16471803Y-10547508D01*
X16471803Y-10547508D02*
X16490851Y-10537984D01*
X16490851Y-10537984D02*
X16538470Y-10537984D01*
X16538470Y-10537984D02*
X16557518Y-10547508D01*
X16557518Y-10547508D02*
X16567041Y-10557032D01*
X16567041Y-10557032D02*
X16576565Y-10576079D01*
X16576565Y-10576079D02*
X16576565Y-10595127D01*
X16576565Y-10595127D02*
X16567041Y-10623698D01*
X16567041Y-10623698D02*
X16452756Y-10737984D01*
X16452756Y-10737984D02*
X16576565Y-10737984D01*
X16814661Y-10737984D02*
X16814661Y-10537984D01*
X16900375Y-10737984D02*
X16900375Y-10633222D01*
X16900375Y-10633222D02*
X16890851Y-10614174D01*
X16890851Y-10614174D02*
X16871803Y-10604651D01*
X16871803Y-10604651D02*
X16843232Y-10604651D01*
X16843232Y-10604651D02*
X16824184Y-10614174D01*
X16824184Y-10614174D02*
X16814661Y-10623698D01*
X17024184Y-10737984D02*
X17005137Y-10728460D01*
X17005137Y-10728460D02*
X16995613Y-10718936D01*
X16995613Y-10718936D02*
X16986089Y-10699889D01*
X16986089Y-10699889D02*
X16986089Y-10642746D01*
X16986089Y-10642746D02*
X16995613Y-10623698D01*
X16995613Y-10623698D02*
X17005137Y-10614174D01*
X17005137Y-10614174D02*
X17024184Y-10604651D01*
X17024184Y-10604651D02*
X17052756Y-10604651D01*
X17052756Y-10604651D02*
X17071803Y-10614174D01*
X17071803Y-10614174D02*
X17081327Y-10623698D01*
X17081327Y-10623698D02*
X17090851Y-10642746D01*
X17090851Y-10642746D02*
X17090851Y-10699889D01*
X17090851Y-10699889D02*
X17081327Y-10718936D01*
X17081327Y-10718936D02*
X17071803Y-10728460D01*
X17071803Y-10728460D02*
X17052756Y-10737984D01*
X17052756Y-10737984D02*
X17024184Y-10737984D01*
X17205137Y-10737984D02*
X17186089Y-10728460D01*
X17186089Y-10728460D02*
X17176565Y-10709413D01*
X17176565Y-10709413D02*
X17176565Y-10537984D01*
X17357518Y-10728460D02*
X17338470Y-10737984D01*
X17338470Y-10737984D02*
X17300375Y-10737984D01*
X17300375Y-10737984D02*
X17281327Y-10728460D01*
X17281327Y-10728460D02*
X17271803Y-10709413D01*
X17271803Y-10709413D02*
X17271803Y-10633222D01*
X17271803Y-10633222D02*
X17281327Y-10614174D01*
X17281327Y-10614174D02*
X17300375Y-10604651D01*
X17300375Y-10604651D02*
X17338470Y-10604651D01*
X17338470Y-10604651D02*
X17357518Y-10614174D01*
X17357518Y-10614174D02*
X17367042Y-10633222D01*
X17367042Y-10633222D02*
X17367042Y-10652270D01*
X17367042Y-10652270D02*
X17271803Y-10671317D01*
X17443232Y-10728460D02*
X17462280Y-10737984D01*
X17462280Y-10737984D02*
X17500375Y-10737984D01*
X17500375Y-10737984D02*
X17519423Y-10728460D01*
X17519423Y-10728460D02*
X17528946Y-10709413D01*
X17528946Y-10709413D02*
X17528946Y-10699889D01*
X17528946Y-10699889D02*
X17519423Y-10680841D01*
X17519423Y-10680841D02*
X17500375Y-10671317D01*
X17500375Y-10671317D02*
X17471803Y-10671317D01*
X17471803Y-10671317D02*
X17452756Y-10661794D01*
X17452756Y-10661794D02*
X17443232Y-10642746D01*
X17443232Y-10642746D02*
X17443232Y-10633222D01*
X17443232Y-10633222D02*
X17452756Y-10614174D01*
X17452756Y-10614174D02*
X17471803Y-10604651D01*
X17471803Y-10604651D02*
X17500375Y-10604651D01*
X17500375Y-10604651D02*
X17519423Y-10614174D01*
X17595613Y-10814174D02*
X17605137Y-10804651D01*
X17605137Y-10804651D02*
X17624184Y-10776079D01*
X17624184Y-10776079D02*
X17633708Y-10757032D01*
X17633708Y-10757032D02*
X17643232Y-10728460D01*
X17643232Y-10728460D02*
X17652756Y-10680841D01*
X17652756Y-10680841D02*
X17652756Y-10642746D01*
X17652756Y-10642746D02*
X17643232Y-10595127D01*
X17643232Y-10595127D02*
X17633708Y-10566555D01*
X17633708Y-10566555D02*
X17624184Y-10547508D01*
X17624184Y-10547508D02*
X17605137Y-10518936D01*
X17605137Y-10518936D02*
X17595613Y-10509413D01*
X12720550Y-10810500D02*
X12720550Y-11010500D01*
X12620550Y-10910500D02*
X12820550Y-10910500D01*
X13062279Y-10801984D02*
X13186089Y-10801984D01*
X13186089Y-10801984D02*
X13119422Y-10878174D01*
X13119422Y-10878174D02*
X13147993Y-10878174D01*
X13147993Y-10878174D02*
X13167041Y-10887698D01*
X13167041Y-10887698D02*
X13176565Y-10897222D01*
X13176565Y-10897222D02*
X13186089Y-10916270D01*
X13186089Y-10916270D02*
X13186089Y-10963889D01*
X13186089Y-10963889D02*
X13176565Y-10982936D01*
X13176565Y-10982936D02*
X13167041Y-10992460D01*
X13167041Y-10992460D02*
X13147993Y-11001984D01*
X13147993Y-11001984D02*
X13090851Y-11001984D01*
X13090851Y-11001984D02*
X13071803Y-10992460D01*
X13071803Y-10992460D02*
X13062279Y-10982936D01*
X13271803Y-10982936D02*
X13281327Y-10992460D01*
X13281327Y-10992460D02*
X13271803Y-11001984D01*
X13271803Y-11001984D02*
X13262279Y-10992460D01*
X13262279Y-10992460D02*
X13271803Y-10982936D01*
X13271803Y-10982936D02*
X13271803Y-11001984D01*
X13357517Y-10821032D02*
X13367041Y-10811508D01*
X13367041Y-10811508D02*
X13386089Y-10801984D01*
X13386089Y-10801984D02*
X13433708Y-10801984D01*
X13433708Y-10801984D02*
X13452755Y-10811508D01*
X13452755Y-10811508D02*
X13462279Y-10821032D01*
X13462279Y-10821032D02*
X13471803Y-10840079D01*
X13471803Y-10840079D02*
X13471803Y-10859127D01*
X13471803Y-10859127D02*
X13462279Y-10887698D01*
X13462279Y-10887698D02*
X13347993Y-11001984D01*
X13347993Y-11001984D02*
X13471803Y-11001984D01*
X13595612Y-10801984D02*
X13614660Y-10801984D01*
X13614660Y-10801984D02*
X13633708Y-10811508D01*
X13633708Y-10811508D02*
X13643232Y-10821032D01*
X13643232Y-10821032D02*
X13652755Y-10840079D01*
X13652755Y-10840079D02*
X13662279Y-10878174D01*
X13662279Y-10878174D02*
X13662279Y-10925794D01*
X13662279Y-10925794D02*
X13652755Y-10963889D01*
X13652755Y-10963889D02*
X13643232Y-10982936D01*
X13643232Y-10982936D02*
X13633708Y-10992460D01*
X13633708Y-10992460D02*
X13614660Y-11001984D01*
X13614660Y-11001984D02*
X13595612Y-11001984D01*
X13595612Y-11001984D02*
X13576565Y-10992460D01*
X13576565Y-10992460D02*
X13567041Y-10982936D01*
X13567041Y-10982936D02*
X13557517Y-10963889D01*
X13557517Y-10963889D02*
X13547993Y-10925794D01*
X13547993Y-10925794D02*
X13547993Y-10878174D01*
X13547993Y-10878174D02*
X13557517Y-10840079D01*
X13557517Y-10840079D02*
X13567041Y-10821032D01*
X13567041Y-10821032D02*
X13576565Y-10811508D01*
X13576565Y-10811508D02*
X13595612Y-10801984D01*
X13786089Y-10801984D02*
X13805136Y-10801984D01*
X13805136Y-10801984D02*
X13824184Y-10811508D01*
X13824184Y-10811508D02*
X13833708Y-10821032D01*
X13833708Y-10821032D02*
X13843232Y-10840079D01*
X13843232Y-10840079D02*
X13852755Y-10878174D01*
X13852755Y-10878174D02*
X13852755Y-10925794D01*
X13852755Y-10925794D02*
X13843232Y-10963889D01*
X13843232Y-10963889D02*
X13833708Y-10982936D01*
X13833708Y-10982936D02*
X13824184Y-10992460D01*
X13824184Y-10992460D02*
X13805136Y-11001984D01*
X13805136Y-11001984D02*
X13786089Y-11001984D01*
X13786089Y-11001984D02*
X13767041Y-10992460D01*
X13767041Y-10992460D02*
X13757517Y-10982936D01*
X13757517Y-10982936D02*
X13747993Y-10963889D01*
X13747993Y-10963889D02*
X13738470Y-10925794D01*
X13738470Y-10925794D02*
X13738470Y-10878174D01*
X13738470Y-10878174D02*
X13747993Y-10840079D01*
X13747993Y-10840079D02*
X13757517Y-10821032D01*
X13757517Y-10821032D02*
X13767041Y-10811508D01*
X13767041Y-10811508D02*
X13786089Y-10801984D01*
X13938470Y-11001984D02*
X13938470Y-10868651D01*
X13938470Y-10887698D02*
X13947993Y-10878174D01*
X13947993Y-10878174D02*
X13967041Y-10868651D01*
X13967041Y-10868651D02*
X13995613Y-10868651D01*
X13995613Y-10868651D02*
X14014660Y-10878174D01*
X14014660Y-10878174D02*
X14024184Y-10897222D01*
X14024184Y-10897222D02*
X14024184Y-11001984D01*
X14024184Y-10897222D02*
X14033708Y-10878174D01*
X14033708Y-10878174D02*
X14052755Y-10868651D01*
X14052755Y-10868651D02*
X14081327Y-10868651D01*
X14081327Y-10868651D02*
X14100374Y-10878174D01*
X14100374Y-10878174D02*
X14109898Y-10897222D01*
X14109898Y-10897222D02*
X14109898Y-11001984D01*
X14205136Y-11001984D02*
X14205136Y-10868651D01*
X14205136Y-10887698D02*
X14214660Y-10878174D01*
X14214660Y-10878174D02*
X14233708Y-10868651D01*
X14233708Y-10868651D02*
X14262279Y-10868651D01*
X14262279Y-10868651D02*
X14281327Y-10878174D01*
X14281327Y-10878174D02*
X14290851Y-10897222D01*
X14290851Y-10897222D02*
X14290851Y-11001984D01*
X14290851Y-10897222D02*
X14300374Y-10878174D01*
X14300374Y-10878174D02*
X14319422Y-10868651D01*
X14319422Y-10868651D02*
X14347993Y-10868651D01*
X14347993Y-10868651D02*
X14367041Y-10878174D01*
X14367041Y-10878174D02*
X14376565Y-10897222D01*
X14376565Y-10897222D02*
X14376565Y-11001984D01*
X14767041Y-10792460D02*
X14595613Y-11049603D01*
X15024184Y-10801984D02*
X15043232Y-10801984D01*
X15043232Y-10801984D02*
X15062279Y-10811508D01*
X15062279Y-10811508D02*
X15071803Y-10821032D01*
X15071803Y-10821032D02*
X15081327Y-10840079D01*
X15081327Y-10840079D02*
X15090851Y-10878174D01*
X15090851Y-10878174D02*
X15090851Y-10925794D01*
X15090851Y-10925794D02*
X15081327Y-10963889D01*
X15081327Y-10963889D02*
X15071803Y-10982936D01*
X15071803Y-10982936D02*
X15062279Y-10992460D01*
X15062279Y-10992460D02*
X15043232Y-11001984D01*
X15043232Y-11001984D02*
X15024184Y-11001984D01*
X15024184Y-11001984D02*
X15005136Y-10992460D01*
X15005136Y-10992460D02*
X14995613Y-10982936D01*
X14995613Y-10982936D02*
X14986089Y-10963889D01*
X14986089Y-10963889D02*
X14976565Y-10925794D01*
X14976565Y-10925794D02*
X14976565Y-10878174D01*
X14976565Y-10878174D02*
X14986089Y-10840079D01*
X14986089Y-10840079D02*
X14995613Y-10821032D01*
X14995613Y-10821032D02*
X15005136Y-10811508D01*
X15005136Y-10811508D02*
X15024184Y-10801984D01*
X15176565Y-10982936D02*
X15186089Y-10992460D01*
X15186089Y-10992460D02*
X15176565Y-11001984D01*
X15176565Y-11001984D02*
X15167041Y-10992460D01*
X15167041Y-10992460D02*
X15176565Y-10982936D01*
X15176565Y-10982936D02*
X15176565Y-11001984D01*
X15376565Y-11001984D02*
X15262279Y-11001984D01*
X15319422Y-11001984D02*
X15319422Y-10801984D01*
X15319422Y-10801984D02*
X15300375Y-10830555D01*
X15300375Y-10830555D02*
X15281327Y-10849603D01*
X15281327Y-10849603D02*
X15262279Y-10859127D01*
X15452756Y-10821032D02*
X15462279Y-10811508D01*
X15462279Y-10811508D02*
X15481327Y-10801984D01*
X15481327Y-10801984D02*
X15528946Y-10801984D01*
X15528946Y-10801984D02*
X15547994Y-10811508D01*
X15547994Y-10811508D02*
X15557517Y-10821032D01*
X15557517Y-10821032D02*
X15567041Y-10840079D01*
X15567041Y-10840079D02*
X15567041Y-10859127D01*
X15567041Y-10859127D02*
X15557517Y-10887698D01*
X15557517Y-10887698D02*
X15443232Y-11001984D01*
X15443232Y-11001984D02*
X15567041Y-11001984D01*
X15738470Y-10801984D02*
X15700375Y-10801984D01*
X15700375Y-10801984D02*
X15681327Y-10811508D01*
X15681327Y-10811508D02*
X15671803Y-10821032D01*
X15671803Y-10821032D02*
X15652756Y-10849603D01*
X15652756Y-10849603D02*
X15643232Y-10887698D01*
X15643232Y-10887698D02*
X15643232Y-10963889D01*
X15643232Y-10963889D02*
X15652756Y-10982936D01*
X15652756Y-10982936D02*
X15662279Y-10992460D01*
X15662279Y-10992460D02*
X15681327Y-11001984D01*
X15681327Y-11001984D02*
X15719422Y-11001984D01*
X15719422Y-11001984D02*
X15738470Y-10992460D01*
X15738470Y-10992460D02*
X15747994Y-10982936D01*
X15747994Y-10982936D02*
X15757517Y-10963889D01*
X15757517Y-10963889D02*
X15757517Y-10916270D01*
X15757517Y-10916270D02*
X15747994Y-10897222D01*
X15747994Y-10897222D02*
X15738470Y-10887698D01*
X15738470Y-10887698D02*
X15719422Y-10878174D01*
X15719422Y-10878174D02*
X15681327Y-10878174D01*
X15681327Y-10878174D02*
X15662279Y-10887698D01*
X15662279Y-10887698D02*
X15652756Y-10897222D01*
X15652756Y-10897222D02*
X15643232Y-10916270D01*
X15881327Y-10801984D02*
X15900375Y-10801984D01*
X15900375Y-10801984D02*
X15919422Y-10811508D01*
X15919422Y-10811508D02*
X15928946Y-10821032D01*
X15928946Y-10821032D02*
X15938470Y-10840079D01*
X15938470Y-10840079D02*
X15947994Y-10878174D01*
X15947994Y-10878174D02*
X15947994Y-10925794D01*
X15947994Y-10925794D02*
X15938470Y-10963889D01*
X15938470Y-10963889D02*
X15928946Y-10982936D01*
X15928946Y-10982936D02*
X15919422Y-10992460D01*
X15919422Y-10992460D02*
X15900375Y-11001984D01*
X15900375Y-11001984D02*
X15881327Y-11001984D01*
X15881327Y-11001984D02*
X15862279Y-10992460D01*
X15862279Y-10992460D02*
X15852756Y-10982936D01*
X15852756Y-10982936D02*
X15843232Y-10963889D01*
X15843232Y-10963889D02*
X15833708Y-10925794D01*
X15833708Y-10925794D02*
X15833708Y-10878174D01*
X15833708Y-10878174D02*
X15843232Y-10840079D01*
X15843232Y-10840079D02*
X15852756Y-10821032D01*
X15852756Y-10821032D02*
X15862279Y-10811508D01*
X15862279Y-10811508D02*
X15881327Y-10801984D01*
X16024184Y-10801984D02*
X16024184Y-10840079D01*
X16100375Y-10801984D02*
X16100375Y-10840079D01*
X16395613Y-11078174D02*
X16386089Y-11068651D01*
X16386089Y-11068651D02*
X16367041Y-11040079D01*
X16367041Y-11040079D02*
X16357518Y-11021032D01*
X16357518Y-11021032D02*
X16347994Y-10992460D01*
X16347994Y-10992460D02*
X16338470Y-10944841D01*
X16338470Y-10944841D02*
X16338470Y-10906746D01*
X16338470Y-10906746D02*
X16347994Y-10859127D01*
X16347994Y-10859127D02*
X16357518Y-10830555D01*
X16357518Y-10830555D02*
X16367041Y-10811508D01*
X16367041Y-10811508D02*
X16386089Y-10782936D01*
X16386089Y-10782936D02*
X16395613Y-10773413D01*
X16452756Y-10801984D02*
X16586089Y-10801984D01*
X16586089Y-10801984D02*
X16500375Y-11001984D01*
X16814661Y-11001984D02*
X16814661Y-10801984D01*
X16900375Y-11001984D02*
X16900375Y-10897222D01*
X16900375Y-10897222D02*
X16890851Y-10878174D01*
X16890851Y-10878174D02*
X16871803Y-10868651D01*
X16871803Y-10868651D02*
X16843232Y-10868651D01*
X16843232Y-10868651D02*
X16824184Y-10878174D01*
X16824184Y-10878174D02*
X16814661Y-10887698D01*
X17024184Y-11001984D02*
X17005137Y-10992460D01*
X17005137Y-10992460D02*
X16995613Y-10982936D01*
X16995613Y-10982936D02*
X16986089Y-10963889D01*
X16986089Y-10963889D02*
X16986089Y-10906746D01*
X16986089Y-10906746D02*
X16995613Y-10887698D01*
X16995613Y-10887698D02*
X17005137Y-10878174D01*
X17005137Y-10878174D02*
X17024184Y-10868651D01*
X17024184Y-10868651D02*
X17052756Y-10868651D01*
X17052756Y-10868651D02*
X17071803Y-10878174D01*
X17071803Y-10878174D02*
X17081327Y-10887698D01*
X17081327Y-10887698D02*
X17090851Y-10906746D01*
X17090851Y-10906746D02*
X17090851Y-10963889D01*
X17090851Y-10963889D02*
X17081327Y-10982936D01*
X17081327Y-10982936D02*
X17071803Y-10992460D01*
X17071803Y-10992460D02*
X17052756Y-11001984D01*
X17052756Y-11001984D02*
X17024184Y-11001984D01*
X17205137Y-11001984D02*
X17186089Y-10992460D01*
X17186089Y-10992460D02*
X17176565Y-10973413D01*
X17176565Y-10973413D02*
X17176565Y-10801984D01*
X17357518Y-10992460D02*
X17338470Y-11001984D01*
X17338470Y-11001984D02*
X17300375Y-11001984D01*
X17300375Y-11001984D02*
X17281327Y-10992460D01*
X17281327Y-10992460D02*
X17271803Y-10973413D01*
X17271803Y-10973413D02*
X17271803Y-10897222D01*
X17271803Y-10897222D02*
X17281327Y-10878174D01*
X17281327Y-10878174D02*
X17300375Y-10868651D01*
X17300375Y-10868651D02*
X17338470Y-10868651D01*
X17338470Y-10868651D02*
X17357518Y-10878174D01*
X17357518Y-10878174D02*
X17367042Y-10897222D01*
X17367042Y-10897222D02*
X17367042Y-10916270D01*
X17367042Y-10916270D02*
X17271803Y-10935317D01*
X17443232Y-10992460D02*
X17462280Y-11001984D01*
X17462280Y-11001984D02*
X17500375Y-11001984D01*
X17500375Y-11001984D02*
X17519423Y-10992460D01*
X17519423Y-10992460D02*
X17528946Y-10973413D01*
X17528946Y-10973413D02*
X17528946Y-10963889D01*
X17528946Y-10963889D02*
X17519423Y-10944841D01*
X17519423Y-10944841D02*
X17500375Y-10935317D01*
X17500375Y-10935317D02*
X17471803Y-10935317D01*
X17471803Y-10935317D02*
X17452756Y-10925794D01*
X17452756Y-10925794D02*
X17443232Y-10906746D01*
X17443232Y-10906746D02*
X17443232Y-10897222D01*
X17443232Y-10897222D02*
X17452756Y-10878174D01*
X17452756Y-10878174D02*
X17471803Y-10868651D01*
X17471803Y-10868651D02*
X17500375Y-10868651D01*
X17500375Y-10868651D02*
X17519423Y-10878174D01*
X17595613Y-11078174D02*
X17605137Y-11068651D01*
X17605137Y-11068651D02*
X17624184Y-11040079D01*
X17624184Y-11040079D02*
X17633708Y-11021032D01*
X17633708Y-11021032D02*
X17643232Y-10992460D01*
X17643232Y-10992460D02*
X17652756Y-10944841D01*
X17652756Y-10944841D02*
X17652756Y-10906746D01*
X17652756Y-10906746D02*
X17643232Y-10859127D01*
X17643232Y-10859127D02*
X17633708Y-10830555D01*
X17633708Y-10830555D02*
X17624184Y-10811508D01*
X17624184Y-10811508D02*
X17605137Y-10782936D01*
X17605137Y-10782936D02*
X17595613Y-10773413D01*
M02*
