%TF.GenerationSoftware,KiCad,Pcbnew,8.0.6*%
%TF.CreationDate,2025-01-26T18:36:17-05:00*%
%TF.ProjectId,Mic_Board_Omni_NEW,4d69635f-426f-4617-9264-5f4f6d6e695f,rev?*%
%TF.SameCoordinates,Original*%
%TF.FileFunction,Drillmap*%
%TF.FilePolarity,Positive*%
%FSLAX45Y45*%
G04 Gerber Fmt 4.5, Leading zero omitted, Abs format (unit mm)*
G04 Created by KiCad (PCBNEW 8.0.6) date 2025-01-26 18:36:17*
%MOMM*%
%LPD*%
G01*
G04 APERTURE LIST*
%ADD10C,0.050000*%
%ADD11C,0.200000*%
G04 APERTURE END LIST*
D10*
X17923050Y-9490000D02*
X17923050Y-6840000D01*
X17923050Y-9490000D02*
G75*
G02*
X17673050Y-9740000I-250000J0D01*
G01*
X13073050Y-9740000D02*
X17673050Y-9740000D01*
X13073050Y-9740000D02*
G75*
G02*
X12823050Y-9490000I0J250000D01*
G01*
X17673050Y-6590000D02*
G75*
G02*
X17923050Y-6840000I0J-250000D01*
G01*
X12823050Y-6840000D02*
G75*
G02*
X13073050Y-6590000I250000J0D01*
G01*
X17673050Y-6590000D02*
X13073050Y-6590000D01*
X12823050Y-6840000D02*
X12823050Y-9490000D01*
D11*
X13081327Y-10053984D02*
X13081327Y-9853984D01*
X13081327Y-9853984D02*
X13128946Y-9853984D01*
X13128946Y-9853984D02*
X13157517Y-9863508D01*
X13157517Y-9863508D02*
X13176565Y-9882555D01*
X13176565Y-9882555D02*
X13186089Y-9901603D01*
X13186089Y-9901603D02*
X13195612Y-9939698D01*
X13195612Y-9939698D02*
X13195612Y-9968270D01*
X13195612Y-9968270D02*
X13186089Y-10006365D01*
X13186089Y-10006365D02*
X13176565Y-10025413D01*
X13176565Y-10025413D02*
X13157517Y-10044460D01*
X13157517Y-10044460D02*
X13128946Y-10053984D01*
X13128946Y-10053984D02*
X13081327Y-10053984D01*
X13281327Y-10053984D02*
X13281327Y-9920651D01*
X13281327Y-9958746D02*
X13290851Y-9939698D01*
X13290851Y-9939698D02*
X13300374Y-9930174D01*
X13300374Y-9930174D02*
X13319422Y-9920651D01*
X13319422Y-9920651D02*
X13338470Y-9920651D01*
X13405136Y-10053984D02*
X13405136Y-9920651D01*
X13405136Y-9853984D02*
X13395612Y-9863508D01*
X13395612Y-9863508D02*
X13405136Y-9873032D01*
X13405136Y-9873032D02*
X13414660Y-9863508D01*
X13414660Y-9863508D02*
X13405136Y-9853984D01*
X13405136Y-9853984D02*
X13405136Y-9873032D01*
X13528946Y-10053984D02*
X13509898Y-10044460D01*
X13509898Y-10044460D02*
X13500374Y-10025413D01*
X13500374Y-10025413D02*
X13500374Y-9853984D01*
X13633708Y-10053984D02*
X13614660Y-10044460D01*
X13614660Y-10044460D02*
X13605136Y-10025413D01*
X13605136Y-10025413D02*
X13605136Y-9853984D01*
X13862279Y-10053984D02*
X13862279Y-9853984D01*
X13862279Y-9853984D02*
X13928946Y-9996841D01*
X13928946Y-9996841D02*
X13995612Y-9853984D01*
X13995612Y-9853984D02*
X13995612Y-10053984D01*
X14176565Y-10053984D02*
X14176565Y-9949222D01*
X14176565Y-9949222D02*
X14167041Y-9930174D01*
X14167041Y-9930174D02*
X14147993Y-9920651D01*
X14147993Y-9920651D02*
X14109898Y-9920651D01*
X14109898Y-9920651D02*
X14090851Y-9930174D01*
X14176565Y-10044460D02*
X14157517Y-10053984D01*
X14157517Y-10053984D02*
X14109898Y-10053984D01*
X14109898Y-10053984D02*
X14090851Y-10044460D01*
X14090851Y-10044460D02*
X14081327Y-10025413D01*
X14081327Y-10025413D02*
X14081327Y-10006365D01*
X14081327Y-10006365D02*
X14090851Y-9987317D01*
X14090851Y-9987317D02*
X14109898Y-9977794D01*
X14109898Y-9977794D02*
X14157517Y-9977794D01*
X14157517Y-9977794D02*
X14176565Y-9968270D01*
X14271803Y-9920651D02*
X14271803Y-10120651D01*
X14271803Y-9930174D02*
X14290851Y-9920651D01*
X14290851Y-9920651D02*
X14328946Y-9920651D01*
X14328946Y-9920651D02*
X14347993Y-9930174D01*
X14347993Y-9930174D02*
X14357517Y-9939698D01*
X14357517Y-9939698D02*
X14367041Y-9958746D01*
X14367041Y-9958746D02*
X14367041Y-10015889D01*
X14367041Y-10015889D02*
X14357517Y-10034936D01*
X14357517Y-10034936D02*
X14347993Y-10044460D01*
X14347993Y-10044460D02*
X14328946Y-10053984D01*
X14328946Y-10053984D02*
X14290851Y-10053984D01*
X14290851Y-10053984D02*
X14271803Y-10044460D01*
X14452755Y-10034936D02*
X14462279Y-10044460D01*
X14462279Y-10044460D02*
X14452755Y-10053984D01*
X14452755Y-10053984D02*
X14443232Y-10044460D01*
X14443232Y-10044460D02*
X14452755Y-10034936D01*
X14452755Y-10034936D02*
X14452755Y-10053984D01*
X14452755Y-9930174D02*
X14462279Y-9939698D01*
X14462279Y-9939698D02*
X14452755Y-9949222D01*
X14452755Y-9949222D02*
X14443232Y-9939698D01*
X14443232Y-9939698D02*
X14452755Y-9930174D01*
X14452755Y-9930174D02*
X14452755Y-9949222D01*
M02*
