G04 #@! TF.GenerationSoftware,KiCad,Pcbnew,8.0.6*
G04 #@! TF.CreationDate,2025-01-26T18:36:01-05:00*
G04 #@! TF.ProjectId,Mic_Board_Omni_NEW,4d69635f-426f-4617-9264-5f4f6d6e695f,rev?*
G04 #@! TF.SameCoordinates,Original*
G04 #@! TF.FileFunction,Paste,Top*
G04 #@! TF.FilePolarity,Positive*
%FSLAX46Y46*%
G04 Gerber Fmt 4.6, Leading zero omitted, Abs format (unit mm)*
G04 Created by KiCad (PCBNEW 8.0.6) date 2025-01-26 18:36:01*
%MOMM*%
%LPD*%
G01*
G04 APERTURE LIST*
G04 Aperture macros list*
%AMRoundRect*
0 Rectangle with rounded corners*
0 $1 Rounding radius*
0 $2 $3 $4 $5 $6 $7 $8 $9 X,Y pos of 4 corners*
0 Add a 4 corners polygon primitive as box body*
4,1,4,$2,$3,$4,$5,$6,$7,$8,$9,$2,$3,0*
0 Add four circle primitives for the rounded corners*
1,1,$1+$1,$2,$3*
1,1,$1+$1,$4,$5*
1,1,$1+$1,$6,$7*
1,1,$1+$1,$8,$9*
0 Add four rect primitives between the rounded corners*
20,1,$1+$1,$2,$3,$4,$5,0*
20,1,$1+$1,$4,$5,$6,$7,0*
20,1,$1+$1,$6,$7,$8,$9,0*
20,1,$1+$1,$8,$9,$2,$3,0*%
G04 Aperture macros list end*
%ADD10R,1.409700X0.279400*%
%ADD11RoundRect,0.250000X0.450000X-0.262500X0.450000X0.262500X-0.450000X0.262500X-0.450000X-0.262500X0*%
%ADD12RoundRect,0.250000X0.475000X-0.250000X0.475000X0.250000X-0.475000X0.250000X-0.475000X-0.250000X0*%
%ADD13RoundRect,0.250000X-0.262500X-0.450000X0.262500X-0.450000X0.262500X0.450000X-0.262500X0.450000X0*%
%ADD14R,0.977900X0.508000*%
%ADD15RoundRect,0.250000X-0.475000X0.250000X-0.475000X-0.250000X0.475000X-0.250000X0.475000X0.250000X0*%
%ADD16RoundRect,0.250000X0.250000X0.475000X-0.250000X0.475000X-0.250000X-0.475000X0.250000X-0.475000X0*%
%ADD17RoundRect,0.250000X-0.250000X-0.475000X0.250000X-0.475000X0.250000X0.475000X-0.250000X0.475000X0*%
%ADD18R,1.600000X0.800000*%
%ADD19R,3.000000X2.100000*%
G04 APERTURE END LIST*
D10*
X158777750Y-79625003D03*
X158777750Y-80275001D03*
X158777750Y-80925003D03*
X158777750Y-81575001D03*
X158777750Y-82225000D03*
X158777750Y-82875001D03*
X158777750Y-83525000D03*
X158777750Y-84175001D03*
X164683250Y-84175001D03*
X164683250Y-83525003D03*
X164683250Y-82875001D03*
X164683250Y-82225003D03*
X164683250Y-81575004D03*
X164683250Y-80925003D03*
X164683250Y-80275004D03*
X164683250Y-79625003D03*
D11*
X144000000Y-81825000D03*
X144000000Y-80000000D03*
D12*
X158730500Y-89400002D03*
X158730500Y-87500002D03*
D13*
X143230500Y-94400002D03*
X145055500Y-94400002D03*
D11*
X146000000Y-75912500D03*
X146000000Y-74087500D03*
D14*
X150500000Y-79500000D03*
X150500000Y-80450001D03*
X150500000Y-81400002D03*
X153230500Y-81400002D03*
X153230500Y-79500000D03*
D13*
X168087500Y-88500000D03*
X169912500Y-88500000D03*
D15*
X163500000Y-93050000D03*
X163500000Y-94950000D03*
D16*
X157900000Y-93900002D03*
X156000000Y-93900002D03*
D13*
X163500000Y-76000000D03*
X165325000Y-76000000D03*
D17*
X137280500Y-91400002D03*
X139180500Y-91400002D03*
X157600000Y-75000000D03*
X159500000Y-75000000D03*
D12*
X164000000Y-89450000D03*
X164000000Y-87550000D03*
D11*
X147230500Y-88500000D03*
X147230500Y-86675000D03*
D13*
X140087500Y-70000000D03*
X141912500Y-70000000D03*
D17*
X152600000Y-89500000D03*
X154500000Y-89500000D03*
D18*
X173000000Y-85250000D03*
X173000000Y-84000000D03*
X173000000Y-82750000D03*
X173000000Y-81500000D03*
X173000000Y-80250000D03*
X173000000Y-79000000D03*
X173000000Y-77750000D03*
D19*
X175900000Y-87800000D03*
X175900000Y-75200000D03*
D11*
X148000000Y-70912500D03*
X148000000Y-69087500D03*
D17*
X157280500Y-69900002D03*
X159180500Y-69900002D03*
D11*
X169000000Y-94912500D03*
X169000000Y-93087500D03*
D16*
X151400000Y-74500000D03*
X149500000Y-74500000D03*
X141950000Y-73500000D03*
X140050000Y-73500000D03*
X151900000Y-93900002D03*
X150000000Y-93900002D03*
M02*
