G04 #@! TF.GenerationSoftware,KiCad,Pcbnew,8.0.6*
G04 #@! TF.CreationDate,2025-01-26T18:36:01-05:00*
G04 #@! TF.ProjectId,Mic_Board_Omni_NEW,4d69635f-426f-4617-9264-5f4f6d6e695f,rev?*
G04 #@! TF.SameCoordinates,Original*
G04 #@! TF.FileFunction,Legend,Top*
G04 #@! TF.FilePolarity,Positive*
%FSLAX46Y46*%
G04 Gerber Fmt 4.6, Leading zero omitted, Abs format (unit mm)*
G04 Created by KiCad (PCBNEW 8.0.6) date 2025-01-26 18:36:01*
%MOMM*%
%LPD*%
G01*
G04 APERTURE LIST*
G04 Aperture macros list*
%AMRoundRect*
0 Rectangle with rounded corners*
0 $1 Rounding radius*
0 $2 $3 $4 $5 $6 $7 $8 $9 X,Y pos of 4 corners*
0 Add a 4 corners polygon primitive as box body*
4,1,4,$2,$3,$4,$5,$6,$7,$8,$9,$2,$3,0*
0 Add four circle primitives for the rounded corners*
1,1,$1+$1,$2,$3*
1,1,$1+$1,$4,$5*
1,1,$1+$1,$6,$7*
1,1,$1+$1,$8,$9*
0 Add four rect primitives between the rounded corners*
20,1,$1+$1,$2,$3,$4,$5,0*
20,1,$1+$1,$4,$5,$6,$7,0*
20,1,$1+$1,$6,$7,$8,$9,0*
20,1,$1+$1,$8,$9,$2,$3,0*%
G04 Aperture macros list end*
%ADD10C,0.087500*%
%ADD11C,0.150000*%
%ADD12C,0.152400*%
%ADD13C,0.000000*%
%ADD14C,0.120000*%
%ADD15C,0.127000*%
%ADD16C,0.300000*%
%ADD17C,0.010000*%
%ADD18R,1.409700X0.279400*%
%ADD19RoundRect,0.250000X0.450000X-0.262500X0.450000X0.262500X-0.450000X0.262500X-0.450000X-0.262500X0*%
%ADD20RoundRect,0.250000X0.475000X-0.250000X0.475000X0.250000X-0.475000X0.250000X-0.475000X-0.250000X0*%
%ADD21C,1.000000*%
%ADD22C,5.600000*%
%ADD23RoundRect,0.250000X-0.262500X-0.450000X0.262500X-0.450000X0.262500X0.450000X-0.262500X0.450000X0*%
%ADD24RoundRect,0.102000X-0.689000X-0.689000X0.689000X-0.689000X0.689000X0.689000X-0.689000X0.689000X0*%
%ADD25C,1.582000*%
%ADD26R,0.977900X0.508000*%
%ADD27RoundRect,0.250000X-0.475000X0.250000X-0.475000X-0.250000X0.475000X-0.250000X0.475000X0.250000X0*%
%ADD28RoundRect,0.250000X0.250000X0.475000X-0.250000X0.475000X-0.250000X-0.475000X0.250000X-0.475000X0*%
%ADD29RoundRect,0.250000X-0.250000X-0.475000X0.250000X-0.475000X0.250000X0.475000X-0.250000X0.475000X0*%
G04 APERTURE END LIST*
D10*
G36*
X164317723Y-67020998D02*
G01*
X164358966Y-67023125D01*
X164396793Y-67026889D01*
X164431207Y-67032288D01*
X164467996Y-67040928D01*
X164504703Y-67053985D01*
X164536632Y-67070706D01*
X164565697Y-67091698D01*
X164591899Y-67116960D01*
X164615238Y-67146493D01*
X164627288Y-67165286D01*
X164645342Y-67200548D01*
X164657287Y-67232609D01*
X164665975Y-67266365D01*
X164671404Y-67301816D01*
X164673576Y-67338962D01*
X164673621Y-67345318D01*
X164671605Y-67387065D01*
X164665557Y-67426609D01*
X164655477Y-67463948D01*
X164641364Y-67499084D01*
X164623219Y-67532016D01*
X164601043Y-67562743D01*
X164591043Y-67574418D01*
X164566316Y-67598460D01*
X164538555Y-67619297D01*
X164507759Y-67636928D01*
X164473928Y-67651354D01*
X164437063Y-67662574D01*
X164397163Y-67670588D01*
X164354228Y-67675397D01*
X164320035Y-67676899D01*
X164308258Y-67677000D01*
X164016755Y-67677000D01*
X164016755Y-67657851D01*
X164041374Y-67657851D01*
X164076722Y-67651226D01*
X164100017Y-67631351D01*
X164109126Y-67595981D01*
X164110617Y-67559885D01*
X164110617Y-67137589D01*
X164109021Y-67100826D01*
X164101698Y-67069714D01*
X164202941Y-67069714D01*
X164202941Y-67630496D01*
X164239168Y-67637708D01*
X164274583Y-67642557D01*
X164305352Y-67644173D01*
X164345820Y-67641390D01*
X164383619Y-67633042D01*
X164418749Y-67619127D01*
X164451211Y-67599646D01*
X164481004Y-67574600D01*
X164490341Y-67565014D01*
X164515384Y-67533288D01*
X164535245Y-67497607D01*
X164547838Y-67464851D01*
X164556833Y-67429349D01*
X164562230Y-67391100D01*
X164564030Y-67350105D01*
X164562230Y-67308831D01*
X164556833Y-67270387D01*
X164547838Y-67234773D01*
X164535245Y-67201989D01*
X164515384Y-67166384D01*
X164490341Y-67134854D01*
X164461300Y-67108068D01*
X164429313Y-67086824D01*
X164394381Y-67071123D01*
X164356504Y-67060963D01*
X164315682Y-67056344D01*
X164301420Y-67056036D01*
X164264299Y-67058294D01*
X164229805Y-67063730D01*
X164202941Y-67069714D01*
X164101698Y-67069714D01*
X164101002Y-67066755D01*
X164097110Y-67060824D01*
X164066523Y-67042605D01*
X164041374Y-67039623D01*
X164016755Y-67039623D01*
X164016755Y-67020475D01*
X164282271Y-67020475D01*
X164317723Y-67020998D01*
G37*
G36*
X164982436Y-67220510D02*
G01*
X165018313Y-67231329D01*
X165049972Y-67249938D01*
X165068733Y-67266672D01*
X165091709Y-67296896D01*
X165105819Y-67328168D01*
X165113988Y-67363585D01*
X165116263Y-67397976D01*
X164811936Y-67397976D01*
X164813457Y-67433415D01*
X164819561Y-67470993D01*
X164830329Y-67504512D01*
X164848345Y-67537851D01*
X164859637Y-67552533D01*
X164884716Y-67577068D01*
X164915459Y-67596290D01*
X164948880Y-67606640D01*
X164972648Y-67608612D01*
X165008336Y-67603997D01*
X165039705Y-67590155D01*
X165047875Y-67584505D01*
X165072130Y-67559246D01*
X165089965Y-67529014D01*
X165101388Y-67501926D01*
X165116263Y-67511672D01*
X165107546Y-67548245D01*
X165092743Y-67582952D01*
X165074476Y-67612236D01*
X165057620Y-67633231D01*
X165031814Y-67657167D01*
X164999130Y-67675920D01*
X164962577Y-67686018D01*
X164936060Y-67687942D01*
X164897816Y-67684052D01*
X164862415Y-67672383D01*
X164829856Y-67652935D01*
X164803698Y-67629537D01*
X164800139Y-67625709D01*
X164778155Y-67596436D01*
X164761571Y-67563073D01*
X164750386Y-67525620D01*
X164745096Y-67490261D01*
X164743719Y-67458500D01*
X164745134Y-67424193D01*
X164750568Y-67386254D01*
X164754887Y-67370621D01*
X164811936Y-67370621D01*
X165015903Y-67370621D01*
X165012495Y-67335544D01*
X165005816Y-67309414D01*
X164986101Y-67279614D01*
X164969912Y-67266159D01*
X164937764Y-67252137D01*
X164920160Y-67250258D01*
X164884617Y-67257246D01*
X164854697Y-67276376D01*
X164848695Y-67282059D01*
X164827452Y-67312016D01*
X164815506Y-67346982D01*
X164811936Y-67370621D01*
X164754887Y-67370621D01*
X164760076Y-67351837D01*
X164776321Y-67316135D01*
X164798112Y-67285228D01*
X164801678Y-67281204D01*
X164828442Y-67256355D01*
X164858020Y-67237610D01*
X164890413Y-67224968D01*
X164925620Y-67218429D01*
X164947002Y-67217432D01*
X164982436Y-67220510D01*
G37*
G36*
X165457519Y-67217432D02*
G01*
X165457519Y-67370621D01*
X165441618Y-67370621D01*
X165431830Y-67336962D01*
X165417792Y-67303122D01*
X165398302Y-67274591D01*
X165394773Y-67271117D01*
X165364549Y-67252218D01*
X165330104Y-67245019D01*
X165321939Y-67244787D01*
X165288160Y-67250467D01*
X165267571Y-67262739D01*
X165248177Y-67291879D01*
X165246884Y-67302575D01*
X165254157Y-67336317D01*
X165262271Y-67349250D01*
X165288796Y-67372457D01*
X165320132Y-67390093D01*
X165322965Y-67391480D01*
X165393063Y-67426016D01*
X165426240Y-67445113D01*
X165456271Y-67470129D01*
X165476959Y-67498090D01*
X165489161Y-67533652D01*
X165490687Y-67552875D01*
X165486246Y-67588522D01*
X165471101Y-67622449D01*
X165448007Y-67648489D01*
X165445209Y-67650841D01*
X165415807Y-67670406D01*
X165380957Y-67683558D01*
X165346997Y-67687905D01*
X165343482Y-67687942D01*
X165308779Y-67684866D01*
X165273341Y-67676567D01*
X165251158Y-67669306D01*
X165225341Y-67664519D01*
X165207903Y-67677000D01*
X165192173Y-67677000D01*
X165192173Y-67523810D01*
X165207903Y-67523810D01*
X165217434Y-67559353D01*
X165232561Y-67592659D01*
X165254716Y-67621774D01*
X165259364Y-67626221D01*
X165289129Y-67647163D01*
X165321491Y-67658439D01*
X165344508Y-67660586D01*
X165379555Y-67653655D01*
X165398534Y-67640925D01*
X165417078Y-67611658D01*
X165419563Y-67593566D01*
X165412152Y-67559275D01*
X165396140Y-67537317D01*
X165366894Y-67514947D01*
X165335104Y-67496124D01*
X165303133Y-67479358D01*
X165271268Y-67462261D01*
X165239913Y-67442092D01*
X165213228Y-67417869D01*
X165211835Y-67416099D01*
X165195550Y-67384769D01*
X165190143Y-67348798D01*
X165190122Y-67346173D01*
X165194526Y-67310563D01*
X165209376Y-67276555D01*
X165227393Y-67254362D01*
X165255603Y-67233336D01*
X165288985Y-67221039D01*
X165323820Y-67217432D01*
X165358598Y-67221290D01*
X165386908Y-67228374D01*
X165419563Y-67235726D01*
X165431531Y-67232307D01*
X165441618Y-67217432D01*
X165457519Y-67217432D01*
G37*
G36*
X165665760Y-66987648D02*
G01*
X165698328Y-67000271D01*
X165700125Y-67002010D01*
X165714260Y-67034177D01*
X165714316Y-67036717D01*
X165701843Y-67069755D01*
X165700125Y-67071595D01*
X165668259Y-67086070D01*
X165665760Y-67086127D01*
X165632892Y-67073355D01*
X165631053Y-67071595D01*
X165616818Y-67040481D01*
X165616692Y-67036717D01*
X165629164Y-67003808D01*
X165630882Y-67002010D01*
X165663200Y-66987705D01*
X165665760Y-66987648D01*
G37*
G36*
X165705767Y-67217432D02*
G01*
X165705767Y-67574759D01*
X165707263Y-67609637D01*
X165711751Y-67630496D01*
X165729532Y-67651012D01*
X165763315Y-67657684D01*
X165772616Y-67657851D01*
X165772616Y-67677000D01*
X165558562Y-67677000D01*
X165558562Y-67657851D01*
X165592892Y-67654861D01*
X165601817Y-67651525D01*
X165619427Y-67630667D01*
X165625410Y-67595909D01*
X165625924Y-67574759D01*
X165625924Y-67403448D01*
X165625586Y-67366797D01*
X165624083Y-67330469D01*
X165621650Y-67309756D01*
X165611050Y-67288214D01*
X165591217Y-67282059D01*
X165558562Y-67289240D01*
X165551894Y-67271801D01*
X165684567Y-67217432D01*
X165705767Y-67217432D01*
G37*
G36*
X166069716Y-67220029D02*
G01*
X166104518Y-67229005D01*
X166136014Y-67244392D01*
X166144818Y-67250258D01*
X166237997Y-67250258D01*
X166262103Y-67251455D01*
X166266891Y-67255558D01*
X166269797Y-67271117D01*
X166267404Y-67288727D01*
X166262274Y-67292659D01*
X166237997Y-67294027D01*
X166180893Y-67294027D01*
X166198272Y-67325721D01*
X166206451Y-67360687D01*
X166207735Y-67383615D01*
X166203127Y-67420864D01*
X166189302Y-67454608D01*
X166166261Y-67484845D01*
X166160547Y-67490471D01*
X166131544Y-67511877D01*
X166097429Y-67526277D01*
X166062813Y-67533196D01*
X166034200Y-67534752D01*
X165999070Y-67531906D01*
X165967351Y-67524665D01*
X165943244Y-67549253D01*
X165938628Y-67556295D01*
X165931277Y-67579376D01*
X165939141Y-67595105D01*
X165970258Y-67606047D01*
X166005362Y-67608294D01*
X166037620Y-67609295D01*
X166072289Y-67610259D01*
X166106538Y-67611551D01*
X166140763Y-67613475D01*
X166165847Y-67615963D01*
X166199252Y-67624461D01*
X166230362Y-67642610D01*
X166237313Y-67648960D01*
X166257316Y-67678624D01*
X166263958Y-67712178D01*
X166263984Y-67714613D01*
X166257964Y-67750753D01*
X166242042Y-67782276D01*
X166219205Y-67809561D01*
X166213035Y-67815485D01*
X166183284Y-67839075D01*
X166150324Y-67857784D01*
X166114154Y-67871613D01*
X166074774Y-67880561D01*
X166039505Y-67884289D01*
X166017274Y-67884899D01*
X165978108Y-67882919D01*
X165941690Y-67876980D01*
X165908021Y-67867080D01*
X165872908Y-67850918D01*
X165860666Y-67843524D01*
X165834772Y-67820832D01*
X165824591Y-67794114D01*
X165829891Y-67771375D01*
X165838170Y-67758210D01*
X165893321Y-67758210D01*
X165908997Y-67789049D01*
X165921189Y-67797875D01*
X165955407Y-67813383D01*
X165988815Y-67821653D01*
X166027588Y-67826248D01*
X166060188Y-67827282D01*
X166095860Y-67825842D01*
X166131299Y-67820670D01*
X166164373Y-67810356D01*
X166187732Y-67797191D01*
X166214409Y-67772176D01*
X166228573Y-67739451D01*
X166228935Y-67733078D01*
X166212682Y-67702551D01*
X166204316Y-67698200D01*
X166170132Y-67690301D01*
X166135364Y-67687122D01*
X166105324Y-67685890D01*
X166066501Y-67684620D01*
X166031200Y-67682989D01*
X165994468Y-67680630D01*
X165958359Y-67677334D01*
X165938970Y-67674948D01*
X165916028Y-67702429D01*
X165904776Y-67719913D01*
X165893601Y-67752677D01*
X165893321Y-67758210D01*
X165838170Y-67758210D01*
X165849183Y-67740697D01*
X165863401Y-67722478D01*
X165888063Y-67696398D01*
X165912470Y-67671187D01*
X165884095Y-67651483D01*
X165877079Y-67644686D01*
X165866821Y-67618015D01*
X165877293Y-67584374D01*
X165880498Y-67578863D01*
X165903152Y-67551636D01*
X165929140Y-67527512D01*
X165943757Y-67515091D01*
X165914049Y-67496214D01*
X165888936Y-67470015D01*
X165881695Y-67459184D01*
X165866969Y-67426295D01*
X165860490Y-67390462D01*
X165860153Y-67379683D01*
X165862414Y-67358824D01*
X165943757Y-67358824D01*
X165945798Y-67395123D01*
X165952974Y-67430774D01*
X165967005Y-67463946D01*
X165976413Y-67477990D01*
X166002905Y-67501061D01*
X166037622Y-67510101D01*
X166040013Y-67510133D01*
X166075087Y-67502316D01*
X166100024Y-67482436D01*
X166116153Y-67452114D01*
X166122788Y-67416435D01*
X166123618Y-67395241D01*
X166121545Y-67358696D01*
X166114257Y-67322590D01*
X166100005Y-67288690D01*
X166090450Y-67274194D01*
X166064326Y-67251123D01*
X166029752Y-67242083D01*
X166027362Y-67242052D01*
X165992810Y-67250158D01*
X165967693Y-67270775D01*
X165951331Y-67301765D01*
X165944599Y-67337653D01*
X165943757Y-67358824D01*
X165862414Y-67358824D01*
X165864048Y-67343746D01*
X165875733Y-67310758D01*
X165895207Y-67280719D01*
X165909392Y-67265304D01*
X165939280Y-67242163D01*
X165973550Y-67226595D01*
X166007691Y-67219115D01*
X166035568Y-67217432D01*
X166069716Y-67220029D01*
G37*
G36*
X166444016Y-67310611D02*
G01*
X166468039Y-67283767D01*
X166496393Y-67257561D01*
X166528820Y-67235267D01*
X166560543Y-67221891D01*
X166591563Y-67217432D01*
X166627045Y-67222595D01*
X166653625Y-67235726D01*
X166678245Y-67261640D01*
X166694027Y-67292981D01*
X166695000Y-67295565D01*
X166702608Y-67329774D01*
X166705341Y-67366932D01*
X166705600Y-67384983D01*
X166705600Y-67574759D01*
X166707267Y-67610193D01*
X166712267Y-67632034D01*
X166729364Y-67651012D01*
X166763513Y-67657684D01*
X166772962Y-67657851D01*
X166772962Y-67677000D01*
X166555146Y-67677000D01*
X166555146Y-67657851D01*
X166564207Y-67657851D01*
X166598907Y-67652993D01*
X166607292Y-67648448D01*
X166624389Y-67620579D01*
X166626224Y-67586143D01*
X166626270Y-67574930D01*
X166626270Y-67393018D01*
X166624734Y-67358430D01*
X166618144Y-67323151D01*
X166610540Y-67305140D01*
X166584531Y-67282156D01*
X166558053Y-67277614D01*
X166522306Y-67283775D01*
X166490219Y-67299855D01*
X166461766Y-67322527D01*
X166444016Y-67340702D01*
X166444016Y-67574930D01*
X166445180Y-67609657D01*
X166449316Y-67630667D01*
X166467780Y-67651354D01*
X166502977Y-67657622D01*
X166515652Y-67657851D01*
X166515652Y-67677000D01*
X166297836Y-67677000D01*
X166297836Y-67657851D01*
X166307411Y-67657851D01*
X166340963Y-67651106D01*
X166352889Y-67640583D01*
X166363027Y-67606776D01*
X166364685Y-67574759D01*
X166364685Y-67409773D01*
X166364461Y-67373603D01*
X166363549Y-67339419D01*
X166361095Y-67312150D01*
X166349982Y-67288385D01*
X166329979Y-67282059D01*
X166297836Y-67289240D01*
X166290655Y-67271801D01*
X166423328Y-67217432D01*
X166444016Y-67217432D01*
X166444016Y-67310611D01*
G37*
G36*
X167170809Y-67306337D02*
G01*
X167195142Y-67276123D01*
X167220185Y-67252160D01*
X167250297Y-67232105D01*
X167285894Y-67219603D01*
X167308782Y-67217432D01*
X167345582Y-67222057D01*
X167379623Y-67235933D01*
X167407566Y-67256033D01*
X167427093Y-67275904D01*
X167449159Y-67307736D01*
X167463295Y-67339990D01*
X167472604Y-67376351D01*
X167476741Y-67410786D01*
X167477529Y-67435419D01*
X167475630Y-67471264D01*
X167468337Y-67511303D01*
X167455574Y-67548096D01*
X167437342Y-67581644D01*
X167413640Y-67611946D01*
X167399738Y-67625879D01*
X167369755Y-67650062D01*
X167338299Y-67668305D01*
X167305371Y-67680608D01*
X167270971Y-67686972D01*
X167250652Y-67687942D01*
X167214325Y-67684861D01*
X167179945Y-67676427D01*
X167172519Y-67673922D01*
X167140009Y-67660217D01*
X167109499Y-67643460D01*
X167091479Y-67631863D01*
X167091479Y-67337624D01*
X167170809Y-67337624D01*
X167170809Y-67603482D01*
X167197268Y-67625815D01*
X167221416Y-67640070D01*
X167254729Y-67650649D01*
X167275101Y-67652380D01*
X167309675Y-67644394D01*
X167339836Y-67622848D01*
X167356653Y-67603995D01*
X167374918Y-67573194D01*
X167386136Y-67539956D01*
X167392630Y-67501205D01*
X167394438Y-67462774D01*
X167392630Y-67427339D01*
X167386136Y-67391470D01*
X167373184Y-67357018D01*
X167356653Y-67331640D01*
X167332036Y-67307477D01*
X167299851Y-67290295D01*
X167270826Y-67285820D01*
X167235799Y-67292043D01*
X167219877Y-67298985D01*
X167191654Y-67318566D01*
X167170809Y-67337624D01*
X167091479Y-67337624D01*
X167091479Y-67173664D01*
X167091195Y-67135837D01*
X167089933Y-67099665D01*
X167087889Y-67080827D01*
X167076605Y-67057233D01*
X167057285Y-67050907D01*
X167023604Y-67058601D01*
X167016936Y-67041675D01*
X167149096Y-66987648D01*
X167170809Y-66987648D01*
X167170809Y-67306337D01*
G37*
G36*
X167514801Y-67228374D02*
G01*
X167720136Y-67228374D01*
X167720136Y-67247523D01*
X167710048Y-67247523D01*
X167677564Y-67256926D01*
X167666793Y-67280349D01*
X167674919Y-67314734D01*
X167682522Y-67332324D01*
X167789891Y-67554756D01*
X167888370Y-67311124D01*
X167896448Y-67276940D01*
X167896577Y-67272143D01*
X167893157Y-67259149D01*
X167881189Y-67250771D01*
X167852295Y-67247523D01*
X167852295Y-67228374D01*
X167995568Y-67228374D01*
X167995568Y-67247523D01*
X167968213Y-67255217D01*
X167947013Y-67276930D01*
X167932947Y-67308562D01*
X167930771Y-67314030D01*
X167751423Y-67755133D01*
X167735520Y-67788722D01*
X167714837Y-67820238D01*
X167690981Y-67845643D01*
X167683206Y-67852073D01*
X167652119Y-67872076D01*
X167619472Y-67883328D01*
X167602337Y-67884899D01*
X167568081Y-67877303D01*
X167555662Y-67868828D01*
X167537815Y-67838421D01*
X167537369Y-67832069D01*
X167550533Y-67799927D01*
X167582708Y-67787895D01*
X167586950Y-67787788D01*
X167621891Y-67795213D01*
X167630205Y-67798217D01*
X167654141Y-67805569D01*
X167685600Y-67790353D01*
X167706023Y-67762278D01*
X167720136Y-67731539D01*
X167751423Y-67653748D01*
X167593105Y-67320698D01*
X167574780Y-67290364D01*
X167570024Y-67283598D01*
X167550362Y-67261030D01*
X167517805Y-67248257D01*
X167514801Y-67247523D01*
X167514801Y-67228374D01*
G37*
G36*
X168137644Y-67217432D02*
G01*
X168170237Y-67228630D01*
X168175258Y-67233161D01*
X168190603Y-67264041D01*
X168190987Y-67270775D01*
X168179789Y-67303489D01*
X168175258Y-67308559D01*
X168144378Y-67323738D01*
X168137644Y-67324117D01*
X168104885Y-67313041D01*
X168099860Y-67308559D01*
X168084682Y-67277513D01*
X168084302Y-67270775D01*
X168095378Y-67238182D01*
X168099860Y-67233161D01*
X168130861Y-67217816D01*
X168137644Y-67217432D01*
G37*
G36*
X168136618Y-67580743D02*
G01*
X168169712Y-67592063D01*
X168174745Y-67596644D01*
X168190090Y-67627857D01*
X168190474Y-67634599D01*
X168179154Y-67667313D01*
X168174574Y-67672383D01*
X168143406Y-67687562D01*
X168136618Y-67687942D01*
X168103904Y-67676865D01*
X168098834Y-67672383D01*
X168083656Y-67641337D01*
X168083276Y-67634599D01*
X168094352Y-67601763D01*
X168098834Y-67596644D01*
X168129881Y-67581132D01*
X168136618Y-67580743D01*
G37*
G36*
X163987006Y-68196475D02*
G01*
X164163960Y-68196475D01*
X164562662Y-68688868D01*
X164562662Y-68311196D01*
X164561066Y-68275077D01*
X164553046Y-68241727D01*
X164549155Y-68235969D01*
X164518848Y-68218484D01*
X164492906Y-68215623D01*
X164470338Y-68215623D01*
X164470338Y-68196475D01*
X164697215Y-68196475D01*
X164697215Y-68215623D01*
X164674134Y-68215623D01*
X164638786Y-68221907D01*
X164615491Y-68240756D01*
X164606382Y-68275631D01*
X164604891Y-68311367D01*
X164604891Y-68863942D01*
X164587623Y-68863942D01*
X164157805Y-68334960D01*
X164157805Y-68738279D01*
X164159320Y-68774397D01*
X164166933Y-68807747D01*
X164170628Y-68813505D01*
X164201242Y-68830990D01*
X164227048Y-68833851D01*
X164250129Y-68833851D01*
X164250129Y-68853000D01*
X164023080Y-68853000D01*
X164023080Y-68833851D01*
X164045648Y-68833851D01*
X164079509Y-68828329D01*
X164104804Y-68808718D01*
X164113914Y-68774057D01*
X164115404Y-68738450D01*
X164115404Y-68283669D01*
X164091802Y-68257410D01*
X164072320Y-68239730D01*
X164041160Y-68224002D01*
X164029406Y-68219898D01*
X163993877Y-68215690D01*
X163987006Y-68215623D01*
X163987006Y-68196475D01*
G37*
G36*
X164982436Y-68396510D02*
G01*
X165018313Y-68407329D01*
X165049972Y-68425938D01*
X165068733Y-68442672D01*
X165091709Y-68472896D01*
X165105819Y-68504168D01*
X165113988Y-68539585D01*
X165116263Y-68573976D01*
X164811936Y-68573976D01*
X164813457Y-68609415D01*
X164819561Y-68646993D01*
X164830329Y-68680512D01*
X164848345Y-68713851D01*
X164859637Y-68728533D01*
X164884716Y-68753068D01*
X164915459Y-68772290D01*
X164948880Y-68782640D01*
X164972648Y-68784612D01*
X165008336Y-68779997D01*
X165039705Y-68766155D01*
X165047875Y-68760505D01*
X165072130Y-68735246D01*
X165089965Y-68705014D01*
X165101388Y-68677926D01*
X165116263Y-68687672D01*
X165107546Y-68724245D01*
X165092743Y-68758952D01*
X165074476Y-68788236D01*
X165057620Y-68809231D01*
X165031814Y-68833167D01*
X164999130Y-68851920D01*
X164962577Y-68862018D01*
X164936060Y-68863942D01*
X164897816Y-68860052D01*
X164862415Y-68848383D01*
X164829856Y-68828935D01*
X164803698Y-68805537D01*
X164800139Y-68801709D01*
X164778155Y-68772436D01*
X164761571Y-68739073D01*
X164750386Y-68701620D01*
X164745096Y-68666261D01*
X164743719Y-68634500D01*
X164745134Y-68600193D01*
X164750568Y-68562254D01*
X164754887Y-68546621D01*
X164811936Y-68546621D01*
X165015903Y-68546621D01*
X165012495Y-68511544D01*
X165005816Y-68485414D01*
X164986101Y-68455614D01*
X164969912Y-68442159D01*
X164937764Y-68428137D01*
X164920160Y-68426258D01*
X164884617Y-68433246D01*
X164854697Y-68452376D01*
X164848695Y-68458059D01*
X164827452Y-68488016D01*
X164815506Y-68522982D01*
X164811936Y-68546621D01*
X164754887Y-68546621D01*
X164760076Y-68527837D01*
X164776321Y-68492135D01*
X164798112Y-68461228D01*
X164801678Y-68457204D01*
X164828442Y-68432355D01*
X164858020Y-68413610D01*
X164890413Y-68400968D01*
X164925620Y-68394429D01*
X164947002Y-68393432D01*
X164982436Y-68396510D01*
G37*
G36*
X165302278Y-68163648D02*
G01*
X165302278Y-68485243D01*
X165327560Y-68458550D01*
X165352682Y-68434805D01*
X165380707Y-68413495D01*
X165386737Y-68410016D01*
X165419980Y-68397076D01*
X165449312Y-68393432D01*
X165484233Y-68398647D01*
X165513768Y-68414290D01*
X165537276Y-68441133D01*
X165552096Y-68474437D01*
X165553775Y-68479943D01*
X165559969Y-68516903D01*
X165562119Y-68551101D01*
X165562827Y-68588356D01*
X165562836Y-68593467D01*
X165562836Y-68750759D01*
X165564503Y-68786321D01*
X165569504Y-68808547D01*
X165585746Y-68827012D01*
X165620752Y-68833744D01*
X165628147Y-68833851D01*
X165628147Y-68853000D01*
X165411870Y-68853000D01*
X165411870Y-68833851D01*
X165421957Y-68833851D01*
X165456480Y-68828993D01*
X165464699Y-68824448D01*
X165481625Y-68796408D01*
X165482960Y-68761715D01*
X165482993Y-68750588D01*
X165482993Y-68592612D01*
X165482398Y-68555510D01*
X165480055Y-68520925D01*
X165475471Y-68496698D01*
X165457542Y-68467031D01*
X165451706Y-68462333D01*
X165418046Y-68451057D01*
X165412383Y-68450878D01*
X165377495Y-68457414D01*
X165363314Y-68463530D01*
X165333401Y-68484258D01*
X165306684Y-68509942D01*
X165302278Y-68514650D01*
X165302278Y-68750588D01*
X165303367Y-68785956D01*
X165307236Y-68807692D01*
X165326043Y-68826328D01*
X165359623Y-68833491D01*
X165373401Y-68833851D01*
X165373401Y-68853000D01*
X165155073Y-68853000D01*
X165155073Y-68833851D01*
X165189527Y-68829487D01*
X165201235Y-68824618D01*
X165216622Y-68806325D01*
X165221975Y-68772336D01*
X165222435Y-68751101D01*
X165222435Y-68350348D01*
X165222211Y-68316047D01*
X165221169Y-68280817D01*
X165218845Y-68256998D01*
X165207732Y-68233404D01*
X165187728Y-68227078D01*
X165155073Y-68234772D01*
X165148405Y-68217846D01*
X165280052Y-68163648D01*
X165302278Y-68163648D01*
G37*
G36*
X165879347Y-68395402D02*
G01*
X165915379Y-68402968D01*
X165940851Y-68413607D01*
X165968073Y-68436189D01*
X165982739Y-68461307D01*
X165989542Y-68496196D01*
X165991322Y-68532142D01*
X165991458Y-68547818D01*
X165991458Y-68700494D01*
X165991692Y-68735904D01*
X165992919Y-68770736D01*
X165993852Y-68779482D01*
X166001716Y-68798973D01*
X166014539Y-68803760D01*
X166028046Y-68800512D01*
X166055181Y-68776853D01*
X166066856Y-68765292D01*
X166066856Y-68792305D01*
X166043523Y-68820218D01*
X166017418Y-68843724D01*
X165985628Y-68860514D01*
X165963932Y-68863942D01*
X165931100Y-68852257D01*
X165926489Y-68847528D01*
X165913751Y-68814132D01*
X165912128Y-68791792D01*
X165884854Y-68812570D01*
X165856905Y-68833081D01*
X165828114Y-68851760D01*
X165826985Y-68852316D01*
X165793165Y-68862307D01*
X165771591Y-68863942D01*
X165737153Y-68858693D01*
X165705999Y-68841302D01*
X165696364Y-68832141D01*
X165677213Y-68802974D01*
X165667826Y-68767147D01*
X165666786Y-68748366D01*
X165669927Y-68725114D01*
X165747655Y-68725114D01*
X165753493Y-68759024D01*
X165768342Y-68783415D01*
X165796606Y-68803250D01*
X165815872Y-68806496D01*
X165849408Y-68798454D01*
X165880390Y-68781324D01*
X165908421Y-68760767D01*
X165912128Y-68757769D01*
X165912128Y-68587654D01*
X165879013Y-68601203D01*
X165846666Y-68615135D01*
X165818265Y-68629029D01*
X165789178Y-68648238D01*
X165764944Y-68672532D01*
X165763897Y-68673994D01*
X165749574Y-68706500D01*
X165747655Y-68725114D01*
X165669927Y-68725114D01*
X165671384Y-68714333D01*
X165681318Y-68691604D01*
X165704085Y-68663302D01*
X165732456Y-68640189D01*
X165749706Y-68629029D01*
X165782323Y-68611487D01*
X165814760Y-68596459D01*
X165847487Y-68582614D01*
X165884757Y-68567880D01*
X165912128Y-68557563D01*
X165912128Y-68539953D01*
X165910464Y-68505760D01*
X165903071Y-68470478D01*
X165891099Y-68448484D01*
X165861628Y-68428301D01*
X165830404Y-68423523D01*
X165795910Y-68430886D01*
X165782191Y-68440620D01*
X165764772Y-68470464D01*
X165763897Y-68479943D01*
X165764923Y-68509179D01*
X165755655Y-68542617D01*
X165753639Y-68545083D01*
X165724061Y-68557563D01*
X165694996Y-68544570D01*
X165683756Y-68511621D01*
X165683712Y-68508837D01*
X165690682Y-68474988D01*
X165709487Y-68445796D01*
X165725942Y-68429678D01*
X165755764Y-68410564D01*
X165788287Y-68399414D01*
X165826191Y-68393998D01*
X165844766Y-68393432D01*
X165879347Y-68395402D01*
G37*
G36*
X166409651Y-68215623D02*
G01*
X166409651Y-68196475D01*
X166689016Y-68196475D01*
X166689016Y-68215623D01*
X166665422Y-68215623D01*
X166630971Y-68221522D01*
X166607292Y-68239217D01*
X166597585Y-68272679D01*
X166595677Y-68309464D01*
X166595666Y-68313076D01*
X166595666Y-68631593D01*
X166594661Y-68666535D01*
X166591130Y-68701707D01*
X166584225Y-68735647D01*
X166579595Y-68750588D01*
X166564248Y-68783166D01*
X166542313Y-68812426D01*
X166524030Y-68830090D01*
X166495035Y-68849363D01*
X166462122Y-68860636D01*
X166428799Y-68863942D01*
X166392970Y-68859786D01*
X166360999Y-68844858D01*
X166357676Y-68842228D01*
X166335977Y-68814274D01*
X166331688Y-68792647D01*
X166342207Y-68759608D01*
X166343656Y-68758111D01*
X166375539Y-68743806D01*
X166380757Y-68743579D01*
X166408283Y-68753495D01*
X166428280Y-68782410D01*
X166439399Y-68805812D01*
X166463560Y-68830720D01*
X166467780Y-68831115D01*
X166492058Y-68815215D01*
X166502240Y-68781797D01*
X166503342Y-68758966D01*
X166503342Y-68313247D01*
X166502326Y-68278549D01*
X166497187Y-68247937D01*
X166477013Y-68227249D01*
X166443228Y-68216180D01*
X166433244Y-68215623D01*
X166409651Y-68215623D01*
G37*
G36*
X166974750Y-68396125D02*
G01*
X167008091Y-68404203D01*
X167043479Y-68420435D01*
X167075088Y-68443997D01*
X167099173Y-68470027D01*
X167119225Y-68499533D01*
X167134352Y-68530904D01*
X167144554Y-68564141D01*
X167149830Y-68599243D01*
X167150635Y-68620138D01*
X167147863Y-68657565D01*
X167140629Y-68691477D01*
X167128905Y-68725605D01*
X167122254Y-68740843D01*
X167104599Y-68772809D01*
X167083563Y-68800042D01*
X167056224Y-68824749D01*
X167044120Y-68832996D01*
X167011923Y-68849315D01*
X166977522Y-68859590D01*
X166940917Y-68863821D01*
X166933332Y-68863942D01*
X166897454Y-68861129D01*
X166859228Y-68850736D01*
X166824913Y-68832686D01*
X166794508Y-68806979D01*
X166775184Y-68783928D01*
X166755865Y-68753671D01*
X166741291Y-68721844D01*
X166731462Y-68688446D01*
X166726378Y-68653478D01*
X166725603Y-68632790D01*
X166727983Y-68598511D01*
X166729037Y-68593467D01*
X166815020Y-68593467D01*
X166816361Y-68628940D01*
X166821313Y-68667940D01*
X166829914Y-68704370D01*
X166842163Y-68738232D01*
X166853147Y-68760847D01*
X166873813Y-68791589D01*
X166900689Y-68815675D01*
X166935057Y-68829400D01*
X166954019Y-68831115D01*
X166989234Y-68824710D01*
X167019030Y-68805495D01*
X167030956Y-68792305D01*
X167048185Y-68759037D01*
X167056962Y-68722020D01*
X167060478Y-68687134D01*
X167061217Y-68658949D01*
X167059986Y-68623208D01*
X167055257Y-68583569D01*
X167046983Y-68547477D01*
X167035162Y-68514932D01*
X167016889Y-68481444D01*
X167010781Y-68472762D01*
X166985071Y-68446286D01*
X166952000Y-68429937D01*
X166923757Y-68426258D01*
X166890175Y-68432885D01*
X166872466Y-68441646D01*
X166846699Y-68466067D01*
X166830921Y-68495159D01*
X166820626Y-68529859D01*
X166816014Y-68564819D01*
X166815020Y-68593467D01*
X166729037Y-68593467D01*
X166735124Y-68564341D01*
X166747025Y-68530278D01*
X166755694Y-68511401D01*
X166774108Y-68479955D01*
X166798057Y-68450884D01*
X166825679Y-68427990D01*
X166834682Y-68422326D01*
X166865917Y-68407089D01*
X166901588Y-68396846D01*
X166938632Y-68393432D01*
X166974750Y-68396125D01*
G37*
G36*
X167333572Y-68482337D02*
G01*
X167357906Y-68452123D01*
X167382948Y-68428160D01*
X167413061Y-68408105D01*
X167448657Y-68395603D01*
X167471545Y-68393432D01*
X167508345Y-68398057D01*
X167542387Y-68411933D01*
X167570330Y-68432033D01*
X167589856Y-68451904D01*
X167611922Y-68483736D01*
X167626058Y-68515990D01*
X167635367Y-68552351D01*
X167639505Y-68586786D01*
X167640293Y-68611419D01*
X167638393Y-68647264D01*
X167631100Y-68687303D01*
X167618338Y-68724096D01*
X167600105Y-68757644D01*
X167576403Y-68787946D01*
X167562501Y-68801879D01*
X167532518Y-68826062D01*
X167501063Y-68844305D01*
X167468135Y-68856608D01*
X167433734Y-68862972D01*
X167413415Y-68863942D01*
X167377088Y-68860861D01*
X167342709Y-68852427D01*
X167335282Y-68849922D01*
X167302772Y-68836217D01*
X167272262Y-68819460D01*
X167254242Y-68807863D01*
X167254242Y-68513624D01*
X167333572Y-68513624D01*
X167333572Y-68779482D01*
X167360032Y-68801815D01*
X167384180Y-68816070D01*
X167417492Y-68826649D01*
X167437864Y-68828380D01*
X167472438Y-68820394D01*
X167502600Y-68798848D01*
X167519417Y-68779995D01*
X167537682Y-68749194D01*
X167548899Y-68715956D01*
X167555393Y-68677205D01*
X167557201Y-68638774D01*
X167555393Y-68603339D01*
X167548899Y-68567470D01*
X167535947Y-68533018D01*
X167519417Y-68507640D01*
X167494800Y-68483477D01*
X167462615Y-68466295D01*
X167433590Y-68461820D01*
X167398562Y-68468043D01*
X167382641Y-68474985D01*
X167354417Y-68494566D01*
X167333572Y-68513624D01*
X167254242Y-68513624D01*
X167254242Y-68349664D01*
X167253958Y-68311837D01*
X167252696Y-68275665D01*
X167250652Y-68256827D01*
X167239368Y-68233233D01*
X167220048Y-68226907D01*
X167186367Y-68234601D01*
X167179699Y-68217675D01*
X167311859Y-68163648D01*
X167333572Y-68163648D01*
X167333572Y-68482337D01*
G37*
G36*
X167677564Y-68404374D02*
G01*
X167882899Y-68404374D01*
X167882899Y-68423523D01*
X167872812Y-68423523D01*
X167840327Y-68432926D01*
X167829556Y-68456349D01*
X167837682Y-68490734D01*
X167845286Y-68508324D01*
X167952655Y-68730756D01*
X168051133Y-68487124D01*
X168059212Y-68452940D01*
X168059340Y-68448143D01*
X168055921Y-68435149D01*
X168043953Y-68426771D01*
X168015059Y-68423523D01*
X168015059Y-68404374D01*
X168158332Y-68404374D01*
X168158332Y-68423523D01*
X168130976Y-68431217D01*
X168109776Y-68452930D01*
X168095710Y-68484562D01*
X168093534Y-68490030D01*
X167914187Y-68931133D01*
X167898284Y-68964722D01*
X167877600Y-68996238D01*
X167853745Y-69021643D01*
X167845969Y-69028073D01*
X167814882Y-69048076D01*
X167782236Y-69059328D01*
X167765101Y-69060899D01*
X167730845Y-69053303D01*
X167718426Y-69044828D01*
X167700579Y-69014421D01*
X167700132Y-69008069D01*
X167713297Y-68975927D01*
X167745471Y-68963895D01*
X167749713Y-68963788D01*
X167784655Y-68971213D01*
X167792969Y-68974217D01*
X167816905Y-68981569D01*
X167848363Y-68966353D01*
X167868786Y-68938278D01*
X167882899Y-68907539D01*
X167914187Y-68829748D01*
X167755868Y-68496698D01*
X167737543Y-68466364D01*
X167732787Y-68459598D01*
X167713126Y-68437030D01*
X167680568Y-68424257D01*
X167677564Y-68423523D01*
X167677564Y-68404374D01*
G37*
G36*
X164921870Y-69372475D02*
G01*
X164921870Y-69391623D01*
X164887909Y-69397258D01*
X164880495Y-69400856D01*
X164855673Y-69426077D01*
X164850233Y-69434879D01*
X164835808Y-69468496D01*
X164823583Y-69503581D01*
X164819801Y-69515064D01*
X164638060Y-70039942D01*
X164618911Y-70039942D01*
X164470338Y-69622775D01*
X164322620Y-70039942D01*
X164305352Y-70039942D01*
X164111643Y-69499163D01*
X164099625Y-69466178D01*
X164086856Y-69433544D01*
X164084117Y-69427698D01*
X164061006Y-69402263D01*
X164057958Y-69400514D01*
X164023221Y-69391936D01*
X164012993Y-69391623D01*
X164012993Y-69372475D01*
X164254403Y-69372475D01*
X164254403Y-69391623D01*
X164242777Y-69391623D01*
X164209281Y-69399298D01*
X164203796Y-69403249D01*
X164190460Y-69430946D01*
X164197934Y-69466273D01*
X164209093Y-69500830D01*
X164211660Y-69508225D01*
X164339888Y-69873417D01*
X164448112Y-69562080D01*
X164428963Y-69507712D01*
X164413576Y-69464115D01*
X164397839Y-69432867D01*
X164391008Y-69422227D01*
X164375621Y-69406840D01*
X164351514Y-69394530D01*
X164322620Y-69391623D01*
X164322620Y-69372475D01*
X164576510Y-69372475D01*
X164576510Y-69391623D01*
X164559242Y-69391623D01*
X164524939Y-69399298D01*
X164519748Y-69403249D01*
X164507267Y-69434366D01*
X164513396Y-69470620D01*
X164523892Y-69505033D01*
X164528981Y-69519680D01*
X164653960Y-69873417D01*
X164778084Y-69514893D01*
X164789174Y-69481280D01*
X164797799Y-69446227D01*
X164799113Y-69432485D01*
X164792103Y-69411798D01*
X164774665Y-69398291D01*
X164739402Y-69391942D01*
X164727135Y-69391623D01*
X164727135Y-69372475D01*
X164921870Y-69372475D01*
G37*
G36*
X165121263Y-69572510D02*
G01*
X165157141Y-69583329D01*
X165188799Y-69601938D01*
X165207561Y-69618672D01*
X165230536Y-69648896D01*
X165244647Y-69680168D01*
X165252816Y-69715585D01*
X165255090Y-69749976D01*
X164950764Y-69749976D01*
X164952284Y-69785415D01*
X164958389Y-69822993D01*
X164969156Y-69856512D01*
X164987172Y-69889851D01*
X164998464Y-69904533D01*
X165023543Y-69929068D01*
X165054286Y-69948290D01*
X165087707Y-69958640D01*
X165111475Y-69960612D01*
X165147164Y-69955997D01*
X165178533Y-69942155D01*
X165186702Y-69936505D01*
X165210958Y-69911246D01*
X165228793Y-69881014D01*
X165240216Y-69853926D01*
X165255090Y-69863672D01*
X165246373Y-69900245D01*
X165231570Y-69934952D01*
X165213303Y-69964236D01*
X165196448Y-69985231D01*
X165170642Y-70009167D01*
X165137957Y-70027920D01*
X165101405Y-70038018D01*
X165074888Y-70039942D01*
X165036644Y-70036052D01*
X165001243Y-70024383D01*
X164968683Y-70004935D01*
X164942526Y-69981537D01*
X164938967Y-69977709D01*
X164916983Y-69948436D01*
X164900398Y-69915073D01*
X164889213Y-69877620D01*
X164883924Y-69842261D01*
X164882547Y-69810500D01*
X164883962Y-69776193D01*
X164889395Y-69738254D01*
X164893714Y-69722621D01*
X164950764Y-69722621D01*
X165154731Y-69722621D01*
X165151322Y-69687544D01*
X165144644Y-69661414D01*
X165124929Y-69631614D01*
X165108740Y-69618159D01*
X165076591Y-69604137D01*
X165058988Y-69602258D01*
X165023445Y-69609246D01*
X164993525Y-69628376D01*
X164987522Y-69634059D01*
X164966279Y-69664016D01*
X164954334Y-69698982D01*
X164950764Y-69722621D01*
X164893714Y-69722621D01*
X164898904Y-69703837D01*
X164915148Y-69668135D01*
X164936940Y-69637228D01*
X164940505Y-69633204D01*
X164967270Y-69608355D01*
X164996848Y-69589610D01*
X165029241Y-69576968D01*
X165064448Y-69570429D01*
X165085830Y-69569432D01*
X165121263Y-69572510D01*
G37*
G36*
X165440080Y-69662611D02*
G01*
X165464103Y-69635767D01*
X165492458Y-69609561D01*
X165524884Y-69587267D01*
X165556607Y-69573891D01*
X165587627Y-69569432D01*
X165623109Y-69574595D01*
X165649689Y-69587726D01*
X165674309Y-69613640D01*
X165690092Y-69644981D01*
X165691064Y-69647565D01*
X165698672Y-69681774D01*
X165701405Y-69718932D01*
X165701664Y-69736983D01*
X165701664Y-69926759D01*
X165703331Y-69962193D01*
X165708332Y-69984034D01*
X165725429Y-70003012D01*
X165759577Y-70009684D01*
X165769026Y-70009851D01*
X165769026Y-70029000D01*
X165551210Y-70029000D01*
X165551210Y-70009851D01*
X165560272Y-70009851D01*
X165594971Y-70004993D01*
X165603356Y-70000448D01*
X165620453Y-69972579D01*
X165622288Y-69938143D01*
X165622334Y-69926930D01*
X165622334Y-69745018D01*
X165620798Y-69710430D01*
X165614208Y-69675151D01*
X165606605Y-69657140D01*
X165580595Y-69634156D01*
X165554117Y-69629614D01*
X165518370Y-69635775D01*
X165486284Y-69651855D01*
X165457830Y-69674527D01*
X165440080Y-69692702D01*
X165440080Y-69926930D01*
X165441244Y-69961657D01*
X165445380Y-69982667D01*
X165463845Y-70003354D01*
X165499042Y-70009622D01*
X165511716Y-70009851D01*
X165511716Y-70029000D01*
X165293900Y-70029000D01*
X165293900Y-70009851D01*
X165303475Y-70009851D01*
X165337028Y-70003106D01*
X165348953Y-69992583D01*
X165359091Y-69958776D01*
X165360750Y-69926759D01*
X165360750Y-69761773D01*
X165360525Y-69725603D01*
X165359614Y-69691419D01*
X165357159Y-69664150D01*
X165346046Y-69640385D01*
X165326043Y-69634059D01*
X165293900Y-69641240D01*
X165286720Y-69623801D01*
X165419392Y-69569432D01*
X165440080Y-69569432D01*
X165440080Y-69662611D01*
G37*
G36*
X166191835Y-69851020D02*
G01*
X166192059Y-69886133D01*
X166193101Y-69922060D01*
X166195425Y-69946079D01*
X166206880Y-69970015D01*
X166225516Y-69976683D01*
X166260052Y-69968476D01*
X166265352Y-69985402D01*
X166134560Y-70039942D01*
X166112505Y-70039942D01*
X166112505Y-69976854D01*
X166086504Y-70001087D01*
X166057134Y-70021266D01*
X166049417Y-70025238D01*
X166015368Y-70036711D01*
X165983080Y-70039942D01*
X165948149Y-70036148D01*
X165915505Y-70024768D01*
X165885147Y-70005801D01*
X165857076Y-69979247D01*
X165836091Y-69950974D01*
X165820260Y-69919412D01*
X165809584Y-69884562D01*
X165804062Y-69846422D01*
X165803220Y-69823152D01*
X165805318Y-69787947D01*
X165805763Y-69785538D01*
X165891270Y-69785538D01*
X165892754Y-69820671D01*
X165898239Y-69857602D01*
X165909456Y-69894459D01*
X165925952Y-69925610D01*
X165933499Y-69935821D01*
X165958107Y-69961028D01*
X165987225Y-69979361D01*
X166021415Y-69987763D01*
X166027875Y-69987967D01*
X166062957Y-69980687D01*
X166094489Y-69961044D01*
X166112505Y-69943856D01*
X166112505Y-69714586D01*
X166105556Y-69679303D01*
X166095066Y-69654404D01*
X166074696Y-69626824D01*
X166056939Y-69613371D01*
X166024748Y-69600875D01*
X166010436Y-69599523D01*
X165975219Y-69606853D01*
X165945624Y-69626787D01*
X165935038Y-69637820D01*
X165913880Y-69669965D01*
X165900887Y-69704715D01*
X165894005Y-69739889D01*
X165891312Y-69779514D01*
X165891270Y-69785538D01*
X165805763Y-69785538D01*
X165811611Y-69753885D01*
X165822100Y-69720964D01*
X165836784Y-69689186D01*
X165855663Y-69658550D01*
X165862889Y-69648591D01*
X165886460Y-69621690D01*
X165916984Y-69597339D01*
X165950764Y-69580564D01*
X165987801Y-69571365D01*
X166016249Y-69569432D01*
X166050700Y-69573055D01*
X166084006Y-69585410D01*
X166112505Y-69606533D01*
X166112505Y-69525151D01*
X166112221Y-69487338D01*
X166110958Y-69451226D01*
X166108914Y-69432485D01*
X166097630Y-69408891D01*
X166078311Y-69402565D01*
X166045143Y-69410259D01*
X166038817Y-69393504D01*
X166170122Y-69339648D01*
X166191835Y-69339648D01*
X166191835Y-69851020D01*
G37*
G36*
X166266036Y-69580374D02*
G01*
X166471371Y-69580374D01*
X166471371Y-69599523D01*
X166461284Y-69599523D01*
X166428799Y-69608926D01*
X166418028Y-69632349D01*
X166426154Y-69666734D01*
X166433757Y-69684324D01*
X166541127Y-69906756D01*
X166639605Y-69663124D01*
X166647684Y-69628940D01*
X166647812Y-69624143D01*
X166644392Y-69611149D01*
X166632424Y-69602771D01*
X166603531Y-69599523D01*
X166603531Y-69580374D01*
X166746803Y-69580374D01*
X166746803Y-69599523D01*
X166719448Y-69607217D01*
X166698248Y-69628930D01*
X166684182Y-69660562D01*
X166682006Y-69666030D01*
X166502658Y-70107133D01*
X166486756Y-70140722D01*
X166466072Y-70172238D01*
X166442217Y-70197643D01*
X166434441Y-70204073D01*
X166403354Y-70224076D01*
X166370707Y-70235328D01*
X166353572Y-70236899D01*
X166319316Y-70229303D01*
X166306898Y-70220828D01*
X166289050Y-70190421D01*
X166288604Y-70184069D01*
X166301769Y-70151927D01*
X166333943Y-70139895D01*
X166338185Y-70139788D01*
X166373127Y-70147213D01*
X166381441Y-70150217D01*
X166405376Y-70157569D01*
X166436835Y-70142353D01*
X166457258Y-70114278D01*
X166471371Y-70083539D01*
X166502658Y-70005748D01*
X166344340Y-69672698D01*
X166326015Y-69642364D01*
X166321259Y-69635598D01*
X166301598Y-69613030D01*
X166269040Y-69600257D01*
X166266036Y-69599523D01*
X166266036Y-69580374D01*
G37*
G36*
X167392530Y-69363916D02*
G01*
X167429977Y-69371066D01*
X167465747Y-69382983D01*
X167499838Y-69399667D01*
X167532251Y-69421118D01*
X167562987Y-69447335D01*
X167574811Y-69459157D01*
X167601753Y-69490854D01*
X167624129Y-69525040D01*
X167641938Y-69561713D01*
X167655180Y-69600875D01*
X167663857Y-69642524D01*
X167667510Y-69677634D01*
X167668332Y-69705011D01*
X167666704Y-69741956D01*
X167661820Y-69777457D01*
X167653681Y-69811513D01*
X167642285Y-69844125D01*
X167627634Y-69875293D01*
X167609728Y-69905016D01*
X167601653Y-69916501D01*
X167579889Y-69943497D01*
X167551182Y-69972124D01*
X167519650Y-69996640D01*
X167485293Y-70017044D01*
X167448111Y-70033337D01*
X167428461Y-70039942D01*
X167447138Y-70069981D01*
X167469627Y-70101061D01*
X167492868Y-70127871D01*
X167520352Y-70153281D01*
X167534462Y-70163895D01*
X167563912Y-70181686D01*
X167595327Y-70195225D01*
X167628709Y-70204511D01*
X167664057Y-70209544D01*
X167664057Y-70225957D01*
X167626013Y-70222866D01*
X167590969Y-70217189D01*
X167554772Y-70208756D01*
X167522152Y-70199115D01*
X167489534Y-70187593D01*
X167457652Y-70174272D01*
X167426506Y-70159151D01*
X167396097Y-70142230D01*
X167379050Y-70131752D01*
X167350396Y-70112633D01*
X167319833Y-70090121D01*
X167291599Y-70066904D01*
X167265694Y-70042981D01*
X167262620Y-70039942D01*
X167229794Y-70025708D01*
X167197156Y-70009185D01*
X167166221Y-69990191D01*
X167152857Y-69980444D01*
X167125171Y-69955600D01*
X167100754Y-69928084D01*
X167079607Y-69897898D01*
X167061730Y-69865039D01*
X167047593Y-69829210D01*
X167038536Y-69795318D01*
X167032572Y-69759053D01*
X167029701Y-69720416D01*
X167029431Y-69703986D01*
X167139521Y-69703986D01*
X167140587Y-69742598D01*
X167143785Y-69778935D01*
X167149115Y-69812995D01*
X167158774Y-69852370D01*
X167171765Y-69888188D01*
X167188086Y-69920451D01*
X167207739Y-69949157D01*
X167232488Y-69974938D01*
X167264780Y-69996648D01*
X167301346Y-70010088D01*
X167336848Y-70015063D01*
X167347592Y-70015322D01*
X167385484Y-70012156D01*
X167420021Y-70002657D01*
X167451204Y-69986827D01*
X167479033Y-69964664D01*
X167493429Y-69949157D01*
X167515450Y-69917120D01*
X167532915Y-69879866D01*
X167543989Y-69844835D01*
X167551899Y-69806182D01*
X167556645Y-69763905D01*
X167558164Y-69727475D01*
X167558227Y-69718005D01*
X167557359Y-69682206D01*
X167554025Y-69641638D01*
X167548191Y-69603678D01*
X167539856Y-69568328D01*
X167529021Y-69535586D01*
X167522665Y-69520193D01*
X167505844Y-69487962D01*
X167483792Y-69458209D01*
X167458200Y-69434835D01*
X167449832Y-69429066D01*
X167417233Y-69412421D01*
X167381966Y-69402685D01*
X167347592Y-69399830D01*
X167310989Y-69402841D01*
X167277627Y-69411873D01*
X167243465Y-69429568D01*
X167217044Y-69451503D01*
X167206713Y-69462747D01*
X167183878Y-69495243D01*
X167168458Y-69526813D01*
X167156319Y-69562465D01*
X167147461Y-69602200D01*
X167142737Y-69636927D01*
X167140112Y-69674266D01*
X167139521Y-69703986D01*
X167029431Y-69703986D01*
X167029417Y-69703131D01*
X167030897Y-69667150D01*
X167035337Y-69632723D01*
X167045049Y-69591876D01*
X167059386Y-69553459D01*
X167078348Y-69517471D01*
X167101935Y-69483912D01*
X167124134Y-69458815D01*
X167154706Y-69430789D01*
X167187223Y-69407514D01*
X167221685Y-69388988D01*
X167258092Y-69375213D01*
X167296444Y-69366188D01*
X167336741Y-69361913D01*
X167353405Y-69361533D01*
X167392530Y-69363916D01*
G37*
G36*
X168118667Y-69580374D02*
G01*
X168118667Y-69850507D01*
X168118891Y-69885470D01*
X168119932Y-69921262D01*
X168122257Y-69945224D01*
X168133883Y-69969331D01*
X168152348Y-69976170D01*
X168186029Y-69967963D01*
X168192868Y-69984889D01*
X168061050Y-70039942D01*
X168039337Y-70039942D01*
X168039337Y-69946592D01*
X168012708Y-69974514D01*
X167986736Y-69999105D01*
X167958670Y-70020659D01*
X167952826Y-70024041D01*
X167920253Y-70036448D01*
X167889909Y-70039942D01*
X167855287Y-70034556D01*
X167825624Y-70018399D01*
X167801421Y-69991903D01*
X167787840Y-69962834D01*
X167780710Y-69927664D01*
X167777910Y-69892455D01*
X167777411Y-69866578D01*
X167777411Y-69667911D01*
X167774178Y-69633787D01*
X167770572Y-69624314D01*
X167750568Y-69605678D01*
X167715067Y-69599583D01*
X167702868Y-69599523D01*
X167702868Y-69580374D01*
X167857083Y-69580374D01*
X167857083Y-69878546D01*
X167859170Y-69913268D01*
X167869104Y-69947853D01*
X167878454Y-69960270D01*
X167908788Y-69977019D01*
X167930258Y-69979760D01*
X167964366Y-69972451D01*
X167977103Y-69966766D01*
X168005741Y-69947661D01*
X168032660Y-69923388D01*
X168039337Y-69916672D01*
X168039337Y-69665004D01*
X168035009Y-69630233D01*
X168025659Y-69613884D01*
X167992872Y-69601366D01*
X167968726Y-69599523D01*
X167968726Y-69580374D01*
X168118667Y-69580374D01*
G37*
G36*
X168334260Y-69339648D02*
G01*
X168366828Y-69352271D01*
X168368625Y-69354010D01*
X168382760Y-69386177D01*
X168382815Y-69388717D01*
X168370343Y-69421755D01*
X168368625Y-69423595D01*
X168336758Y-69438070D01*
X168334260Y-69438127D01*
X168301391Y-69425355D01*
X168299553Y-69423595D01*
X168285318Y-69392481D01*
X168285191Y-69388717D01*
X168297664Y-69355808D01*
X168299382Y-69354010D01*
X168331699Y-69339705D01*
X168334260Y-69339648D01*
G37*
G36*
X168374267Y-69569432D02*
G01*
X168374267Y-69926759D01*
X168375763Y-69961637D01*
X168380251Y-69982496D01*
X168398032Y-70003012D01*
X168431815Y-70009684D01*
X168441116Y-70009851D01*
X168441116Y-70029000D01*
X168227062Y-70029000D01*
X168227062Y-70009851D01*
X168261391Y-70006861D01*
X168270317Y-70003525D01*
X168287927Y-69982667D01*
X168293910Y-69947909D01*
X168294424Y-69926759D01*
X168294424Y-69755448D01*
X168294086Y-69718797D01*
X168292583Y-69682469D01*
X168290150Y-69661756D01*
X168279549Y-69640214D01*
X168259717Y-69634059D01*
X168227062Y-69641240D01*
X168220394Y-69623801D01*
X168353066Y-69569432D01*
X168374267Y-69569432D01*
G37*
G36*
X168877260Y-69886752D02*
G01*
X168871960Y-70029000D01*
X168483346Y-70029000D01*
X168483346Y-70011390D01*
X168775704Y-69613200D01*
X168631577Y-69613200D01*
X168596888Y-69614346D01*
X168570369Y-69619184D01*
X168546946Y-69641752D01*
X168535374Y-69674012D01*
X168531901Y-69700737D01*
X168512752Y-69700737D01*
X168515659Y-69580374D01*
X168884954Y-69580374D01*
X168884954Y-69598497D01*
X168589689Y-69996173D01*
X168750230Y-69996173D01*
X168785959Y-69994706D01*
X168818789Y-69987283D01*
X168844259Y-69962498D01*
X168847854Y-69955824D01*
X168856536Y-69921149D01*
X168860847Y-69886752D01*
X168877260Y-69886752D01*
G37*
G36*
X169058831Y-69339648D02*
G01*
X169058831Y-69661243D01*
X169084113Y-69634550D01*
X169109234Y-69610805D01*
X169137260Y-69589495D01*
X169143290Y-69586016D01*
X169176533Y-69573076D01*
X169205865Y-69569432D01*
X169240785Y-69574647D01*
X169270321Y-69590290D01*
X169293829Y-69617133D01*
X169308649Y-69650437D01*
X169310327Y-69655943D01*
X169316522Y-69692903D01*
X169318672Y-69727101D01*
X169319380Y-69764356D01*
X169319389Y-69769467D01*
X169319389Y-69926759D01*
X169321056Y-69962321D01*
X169326057Y-69984547D01*
X169342299Y-70003012D01*
X169377305Y-70009744D01*
X169384699Y-70009851D01*
X169384699Y-70029000D01*
X169168422Y-70029000D01*
X169168422Y-70009851D01*
X169178510Y-70009851D01*
X169213033Y-70004993D01*
X169221252Y-70000448D01*
X169238178Y-69972408D01*
X169239513Y-69937715D01*
X169239546Y-69926588D01*
X169239546Y-69768612D01*
X169238951Y-69731510D01*
X169236607Y-69696925D01*
X169232023Y-69672698D01*
X169214095Y-69643031D01*
X169208258Y-69638333D01*
X169174599Y-69627057D01*
X169168935Y-69626878D01*
X169134048Y-69633414D01*
X169119867Y-69639530D01*
X169089953Y-69660258D01*
X169063236Y-69685942D01*
X169058831Y-69690650D01*
X169058831Y-69926588D01*
X169059920Y-69961956D01*
X169063789Y-69983692D01*
X169082595Y-70002328D01*
X169116176Y-70009491D01*
X169129954Y-70009851D01*
X169129954Y-70029000D01*
X168911625Y-70029000D01*
X168911625Y-70009851D01*
X168946080Y-70005487D01*
X168957787Y-70000618D01*
X168973175Y-69982325D01*
X168978528Y-69948336D01*
X168978988Y-69927101D01*
X168978988Y-69526348D01*
X168978763Y-69492047D01*
X168977722Y-69456817D01*
X168975397Y-69432998D01*
X168964284Y-69409404D01*
X168944281Y-69403078D01*
X168911625Y-69410772D01*
X168904958Y-69393846D01*
X169036605Y-69339648D01*
X169058831Y-69339648D01*
G37*
G36*
X169541137Y-69672356D02*
G01*
X169560385Y-69642485D01*
X169583946Y-69613652D01*
X169609696Y-69591829D01*
X169640453Y-69576519D01*
X169674931Y-69569629D01*
X169682016Y-69569432D01*
X169717655Y-69573571D01*
X169749750Y-69585986D01*
X169778303Y-69606677D01*
X169792634Y-69621749D01*
X169813818Y-69651581D01*
X169829800Y-69685127D01*
X169840578Y-69722388D01*
X169845675Y-69757282D01*
X169847002Y-69788445D01*
X169845408Y-69823376D01*
X169839285Y-69862726D01*
X169828570Y-69899275D01*
X169813263Y-69933022D01*
X169793363Y-69963969D01*
X169781692Y-69978392D01*
X169756796Y-70002375D01*
X169725079Y-70022571D01*
X169689878Y-70035073D01*
X169651193Y-70039881D01*
X169646113Y-70039942D01*
X169610945Y-70037095D01*
X169584563Y-70029854D01*
X169554318Y-70011955D01*
X169541137Y-70000960D01*
X169541137Y-70134317D01*
X169542339Y-70169136D01*
X169546608Y-70191250D01*
X169565928Y-70210570D01*
X169600969Y-70217407D01*
X169615680Y-70217750D01*
X169615680Y-70236899D01*
X169384870Y-70236899D01*
X169384870Y-70217750D01*
X169397009Y-70217750D01*
X169430972Y-70212747D01*
X169442145Y-70207663D01*
X169456336Y-70190395D01*
X169461059Y-70154536D01*
X169461465Y-70130214D01*
X169461465Y-69711166D01*
X169461207Y-69701934D01*
X169541137Y-69701934D01*
X169541137Y-69868117D01*
X169541762Y-69903315D01*
X169545309Y-69937804D01*
X169545582Y-69938898D01*
X169560371Y-69969987D01*
X169578408Y-69988480D01*
X169610195Y-70005155D01*
X169644574Y-70009851D01*
X169680617Y-70003587D01*
X169710679Y-69984794D01*
X169722536Y-69971896D01*
X169741380Y-69940897D01*
X169752952Y-69907961D01*
X169759652Y-69869961D01*
X169761517Y-69832555D01*
X169759961Y-69795996D01*
X169754209Y-69757522D01*
X169744220Y-69723548D01*
X169727614Y-69690230D01*
X169717236Y-69675775D01*
X169690313Y-69651201D01*
X169657027Y-69638747D01*
X169644061Y-69637820D01*
X169609728Y-69644360D01*
X169598412Y-69649446D01*
X169569890Y-69672157D01*
X169543615Y-69699233D01*
X169541137Y-69701934D01*
X169461207Y-69701934D01*
X169460482Y-69675946D01*
X169457533Y-69656456D01*
X169445223Y-69639188D01*
X169422484Y-69633375D01*
X169393077Y-69640043D01*
X169387264Y-69624655D01*
X169523014Y-69569432D01*
X169541137Y-69569432D01*
X169541137Y-69672356D01*
G37*
G36*
X170020708Y-69339648D02*
G01*
X170053276Y-69352271D01*
X170055073Y-69354010D01*
X170069208Y-69386177D01*
X170069263Y-69388717D01*
X170056791Y-69421755D01*
X170055073Y-69423595D01*
X170023206Y-69438070D01*
X170020708Y-69438127D01*
X169987839Y-69425355D01*
X169986001Y-69423595D01*
X169971766Y-69392481D01*
X169971639Y-69388717D01*
X169984112Y-69355808D01*
X169985830Y-69354010D01*
X170018147Y-69339705D01*
X170020708Y-69339648D01*
G37*
G36*
X170060715Y-69569432D02*
G01*
X170060715Y-69926759D01*
X170062211Y-69961637D01*
X170066699Y-69982496D01*
X170084480Y-70003012D01*
X170118263Y-70009684D01*
X170127564Y-70009851D01*
X170127564Y-70029000D01*
X169913510Y-70029000D01*
X169913510Y-70009851D01*
X169947839Y-70006861D01*
X169956765Y-70003525D01*
X169974375Y-69982667D01*
X169980358Y-69947909D01*
X169980872Y-69926759D01*
X169980872Y-69755448D01*
X169980534Y-69718797D01*
X169979031Y-69682469D01*
X169976598Y-69661756D01*
X169965997Y-69640214D01*
X169946165Y-69634059D01*
X169913510Y-69641240D01*
X169906842Y-69623801D01*
X170039515Y-69569432D01*
X170060715Y-69569432D01*
G37*
G36*
X164291402Y-70549010D02*
G01*
X164329722Y-70550986D01*
X164367124Y-70555028D01*
X164401053Y-70561848D01*
X164407421Y-70563691D01*
X164439613Y-70577045D01*
X164468249Y-70596419D01*
X164491196Y-70619256D01*
X164510762Y-70648972D01*
X164522205Y-70682406D01*
X164525561Y-70716025D01*
X164521738Y-70751979D01*
X164510267Y-70784827D01*
X164491150Y-70814570D01*
X164486409Y-70820146D01*
X164457732Y-70845194D01*
X164424727Y-70863426D01*
X164389667Y-70876203D01*
X164365020Y-70882550D01*
X164499574Y-71071985D01*
X164521843Y-71101830D01*
X164544954Y-71128891D01*
X164570409Y-71152600D01*
X164578904Y-71158667D01*
X164611820Y-71174389D01*
X164646233Y-71183124D01*
X164665586Y-71185851D01*
X164665586Y-71205000D01*
X164491367Y-71205000D01*
X164270645Y-70895031D01*
X164235839Y-70895865D01*
X164230809Y-70895886D01*
X164217302Y-70895715D01*
X164202428Y-70895031D01*
X164202428Y-71086859D01*
X164203747Y-71121254D01*
X164210672Y-71155564D01*
X164215935Y-71164480D01*
X164245881Y-71182846D01*
X164270645Y-71185851D01*
X164296290Y-71185851D01*
X164296290Y-71205000D01*
X164016755Y-71205000D01*
X164016755Y-71185851D01*
X164041374Y-71185851D01*
X164076851Y-71179098D01*
X164100530Y-71158838D01*
X164109199Y-71124149D01*
X164110617Y-71087885D01*
X164110617Y-70665589D01*
X164109021Y-70628672D01*
X164101076Y-70594979D01*
X164202428Y-70594979D01*
X164202428Y-70865282D01*
X164218328Y-70865624D01*
X164229441Y-70865795D01*
X164268014Y-70863856D01*
X164302202Y-70858039D01*
X164335905Y-70846643D01*
X164366974Y-70827768D01*
X164369979Y-70825275D01*
X164394953Y-70797780D01*
X164410677Y-70765943D01*
X164417152Y-70729766D01*
X164417337Y-70722009D01*
X164413597Y-70685992D01*
X164400844Y-70651541D01*
X164379040Y-70622505D01*
X164349899Y-70600603D01*
X164314899Y-70587793D01*
X164277997Y-70584036D01*
X164242790Y-70587125D01*
X164208313Y-70593654D01*
X164202428Y-70594979D01*
X164101076Y-70594979D01*
X164101002Y-70594665D01*
X164097110Y-70588824D01*
X164066523Y-70570605D01*
X164041374Y-70567623D01*
X164016755Y-70567623D01*
X164016755Y-70548475D01*
X164254403Y-70548475D01*
X164291402Y-70549010D01*
G37*
G36*
X164900715Y-70747402D02*
G01*
X164936747Y-70754968D01*
X164962219Y-70765607D01*
X164989441Y-70788189D01*
X165004106Y-70813307D01*
X165010910Y-70848196D01*
X165012689Y-70884142D01*
X165012826Y-70899818D01*
X165012826Y-71052494D01*
X165013059Y-71087904D01*
X165014287Y-71122736D01*
X165015219Y-71131482D01*
X165023084Y-71150973D01*
X165035907Y-71155760D01*
X165049413Y-71152512D01*
X165076549Y-71128853D01*
X165088224Y-71117292D01*
X165088224Y-71144305D01*
X165064891Y-71172218D01*
X165038786Y-71195724D01*
X165006996Y-71212514D01*
X164985300Y-71215942D01*
X164952468Y-71204257D01*
X164947857Y-71199528D01*
X164935119Y-71166132D01*
X164933496Y-71143792D01*
X164906222Y-71164570D01*
X164878272Y-71185081D01*
X164849481Y-71203760D01*
X164848353Y-71204316D01*
X164814533Y-71214307D01*
X164792958Y-71215942D01*
X164758521Y-71210693D01*
X164727367Y-71193302D01*
X164717732Y-71184141D01*
X164698581Y-71154974D01*
X164689194Y-71119147D01*
X164688154Y-71100366D01*
X164691295Y-71077114D01*
X164769023Y-71077114D01*
X164774861Y-71111024D01*
X164789710Y-71135415D01*
X164817973Y-71155250D01*
X164837240Y-71158496D01*
X164870776Y-71150454D01*
X164901758Y-71133324D01*
X164929789Y-71112767D01*
X164933496Y-71109769D01*
X164933496Y-70939654D01*
X164900381Y-70953203D01*
X164868034Y-70967135D01*
X164839633Y-70981029D01*
X164810546Y-71000238D01*
X164786312Y-71024532D01*
X164785265Y-71025994D01*
X164770942Y-71058500D01*
X164769023Y-71077114D01*
X164691295Y-71077114D01*
X164692752Y-71066333D01*
X164702686Y-71043604D01*
X164725453Y-71015302D01*
X164753824Y-70992189D01*
X164771074Y-70981029D01*
X164803691Y-70963487D01*
X164836128Y-70948459D01*
X164868854Y-70934614D01*
X164906124Y-70919880D01*
X164933496Y-70909563D01*
X164933496Y-70891953D01*
X164931832Y-70857760D01*
X164924439Y-70822478D01*
X164912466Y-70800484D01*
X164882996Y-70780301D01*
X164851772Y-70775523D01*
X164817278Y-70782886D01*
X164803558Y-70792620D01*
X164786140Y-70822464D01*
X164785265Y-70831943D01*
X164786290Y-70861179D01*
X164777023Y-70894617D01*
X164775006Y-70897083D01*
X164745429Y-70909563D01*
X164716364Y-70896570D01*
X164705124Y-70863621D01*
X164705080Y-70860837D01*
X164712049Y-70826988D01*
X164730855Y-70797796D01*
X164747309Y-70781678D01*
X164777132Y-70762564D01*
X164809654Y-70751414D01*
X164847559Y-70745998D01*
X164866133Y-70745432D01*
X164900715Y-70747402D01*
G37*
G36*
X165247226Y-70838611D02*
G01*
X165271249Y-70811767D01*
X165299603Y-70785561D01*
X165332030Y-70763267D01*
X165363753Y-70749891D01*
X165394773Y-70745432D01*
X165430255Y-70750595D01*
X165456835Y-70763726D01*
X165481455Y-70789640D01*
X165497237Y-70820981D01*
X165498210Y-70823565D01*
X165505818Y-70857774D01*
X165508551Y-70894932D01*
X165508810Y-70912983D01*
X165508810Y-71102759D01*
X165510477Y-71138193D01*
X165515478Y-71160034D01*
X165532575Y-71179012D01*
X165566723Y-71185684D01*
X165576172Y-71185851D01*
X165576172Y-71205000D01*
X165358356Y-71205000D01*
X165358356Y-71185851D01*
X165367418Y-71185851D01*
X165402117Y-71180993D01*
X165410502Y-71176448D01*
X165427599Y-71148579D01*
X165429434Y-71114143D01*
X165429480Y-71102930D01*
X165429480Y-70921018D01*
X165427944Y-70886430D01*
X165421354Y-70851151D01*
X165413750Y-70833140D01*
X165387741Y-70810156D01*
X165361263Y-70805614D01*
X165325516Y-70811775D01*
X165293429Y-70827855D01*
X165264976Y-70850527D01*
X165247226Y-70868702D01*
X165247226Y-71102930D01*
X165248390Y-71137657D01*
X165252526Y-71158667D01*
X165270990Y-71179354D01*
X165306188Y-71185622D01*
X165318862Y-71185851D01*
X165318862Y-71205000D01*
X165101046Y-71205000D01*
X165101046Y-71185851D01*
X165110621Y-71185851D01*
X165144173Y-71179106D01*
X165156099Y-71168583D01*
X165166237Y-71134776D01*
X165167896Y-71102759D01*
X165167896Y-70937773D01*
X165167671Y-70901603D01*
X165166760Y-70867419D01*
X165164305Y-70840150D01*
X165153192Y-70816385D01*
X165133189Y-70810059D01*
X165101046Y-70817240D01*
X165093866Y-70799801D01*
X165226538Y-70745432D01*
X165247226Y-70745432D01*
X165247226Y-70838611D01*
G37*
G36*
X165720471Y-70515648D02*
G01*
X165753038Y-70528271D01*
X165754836Y-70530010D01*
X165768971Y-70562177D01*
X165769026Y-70564717D01*
X165756554Y-70597755D01*
X165754836Y-70599595D01*
X165722969Y-70614070D01*
X165720471Y-70614127D01*
X165687602Y-70601355D01*
X165685764Y-70599595D01*
X165671528Y-70568481D01*
X165671402Y-70564717D01*
X165683874Y-70531808D01*
X165685593Y-70530010D01*
X165717910Y-70515705D01*
X165720471Y-70515648D01*
G37*
G36*
X165760478Y-70745432D02*
G01*
X165760478Y-71102759D01*
X165761974Y-71137637D01*
X165766461Y-71158496D01*
X165784242Y-71179012D01*
X165818025Y-71185684D01*
X165827327Y-71185851D01*
X165827327Y-71205000D01*
X165613272Y-71205000D01*
X165613272Y-71185851D01*
X165647602Y-71182861D01*
X165656528Y-71179525D01*
X165674138Y-71158667D01*
X165680121Y-71123909D01*
X165680635Y-71102759D01*
X165680635Y-70931448D01*
X165680296Y-70894797D01*
X165678794Y-70858469D01*
X165676360Y-70837756D01*
X165665760Y-70816214D01*
X165645928Y-70810059D01*
X165613272Y-70817240D01*
X165606605Y-70799801D01*
X165739277Y-70745432D01*
X165760478Y-70745432D01*
G37*
G36*
X166097505Y-70747402D02*
G01*
X166133537Y-70754968D01*
X166159009Y-70765607D01*
X166186231Y-70788189D01*
X166200896Y-70813307D01*
X166207700Y-70848196D01*
X166209479Y-70884142D01*
X166209616Y-70899818D01*
X166209616Y-71052494D01*
X166209849Y-71087904D01*
X166211077Y-71122736D01*
X166212009Y-71131482D01*
X166219874Y-71150973D01*
X166232697Y-71155760D01*
X166246203Y-71152512D01*
X166273339Y-71128853D01*
X166285013Y-71117292D01*
X166285013Y-71144305D01*
X166261681Y-71172218D01*
X166235576Y-71195724D01*
X166203786Y-71212514D01*
X166182090Y-71215942D01*
X166149258Y-71204257D01*
X166144647Y-71199528D01*
X166131908Y-71166132D01*
X166130286Y-71143792D01*
X166103012Y-71164570D01*
X166075062Y-71185081D01*
X166046271Y-71203760D01*
X166045143Y-71204316D01*
X166011323Y-71214307D01*
X165989748Y-71215942D01*
X165955311Y-71210693D01*
X165924157Y-71193302D01*
X165914521Y-71184141D01*
X165895371Y-71154974D01*
X165885984Y-71119147D01*
X165884944Y-71100366D01*
X165888085Y-71077114D01*
X165965812Y-71077114D01*
X165971651Y-71111024D01*
X165986500Y-71135415D01*
X166014763Y-71155250D01*
X166034030Y-71158496D01*
X166067566Y-71150454D01*
X166098548Y-71133324D01*
X166126579Y-71112767D01*
X166130286Y-71109769D01*
X166130286Y-70939654D01*
X166097171Y-70953203D01*
X166064823Y-70967135D01*
X166036423Y-70981029D01*
X166007335Y-71000238D01*
X165983101Y-71024532D01*
X165982055Y-71025994D01*
X165967732Y-71058500D01*
X165965812Y-71077114D01*
X165888085Y-71077114D01*
X165889542Y-71066333D01*
X165899476Y-71043604D01*
X165922243Y-71015302D01*
X165950614Y-70992189D01*
X165967864Y-70981029D01*
X166000481Y-70963487D01*
X166032918Y-70948459D01*
X166065644Y-70934614D01*
X166102914Y-70919880D01*
X166130286Y-70909563D01*
X166130286Y-70891953D01*
X166128622Y-70857760D01*
X166121229Y-70822478D01*
X166109256Y-70800484D01*
X166079786Y-70780301D01*
X166048562Y-70775523D01*
X166014068Y-70782886D01*
X166000348Y-70792620D01*
X165982930Y-70822464D01*
X165982055Y-70831943D01*
X165983080Y-70861179D01*
X165973813Y-70894617D01*
X165971796Y-70897083D01*
X165942219Y-70909563D01*
X165913154Y-70896570D01*
X165901914Y-70863621D01*
X165901870Y-70860837D01*
X165908839Y-70826988D01*
X165927645Y-70797796D01*
X165944099Y-70781678D01*
X165973922Y-70762564D01*
X166006444Y-70751414D01*
X166044349Y-70745998D01*
X166062923Y-70745432D01*
X166097505Y-70747402D01*
G37*
G36*
X167063782Y-71079166D02*
G01*
X167078777Y-71112278D01*
X167096039Y-71142905D01*
X167113534Y-71163967D01*
X167144249Y-71180484D01*
X167175767Y-71185851D01*
X167175767Y-71205000D01*
X166918457Y-71205000D01*
X166918457Y-71185851D01*
X166952733Y-71181344D01*
X166971116Y-71173199D01*
X166984794Y-71146699D01*
X166977314Y-71111276D01*
X166965645Y-71081046D01*
X166926151Y-70988893D01*
X166673799Y-70988893D01*
X166629518Y-71089937D01*
X166617208Y-71122506D01*
X166613105Y-71145673D01*
X166627295Y-71171489D01*
X166660131Y-71182688D01*
X166688674Y-71185851D01*
X166688674Y-71205000D01*
X166483339Y-71205000D01*
X166483339Y-71185851D01*
X166516977Y-71177559D01*
X166536168Y-71167044D01*
X166558692Y-71137868D01*
X166575983Y-71105848D01*
X166590537Y-71073524D01*
X166641988Y-70953332D01*
X166688674Y-70953332D01*
X166912815Y-70953332D01*
X166802198Y-70687131D01*
X166688674Y-70953332D01*
X166641988Y-70953332D01*
X166819979Y-70537533D01*
X166836734Y-70537533D01*
X167063782Y-71079166D01*
G37*
G36*
X167365031Y-70515648D02*
G01*
X167365031Y-71103101D01*
X167366527Y-71137766D01*
X167371015Y-71158325D01*
X167389480Y-71178841D01*
X167424147Y-71185604D01*
X167436154Y-71185851D01*
X167436154Y-71205000D01*
X167220219Y-71205000D01*
X167220219Y-71185851D01*
X167254905Y-71182293D01*
X167261594Y-71179525D01*
X167278862Y-71158838D01*
X167284688Y-71124169D01*
X167285188Y-71103101D01*
X167285188Y-70700809D01*
X167284917Y-70663257D01*
X167283715Y-70627410D01*
X167281769Y-70608827D01*
X167270997Y-70585404D01*
X167252020Y-70579078D01*
X167220219Y-70586772D01*
X167212184Y-70569846D01*
X167343318Y-70515648D01*
X167365031Y-70515648D01*
G37*
G36*
X167770401Y-70745432D02*
G01*
X167770401Y-70898621D01*
X167754501Y-70898621D01*
X167744713Y-70864962D01*
X167730674Y-70831122D01*
X167711184Y-70802591D01*
X167707655Y-70799117D01*
X167677431Y-70780218D01*
X167642986Y-70773019D01*
X167634822Y-70772787D01*
X167601042Y-70778467D01*
X167580453Y-70790739D01*
X167561059Y-70819879D01*
X167559766Y-70830575D01*
X167567039Y-70864317D01*
X167575153Y-70877250D01*
X167601678Y-70900457D01*
X167633014Y-70918093D01*
X167635847Y-70919480D01*
X167705945Y-70954016D01*
X167739122Y-70973113D01*
X167769153Y-70998129D01*
X167789841Y-71026090D01*
X167802044Y-71061652D01*
X167803569Y-71080875D01*
X167799128Y-71116522D01*
X167783983Y-71150449D01*
X167760889Y-71176489D01*
X167758091Y-71178841D01*
X167728689Y-71198406D01*
X167693839Y-71211558D01*
X167659879Y-71215905D01*
X167656364Y-71215942D01*
X167621662Y-71212866D01*
X167586223Y-71204567D01*
X167564040Y-71197306D01*
X167538224Y-71192519D01*
X167520785Y-71205000D01*
X167505055Y-71205000D01*
X167505055Y-71051810D01*
X167520785Y-71051810D01*
X167530316Y-71087353D01*
X167545443Y-71120659D01*
X167567598Y-71149774D01*
X167572247Y-71154221D01*
X167602011Y-71175163D01*
X167634373Y-71186439D01*
X167657390Y-71188586D01*
X167692437Y-71181655D01*
X167711416Y-71168925D01*
X167729961Y-71139658D01*
X167732445Y-71121566D01*
X167725034Y-71087275D01*
X167709023Y-71065317D01*
X167679776Y-71042947D01*
X167647986Y-71024124D01*
X167616015Y-71007358D01*
X167584150Y-70990261D01*
X167552795Y-70970092D01*
X167526110Y-70945869D01*
X167524717Y-70944099D01*
X167508432Y-70912769D01*
X167503025Y-70876798D01*
X167503004Y-70874173D01*
X167507408Y-70838563D01*
X167522258Y-70804555D01*
X167540275Y-70782362D01*
X167568485Y-70761336D01*
X167601867Y-70749039D01*
X167636702Y-70745432D01*
X167671480Y-70749290D01*
X167699790Y-70756374D01*
X167732445Y-70763726D01*
X167744413Y-70760307D01*
X167754501Y-70745432D01*
X167770401Y-70745432D01*
G37*
G36*
X167996081Y-70515648D02*
G01*
X167996081Y-70837243D01*
X168021363Y-70810550D01*
X168046485Y-70786805D01*
X168074511Y-70765495D01*
X168080540Y-70762016D01*
X168113783Y-70749076D01*
X168143115Y-70745432D01*
X168178036Y-70750647D01*
X168207571Y-70766290D01*
X168231079Y-70793133D01*
X168245899Y-70826437D01*
X168247578Y-70831943D01*
X168253772Y-70868903D01*
X168255923Y-70903101D01*
X168256631Y-70940356D01*
X168256639Y-70945467D01*
X168256639Y-71102759D01*
X168258306Y-71138321D01*
X168263307Y-71160547D01*
X168279549Y-71179012D01*
X168314556Y-71185744D01*
X168321950Y-71185851D01*
X168321950Y-71205000D01*
X168105673Y-71205000D01*
X168105673Y-71185851D01*
X168115760Y-71185851D01*
X168150283Y-71180993D01*
X168158503Y-71176448D01*
X168175429Y-71148408D01*
X168176763Y-71113715D01*
X168176796Y-71102588D01*
X168176796Y-70944612D01*
X168176201Y-70907510D01*
X168173858Y-70872925D01*
X168169274Y-70848698D01*
X168151345Y-70819031D01*
X168145509Y-70814333D01*
X168111849Y-70803057D01*
X168106186Y-70802878D01*
X168071298Y-70809414D01*
X168057117Y-70815530D01*
X168027204Y-70836258D01*
X168000487Y-70861942D01*
X167996081Y-70866650D01*
X167996081Y-71102588D01*
X167997171Y-71137956D01*
X168001039Y-71159692D01*
X168019846Y-71178328D01*
X168053426Y-71185491D01*
X168067205Y-71185851D01*
X168067205Y-71205000D01*
X167848876Y-71205000D01*
X167848876Y-71185851D01*
X167883330Y-71181487D01*
X167895038Y-71176618D01*
X167910425Y-71158325D01*
X167915778Y-71124336D01*
X167916238Y-71103101D01*
X167916238Y-70702348D01*
X167916014Y-70668047D01*
X167914972Y-70632817D01*
X167912648Y-70608998D01*
X167901535Y-70585404D01*
X167881531Y-70579078D01*
X167848876Y-70586772D01*
X167842208Y-70569846D01*
X167973855Y-70515648D01*
X167996081Y-70515648D01*
G37*
G36*
X168573150Y-70747402D02*
G01*
X168609182Y-70754968D01*
X168634654Y-70765607D01*
X168661876Y-70788189D01*
X168676542Y-70813307D01*
X168683345Y-70848196D01*
X168685125Y-70884142D01*
X168685261Y-70899818D01*
X168685261Y-71052494D01*
X168685495Y-71087904D01*
X168686722Y-71122736D01*
X168687655Y-71131482D01*
X168695519Y-71150973D01*
X168708342Y-71155760D01*
X168721849Y-71152512D01*
X168748984Y-71128853D01*
X168760659Y-71117292D01*
X168760659Y-71144305D01*
X168737326Y-71172218D01*
X168711221Y-71195724D01*
X168679432Y-71212514D01*
X168657735Y-71215942D01*
X168624903Y-71204257D01*
X168620293Y-71199528D01*
X168607554Y-71166132D01*
X168605931Y-71143792D01*
X168578657Y-71164570D01*
X168550708Y-71185081D01*
X168521917Y-71203760D01*
X168520788Y-71204316D01*
X168486968Y-71214307D01*
X168465394Y-71215942D01*
X168430956Y-71210693D01*
X168399802Y-71193302D01*
X168390167Y-71184141D01*
X168371017Y-71154974D01*
X168361629Y-71119147D01*
X168360589Y-71100366D01*
X168363730Y-71077114D01*
X168441458Y-71077114D01*
X168447297Y-71111024D01*
X168462145Y-71135415D01*
X168490409Y-71155250D01*
X168509675Y-71158496D01*
X168543212Y-71150454D01*
X168574193Y-71133324D01*
X168602224Y-71112767D01*
X168605931Y-71109769D01*
X168605931Y-70939654D01*
X168572816Y-70953203D01*
X168540469Y-70967135D01*
X168512069Y-70981029D01*
X168482981Y-71000238D01*
X168458747Y-71024532D01*
X168457700Y-71025994D01*
X168443377Y-71058500D01*
X168441458Y-71077114D01*
X168363730Y-71077114D01*
X168365187Y-71066333D01*
X168375122Y-71043604D01*
X168397889Y-71015302D01*
X168426259Y-70992189D01*
X168443510Y-70981029D01*
X168476126Y-70963487D01*
X168508564Y-70948459D01*
X168541290Y-70934614D01*
X168578560Y-70919880D01*
X168605931Y-70909563D01*
X168605931Y-70891953D01*
X168604268Y-70857760D01*
X168596875Y-70822478D01*
X168584902Y-70800484D01*
X168555432Y-70780301D01*
X168524207Y-70775523D01*
X168489713Y-70782886D01*
X168475994Y-70792620D01*
X168458576Y-70822464D01*
X168457700Y-70831943D01*
X168458726Y-70861179D01*
X168449459Y-70894617D01*
X168447442Y-70897083D01*
X168417864Y-70909563D01*
X168388799Y-70896570D01*
X168377559Y-70863621D01*
X168377515Y-70860837D01*
X168384485Y-70826988D01*
X168403290Y-70797796D01*
X168419745Y-70781678D01*
X168449568Y-70762564D01*
X168482090Y-70751414D01*
X168519995Y-70745998D01*
X168538569Y-70745432D01*
X168573150Y-70747402D01*
G37*
G36*
X168766814Y-70756374D02*
G01*
X168951461Y-70756374D01*
X168951461Y-70775523D01*
X168917951Y-70784755D01*
X168910087Y-70805614D01*
X168917300Y-70839384D01*
X168918293Y-70842030D01*
X169012498Y-71097630D01*
X169107215Y-70889560D01*
X169082254Y-70824078D01*
X169063902Y-70793511D01*
X169051821Y-70783729D01*
X169017753Y-70775856D01*
X169012498Y-70775523D01*
X169012498Y-70756374D01*
X169222107Y-70756374D01*
X169222107Y-70775523D01*
X169188148Y-70780725D01*
X169173039Y-70788175D01*
X169163464Y-70812794D01*
X169167226Y-70832798D01*
X169267243Y-71087885D01*
X169360080Y-70842030D01*
X169369056Y-70808691D01*
X169369654Y-70800314D01*
X169360251Y-70783900D01*
X169326861Y-70775676D01*
X169323492Y-70775523D01*
X169323492Y-70756374D01*
X169462491Y-70756374D01*
X169462491Y-70775523D01*
X169430177Y-70789599D01*
X169407674Y-70817966D01*
X169400942Y-70832798D01*
X169253907Y-71215942D01*
X169234075Y-71215942D01*
X169123970Y-70931106D01*
X168995572Y-71215942D01*
X168977791Y-71215942D01*
X168836399Y-70842030D01*
X168821781Y-70810942D01*
X168809043Y-70794330D01*
X168778652Y-70778585D01*
X168766814Y-70775523D01*
X168766814Y-70756374D01*
G37*
G36*
X169715230Y-70747402D02*
G01*
X169751262Y-70754968D01*
X169776734Y-70765607D01*
X169803956Y-70788189D01*
X169818621Y-70813307D01*
X169825425Y-70848196D01*
X169827205Y-70884142D01*
X169827341Y-70899818D01*
X169827341Y-71052494D01*
X169827574Y-71087904D01*
X169828802Y-71122736D01*
X169829734Y-71131482D01*
X169837599Y-71150973D01*
X169850422Y-71155760D01*
X169863928Y-71152512D01*
X169891064Y-71128853D01*
X169902739Y-71117292D01*
X169902739Y-71144305D01*
X169879406Y-71172218D01*
X169853301Y-71195724D01*
X169821511Y-71212514D01*
X169799815Y-71215942D01*
X169766983Y-71204257D01*
X169762372Y-71199528D01*
X169749634Y-71166132D01*
X169748011Y-71143792D01*
X169720737Y-71164570D01*
X169692787Y-71185081D01*
X169663996Y-71203760D01*
X169662868Y-71204316D01*
X169629048Y-71214307D01*
X169607473Y-71215942D01*
X169573036Y-71210693D01*
X169541882Y-71193302D01*
X169532247Y-71184141D01*
X169513096Y-71154974D01*
X169503709Y-71119147D01*
X169502669Y-71100366D01*
X169505810Y-71077114D01*
X169583538Y-71077114D01*
X169589376Y-71111024D01*
X169604225Y-71135415D01*
X169632488Y-71155250D01*
X169651755Y-71158496D01*
X169685291Y-71150454D01*
X169716273Y-71133324D01*
X169744304Y-71112767D01*
X169748011Y-71109769D01*
X169748011Y-70939654D01*
X169714896Y-70953203D01*
X169682549Y-70967135D01*
X169654148Y-70981029D01*
X169625061Y-71000238D01*
X169600827Y-71024532D01*
X169599780Y-71025994D01*
X169585457Y-71058500D01*
X169583538Y-71077114D01*
X169505810Y-71077114D01*
X169507267Y-71066333D01*
X169517201Y-71043604D01*
X169539968Y-71015302D01*
X169568339Y-70992189D01*
X169585589Y-70981029D01*
X169618206Y-70963487D01*
X169650643Y-70948459D01*
X169683369Y-70934614D01*
X169720639Y-70919880D01*
X169748011Y-70909563D01*
X169748011Y-70891953D01*
X169746347Y-70857760D01*
X169738954Y-70822478D01*
X169726981Y-70800484D01*
X169697511Y-70780301D01*
X169666287Y-70775523D01*
X169631793Y-70782886D01*
X169618073Y-70792620D01*
X169600655Y-70822464D01*
X169599780Y-70831943D01*
X169600806Y-70861179D01*
X169591538Y-70894617D01*
X169589521Y-70897083D01*
X169559944Y-70909563D01*
X169530879Y-70896570D01*
X169519639Y-70863621D01*
X169519595Y-70860837D01*
X169526564Y-70826988D01*
X169545370Y-70797796D01*
X169561824Y-70781678D01*
X169591647Y-70762564D01*
X169624169Y-70751414D01*
X169662074Y-70745998D01*
X169680648Y-70745432D01*
X169715230Y-70747402D01*
G37*
G36*
X170054047Y-70834337D02*
G01*
X170078380Y-70804123D01*
X170103423Y-70780160D01*
X170133535Y-70760105D01*
X170169132Y-70747603D01*
X170192020Y-70745432D01*
X170228820Y-70750057D01*
X170262861Y-70763933D01*
X170290804Y-70784033D01*
X170310331Y-70803904D01*
X170332397Y-70835736D01*
X170346533Y-70867990D01*
X170355842Y-70904351D01*
X170359979Y-70938786D01*
X170360767Y-70963419D01*
X170358868Y-70999264D01*
X170351575Y-71039303D01*
X170338812Y-71076096D01*
X170320580Y-71109644D01*
X170296878Y-71139946D01*
X170282976Y-71153879D01*
X170252993Y-71178062D01*
X170221537Y-71196305D01*
X170188609Y-71208608D01*
X170154209Y-71214972D01*
X170133890Y-71215942D01*
X170097563Y-71212861D01*
X170063183Y-71204427D01*
X170055757Y-71201922D01*
X170023247Y-71188217D01*
X169992737Y-71171460D01*
X169974717Y-71159863D01*
X169974717Y-70865624D01*
X170054047Y-70865624D01*
X170054047Y-71131482D01*
X170080506Y-71153815D01*
X170104654Y-71168070D01*
X170137967Y-71178649D01*
X170158339Y-71180380D01*
X170192913Y-71172394D01*
X170223074Y-71150848D01*
X170239891Y-71131995D01*
X170258156Y-71101194D01*
X170269373Y-71067956D01*
X170275868Y-71029205D01*
X170277676Y-70990774D01*
X170275868Y-70955339D01*
X170269373Y-70919470D01*
X170256422Y-70885018D01*
X170239891Y-70859640D01*
X170215274Y-70835477D01*
X170183089Y-70818295D01*
X170154064Y-70813820D01*
X170119037Y-70820043D01*
X170103115Y-70826985D01*
X170074892Y-70846566D01*
X170054047Y-70865624D01*
X169974717Y-70865624D01*
X169974717Y-70701664D01*
X169974433Y-70663837D01*
X169973171Y-70627665D01*
X169971127Y-70608827D01*
X169959842Y-70585233D01*
X169940523Y-70578907D01*
X169906842Y-70586601D01*
X169900174Y-70569675D01*
X170032334Y-70515648D01*
X170054047Y-70515648D01*
X170054047Y-70834337D01*
G37*
G36*
X170553279Y-70515648D02*
G01*
X170553279Y-70954699D01*
X170665436Y-70852801D01*
X170690825Y-70828842D01*
X170706639Y-70811598D01*
X170710572Y-70799972D01*
X170702536Y-70783558D01*
X170676378Y-70775523D01*
X170676378Y-70756374D01*
X170867864Y-70756374D01*
X170867864Y-70775523D01*
X170833731Y-70778701D01*
X170802041Y-70787662D01*
X170771044Y-70805435D01*
X170744766Y-70826814D01*
X170631755Y-70930764D01*
X170744766Y-71075404D01*
X170766361Y-71102588D01*
X170789809Y-71131034D01*
X170808196Y-71151315D01*
X170834776Y-71173675D01*
X170848545Y-71181064D01*
X170883233Y-71185776D01*
X170890432Y-71185851D01*
X170890432Y-71205000D01*
X170676378Y-71205000D01*
X170676378Y-71185851D01*
X170701168Y-71180209D01*
X170707665Y-71165847D01*
X170691939Y-71134472D01*
X170688517Y-71129944D01*
X170553279Y-70955212D01*
X170553279Y-71103101D01*
X170554775Y-71138962D01*
X170559263Y-71160034D01*
X170576360Y-71179525D01*
X170611462Y-71185472D01*
X170624403Y-71185851D01*
X170624403Y-71205000D01*
X170400432Y-71205000D01*
X170400432Y-71185851D01*
X170435922Y-71182645D01*
X170450868Y-71177644D01*
X170466256Y-71161231D01*
X170472868Y-71126205D01*
X170473436Y-71106008D01*
X170473436Y-70702861D01*
X170473223Y-70668132D01*
X170472231Y-70632594D01*
X170470017Y-70608827D01*
X170459075Y-70585062D01*
X170438900Y-70578565D01*
X170408639Y-70586772D01*
X170400432Y-70569846D01*
X170531224Y-70515648D01*
X170553279Y-70515648D01*
G37*
G36*
X171157188Y-70748510D02*
G01*
X171193066Y-70759329D01*
X171224724Y-70777938D01*
X171243485Y-70794672D01*
X171266461Y-70824896D01*
X171280571Y-70856168D01*
X171288740Y-70891585D01*
X171291015Y-70925976D01*
X170986688Y-70925976D01*
X170988209Y-70961415D01*
X170994313Y-70998993D01*
X171005081Y-71032512D01*
X171023097Y-71065851D01*
X171034389Y-71080533D01*
X171059468Y-71105068D01*
X171090211Y-71124290D01*
X171123632Y-71134640D01*
X171147400Y-71136612D01*
X171183089Y-71131997D01*
X171214458Y-71118155D01*
X171222627Y-71112505D01*
X171246882Y-71087246D01*
X171264718Y-71057014D01*
X171276140Y-71029926D01*
X171291015Y-71039672D01*
X171282298Y-71076245D01*
X171267495Y-71110952D01*
X171249228Y-71140236D01*
X171232372Y-71161231D01*
X171206566Y-71185167D01*
X171173882Y-71203920D01*
X171137330Y-71214018D01*
X171110812Y-71215942D01*
X171072569Y-71212052D01*
X171037167Y-71200383D01*
X171004608Y-71180935D01*
X170978450Y-71157537D01*
X170974891Y-71153709D01*
X170952907Y-71124436D01*
X170936323Y-71091073D01*
X170925138Y-71053620D01*
X170919849Y-71018261D01*
X170918471Y-70986500D01*
X170919886Y-70952193D01*
X170925320Y-70914254D01*
X170929639Y-70898621D01*
X170986688Y-70898621D01*
X171190655Y-70898621D01*
X171187247Y-70863544D01*
X171180568Y-70837414D01*
X171160853Y-70807614D01*
X171144665Y-70794159D01*
X171112516Y-70780137D01*
X171094912Y-70778258D01*
X171059369Y-70785246D01*
X171029449Y-70804376D01*
X171023447Y-70810059D01*
X171002204Y-70840016D01*
X170990259Y-70874982D01*
X170986688Y-70898621D01*
X170929639Y-70898621D01*
X170934829Y-70879837D01*
X170951073Y-70844135D01*
X170972864Y-70813228D01*
X170976430Y-70809204D01*
X171003194Y-70784355D01*
X171032773Y-70765610D01*
X171065165Y-70752968D01*
X171100373Y-70746429D01*
X171121755Y-70745432D01*
X171157188Y-70748510D01*
G37*
G36*
X171477030Y-70515648D02*
G01*
X171477030Y-70837243D01*
X171502312Y-70810550D01*
X171527434Y-70786805D01*
X171555460Y-70765495D01*
X171561489Y-70762016D01*
X171594732Y-70749076D01*
X171624064Y-70745432D01*
X171658985Y-70750647D01*
X171688520Y-70766290D01*
X171712028Y-70793133D01*
X171726848Y-70826437D01*
X171728527Y-70831943D01*
X171734721Y-70868903D01*
X171736872Y-70903101D01*
X171737580Y-70940356D01*
X171737588Y-70945467D01*
X171737588Y-71102759D01*
X171739255Y-71138321D01*
X171744256Y-71160547D01*
X171760498Y-71179012D01*
X171795505Y-71185744D01*
X171802899Y-71185851D01*
X171802899Y-71205000D01*
X171586622Y-71205000D01*
X171586622Y-71185851D01*
X171596709Y-71185851D01*
X171631232Y-71180993D01*
X171639452Y-71176448D01*
X171656378Y-71148408D01*
X171657712Y-71113715D01*
X171657745Y-71102588D01*
X171657745Y-70944612D01*
X171657150Y-70907510D01*
X171654807Y-70872925D01*
X171650223Y-70848698D01*
X171632294Y-70819031D01*
X171626458Y-70814333D01*
X171592798Y-70803057D01*
X171587135Y-70802878D01*
X171552247Y-70809414D01*
X171538066Y-70815530D01*
X171508153Y-70836258D01*
X171481436Y-70861942D01*
X171477030Y-70866650D01*
X171477030Y-71102588D01*
X171478120Y-71137956D01*
X171481988Y-71159692D01*
X171500795Y-71178328D01*
X171534375Y-71185491D01*
X171548154Y-71185851D01*
X171548154Y-71205000D01*
X171329825Y-71205000D01*
X171329825Y-71185851D01*
X171364280Y-71181487D01*
X171375987Y-71176618D01*
X171391374Y-71158325D01*
X171396727Y-71124336D01*
X171397187Y-71103101D01*
X171397187Y-70702348D01*
X171396963Y-70668047D01*
X171395921Y-70632817D01*
X171393597Y-70608998D01*
X171382484Y-70585404D01*
X171362480Y-70579078D01*
X171329825Y-70586772D01*
X171323157Y-70569846D01*
X171454804Y-70515648D01*
X171477030Y-70515648D01*
G37*
G36*
X164294239Y-72016833D02*
G01*
X164534794Y-72256704D01*
X164559781Y-72280852D01*
X164586335Y-72304021D01*
X164616522Y-72326340D01*
X164635666Y-72337573D01*
X164669700Y-72351890D01*
X164703733Y-72360112D01*
X164719441Y-72361851D01*
X164719441Y-72381000D01*
X164409131Y-72381000D01*
X164409131Y-72361851D01*
X164443237Y-72356112D01*
X164449309Y-72352448D01*
X164461618Y-72331418D01*
X164457002Y-72310731D01*
X164434530Y-72283953D01*
X164427083Y-72276537D01*
X164201915Y-72053250D01*
X164201915Y-72263885D01*
X164202959Y-72298722D01*
X164208241Y-72329538D01*
X164228415Y-72350225D01*
X164262200Y-72361295D01*
X164272184Y-72361851D01*
X164294239Y-72361851D01*
X164294239Y-72381000D01*
X164016413Y-72381000D01*
X164016413Y-72361851D01*
X164039494Y-72361851D01*
X164074329Y-72355952D01*
X164098136Y-72338257D01*
X164107701Y-72304615D01*
X164109580Y-72267529D01*
X164109591Y-72263885D01*
X164109591Y-71841589D01*
X164108575Y-71806668D01*
X164103436Y-71775424D01*
X164083604Y-71755249D01*
X164050906Y-71744350D01*
X164039494Y-71743623D01*
X164016413Y-71743623D01*
X164016413Y-71724475D01*
X164294239Y-71724475D01*
X164294239Y-71743623D01*
X164272184Y-71743623D01*
X164237756Y-71750406D01*
X164228415Y-71754736D01*
X164207728Y-71777817D01*
X164202602Y-71812224D01*
X164201915Y-71841589D01*
X164201915Y-72041624D01*
X164227593Y-72017714D01*
X164254574Y-71992743D01*
X164267909Y-71980417D01*
X164293684Y-71956596D01*
X164324959Y-71927218D01*
X164352703Y-71900565D01*
X164382417Y-71871081D01*
X164406612Y-71845855D01*
X164431215Y-71817691D01*
X164440418Y-71805344D01*
X164453361Y-71773477D01*
X164453412Y-71771662D01*
X164443325Y-71752172D01*
X164409131Y-71743623D01*
X164394256Y-71743623D01*
X164394256Y-71724475D01*
X164633785Y-71724475D01*
X164633785Y-71743623D01*
X164599695Y-71748186D01*
X164595317Y-71749436D01*
X164563536Y-71763770D01*
X164552916Y-71769953D01*
X164523114Y-71791246D01*
X164495895Y-71814692D01*
X164491367Y-71818850D01*
X164464722Y-71845295D01*
X164436718Y-71873684D01*
X164409418Y-71901497D01*
X164393743Y-71917500D01*
X164294239Y-72016833D01*
G37*
G36*
X164954741Y-71923402D02*
G01*
X164990773Y-71930968D01*
X165016245Y-71941607D01*
X165043467Y-71964189D01*
X165058133Y-71989307D01*
X165064936Y-72024196D01*
X165066716Y-72060142D01*
X165066852Y-72075818D01*
X165066852Y-72228494D01*
X165067086Y-72263904D01*
X165068313Y-72298736D01*
X165069246Y-72307482D01*
X165077110Y-72326973D01*
X165089933Y-72331760D01*
X165103440Y-72328512D01*
X165130575Y-72304853D01*
X165142250Y-72293292D01*
X165142250Y-72320305D01*
X165118917Y-72348218D01*
X165092812Y-72371724D01*
X165061023Y-72388514D01*
X165039326Y-72391942D01*
X165006494Y-72380257D01*
X165001884Y-72375528D01*
X164989145Y-72342132D01*
X164987522Y-72319792D01*
X164960248Y-72340570D01*
X164932299Y-72361081D01*
X164903508Y-72379760D01*
X164902379Y-72380316D01*
X164868559Y-72390307D01*
X164846985Y-72391942D01*
X164812547Y-72386693D01*
X164781393Y-72369302D01*
X164771758Y-72360141D01*
X164752608Y-72330974D01*
X164743220Y-72295147D01*
X164742180Y-72276366D01*
X164745321Y-72253114D01*
X164823049Y-72253114D01*
X164828888Y-72287024D01*
X164843736Y-72311415D01*
X164872000Y-72331250D01*
X164891266Y-72334496D01*
X164924803Y-72326454D01*
X164955784Y-72309324D01*
X164983815Y-72288767D01*
X164987522Y-72285769D01*
X164987522Y-72115654D01*
X164954407Y-72129203D01*
X164922060Y-72143135D01*
X164893660Y-72157029D01*
X164864572Y-72176238D01*
X164840338Y-72200532D01*
X164839291Y-72201994D01*
X164824968Y-72234500D01*
X164823049Y-72253114D01*
X164745321Y-72253114D01*
X164746778Y-72242333D01*
X164756713Y-72219604D01*
X164779480Y-72191302D01*
X164807850Y-72168189D01*
X164825101Y-72157029D01*
X164857718Y-72139487D01*
X164890155Y-72124459D01*
X164922881Y-72110614D01*
X164960151Y-72095880D01*
X164987522Y-72085563D01*
X164987522Y-72067953D01*
X164985859Y-72033760D01*
X164978466Y-71998478D01*
X164966493Y-71976484D01*
X164937023Y-71956301D01*
X164905799Y-71951523D01*
X164871304Y-71958886D01*
X164857585Y-71968620D01*
X164840167Y-71998464D01*
X164839291Y-72007943D01*
X164840317Y-72037179D01*
X164831050Y-72070617D01*
X164829033Y-72073083D01*
X164799455Y-72085563D01*
X164770390Y-72072570D01*
X164759150Y-72039621D01*
X164759106Y-72036837D01*
X164766076Y-72002988D01*
X164784881Y-71973796D01*
X164801336Y-71957678D01*
X164831159Y-71938564D01*
X164863681Y-71927414D01*
X164901586Y-71921998D01*
X164920160Y-71921432D01*
X164954741Y-71923402D01*
G37*
G36*
X165147892Y-71932374D02*
G01*
X165353227Y-71932374D01*
X165353227Y-71951523D01*
X165343140Y-71951523D01*
X165310655Y-71960926D01*
X165299884Y-71984349D01*
X165308010Y-72018734D01*
X165315614Y-72036324D01*
X165422983Y-72258756D01*
X165521461Y-72015124D01*
X165529540Y-71980940D01*
X165529668Y-71976143D01*
X165526249Y-71963149D01*
X165514281Y-71954771D01*
X165485387Y-71951523D01*
X165485387Y-71932374D01*
X165628660Y-71932374D01*
X165628660Y-71951523D01*
X165601304Y-71959217D01*
X165580104Y-71980930D01*
X165566038Y-72012562D01*
X165563862Y-72018030D01*
X165384515Y-72459133D01*
X165368612Y-72492722D01*
X165347928Y-72524238D01*
X165324073Y-72549643D01*
X165316297Y-72556073D01*
X165285210Y-72576076D01*
X165252564Y-72587328D01*
X165235429Y-72588899D01*
X165201173Y-72581303D01*
X165188754Y-72572828D01*
X165170907Y-72542421D01*
X165170460Y-72536069D01*
X165183625Y-72503927D01*
X165215799Y-72491895D01*
X165220041Y-72491788D01*
X165254983Y-72499213D01*
X165263297Y-72502217D01*
X165287233Y-72509569D01*
X165318691Y-72494353D01*
X165339114Y-72466278D01*
X165353227Y-72435539D01*
X165384515Y-72357748D01*
X165226196Y-72024698D01*
X165207871Y-71994364D01*
X165203115Y-71987598D01*
X165183454Y-71965030D01*
X165150896Y-71952257D01*
X165147892Y-71951523D01*
X165147892Y-71932374D01*
G37*
G36*
X165813991Y-71691648D02*
G01*
X165813991Y-72279101D01*
X165815487Y-72313766D01*
X165819975Y-72334325D01*
X165838440Y-72354841D01*
X165873107Y-72361604D01*
X165885115Y-72361851D01*
X165885115Y-72381000D01*
X165669180Y-72381000D01*
X165669180Y-72361851D01*
X165703865Y-72358293D01*
X165710554Y-72355525D01*
X165727822Y-72334838D01*
X165733648Y-72300169D01*
X165734148Y-72279101D01*
X165734148Y-71876809D01*
X165733878Y-71839257D01*
X165732676Y-71803410D01*
X165730729Y-71784827D01*
X165719958Y-71761404D01*
X165700980Y-71755078D01*
X165669180Y-71762772D01*
X165661144Y-71745846D01*
X165792278Y-71691648D01*
X165813991Y-71691648D01*
G37*
G36*
X166151531Y-71923402D02*
G01*
X166187563Y-71930968D01*
X166213035Y-71941607D01*
X166240257Y-71964189D01*
X166254923Y-71989307D01*
X166261726Y-72024196D01*
X166263506Y-72060142D01*
X166263642Y-72075818D01*
X166263642Y-72228494D01*
X166263876Y-72263904D01*
X166265103Y-72298736D01*
X166266036Y-72307482D01*
X166273900Y-72326973D01*
X166286723Y-72331760D01*
X166300230Y-72328512D01*
X166327365Y-72304853D01*
X166339040Y-72293292D01*
X166339040Y-72320305D01*
X166315707Y-72348218D01*
X166289602Y-72371724D01*
X166257813Y-72388514D01*
X166236116Y-72391942D01*
X166203284Y-72380257D01*
X166198674Y-72375528D01*
X166185935Y-72342132D01*
X166184312Y-72319792D01*
X166157038Y-72340570D01*
X166129089Y-72361081D01*
X166100298Y-72379760D01*
X166099169Y-72380316D01*
X166065349Y-72390307D01*
X166043775Y-72391942D01*
X166009337Y-72386693D01*
X165978183Y-72369302D01*
X165968548Y-72360141D01*
X165949398Y-72330974D01*
X165940010Y-72295147D01*
X165938970Y-72276366D01*
X165942111Y-72253114D01*
X166019839Y-72253114D01*
X166025678Y-72287024D01*
X166040526Y-72311415D01*
X166068790Y-72331250D01*
X166088056Y-72334496D01*
X166121593Y-72326454D01*
X166152574Y-72309324D01*
X166180605Y-72288767D01*
X166184312Y-72285769D01*
X166184312Y-72115654D01*
X166151197Y-72129203D01*
X166118850Y-72143135D01*
X166090450Y-72157029D01*
X166061362Y-72176238D01*
X166037128Y-72200532D01*
X166036081Y-72201994D01*
X166021758Y-72234500D01*
X166019839Y-72253114D01*
X165942111Y-72253114D01*
X165943568Y-72242333D01*
X165953503Y-72219604D01*
X165976270Y-72191302D01*
X166004640Y-72168189D01*
X166021891Y-72157029D01*
X166054508Y-72139487D01*
X166086945Y-72124459D01*
X166119671Y-72110614D01*
X166156941Y-72095880D01*
X166184312Y-72085563D01*
X166184312Y-72067953D01*
X166182649Y-72033760D01*
X166175256Y-71998478D01*
X166163283Y-71976484D01*
X166133813Y-71956301D01*
X166102588Y-71951523D01*
X166068094Y-71958886D01*
X166054375Y-71968620D01*
X166036957Y-71998464D01*
X166036081Y-72007943D01*
X166037107Y-72037179D01*
X166027840Y-72070617D01*
X166025823Y-72073083D01*
X165996245Y-72085563D01*
X165967180Y-72072570D01*
X165955940Y-72039621D01*
X165955896Y-72036837D01*
X165962866Y-72002988D01*
X165981671Y-71973796D01*
X165998126Y-71957678D01*
X166027949Y-71938564D01*
X166060471Y-71927414D01*
X166098376Y-71921998D01*
X166116950Y-71921432D01*
X166151531Y-71923402D01*
G37*
G36*
X166986674Y-72381000D02*
G01*
X166734665Y-71828595D01*
X166734665Y-72266279D01*
X166736200Y-72302397D01*
X166743915Y-72335747D01*
X166747658Y-72341505D01*
X166777965Y-72358990D01*
X166803907Y-72361851D01*
X166826988Y-72361851D01*
X166826988Y-72381000D01*
X166600111Y-72381000D01*
X166600111Y-72361851D01*
X166623192Y-72361851D01*
X166658540Y-72355568D01*
X166681835Y-72336718D01*
X166690944Y-72301923D01*
X166692435Y-72266108D01*
X166692435Y-71837999D01*
X166690294Y-71802583D01*
X166682690Y-71775253D01*
X166657899Y-71751830D01*
X166622872Y-71743345D01*
X166600111Y-71742427D01*
X166600111Y-71724475D01*
X166784759Y-71724475D01*
X167021210Y-72238240D01*
X167254071Y-71724475D01*
X167438719Y-71724475D01*
X167438719Y-71743623D01*
X167415980Y-71743623D01*
X167380375Y-71749907D01*
X167356995Y-71768756D01*
X167347886Y-71803417D01*
X167346395Y-71839025D01*
X167346395Y-72266450D01*
X167347971Y-72302491D01*
X167355889Y-72335873D01*
X167359731Y-72341676D01*
X167390038Y-72359014D01*
X167415980Y-72361851D01*
X167438719Y-72361851D01*
X167438719Y-72381000D01*
X167161748Y-72381000D01*
X167161748Y-72361851D01*
X167184829Y-72361851D01*
X167220348Y-72355568D01*
X167243471Y-72336718D01*
X167252581Y-72301990D01*
X167254071Y-72266279D01*
X167254071Y-71828595D01*
X167002575Y-72381000D01*
X166986674Y-72381000D01*
G37*
G36*
X167460774Y-71932374D02*
G01*
X167666109Y-71932374D01*
X167666109Y-71951523D01*
X167656022Y-71951523D01*
X167623538Y-71960926D01*
X167612766Y-71984349D01*
X167620892Y-72018734D01*
X167628496Y-72036324D01*
X167735865Y-72258756D01*
X167834344Y-72015124D01*
X167842422Y-71980940D01*
X167842550Y-71976143D01*
X167839131Y-71963149D01*
X167827163Y-71954771D01*
X167798269Y-71951523D01*
X167798269Y-71932374D01*
X167941542Y-71932374D01*
X167941542Y-71951523D01*
X167914187Y-71959217D01*
X167892986Y-71980930D01*
X167878920Y-72012562D01*
X167876744Y-72018030D01*
X167697397Y-72459133D01*
X167681494Y-72492722D01*
X167660810Y-72524238D01*
X167636955Y-72549643D01*
X167629180Y-72556073D01*
X167598092Y-72576076D01*
X167565446Y-72587328D01*
X167548311Y-72588899D01*
X167514055Y-72581303D01*
X167501636Y-72572828D01*
X167483789Y-72542421D01*
X167483342Y-72536069D01*
X167496507Y-72503927D01*
X167528681Y-72491895D01*
X167532923Y-72491788D01*
X167567865Y-72499213D01*
X167576179Y-72502217D01*
X167600115Y-72509569D01*
X167631573Y-72494353D01*
X167651996Y-72466278D01*
X167666109Y-72435539D01*
X167697397Y-72357748D01*
X167539078Y-72024698D01*
X167520753Y-71994364D01*
X167515997Y-71987598D01*
X167496336Y-71965030D01*
X167463778Y-71952257D01*
X167460774Y-71951523D01*
X167460774Y-71932374D01*
G37*
G36*
X168105673Y-71691648D02*
G01*
X168105673Y-72130699D01*
X168217829Y-72028801D01*
X168243219Y-72004842D01*
X168259033Y-71987598D01*
X168262965Y-71975972D01*
X168254930Y-71959558D01*
X168228771Y-71951523D01*
X168228771Y-71932374D01*
X168420258Y-71932374D01*
X168420258Y-71951523D01*
X168386125Y-71954701D01*
X168354434Y-71963662D01*
X168323437Y-71981435D01*
X168297159Y-72002814D01*
X168184148Y-72106764D01*
X168297159Y-72251404D01*
X168318755Y-72278588D01*
X168342203Y-72307034D01*
X168360589Y-72327315D01*
X168387170Y-72349675D01*
X168400938Y-72357064D01*
X168435626Y-72361776D01*
X168442826Y-72361851D01*
X168442826Y-72381000D01*
X168228771Y-72381000D01*
X168228771Y-72361851D01*
X168253562Y-72356209D01*
X168260059Y-72341847D01*
X168244332Y-72310472D01*
X168240910Y-72305944D01*
X168105673Y-72131212D01*
X168105673Y-72279101D01*
X168107169Y-72314962D01*
X168111657Y-72336034D01*
X168128754Y-72355525D01*
X168163855Y-72361472D01*
X168176796Y-72361851D01*
X168176796Y-72381000D01*
X167952826Y-72381000D01*
X167952826Y-72361851D01*
X167988315Y-72358645D01*
X168003262Y-72353644D01*
X168018649Y-72337231D01*
X168025262Y-72302205D01*
X168025830Y-72282008D01*
X168025830Y-71878861D01*
X168025616Y-71844132D01*
X168024624Y-71808594D01*
X168022411Y-71784827D01*
X168011468Y-71761062D01*
X167991294Y-71754565D01*
X167961032Y-71762772D01*
X167952826Y-71745846D01*
X168083618Y-71691648D01*
X168105673Y-71691648D01*
G37*
G36*
X168616531Y-71691648D02*
G01*
X168616531Y-72279101D01*
X168618027Y-72313766D01*
X168622515Y-72334325D01*
X168640980Y-72354841D01*
X168675647Y-72361604D01*
X168687655Y-72361851D01*
X168687655Y-72381000D01*
X168471720Y-72381000D01*
X168471720Y-72361851D01*
X168506405Y-72358293D01*
X168513094Y-72355525D01*
X168530362Y-72334838D01*
X168536188Y-72300169D01*
X168536688Y-72279101D01*
X168536688Y-71876809D01*
X168536418Y-71839257D01*
X168535216Y-71803410D01*
X168533269Y-71784827D01*
X168522498Y-71761404D01*
X168503520Y-71755078D01*
X168471720Y-71762772D01*
X168463684Y-71745846D01*
X168594818Y-71691648D01*
X168616531Y-71691648D01*
G37*
G36*
X168981766Y-71924510D02*
G01*
X169017644Y-71935329D01*
X169049302Y-71953938D01*
X169068063Y-71970672D01*
X169091039Y-72000896D01*
X169105149Y-72032168D01*
X169113318Y-72067585D01*
X169115593Y-72101976D01*
X168811266Y-72101976D01*
X168812787Y-72137415D01*
X168818891Y-72174993D01*
X168829659Y-72208512D01*
X168847675Y-72241851D01*
X168858967Y-72256533D01*
X168884046Y-72281068D01*
X168914789Y-72300290D01*
X168948210Y-72310640D01*
X168971978Y-72312612D01*
X169007667Y-72307997D01*
X169039036Y-72294155D01*
X169047205Y-72288505D01*
X169071460Y-72263246D01*
X169089295Y-72233014D01*
X169100718Y-72205926D01*
X169115593Y-72215672D01*
X169106876Y-72252245D01*
X169092073Y-72286952D01*
X169073806Y-72316236D01*
X169056950Y-72337231D01*
X169031144Y-72361167D01*
X168998460Y-72379920D01*
X168961907Y-72390018D01*
X168935390Y-72391942D01*
X168897146Y-72388052D01*
X168861745Y-72376383D01*
X168829186Y-72356935D01*
X168803028Y-72333537D01*
X168799469Y-72329709D01*
X168777485Y-72300436D01*
X168760901Y-72267073D01*
X168749716Y-72229620D01*
X168744426Y-72194261D01*
X168743049Y-72162500D01*
X168744464Y-72128193D01*
X168749898Y-72090254D01*
X168754217Y-72074621D01*
X168811266Y-72074621D01*
X169015233Y-72074621D01*
X169011825Y-72039544D01*
X169005146Y-72013414D01*
X168985431Y-71983614D01*
X168969242Y-71970159D01*
X168937094Y-71956137D01*
X168919490Y-71954258D01*
X168883947Y-71961246D01*
X168854027Y-71980376D01*
X168848025Y-71986059D01*
X168826782Y-72016016D01*
X168814837Y-72050982D01*
X168811266Y-72074621D01*
X168754217Y-72074621D01*
X168759407Y-72055837D01*
X168775651Y-72020135D01*
X168797442Y-71989228D01*
X168801008Y-71985204D01*
X168827772Y-71960355D01*
X168857351Y-71941610D01*
X168889743Y-71928968D01*
X168924950Y-71922429D01*
X168946332Y-71921432D01*
X168981766Y-71924510D01*
G37*
G36*
X169292889Y-72010337D02*
G01*
X169317222Y-71980123D01*
X169342264Y-71956160D01*
X169372377Y-71936105D01*
X169407973Y-71923603D01*
X169430861Y-71921432D01*
X169467662Y-71926057D01*
X169501703Y-71939933D01*
X169529646Y-71960033D01*
X169549173Y-71979904D01*
X169571238Y-72011736D01*
X169585374Y-72043990D01*
X169594683Y-72080351D01*
X169598821Y-72114786D01*
X169599609Y-72139419D01*
X169597710Y-72175264D01*
X169590417Y-72215303D01*
X169577654Y-72252096D01*
X169559422Y-72285644D01*
X169535720Y-72315946D01*
X169521817Y-72329879D01*
X169491835Y-72354062D01*
X169460379Y-72372305D01*
X169427451Y-72384608D01*
X169393050Y-72390972D01*
X169372732Y-72391942D01*
X169336405Y-72388861D01*
X169302025Y-72380427D01*
X169294598Y-72377922D01*
X169262088Y-72364217D01*
X169231578Y-72347460D01*
X169213558Y-72335863D01*
X169213558Y-72041624D01*
X169292889Y-72041624D01*
X169292889Y-72307482D01*
X169319348Y-72329815D01*
X169343496Y-72344070D01*
X169376808Y-72354649D01*
X169397180Y-72356380D01*
X169431754Y-72348394D01*
X169461916Y-72326848D01*
X169478733Y-72307995D01*
X169496998Y-72277194D01*
X169508215Y-72243956D01*
X169514709Y-72205205D01*
X169516517Y-72166774D01*
X169514709Y-72131339D01*
X169508215Y-72095470D01*
X169495264Y-72061018D01*
X169478733Y-72035640D01*
X169454116Y-72011477D01*
X169421931Y-71994295D01*
X169392906Y-71989820D01*
X169357879Y-71996043D01*
X169341957Y-72002985D01*
X169313734Y-72022566D01*
X169292889Y-72041624D01*
X169213558Y-72041624D01*
X169213558Y-71877664D01*
X169213274Y-71839837D01*
X169212012Y-71803665D01*
X169209968Y-71784827D01*
X169198684Y-71761233D01*
X169179364Y-71754907D01*
X169145683Y-71762601D01*
X169139016Y-71745675D01*
X169271175Y-71691648D01*
X169292889Y-71691648D01*
X169292889Y-72010337D01*
G37*
G36*
X170047892Y-71932374D02*
G01*
X170047892Y-72202507D01*
X170048116Y-72237470D01*
X170049158Y-72273262D01*
X170051482Y-72297224D01*
X170063108Y-72321331D01*
X170081573Y-72328170D01*
X170115254Y-72319963D01*
X170122093Y-72336889D01*
X169990275Y-72391942D01*
X169968562Y-72391942D01*
X169968562Y-72298592D01*
X169941933Y-72326514D01*
X169915961Y-72351105D01*
X169887896Y-72372659D01*
X169882051Y-72376041D01*
X169849478Y-72388448D01*
X169819134Y-72391942D01*
X169784513Y-72386556D01*
X169754849Y-72370399D01*
X169730647Y-72343903D01*
X169717065Y-72314834D01*
X169709936Y-72279664D01*
X169707135Y-72244455D01*
X169706636Y-72218578D01*
X169706636Y-72019911D01*
X169703404Y-71985787D01*
X169699797Y-71976314D01*
X169679794Y-71957678D01*
X169644293Y-71951583D01*
X169632093Y-71951523D01*
X169632093Y-71932374D01*
X169786308Y-71932374D01*
X169786308Y-72230546D01*
X169788395Y-72265268D01*
X169798329Y-72299853D01*
X169807679Y-72312270D01*
X169838013Y-72329019D01*
X169859483Y-72331760D01*
X169893592Y-72324451D01*
X169906329Y-72318766D01*
X169934966Y-72299661D01*
X169961885Y-72275388D01*
X169968562Y-72268672D01*
X169968562Y-72017004D01*
X169964234Y-71982233D01*
X169954884Y-71965884D01*
X169922098Y-71953366D01*
X169897951Y-71951523D01*
X169897951Y-71932374D01*
X170047892Y-71932374D01*
G37*
G36*
X170436165Y-71921432D02*
G01*
X170436165Y-72074621D01*
X170420265Y-72074621D01*
X170410477Y-72040962D01*
X170396438Y-72007122D01*
X170376948Y-71978591D01*
X170373419Y-71975117D01*
X170343195Y-71956218D01*
X170308750Y-71949019D01*
X170300586Y-71948787D01*
X170266806Y-71954467D01*
X170246217Y-71966739D01*
X170226823Y-71995879D01*
X170225530Y-72006575D01*
X170232803Y-72040317D01*
X170240917Y-72053250D01*
X170267442Y-72076457D01*
X170298778Y-72094093D01*
X170301612Y-72095480D01*
X170371709Y-72130016D01*
X170404886Y-72149113D01*
X170434917Y-72174129D01*
X170455605Y-72202090D01*
X170467808Y-72237652D01*
X170469333Y-72256875D01*
X170464892Y-72292522D01*
X170449747Y-72326449D01*
X170426653Y-72352489D01*
X170423855Y-72354841D01*
X170394453Y-72374406D01*
X170359604Y-72387558D01*
X170325643Y-72391905D01*
X170322128Y-72391942D01*
X170287426Y-72388866D01*
X170251987Y-72380567D01*
X170229804Y-72373306D01*
X170203988Y-72368519D01*
X170186549Y-72381000D01*
X170170819Y-72381000D01*
X170170819Y-72227810D01*
X170186549Y-72227810D01*
X170196080Y-72263353D01*
X170211207Y-72296659D01*
X170233362Y-72325774D01*
X170238011Y-72330221D01*
X170267775Y-72351163D01*
X170300137Y-72362439D01*
X170323154Y-72364586D01*
X170358201Y-72357655D01*
X170377180Y-72344925D01*
X170395725Y-72315658D01*
X170398210Y-72297566D01*
X170390798Y-72263275D01*
X170374787Y-72241317D01*
X170345540Y-72218947D01*
X170313750Y-72200124D01*
X170281779Y-72183358D01*
X170249914Y-72166261D01*
X170218559Y-72146092D01*
X170191874Y-72121869D01*
X170190481Y-72120099D01*
X170174196Y-72088769D01*
X170168789Y-72052798D01*
X170168768Y-72050173D01*
X170173172Y-72014563D01*
X170188022Y-71980555D01*
X170206039Y-71958362D01*
X170234249Y-71937336D01*
X170267631Y-71925039D01*
X170302466Y-71921432D01*
X170337244Y-71925290D01*
X170365554Y-71932374D01*
X170398210Y-71939726D01*
X170410177Y-71936307D01*
X170420265Y-71921432D01*
X170436165Y-71921432D01*
G37*
G36*
X170660307Y-71790127D02*
G01*
X170660307Y-71932374D01*
X170763230Y-71932374D01*
X170763230Y-71965200D01*
X170660307Y-71965200D01*
X170660307Y-72259611D01*
X170663011Y-72294653D01*
X170672616Y-72319108D01*
X170704075Y-72334496D01*
X170734849Y-72324750D01*
X170756879Y-72297893D01*
X170757930Y-72295515D01*
X170776737Y-72295515D01*
X170762095Y-72327836D01*
X170741838Y-72355634D01*
X170729036Y-72367493D01*
X170697792Y-72385829D01*
X170665607Y-72391942D01*
X170631667Y-72384220D01*
X170622351Y-72379290D01*
X170597617Y-72355538D01*
X170591064Y-72343215D01*
X170582907Y-72308612D01*
X170580986Y-72273595D01*
X170580976Y-72270553D01*
X170580976Y-71965200D01*
X170511221Y-71965200D01*
X170511221Y-71949642D01*
X170541358Y-71933365D01*
X170565247Y-71914422D01*
X170589898Y-71889190D01*
X170611920Y-71859976D01*
X170614658Y-71855780D01*
X170630868Y-71823974D01*
X170645432Y-71790127D01*
X170660307Y-71790127D01*
G37*
D11*
X160968595Y-82354821D02*
X160968595Y-83164344D01*
X160968595Y-83164344D02*
X161016214Y-83259582D01*
X161016214Y-83259582D02*
X161063833Y-83307202D01*
X161063833Y-83307202D02*
X161159071Y-83354821D01*
X161159071Y-83354821D02*
X161349547Y-83354821D01*
X161349547Y-83354821D02*
X161444785Y-83307202D01*
X161444785Y-83307202D02*
X161492404Y-83259582D01*
X161492404Y-83259582D02*
X161540023Y-83164344D01*
X161540023Y-83164344D02*
X161540023Y-82354821D01*
X161968595Y-82450059D02*
X162016214Y-82402440D01*
X162016214Y-82402440D02*
X162111452Y-82354821D01*
X162111452Y-82354821D02*
X162349547Y-82354821D01*
X162349547Y-82354821D02*
X162444785Y-82402440D01*
X162444785Y-82402440D02*
X162492404Y-82450059D01*
X162492404Y-82450059D02*
X162540023Y-82545297D01*
X162540023Y-82545297D02*
X162540023Y-82640535D01*
X162540023Y-82640535D02*
X162492404Y-82783392D01*
X162492404Y-82783392D02*
X161920976Y-83354821D01*
X161920976Y-83354821D02*
X162540023Y-83354821D01*
X161730500Y-81354821D02*
X161730500Y-81592916D01*
X161492405Y-81497678D02*
X161730500Y-81592916D01*
X161730500Y-81592916D02*
X161968595Y-81497678D01*
X161587643Y-81783392D02*
X161730500Y-81592916D01*
X161730500Y-81592916D02*
X161873357Y-81783392D01*
X161730500Y-81354821D02*
X161730500Y-81592916D01*
X161492405Y-81497678D02*
X161730500Y-81592916D01*
X161730500Y-81592916D02*
X161968595Y-81497678D01*
X161587643Y-81783392D02*
X161730500Y-81592916D01*
X161730500Y-81592916D02*
X161873357Y-81783392D01*
X142804819Y-81079166D02*
X142328628Y-81412499D01*
X142804819Y-81650594D02*
X141804819Y-81650594D01*
X141804819Y-81650594D02*
X141804819Y-81269642D01*
X141804819Y-81269642D02*
X141852438Y-81174404D01*
X141852438Y-81174404D02*
X141900057Y-81126785D01*
X141900057Y-81126785D02*
X141995295Y-81079166D01*
X141995295Y-81079166D02*
X142138152Y-81079166D01*
X142138152Y-81079166D02*
X142233390Y-81126785D01*
X142233390Y-81126785D02*
X142281009Y-81174404D01*
X142281009Y-81174404D02*
X142328628Y-81269642D01*
X142328628Y-81269642D02*
X142328628Y-81650594D01*
X141804819Y-80745832D02*
X141804819Y-80126785D01*
X141804819Y-80126785D02*
X142185771Y-80460118D01*
X142185771Y-80460118D02*
X142185771Y-80317261D01*
X142185771Y-80317261D02*
X142233390Y-80222023D01*
X142233390Y-80222023D02*
X142281009Y-80174404D01*
X142281009Y-80174404D02*
X142376247Y-80126785D01*
X142376247Y-80126785D02*
X142614342Y-80126785D01*
X142614342Y-80126785D02*
X142709580Y-80174404D01*
X142709580Y-80174404D02*
X142757200Y-80222023D01*
X142757200Y-80222023D02*
X142804819Y-80317261D01*
X142804819Y-80317261D02*
X142804819Y-80602975D01*
X142804819Y-80602975D02*
X142757200Y-80698213D01*
X142757200Y-80698213D02*
X142709580Y-80745832D01*
X157410080Y-88616668D02*
X157457700Y-88664287D01*
X157457700Y-88664287D02*
X157505319Y-88807144D01*
X157505319Y-88807144D02*
X157505319Y-88902382D01*
X157505319Y-88902382D02*
X157457700Y-89045239D01*
X157457700Y-89045239D02*
X157362461Y-89140477D01*
X157362461Y-89140477D02*
X157267223Y-89188096D01*
X157267223Y-89188096D02*
X157076747Y-89235715D01*
X157076747Y-89235715D02*
X156933890Y-89235715D01*
X156933890Y-89235715D02*
X156743414Y-89188096D01*
X156743414Y-89188096D02*
X156648176Y-89140477D01*
X156648176Y-89140477D02*
X156552938Y-89045239D01*
X156552938Y-89045239D02*
X156505319Y-88902382D01*
X156505319Y-88902382D02*
X156505319Y-88807144D01*
X156505319Y-88807144D02*
X156552938Y-88664287D01*
X156552938Y-88664287D02*
X156600557Y-88616668D01*
X156505319Y-87711906D02*
X156505319Y-88188096D01*
X156505319Y-88188096D02*
X156981509Y-88235715D01*
X156981509Y-88235715D02*
X156933890Y-88188096D01*
X156933890Y-88188096D02*
X156886271Y-88092858D01*
X156886271Y-88092858D02*
X156886271Y-87854763D01*
X156886271Y-87854763D02*
X156933890Y-87759525D01*
X156933890Y-87759525D02*
X156981509Y-87711906D01*
X156981509Y-87711906D02*
X157076747Y-87664287D01*
X157076747Y-87664287D02*
X157314842Y-87664287D01*
X157314842Y-87664287D02*
X157410080Y-87711906D01*
X157410080Y-87711906D02*
X157457700Y-87759525D01*
X157457700Y-87759525D02*
X157505319Y-87854763D01*
X157505319Y-87854763D02*
X157505319Y-88092858D01*
X157505319Y-88092858D02*
X157457700Y-88188096D01*
X157457700Y-88188096D02*
X157410080Y-88235715D01*
X131374095Y-86406821D02*
X131945523Y-86406821D01*
X131659809Y-87406821D02*
X131659809Y-86406821D01*
X132278857Y-87406821D02*
X132278857Y-86406821D01*
X132278857Y-86406821D02*
X132659809Y-86406821D01*
X132659809Y-86406821D02*
X132755047Y-86454440D01*
X132755047Y-86454440D02*
X132802666Y-86502059D01*
X132802666Y-86502059D02*
X132850285Y-86597297D01*
X132850285Y-86597297D02*
X132850285Y-86740154D01*
X132850285Y-86740154D02*
X132802666Y-86835392D01*
X132802666Y-86835392D02*
X132755047Y-86883011D01*
X132755047Y-86883011D02*
X132659809Y-86930630D01*
X132659809Y-86930630D02*
X132278857Y-86930630D01*
X133802666Y-87406821D02*
X133231238Y-87406821D01*
X133516952Y-87406821D02*
X133516952Y-86406821D01*
X133516952Y-86406821D02*
X133421714Y-86549678D01*
X133421714Y-86549678D02*
X133326476Y-86644916D01*
X133326476Y-86644916D02*
X133231238Y-86692535D01*
X134738095Y-90454819D02*
X134738095Y-89454819D01*
X134738095Y-89931009D02*
X135309523Y-89931009D01*
X135309523Y-90454819D02*
X135309523Y-89454819D01*
X136214285Y-89788152D02*
X136214285Y-90454819D01*
X135976190Y-89407200D02*
X135738095Y-90121485D01*
X135738095Y-90121485D02*
X136357142Y-90121485D01*
X143976333Y-93204821D02*
X143643000Y-92728630D01*
X143404905Y-93204821D02*
X143404905Y-92204821D01*
X143404905Y-92204821D02*
X143785857Y-92204821D01*
X143785857Y-92204821D02*
X143881095Y-92252440D01*
X143881095Y-92252440D02*
X143928714Y-92300059D01*
X143928714Y-92300059D02*
X143976333Y-92395297D01*
X143976333Y-92395297D02*
X143976333Y-92538154D01*
X143976333Y-92538154D02*
X143928714Y-92633392D01*
X143928714Y-92633392D02*
X143881095Y-92681011D01*
X143881095Y-92681011D02*
X143785857Y-92728630D01*
X143785857Y-92728630D02*
X143404905Y-92728630D01*
X144881095Y-92204821D02*
X144404905Y-92204821D01*
X144404905Y-92204821D02*
X144357286Y-92681011D01*
X144357286Y-92681011D02*
X144404905Y-92633392D01*
X144404905Y-92633392D02*
X144500143Y-92585773D01*
X144500143Y-92585773D02*
X144738238Y-92585773D01*
X144738238Y-92585773D02*
X144833476Y-92633392D01*
X144833476Y-92633392D02*
X144881095Y-92681011D01*
X144881095Y-92681011D02*
X144928714Y-92776249D01*
X144928714Y-92776249D02*
X144928714Y-93014344D01*
X144928714Y-93014344D02*
X144881095Y-93109582D01*
X144881095Y-93109582D02*
X144833476Y-93157202D01*
X144833476Y-93157202D02*
X144738238Y-93204821D01*
X144738238Y-93204821D02*
X144500143Y-93204821D01*
X144500143Y-93204821D02*
X144404905Y-93157202D01*
X144404905Y-93157202D02*
X144357286Y-93109582D01*
X177238095Y-90954819D02*
X177238095Y-89954819D01*
X177238095Y-90431009D02*
X177809523Y-90431009D01*
X177809523Y-90954819D02*
X177809523Y-89954819D01*
X178190476Y-89954819D02*
X178809523Y-89954819D01*
X178809523Y-89954819D02*
X178476190Y-90335771D01*
X178476190Y-90335771D02*
X178619047Y-90335771D01*
X178619047Y-90335771D02*
X178714285Y-90383390D01*
X178714285Y-90383390D02*
X178761904Y-90431009D01*
X178761904Y-90431009D02*
X178809523Y-90526247D01*
X178809523Y-90526247D02*
X178809523Y-90764342D01*
X178809523Y-90764342D02*
X178761904Y-90859580D01*
X178761904Y-90859580D02*
X178714285Y-90907200D01*
X178714285Y-90907200D02*
X178619047Y-90954819D01*
X178619047Y-90954819D02*
X178333333Y-90954819D01*
X178333333Y-90954819D02*
X178238095Y-90907200D01*
X178238095Y-90907200D02*
X178190476Y-90859580D01*
X144804819Y-75166666D02*
X144328628Y-75499999D01*
X144804819Y-75738094D02*
X143804819Y-75738094D01*
X143804819Y-75738094D02*
X143804819Y-75357142D01*
X143804819Y-75357142D02*
X143852438Y-75261904D01*
X143852438Y-75261904D02*
X143900057Y-75214285D01*
X143900057Y-75214285D02*
X143995295Y-75166666D01*
X143995295Y-75166666D02*
X144138152Y-75166666D01*
X144138152Y-75166666D02*
X144233390Y-75214285D01*
X144233390Y-75214285D02*
X144281009Y-75261904D01*
X144281009Y-75261904D02*
X144328628Y-75357142D01*
X144328628Y-75357142D02*
X144328628Y-75738094D01*
X144138152Y-74309523D02*
X144804819Y-74309523D01*
X143757200Y-74547618D02*
X144471485Y-74785713D01*
X144471485Y-74785713D02*
X144471485Y-74166666D01*
X131554797Y-75237967D02*
X131554797Y-74237613D01*
X131554797Y-74237613D02*
X131888248Y-74952152D01*
X131888248Y-74952152D02*
X132221700Y-74237613D01*
X132221700Y-74237613D02*
X132221700Y-75237967D01*
X132698059Y-75237967D02*
X132698059Y-74237613D01*
X133269690Y-75237967D02*
X132840967Y-74666337D01*
X133269690Y-74237613D02*
X132698059Y-74809244D01*
X134222408Y-75237967D02*
X133650777Y-75237967D01*
X133936593Y-75237967D02*
X133936593Y-74237613D01*
X133936593Y-74237613D02*
X133841321Y-74380521D01*
X133841321Y-74380521D02*
X133746049Y-74475793D01*
X133746049Y-74475793D02*
X133650777Y-74523429D01*
X151238095Y-82954819D02*
X151238095Y-83764342D01*
X151238095Y-83764342D02*
X151285714Y-83859580D01*
X151285714Y-83859580D02*
X151333333Y-83907200D01*
X151333333Y-83907200D02*
X151428571Y-83954819D01*
X151428571Y-83954819D02*
X151619047Y-83954819D01*
X151619047Y-83954819D02*
X151714285Y-83907200D01*
X151714285Y-83907200D02*
X151761904Y-83859580D01*
X151761904Y-83859580D02*
X151809523Y-83764342D01*
X151809523Y-83764342D02*
X151809523Y-82954819D01*
X152809523Y-83954819D02*
X152238095Y-83954819D01*
X152523809Y-83954819D02*
X152523809Y-82954819D01*
X152523809Y-82954819D02*
X152428571Y-83097676D01*
X152428571Y-83097676D02*
X152333333Y-83192914D01*
X152333333Y-83192914D02*
X152238095Y-83240533D01*
X150246000Y-77303820D02*
X150246000Y-77541915D01*
X150007905Y-77446677D02*
X150246000Y-77541915D01*
X150246000Y-77541915D02*
X150484095Y-77446677D01*
X150103143Y-77732391D02*
X150246000Y-77541915D01*
X150246000Y-77541915D02*
X150388857Y-77732391D01*
X150246000Y-77303820D02*
X150246000Y-77541915D01*
X150007905Y-77446677D02*
X150246000Y-77541915D01*
X150246000Y-77541915D02*
X150484095Y-77446677D01*
X150103143Y-77732391D02*
X150246000Y-77541915D01*
X150246000Y-77541915D02*
X150388857Y-77732391D01*
X168833333Y-87304819D02*
X168500000Y-86828628D01*
X168261905Y-87304819D02*
X168261905Y-86304819D01*
X168261905Y-86304819D02*
X168642857Y-86304819D01*
X168642857Y-86304819D02*
X168738095Y-86352438D01*
X168738095Y-86352438D02*
X168785714Y-86400057D01*
X168785714Y-86400057D02*
X168833333Y-86495295D01*
X168833333Y-86495295D02*
X168833333Y-86638152D01*
X168833333Y-86638152D02*
X168785714Y-86733390D01*
X168785714Y-86733390D02*
X168738095Y-86781009D01*
X168738095Y-86781009D02*
X168642857Y-86828628D01*
X168642857Y-86828628D02*
X168261905Y-86828628D01*
X169404762Y-86733390D02*
X169309524Y-86685771D01*
X169309524Y-86685771D02*
X169261905Y-86638152D01*
X169261905Y-86638152D02*
X169214286Y-86542914D01*
X169214286Y-86542914D02*
X169214286Y-86495295D01*
X169214286Y-86495295D02*
X169261905Y-86400057D01*
X169261905Y-86400057D02*
X169309524Y-86352438D01*
X169309524Y-86352438D02*
X169404762Y-86304819D01*
X169404762Y-86304819D02*
X169595238Y-86304819D01*
X169595238Y-86304819D02*
X169690476Y-86352438D01*
X169690476Y-86352438D02*
X169738095Y-86400057D01*
X169738095Y-86400057D02*
X169785714Y-86495295D01*
X169785714Y-86495295D02*
X169785714Y-86542914D01*
X169785714Y-86542914D02*
X169738095Y-86638152D01*
X169738095Y-86638152D02*
X169690476Y-86685771D01*
X169690476Y-86685771D02*
X169595238Y-86733390D01*
X169595238Y-86733390D02*
X169404762Y-86733390D01*
X169404762Y-86733390D02*
X169309524Y-86781009D01*
X169309524Y-86781009D02*
X169261905Y-86828628D01*
X169261905Y-86828628D02*
X169214286Y-86923866D01*
X169214286Y-86923866D02*
X169214286Y-87114342D01*
X169214286Y-87114342D02*
X169261905Y-87209580D01*
X169261905Y-87209580D02*
X169309524Y-87257200D01*
X169309524Y-87257200D02*
X169404762Y-87304819D01*
X169404762Y-87304819D02*
X169595238Y-87304819D01*
X169595238Y-87304819D02*
X169690476Y-87257200D01*
X169690476Y-87257200D02*
X169738095Y-87209580D01*
X169738095Y-87209580D02*
X169785714Y-87114342D01*
X169785714Y-87114342D02*
X169785714Y-86923866D01*
X169785714Y-86923866D02*
X169738095Y-86828628D01*
X169738095Y-86828628D02*
X169690476Y-86781009D01*
X169690476Y-86781009D02*
X169595238Y-86733390D01*
X165539580Y-94642857D02*
X165587200Y-94690476D01*
X165587200Y-94690476D02*
X165634819Y-94833333D01*
X165634819Y-94833333D02*
X165634819Y-94928571D01*
X165634819Y-94928571D02*
X165587200Y-95071428D01*
X165587200Y-95071428D02*
X165491961Y-95166666D01*
X165491961Y-95166666D02*
X165396723Y-95214285D01*
X165396723Y-95214285D02*
X165206247Y-95261904D01*
X165206247Y-95261904D02*
X165063390Y-95261904D01*
X165063390Y-95261904D02*
X164872914Y-95214285D01*
X164872914Y-95214285D02*
X164777676Y-95166666D01*
X164777676Y-95166666D02*
X164682438Y-95071428D01*
X164682438Y-95071428D02*
X164634819Y-94928571D01*
X164634819Y-94928571D02*
X164634819Y-94833333D01*
X164634819Y-94833333D02*
X164682438Y-94690476D01*
X164682438Y-94690476D02*
X164730057Y-94642857D01*
X165634819Y-93690476D02*
X165634819Y-94261904D01*
X165634819Y-93976190D02*
X164634819Y-93976190D01*
X164634819Y-93976190D02*
X164777676Y-94071428D01*
X164777676Y-94071428D02*
X164872914Y-94166666D01*
X164872914Y-94166666D02*
X164920533Y-94261904D01*
X164634819Y-93071428D02*
X164634819Y-92976190D01*
X164634819Y-92976190D02*
X164682438Y-92880952D01*
X164682438Y-92880952D02*
X164730057Y-92833333D01*
X164730057Y-92833333D02*
X164825295Y-92785714D01*
X164825295Y-92785714D02*
X165015771Y-92738095D01*
X165015771Y-92738095D02*
X165253866Y-92738095D01*
X165253866Y-92738095D02*
X165444342Y-92785714D01*
X165444342Y-92785714D02*
X165539580Y-92833333D01*
X165539580Y-92833333D02*
X165587200Y-92880952D01*
X165587200Y-92880952D02*
X165634819Y-92976190D01*
X165634819Y-92976190D02*
X165634819Y-93071428D01*
X165634819Y-93071428D02*
X165587200Y-93166666D01*
X165587200Y-93166666D02*
X165539580Y-93214285D01*
X165539580Y-93214285D02*
X165444342Y-93261904D01*
X165444342Y-93261904D02*
X165253866Y-93309523D01*
X165253866Y-93309523D02*
X165015771Y-93309523D01*
X165015771Y-93309523D02*
X164825295Y-93261904D01*
X164825295Y-93261904D02*
X164730057Y-93214285D01*
X164730057Y-93214285D02*
X164682438Y-93166666D01*
X164682438Y-93166666D02*
X164634819Y-93071428D01*
X156783333Y-95939582D02*
X156735714Y-95987202D01*
X156735714Y-95987202D02*
X156592857Y-96034821D01*
X156592857Y-96034821D02*
X156497619Y-96034821D01*
X156497619Y-96034821D02*
X156354762Y-95987202D01*
X156354762Y-95987202D02*
X156259524Y-95891963D01*
X156259524Y-95891963D02*
X156211905Y-95796725D01*
X156211905Y-95796725D02*
X156164286Y-95606249D01*
X156164286Y-95606249D02*
X156164286Y-95463392D01*
X156164286Y-95463392D02*
X156211905Y-95272916D01*
X156211905Y-95272916D02*
X156259524Y-95177678D01*
X156259524Y-95177678D02*
X156354762Y-95082440D01*
X156354762Y-95082440D02*
X156497619Y-95034821D01*
X156497619Y-95034821D02*
X156592857Y-95034821D01*
X156592857Y-95034821D02*
X156735714Y-95082440D01*
X156735714Y-95082440D02*
X156783333Y-95130059D01*
X157259524Y-96034821D02*
X157450000Y-96034821D01*
X157450000Y-96034821D02*
X157545238Y-95987202D01*
X157545238Y-95987202D02*
X157592857Y-95939582D01*
X157592857Y-95939582D02*
X157688095Y-95796725D01*
X157688095Y-95796725D02*
X157735714Y-95606249D01*
X157735714Y-95606249D02*
X157735714Y-95225297D01*
X157735714Y-95225297D02*
X157688095Y-95130059D01*
X157688095Y-95130059D02*
X157640476Y-95082440D01*
X157640476Y-95082440D02*
X157545238Y-95034821D01*
X157545238Y-95034821D02*
X157354762Y-95034821D01*
X157354762Y-95034821D02*
X157259524Y-95082440D01*
X157259524Y-95082440D02*
X157211905Y-95130059D01*
X157211905Y-95130059D02*
X157164286Y-95225297D01*
X157164286Y-95225297D02*
X157164286Y-95463392D01*
X157164286Y-95463392D02*
X157211905Y-95558630D01*
X157211905Y-95558630D02*
X157259524Y-95606249D01*
X157259524Y-95606249D02*
X157354762Y-95653868D01*
X157354762Y-95653868D02*
X157545238Y-95653868D01*
X157545238Y-95653868D02*
X157640476Y-95606249D01*
X157640476Y-95606249D02*
X157688095Y-95558630D01*
X157688095Y-95558630D02*
X157735714Y-95463392D01*
X165045833Y-74804819D02*
X164712500Y-74328628D01*
X164474405Y-74804819D02*
X164474405Y-73804819D01*
X164474405Y-73804819D02*
X164855357Y-73804819D01*
X164855357Y-73804819D02*
X164950595Y-73852438D01*
X164950595Y-73852438D02*
X164998214Y-73900057D01*
X164998214Y-73900057D02*
X165045833Y-73995295D01*
X165045833Y-73995295D02*
X165045833Y-74138152D01*
X165045833Y-74138152D02*
X164998214Y-74233390D01*
X164998214Y-74233390D02*
X164950595Y-74281009D01*
X164950595Y-74281009D02*
X164855357Y-74328628D01*
X164855357Y-74328628D02*
X164474405Y-74328628D01*
X165379167Y-73804819D02*
X166045833Y-73804819D01*
X166045833Y-73804819D02*
X165617262Y-74804819D01*
X138063833Y-90079582D02*
X138016214Y-90127202D01*
X138016214Y-90127202D02*
X137873357Y-90174821D01*
X137873357Y-90174821D02*
X137778119Y-90174821D01*
X137778119Y-90174821D02*
X137635262Y-90127202D01*
X137635262Y-90127202D02*
X137540024Y-90031963D01*
X137540024Y-90031963D02*
X137492405Y-89936725D01*
X137492405Y-89936725D02*
X137444786Y-89746249D01*
X137444786Y-89746249D02*
X137444786Y-89603392D01*
X137444786Y-89603392D02*
X137492405Y-89412916D01*
X137492405Y-89412916D02*
X137540024Y-89317678D01*
X137540024Y-89317678D02*
X137635262Y-89222440D01*
X137635262Y-89222440D02*
X137778119Y-89174821D01*
X137778119Y-89174821D02*
X137873357Y-89174821D01*
X137873357Y-89174821D02*
X138016214Y-89222440D01*
X138016214Y-89222440D02*
X138063833Y-89270059D01*
X138397167Y-89174821D02*
X139016214Y-89174821D01*
X139016214Y-89174821D02*
X138682881Y-89555773D01*
X138682881Y-89555773D02*
X138825738Y-89555773D01*
X138825738Y-89555773D02*
X138920976Y-89603392D01*
X138920976Y-89603392D02*
X138968595Y-89651011D01*
X138968595Y-89651011D02*
X139016214Y-89746249D01*
X139016214Y-89746249D02*
X139016214Y-89984344D01*
X139016214Y-89984344D02*
X138968595Y-90079582D01*
X138968595Y-90079582D02*
X138920976Y-90127202D01*
X138920976Y-90127202D02*
X138825738Y-90174821D01*
X138825738Y-90174821D02*
X138540024Y-90174821D01*
X138540024Y-90174821D02*
X138444786Y-90127202D01*
X138444786Y-90127202D02*
X138397167Y-90079582D01*
X137738095Y-85954819D02*
X138309523Y-85954819D01*
X138023809Y-86954819D02*
X138023809Y-85954819D01*
X138642857Y-86954819D02*
X138642857Y-85954819D01*
X138642857Y-85954819D02*
X139023809Y-85954819D01*
X139023809Y-85954819D02*
X139119047Y-86002438D01*
X139119047Y-86002438D02*
X139166666Y-86050057D01*
X139166666Y-86050057D02*
X139214285Y-86145295D01*
X139214285Y-86145295D02*
X139214285Y-86288152D01*
X139214285Y-86288152D02*
X139166666Y-86383390D01*
X139166666Y-86383390D02*
X139119047Y-86431009D01*
X139119047Y-86431009D02*
X139023809Y-86478628D01*
X139023809Y-86478628D02*
X138642857Y-86478628D01*
X139595238Y-86050057D02*
X139642857Y-86002438D01*
X139642857Y-86002438D02*
X139738095Y-85954819D01*
X139738095Y-85954819D02*
X139976190Y-85954819D01*
X139976190Y-85954819D02*
X140071428Y-86002438D01*
X140071428Y-86002438D02*
X140119047Y-86050057D01*
X140119047Y-86050057D02*
X140166666Y-86145295D01*
X140166666Y-86145295D02*
X140166666Y-86240533D01*
X140166666Y-86240533D02*
X140119047Y-86383390D01*
X140119047Y-86383390D02*
X139547619Y-86954819D01*
X139547619Y-86954819D02*
X140166666Y-86954819D01*
X158383333Y-73679580D02*
X158335714Y-73727200D01*
X158335714Y-73727200D02*
X158192857Y-73774819D01*
X158192857Y-73774819D02*
X158097619Y-73774819D01*
X158097619Y-73774819D02*
X157954762Y-73727200D01*
X157954762Y-73727200D02*
X157859524Y-73631961D01*
X157859524Y-73631961D02*
X157811905Y-73536723D01*
X157811905Y-73536723D02*
X157764286Y-73346247D01*
X157764286Y-73346247D02*
X157764286Y-73203390D01*
X157764286Y-73203390D02*
X157811905Y-73012914D01*
X157811905Y-73012914D02*
X157859524Y-72917676D01*
X157859524Y-72917676D02*
X157954762Y-72822438D01*
X157954762Y-72822438D02*
X158097619Y-72774819D01*
X158097619Y-72774819D02*
X158192857Y-72774819D01*
X158192857Y-72774819D02*
X158335714Y-72822438D01*
X158335714Y-72822438D02*
X158383333Y-72870057D01*
X158716667Y-72774819D02*
X159383333Y-72774819D01*
X159383333Y-72774819D02*
X158954762Y-73774819D01*
X162774080Y-91541665D02*
X162821700Y-91589284D01*
X162821700Y-91589284D02*
X162869319Y-91732141D01*
X162869319Y-91732141D02*
X162869319Y-91827379D01*
X162869319Y-91827379D02*
X162821700Y-91970236D01*
X162821700Y-91970236D02*
X162726461Y-92065474D01*
X162726461Y-92065474D02*
X162631223Y-92113093D01*
X162631223Y-92113093D02*
X162440747Y-92160712D01*
X162440747Y-92160712D02*
X162297890Y-92160712D01*
X162297890Y-92160712D02*
X162107414Y-92113093D01*
X162107414Y-92113093D02*
X162012176Y-92065474D01*
X162012176Y-92065474D02*
X161916938Y-91970236D01*
X161916938Y-91970236D02*
X161869319Y-91827379D01*
X161869319Y-91827379D02*
X161869319Y-91732141D01*
X161869319Y-91732141D02*
X161916938Y-91589284D01*
X161916938Y-91589284D02*
X161964557Y-91541665D01*
X162297890Y-90970236D02*
X162250271Y-91065474D01*
X162250271Y-91065474D02*
X162202652Y-91113093D01*
X162202652Y-91113093D02*
X162107414Y-91160712D01*
X162107414Y-91160712D02*
X162059795Y-91160712D01*
X162059795Y-91160712D02*
X161964557Y-91113093D01*
X161964557Y-91113093D02*
X161916938Y-91065474D01*
X161916938Y-91065474D02*
X161869319Y-90970236D01*
X161869319Y-90970236D02*
X161869319Y-90779760D01*
X161869319Y-90779760D02*
X161916938Y-90684522D01*
X161916938Y-90684522D02*
X161964557Y-90636903D01*
X161964557Y-90636903D02*
X162059795Y-90589284D01*
X162059795Y-90589284D02*
X162107414Y-90589284D01*
X162107414Y-90589284D02*
X162202652Y-90636903D01*
X162202652Y-90636903D02*
X162250271Y-90684522D01*
X162250271Y-90684522D02*
X162297890Y-90779760D01*
X162297890Y-90779760D02*
X162297890Y-90970236D01*
X162297890Y-90970236D02*
X162345509Y-91065474D01*
X162345509Y-91065474D02*
X162393128Y-91113093D01*
X162393128Y-91113093D02*
X162488366Y-91160712D01*
X162488366Y-91160712D02*
X162678842Y-91160712D01*
X162678842Y-91160712D02*
X162774080Y-91113093D01*
X162774080Y-91113093D02*
X162821700Y-91065474D01*
X162821700Y-91065474D02*
X162869319Y-90970236D01*
X162869319Y-90970236D02*
X162869319Y-90779760D01*
X162869319Y-90779760D02*
X162821700Y-90684522D01*
X162821700Y-90684522D02*
X162774080Y-90636903D01*
X162774080Y-90636903D02*
X162678842Y-90589284D01*
X162678842Y-90589284D02*
X162488366Y-90589284D01*
X162488366Y-90589284D02*
X162393128Y-90636903D01*
X162393128Y-90636903D02*
X162345509Y-90684522D01*
X162345509Y-90684522D02*
X162297890Y-90779760D01*
X146035319Y-87754166D02*
X145559128Y-88087499D01*
X146035319Y-88325594D02*
X145035319Y-88325594D01*
X145035319Y-88325594D02*
X145035319Y-87944642D01*
X145035319Y-87944642D02*
X145082938Y-87849404D01*
X145082938Y-87849404D02*
X145130557Y-87801785D01*
X145130557Y-87801785D02*
X145225795Y-87754166D01*
X145225795Y-87754166D02*
X145368652Y-87754166D01*
X145368652Y-87754166D02*
X145463890Y-87801785D01*
X145463890Y-87801785D02*
X145511509Y-87849404D01*
X145511509Y-87849404D02*
X145559128Y-87944642D01*
X145559128Y-87944642D02*
X145559128Y-88325594D01*
X145035319Y-86897023D02*
X145035319Y-87087499D01*
X145035319Y-87087499D02*
X145082938Y-87182737D01*
X145082938Y-87182737D02*
X145130557Y-87230356D01*
X145130557Y-87230356D02*
X145273414Y-87325594D01*
X145273414Y-87325594D02*
X145463890Y-87373213D01*
X145463890Y-87373213D02*
X145844842Y-87373213D01*
X145844842Y-87373213D02*
X145940080Y-87325594D01*
X145940080Y-87325594D02*
X145987700Y-87277975D01*
X145987700Y-87277975D02*
X146035319Y-87182737D01*
X146035319Y-87182737D02*
X146035319Y-86992261D01*
X146035319Y-86992261D02*
X145987700Y-86897023D01*
X145987700Y-86897023D02*
X145940080Y-86849404D01*
X145940080Y-86849404D02*
X145844842Y-86801785D01*
X145844842Y-86801785D02*
X145606747Y-86801785D01*
X145606747Y-86801785D02*
X145511509Y-86849404D01*
X145511509Y-86849404D02*
X145463890Y-86897023D01*
X145463890Y-86897023D02*
X145416271Y-86992261D01*
X145416271Y-86992261D02*
X145416271Y-87182737D01*
X145416271Y-87182737D02*
X145463890Y-87277975D01*
X145463890Y-87277975D02*
X145511509Y-87325594D01*
X145511509Y-87325594D02*
X145606747Y-87373213D01*
X140833333Y-68804819D02*
X140500000Y-68328628D01*
X140261905Y-68804819D02*
X140261905Y-67804819D01*
X140261905Y-67804819D02*
X140642857Y-67804819D01*
X140642857Y-67804819D02*
X140738095Y-67852438D01*
X140738095Y-67852438D02*
X140785714Y-67900057D01*
X140785714Y-67900057D02*
X140833333Y-67995295D01*
X140833333Y-67995295D02*
X140833333Y-68138152D01*
X140833333Y-68138152D02*
X140785714Y-68233390D01*
X140785714Y-68233390D02*
X140738095Y-68281009D01*
X140738095Y-68281009D02*
X140642857Y-68328628D01*
X140642857Y-68328628D02*
X140261905Y-68328628D01*
X141785714Y-68804819D02*
X141214286Y-68804819D01*
X141500000Y-68804819D02*
X141500000Y-67804819D01*
X141500000Y-67804819D02*
X141404762Y-67947676D01*
X141404762Y-67947676D02*
X141309524Y-68042914D01*
X141309524Y-68042914D02*
X141214286Y-68090533D01*
X153383333Y-88179580D02*
X153335714Y-88227200D01*
X153335714Y-88227200D02*
X153192857Y-88274819D01*
X153192857Y-88274819D02*
X153097619Y-88274819D01*
X153097619Y-88274819D02*
X152954762Y-88227200D01*
X152954762Y-88227200D02*
X152859524Y-88131961D01*
X152859524Y-88131961D02*
X152811905Y-88036723D01*
X152811905Y-88036723D02*
X152764286Y-87846247D01*
X152764286Y-87846247D02*
X152764286Y-87703390D01*
X152764286Y-87703390D02*
X152811905Y-87512914D01*
X152811905Y-87512914D02*
X152859524Y-87417676D01*
X152859524Y-87417676D02*
X152954762Y-87322438D01*
X152954762Y-87322438D02*
X153097619Y-87274819D01*
X153097619Y-87274819D02*
X153192857Y-87274819D01*
X153192857Y-87274819D02*
X153335714Y-87322438D01*
X153335714Y-87322438D02*
X153383333Y-87370057D01*
X154240476Y-87274819D02*
X154050000Y-87274819D01*
X154050000Y-87274819D02*
X153954762Y-87322438D01*
X153954762Y-87322438D02*
X153907143Y-87370057D01*
X153907143Y-87370057D02*
X153811905Y-87512914D01*
X153811905Y-87512914D02*
X153764286Y-87703390D01*
X153764286Y-87703390D02*
X153764286Y-88084342D01*
X153764286Y-88084342D02*
X153811905Y-88179580D01*
X153811905Y-88179580D02*
X153859524Y-88227200D01*
X153859524Y-88227200D02*
X153954762Y-88274819D01*
X153954762Y-88274819D02*
X154145238Y-88274819D01*
X154145238Y-88274819D02*
X154240476Y-88227200D01*
X154240476Y-88227200D02*
X154288095Y-88179580D01*
X154288095Y-88179580D02*
X154335714Y-88084342D01*
X154335714Y-88084342D02*
X154335714Y-87846247D01*
X154335714Y-87846247D02*
X154288095Y-87751009D01*
X154288095Y-87751009D02*
X154240476Y-87703390D01*
X154240476Y-87703390D02*
X154145238Y-87655771D01*
X154145238Y-87655771D02*
X153954762Y-87655771D01*
X153954762Y-87655771D02*
X153859524Y-87703390D01*
X153859524Y-87703390D02*
X153811905Y-87751009D01*
X153811905Y-87751009D02*
X153764286Y-87846247D01*
X170311819Y-86858333D02*
X171026104Y-86858333D01*
X171026104Y-86858333D02*
X171168961Y-86905952D01*
X171168961Y-86905952D02*
X171264200Y-87001190D01*
X171264200Y-87001190D02*
X171311819Y-87144047D01*
X171311819Y-87144047D02*
X171311819Y-87239285D01*
X170407057Y-86429761D02*
X170359438Y-86382142D01*
X170359438Y-86382142D02*
X170311819Y-86286904D01*
X170311819Y-86286904D02*
X170311819Y-86048809D01*
X170311819Y-86048809D02*
X170359438Y-85953571D01*
X170359438Y-85953571D02*
X170407057Y-85905952D01*
X170407057Y-85905952D02*
X170502295Y-85858333D01*
X170502295Y-85858333D02*
X170597533Y-85858333D01*
X170597533Y-85858333D02*
X170740390Y-85905952D01*
X170740390Y-85905952D02*
X171311819Y-86477380D01*
X171311819Y-86477380D02*
X171311819Y-85858333D01*
X146804819Y-70166666D02*
X146328628Y-70499999D01*
X146804819Y-70738094D02*
X145804819Y-70738094D01*
X145804819Y-70738094D02*
X145804819Y-70357142D01*
X145804819Y-70357142D02*
X145852438Y-70261904D01*
X145852438Y-70261904D02*
X145900057Y-70214285D01*
X145900057Y-70214285D02*
X145995295Y-70166666D01*
X145995295Y-70166666D02*
X146138152Y-70166666D01*
X146138152Y-70166666D02*
X146233390Y-70214285D01*
X146233390Y-70214285D02*
X146281009Y-70261904D01*
X146281009Y-70261904D02*
X146328628Y-70357142D01*
X146328628Y-70357142D02*
X146328628Y-70738094D01*
X145900057Y-69785713D02*
X145852438Y-69738094D01*
X145852438Y-69738094D02*
X145804819Y-69642856D01*
X145804819Y-69642856D02*
X145804819Y-69404761D01*
X145804819Y-69404761D02*
X145852438Y-69309523D01*
X145852438Y-69309523D02*
X145900057Y-69261904D01*
X145900057Y-69261904D02*
X145995295Y-69214285D01*
X145995295Y-69214285D02*
X146090533Y-69214285D01*
X146090533Y-69214285D02*
X146233390Y-69261904D01*
X146233390Y-69261904D02*
X146804819Y-69833332D01*
X146804819Y-69833332D02*
X146804819Y-69214285D01*
X157587642Y-68579582D02*
X157540023Y-68627202D01*
X157540023Y-68627202D02*
X157397166Y-68674821D01*
X157397166Y-68674821D02*
X157301928Y-68674821D01*
X157301928Y-68674821D02*
X157159071Y-68627202D01*
X157159071Y-68627202D02*
X157063833Y-68531963D01*
X157063833Y-68531963D02*
X157016214Y-68436725D01*
X157016214Y-68436725D02*
X156968595Y-68246249D01*
X156968595Y-68246249D02*
X156968595Y-68103392D01*
X156968595Y-68103392D02*
X157016214Y-67912916D01*
X157016214Y-67912916D02*
X157063833Y-67817678D01*
X157063833Y-67817678D02*
X157159071Y-67722440D01*
X157159071Y-67722440D02*
X157301928Y-67674821D01*
X157301928Y-67674821D02*
X157397166Y-67674821D01*
X157397166Y-67674821D02*
X157540023Y-67722440D01*
X157540023Y-67722440D02*
X157587642Y-67770059D01*
X158540023Y-68674821D02*
X157968595Y-68674821D01*
X158254309Y-68674821D02*
X158254309Y-67674821D01*
X158254309Y-67674821D02*
X158159071Y-67817678D01*
X158159071Y-67817678D02*
X158063833Y-67912916D01*
X158063833Y-67912916D02*
X157968595Y-67960535D01*
X159492404Y-68674821D02*
X158920976Y-68674821D01*
X159206690Y-68674821D02*
X159206690Y-67674821D01*
X159206690Y-67674821D02*
X159111452Y-67817678D01*
X159111452Y-67817678D02*
X159016214Y-67912916D01*
X159016214Y-67912916D02*
X158920976Y-67960535D01*
X170238095Y-67954819D02*
X170238095Y-66954819D01*
X170238095Y-67431009D02*
X170809523Y-67431009D01*
X170809523Y-67954819D02*
X170809523Y-66954819D01*
X171238095Y-67050057D02*
X171285714Y-67002438D01*
X171285714Y-67002438D02*
X171380952Y-66954819D01*
X171380952Y-66954819D02*
X171619047Y-66954819D01*
X171619047Y-66954819D02*
X171714285Y-67002438D01*
X171714285Y-67002438D02*
X171761904Y-67050057D01*
X171761904Y-67050057D02*
X171809523Y-67145295D01*
X171809523Y-67145295D02*
X171809523Y-67240533D01*
X171809523Y-67240533D02*
X171761904Y-67383390D01*
X171761904Y-67383390D02*
X171190476Y-67954819D01*
X171190476Y-67954819D02*
X171809523Y-67954819D01*
X167804819Y-94166666D02*
X167328628Y-94499999D01*
X167804819Y-94738094D02*
X166804819Y-94738094D01*
X166804819Y-94738094D02*
X166804819Y-94357142D01*
X166804819Y-94357142D02*
X166852438Y-94261904D01*
X166852438Y-94261904D02*
X166900057Y-94214285D01*
X166900057Y-94214285D02*
X166995295Y-94166666D01*
X166995295Y-94166666D02*
X167138152Y-94166666D01*
X167138152Y-94166666D02*
X167233390Y-94214285D01*
X167233390Y-94214285D02*
X167281009Y-94261904D01*
X167281009Y-94261904D02*
X167328628Y-94357142D01*
X167328628Y-94357142D02*
X167328628Y-94738094D01*
X167804819Y-93690475D02*
X167804819Y-93499999D01*
X167804819Y-93499999D02*
X167757200Y-93404761D01*
X167757200Y-93404761D02*
X167709580Y-93357142D01*
X167709580Y-93357142D02*
X167566723Y-93261904D01*
X167566723Y-93261904D02*
X167376247Y-93214285D01*
X167376247Y-93214285D02*
X166995295Y-93214285D01*
X166995295Y-93214285D02*
X166900057Y-93261904D01*
X166900057Y-93261904D02*
X166852438Y-93309523D01*
X166852438Y-93309523D02*
X166804819Y-93404761D01*
X166804819Y-93404761D02*
X166804819Y-93595237D01*
X166804819Y-93595237D02*
X166852438Y-93690475D01*
X166852438Y-93690475D02*
X166900057Y-93738094D01*
X166900057Y-93738094D02*
X166995295Y-93785713D01*
X166995295Y-93785713D02*
X167233390Y-93785713D01*
X167233390Y-93785713D02*
X167328628Y-93738094D01*
X167328628Y-93738094D02*
X167376247Y-93690475D01*
X167376247Y-93690475D02*
X167423866Y-93595237D01*
X167423866Y-93595237D02*
X167423866Y-93404761D01*
X167423866Y-93404761D02*
X167376247Y-93309523D01*
X167376247Y-93309523D02*
X167328628Y-93261904D01*
X167328628Y-93261904D02*
X167233390Y-93214285D01*
X150283333Y-76539580D02*
X150235714Y-76587200D01*
X150235714Y-76587200D02*
X150092857Y-76634819D01*
X150092857Y-76634819D02*
X149997619Y-76634819D01*
X149997619Y-76634819D02*
X149854762Y-76587200D01*
X149854762Y-76587200D02*
X149759524Y-76491961D01*
X149759524Y-76491961D02*
X149711905Y-76396723D01*
X149711905Y-76396723D02*
X149664286Y-76206247D01*
X149664286Y-76206247D02*
X149664286Y-76063390D01*
X149664286Y-76063390D02*
X149711905Y-75872914D01*
X149711905Y-75872914D02*
X149759524Y-75777676D01*
X149759524Y-75777676D02*
X149854762Y-75682438D01*
X149854762Y-75682438D02*
X149997619Y-75634819D01*
X149997619Y-75634819D02*
X150092857Y-75634819D01*
X150092857Y-75634819D02*
X150235714Y-75682438D01*
X150235714Y-75682438D02*
X150283333Y-75730057D01*
X150664286Y-75730057D02*
X150711905Y-75682438D01*
X150711905Y-75682438D02*
X150807143Y-75634819D01*
X150807143Y-75634819D02*
X151045238Y-75634819D01*
X151045238Y-75634819D02*
X151140476Y-75682438D01*
X151140476Y-75682438D02*
X151188095Y-75730057D01*
X151188095Y-75730057D02*
X151235714Y-75825295D01*
X151235714Y-75825295D02*
X151235714Y-75920533D01*
X151235714Y-75920533D02*
X151188095Y-76063390D01*
X151188095Y-76063390D02*
X150616667Y-76634819D01*
X150616667Y-76634819D02*
X151235714Y-76634819D01*
X151238095Y-67406821D02*
X151809523Y-67406821D01*
X151523809Y-68406821D02*
X151523809Y-67406821D01*
X152142857Y-68406821D02*
X152142857Y-67406821D01*
X152142857Y-67406821D02*
X152523809Y-67406821D01*
X152523809Y-67406821D02*
X152619047Y-67454440D01*
X152619047Y-67454440D02*
X152666666Y-67502059D01*
X152666666Y-67502059D02*
X152714285Y-67597297D01*
X152714285Y-67597297D02*
X152714285Y-67740154D01*
X152714285Y-67740154D02*
X152666666Y-67835392D01*
X152666666Y-67835392D02*
X152619047Y-67883011D01*
X152619047Y-67883011D02*
X152523809Y-67930630D01*
X152523809Y-67930630D02*
X152142857Y-67930630D01*
X153047619Y-67406821D02*
X153666666Y-67406821D01*
X153666666Y-67406821D02*
X153333333Y-67787773D01*
X153333333Y-67787773D02*
X153476190Y-67787773D01*
X153476190Y-67787773D02*
X153571428Y-67835392D01*
X153571428Y-67835392D02*
X153619047Y-67883011D01*
X153619047Y-67883011D02*
X153666666Y-67978249D01*
X153666666Y-67978249D02*
X153666666Y-68216344D01*
X153666666Y-68216344D02*
X153619047Y-68311582D01*
X153619047Y-68311582D02*
X153571428Y-68359202D01*
X153571428Y-68359202D02*
X153476190Y-68406821D01*
X153476190Y-68406821D02*
X153190476Y-68406821D01*
X153190476Y-68406821D02*
X153095238Y-68359202D01*
X153095238Y-68359202D02*
X153047619Y-68311582D01*
X140833333Y-75539580D02*
X140785714Y-75587200D01*
X140785714Y-75587200D02*
X140642857Y-75634819D01*
X140642857Y-75634819D02*
X140547619Y-75634819D01*
X140547619Y-75634819D02*
X140404762Y-75587200D01*
X140404762Y-75587200D02*
X140309524Y-75491961D01*
X140309524Y-75491961D02*
X140261905Y-75396723D01*
X140261905Y-75396723D02*
X140214286Y-75206247D01*
X140214286Y-75206247D02*
X140214286Y-75063390D01*
X140214286Y-75063390D02*
X140261905Y-74872914D01*
X140261905Y-74872914D02*
X140309524Y-74777676D01*
X140309524Y-74777676D02*
X140404762Y-74682438D01*
X140404762Y-74682438D02*
X140547619Y-74634819D01*
X140547619Y-74634819D02*
X140642857Y-74634819D01*
X140642857Y-74634819D02*
X140785714Y-74682438D01*
X140785714Y-74682438D02*
X140833333Y-74730057D01*
X141785714Y-75634819D02*
X141214286Y-75634819D01*
X141500000Y-75634819D02*
X141500000Y-74634819D01*
X141500000Y-74634819D02*
X141404762Y-74777676D01*
X141404762Y-74777676D02*
X141309524Y-74872914D01*
X141309524Y-74872914D02*
X141214286Y-74920533D01*
X150783333Y-95939582D02*
X150735714Y-95987202D01*
X150735714Y-95987202D02*
X150592857Y-96034821D01*
X150592857Y-96034821D02*
X150497619Y-96034821D01*
X150497619Y-96034821D02*
X150354762Y-95987202D01*
X150354762Y-95987202D02*
X150259524Y-95891963D01*
X150259524Y-95891963D02*
X150211905Y-95796725D01*
X150211905Y-95796725D02*
X150164286Y-95606249D01*
X150164286Y-95606249D02*
X150164286Y-95463392D01*
X150164286Y-95463392D02*
X150211905Y-95272916D01*
X150211905Y-95272916D02*
X150259524Y-95177678D01*
X150259524Y-95177678D02*
X150354762Y-95082440D01*
X150354762Y-95082440D02*
X150497619Y-95034821D01*
X150497619Y-95034821D02*
X150592857Y-95034821D01*
X150592857Y-95034821D02*
X150735714Y-95082440D01*
X150735714Y-95082440D02*
X150783333Y-95130059D01*
X151640476Y-95368154D02*
X151640476Y-96034821D01*
X151402381Y-94987202D02*
X151164286Y-95701487D01*
X151164286Y-95701487D02*
X151783333Y-95701487D01*
D12*
X159683823Y-84579702D02*
X163777177Y-84579702D01*
X163777177Y-79220302D02*
X159683823Y-79220302D01*
D13*
G36*
X165896100Y-83715503D02*
G01*
X165642100Y-83715503D01*
X165642100Y-83334503D01*
X165896100Y-83334503D01*
X165896100Y-83715503D01*
G37*
D14*
X143265000Y-81139564D02*
X143265000Y-80685436D01*
X144735000Y-81139564D02*
X144735000Y-80685436D01*
X157995500Y-88711254D02*
X157995500Y-88188750D01*
X159465500Y-88711254D02*
X159465500Y-88188750D01*
X133336000Y-88400002D02*
G75*
G02*
X131936000Y-88400002I-700000J0D01*
G01*
X131936000Y-88400002D02*
G75*
G02*
X133336000Y-88400002I700000J0D01*
G01*
X143915936Y-93665002D02*
X144370064Y-93665002D01*
X143915936Y-95135002D02*
X144370064Y-95135002D01*
X145265000Y-75227064D02*
X145265000Y-74772936D01*
X146735000Y-75227064D02*
X146735000Y-74772936D01*
D15*
X138350000Y-80500000D02*
G75*
G02*
X128650000Y-80500000I-4850000J0D01*
G01*
X128650000Y-80500000D02*
G75*
G02*
X138350000Y-80500000I4850000J0D01*
G01*
D16*
X139043000Y-82241000D02*
G75*
G02*
X138843000Y-82241000I-100000J0D01*
G01*
X138843000Y-82241000D02*
G75*
G02*
X139043000Y-82241000I100000J0D01*
G01*
D12*
X150861950Y-82101001D02*
X152868550Y-82101001D01*
X152868550Y-78799001D02*
X150861950Y-78799001D01*
X152868550Y-80813262D02*
X152868550Y-80086740D01*
D14*
X168772936Y-87765000D02*
X169227064Y-87765000D01*
X168772936Y-89235000D02*
X169227064Y-89235000D01*
X162765000Y-93738748D02*
X162765000Y-94261252D01*
X164235000Y-93738748D02*
X164235000Y-94261252D01*
X157211252Y-93165002D02*
X156688748Y-93165002D01*
X157211252Y-94635002D02*
X156688748Y-94635002D01*
X164185436Y-75265000D02*
X164639564Y-75265000D01*
X164185436Y-76735000D02*
X164639564Y-76735000D01*
X137969248Y-90665002D02*
X138491752Y-90665002D01*
X137969248Y-92135002D02*
X138491752Y-92135002D01*
X139700000Y-84500000D02*
G75*
G02*
X138300000Y-84500000I-700000J0D01*
G01*
X138300000Y-84500000D02*
G75*
G02*
X139700000Y-84500000I700000J0D01*
G01*
X158288748Y-74265000D02*
X158811252Y-74265000D01*
X158288748Y-75735000D02*
X158811252Y-75735000D01*
X163265000Y-88761252D02*
X163265000Y-88238748D01*
X164735000Y-88761252D02*
X164735000Y-88238748D01*
X146495500Y-87814564D02*
X146495500Y-87360436D01*
X147965500Y-87814564D02*
X147965500Y-87360436D01*
X140772936Y-69265000D02*
X141227064Y-69265000D01*
X140772936Y-70735000D02*
X141227064Y-70735000D01*
X153288748Y-88765000D02*
X153811252Y-88765000D01*
X153288748Y-90235000D02*
X153811252Y-90235000D01*
D15*
X170805000Y-85035000D02*
X171305000Y-85335000D01*
X170805000Y-85635000D02*
X170805000Y-85035000D01*
X171305000Y-85335000D02*
X170805000Y-85635000D01*
X172800000Y-74550000D02*
X174100000Y-74550000D01*
X172800000Y-77030000D02*
X172800000Y-74550000D01*
X172800000Y-88450000D02*
X172800000Y-85970000D01*
X174100000Y-88450000D02*
X172800000Y-88450000D01*
X178000000Y-74550000D02*
X177750000Y-74550000D01*
X178000000Y-88450000D02*
X177750000Y-88450000D01*
X178000000Y-88450000D02*
X178000000Y-74550000D01*
D14*
X147265000Y-70227064D02*
X147265000Y-69772936D01*
X148735000Y-70227064D02*
X148735000Y-69772936D01*
X157969248Y-69165002D02*
X158491752Y-69165002D01*
X157969248Y-70635002D02*
X158491752Y-70635002D01*
X168265000Y-94227064D02*
X168265000Y-93772936D01*
X169735000Y-94227064D02*
X169735000Y-93772936D01*
X150711252Y-73765000D02*
X150188748Y-73765000D01*
X150711252Y-75235000D02*
X150188748Y-75235000D01*
X153200000Y-69400002D02*
G75*
G02*
X151800000Y-69400002I-700000J0D01*
G01*
X151800000Y-69400002D02*
G75*
G02*
X153200000Y-69400002I700000J0D01*
G01*
X141261252Y-72765000D02*
X140738748Y-72765000D01*
X141261252Y-74235000D02*
X140738748Y-74235000D01*
X151211252Y-93165002D02*
X150688748Y-93165002D01*
X151211252Y-94635002D02*
X150688748Y-94635002D01*
%LPC*%
D17*
X173876200Y-78226200D02*
X172123800Y-78226200D01*
X172123800Y-77273800D01*
X173876200Y-77273800D01*
X173876200Y-78226200D01*
G36*
X173876200Y-78226200D02*
G01*
X172123800Y-78226200D01*
X172123800Y-77273800D01*
X173876200Y-77273800D01*
X173876200Y-78226200D01*
G37*
X173876200Y-79476200D02*
X172123800Y-79476200D01*
X172123800Y-78523800D01*
X173876200Y-78523800D01*
X173876200Y-79476200D01*
G36*
X173876200Y-79476200D02*
G01*
X172123800Y-79476200D01*
X172123800Y-78523800D01*
X173876200Y-78523800D01*
X173876200Y-79476200D01*
G37*
X173876200Y-80726200D02*
X172123800Y-80726200D01*
X172123800Y-79773800D01*
X173876200Y-79773800D01*
X173876200Y-80726200D01*
G36*
X173876200Y-80726200D02*
G01*
X172123800Y-80726200D01*
X172123800Y-79773800D01*
X173876200Y-79773800D01*
X173876200Y-80726200D01*
G37*
X173876200Y-81976200D02*
X172123800Y-81976200D01*
X172123800Y-81023800D01*
X173876200Y-81023800D01*
X173876200Y-81976200D01*
G36*
X173876200Y-81976200D02*
G01*
X172123800Y-81976200D01*
X172123800Y-81023800D01*
X173876200Y-81023800D01*
X173876200Y-81976200D01*
G37*
X173876200Y-83226200D02*
X172123800Y-83226200D01*
X172123800Y-82273800D01*
X173876200Y-82273800D01*
X173876200Y-83226200D01*
G36*
X173876200Y-83226200D02*
G01*
X172123800Y-83226200D01*
X172123800Y-82273800D01*
X173876200Y-82273800D01*
X173876200Y-83226200D01*
G37*
X173876200Y-84476200D02*
X172123800Y-84476200D01*
X172123800Y-83523800D01*
X173876200Y-83523800D01*
X173876200Y-84476200D01*
G36*
X173876200Y-84476200D02*
G01*
X172123800Y-84476200D01*
X172123800Y-83523800D01*
X173876200Y-83523800D01*
X173876200Y-84476200D01*
G37*
X173876200Y-85726200D02*
X172123800Y-85726200D01*
X172123800Y-84773800D01*
X173876200Y-84773800D01*
X173876200Y-85726200D01*
G36*
X173876200Y-85726200D02*
G01*
X172123800Y-85726200D01*
X172123800Y-84773800D01*
X173876200Y-84773800D01*
X173876200Y-85726200D01*
G37*
X177476200Y-76326200D02*
X174323800Y-76326200D01*
X174323800Y-74073800D01*
X177476200Y-74073800D01*
X177476200Y-76326200D01*
G36*
X177476200Y-76326200D02*
G01*
X174323800Y-76326200D01*
X174323800Y-74073800D01*
X177476200Y-74073800D01*
X177476200Y-76326200D01*
G37*
X177476200Y-88926200D02*
X174323800Y-88926200D01*
X174323800Y-86673800D01*
X177476200Y-86673800D01*
X177476200Y-88926200D01*
G36*
X177476200Y-88926200D02*
G01*
X174323800Y-88926200D01*
X174323800Y-86673800D01*
X177476200Y-86673800D01*
X177476200Y-88926200D01*
G37*
D18*
X158777750Y-79625003D03*
X158777750Y-80275001D03*
X158777750Y-80925003D03*
X158777750Y-81575001D03*
X158777750Y-82225000D03*
X158777750Y-82875001D03*
X158777750Y-83525000D03*
X158777750Y-84175001D03*
X164683250Y-84175001D03*
X164683250Y-83525003D03*
X164683250Y-82875001D03*
X164683250Y-82225003D03*
X164683250Y-81575004D03*
X164683250Y-80925003D03*
X164683250Y-80275004D03*
X164683250Y-79625003D03*
D19*
X144000000Y-81825000D03*
X144000000Y-80000000D03*
D20*
X158730500Y-89400002D03*
X158730500Y-87500002D03*
D21*
X132636000Y-88400002D03*
D22*
X132000000Y-93500000D03*
X132000000Y-93500000D03*
D23*
X143230500Y-94400002D03*
X145055500Y-94400002D03*
D22*
X175500000Y-93500000D03*
D19*
X146000000Y-75912500D03*
X146000000Y-74087500D03*
D24*
X135500000Y-81770000D03*
D25*
X135500000Y-79230000D03*
D26*
X150500000Y-79500000D03*
X150500000Y-80450001D03*
X150500000Y-81400002D03*
X153230500Y-81400002D03*
X153230500Y-79500000D03*
D23*
X168087500Y-88500000D03*
X169912500Y-88500000D03*
D27*
X163500000Y-93050000D03*
X163500000Y-94950000D03*
D28*
X157900000Y-93900002D03*
X156000000Y-93900002D03*
D23*
X163500000Y-76000000D03*
X165325000Y-76000000D03*
D29*
X137280500Y-91400002D03*
X139180500Y-91400002D03*
D21*
X139000000Y-84500000D03*
D29*
X157600000Y-75000000D03*
X159500000Y-75000000D03*
D20*
X164000000Y-89450000D03*
X164000000Y-87550000D03*
D19*
X147230500Y-88500000D03*
X147230500Y-86675000D03*
D23*
X140087500Y-70000000D03*
X141912500Y-70000000D03*
D29*
X152600000Y-89500000D03*
X154500000Y-89500000D03*
D22*
X132000000Y-69500000D03*
D19*
X148000000Y-70912500D03*
X148000000Y-69087500D03*
D29*
X157280500Y-69900002D03*
X159180500Y-69900002D03*
D22*
X175500000Y-93500000D03*
X175500000Y-69500000D03*
X132000000Y-69500000D03*
D19*
X169000000Y-94912500D03*
X169000000Y-93087500D03*
D28*
X151400000Y-74500000D03*
X149500000Y-74500000D03*
D21*
X152500000Y-69400002D03*
D28*
X141950000Y-73500000D03*
X140050000Y-73500000D03*
X151900000Y-93900002D03*
X150000000Y-93900002D03*
%LPD*%
M02*
