G04 #@! TF.GenerationSoftware,KiCad,Pcbnew,8.0.6*
G04 #@! TF.CreationDate,2025-01-26T18:36:01-05:00*
G04 #@! TF.ProjectId,Mic_Board_Omni_NEW,4d69635f-426f-4617-9264-5f4f6d6e695f,rev?*
G04 #@! TF.SameCoordinates,Original*
G04 #@! TF.FileFunction,Copper,L1,Top*
G04 #@! TF.FilePolarity,Positive*
%FSLAX46Y46*%
G04 Gerber Fmt 4.6, Leading zero omitted, Abs format (unit mm)*
G04 Created by KiCad (PCBNEW 8.0.6) date 2025-01-26 18:36:01*
%MOMM*%
%LPD*%
G01*
G04 APERTURE LIST*
G04 Aperture macros list*
%AMRoundRect*
0 Rectangle with rounded corners*
0 $1 Rounding radius*
0 $2 $3 $4 $5 $6 $7 $8 $9 X,Y pos of 4 corners*
0 Add a 4 corners polygon primitive as box body*
4,1,4,$2,$3,$4,$5,$6,$7,$8,$9,$2,$3,0*
0 Add four circle primitives for the rounded corners*
1,1,$1+$1,$2,$3*
1,1,$1+$1,$4,$5*
1,1,$1+$1,$6,$7*
1,1,$1+$1,$8,$9*
0 Add four rect primitives between the rounded corners*
20,1,$1+$1,$2,$3,$4,$5,0*
20,1,$1+$1,$4,$5,$6,$7,0*
20,1,$1+$1,$6,$7,$8,$9,0*
20,1,$1+$1,$8,$9,$2,$3,0*%
G04 Aperture macros list end*
G04 #@! TA.AperFunction,SMDPad,CuDef*
%ADD10R,1.409700X0.279400*%
G04 #@! TD*
G04 #@! TA.AperFunction,SMDPad,CuDef*
%ADD11RoundRect,0.250000X0.450000X-0.262500X0.450000X0.262500X-0.450000X0.262500X-0.450000X-0.262500X0*%
G04 #@! TD*
G04 #@! TA.AperFunction,SMDPad,CuDef*
%ADD12RoundRect,0.250000X0.475000X-0.250000X0.475000X0.250000X-0.475000X0.250000X-0.475000X-0.250000X0*%
G04 #@! TD*
G04 #@! TA.AperFunction,SMDPad,CuDef*
%ADD13C,1.000000*%
G04 #@! TD*
G04 #@! TA.AperFunction,ComponentPad*
%ADD14C,5.600000*%
G04 #@! TD*
G04 #@! TA.AperFunction,SMDPad,CuDef*
%ADD15RoundRect,0.250000X-0.262500X-0.450000X0.262500X-0.450000X0.262500X0.450000X-0.262500X0.450000X0*%
G04 #@! TD*
G04 #@! TA.AperFunction,ComponentPad*
%ADD16R,1.378000X1.378000*%
G04 #@! TD*
G04 #@! TA.AperFunction,ComponentPad*
%ADD17C,1.378000*%
G04 #@! TD*
G04 #@! TA.AperFunction,SMDPad,CuDef*
%ADD18R,0.977900X0.508000*%
G04 #@! TD*
G04 #@! TA.AperFunction,SMDPad,CuDef*
%ADD19RoundRect,0.250000X-0.475000X0.250000X-0.475000X-0.250000X0.475000X-0.250000X0.475000X0.250000X0*%
G04 #@! TD*
G04 #@! TA.AperFunction,SMDPad,CuDef*
%ADD20RoundRect,0.250000X0.250000X0.475000X-0.250000X0.475000X-0.250000X-0.475000X0.250000X-0.475000X0*%
G04 #@! TD*
G04 #@! TA.AperFunction,SMDPad,CuDef*
%ADD21RoundRect,0.250000X-0.250000X-0.475000X0.250000X-0.475000X0.250000X0.475000X-0.250000X0.475000X0*%
G04 #@! TD*
G04 #@! TA.AperFunction,SMDPad,CuDef*
%ADD22R,1.600000X0.800000*%
G04 #@! TD*
G04 #@! TA.AperFunction,SMDPad,CuDef*
%ADD23R,3.000000X2.100000*%
G04 #@! TD*
G04 #@! TA.AperFunction,ViaPad*
%ADD24C,0.600000*%
G04 #@! TD*
G04 #@! TA.AperFunction,Conductor*
%ADD25C,0.200000*%
G04 #@! TD*
G04 APERTURE END LIST*
D10*
X158777750Y-79625003D03*
X158777750Y-80275001D03*
X158777750Y-80925003D03*
X158777750Y-81575001D03*
X158777750Y-82225000D03*
X158777750Y-82875001D03*
X158777750Y-83525000D03*
X158777750Y-84175001D03*
X164683250Y-84175001D03*
X164683250Y-83525003D03*
X164683250Y-82875001D03*
X164683250Y-82225003D03*
X164683250Y-81575004D03*
X164683250Y-80925003D03*
X164683250Y-80275004D03*
X164683250Y-79625003D03*
D11*
X144000000Y-81825000D03*
X144000000Y-80000000D03*
D12*
X158730500Y-89400002D03*
X158730500Y-87500002D03*
D13*
X132636000Y-88400002D03*
D14*
X132000000Y-93500000D03*
X132000000Y-93500000D03*
D15*
X143230500Y-94400002D03*
X145055500Y-94400002D03*
D14*
X175500000Y-93500000D03*
D11*
X146000000Y-75912500D03*
X146000000Y-74087500D03*
D16*
X135500000Y-81770000D03*
D17*
X135500000Y-79230000D03*
D18*
X150500000Y-79500000D03*
X150500000Y-80450001D03*
X150500000Y-81400002D03*
X153230500Y-81400002D03*
X153230500Y-79500000D03*
D15*
X168087500Y-88500000D03*
X169912500Y-88500000D03*
D19*
X163500000Y-93050000D03*
X163500000Y-94950000D03*
D20*
X157900000Y-93900002D03*
X156000000Y-93900002D03*
D15*
X163500000Y-76000000D03*
X165325000Y-76000000D03*
D21*
X137280500Y-91400002D03*
X139180500Y-91400002D03*
D13*
X139000000Y-84500000D03*
D21*
X157600000Y-75000000D03*
X159500000Y-75000000D03*
D12*
X164000000Y-89450000D03*
X164000000Y-87550000D03*
D11*
X147230500Y-88500000D03*
X147230500Y-86675000D03*
D15*
X140087500Y-70000000D03*
X141912500Y-70000000D03*
D21*
X152600000Y-89500000D03*
X154500000Y-89500000D03*
D22*
X173000000Y-85250000D03*
X173000000Y-84000000D03*
X173000000Y-82750000D03*
X173000000Y-81500000D03*
X173000000Y-80250000D03*
X173000000Y-79000000D03*
X173000000Y-77750000D03*
D23*
X175900000Y-87800000D03*
X175900000Y-75200000D03*
D14*
X132000000Y-69500000D03*
D11*
X148000000Y-70912500D03*
X148000000Y-69087500D03*
D21*
X157280500Y-69900002D03*
X159180500Y-69900002D03*
D14*
X175500000Y-93500000D03*
X175500000Y-69500000D03*
X132000000Y-69500000D03*
D11*
X169000000Y-94912500D03*
X169000000Y-93087500D03*
D20*
X151400000Y-74500000D03*
X149500000Y-74500000D03*
D13*
X152500000Y-69400002D03*
D20*
X141950000Y-73500000D03*
X140050000Y-73500000D03*
X151900000Y-93900002D03*
X150000000Y-93900002D03*
D24*
X142900000Y-73500000D03*
X144500000Y-73500000D03*
X149500000Y-80500000D03*
X145500000Y-80000000D03*
X171500000Y-73500000D03*
X161500000Y-94500000D03*
X140000000Y-79500000D03*
X157000000Y-82000000D03*
X157600000Y-89000000D03*
X160000000Y-89500000D03*
X143000000Y-79500000D03*
X133000000Y-73500000D03*
X159000000Y-94000000D03*
X163500000Y-73500000D03*
X139000000Y-73500000D03*
X158500000Y-92000000D03*
X151500000Y-80500000D03*
X162500000Y-89500000D03*
X156000000Y-89000000D03*
X156000000Y-92000000D03*
X145400000Y-81400000D03*
X148000000Y-81400000D03*
X145055500Y-96400000D03*
X139180500Y-96400000D03*
X152500000Y-76000000D03*
X146600000Y-79600000D03*
X150500000Y-76000000D03*
X156000000Y-76000000D03*
X151000000Y-88800000D03*
X150000000Y-84900000D03*
X148300000Y-88800000D03*
X146600000Y-83000000D03*
X149200000Y-79500000D03*
X147200000Y-85600000D03*
X153230500Y-85430500D03*
X143300000Y-86900000D03*
X146099998Y-86900002D03*
X174500000Y-86000000D03*
X170000000Y-90000000D03*
X155100000Y-87400000D03*
X170000000Y-87000000D03*
X155500000Y-79500000D03*
X165000000Y-87500000D03*
X153000000Y-78000000D03*
X157000000Y-83000000D03*
X162500000Y-87500000D03*
X154000000Y-79500000D03*
X155100000Y-83500000D03*
X153000000Y-88000000D03*
X144500000Y-78100000D03*
X157600000Y-87500000D03*
X160000000Y-87500000D03*
X159500000Y-78500000D03*
X156200000Y-78500000D03*
X161500000Y-86000000D03*
X158800000Y-86000000D03*
X153400000Y-67000000D03*
X158777750Y-77122250D03*
X153400000Y-77122250D03*
X157000000Y-67000000D03*
X171699262Y-83500735D03*
X166500000Y-86000000D03*
X166000000Y-84000000D03*
X171100000Y-82900735D03*
X166000000Y-82175004D03*
X170500000Y-82000000D03*
X166000000Y-80225003D03*
X171500000Y-80000000D03*
X151200000Y-67000000D03*
X137500000Y-67000000D03*
D25*
X144500000Y-73500000D02*
X147087500Y-70912500D01*
X140087500Y-71637500D02*
X141950000Y-73500000D01*
X144500000Y-74412500D02*
X146000000Y-75912500D01*
X144500000Y-73500000D02*
X144500000Y-74412500D01*
X147087500Y-70912500D02*
X148000000Y-70912500D01*
X140087500Y-70000000D02*
X140087500Y-71637500D01*
X141950000Y-73500000D02*
X142900000Y-73500000D01*
X171000000Y-77000000D02*
X171000000Y-74000000D01*
X158500000Y-92000000D02*
X159000000Y-92500000D01*
X169000000Y-94912500D02*
X163537500Y-94912500D01*
X143500000Y-80000000D02*
X143000000Y-79500000D01*
X163500000Y-71500000D02*
X161900002Y-69900002D01*
X140050000Y-73500000D02*
X139000000Y-73500000D01*
X158730500Y-89400002D02*
X159900002Y-89400002D01*
X159000000Y-91500000D02*
X159000000Y-89669502D01*
X150500000Y-80450001D02*
X151450001Y-80450001D01*
X140050000Y-73500000D02*
X140050000Y-79450000D01*
X172500000Y-91412500D02*
X172500000Y-88550002D01*
X132636000Y-88400002D02*
X132636000Y-84634000D01*
X156000000Y-89000000D02*
X156000000Y-83000000D01*
X149500000Y-80500000D02*
X150450001Y-80500000D01*
X136400002Y-88400002D02*
X137280500Y-89280500D01*
X159000000Y-89669502D02*
X158730500Y-89400002D01*
X140050000Y-79450000D02*
X140000000Y-79500000D01*
X171500000Y-73500000D02*
X172000000Y-73500000D01*
X163500000Y-73500000D02*
X163500000Y-71500000D01*
X158730500Y-89400002D02*
X158000002Y-89400002D01*
X139000000Y-79500000D02*
X137000000Y-81500000D01*
X144000000Y-80000000D02*
X145500000Y-80000000D01*
X173000000Y-77750000D02*
X171750000Y-77750000D01*
X156000000Y-92000000D02*
X156000000Y-93900002D01*
X173275001Y-87775001D02*
X175636000Y-87775001D01*
X137000000Y-81500000D02*
X135770000Y-81500000D01*
X144000000Y-80000000D02*
X143500000Y-80000000D01*
X176000000Y-94000000D02*
X175087500Y-94000000D01*
X171000000Y-74000000D02*
X171500000Y-73500000D01*
X137280500Y-89280500D02*
X137280500Y-91400002D01*
X151450001Y-80450001D02*
X151500000Y-80500000D01*
X133000000Y-70500000D02*
X133000000Y-73500000D01*
X131500000Y-94000000D02*
X131500000Y-92000000D01*
X163950000Y-89500000D02*
X164000000Y-89450000D01*
X132000000Y-69500000D02*
X133000000Y-70500000D01*
X163537500Y-94912500D02*
X163500000Y-94950000D01*
X175636000Y-69514000D02*
X176100000Y-69050000D01*
X132636000Y-90864000D02*
X132636000Y-88400002D01*
X175636000Y-69864000D02*
X176500000Y-69000000D01*
X162500000Y-89500000D02*
X163950000Y-89500000D01*
X175087500Y-94000000D02*
X172500000Y-91412500D01*
X157424999Y-81575001D02*
X158777750Y-81575001D01*
X175900000Y-74600000D02*
X176100000Y-74400000D01*
X169000000Y-94912500D02*
X172500000Y-91412500D01*
X155000000Y-91500000D02*
X155500000Y-91500000D01*
X176100000Y-74400000D02*
X176100000Y-69050000D01*
X175636000Y-87775001D02*
X175636000Y-75175001D01*
X132636000Y-84634000D02*
X135500000Y-81770000D01*
X158500000Y-92000000D02*
X159000000Y-91500000D01*
X156000000Y-83000000D02*
X157000000Y-82000000D01*
X135770000Y-81500000D02*
X135500000Y-81770000D01*
X159000000Y-92500000D02*
X159000000Y-94000000D01*
X159900002Y-89400002D02*
X160000000Y-89500000D01*
X161950000Y-94950000D02*
X163500000Y-94950000D01*
X173700000Y-75200000D02*
X175900000Y-75200000D01*
X132636000Y-88400002D02*
X136400002Y-88400002D01*
X155000000Y-91500000D02*
X154500000Y-91000000D01*
X131500000Y-92000000D02*
X132636000Y-90864000D01*
X161900002Y-69900002D02*
X159180500Y-69900002D01*
X175900000Y-75200000D02*
X175900000Y-74600000D01*
X154500000Y-91000000D02*
X154500000Y-89500000D01*
X155500000Y-91500000D02*
X156000000Y-92000000D01*
X150450001Y-80500000D02*
X150500000Y-80450001D01*
X161500000Y-94500000D02*
X161950000Y-94950000D01*
X172500000Y-88550002D02*
X173275001Y-87775001D01*
X140000000Y-79500000D02*
X139000000Y-79500000D01*
X172000000Y-73500000D02*
X173700000Y-75200000D01*
X158000002Y-89400002D02*
X157600000Y-89000000D01*
X171750000Y-77750000D02*
X171000000Y-77000000D01*
X157000000Y-82000000D02*
X157424999Y-81575001D01*
X163500000Y-76000000D02*
X163500000Y-73500000D01*
X149087500Y-74087500D02*
X149500000Y-74500000D01*
X149500000Y-74500000D02*
X149000062Y-74999938D01*
X148600000Y-80600000D02*
X149400002Y-81400002D01*
X144975000Y-81825000D02*
X144000000Y-81825000D01*
X148000002Y-81400002D02*
X150500000Y-81400002D01*
X146000000Y-74087500D02*
X149087500Y-74087500D01*
X139000000Y-84500000D02*
X143500000Y-84500000D01*
X149500000Y-74500000D02*
X148600000Y-75400000D01*
X148600000Y-75400000D02*
X148600000Y-80600000D01*
X145400000Y-81400000D02*
X144975000Y-81825000D01*
X149400002Y-81400002D02*
X150500000Y-81400002D01*
X144000000Y-84000000D02*
X144000000Y-81825000D01*
X143500000Y-84500000D02*
X144000000Y-84000000D01*
X148000000Y-81400000D02*
X148000002Y-81400002D01*
X139180500Y-96400000D02*
X139180500Y-91400002D01*
X145055500Y-96400000D02*
X145055500Y-94400002D01*
X156000000Y-76000000D02*
X156600000Y-76000000D01*
X149500000Y-79500000D02*
X149200000Y-79500000D01*
X148300000Y-88800000D02*
X148225002Y-88725002D01*
X156600000Y-76000000D02*
X157600000Y-75000000D01*
X150500000Y-79500000D02*
X149200000Y-79500000D01*
X149400002Y-94500000D02*
X150000000Y-93900002D01*
X148000000Y-94500000D02*
X149400002Y-94500000D01*
X148225002Y-88725002D02*
X147230500Y-88725002D01*
X152500000Y-69400002D02*
X152500000Y-76000000D01*
X147230500Y-93730500D02*
X148000000Y-94500000D01*
X147230500Y-88725002D02*
X147230500Y-93730500D01*
X150000000Y-87800000D02*
X151000000Y-88800000D01*
X150500000Y-79500000D02*
X150500000Y-76000000D01*
X146600000Y-83000000D02*
X146600000Y-79600000D01*
X150000000Y-84900000D02*
X150000000Y-87800000D01*
X147230500Y-86900002D02*
X148500002Y-86900002D01*
X143200000Y-94369502D02*
X143230500Y-94400002D01*
X150000000Y-92000002D02*
X151900000Y-93900002D01*
X153230500Y-85430500D02*
X153230500Y-81400002D01*
X146099998Y-86900002D02*
X147230500Y-86900002D01*
X143200000Y-87000000D02*
X143200000Y-94369502D01*
X143300000Y-86900000D02*
X143200000Y-87000000D01*
X147200000Y-85600000D02*
X147230500Y-85630500D01*
X148500002Y-86900002D02*
X150000000Y-88400000D01*
X147230500Y-85630500D02*
X147230500Y-86900002D01*
X150000000Y-88400000D02*
X150000000Y-92000002D01*
X170000000Y-88587500D02*
X169912500Y-88500000D01*
X155500000Y-79500000D02*
X155500000Y-83100000D01*
X169912500Y-88500000D02*
X169912500Y-87087500D01*
X157600002Y-87500002D02*
X157600000Y-87500000D01*
X163950000Y-87500000D02*
X164000000Y-87550000D01*
X155500000Y-83100000D02*
X155100000Y-83500000D01*
X155100000Y-86500000D02*
X155100000Y-87400000D01*
X174500000Y-80100000D02*
X173400000Y-79000000D01*
X164950000Y-87550000D02*
X165000000Y-87500000D01*
X160000000Y-87500000D02*
X158730502Y-87500000D01*
X153230500Y-79500000D02*
X153230500Y-78230500D01*
X158777750Y-82225000D02*
X158777750Y-82875001D01*
X153000000Y-89100000D02*
X152600000Y-89500000D01*
X162500000Y-87500000D02*
X163950000Y-87500000D01*
X158730500Y-87500002D02*
X157600002Y-87500002D01*
X172736000Y-78975001D02*
X172336000Y-78975001D01*
X164000000Y-87550000D02*
X164950000Y-87550000D01*
X158777750Y-82225000D02*
X157775000Y-82225000D01*
X143500000Y-77100000D02*
X144500000Y-78100000D01*
X170000000Y-90000000D02*
X170000000Y-88587500D01*
X157775000Y-82225000D02*
X157000000Y-83000000D01*
X153230500Y-79500000D02*
X154000000Y-79500000D01*
X155100000Y-83500000D02*
X155100000Y-86500000D01*
X153230500Y-78230500D02*
X153000000Y-78000000D01*
X142500000Y-70000000D02*
X143500000Y-71000000D01*
X169912500Y-87087500D02*
X170000000Y-87000000D01*
X174500000Y-86000000D02*
X174500000Y-80100000D01*
X173400000Y-79000000D02*
X173000000Y-79000000D01*
X143500000Y-71000000D02*
X143500000Y-77100000D01*
X158730502Y-87500000D02*
X158730500Y-87500002D01*
X155000000Y-87500000D02*
X155100000Y-87400000D01*
X153000000Y-88000000D02*
X153000000Y-89100000D01*
X141912500Y-70000000D02*
X142500000Y-70000000D01*
X156200000Y-78500000D02*
X156200000Y-79600000D01*
X156200000Y-79600000D02*
X156875001Y-80275001D01*
X158777750Y-80275001D02*
X158777750Y-80925003D01*
X156875001Y-80275001D02*
X158777750Y-80275001D01*
X159500000Y-75000000D02*
X159500000Y-78500000D01*
X157000000Y-93000000D02*
X157000000Y-84508201D01*
X157000000Y-84508201D02*
X157983201Y-83525000D01*
X157900000Y-93900002D02*
X157900000Y-93900000D01*
X157983201Y-83525000D02*
X158777750Y-83525000D01*
X157900000Y-93900000D02*
X157000000Y-93000000D01*
X161500000Y-86000000D02*
X161500000Y-91050000D01*
X158800000Y-86000000D02*
X158777750Y-85977750D01*
X161500000Y-91050000D02*
X163500000Y-93050000D01*
X158777750Y-85977750D02*
X158777750Y-84175001D01*
X157280500Y-67280500D02*
X157280500Y-69900002D01*
X158777750Y-77122250D02*
X158777750Y-79625003D01*
X157000000Y-67000000D02*
X157280500Y-67280500D01*
X153400000Y-77122250D02*
X153400000Y-67000000D01*
X165325000Y-76000000D02*
X166000000Y-76000000D01*
X166000000Y-76000000D02*
X167230500Y-77230500D01*
X166374997Y-79625003D02*
X164683250Y-79625003D01*
X167230500Y-78769500D02*
X166374997Y-79625003D01*
X167230500Y-77230500D02*
X167230500Y-78769500D01*
X166500000Y-83000000D02*
X167100000Y-83600000D01*
X166400000Y-83100000D02*
X166500000Y-83000000D01*
X167100000Y-83600000D02*
X167100000Y-91187500D01*
X165600000Y-83100000D02*
X166400000Y-83100000D01*
X167100000Y-91187500D02*
X169000000Y-93087500D01*
X164683250Y-82875001D02*
X165375001Y-82875001D01*
X165375001Y-82875001D02*
X165600000Y-83100000D01*
X164683250Y-85183250D02*
X165000000Y-85500000D01*
X165000000Y-85500000D02*
X165500000Y-86000000D01*
X172500735Y-83500735D02*
X173000000Y-84000000D01*
X164683250Y-84175001D02*
X164683250Y-85183250D01*
X171699262Y-83500735D02*
X172500735Y-83500735D01*
X165500000Y-86000000D02*
X166500000Y-86000000D01*
X172849265Y-82900735D02*
X173000000Y-82750000D01*
X172750000Y-82500000D02*
X173000000Y-82750000D01*
X164683250Y-83525003D02*
X165525003Y-83525003D01*
X165525003Y-83525003D02*
X166000000Y-84000000D01*
X171100000Y-82900735D02*
X172849265Y-82900735D01*
X165950001Y-82225003D02*
X166000000Y-82175004D01*
X164683250Y-82225003D02*
X165950001Y-82225003D01*
X172600000Y-85250000D02*
X173000000Y-85250000D01*
X170500000Y-82000000D02*
X170500000Y-83150000D01*
X170500000Y-83150000D02*
X172600000Y-85250000D01*
X173000000Y-81500000D02*
X171000000Y-81500000D01*
X170425003Y-80925003D02*
X164683250Y-80925003D01*
X164688289Y-80919964D02*
X164683250Y-80925003D01*
X171000000Y-81500000D02*
X170425003Y-80925003D01*
X165949999Y-80275004D02*
X166000000Y-80225003D01*
X164683250Y-80275004D02*
X165949999Y-80275004D01*
X171500000Y-80000000D02*
X172750000Y-80000000D01*
X172750000Y-80000000D02*
X173000000Y-80250000D01*
X164683250Y-81575004D02*
X166575004Y-81575004D01*
X166575004Y-81575004D02*
X167500000Y-82500000D01*
X167500000Y-82500000D02*
X167500000Y-85000000D01*
X167500000Y-85000000D02*
X168087500Y-85587500D01*
X168087500Y-85587500D02*
X168087500Y-88500000D01*
X151400000Y-67200000D02*
X151400000Y-74500000D01*
X151200000Y-67000000D02*
X149112500Y-69087500D01*
X137500000Y-77230000D02*
X137500000Y-67000000D01*
X135500000Y-79230000D02*
X137500000Y-77230000D01*
X151200000Y-67000000D02*
X151400000Y-67200000D01*
X149112500Y-69087500D02*
X148000000Y-69087500D01*
M02*
