G04 #@! TF.GenerationSoftware,KiCad,Pcbnew,8.0.6*
G04 #@! TF.CreationDate,2025-01-22T16:51:43-05:00*
G04 #@! TF.ProjectId,Main_Board_Rev1,4d61696e-5f42-46f6-9172-645f52657631,rev?*
G04 #@! TF.SameCoordinates,Original*
G04 #@! TF.FileFunction,Paste,Top*
G04 #@! TF.FilePolarity,Positive*
%FSLAX46Y46*%
G04 Gerber Fmt 4.6, Leading zero omitted, Abs format (unit mm)*
G04 Created by KiCad (PCBNEW 8.0.6) date 2025-01-22 16:51:43*
%MOMM*%
%LPD*%
G01*
G04 APERTURE LIST*
G04 Aperture macros list*
%AMRoundRect*
0 Rectangle with rounded corners*
0 $1 Rounding radius*
0 $2 $3 $4 $5 $6 $7 $8 $9 X,Y pos of 4 corners*
0 Add a 4 corners polygon primitive as box body*
4,1,4,$2,$3,$4,$5,$6,$7,$8,$9,$2,$3,0*
0 Add four circle primitives for the rounded corners*
1,1,$1+$1,$2,$3*
1,1,$1+$1,$4,$5*
1,1,$1+$1,$6,$7*
1,1,$1+$1,$8,$9*
0 Add four rect primitives between the rounded corners*
20,1,$1+$1,$2,$3,$4,$5,0*
20,1,$1+$1,$4,$5,$6,$7,0*
20,1,$1+$1,$6,$7,$8,$9,0*
20,1,$1+$1,$8,$9,$2,$3,0*%
G04 Aperture macros list end*
%ADD10C,0.010000*%
%ADD11RoundRect,0.250000X0.450000X-0.262500X0.450000X0.262500X-0.450000X0.262500X-0.450000X-0.262500X0*%
%ADD12RoundRect,0.250000X-0.450000X0.262500X-0.450000X-0.262500X0.450000X-0.262500X0.450000X0.262500X0*%
%ADD13R,1.200000X0.700000*%
%ADD14R,1.200000X0.760000*%
%ADD15R,1.200000X0.800000*%
%ADD16RoundRect,0.250000X0.262500X0.450000X-0.262500X0.450000X-0.262500X-0.450000X0.262500X-0.450000X0*%
%ADD17R,1.450000X0.800000*%
%ADD18R,0.300000X0.600000*%
%ADD19R,1.725000X0.300000*%
%ADD20RoundRect,0.250000X-0.475000X0.250000X-0.475000X-0.250000X0.475000X-0.250000X0.475000X0.250000X0*%
%ADD21RoundRect,0.250000X0.250000X0.475000X-0.250000X0.475000X-0.250000X-0.475000X0.250000X-0.475000X0*%
%ADD22RoundRect,0.243750X-0.243750X-0.456250X0.243750X-0.456250X0.243750X0.456250X-0.243750X0.456250X0*%
%ADD23R,0.800000X1.600000*%
%ADD24R,2.100000X3.000000*%
%ADD25R,2.184400X3.200400*%
%ADD26R,0.406400X0.990600*%
%ADD27R,1.320800X0.558800*%
%ADD28RoundRect,0.243750X-0.456250X0.243750X-0.456250X-0.243750X0.456250X-0.243750X0.456250X0.243750X0*%
%ADD29R,0.990600X0.406400*%
%ADD30RoundRect,0.250000X-0.250000X-0.475000X0.250000X-0.475000X0.250000X0.475000X-0.250000X0.475000X0*%
%ADD31RoundRect,0.250000X-0.262500X-0.450000X0.262500X-0.450000X0.262500X0.450000X-0.262500X0.450000X0*%
%ADD32R,0.812800X0.228600*%
%ADD33R,0.228600X0.812800*%
%ADD34R,1.193800X1.727200*%
%ADD35R,0.381000X0.381000*%
%ADD36RoundRect,0.250000X0.325000X0.650000X-0.325000X0.650000X-0.325000X-0.650000X0.325000X-0.650000X0*%
%ADD37R,0.558800X1.320800*%
%ADD38RoundRect,0.250000X0.475000X-0.250000X0.475000X0.250000X-0.475000X0.250000X-0.475000X-0.250000X0*%
%ADD39RoundRect,0.218750X-0.381250X0.218750X-0.381250X-0.218750X0.381250X-0.218750X0.381250X0.218750X0*%
%ADD40R,0.900000X1.850000*%
%ADD41R,3.200000X1.850000*%
%ADD42RoundRect,0.218750X0.218750X0.381250X-0.218750X0.381250X-0.218750X-0.381250X0.218750X-0.381250X0*%
G04 APERTURE END LIST*
D10*
X56265000Y-135160000D02*
X55485000Y-135160000D01*
X55485000Y-134830000D01*
X56265000Y-134830000D01*
X56265000Y-135160000D01*
G36*
X56265000Y-135160000D02*
G01*
X55485000Y-135160000D01*
X55485000Y-134830000D01*
X56265000Y-134830000D01*
X56265000Y-135160000D01*
G37*
X56265000Y-135830000D02*
X55485000Y-135830000D01*
X55485000Y-135500000D01*
X56265000Y-135500000D01*
X56265000Y-135830000D01*
G36*
X56265000Y-135830000D02*
G01*
X55485000Y-135830000D01*
X55485000Y-135500000D01*
X56265000Y-135500000D01*
X56265000Y-135830000D01*
G37*
X56265000Y-136500000D02*
X55485000Y-136500000D01*
X55485000Y-136170000D01*
X56265000Y-136170000D01*
X56265000Y-136500000D01*
G36*
X56265000Y-136500000D02*
G01*
X55485000Y-136500000D01*
X55485000Y-136170000D01*
X56265000Y-136170000D01*
X56265000Y-136500000D01*
G37*
X56265000Y-137170000D02*
X55485000Y-137170000D01*
X55485000Y-136840000D01*
X56265000Y-136840000D01*
X56265000Y-137170000D01*
G36*
X56265000Y-137170000D02*
G01*
X55485000Y-137170000D01*
X55485000Y-136840000D01*
X56265000Y-136840000D01*
X56265000Y-137170000D01*
G37*
X57450000Y-135830000D02*
X56640000Y-135830000D01*
X56640000Y-134839000D01*
X57450000Y-134839000D01*
X57450000Y-135830000D01*
G36*
X57450000Y-135830000D02*
G01*
X56640000Y-135830000D01*
X56640000Y-134839000D01*
X57450000Y-134839000D01*
X57450000Y-135830000D01*
G37*
X57450000Y-137161000D02*
X56640000Y-137161000D01*
X56640000Y-136170000D01*
X57450000Y-136170000D01*
X57450000Y-137161000D01*
G36*
X57450000Y-137161000D02*
G01*
X56640000Y-137161000D01*
X56640000Y-136170000D01*
X57450000Y-136170000D01*
X57450000Y-137161000D01*
G37*
X58510000Y-135165000D02*
X58160000Y-135165000D01*
X58160000Y-135505000D01*
X58510000Y-135505000D01*
X58510000Y-135830000D01*
X57700000Y-135830000D01*
X57700000Y-134840000D01*
X58510000Y-134840000D01*
X58510000Y-135165000D01*
G36*
X58510000Y-135165000D02*
G01*
X58160000Y-135165000D01*
X58160000Y-135505000D01*
X58510000Y-135505000D01*
X58510000Y-135830000D01*
X57700000Y-135830000D01*
X57700000Y-134840000D01*
X58510000Y-134840000D01*
X58510000Y-135165000D01*
G37*
X58510000Y-136495000D02*
X58160000Y-136495000D01*
X58160000Y-136835000D01*
X58510000Y-136835000D01*
X58510000Y-137160000D01*
X57700000Y-137160000D01*
X57700000Y-136170000D01*
X58510000Y-136170000D01*
X58510000Y-136495000D01*
G36*
X58510000Y-136495000D02*
G01*
X58160000Y-136495000D01*
X58160000Y-136835000D01*
X58510000Y-136835000D01*
X58510000Y-137160000D01*
X57700000Y-137160000D01*
X57700000Y-136170000D01*
X58510000Y-136170000D01*
X58510000Y-136495000D01*
G37*
D11*
X157500000Y-117912500D03*
X157500000Y-116087500D03*
D12*
X157500000Y-111587500D03*
X157500000Y-113412500D03*
D13*
X163620000Y-114320000D03*
X163620000Y-115320000D03*
D14*
X163620000Y-113300000D03*
X163620000Y-116340000D03*
D15*
X163620000Y-112070000D03*
X163620000Y-117570000D03*
D16*
X125200000Y-142000000D03*
X123375000Y-142000000D03*
D17*
X137975000Y-149000000D03*
D18*
X136925000Y-148900000D03*
X136475000Y-148900000D03*
X136025000Y-148900000D03*
X136025000Y-150600000D03*
X136475000Y-150600000D03*
X136925000Y-150600000D03*
D17*
X137975000Y-150500000D03*
D19*
X138112500Y-149750000D03*
D20*
X138475000Y-155550000D03*
X138475000Y-157450000D03*
D16*
X88799976Y-139070108D03*
X86974976Y-139070108D03*
D20*
X101299976Y-150670108D03*
X101299976Y-152570108D03*
D21*
X80299976Y-151070108D03*
X78399976Y-151070108D03*
D22*
X79862476Y-162070108D03*
X81737476Y-162070108D03*
D11*
X42500000Y-142912500D03*
X42500000Y-141087500D03*
D23*
X79750000Y-25400000D03*
X78500000Y-25400000D03*
X77250000Y-25400000D03*
X76000000Y-25400000D03*
X74750000Y-25400000D03*
X73500000Y-25400000D03*
X72250000Y-25400000D03*
D24*
X82300000Y-22500000D03*
X69700000Y-22500000D03*
D25*
X70375800Y-138000000D03*
X76624200Y-138000000D03*
D26*
X67701800Y-118062500D03*
X66000000Y-118062500D03*
D27*
X42000000Y-120905000D03*
X42000000Y-119000000D03*
X39612400Y-119952500D03*
D28*
X135975000Y-132062500D03*
X135975000Y-133937500D03*
D29*
X129475000Y-138334900D03*
X129475000Y-136633100D03*
D30*
X85050000Y-106562500D03*
X86950000Y-106562500D03*
D11*
X133475000Y-143912500D03*
X133475000Y-142087500D03*
D30*
X78399976Y-147070108D03*
X80299976Y-147070108D03*
D11*
X92799976Y-152395108D03*
X92799976Y-150570108D03*
D31*
X86974976Y-144070108D03*
X88799976Y-144070108D03*
D32*
X84407676Y-149819415D03*
X84407676Y-150319541D03*
X84407676Y-150819667D03*
X84407676Y-151319793D03*
X84407676Y-151819919D03*
X84407676Y-152320045D03*
X84407676Y-152820171D03*
X84407676Y-153320297D03*
X84407676Y-153820423D03*
X84407676Y-154320549D03*
X84407676Y-154820675D03*
X84407676Y-155320801D03*
D33*
X85049661Y-155973708D03*
X85549787Y-155973708D03*
X86049913Y-155973708D03*
X86550039Y-155973708D03*
X87050165Y-155973708D03*
X87550291Y-155973708D03*
D32*
X88192276Y-155320801D03*
X88192276Y-154820675D03*
X88192276Y-154320549D03*
X88192276Y-153820423D03*
X88192276Y-153320297D03*
X88192276Y-152820171D03*
X88192276Y-152320045D03*
X88192276Y-151819919D03*
X88192276Y-151319793D03*
X88192276Y-150819667D03*
X88192276Y-150319541D03*
X88192276Y-149819415D03*
D33*
X87550291Y-149166508D03*
X87050165Y-149166508D03*
X86550039Y-149166508D03*
X86049913Y-149166508D03*
X85549787Y-149166508D03*
X85049661Y-149166508D03*
D34*
X85599952Y-150640108D03*
X87000000Y-150640108D03*
X85599952Y-152570108D03*
X87000000Y-152570108D03*
X85599952Y-154500000D03*
X87000000Y-154500000D03*
D35*
X84487476Y-149257607D03*
X84487476Y-155882609D03*
X88112476Y-155882609D03*
X88112476Y-149257607D03*
D23*
X99950000Y-25400000D03*
X98700000Y-25400000D03*
X97450000Y-25400000D03*
X96200000Y-25400000D03*
X94950000Y-25400000D03*
X93700000Y-25400000D03*
X92450000Y-25400000D03*
D24*
X102500000Y-22500000D03*
X89900000Y-22500000D03*
D29*
X97299976Y-154165100D03*
X97299976Y-155866900D03*
D23*
X120450000Y-25400000D03*
X119200000Y-25400000D03*
X117950000Y-25400000D03*
X116700000Y-25400000D03*
X115450000Y-25400000D03*
X114200000Y-25400000D03*
X112950000Y-25400000D03*
D24*
X123000000Y-22500000D03*
X110400000Y-22500000D03*
D36*
X75274976Y-147070108D03*
X72324976Y-147070108D03*
D20*
X101299976Y-157070108D03*
X101299976Y-158970108D03*
D11*
X97299976Y-148482608D03*
X97299976Y-146657608D03*
D37*
X32047500Y-126193800D03*
X33952500Y-126193800D03*
X33000000Y-123806200D03*
D36*
X75274976Y-151070108D03*
X72324976Y-151070108D03*
D12*
X75500000Y-112150000D03*
X75500000Y-113975000D03*
D38*
X134975000Y-164450000D03*
X134975000Y-162550000D03*
D30*
X144125000Y-158900000D03*
X146025000Y-158900000D03*
D39*
X138475000Y-162437500D03*
X138475000Y-164562500D03*
D16*
X84212476Y-139070108D03*
X82387476Y-139070108D03*
D12*
X66500000Y-112150000D03*
X66500000Y-113975000D03*
D20*
X59255000Y-68475000D03*
X59255000Y-70375000D03*
D30*
X144125000Y-163900000D03*
X146025000Y-163900000D03*
D26*
X74798200Y-118062500D03*
X76500000Y-118062500D03*
D11*
X92799976Y-157482608D03*
X92799976Y-155657608D03*
D28*
X71000000Y-112125000D03*
X71000000Y-114000000D03*
D12*
X129475000Y-132000000D03*
X129475000Y-133825000D03*
D37*
X33952500Y-113806200D03*
X32047500Y-113806200D03*
X33000000Y-116193800D03*
D20*
X142975000Y-148600000D03*
X142975000Y-150500000D03*
D40*
X88300000Y-110462500D03*
X86000000Y-110462500D03*
X83700000Y-110462500D03*
D41*
X86000000Y-116662500D03*
D42*
X81862476Y-157070108D03*
X79737476Y-157070108D03*
D38*
X37770000Y-140035720D03*
X37770000Y-138135720D03*
X91500000Y-108012500D03*
X91500000Y-106112500D03*
D12*
X49500000Y-135087500D03*
X49500000Y-136912500D03*
M02*
