G04 #@! TF.GenerationSoftware,KiCad,Pcbnew,8.0.6*
G04 #@! TF.CreationDate,2025-01-22T16:51:43-05:00*
G04 #@! TF.ProjectId,Main_Board_Rev1,4d61696e-5f42-46f6-9172-645f52657631,rev?*
G04 #@! TF.SameCoordinates,Original*
G04 #@! TF.FileFunction,Soldermask,Bot*
G04 #@! TF.FilePolarity,Negative*
%FSLAX46Y46*%
G04 Gerber Fmt 4.6, Leading zero omitted, Abs format (unit mm)*
G04 Created by KiCad (PCBNEW 8.0.6) date 2025-01-22 16:51:43*
%MOMM*%
%LPD*%
G01*
G04 APERTURE LIST*
G04 APERTURE END LIST*
G36*
X24424434Y-160919623D02*
G01*
X24845248Y-160978324D01*
X25258850Y-161075602D01*
X25661712Y-161210628D01*
X26050396Y-161382249D01*
X26421588Y-161589001D01*
X26772119Y-161829121D01*
X27099000Y-162100559D01*
X27399441Y-162401000D01*
X27670879Y-162727881D01*
X27910999Y-163078412D01*
X28117751Y-163449604D01*
X28289372Y-163838288D01*
X28424398Y-164241150D01*
X28521676Y-164654752D01*
X28580377Y-165075566D01*
X28600000Y-165500000D01*
X28580377Y-165924434D01*
X28521676Y-166345248D01*
X28424398Y-166758850D01*
X28289372Y-167161712D01*
X28117751Y-167550396D01*
X27910999Y-167921588D01*
X27670879Y-168272119D01*
X27399441Y-168599000D01*
X27099000Y-168899441D01*
X26772119Y-169170879D01*
X26421588Y-169410999D01*
X26050396Y-169617751D01*
X25661712Y-169789372D01*
X25258850Y-169924398D01*
X24845248Y-170021676D01*
X24424434Y-170080377D01*
X24000000Y-170100000D01*
X23575566Y-170080377D01*
X23154752Y-170021676D01*
X22741150Y-169924398D01*
X22338288Y-169789372D01*
X21949604Y-169617751D01*
X21578412Y-169410999D01*
X21227881Y-169170879D01*
X20901000Y-168899441D01*
X20600559Y-168599000D01*
X20329121Y-168272119D01*
X20089001Y-167921588D01*
X19882249Y-167550396D01*
X19710628Y-167161712D01*
X19575602Y-166758850D01*
X19478324Y-166345248D01*
X19419623Y-165924434D01*
X19400000Y-165500000D01*
X19419623Y-165075566D01*
X19478324Y-164654752D01*
X19575602Y-164241150D01*
X19710628Y-163838288D01*
X19882249Y-163449604D01*
X20089001Y-163078412D01*
X20329121Y-162727881D01*
X20600559Y-162401000D01*
X20901000Y-162100559D01*
X21227881Y-161829121D01*
X21578412Y-161589001D01*
X21949604Y-161382249D01*
X22338288Y-161210628D01*
X22741150Y-161075602D01*
X23154752Y-160978324D01*
X23575566Y-160919623D01*
X24000000Y-160900000D01*
X24424434Y-160919623D01*
G37*
G36*
X164924434Y-160919623D02*
G01*
X165345248Y-160978324D01*
X165758850Y-161075602D01*
X166161712Y-161210628D01*
X166550396Y-161382249D01*
X166921588Y-161589001D01*
X167272119Y-161829121D01*
X167599000Y-162100559D01*
X167899441Y-162401000D01*
X168170879Y-162727881D01*
X168410999Y-163078412D01*
X168617751Y-163449604D01*
X168789372Y-163838288D01*
X168924398Y-164241150D01*
X169021676Y-164654752D01*
X169080377Y-165075566D01*
X169100000Y-165500000D01*
X169080377Y-165924434D01*
X169021676Y-166345248D01*
X168924398Y-166758850D01*
X168789372Y-167161712D01*
X168617751Y-167550396D01*
X168410999Y-167921588D01*
X168170879Y-168272119D01*
X167899441Y-168599000D01*
X167599000Y-168899441D01*
X167272119Y-169170879D01*
X166921588Y-169410999D01*
X166550396Y-169617751D01*
X166161712Y-169789372D01*
X165758850Y-169924398D01*
X165345248Y-170021676D01*
X164924434Y-170080377D01*
X164500000Y-170100000D01*
X164075566Y-170080377D01*
X163654752Y-170021676D01*
X163241150Y-169924398D01*
X162838288Y-169789372D01*
X162449604Y-169617751D01*
X162078412Y-169410999D01*
X161727881Y-169170879D01*
X161401000Y-168899441D01*
X161100559Y-168599000D01*
X160829121Y-168272119D01*
X160589001Y-167921588D01*
X160382249Y-167550396D01*
X160210628Y-167161712D01*
X160075602Y-166758850D01*
X159978324Y-166345248D01*
X159919623Y-165924434D01*
X159900000Y-165500000D01*
X159919623Y-165075566D01*
X159978324Y-164654752D01*
X160075602Y-164241150D01*
X160210628Y-163838288D01*
X160382249Y-163449604D01*
X160589001Y-163078412D01*
X160829121Y-162727881D01*
X161100559Y-162401000D01*
X161401000Y-162100559D01*
X161727881Y-161829121D01*
X162078412Y-161589001D01*
X162449604Y-161382249D01*
X162838288Y-161210628D01*
X163241150Y-161075602D01*
X163654752Y-160978324D01*
X164075566Y-160919623D01*
X164500000Y-160900000D01*
X164924434Y-160919623D01*
G37*
G36*
X38047669Y-166603240D02*
G01*
X38094253Y-166603240D01*
X38134479Y-166611790D01*
X38175861Y-166615866D01*
X38227847Y-166631635D01*
X38278641Y-166642432D01*
X38311142Y-166656902D01*
X38344973Y-166667165D01*
X38398737Y-166695902D01*
X38450850Y-166719105D01*
X38475079Y-166736708D01*
X38500823Y-166750469D01*
X38553340Y-166793568D01*
X38603355Y-166829906D01*
X38619592Y-166847939D01*
X38637425Y-166862574D01*
X38685341Y-166920960D01*
X38729491Y-166969994D01*
X38738767Y-166986062D01*
X38749530Y-166999176D01*
X38789349Y-167073672D01*
X38823744Y-167133246D01*
X38827699Y-167145420D01*
X38832834Y-167155026D01*
X38861134Y-167248322D01*
X38881996Y-167312526D01*
X38882730Y-167319514D01*
X38884133Y-167324138D01*
X38897788Y-167462786D01*
X38901700Y-167500000D01*
X38897788Y-167537216D01*
X38884133Y-167675861D01*
X38882730Y-167680483D01*
X38881996Y-167687474D01*
X38861130Y-167751691D01*
X38832834Y-167844973D01*
X38827700Y-167854576D01*
X38823744Y-167866754D01*
X38789341Y-167926340D01*
X38749530Y-168000823D01*
X38738769Y-168013934D01*
X38729491Y-168030006D01*
X38685331Y-168079049D01*
X38637425Y-168137425D01*
X38619595Y-168152057D01*
X38603355Y-168170094D01*
X38553329Y-168206439D01*
X38500823Y-168249530D01*
X38475084Y-168263287D01*
X38450850Y-168280895D01*
X38398725Y-168304102D01*
X38344973Y-168332834D01*
X38311149Y-168343094D01*
X38278641Y-168357568D01*
X38227836Y-168368366D01*
X38175861Y-168384133D01*
X38134488Y-168388207D01*
X38094253Y-168396760D01*
X38047658Y-168396760D01*
X38000000Y-168401454D01*
X37952341Y-168396760D01*
X37905747Y-168396760D01*
X37865512Y-168388208D01*
X37824138Y-168384133D01*
X37772160Y-168368365D01*
X37721359Y-168357568D01*
X37688852Y-168343095D01*
X37655026Y-168332834D01*
X37601268Y-168304099D01*
X37549150Y-168280895D01*
X37524917Y-168263289D01*
X37499176Y-168249530D01*
X37446661Y-168206433D01*
X37396645Y-168170094D01*
X37380407Y-168152060D01*
X37362574Y-168137425D01*
X37314656Y-168079037D01*
X37270509Y-168030006D01*
X37261232Y-168013938D01*
X37250469Y-168000823D01*
X37210644Y-167926317D01*
X37176256Y-167866754D01*
X37172300Y-167854581D01*
X37167165Y-167844973D01*
X37138854Y-167751645D01*
X37118004Y-167687474D01*
X37117269Y-167680488D01*
X37115866Y-167675861D01*
X37102195Y-167537064D01*
X37098300Y-167500000D01*
X37102195Y-167462938D01*
X37115866Y-167324138D01*
X37117270Y-167319509D01*
X37118004Y-167312526D01*
X37138850Y-167248368D01*
X37167165Y-167155026D01*
X37172301Y-167145415D01*
X37176256Y-167133246D01*
X37210637Y-167073695D01*
X37250469Y-166999176D01*
X37261234Y-166986058D01*
X37270509Y-166969994D01*
X37314647Y-166920973D01*
X37362574Y-166862574D01*
X37380410Y-166847935D01*
X37396645Y-166829906D01*
X37446650Y-166793574D01*
X37499176Y-166750469D01*
X37524923Y-166736706D01*
X37549150Y-166719105D01*
X37601256Y-166695905D01*
X37655026Y-166667165D01*
X37688859Y-166656901D01*
X37721359Y-166642432D01*
X37772149Y-166631636D01*
X37824138Y-166615866D01*
X37865521Y-166611790D01*
X37905747Y-166603240D01*
X37952331Y-166603240D01*
X38000000Y-166598545D01*
X38047669Y-166603240D01*
G37*
G36*
X43047669Y-166603240D02*
G01*
X43094253Y-166603240D01*
X43134479Y-166611790D01*
X43175861Y-166615866D01*
X43227847Y-166631635D01*
X43278641Y-166642432D01*
X43311142Y-166656902D01*
X43344973Y-166667165D01*
X43398737Y-166695902D01*
X43450850Y-166719105D01*
X43475079Y-166736708D01*
X43500823Y-166750469D01*
X43553340Y-166793568D01*
X43603355Y-166829906D01*
X43619592Y-166847939D01*
X43637425Y-166862574D01*
X43685341Y-166920960D01*
X43729491Y-166969994D01*
X43738767Y-166986062D01*
X43749530Y-166999176D01*
X43789349Y-167073672D01*
X43823744Y-167133246D01*
X43827699Y-167145420D01*
X43832834Y-167155026D01*
X43861134Y-167248322D01*
X43881996Y-167312526D01*
X43882730Y-167319514D01*
X43884133Y-167324138D01*
X43897788Y-167462786D01*
X43901700Y-167500000D01*
X43897788Y-167537216D01*
X43884133Y-167675861D01*
X43882730Y-167680483D01*
X43881996Y-167687474D01*
X43861130Y-167751691D01*
X43832834Y-167844973D01*
X43827700Y-167854576D01*
X43823744Y-167866754D01*
X43789341Y-167926340D01*
X43749530Y-168000823D01*
X43738769Y-168013934D01*
X43729491Y-168030006D01*
X43685331Y-168079049D01*
X43637425Y-168137425D01*
X43619595Y-168152057D01*
X43603355Y-168170094D01*
X43553329Y-168206439D01*
X43500823Y-168249530D01*
X43475084Y-168263287D01*
X43450850Y-168280895D01*
X43398725Y-168304102D01*
X43344973Y-168332834D01*
X43311149Y-168343094D01*
X43278641Y-168357568D01*
X43227836Y-168368366D01*
X43175861Y-168384133D01*
X43134488Y-168388207D01*
X43094253Y-168396760D01*
X43047658Y-168396760D01*
X43000000Y-168401454D01*
X42952341Y-168396760D01*
X42905747Y-168396760D01*
X42865512Y-168388208D01*
X42824138Y-168384133D01*
X42772160Y-168368365D01*
X42721359Y-168357568D01*
X42688852Y-168343095D01*
X42655026Y-168332834D01*
X42601268Y-168304099D01*
X42549150Y-168280895D01*
X42524917Y-168263289D01*
X42499176Y-168249530D01*
X42446661Y-168206433D01*
X42396645Y-168170094D01*
X42380407Y-168152060D01*
X42362574Y-168137425D01*
X42314656Y-168079037D01*
X42270509Y-168030006D01*
X42261232Y-168013938D01*
X42250469Y-168000823D01*
X42210644Y-167926317D01*
X42176256Y-167866754D01*
X42172300Y-167854581D01*
X42167165Y-167844973D01*
X42138854Y-167751645D01*
X42118004Y-167687474D01*
X42117269Y-167680488D01*
X42115866Y-167675861D01*
X42102195Y-167537064D01*
X42098300Y-167500000D01*
X42102195Y-167462938D01*
X42115866Y-167324138D01*
X42117270Y-167319509D01*
X42118004Y-167312526D01*
X42138850Y-167248368D01*
X42167165Y-167155026D01*
X42172301Y-167145415D01*
X42176256Y-167133246D01*
X42210637Y-167073695D01*
X42250469Y-166999176D01*
X42261234Y-166986058D01*
X42270509Y-166969994D01*
X42314647Y-166920973D01*
X42362574Y-166862574D01*
X42380410Y-166847935D01*
X42396645Y-166829906D01*
X42446650Y-166793574D01*
X42499176Y-166750469D01*
X42524923Y-166736706D01*
X42549150Y-166719105D01*
X42601256Y-166695905D01*
X42655026Y-166667165D01*
X42688859Y-166656901D01*
X42721359Y-166642432D01*
X42772149Y-166631636D01*
X42824138Y-166615866D01*
X42865521Y-166611790D01*
X42905747Y-166603240D01*
X42952331Y-166603240D01*
X43000000Y-166598545D01*
X43047669Y-166603240D01*
G37*
G36*
X93649976Y-162920108D02*
G01*
X91949976Y-162920108D01*
X91949976Y-161220108D01*
X93649976Y-161220108D01*
X93649976Y-162920108D01*
G37*
G36*
X90522640Y-161261710D02*
G01*
X90684976Y-161333986D01*
X90828737Y-161438435D01*
X90947640Y-161570491D01*
X91036490Y-161724382D01*
X91091401Y-161893383D01*
X91109976Y-162070108D01*
X91091401Y-162246833D01*
X91036490Y-162415834D01*
X90947640Y-162569725D01*
X90828737Y-162701781D01*
X90684976Y-162806230D01*
X90522640Y-162878506D01*
X90348825Y-162915452D01*
X90171127Y-162915452D01*
X89997312Y-162878506D01*
X89834976Y-162806230D01*
X89691215Y-162701781D01*
X89572312Y-162569725D01*
X89483462Y-162415834D01*
X89428551Y-162246833D01*
X89409976Y-162070108D01*
X89428551Y-161893383D01*
X89483462Y-161724382D01*
X89572312Y-161570491D01*
X89691215Y-161438435D01*
X89834976Y-161333986D01*
X89997312Y-161261710D01*
X90171127Y-161224764D01*
X90348825Y-161224764D01*
X90522640Y-161261710D01*
G37*
G36*
X49700000Y-161350000D02*
G01*
X48800000Y-161350000D01*
X48800000Y-159350000D01*
X49700000Y-159350000D01*
X49700000Y-161350000D01*
G37*
G36*
X63200000Y-161350000D02*
G01*
X62300000Y-161350000D01*
X62300000Y-159350000D01*
X63200000Y-159350000D01*
X63200000Y-161350000D01*
G37*
G36*
X60627311Y-152300227D02*
G01*
X60745767Y-152307283D01*
X60784501Y-152315709D01*
X60824968Y-152319695D01*
X60881117Y-152336727D01*
X60937025Y-152348890D01*
X60975438Y-152365339D01*
X61017251Y-152378023D01*
X61066368Y-152404277D01*
X61116123Y-152425583D01*
X61153289Y-152450738D01*
X61194459Y-152472744D01*
X61235183Y-152506165D01*
X61277461Y-152534780D01*
X61311377Y-152568696D01*
X61349784Y-152600216D01*
X61381303Y-152638622D01*
X61415219Y-152672538D01*
X61443832Y-152714814D01*
X61477256Y-152755541D01*
X61499262Y-152796712D01*
X61524416Y-152833876D01*
X61545719Y-152883626D01*
X61571977Y-152932749D01*
X61584661Y-152974565D01*
X61601109Y-153012974D01*
X61613269Y-153068872D01*
X61630305Y-153125032D01*
X61634291Y-153165506D01*
X61642716Y-153204233D01*
X61649770Y-153322665D01*
X61650000Y-153325000D01*
X61650000Y-155375000D01*
X61649769Y-155377337D01*
X61642716Y-155495767D01*
X61634291Y-155534492D01*
X61630305Y-155574968D01*
X61613268Y-155631129D01*
X61601109Y-155687025D01*
X61584662Y-155725430D01*
X61571977Y-155767251D01*
X61545717Y-155816377D01*
X61524416Y-155866123D01*
X61499265Y-155903282D01*
X61477256Y-155944459D01*
X61443828Y-155985190D01*
X61415219Y-156027461D01*
X61381307Y-156061372D01*
X61349784Y-156099784D01*
X61311372Y-156131307D01*
X61277461Y-156165219D01*
X61235190Y-156193828D01*
X61194459Y-156227256D01*
X61153282Y-156249265D01*
X61116123Y-156274416D01*
X61066377Y-156295717D01*
X61017251Y-156321977D01*
X60975430Y-156334662D01*
X60937025Y-156351109D01*
X60881130Y-156363268D01*
X60824968Y-156380305D01*
X60784491Y-156384291D01*
X60745766Y-156392716D01*
X60627336Y-156399769D01*
X60625000Y-156400000D01*
X58575000Y-156400000D01*
X58572664Y-156399769D01*
X58454232Y-156392716D01*
X58415505Y-156384291D01*
X58375032Y-156380305D01*
X58318873Y-156363269D01*
X58262974Y-156351109D01*
X58224565Y-156334661D01*
X58182749Y-156321977D01*
X58133626Y-156295719D01*
X58083876Y-156274416D01*
X58046712Y-156249262D01*
X58005541Y-156227256D01*
X57964814Y-156193832D01*
X57922538Y-156165219D01*
X57888622Y-156131303D01*
X57850216Y-156099784D01*
X57818696Y-156061377D01*
X57784780Y-156027461D01*
X57756165Y-155985183D01*
X57722744Y-155944459D01*
X57700738Y-155903289D01*
X57675583Y-155866123D01*
X57654277Y-155816368D01*
X57628023Y-155767251D01*
X57615339Y-155725438D01*
X57598890Y-155687025D01*
X57586727Y-155631118D01*
X57569695Y-155574968D01*
X57565709Y-155534499D01*
X57557283Y-155495766D01*
X57550227Y-155377310D01*
X57550000Y-155375000D01*
X57550000Y-153325000D01*
X57550227Y-153322689D01*
X57557283Y-153204232D01*
X57565709Y-153165496D01*
X57569695Y-153125032D01*
X57586726Y-153068884D01*
X57598890Y-153012974D01*
X57615340Y-152974557D01*
X57628023Y-152932749D01*
X57654275Y-152883635D01*
X57675583Y-152833876D01*
X57700740Y-152796705D01*
X57722744Y-152755541D01*
X57756161Y-152714821D01*
X57784780Y-152672538D01*
X57818701Y-152638616D01*
X57850216Y-152600216D01*
X57888616Y-152568701D01*
X57922538Y-152534780D01*
X57964821Y-152506161D01*
X58005541Y-152472744D01*
X58046705Y-152450740D01*
X58083876Y-152425583D01*
X58133635Y-152404275D01*
X58182749Y-152378023D01*
X58224557Y-152365340D01*
X58262974Y-152348890D01*
X58318884Y-152336727D01*
X58375032Y-152319695D01*
X58415498Y-152315709D01*
X58454233Y-152307283D01*
X58572691Y-152300227D01*
X58575000Y-152300000D01*
X60625000Y-152300000D01*
X60627311Y-152300227D01*
G37*
G36*
X52817085Y-152342878D02*
G01*
X53086503Y-152418365D01*
X53343133Y-152529835D01*
X53582195Y-152675212D01*
X53799234Y-152851786D01*
X53990208Y-153056270D01*
X54151560Y-153284853D01*
X54280283Y-153533278D01*
X54373980Y-153796917D01*
X54430906Y-154070858D01*
X54450000Y-154350000D01*
X54430906Y-154629142D01*
X54373980Y-154903083D01*
X54280283Y-155166722D01*
X54151560Y-155415147D01*
X53990208Y-155643730D01*
X53799234Y-155848214D01*
X53582195Y-156024788D01*
X53343133Y-156170165D01*
X53086503Y-156281635D01*
X52817085Y-156357122D01*
X52539897Y-156395221D01*
X52260103Y-156395221D01*
X51982915Y-156357122D01*
X51713497Y-156281635D01*
X51456867Y-156170165D01*
X51217805Y-156024788D01*
X51000766Y-155848214D01*
X50809792Y-155643730D01*
X50648440Y-155415147D01*
X50519717Y-155166722D01*
X50426020Y-154903083D01*
X50369094Y-154629142D01*
X50350000Y-154350000D01*
X50369094Y-154070858D01*
X50426020Y-153796917D01*
X50519717Y-153533278D01*
X50648440Y-153284853D01*
X50809792Y-153056270D01*
X51000766Y-152851786D01*
X51217805Y-152675212D01*
X51456867Y-152529835D01*
X51713497Y-152418365D01*
X51982915Y-152342878D01*
X52260103Y-152304779D01*
X52539897Y-152304779D01*
X52817085Y-152342878D01*
G37*
G36*
X143825000Y-140850000D02*
G01*
X142125000Y-140850000D01*
X142125000Y-139150000D01*
X143825000Y-139150000D01*
X143825000Y-140850000D01*
G37*
G36*
X140697664Y-139191602D02*
G01*
X140860000Y-139263878D01*
X141003761Y-139368327D01*
X141122664Y-139500383D01*
X141211514Y-139654274D01*
X141266425Y-139823275D01*
X141285000Y-140000000D01*
X141266425Y-140176725D01*
X141211514Y-140345726D01*
X141122664Y-140499617D01*
X141003761Y-140631673D01*
X140860000Y-140736122D01*
X140697664Y-140808398D01*
X140523849Y-140845344D01*
X140346151Y-140845344D01*
X140172336Y-140808398D01*
X140010000Y-140736122D01*
X139866239Y-140631673D01*
X139747336Y-140499617D01*
X139658486Y-140345726D01*
X139603575Y-140176725D01*
X139585000Y-140000000D01*
X139603575Y-139823275D01*
X139658486Y-139654274D01*
X139747336Y-139500383D01*
X139866239Y-139368327D01*
X140010000Y-139263878D01*
X140172336Y-139191602D01*
X140346151Y-139154656D01*
X140523849Y-139154656D01*
X140697664Y-139191602D01*
G37*
G36*
X21639034Y-121805764D02*
G01*
X21672125Y-121827875D01*
X21694236Y-121860966D01*
X21702000Y-121900000D01*
X21702000Y-123100000D01*
X21694236Y-123139034D01*
X21672125Y-123172125D01*
X21639034Y-123194236D01*
X21600000Y-123202000D01*
X20400000Y-123202000D01*
X20360966Y-123194236D01*
X20327875Y-123172125D01*
X20305764Y-123139034D01*
X20298000Y-123100000D01*
X20298000Y-121900000D01*
X20305764Y-121860966D01*
X20327875Y-121827875D01*
X20360966Y-121805764D01*
X20400000Y-121798000D01*
X21600000Y-121798000D01*
X21639034Y-121805764D01*
G37*
G36*
X21042574Y-119803118D02*
G01*
X21084617Y-119803118D01*
X21120019Y-119811844D01*
X21156141Y-119815914D01*
X21202869Y-119832265D01*
X21248933Y-119843619D01*
X21276172Y-119857915D01*
X21304444Y-119867808D01*
X21352223Y-119897829D01*
X21398781Y-119922265D01*
X21417489Y-119938839D01*
X21437491Y-119951407D01*
X21482651Y-119996567D01*
X21525455Y-120034488D01*
X21536336Y-120050252D01*
X21548592Y-120062508D01*
X21587123Y-120123830D01*
X21621590Y-120173764D01*
X21626296Y-120186173D01*
X21632191Y-120195555D01*
X21660068Y-120275223D01*
X21681601Y-120332000D01*
X21682485Y-120339288D01*
X21684085Y-120343858D01*
X21697531Y-120463198D01*
X21702000Y-120500000D01*
X21697531Y-120536804D01*
X21684085Y-120656141D01*
X21682486Y-120660710D01*
X21681601Y-120668000D01*
X21660063Y-120724788D01*
X21632191Y-120804444D01*
X21626297Y-120813823D01*
X21621590Y-120826236D01*
X21587116Y-120876179D01*
X21548592Y-120937491D01*
X21536338Y-120949744D01*
X21525455Y-120965512D01*
X21482643Y-121003439D01*
X21437491Y-121048592D01*
X21417493Y-121061157D01*
X21398781Y-121077735D01*
X21352213Y-121102175D01*
X21304444Y-121132191D01*
X21276177Y-121142081D01*
X21248933Y-121156381D01*
X21202859Y-121167737D01*
X21156141Y-121184085D01*
X21120026Y-121188154D01*
X21084617Y-121196882D01*
X21042565Y-121196882D01*
X21000000Y-121201678D01*
X20957434Y-121196882D01*
X20915383Y-121196882D01*
X20879973Y-121188154D01*
X20843858Y-121184085D01*
X20797136Y-121167736D01*
X20751067Y-121156381D01*
X20723824Y-121142082D01*
X20695555Y-121132191D01*
X20647780Y-121102172D01*
X20601219Y-121077735D01*
X20582509Y-121061159D01*
X20562508Y-121048592D01*
X20517348Y-121003432D01*
X20474545Y-120965512D01*
X20463663Y-120949747D01*
X20451407Y-120937491D01*
X20412872Y-120876163D01*
X20378410Y-120826236D01*
X20373704Y-120813827D01*
X20367808Y-120804444D01*
X20339923Y-120724754D01*
X20318399Y-120668000D01*
X20317514Y-120660714D01*
X20315914Y-120656141D01*
X20302455Y-120536690D01*
X20298000Y-120500000D01*
X20302454Y-120463312D01*
X20315914Y-120343858D01*
X20317514Y-120339283D01*
X20318399Y-120332000D01*
X20339918Y-120275257D01*
X20367808Y-120195555D01*
X20373705Y-120186169D01*
X20378410Y-120173764D01*
X20412865Y-120123846D01*
X20451407Y-120062508D01*
X20463665Y-120050249D01*
X20474545Y-120034488D01*
X20517339Y-119996575D01*
X20562508Y-119951407D01*
X20582512Y-119938837D01*
X20601219Y-119922265D01*
X20647770Y-119897832D01*
X20695555Y-119867808D01*
X20723829Y-119857914D01*
X20751067Y-119843619D01*
X20797127Y-119832265D01*
X20843858Y-119815914D01*
X20879981Y-119811843D01*
X20915383Y-119803118D01*
X20957426Y-119803118D01*
X21000000Y-119798321D01*
X21042574Y-119803118D01*
G37*
G36*
X164000294Y-118480004D02*
G01*
X164000640Y-118480014D01*
X164000699Y-118480015D01*
X164033531Y-118480981D01*
X164033549Y-118480982D01*
X164034294Y-118481004D01*
X164034879Y-118481039D01*
X164035614Y-118481103D01*
X164035650Y-118481106D01*
X164068517Y-118484006D01*
X164068591Y-118484013D01*
X164068879Y-118484039D01*
X164069168Y-118484068D01*
X164069474Y-118484104D01*
X164069513Y-118484108D01*
X164102354Y-118487972D01*
X164102361Y-118487973D01*
X164103168Y-118488068D01*
X164103789Y-118488161D01*
X164136789Y-118494161D01*
X164137356Y-118494281D01*
X164138055Y-118494450D01*
X164138067Y-118494453D01*
X164169640Y-118502107D01*
X164169654Y-118502110D01*
X164170356Y-118502281D01*
X164170900Y-118502430D01*
X164171578Y-118502635D01*
X164171591Y-118502639D01*
X164203438Y-118512290D01*
X164203900Y-118512430D01*
X164204251Y-118512543D01*
X164236251Y-118523543D01*
X164236867Y-118523778D01*
X164267867Y-118536778D01*
X164268356Y-118536998D01*
X164268952Y-118537286D01*
X164268960Y-118537290D01*
X164298877Y-118551766D01*
X164299356Y-118551998D01*
X164299706Y-118552176D01*
X164329706Y-118568176D01*
X164330274Y-118568504D01*
X164359274Y-118586504D01*
X164359615Y-118586725D01*
X164360032Y-118587008D01*
X164360049Y-118587019D01*
X164386943Y-118605269D01*
X164387615Y-118605725D01*
X164388139Y-118606106D01*
X164415139Y-118627106D01*
X164415459Y-118627366D01*
X164415848Y-118627695D01*
X164415886Y-118627726D01*
X164441052Y-118649021D01*
X164441069Y-118649036D01*
X164441459Y-118649366D01*
X164441771Y-118649641D01*
X164466771Y-118672641D01*
X164467359Y-118673229D01*
X164490359Y-118698229D01*
X164490634Y-118698541D01*
X164490966Y-118698934D01*
X164490978Y-118698947D01*
X164512273Y-118724113D01*
X164512299Y-118724145D01*
X164512634Y-118724541D01*
X164512894Y-118724861D01*
X164533894Y-118751861D01*
X164534275Y-118752385D01*
X164553275Y-118780385D01*
X164553496Y-118780726D01*
X164571496Y-118809726D01*
X164571824Y-118810294D01*
X164587824Y-118840294D01*
X164588002Y-118840644D01*
X164603002Y-118871644D01*
X164603222Y-118872133D01*
X164616222Y-118903133D01*
X164616457Y-118903749D01*
X164627457Y-118935749D01*
X164627570Y-118936100D01*
X164637570Y-118969100D01*
X164637719Y-118969644D01*
X164645719Y-119002644D01*
X164645839Y-119003211D01*
X164651839Y-119036211D01*
X164651932Y-119036832D01*
X164655932Y-119070832D01*
X164655961Y-119071121D01*
X164658961Y-119105121D01*
X164658996Y-119105706D01*
X164659996Y-119139706D01*
X164659996Y-119140294D01*
X164658996Y-119174294D01*
X164658961Y-119174879D01*
X164655961Y-119208879D01*
X164655932Y-119209168D01*
X164651932Y-119243168D01*
X164651839Y-119243789D01*
X164645839Y-119276789D01*
X164645719Y-119277356D01*
X164637719Y-119310356D01*
X164637570Y-119310900D01*
X164627570Y-119343900D01*
X164627457Y-119344251D01*
X164616457Y-119376251D01*
X164616222Y-119376867D01*
X164603222Y-119407867D01*
X164603002Y-119408356D01*
X164588002Y-119439356D01*
X164587824Y-119439706D01*
X164571824Y-119469706D01*
X164571496Y-119470274D01*
X164553496Y-119499274D01*
X164553275Y-119499615D01*
X164534275Y-119527615D01*
X164533894Y-119528139D01*
X164512894Y-119555139D01*
X164512634Y-119555459D01*
X164490634Y-119581459D01*
X164490359Y-119581771D01*
X164467359Y-119606771D01*
X164466771Y-119607359D01*
X164441771Y-119630359D01*
X164441459Y-119630634D01*
X164415459Y-119652634D01*
X164415139Y-119652894D01*
X164388139Y-119673894D01*
X164387615Y-119674275D01*
X164359615Y-119693275D01*
X164359274Y-119693496D01*
X164330274Y-119711496D01*
X164329706Y-119711824D01*
X164299706Y-119727824D01*
X164299356Y-119728002D01*
X164268356Y-119743002D01*
X164267867Y-119743222D01*
X164236867Y-119756222D01*
X164236251Y-119756457D01*
X164204251Y-119767457D01*
X164203900Y-119767570D01*
X164170900Y-119777570D01*
X164170356Y-119777719D01*
X164137356Y-119785719D01*
X164136789Y-119785839D01*
X164103789Y-119791839D01*
X164103168Y-119791932D01*
X164069168Y-119795932D01*
X164068879Y-119795961D01*
X164068521Y-119795992D01*
X164068517Y-119795993D01*
X164035650Y-119798893D01*
X164034879Y-119798961D01*
X164034294Y-119798996D01*
X164000294Y-119799996D01*
X164000000Y-119800000D01*
X163999605Y-119800000D01*
X163400395Y-119800000D01*
X163400000Y-119800000D01*
X163399706Y-119799996D01*
X163365706Y-119798996D01*
X163365121Y-119798961D01*
X163364353Y-119798893D01*
X163364349Y-119798893D01*
X163331482Y-119795993D01*
X163331471Y-119795991D01*
X163331121Y-119795961D01*
X163330832Y-119795932D01*
X163296832Y-119791932D01*
X163296211Y-119791839D01*
X163263211Y-119785839D01*
X163262644Y-119785719D01*
X163229644Y-119777719D01*
X163229100Y-119777570D01*
X163196100Y-119767570D01*
X163195749Y-119767457D01*
X163163749Y-119756457D01*
X163163133Y-119756222D01*
X163132133Y-119743222D01*
X163131644Y-119743002D01*
X163100644Y-119728002D01*
X163100294Y-119727824D01*
X163070294Y-119711824D01*
X163069726Y-119711496D01*
X163040726Y-119693496D01*
X163040385Y-119693275D01*
X163012385Y-119674275D01*
X163011861Y-119673894D01*
X162984861Y-119652894D01*
X162984541Y-119652634D01*
X162984145Y-119652299D01*
X162984113Y-119652273D01*
X162958947Y-119630978D01*
X162958934Y-119630966D01*
X162958541Y-119630634D01*
X162958229Y-119630359D01*
X162933229Y-119607359D01*
X162932641Y-119606771D01*
X162909641Y-119581771D01*
X162909366Y-119581459D01*
X162909036Y-119581069D01*
X162909021Y-119581052D01*
X162887726Y-119555886D01*
X162887695Y-119555848D01*
X162887366Y-119555459D01*
X162887106Y-119555139D01*
X162866106Y-119528139D01*
X162865725Y-119527615D01*
X162846725Y-119499615D01*
X162846504Y-119499274D01*
X162828504Y-119470274D01*
X162828176Y-119469706D01*
X162812176Y-119439706D01*
X162811998Y-119439356D01*
X162796998Y-119408356D01*
X162796778Y-119407867D01*
X162783778Y-119376867D01*
X162783543Y-119376251D01*
X162772543Y-119344251D01*
X162772430Y-119343900D01*
X162762430Y-119310900D01*
X162762281Y-119310356D01*
X162754281Y-119277356D01*
X162754161Y-119276789D01*
X162748161Y-119243789D01*
X162748068Y-119243168D01*
X162747972Y-119242354D01*
X162744108Y-119209513D01*
X162744104Y-119209474D01*
X162744068Y-119209168D01*
X162744039Y-119208879D01*
X162744013Y-119208591D01*
X162744006Y-119208517D01*
X162741106Y-119175650D01*
X162741103Y-119175614D01*
X162741039Y-119174879D01*
X162741004Y-119174294D01*
X162740982Y-119173549D01*
X162740981Y-119173531D01*
X162740026Y-119141042D01*
X162740004Y-119140294D01*
X162740004Y-119139706D01*
X162740225Y-119132191D01*
X162740981Y-119106468D01*
X162740982Y-119106448D01*
X162741004Y-119105706D01*
X162741039Y-119105121D01*
X162741103Y-119104387D01*
X162741106Y-119104349D01*
X162744006Y-119071482D01*
X162744014Y-119071401D01*
X162744039Y-119071121D01*
X162744068Y-119070832D01*
X162744103Y-119070532D01*
X162744108Y-119070486D01*
X162747972Y-119037645D01*
X162747973Y-119037634D01*
X162748068Y-119036832D01*
X162748161Y-119036211D01*
X162754161Y-119003211D01*
X162754281Y-119002644D01*
X162754448Y-119001951D01*
X162754453Y-119001932D01*
X162762107Y-118970359D01*
X162762113Y-118970336D01*
X162762281Y-118969644D01*
X162762430Y-118969100D01*
X162762632Y-118968430D01*
X162762639Y-118968408D01*
X162772290Y-118936561D01*
X162772294Y-118936545D01*
X162772430Y-118936100D01*
X162772543Y-118935749D01*
X162772694Y-118935308D01*
X162772702Y-118935285D01*
X162783272Y-118904536D01*
X162783276Y-118904523D01*
X162783543Y-118903749D01*
X162783778Y-118903133D01*
X162796778Y-118872133D01*
X162796998Y-118871644D01*
X162797279Y-118871061D01*
X162797290Y-118871039D01*
X162811766Y-118841122D01*
X162811780Y-118841093D01*
X162811998Y-118840644D01*
X162812176Y-118840294D01*
X162828176Y-118810294D01*
X162828504Y-118809726D01*
X162846504Y-118780726D01*
X162846725Y-118780385D01*
X162846993Y-118779989D01*
X162847019Y-118779950D01*
X162865269Y-118753056D01*
X162865279Y-118753041D01*
X162865725Y-118752385D01*
X162866106Y-118751861D01*
X162866593Y-118751234D01*
X162866606Y-118751217D01*
X162886774Y-118725287D01*
X162886790Y-118725266D01*
X162887106Y-118724861D01*
X162887366Y-118724541D01*
X162887676Y-118724174D01*
X162887726Y-118724113D01*
X162909021Y-118698947D01*
X162909056Y-118698906D01*
X162909366Y-118698541D01*
X162909641Y-118698229D01*
X162932641Y-118673229D01*
X162933229Y-118672641D01*
X162933992Y-118671939D01*
X162957870Y-118649971D01*
X162957877Y-118649964D01*
X162958229Y-118649641D01*
X162958541Y-118649366D01*
X162958906Y-118649056D01*
X162958947Y-118649021D01*
X162984113Y-118627726D01*
X162984174Y-118627676D01*
X162984541Y-118627366D01*
X162984861Y-118627106D01*
X162985266Y-118626790D01*
X162985287Y-118626774D01*
X163011217Y-118606606D01*
X163011234Y-118606593D01*
X163011861Y-118606106D01*
X163012385Y-118605725D01*
X163013041Y-118605279D01*
X163013056Y-118605269D01*
X163039950Y-118587019D01*
X163039989Y-118586993D01*
X163040385Y-118586725D01*
X163040726Y-118586504D01*
X163069726Y-118568504D01*
X163070294Y-118568176D01*
X163100294Y-118552176D01*
X163100644Y-118551998D01*
X163101093Y-118551780D01*
X163101122Y-118551766D01*
X163131039Y-118537290D01*
X163131061Y-118537279D01*
X163131644Y-118536998D01*
X163132133Y-118536778D01*
X163163133Y-118523778D01*
X163163749Y-118523543D01*
X163164523Y-118523276D01*
X163164536Y-118523272D01*
X163195285Y-118512702D01*
X163195308Y-118512694D01*
X163195749Y-118512543D01*
X163196100Y-118512430D01*
X163196545Y-118512294D01*
X163196561Y-118512290D01*
X163228408Y-118502639D01*
X163228430Y-118502632D01*
X163229100Y-118502430D01*
X163229644Y-118502281D01*
X163230336Y-118502113D01*
X163230359Y-118502107D01*
X163261932Y-118494453D01*
X163261951Y-118494448D01*
X163262644Y-118494281D01*
X163263211Y-118494161D01*
X163296211Y-118488161D01*
X163296832Y-118488068D01*
X163297634Y-118487973D01*
X163297645Y-118487972D01*
X163330486Y-118484108D01*
X163330532Y-118484103D01*
X163330832Y-118484068D01*
X163331121Y-118484039D01*
X163331401Y-118484014D01*
X163331482Y-118484006D01*
X163364349Y-118481106D01*
X163364387Y-118481103D01*
X163365121Y-118481039D01*
X163365706Y-118481004D01*
X163366448Y-118480982D01*
X163366468Y-118480981D01*
X163399300Y-118480015D01*
X163399359Y-118480014D01*
X163399706Y-118480004D01*
X163400000Y-118480000D01*
X164000000Y-118480000D01*
X164000294Y-118480004D01*
G37*
G36*
X167800294Y-118480004D02*
G01*
X167800640Y-118480014D01*
X167800699Y-118480015D01*
X167833531Y-118480981D01*
X167833549Y-118480982D01*
X167834294Y-118481004D01*
X167834879Y-118481039D01*
X167835614Y-118481103D01*
X167835650Y-118481106D01*
X167868517Y-118484006D01*
X167868591Y-118484013D01*
X167868879Y-118484039D01*
X167869168Y-118484068D01*
X167869474Y-118484104D01*
X167869513Y-118484108D01*
X167902354Y-118487972D01*
X167902361Y-118487973D01*
X167903168Y-118488068D01*
X167903789Y-118488161D01*
X167936789Y-118494161D01*
X167937356Y-118494281D01*
X167938055Y-118494450D01*
X167938067Y-118494453D01*
X167969640Y-118502107D01*
X167969654Y-118502110D01*
X167970356Y-118502281D01*
X167970900Y-118502430D01*
X167971578Y-118502635D01*
X167971591Y-118502639D01*
X168003438Y-118512290D01*
X168003900Y-118512430D01*
X168004251Y-118512543D01*
X168036251Y-118523543D01*
X168036867Y-118523778D01*
X168067867Y-118536778D01*
X168068356Y-118536998D01*
X168068952Y-118537286D01*
X168068960Y-118537290D01*
X168098877Y-118551766D01*
X168099356Y-118551998D01*
X168099706Y-118552176D01*
X168129706Y-118568176D01*
X168130274Y-118568504D01*
X168159274Y-118586504D01*
X168159615Y-118586725D01*
X168160032Y-118587008D01*
X168160049Y-118587019D01*
X168186943Y-118605269D01*
X168187615Y-118605725D01*
X168188139Y-118606106D01*
X168215139Y-118627106D01*
X168215459Y-118627366D01*
X168215848Y-118627695D01*
X168215886Y-118627726D01*
X168241052Y-118649021D01*
X168241069Y-118649036D01*
X168241459Y-118649366D01*
X168241771Y-118649641D01*
X168266771Y-118672641D01*
X168267359Y-118673229D01*
X168290359Y-118698229D01*
X168290634Y-118698541D01*
X168290966Y-118698934D01*
X168290978Y-118698947D01*
X168312273Y-118724113D01*
X168312299Y-118724145D01*
X168312634Y-118724541D01*
X168312894Y-118724861D01*
X168333894Y-118751861D01*
X168334275Y-118752385D01*
X168353275Y-118780385D01*
X168353496Y-118780726D01*
X168371496Y-118809726D01*
X168371824Y-118810294D01*
X168387824Y-118840294D01*
X168388002Y-118840644D01*
X168403002Y-118871644D01*
X168403222Y-118872133D01*
X168416222Y-118903133D01*
X168416457Y-118903749D01*
X168427457Y-118935749D01*
X168427570Y-118936100D01*
X168437570Y-118969100D01*
X168437719Y-118969644D01*
X168445719Y-119002644D01*
X168445839Y-119003211D01*
X168451839Y-119036211D01*
X168451932Y-119036832D01*
X168455932Y-119070832D01*
X168455961Y-119071121D01*
X168458961Y-119105121D01*
X168458996Y-119105706D01*
X168459996Y-119139706D01*
X168459996Y-119140294D01*
X168458996Y-119174294D01*
X168458961Y-119174879D01*
X168455961Y-119208879D01*
X168455932Y-119209168D01*
X168451932Y-119243168D01*
X168451839Y-119243789D01*
X168445839Y-119276789D01*
X168445719Y-119277356D01*
X168437719Y-119310356D01*
X168437570Y-119310900D01*
X168427570Y-119343900D01*
X168427457Y-119344251D01*
X168416457Y-119376251D01*
X168416222Y-119376867D01*
X168403222Y-119407867D01*
X168403002Y-119408356D01*
X168388002Y-119439356D01*
X168387824Y-119439706D01*
X168371824Y-119469706D01*
X168371496Y-119470274D01*
X168353496Y-119499274D01*
X168353275Y-119499615D01*
X168334275Y-119527615D01*
X168333894Y-119528139D01*
X168312894Y-119555139D01*
X168312634Y-119555459D01*
X168290634Y-119581459D01*
X168290359Y-119581771D01*
X168267359Y-119606771D01*
X168266771Y-119607359D01*
X168241771Y-119630359D01*
X168241459Y-119630634D01*
X168215459Y-119652634D01*
X168215139Y-119652894D01*
X168188139Y-119673894D01*
X168187615Y-119674275D01*
X168159615Y-119693275D01*
X168159274Y-119693496D01*
X168130274Y-119711496D01*
X168129706Y-119711824D01*
X168099706Y-119727824D01*
X168099356Y-119728002D01*
X168068356Y-119743002D01*
X168067867Y-119743222D01*
X168036867Y-119756222D01*
X168036251Y-119756457D01*
X168004251Y-119767457D01*
X168003900Y-119767570D01*
X167970900Y-119777570D01*
X167970356Y-119777719D01*
X167937356Y-119785719D01*
X167936789Y-119785839D01*
X167903789Y-119791839D01*
X167903168Y-119791932D01*
X167869168Y-119795932D01*
X167868879Y-119795961D01*
X167868521Y-119795992D01*
X167868517Y-119795993D01*
X167835650Y-119798893D01*
X167834879Y-119798961D01*
X167834294Y-119798996D01*
X167800294Y-119799996D01*
X167800000Y-119800000D01*
X167799605Y-119800000D01*
X167200395Y-119800000D01*
X167200000Y-119800000D01*
X167199706Y-119799996D01*
X167165706Y-119798996D01*
X167165121Y-119798961D01*
X167164353Y-119798893D01*
X167164349Y-119798893D01*
X167131482Y-119795993D01*
X167131471Y-119795991D01*
X167131121Y-119795961D01*
X167130832Y-119795932D01*
X167096832Y-119791932D01*
X167096211Y-119791839D01*
X167063211Y-119785839D01*
X167062644Y-119785719D01*
X167029644Y-119777719D01*
X167029100Y-119777570D01*
X166996100Y-119767570D01*
X166995749Y-119767457D01*
X166963749Y-119756457D01*
X166963133Y-119756222D01*
X166932133Y-119743222D01*
X166931644Y-119743002D01*
X166900644Y-119728002D01*
X166900294Y-119727824D01*
X166870294Y-119711824D01*
X166869726Y-119711496D01*
X166840726Y-119693496D01*
X166840385Y-119693275D01*
X166812385Y-119674275D01*
X166811861Y-119673894D01*
X166784861Y-119652894D01*
X166784541Y-119652634D01*
X166784145Y-119652299D01*
X166784113Y-119652273D01*
X166758947Y-119630978D01*
X166758934Y-119630966D01*
X166758541Y-119630634D01*
X166758229Y-119630359D01*
X166733229Y-119607359D01*
X166732641Y-119606771D01*
X166709641Y-119581771D01*
X166709366Y-119581459D01*
X166709036Y-119581069D01*
X166709021Y-119581052D01*
X166687726Y-119555886D01*
X166687695Y-119555848D01*
X166687366Y-119555459D01*
X166687106Y-119555139D01*
X166666106Y-119528139D01*
X166665725Y-119527615D01*
X166646725Y-119499615D01*
X166646504Y-119499274D01*
X166628504Y-119470274D01*
X166628176Y-119469706D01*
X166612176Y-119439706D01*
X166611998Y-119439356D01*
X166596998Y-119408356D01*
X166596778Y-119407867D01*
X166583778Y-119376867D01*
X166583543Y-119376251D01*
X166572543Y-119344251D01*
X166572430Y-119343900D01*
X166562430Y-119310900D01*
X166562281Y-119310356D01*
X166554281Y-119277356D01*
X166554161Y-119276789D01*
X166548161Y-119243789D01*
X166548068Y-119243168D01*
X166547972Y-119242354D01*
X166544108Y-119209513D01*
X166544104Y-119209474D01*
X166544068Y-119209168D01*
X166544039Y-119208879D01*
X166544013Y-119208591D01*
X166544006Y-119208517D01*
X166541106Y-119175650D01*
X166541103Y-119175614D01*
X166541039Y-119174879D01*
X166541004Y-119174294D01*
X166540982Y-119173549D01*
X166540981Y-119173531D01*
X166540026Y-119141042D01*
X166540004Y-119140294D01*
X166540004Y-119139706D01*
X166540225Y-119132191D01*
X166540981Y-119106468D01*
X166540982Y-119106448D01*
X166541004Y-119105706D01*
X166541039Y-119105121D01*
X166541103Y-119104387D01*
X166541106Y-119104349D01*
X166544006Y-119071482D01*
X166544014Y-119071401D01*
X166544039Y-119071121D01*
X166544068Y-119070832D01*
X166544103Y-119070532D01*
X166544108Y-119070486D01*
X166547972Y-119037645D01*
X166547973Y-119037634D01*
X166548068Y-119036832D01*
X166548161Y-119036211D01*
X166554161Y-119003211D01*
X166554281Y-119002644D01*
X166554448Y-119001951D01*
X166554453Y-119001932D01*
X166562107Y-118970359D01*
X166562113Y-118970336D01*
X166562281Y-118969644D01*
X166562430Y-118969100D01*
X166562632Y-118968430D01*
X166562639Y-118968408D01*
X166572290Y-118936561D01*
X166572294Y-118936545D01*
X166572430Y-118936100D01*
X166572543Y-118935749D01*
X166572694Y-118935308D01*
X166572702Y-118935285D01*
X166583272Y-118904536D01*
X166583276Y-118904523D01*
X166583543Y-118903749D01*
X166583778Y-118903133D01*
X166596778Y-118872133D01*
X166596998Y-118871644D01*
X166597279Y-118871061D01*
X166597290Y-118871039D01*
X166611766Y-118841122D01*
X166611780Y-118841093D01*
X166611998Y-118840644D01*
X166612176Y-118840294D01*
X166628176Y-118810294D01*
X166628504Y-118809726D01*
X166646504Y-118780726D01*
X166646725Y-118780385D01*
X166646993Y-118779989D01*
X166647019Y-118779950D01*
X166665269Y-118753056D01*
X166665279Y-118753041D01*
X166665725Y-118752385D01*
X166666106Y-118751861D01*
X166666593Y-118751234D01*
X166666606Y-118751217D01*
X166686774Y-118725287D01*
X166686790Y-118725266D01*
X166687106Y-118724861D01*
X166687366Y-118724541D01*
X166687676Y-118724174D01*
X166687726Y-118724113D01*
X166709021Y-118698947D01*
X166709056Y-118698906D01*
X166709366Y-118698541D01*
X166709641Y-118698229D01*
X166732641Y-118673229D01*
X166733229Y-118672641D01*
X166733992Y-118671939D01*
X166757870Y-118649971D01*
X166757877Y-118649964D01*
X166758229Y-118649641D01*
X166758541Y-118649366D01*
X166758906Y-118649056D01*
X166758947Y-118649021D01*
X166784113Y-118627726D01*
X166784174Y-118627676D01*
X166784541Y-118627366D01*
X166784861Y-118627106D01*
X166785266Y-118626790D01*
X166785287Y-118626774D01*
X166811217Y-118606606D01*
X166811234Y-118606593D01*
X166811861Y-118606106D01*
X166812385Y-118605725D01*
X166813041Y-118605279D01*
X166813056Y-118605269D01*
X166839950Y-118587019D01*
X166839989Y-118586993D01*
X166840385Y-118586725D01*
X166840726Y-118586504D01*
X166869726Y-118568504D01*
X166870294Y-118568176D01*
X166900294Y-118552176D01*
X166900644Y-118551998D01*
X166901093Y-118551780D01*
X166901122Y-118551766D01*
X166931039Y-118537290D01*
X166931061Y-118537279D01*
X166931644Y-118536998D01*
X166932133Y-118536778D01*
X166963133Y-118523778D01*
X166963749Y-118523543D01*
X166964523Y-118523276D01*
X166964536Y-118523272D01*
X166995285Y-118512702D01*
X166995308Y-118512694D01*
X166995749Y-118512543D01*
X166996100Y-118512430D01*
X166996545Y-118512294D01*
X166996561Y-118512290D01*
X167028408Y-118502639D01*
X167028430Y-118502632D01*
X167029100Y-118502430D01*
X167029644Y-118502281D01*
X167030336Y-118502113D01*
X167030359Y-118502107D01*
X167061932Y-118494453D01*
X167061951Y-118494448D01*
X167062644Y-118494281D01*
X167063211Y-118494161D01*
X167096211Y-118488161D01*
X167096832Y-118488068D01*
X167097634Y-118487973D01*
X167097645Y-118487972D01*
X167130486Y-118484108D01*
X167130532Y-118484103D01*
X167130832Y-118484068D01*
X167131121Y-118484039D01*
X167131401Y-118484014D01*
X167131482Y-118484006D01*
X167164349Y-118481106D01*
X167164387Y-118481103D01*
X167165121Y-118481039D01*
X167165706Y-118481004D01*
X167166448Y-118480982D01*
X167166468Y-118480981D01*
X167199300Y-118480015D01*
X167199359Y-118480014D01*
X167199706Y-118480004D01*
X167200000Y-118480000D01*
X167800000Y-118480000D01*
X167800294Y-118480004D01*
G37*
G36*
X21042574Y-117803118D02*
G01*
X21084617Y-117803118D01*
X21120019Y-117811844D01*
X21156141Y-117815914D01*
X21202869Y-117832265D01*
X21248933Y-117843619D01*
X21276172Y-117857915D01*
X21304444Y-117867808D01*
X21352223Y-117897829D01*
X21398781Y-117922265D01*
X21417489Y-117938839D01*
X21437491Y-117951407D01*
X21482651Y-117996567D01*
X21525455Y-118034488D01*
X21536336Y-118050252D01*
X21548592Y-118062508D01*
X21587123Y-118123830D01*
X21621590Y-118173764D01*
X21626296Y-118186173D01*
X21632191Y-118195555D01*
X21660068Y-118275223D01*
X21681601Y-118332000D01*
X21682485Y-118339288D01*
X21684085Y-118343858D01*
X21697531Y-118463198D01*
X21702000Y-118500000D01*
X21697534Y-118536778D01*
X21684085Y-118656141D01*
X21682486Y-118660710D01*
X21681601Y-118668000D01*
X21660063Y-118724788D01*
X21632191Y-118804444D01*
X21626297Y-118813823D01*
X21621590Y-118826236D01*
X21587116Y-118876179D01*
X21548592Y-118937491D01*
X21536338Y-118949744D01*
X21525455Y-118965512D01*
X21482643Y-119003439D01*
X21437491Y-119048592D01*
X21417493Y-119061157D01*
X21398781Y-119077735D01*
X21352213Y-119102175D01*
X21304444Y-119132191D01*
X21276177Y-119142081D01*
X21248933Y-119156381D01*
X21202859Y-119167737D01*
X21156141Y-119184085D01*
X21120026Y-119188154D01*
X21084617Y-119196882D01*
X21042565Y-119196882D01*
X21000000Y-119201678D01*
X20957434Y-119196882D01*
X20915383Y-119196882D01*
X20879973Y-119188154D01*
X20843858Y-119184085D01*
X20797136Y-119167736D01*
X20751067Y-119156381D01*
X20723824Y-119142082D01*
X20695555Y-119132191D01*
X20647780Y-119102172D01*
X20601219Y-119077735D01*
X20582509Y-119061159D01*
X20562508Y-119048592D01*
X20517348Y-119003432D01*
X20474545Y-118965512D01*
X20463663Y-118949747D01*
X20451407Y-118937491D01*
X20412872Y-118876163D01*
X20378410Y-118826236D01*
X20373704Y-118813827D01*
X20367808Y-118804444D01*
X20339923Y-118724754D01*
X20318399Y-118668000D01*
X20317514Y-118660714D01*
X20315914Y-118656141D01*
X20302455Y-118536690D01*
X20298000Y-118500000D01*
X20302454Y-118463312D01*
X20315914Y-118343858D01*
X20317514Y-118339283D01*
X20318399Y-118332000D01*
X20339918Y-118275257D01*
X20367808Y-118195555D01*
X20373705Y-118186169D01*
X20378410Y-118173764D01*
X20412865Y-118123846D01*
X20451407Y-118062508D01*
X20463665Y-118050249D01*
X20474545Y-118034488D01*
X20517339Y-117996575D01*
X20562508Y-117951407D01*
X20582512Y-117938837D01*
X20601219Y-117922265D01*
X20647770Y-117897832D01*
X20695555Y-117867808D01*
X20723829Y-117857914D01*
X20751067Y-117843619D01*
X20797127Y-117832265D01*
X20843858Y-117815914D01*
X20879981Y-117811843D01*
X20915383Y-117803118D01*
X20957426Y-117803118D01*
X21000000Y-117798321D01*
X21042574Y-117803118D01*
G37*
G36*
X21042574Y-115803118D02*
G01*
X21084617Y-115803118D01*
X21120019Y-115811844D01*
X21156141Y-115815914D01*
X21202869Y-115832265D01*
X21248933Y-115843619D01*
X21276172Y-115857915D01*
X21304444Y-115867808D01*
X21352223Y-115897829D01*
X21398781Y-115922265D01*
X21417489Y-115938839D01*
X21437491Y-115951407D01*
X21482651Y-115996567D01*
X21525455Y-116034488D01*
X21536336Y-116050252D01*
X21548592Y-116062508D01*
X21587123Y-116123830D01*
X21621590Y-116173764D01*
X21626296Y-116186173D01*
X21632191Y-116195555D01*
X21660068Y-116275223D01*
X21681601Y-116332000D01*
X21682485Y-116339288D01*
X21684085Y-116343858D01*
X21697531Y-116463198D01*
X21702000Y-116500000D01*
X21697531Y-116536804D01*
X21684085Y-116656141D01*
X21682486Y-116660710D01*
X21681601Y-116668000D01*
X21660063Y-116724788D01*
X21632191Y-116804444D01*
X21626297Y-116813823D01*
X21621590Y-116826236D01*
X21587116Y-116876179D01*
X21548592Y-116937491D01*
X21536338Y-116949744D01*
X21525455Y-116965512D01*
X21482643Y-117003439D01*
X21437491Y-117048592D01*
X21417493Y-117061157D01*
X21398781Y-117077735D01*
X21352213Y-117102175D01*
X21304444Y-117132191D01*
X21276177Y-117142081D01*
X21248933Y-117156381D01*
X21202859Y-117167737D01*
X21156141Y-117184085D01*
X21120026Y-117188154D01*
X21084617Y-117196882D01*
X21042565Y-117196882D01*
X21000000Y-117201678D01*
X20957434Y-117196882D01*
X20915383Y-117196882D01*
X20879973Y-117188154D01*
X20843858Y-117184085D01*
X20797136Y-117167736D01*
X20751067Y-117156381D01*
X20723824Y-117142082D01*
X20695555Y-117132191D01*
X20647780Y-117102172D01*
X20601219Y-117077735D01*
X20582509Y-117061159D01*
X20562508Y-117048592D01*
X20517348Y-117003432D01*
X20474545Y-116965512D01*
X20463663Y-116949747D01*
X20451407Y-116937491D01*
X20412872Y-116876163D01*
X20378410Y-116826236D01*
X20373704Y-116813827D01*
X20367808Y-116804444D01*
X20339923Y-116724754D01*
X20318399Y-116668000D01*
X20317514Y-116660714D01*
X20315914Y-116656141D01*
X20302455Y-116536690D01*
X20298000Y-116500000D01*
X20302454Y-116463312D01*
X20315914Y-116343858D01*
X20317514Y-116339283D01*
X20318399Y-116332000D01*
X20339918Y-116275257D01*
X20367808Y-116195555D01*
X20373705Y-116186169D01*
X20378410Y-116173764D01*
X20412865Y-116123846D01*
X20451407Y-116062508D01*
X20463665Y-116050249D01*
X20474545Y-116034488D01*
X20517339Y-115996575D01*
X20562508Y-115951407D01*
X20582512Y-115938837D01*
X20601219Y-115922265D01*
X20647770Y-115897832D01*
X20695555Y-115867808D01*
X20723829Y-115857914D01*
X20751067Y-115843619D01*
X20797127Y-115832265D01*
X20843858Y-115815914D01*
X20879981Y-115811843D01*
X20915383Y-115803118D01*
X20957426Y-115803118D01*
X21000000Y-115798321D01*
X21042574Y-115803118D01*
G37*
G36*
X164000294Y-109840004D02*
G01*
X164000640Y-109840014D01*
X164000699Y-109840015D01*
X164033531Y-109840981D01*
X164033549Y-109840982D01*
X164034294Y-109841004D01*
X164034879Y-109841039D01*
X164035614Y-109841103D01*
X164035650Y-109841106D01*
X164068517Y-109844006D01*
X164068591Y-109844013D01*
X164068879Y-109844039D01*
X164069168Y-109844068D01*
X164069474Y-109844104D01*
X164069513Y-109844108D01*
X164102354Y-109847972D01*
X164102361Y-109847973D01*
X164103168Y-109848068D01*
X164103789Y-109848161D01*
X164136789Y-109854161D01*
X164137356Y-109854281D01*
X164138055Y-109854450D01*
X164138067Y-109854453D01*
X164169640Y-109862107D01*
X164169654Y-109862110D01*
X164170356Y-109862281D01*
X164170900Y-109862430D01*
X164171578Y-109862635D01*
X164171591Y-109862639D01*
X164203438Y-109872290D01*
X164203900Y-109872430D01*
X164204251Y-109872543D01*
X164236251Y-109883543D01*
X164236867Y-109883778D01*
X164267867Y-109896778D01*
X164268356Y-109896998D01*
X164268952Y-109897286D01*
X164268960Y-109897290D01*
X164298877Y-109911766D01*
X164299356Y-109911998D01*
X164299706Y-109912176D01*
X164329706Y-109928176D01*
X164330274Y-109928504D01*
X164359274Y-109946504D01*
X164359615Y-109946725D01*
X164360032Y-109947008D01*
X164360049Y-109947019D01*
X164386943Y-109965269D01*
X164387615Y-109965725D01*
X164388139Y-109966106D01*
X164415139Y-109987106D01*
X164415459Y-109987366D01*
X164415848Y-109987695D01*
X164415886Y-109987726D01*
X164441052Y-110009021D01*
X164441069Y-110009036D01*
X164441459Y-110009366D01*
X164441771Y-110009641D01*
X164466771Y-110032641D01*
X164467359Y-110033229D01*
X164490359Y-110058229D01*
X164490634Y-110058541D01*
X164490966Y-110058934D01*
X164490978Y-110058947D01*
X164512273Y-110084113D01*
X164512299Y-110084145D01*
X164512634Y-110084541D01*
X164512894Y-110084861D01*
X164533894Y-110111861D01*
X164534275Y-110112385D01*
X164553275Y-110140385D01*
X164553496Y-110140726D01*
X164571496Y-110169726D01*
X164571824Y-110170294D01*
X164587824Y-110200294D01*
X164588002Y-110200644D01*
X164603002Y-110231644D01*
X164603222Y-110232133D01*
X164616222Y-110263133D01*
X164616457Y-110263749D01*
X164627457Y-110295749D01*
X164627570Y-110296100D01*
X164637570Y-110329100D01*
X164637719Y-110329644D01*
X164645719Y-110362644D01*
X164645839Y-110363211D01*
X164651839Y-110396211D01*
X164651932Y-110396832D01*
X164655932Y-110430832D01*
X164655961Y-110431121D01*
X164658961Y-110465121D01*
X164658996Y-110465706D01*
X164659996Y-110499706D01*
X164659996Y-110500294D01*
X164658996Y-110534294D01*
X164658961Y-110534879D01*
X164655961Y-110568879D01*
X164655932Y-110569168D01*
X164651932Y-110603168D01*
X164651839Y-110603789D01*
X164645839Y-110636789D01*
X164645719Y-110637356D01*
X164637719Y-110670356D01*
X164637570Y-110670900D01*
X164627570Y-110703900D01*
X164627457Y-110704251D01*
X164616457Y-110736251D01*
X164616222Y-110736867D01*
X164603222Y-110767867D01*
X164603002Y-110768356D01*
X164588002Y-110799356D01*
X164587824Y-110799706D01*
X164571824Y-110829706D01*
X164571496Y-110830274D01*
X164553496Y-110859274D01*
X164553275Y-110859615D01*
X164534275Y-110887615D01*
X164533894Y-110888139D01*
X164512894Y-110915139D01*
X164512634Y-110915459D01*
X164490634Y-110941459D01*
X164490359Y-110941771D01*
X164467359Y-110966771D01*
X164466771Y-110967359D01*
X164441771Y-110990359D01*
X164441459Y-110990634D01*
X164415459Y-111012634D01*
X164415139Y-111012894D01*
X164388139Y-111033894D01*
X164387615Y-111034275D01*
X164359615Y-111053275D01*
X164359274Y-111053496D01*
X164330274Y-111071496D01*
X164329706Y-111071824D01*
X164299706Y-111087824D01*
X164299356Y-111088002D01*
X164268356Y-111103002D01*
X164267867Y-111103222D01*
X164236867Y-111116222D01*
X164236251Y-111116457D01*
X164204251Y-111127457D01*
X164203900Y-111127570D01*
X164170900Y-111137570D01*
X164170356Y-111137719D01*
X164137356Y-111145719D01*
X164136789Y-111145839D01*
X164103789Y-111151839D01*
X164103168Y-111151932D01*
X164069168Y-111155932D01*
X164068879Y-111155961D01*
X164068521Y-111155992D01*
X164068517Y-111155993D01*
X164035650Y-111158893D01*
X164034879Y-111158961D01*
X164034294Y-111158996D01*
X164000294Y-111159996D01*
X164000000Y-111160000D01*
X163999605Y-111160000D01*
X163400395Y-111160000D01*
X163400000Y-111160000D01*
X163399706Y-111159996D01*
X163365706Y-111158996D01*
X163365121Y-111158961D01*
X163364353Y-111158893D01*
X163364349Y-111158893D01*
X163331482Y-111155993D01*
X163331471Y-111155991D01*
X163331121Y-111155961D01*
X163330832Y-111155932D01*
X163296832Y-111151932D01*
X163296211Y-111151839D01*
X163263211Y-111145839D01*
X163262644Y-111145719D01*
X163229644Y-111137719D01*
X163229100Y-111137570D01*
X163196100Y-111127570D01*
X163195749Y-111127457D01*
X163163749Y-111116457D01*
X163163133Y-111116222D01*
X163132133Y-111103222D01*
X163131644Y-111103002D01*
X163100644Y-111088002D01*
X163100294Y-111087824D01*
X163070294Y-111071824D01*
X163069726Y-111071496D01*
X163040726Y-111053496D01*
X163040385Y-111053275D01*
X163012385Y-111034275D01*
X163011861Y-111033894D01*
X162984861Y-111012894D01*
X162984541Y-111012634D01*
X162984145Y-111012299D01*
X162984113Y-111012273D01*
X162958947Y-110990978D01*
X162958934Y-110990966D01*
X162958541Y-110990634D01*
X162958229Y-110990359D01*
X162933229Y-110967359D01*
X162932641Y-110966771D01*
X162909641Y-110941771D01*
X162909366Y-110941459D01*
X162909036Y-110941069D01*
X162909021Y-110941052D01*
X162887726Y-110915886D01*
X162887695Y-110915848D01*
X162887366Y-110915459D01*
X162887106Y-110915139D01*
X162866106Y-110888139D01*
X162865725Y-110887615D01*
X162846725Y-110859615D01*
X162846504Y-110859274D01*
X162828504Y-110830274D01*
X162828176Y-110829706D01*
X162812176Y-110799706D01*
X162811998Y-110799356D01*
X162796998Y-110768356D01*
X162796778Y-110767867D01*
X162783778Y-110736867D01*
X162783543Y-110736251D01*
X162772543Y-110704251D01*
X162772430Y-110703900D01*
X162762430Y-110670900D01*
X162762281Y-110670356D01*
X162754281Y-110637356D01*
X162754161Y-110636789D01*
X162748161Y-110603789D01*
X162748068Y-110603168D01*
X162747972Y-110602354D01*
X162744108Y-110569513D01*
X162744104Y-110569474D01*
X162744068Y-110569168D01*
X162744039Y-110568879D01*
X162744013Y-110568591D01*
X162744006Y-110568517D01*
X162741106Y-110535650D01*
X162741103Y-110535614D01*
X162741039Y-110534879D01*
X162741004Y-110534294D01*
X162740982Y-110533549D01*
X162740981Y-110533531D01*
X162740026Y-110501042D01*
X162740004Y-110500294D01*
X162740004Y-110499706D01*
X162740026Y-110498958D01*
X162740981Y-110466468D01*
X162740982Y-110466448D01*
X162741004Y-110465706D01*
X162741039Y-110465121D01*
X162741103Y-110464387D01*
X162741106Y-110464349D01*
X162744006Y-110431482D01*
X162744014Y-110431401D01*
X162744039Y-110431121D01*
X162744068Y-110430832D01*
X162744103Y-110430532D01*
X162744108Y-110430486D01*
X162747972Y-110397645D01*
X162747973Y-110397634D01*
X162748068Y-110396832D01*
X162748161Y-110396211D01*
X162754161Y-110363211D01*
X162754281Y-110362644D01*
X162754448Y-110361951D01*
X162754453Y-110361932D01*
X162762107Y-110330359D01*
X162762113Y-110330336D01*
X162762281Y-110329644D01*
X162762430Y-110329100D01*
X162762632Y-110328430D01*
X162762639Y-110328408D01*
X162772290Y-110296561D01*
X162772294Y-110296545D01*
X162772430Y-110296100D01*
X162772543Y-110295749D01*
X162772694Y-110295308D01*
X162772702Y-110295285D01*
X162783272Y-110264536D01*
X162783276Y-110264523D01*
X162783543Y-110263749D01*
X162783778Y-110263133D01*
X162796778Y-110232133D01*
X162796998Y-110231644D01*
X162797279Y-110231061D01*
X162797290Y-110231039D01*
X162811766Y-110201122D01*
X162811780Y-110201093D01*
X162811998Y-110200644D01*
X162812176Y-110200294D01*
X162828176Y-110170294D01*
X162828504Y-110169726D01*
X162846504Y-110140726D01*
X162846725Y-110140385D01*
X162846993Y-110139989D01*
X162847019Y-110139950D01*
X162865269Y-110113056D01*
X162865279Y-110113041D01*
X162865725Y-110112385D01*
X162866106Y-110111861D01*
X162866593Y-110111234D01*
X162866606Y-110111217D01*
X162886774Y-110085287D01*
X162886790Y-110085266D01*
X162887106Y-110084861D01*
X162887366Y-110084541D01*
X162887676Y-110084174D01*
X162887726Y-110084113D01*
X162909021Y-110058947D01*
X162909056Y-110058906D01*
X162909366Y-110058541D01*
X162909641Y-110058229D01*
X162932641Y-110033229D01*
X162933229Y-110032641D01*
X162958229Y-110009641D01*
X162958541Y-110009366D01*
X162958906Y-110009056D01*
X162958947Y-110009021D01*
X162984113Y-109987726D01*
X162984174Y-109987676D01*
X162984541Y-109987366D01*
X162984861Y-109987106D01*
X162985266Y-109986790D01*
X162985287Y-109986774D01*
X163011217Y-109966606D01*
X163011234Y-109966593D01*
X163011861Y-109966106D01*
X163012385Y-109965725D01*
X163013041Y-109965279D01*
X163013056Y-109965269D01*
X163039950Y-109947019D01*
X163039989Y-109946993D01*
X163040385Y-109946725D01*
X163040726Y-109946504D01*
X163069726Y-109928504D01*
X163070294Y-109928176D01*
X163100294Y-109912176D01*
X163100644Y-109911998D01*
X163101093Y-109911780D01*
X163101122Y-109911766D01*
X163131039Y-109897290D01*
X163131061Y-109897279D01*
X163131644Y-109896998D01*
X163132133Y-109896778D01*
X163163133Y-109883778D01*
X163163749Y-109883543D01*
X163164523Y-109883276D01*
X163164536Y-109883272D01*
X163195285Y-109872702D01*
X163195308Y-109872694D01*
X163195749Y-109872543D01*
X163196100Y-109872430D01*
X163196545Y-109872294D01*
X163196561Y-109872290D01*
X163228408Y-109862639D01*
X163228430Y-109862632D01*
X163229100Y-109862430D01*
X163229644Y-109862281D01*
X163230336Y-109862113D01*
X163230359Y-109862107D01*
X163261932Y-109854453D01*
X163261951Y-109854448D01*
X163262644Y-109854281D01*
X163263211Y-109854161D01*
X163296211Y-109848161D01*
X163296832Y-109848068D01*
X163297634Y-109847973D01*
X163297645Y-109847972D01*
X163330486Y-109844108D01*
X163330532Y-109844103D01*
X163330832Y-109844068D01*
X163331121Y-109844039D01*
X163331401Y-109844014D01*
X163331482Y-109844006D01*
X163364349Y-109841106D01*
X163364387Y-109841103D01*
X163365121Y-109841039D01*
X163365706Y-109841004D01*
X163366448Y-109840982D01*
X163366468Y-109840981D01*
X163399300Y-109840015D01*
X163399359Y-109840014D01*
X163399706Y-109840004D01*
X163400000Y-109840000D01*
X164000000Y-109840000D01*
X164000294Y-109840004D01*
G37*
G36*
X167800294Y-109840004D02*
G01*
X167800640Y-109840014D01*
X167800699Y-109840015D01*
X167833531Y-109840981D01*
X167833549Y-109840982D01*
X167834294Y-109841004D01*
X167834879Y-109841039D01*
X167835614Y-109841103D01*
X167835650Y-109841106D01*
X167868517Y-109844006D01*
X167868591Y-109844013D01*
X167868879Y-109844039D01*
X167869168Y-109844068D01*
X167869474Y-109844104D01*
X167869513Y-109844108D01*
X167902354Y-109847972D01*
X167902361Y-109847973D01*
X167903168Y-109848068D01*
X167903789Y-109848161D01*
X167936789Y-109854161D01*
X167937356Y-109854281D01*
X167938055Y-109854450D01*
X167938067Y-109854453D01*
X167969640Y-109862107D01*
X167969654Y-109862110D01*
X167970356Y-109862281D01*
X167970900Y-109862430D01*
X167971578Y-109862635D01*
X167971591Y-109862639D01*
X168003438Y-109872290D01*
X168003900Y-109872430D01*
X168004251Y-109872543D01*
X168036251Y-109883543D01*
X168036867Y-109883778D01*
X168067867Y-109896778D01*
X168068356Y-109896998D01*
X168068952Y-109897286D01*
X168068960Y-109897290D01*
X168098877Y-109911766D01*
X168099356Y-109911998D01*
X168099706Y-109912176D01*
X168129706Y-109928176D01*
X168130274Y-109928504D01*
X168159274Y-109946504D01*
X168159615Y-109946725D01*
X168160032Y-109947008D01*
X168160049Y-109947019D01*
X168186943Y-109965269D01*
X168187615Y-109965725D01*
X168188139Y-109966106D01*
X168215139Y-109987106D01*
X168215459Y-109987366D01*
X168215848Y-109987695D01*
X168215886Y-109987726D01*
X168241052Y-110009021D01*
X168241069Y-110009036D01*
X168241459Y-110009366D01*
X168241771Y-110009641D01*
X168266771Y-110032641D01*
X168267359Y-110033229D01*
X168290359Y-110058229D01*
X168290634Y-110058541D01*
X168290966Y-110058934D01*
X168290978Y-110058947D01*
X168312273Y-110084113D01*
X168312299Y-110084145D01*
X168312634Y-110084541D01*
X168312894Y-110084861D01*
X168333894Y-110111861D01*
X168334275Y-110112385D01*
X168353275Y-110140385D01*
X168353496Y-110140726D01*
X168371496Y-110169726D01*
X168371824Y-110170294D01*
X168387824Y-110200294D01*
X168388002Y-110200644D01*
X168403002Y-110231644D01*
X168403222Y-110232133D01*
X168416222Y-110263133D01*
X168416457Y-110263749D01*
X168427457Y-110295749D01*
X168427570Y-110296100D01*
X168437570Y-110329100D01*
X168437719Y-110329644D01*
X168445719Y-110362644D01*
X168445839Y-110363211D01*
X168451839Y-110396211D01*
X168451932Y-110396832D01*
X168455932Y-110430832D01*
X168455961Y-110431121D01*
X168458961Y-110465121D01*
X168458996Y-110465706D01*
X168459996Y-110499706D01*
X168459996Y-110500294D01*
X168458996Y-110534294D01*
X168458961Y-110534879D01*
X168455961Y-110568879D01*
X168455932Y-110569168D01*
X168451932Y-110603168D01*
X168451839Y-110603789D01*
X168445839Y-110636789D01*
X168445719Y-110637356D01*
X168437719Y-110670356D01*
X168437570Y-110670900D01*
X168427570Y-110703900D01*
X168427457Y-110704251D01*
X168416457Y-110736251D01*
X168416222Y-110736867D01*
X168403222Y-110767867D01*
X168403002Y-110768356D01*
X168388002Y-110799356D01*
X168387824Y-110799706D01*
X168371824Y-110829706D01*
X168371496Y-110830274D01*
X168353496Y-110859274D01*
X168353275Y-110859615D01*
X168334275Y-110887615D01*
X168333894Y-110888139D01*
X168312894Y-110915139D01*
X168312634Y-110915459D01*
X168290634Y-110941459D01*
X168290359Y-110941771D01*
X168267359Y-110966771D01*
X168266771Y-110967359D01*
X168241771Y-110990359D01*
X168241459Y-110990634D01*
X168215459Y-111012634D01*
X168215139Y-111012894D01*
X168188139Y-111033894D01*
X168187615Y-111034275D01*
X168159615Y-111053275D01*
X168159274Y-111053496D01*
X168130274Y-111071496D01*
X168129706Y-111071824D01*
X168099706Y-111087824D01*
X168099356Y-111088002D01*
X168068356Y-111103002D01*
X168067867Y-111103222D01*
X168036867Y-111116222D01*
X168036251Y-111116457D01*
X168004251Y-111127457D01*
X168003900Y-111127570D01*
X167970900Y-111137570D01*
X167970356Y-111137719D01*
X167937356Y-111145719D01*
X167936789Y-111145839D01*
X167903789Y-111151839D01*
X167903168Y-111151932D01*
X167869168Y-111155932D01*
X167868879Y-111155961D01*
X167868521Y-111155992D01*
X167868517Y-111155993D01*
X167835650Y-111158893D01*
X167834879Y-111158961D01*
X167834294Y-111158996D01*
X167800294Y-111159996D01*
X167800000Y-111160000D01*
X167799605Y-111160000D01*
X167200395Y-111160000D01*
X167200000Y-111160000D01*
X167199706Y-111159996D01*
X167165706Y-111158996D01*
X167165121Y-111158961D01*
X167164353Y-111158893D01*
X167164349Y-111158893D01*
X167131482Y-111155993D01*
X167131471Y-111155991D01*
X167131121Y-111155961D01*
X167130832Y-111155932D01*
X167096832Y-111151932D01*
X167096211Y-111151839D01*
X167063211Y-111145839D01*
X167062644Y-111145719D01*
X167029644Y-111137719D01*
X167029100Y-111137570D01*
X166996100Y-111127570D01*
X166995749Y-111127457D01*
X166963749Y-111116457D01*
X166963133Y-111116222D01*
X166932133Y-111103222D01*
X166931644Y-111103002D01*
X166900644Y-111088002D01*
X166900294Y-111087824D01*
X166870294Y-111071824D01*
X166869726Y-111071496D01*
X166840726Y-111053496D01*
X166840385Y-111053275D01*
X166812385Y-111034275D01*
X166811861Y-111033894D01*
X166784861Y-111012894D01*
X166784541Y-111012634D01*
X166784145Y-111012299D01*
X166784113Y-111012273D01*
X166758947Y-110990978D01*
X166758934Y-110990966D01*
X166758541Y-110990634D01*
X166758229Y-110990359D01*
X166733229Y-110967359D01*
X166732641Y-110966771D01*
X166709641Y-110941771D01*
X166709366Y-110941459D01*
X166709036Y-110941069D01*
X166709021Y-110941052D01*
X166687726Y-110915886D01*
X166687695Y-110915848D01*
X166687366Y-110915459D01*
X166687106Y-110915139D01*
X166666106Y-110888139D01*
X166665725Y-110887615D01*
X166646725Y-110859615D01*
X166646504Y-110859274D01*
X166628504Y-110830274D01*
X166628176Y-110829706D01*
X166612176Y-110799706D01*
X166611998Y-110799356D01*
X166596998Y-110768356D01*
X166596778Y-110767867D01*
X166583778Y-110736867D01*
X166583543Y-110736251D01*
X166572543Y-110704251D01*
X166572430Y-110703900D01*
X166562430Y-110670900D01*
X166562281Y-110670356D01*
X166554281Y-110637356D01*
X166554161Y-110636789D01*
X166548161Y-110603789D01*
X166548068Y-110603168D01*
X166547972Y-110602354D01*
X166544108Y-110569513D01*
X166544104Y-110569474D01*
X166544068Y-110569168D01*
X166544039Y-110568879D01*
X166544013Y-110568591D01*
X166544006Y-110568517D01*
X166541106Y-110535650D01*
X166541103Y-110535614D01*
X166541039Y-110534879D01*
X166541004Y-110534294D01*
X166540982Y-110533549D01*
X166540981Y-110533531D01*
X166540026Y-110501042D01*
X166540004Y-110500294D01*
X166540004Y-110499706D01*
X166540026Y-110498958D01*
X166540981Y-110466468D01*
X166540982Y-110466448D01*
X166541004Y-110465706D01*
X166541039Y-110465121D01*
X166541103Y-110464387D01*
X166541106Y-110464349D01*
X166544006Y-110431482D01*
X166544014Y-110431401D01*
X166544039Y-110431121D01*
X166544068Y-110430832D01*
X166544103Y-110430532D01*
X166544108Y-110430486D01*
X166547972Y-110397645D01*
X166547973Y-110397634D01*
X166548068Y-110396832D01*
X166548161Y-110396211D01*
X166554161Y-110363211D01*
X166554281Y-110362644D01*
X166554448Y-110361951D01*
X166554453Y-110361932D01*
X166562107Y-110330359D01*
X166562113Y-110330336D01*
X166562281Y-110329644D01*
X166562430Y-110329100D01*
X166562632Y-110328430D01*
X166562639Y-110328408D01*
X166572290Y-110296561D01*
X166572294Y-110296545D01*
X166572430Y-110296100D01*
X166572543Y-110295749D01*
X166572694Y-110295308D01*
X166572702Y-110295285D01*
X166583272Y-110264536D01*
X166583276Y-110264523D01*
X166583543Y-110263749D01*
X166583778Y-110263133D01*
X166596778Y-110232133D01*
X166596998Y-110231644D01*
X166597279Y-110231061D01*
X166597290Y-110231039D01*
X166611766Y-110201122D01*
X166611780Y-110201093D01*
X166611998Y-110200644D01*
X166612176Y-110200294D01*
X166628176Y-110170294D01*
X166628504Y-110169726D01*
X166646504Y-110140726D01*
X166646725Y-110140385D01*
X166646993Y-110139989D01*
X166647019Y-110139950D01*
X166665269Y-110113056D01*
X166665279Y-110113041D01*
X166665725Y-110112385D01*
X166666106Y-110111861D01*
X166666593Y-110111234D01*
X166666606Y-110111217D01*
X166686774Y-110085287D01*
X166686790Y-110085266D01*
X166687106Y-110084861D01*
X166687366Y-110084541D01*
X166687676Y-110084174D01*
X166687726Y-110084113D01*
X166709021Y-110058947D01*
X166709056Y-110058906D01*
X166709366Y-110058541D01*
X166709641Y-110058229D01*
X166732641Y-110033229D01*
X166733229Y-110032641D01*
X166758229Y-110009641D01*
X166758541Y-110009366D01*
X166758906Y-110009056D01*
X166758947Y-110009021D01*
X166784113Y-109987726D01*
X166784174Y-109987676D01*
X166784541Y-109987366D01*
X166784861Y-109987106D01*
X166785266Y-109986790D01*
X166785287Y-109986774D01*
X166811217Y-109966606D01*
X166811234Y-109966593D01*
X166811861Y-109966106D01*
X166812385Y-109965725D01*
X166813041Y-109965279D01*
X166813056Y-109965269D01*
X166839950Y-109947019D01*
X166839989Y-109946993D01*
X166840385Y-109946725D01*
X166840726Y-109946504D01*
X166869726Y-109928504D01*
X166870294Y-109928176D01*
X166900294Y-109912176D01*
X166900644Y-109911998D01*
X166901093Y-109911780D01*
X166901122Y-109911766D01*
X166931039Y-109897290D01*
X166931061Y-109897279D01*
X166931644Y-109896998D01*
X166932133Y-109896778D01*
X166963133Y-109883778D01*
X166963749Y-109883543D01*
X166964523Y-109883276D01*
X166964536Y-109883272D01*
X166995285Y-109872702D01*
X166995308Y-109872694D01*
X166995749Y-109872543D01*
X166996100Y-109872430D01*
X166996545Y-109872294D01*
X166996561Y-109872290D01*
X167028408Y-109862639D01*
X167028430Y-109862632D01*
X167029100Y-109862430D01*
X167029644Y-109862281D01*
X167030336Y-109862113D01*
X167030359Y-109862107D01*
X167061932Y-109854453D01*
X167061951Y-109854448D01*
X167062644Y-109854281D01*
X167063211Y-109854161D01*
X167096211Y-109848161D01*
X167096832Y-109848068D01*
X167097634Y-109847973D01*
X167097645Y-109847972D01*
X167130486Y-109844108D01*
X167130532Y-109844103D01*
X167130832Y-109844068D01*
X167131121Y-109844039D01*
X167131401Y-109844014D01*
X167131482Y-109844006D01*
X167164349Y-109841106D01*
X167164387Y-109841103D01*
X167165121Y-109841039D01*
X167165706Y-109841004D01*
X167166448Y-109840982D01*
X167166468Y-109840981D01*
X167199300Y-109840015D01*
X167199359Y-109840014D01*
X167199706Y-109840004D01*
X167200000Y-109840000D01*
X167800000Y-109840000D01*
X167800294Y-109840004D01*
G37*
G36*
X74350000Y-102850000D02*
G01*
X72650000Y-102850000D01*
X72650000Y-101150000D01*
X74350000Y-101150000D01*
X74350000Y-102850000D01*
G37*
G36*
X71222664Y-101191602D02*
G01*
X71385000Y-101263878D01*
X71528761Y-101368327D01*
X71647664Y-101500383D01*
X71736514Y-101654274D01*
X71791425Y-101823275D01*
X71810000Y-102000000D01*
X71791425Y-102176725D01*
X71736514Y-102345726D01*
X71647664Y-102499617D01*
X71528761Y-102631673D01*
X71385000Y-102736122D01*
X71222664Y-102808398D01*
X71048849Y-102845344D01*
X70871151Y-102845344D01*
X70697336Y-102808398D01*
X70535000Y-102736122D01*
X70391239Y-102631673D01*
X70272336Y-102499617D01*
X70183486Y-102345726D01*
X70128575Y-102176725D01*
X70110000Y-102000000D01*
X70128575Y-101823275D01*
X70183486Y-101654274D01*
X70272336Y-101500383D01*
X70391239Y-101368327D01*
X70535000Y-101263878D01*
X70697336Y-101191602D01*
X70871151Y-101154656D01*
X71048849Y-101154656D01*
X71222664Y-101191602D01*
G37*
G36*
X166129561Y-97357105D02*
G01*
X166290619Y-97413462D01*
X166435099Y-97504244D01*
X166555756Y-97624901D01*
X166646538Y-97769381D01*
X166702895Y-97930439D01*
X166722000Y-98100000D01*
X166702895Y-98269561D01*
X166646538Y-98430619D01*
X166555756Y-98575099D01*
X166435099Y-98695756D01*
X166290619Y-98786538D01*
X166129561Y-98842895D01*
X165960000Y-98862000D01*
X165790439Y-98842895D01*
X165629381Y-98786538D01*
X165484901Y-98695756D01*
X165364244Y-98575099D01*
X165273462Y-98430619D01*
X165217105Y-98269561D01*
X165198000Y-98100000D01*
X165217105Y-97930439D01*
X165273462Y-97769381D01*
X165364244Y-97624901D01*
X165484901Y-97504244D01*
X165629381Y-97413462D01*
X165790439Y-97357105D01*
X165960000Y-97338000D01*
X166129561Y-97357105D01*
G37*
G36*
X168669561Y-97357105D02*
G01*
X168830619Y-97413462D01*
X168975099Y-97504244D01*
X169095756Y-97624901D01*
X169186538Y-97769381D01*
X169242895Y-97930439D01*
X169262000Y-98100000D01*
X169242895Y-98269561D01*
X169186538Y-98430619D01*
X169095756Y-98575099D01*
X168975099Y-98695756D01*
X168830619Y-98786538D01*
X168669561Y-98842895D01*
X168500000Y-98862000D01*
X168330439Y-98842895D01*
X168169381Y-98786538D01*
X168024901Y-98695756D01*
X167904244Y-98575099D01*
X167813462Y-98430619D01*
X167757105Y-98269561D01*
X167738000Y-98100000D01*
X167757105Y-97930439D01*
X167813462Y-97769381D01*
X167904244Y-97624901D01*
X168024901Y-97504244D01*
X168169381Y-97413462D01*
X168330439Y-97357105D01*
X168500000Y-97338000D01*
X168669561Y-97357105D01*
G37*
G36*
X74350000Y-97850000D02*
G01*
X72650000Y-97850000D01*
X72650000Y-96150000D01*
X74350000Y-96150000D01*
X74350000Y-97850000D01*
G37*
G36*
X71222664Y-96191602D02*
G01*
X71385000Y-96263878D01*
X71528761Y-96368327D01*
X71647664Y-96500383D01*
X71736514Y-96654274D01*
X71791425Y-96823275D01*
X71810000Y-97000000D01*
X71791425Y-97176725D01*
X71736514Y-97345726D01*
X71647664Y-97499617D01*
X71528761Y-97631673D01*
X71385000Y-97736122D01*
X71222664Y-97808398D01*
X71048849Y-97845344D01*
X70871151Y-97845344D01*
X70697336Y-97808398D01*
X70535000Y-97736122D01*
X70391239Y-97631673D01*
X70272336Y-97499617D01*
X70183486Y-97345726D01*
X70128575Y-97176725D01*
X70110000Y-97000000D01*
X70128575Y-96823275D01*
X70183486Y-96654274D01*
X70272336Y-96500383D01*
X70391239Y-96368327D01*
X70535000Y-96263878D01*
X70697336Y-96191602D01*
X70871151Y-96154656D01*
X71048849Y-96154656D01*
X71222664Y-96191602D01*
G37*
G36*
X166129561Y-94817105D02*
G01*
X166290619Y-94873462D01*
X166435099Y-94964244D01*
X166555756Y-95084901D01*
X166646538Y-95229381D01*
X166702895Y-95390439D01*
X166722000Y-95560000D01*
X166702895Y-95729561D01*
X166646538Y-95890619D01*
X166555756Y-96035099D01*
X166435099Y-96155756D01*
X166290619Y-96246538D01*
X166129561Y-96302895D01*
X165960000Y-96322000D01*
X165790439Y-96302895D01*
X165629381Y-96246538D01*
X165484901Y-96155756D01*
X165364244Y-96035099D01*
X165273462Y-95890619D01*
X165217105Y-95729561D01*
X165198000Y-95560000D01*
X165217105Y-95390439D01*
X165273462Y-95229381D01*
X165364244Y-95084901D01*
X165484901Y-94964244D01*
X165629381Y-94873462D01*
X165790439Y-94817105D01*
X165960000Y-94798000D01*
X166129561Y-94817105D01*
G37*
G36*
X168669561Y-94817105D02*
G01*
X168830619Y-94873462D01*
X168975099Y-94964244D01*
X169095756Y-95084901D01*
X169186538Y-95229381D01*
X169242895Y-95390439D01*
X169262000Y-95560000D01*
X169242895Y-95729561D01*
X169186538Y-95890619D01*
X169095756Y-96035099D01*
X168975099Y-96155756D01*
X168830619Y-96246538D01*
X168669561Y-96302895D01*
X168500000Y-96322000D01*
X168330439Y-96302895D01*
X168169381Y-96246538D01*
X168024901Y-96155756D01*
X167904244Y-96035099D01*
X167813462Y-95890619D01*
X167757105Y-95729561D01*
X167738000Y-95560000D01*
X167757105Y-95390439D01*
X167813462Y-95229381D01*
X167904244Y-95084901D01*
X168024901Y-94964244D01*
X168169381Y-94873462D01*
X168330439Y-94817105D01*
X168500000Y-94798000D01*
X168669561Y-94817105D01*
G37*
G36*
X166129561Y-92277105D02*
G01*
X166290619Y-92333462D01*
X166435099Y-92424244D01*
X166555756Y-92544901D01*
X166646538Y-92689381D01*
X166702895Y-92850439D01*
X166722000Y-93020000D01*
X166702895Y-93189561D01*
X166646538Y-93350619D01*
X166555756Y-93495099D01*
X166435099Y-93615756D01*
X166290619Y-93706538D01*
X166129561Y-93762895D01*
X165960000Y-93782000D01*
X165790439Y-93762895D01*
X165629381Y-93706538D01*
X165484901Y-93615756D01*
X165364244Y-93495099D01*
X165273462Y-93350619D01*
X165217105Y-93189561D01*
X165198000Y-93020000D01*
X165217105Y-92850439D01*
X165273462Y-92689381D01*
X165364244Y-92544901D01*
X165484901Y-92424244D01*
X165629381Y-92333462D01*
X165790439Y-92277105D01*
X165960000Y-92258000D01*
X166129561Y-92277105D01*
G37*
G36*
X168669561Y-92277105D02*
G01*
X168830619Y-92333462D01*
X168975099Y-92424244D01*
X169095756Y-92544901D01*
X169186538Y-92689381D01*
X169242895Y-92850439D01*
X169262000Y-93020000D01*
X169242895Y-93189561D01*
X169186538Y-93350619D01*
X169095756Y-93495099D01*
X168975099Y-93615756D01*
X168830619Y-93706538D01*
X168669561Y-93762895D01*
X168500000Y-93782000D01*
X168330439Y-93762895D01*
X168169381Y-93706538D01*
X168024901Y-93615756D01*
X167904244Y-93495099D01*
X167813462Y-93350619D01*
X167757105Y-93189561D01*
X167738000Y-93020000D01*
X167757105Y-92850439D01*
X167813462Y-92689381D01*
X167904244Y-92544901D01*
X168024901Y-92424244D01*
X168169381Y-92333462D01*
X168330439Y-92277105D01*
X168500000Y-92258000D01*
X168669561Y-92277105D01*
G37*
G36*
X102526300Y-91312800D02*
G01*
X100900700Y-91312800D01*
X100900700Y-89687200D01*
X102526300Y-89687200D01*
X102526300Y-91312800D01*
G37*
G36*
X112931488Y-89691931D02*
G01*
X112974431Y-89691931D01*
X113022873Y-89702227D01*
X113070365Y-89707579D01*
X113104899Y-89719663D01*
X113140583Y-89727248D01*
X113192010Y-89750144D01*
X113242161Y-89767693D01*
X113268262Y-89784093D01*
X113295760Y-89796336D01*
X113347030Y-89833586D01*
X113396273Y-89864527D01*
X113413957Y-89882211D01*
X113433182Y-89896179D01*
X113480705Y-89948959D01*
X113524973Y-89993227D01*
X113535155Y-90009432D01*
X113546843Y-90022413D01*
X113586830Y-90091673D01*
X113621807Y-90147339D01*
X113626173Y-90159818D01*
X113631772Y-90169515D01*
X113660440Y-90257748D01*
X113681921Y-90319135D01*
X113682735Y-90326363D01*
X113684264Y-90331068D01*
X113698119Y-90462898D01*
X113702300Y-90500000D01*
X113698119Y-90537104D01*
X113684264Y-90668931D01*
X113682735Y-90673634D01*
X113681921Y-90680865D01*
X113660436Y-90742264D01*
X113631772Y-90830484D01*
X113626174Y-90840178D01*
X113621807Y-90852661D01*
X113586823Y-90908338D01*
X113546843Y-90977586D01*
X113535157Y-90990563D01*
X113524973Y-91006773D01*
X113480696Y-91051049D01*
X113433182Y-91103820D01*
X113413961Y-91117784D01*
X113396273Y-91135473D01*
X113347020Y-91166420D01*
X113295760Y-91203663D01*
X113268268Y-91215902D01*
X113242161Y-91232307D01*
X113192000Y-91249859D01*
X113140583Y-91272751D01*
X113104905Y-91280334D01*
X113070365Y-91292421D01*
X113022870Y-91297772D01*
X112974431Y-91308069D01*
X112931488Y-91308069D01*
X112889500Y-91312800D01*
X112847512Y-91308069D01*
X112804569Y-91308069D01*
X112756128Y-91297772D01*
X112708635Y-91292421D01*
X112674095Y-91280335D01*
X112638416Y-91272751D01*
X112586995Y-91249857D01*
X112536839Y-91232307D01*
X112510734Y-91215904D01*
X112483239Y-91203663D01*
X112431972Y-91166415D01*
X112382727Y-91135473D01*
X112365041Y-91117787D01*
X112345817Y-91103820D01*
X112298293Y-91051039D01*
X112254027Y-91006773D01*
X112243844Y-90990567D01*
X112232156Y-90977586D01*
X112192164Y-90908318D01*
X112157193Y-90852661D01*
X112152826Y-90840183D01*
X112147227Y-90830484D01*
X112118549Y-90742224D01*
X112097079Y-90680865D01*
X112096264Y-90673639D01*
X112094735Y-90668931D01*
X112080865Y-90536972D01*
X112076700Y-90500000D01*
X112080865Y-90463030D01*
X112094735Y-90331068D01*
X112096265Y-90326359D01*
X112097079Y-90319135D01*
X112118545Y-90257788D01*
X112147227Y-90169515D01*
X112152827Y-90159814D01*
X112157193Y-90147339D01*
X112192157Y-90091692D01*
X112232156Y-90022413D01*
X112243846Y-90009429D01*
X112254027Y-89993227D01*
X112298284Y-89948969D01*
X112345817Y-89896179D01*
X112365044Y-89882209D01*
X112382727Y-89864527D01*
X112431966Y-89833587D01*
X112483240Y-89796336D01*
X112510737Y-89784093D01*
X112536839Y-89767693D01*
X112586986Y-89750145D01*
X112638416Y-89727248D01*
X112674101Y-89719662D01*
X112708635Y-89707579D01*
X112756125Y-89702227D01*
X112804569Y-89691931D01*
X112847512Y-89691931D01*
X112889500Y-89687200D01*
X112931488Y-89691931D01*
G37*
G36*
X166129561Y-89737105D02*
G01*
X166290619Y-89793462D01*
X166435099Y-89884244D01*
X166555756Y-90004901D01*
X166646538Y-90149381D01*
X166702895Y-90310439D01*
X166722000Y-90480000D01*
X166702895Y-90649561D01*
X166646538Y-90810619D01*
X166555756Y-90955099D01*
X166435099Y-91075756D01*
X166290619Y-91166538D01*
X166129561Y-91222895D01*
X165960000Y-91242000D01*
X165790439Y-91222895D01*
X165629381Y-91166538D01*
X165484901Y-91075756D01*
X165364244Y-90955099D01*
X165273462Y-90810619D01*
X165217105Y-90649561D01*
X165198000Y-90480000D01*
X165217105Y-90310439D01*
X165273462Y-90149381D01*
X165364244Y-90004901D01*
X165484901Y-89884244D01*
X165629381Y-89793462D01*
X165790439Y-89737105D01*
X165960000Y-89718000D01*
X166129561Y-89737105D01*
G37*
G36*
X168669561Y-89737105D02*
G01*
X168830619Y-89793462D01*
X168975099Y-89884244D01*
X169095756Y-90004901D01*
X169186538Y-90149381D01*
X169242895Y-90310439D01*
X169262000Y-90480000D01*
X169242895Y-90649561D01*
X169186538Y-90810619D01*
X169095756Y-90955099D01*
X168975099Y-91075756D01*
X168830619Y-91166538D01*
X168669561Y-91222895D01*
X168500000Y-91242000D01*
X168330439Y-91222895D01*
X168169381Y-91166538D01*
X168024901Y-91075756D01*
X167904244Y-90955099D01*
X167813462Y-90810619D01*
X167757105Y-90649561D01*
X167738000Y-90480000D01*
X167757105Y-90310439D01*
X167813462Y-90149381D01*
X167904244Y-90004901D01*
X168024901Y-89884244D01*
X168169381Y-89793462D01*
X168330439Y-89737105D01*
X168500000Y-89718000D01*
X168669561Y-89737105D01*
G37*
G36*
X166129561Y-87197105D02*
G01*
X166290619Y-87253462D01*
X166435099Y-87344244D01*
X166555756Y-87464901D01*
X166646538Y-87609381D01*
X166702895Y-87770439D01*
X166722000Y-87940000D01*
X166702895Y-88109561D01*
X166646538Y-88270619D01*
X166555756Y-88415099D01*
X166435099Y-88535756D01*
X166290619Y-88626538D01*
X166129561Y-88682895D01*
X165960000Y-88702000D01*
X165790439Y-88682895D01*
X165629381Y-88626538D01*
X165484901Y-88535756D01*
X165364244Y-88415099D01*
X165273462Y-88270619D01*
X165217105Y-88109561D01*
X165198000Y-87940000D01*
X165217105Y-87770439D01*
X165273462Y-87609381D01*
X165364244Y-87464901D01*
X165484901Y-87344244D01*
X165629381Y-87253462D01*
X165790439Y-87197105D01*
X165960000Y-87178000D01*
X166129561Y-87197105D01*
G37*
G36*
X168669561Y-87197105D02*
G01*
X168830619Y-87253462D01*
X168975099Y-87344244D01*
X169095756Y-87464901D01*
X169186538Y-87609381D01*
X169242895Y-87770439D01*
X169262000Y-87940000D01*
X169242895Y-88109561D01*
X169186538Y-88270619D01*
X169095756Y-88415099D01*
X168975099Y-88535756D01*
X168830619Y-88626538D01*
X168669561Y-88682895D01*
X168500000Y-88702000D01*
X168330439Y-88682895D01*
X168169381Y-88626538D01*
X168024901Y-88535756D01*
X167904244Y-88415099D01*
X167813462Y-88270619D01*
X167757105Y-88109561D01*
X167738000Y-87940000D01*
X167757105Y-87770439D01*
X167813462Y-87609381D01*
X167904244Y-87464901D01*
X168024901Y-87344244D01*
X168169381Y-87253462D01*
X168330439Y-87197105D01*
X168500000Y-87178000D01*
X168669561Y-87197105D01*
G37*
G36*
X166129561Y-84657105D02*
G01*
X166290619Y-84713462D01*
X166435099Y-84804244D01*
X166555756Y-84924901D01*
X166646538Y-85069381D01*
X166702895Y-85230439D01*
X166722000Y-85400000D01*
X166702895Y-85569561D01*
X166646538Y-85730619D01*
X166555756Y-85875099D01*
X166435099Y-85995756D01*
X166290619Y-86086538D01*
X166129561Y-86142895D01*
X165960000Y-86162000D01*
X165790439Y-86142895D01*
X165629381Y-86086538D01*
X165484901Y-85995756D01*
X165364244Y-85875099D01*
X165273462Y-85730619D01*
X165217105Y-85569561D01*
X165198000Y-85400000D01*
X165217105Y-85230439D01*
X165273462Y-85069381D01*
X165364244Y-84924901D01*
X165484901Y-84804244D01*
X165629381Y-84713462D01*
X165790439Y-84657105D01*
X165960000Y-84638000D01*
X166129561Y-84657105D01*
G37*
G36*
X168669561Y-84657105D02*
G01*
X168830619Y-84713462D01*
X168975099Y-84804244D01*
X169095756Y-84924901D01*
X169186538Y-85069381D01*
X169242895Y-85230439D01*
X169262000Y-85400000D01*
X169242895Y-85569561D01*
X169186538Y-85730619D01*
X169095756Y-85875099D01*
X168975099Y-85995756D01*
X168830619Y-86086538D01*
X168669561Y-86142895D01*
X168500000Y-86162000D01*
X168330439Y-86142895D01*
X168169381Y-86086538D01*
X168024901Y-85995756D01*
X167904244Y-85875099D01*
X167813462Y-85730619D01*
X167757105Y-85569561D01*
X167738000Y-85400000D01*
X167757105Y-85230439D01*
X167813462Y-85069381D01*
X167904244Y-84924901D01*
X168024901Y-84804244D01*
X168169381Y-84713462D01*
X168330439Y-84657105D01*
X168500000Y-84638000D01*
X168669561Y-84657105D01*
G37*
G36*
X101755488Y-83191931D02*
G01*
X101798431Y-83191931D01*
X101846873Y-83202227D01*
X101894365Y-83207579D01*
X101928899Y-83219663D01*
X101964583Y-83227248D01*
X102016010Y-83250144D01*
X102066161Y-83267693D01*
X102092262Y-83284093D01*
X102119760Y-83296336D01*
X102171030Y-83333586D01*
X102220273Y-83364527D01*
X102237957Y-83382211D01*
X102257182Y-83396179D01*
X102304705Y-83448959D01*
X102348973Y-83493227D01*
X102359155Y-83509432D01*
X102370843Y-83522413D01*
X102410830Y-83591673D01*
X102445807Y-83647339D01*
X102450173Y-83659818D01*
X102455772Y-83669515D01*
X102484440Y-83757748D01*
X102505921Y-83819135D01*
X102506735Y-83826363D01*
X102508264Y-83831068D01*
X102522119Y-83962898D01*
X102526300Y-84000000D01*
X102522119Y-84037104D01*
X102508264Y-84168931D01*
X102506735Y-84173634D01*
X102505921Y-84180865D01*
X102484436Y-84242264D01*
X102455772Y-84330484D01*
X102450174Y-84340178D01*
X102445807Y-84352661D01*
X102410823Y-84408338D01*
X102370843Y-84477586D01*
X102359157Y-84490563D01*
X102348973Y-84506773D01*
X102304696Y-84551049D01*
X102257182Y-84603820D01*
X102237961Y-84617784D01*
X102220273Y-84635473D01*
X102171020Y-84666420D01*
X102119760Y-84703663D01*
X102092268Y-84715902D01*
X102066161Y-84732307D01*
X102016000Y-84749859D01*
X101964583Y-84772751D01*
X101928905Y-84780334D01*
X101894365Y-84792421D01*
X101846870Y-84797772D01*
X101798431Y-84808069D01*
X101755488Y-84808069D01*
X101713500Y-84812800D01*
X101671512Y-84808069D01*
X101628569Y-84808069D01*
X101580128Y-84797772D01*
X101532635Y-84792421D01*
X101498095Y-84780335D01*
X101462416Y-84772751D01*
X101410995Y-84749857D01*
X101360839Y-84732307D01*
X101334734Y-84715904D01*
X101307239Y-84703663D01*
X101255972Y-84666415D01*
X101206727Y-84635473D01*
X101189041Y-84617787D01*
X101169817Y-84603820D01*
X101122293Y-84551039D01*
X101078027Y-84506773D01*
X101067844Y-84490567D01*
X101056156Y-84477586D01*
X101016164Y-84408318D01*
X100981193Y-84352661D01*
X100976826Y-84340183D01*
X100971227Y-84330484D01*
X100942549Y-84242224D01*
X100921079Y-84180865D01*
X100920264Y-84173639D01*
X100918735Y-84168931D01*
X100904865Y-84036972D01*
X100900700Y-84000000D01*
X100904865Y-83963030D01*
X100918735Y-83831068D01*
X100920265Y-83826359D01*
X100921079Y-83819135D01*
X100942545Y-83757788D01*
X100971227Y-83669515D01*
X100976827Y-83659814D01*
X100981193Y-83647339D01*
X101016157Y-83591692D01*
X101056156Y-83522413D01*
X101067846Y-83509429D01*
X101078027Y-83493227D01*
X101122284Y-83448969D01*
X101169817Y-83396179D01*
X101189044Y-83382209D01*
X101206727Y-83364527D01*
X101255966Y-83333587D01*
X101307240Y-83296336D01*
X101334737Y-83284093D01*
X101360839Y-83267693D01*
X101410986Y-83250145D01*
X101462416Y-83227248D01*
X101498101Y-83219662D01*
X101532635Y-83207579D01*
X101580125Y-83202227D01*
X101628569Y-83191931D01*
X101671512Y-83191931D01*
X101713500Y-83187200D01*
X101755488Y-83191931D01*
G37*
G36*
X113702300Y-84812800D02*
G01*
X112076700Y-84812800D01*
X112076700Y-83187200D01*
X113702300Y-83187200D01*
X113702300Y-84812800D01*
G37*
G36*
X41010488Y-83116931D02*
G01*
X41053431Y-83116931D01*
X41101873Y-83127227D01*
X41149365Y-83132579D01*
X41183899Y-83144663D01*
X41219583Y-83152248D01*
X41271010Y-83175144D01*
X41321161Y-83192693D01*
X41347262Y-83209093D01*
X41374760Y-83221336D01*
X41426030Y-83258586D01*
X41475273Y-83289527D01*
X41492957Y-83307211D01*
X41512182Y-83321179D01*
X41559705Y-83373959D01*
X41603973Y-83418227D01*
X41614155Y-83434432D01*
X41625843Y-83447413D01*
X41665830Y-83516673D01*
X41700807Y-83572339D01*
X41705173Y-83584818D01*
X41710772Y-83594515D01*
X41739440Y-83682748D01*
X41760921Y-83744135D01*
X41761735Y-83751363D01*
X41763264Y-83756068D01*
X41777119Y-83887898D01*
X41781300Y-83925000D01*
X41777119Y-83962104D01*
X41763264Y-84093931D01*
X41761735Y-84098634D01*
X41760921Y-84105865D01*
X41739436Y-84167264D01*
X41710772Y-84255484D01*
X41705174Y-84265178D01*
X41700807Y-84277661D01*
X41665823Y-84333338D01*
X41625843Y-84402586D01*
X41614157Y-84415563D01*
X41603973Y-84431773D01*
X41559696Y-84476049D01*
X41512182Y-84528820D01*
X41492961Y-84542784D01*
X41475273Y-84560473D01*
X41426020Y-84591420D01*
X41374760Y-84628663D01*
X41347268Y-84640902D01*
X41321161Y-84657307D01*
X41271000Y-84674859D01*
X41219583Y-84697751D01*
X41183905Y-84705334D01*
X41149365Y-84717421D01*
X41101870Y-84722772D01*
X41053431Y-84733069D01*
X41010488Y-84733069D01*
X40968500Y-84737800D01*
X40926512Y-84733069D01*
X40883569Y-84733069D01*
X40835128Y-84722772D01*
X40787635Y-84717421D01*
X40753095Y-84705335D01*
X40717416Y-84697751D01*
X40665995Y-84674857D01*
X40615839Y-84657307D01*
X40589734Y-84640904D01*
X40562239Y-84628663D01*
X40510972Y-84591415D01*
X40461727Y-84560473D01*
X40444041Y-84542787D01*
X40424817Y-84528820D01*
X40377293Y-84476039D01*
X40333027Y-84431773D01*
X40322844Y-84415567D01*
X40311156Y-84402586D01*
X40271164Y-84333318D01*
X40236193Y-84277661D01*
X40231826Y-84265183D01*
X40226227Y-84255484D01*
X40197549Y-84167224D01*
X40176079Y-84105865D01*
X40175264Y-84098639D01*
X40173735Y-84093931D01*
X40159865Y-83961972D01*
X40155700Y-83925000D01*
X40159865Y-83888030D01*
X40173735Y-83756068D01*
X40175265Y-83751359D01*
X40176079Y-83744135D01*
X40197545Y-83682788D01*
X40226227Y-83594515D01*
X40231827Y-83584814D01*
X40236193Y-83572339D01*
X40271157Y-83516692D01*
X40311156Y-83447413D01*
X40322846Y-83434429D01*
X40333027Y-83418227D01*
X40377284Y-83373969D01*
X40424817Y-83321179D01*
X40444044Y-83307209D01*
X40461727Y-83289527D01*
X40510966Y-83258587D01*
X40562240Y-83221336D01*
X40589737Y-83209093D01*
X40615839Y-83192693D01*
X40665986Y-83175145D01*
X40717416Y-83152248D01*
X40753101Y-83144662D01*
X40787635Y-83132579D01*
X40835125Y-83127227D01*
X40883569Y-83116931D01*
X40926512Y-83116931D01*
X40968500Y-83112200D01*
X41010488Y-83116931D01*
G37*
G36*
X52957300Y-84737800D02*
G01*
X51331700Y-84737800D01*
X51331700Y-83112200D01*
X52957300Y-83112200D01*
X52957300Y-84737800D01*
G37*
G36*
X166129561Y-82117105D02*
G01*
X166290619Y-82173462D01*
X166435099Y-82264244D01*
X166555756Y-82384901D01*
X166646538Y-82529381D01*
X166702895Y-82690439D01*
X166722000Y-82860000D01*
X166702895Y-83029561D01*
X166646538Y-83190619D01*
X166555756Y-83335099D01*
X166435099Y-83455756D01*
X166290619Y-83546538D01*
X166129561Y-83602895D01*
X165960000Y-83622000D01*
X165790439Y-83602895D01*
X165629381Y-83546538D01*
X165484901Y-83455756D01*
X165364244Y-83335099D01*
X165273462Y-83190619D01*
X165217105Y-83029561D01*
X165198000Y-82860000D01*
X165217105Y-82690439D01*
X165273462Y-82529381D01*
X165364244Y-82384901D01*
X165484901Y-82264244D01*
X165629381Y-82173462D01*
X165790439Y-82117105D01*
X165960000Y-82098000D01*
X166129561Y-82117105D01*
G37*
G36*
X168669561Y-82117105D02*
G01*
X168830619Y-82173462D01*
X168975099Y-82264244D01*
X169095756Y-82384901D01*
X169186538Y-82529381D01*
X169242895Y-82690439D01*
X169262000Y-82860000D01*
X169242895Y-83029561D01*
X169186538Y-83190619D01*
X169095756Y-83335099D01*
X168975099Y-83455756D01*
X168830619Y-83546538D01*
X168669561Y-83602895D01*
X168500000Y-83622000D01*
X168330439Y-83602895D01*
X168169381Y-83546538D01*
X168024901Y-83455756D01*
X167904244Y-83335099D01*
X167813462Y-83190619D01*
X167757105Y-83029561D01*
X167738000Y-82860000D01*
X167757105Y-82690439D01*
X167813462Y-82529381D01*
X167904244Y-82384901D01*
X168024901Y-82264244D01*
X168169381Y-82173462D01*
X168330439Y-82117105D01*
X168500000Y-82098000D01*
X168669561Y-82117105D01*
G37*
G36*
X166129561Y-79577105D02*
G01*
X166290619Y-79633462D01*
X166435099Y-79724244D01*
X166555756Y-79844901D01*
X166646538Y-79989381D01*
X166702895Y-80150439D01*
X166722000Y-80320000D01*
X166702895Y-80489561D01*
X166646538Y-80650619D01*
X166555756Y-80795099D01*
X166435099Y-80915756D01*
X166290619Y-81006538D01*
X166129561Y-81062895D01*
X165960000Y-81082000D01*
X165790439Y-81062895D01*
X165629381Y-81006538D01*
X165484901Y-80915756D01*
X165364244Y-80795099D01*
X165273462Y-80650619D01*
X165217105Y-80489561D01*
X165198000Y-80320000D01*
X165217105Y-80150439D01*
X165273462Y-79989381D01*
X165364244Y-79844901D01*
X165484901Y-79724244D01*
X165629381Y-79633462D01*
X165790439Y-79577105D01*
X165960000Y-79558000D01*
X166129561Y-79577105D01*
G37*
G36*
X168669561Y-79577105D02*
G01*
X168830619Y-79633462D01*
X168975099Y-79724244D01*
X169095756Y-79844901D01*
X169186538Y-79989381D01*
X169242895Y-80150439D01*
X169262000Y-80320000D01*
X169242895Y-80489561D01*
X169186538Y-80650619D01*
X169095756Y-80795099D01*
X168975099Y-80915756D01*
X168830619Y-81006538D01*
X168669561Y-81062895D01*
X168500000Y-81082000D01*
X168330439Y-81062895D01*
X168169381Y-81006538D01*
X168024901Y-80915756D01*
X167904244Y-80795099D01*
X167813462Y-80650619D01*
X167757105Y-80489561D01*
X167738000Y-80320000D01*
X167757105Y-80150439D01*
X167813462Y-79989381D01*
X167904244Y-79844901D01*
X168024901Y-79724244D01*
X168169381Y-79633462D01*
X168330439Y-79577105D01*
X168500000Y-79558000D01*
X168669561Y-79577105D01*
G37*
G36*
X166129561Y-77037105D02*
G01*
X166290619Y-77093462D01*
X166435099Y-77184244D01*
X166555756Y-77304901D01*
X166646538Y-77449381D01*
X166702895Y-77610439D01*
X166722000Y-77780000D01*
X166702895Y-77949561D01*
X166646538Y-78110619D01*
X166555756Y-78255099D01*
X166435099Y-78375756D01*
X166290619Y-78466538D01*
X166129561Y-78522895D01*
X165960000Y-78542000D01*
X165790439Y-78522895D01*
X165629381Y-78466538D01*
X165484901Y-78375756D01*
X165364244Y-78255099D01*
X165273462Y-78110619D01*
X165217105Y-77949561D01*
X165198000Y-77780000D01*
X165217105Y-77610439D01*
X165273462Y-77449381D01*
X165364244Y-77304901D01*
X165484901Y-77184244D01*
X165629381Y-77093462D01*
X165790439Y-77037105D01*
X165960000Y-77018000D01*
X166129561Y-77037105D01*
G37*
G36*
X168669561Y-77037105D02*
G01*
X168830619Y-77093462D01*
X168975099Y-77184244D01*
X169095756Y-77304901D01*
X169186538Y-77449381D01*
X169242895Y-77610439D01*
X169262000Y-77780000D01*
X169242895Y-77949561D01*
X169186538Y-78110619D01*
X169095756Y-78255099D01*
X168975099Y-78375756D01*
X168830619Y-78466538D01*
X168669561Y-78522895D01*
X168500000Y-78542000D01*
X168330439Y-78522895D01*
X168169381Y-78466538D01*
X168024901Y-78375756D01*
X167904244Y-78255099D01*
X167813462Y-78110619D01*
X167757105Y-77949561D01*
X167738000Y-77780000D01*
X167757105Y-77610439D01*
X167813462Y-77449381D01*
X167904244Y-77304901D01*
X168024901Y-77184244D01*
X168169381Y-77093462D01*
X168330439Y-77037105D01*
X168500000Y-77018000D01*
X168669561Y-77037105D01*
G37*
G36*
X73967568Y-76574930D02*
G01*
X74014076Y-76574930D01*
X74054232Y-76583465D01*
X74095530Y-76587533D01*
X74147415Y-76603272D01*
X74198115Y-76614049D01*
X74230558Y-76628493D01*
X74264319Y-76638735D01*
X74317967Y-76667410D01*
X74370000Y-76690577D01*
X74394192Y-76708153D01*
X74419878Y-76721883D01*
X74472271Y-76764881D01*
X74522218Y-76801170D01*
X74538436Y-76819182D01*
X74556221Y-76833778D01*
X74604018Y-76892018D01*
X74648115Y-76940993D01*
X74657377Y-76957036D01*
X74668116Y-76970121D01*
X74707840Y-77044440D01*
X74742191Y-77103937D01*
X74746142Y-77116098D01*
X74751264Y-77125680D01*
X74779504Y-77218775D01*
X74800333Y-77282879D01*
X74801066Y-77289854D01*
X74802466Y-77294469D01*
X74816090Y-77432802D01*
X74820000Y-77470000D01*
X74816090Y-77507200D01*
X74802466Y-77645530D01*
X74801066Y-77650144D01*
X74800333Y-77657121D01*
X74779500Y-77721238D01*
X74751264Y-77814319D01*
X74746143Y-77823899D01*
X74742191Y-77836063D01*
X74707833Y-77895572D01*
X74668116Y-77969878D01*
X74657379Y-77982960D01*
X74648115Y-77999007D01*
X74604009Y-78047991D01*
X74556221Y-78106221D01*
X74538439Y-78120813D01*
X74522218Y-78138830D01*
X74472260Y-78175126D01*
X74419878Y-78218116D01*
X74394197Y-78231842D01*
X74370000Y-78249423D01*
X74317955Y-78272594D01*
X74264319Y-78301264D01*
X74230565Y-78311503D01*
X74198115Y-78325951D01*
X74147404Y-78336729D01*
X74095530Y-78352466D01*
X74054241Y-78356532D01*
X74014076Y-78365070D01*
X73967558Y-78365070D01*
X73920000Y-78369754D01*
X73872442Y-78365070D01*
X73825924Y-78365070D01*
X73785759Y-78356532D01*
X73744469Y-78352466D01*
X73692592Y-78336729D01*
X73641885Y-78325951D01*
X73609436Y-78311503D01*
X73575680Y-78301264D01*
X73522038Y-78272591D01*
X73470000Y-78249423D01*
X73445805Y-78231844D01*
X73420121Y-78218116D01*
X73367730Y-78175119D01*
X73317782Y-78138830D01*
X73301562Y-78120816D01*
X73283778Y-78106221D01*
X73235979Y-78047978D01*
X73191885Y-77999007D01*
X73182622Y-77982964D01*
X73171883Y-77969878D01*
X73132153Y-77895548D01*
X73097809Y-77836063D01*
X73093858Y-77823903D01*
X73088735Y-77814319D01*
X73060484Y-77721191D01*
X73039667Y-77657121D01*
X73038934Y-77650149D01*
X73037533Y-77645530D01*
X73023893Y-77507049D01*
X73020000Y-77470000D01*
X73023893Y-77432953D01*
X73037533Y-77294469D01*
X73038934Y-77289849D01*
X73039667Y-77282879D01*
X73060480Y-77218822D01*
X73088735Y-77125680D01*
X73093859Y-77116093D01*
X73097809Y-77103937D01*
X73132145Y-77044463D01*
X73171883Y-76970121D01*
X73182624Y-76957032D01*
X73191885Y-76940993D01*
X73235970Y-76892031D01*
X73283778Y-76833778D01*
X73301566Y-76819179D01*
X73317782Y-76801170D01*
X73367719Y-76764888D01*
X73420121Y-76721883D01*
X73445810Y-76708151D01*
X73470000Y-76690577D01*
X73522026Y-76667413D01*
X73575680Y-76638735D01*
X73609443Y-76628492D01*
X73641885Y-76614049D01*
X73692581Y-76603273D01*
X73744469Y-76587533D01*
X73785768Y-76583465D01*
X73825924Y-76574930D01*
X73872432Y-76574930D01*
X73920000Y-76570245D01*
X73967568Y-76574930D01*
G37*
G36*
X41678300Y-78237800D02*
G01*
X40052700Y-78237800D01*
X40052700Y-76612200D01*
X41678300Y-76612200D01*
X41678300Y-78237800D01*
G37*
G36*
X52083488Y-76616931D02*
G01*
X52126431Y-76616931D01*
X52174873Y-76627227D01*
X52222365Y-76632579D01*
X52256899Y-76644663D01*
X52292583Y-76652248D01*
X52344010Y-76675144D01*
X52394161Y-76692693D01*
X52420262Y-76709093D01*
X52447760Y-76721336D01*
X52499030Y-76758586D01*
X52548273Y-76789527D01*
X52565957Y-76807211D01*
X52585182Y-76821179D01*
X52632705Y-76873959D01*
X52676973Y-76918227D01*
X52687155Y-76934432D01*
X52698843Y-76947413D01*
X52738830Y-77016673D01*
X52773807Y-77072339D01*
X52778173Y-77084818D01*
X52783772Y-77094515D01*
X52812440Y-77182748D01*
X52833921Y-77244135D01*
X52834735Y-77251363D01*
X52836264Y-77256068D01*
X52850119Y-77387898D01*
X52854300Y-77425000D01*
X52850119Y-77462104D01*
X52836264Y-77593931D01*
X52834735Y-77598634D01*
X52833921Y-77605865D01*
X52812436Y-77667264D01*
X52783772Y-77755484D01*
X52778174Y-77765178D01*
X52773807Y-77777661D01*
X52738823Y-77833338D01*
X52698843Y-77902586D01*
X52687157Y-77915563D01*
X52676973Y-77931773D01*
X52632696Y-77976049D01*
X52585182Y-78028820D01*
X52565961Y-78042784D01*
X52548273Y-78060473D01*
X52499020Y-78091420D01*
X52447760Y-78128663D01*
X52420268Y-78140902D01*
X52394161Y-78157307D01*
X52344000Y-78174859D01*
X52292583Y-78197751D01*
X52256905Y-78205334D01*
X52222365Y-78217421D01*
X52174870Y-78222772D01*
X52126431Y-78233069D01*
X52083488Y-78233069D01*
X52041500Y-78237800D01*
X51999512Y-78233069D01*
X51956569Y-78233069D01*
X51908128Y-78222772D01*
X51860635Y-78217421D01*
X51826095Y-78205335D01*
X51790416Y-78197751D01*
X51738995Y-78174857D01*
X51688839Y-78157307D01*
X51662734Y-78140904D01*
X51635239Y-78128663D01*
X51583972Y-78091415D01*
X51534727Y-78060473D01*
X51517041Y-78042787D01*
X51497817Y-78028820D01*
X51450293Y-77976039D01*
X51406027Y-77931773D01*
X51395844Y-77915567D01*
X51384156Y-77902586D01*
X51344164Y-77833318D01*
X51309193Y-77777661D01*
X51304826Y-77765183D01*
X51299227Y-77755484D01*
X51270549Y-77667224D01*
X51249079Y-77605865D01*
X51248264Y-77598639D01*
X51246735Y-77593931D01*
X51232865Y-77461972D01*
X51228700Y-77425000D01*
X51232865Y-77388030D01*
X51246735Y-77256068D01*
X51248265Y-77251359D01*
X51249079Y-77244135D01*
X51270545Y-77182788D01*
X51299227Y-77094515D01*
X51304827Y-77084814D01*
X51309193Y-77072339D01*
X51344157Y-77016692D01*
X51384156Y-76947413D01*
X51395846Y-76934429D01*
X51406027Y-76918227D01*
X51450284Y-76873969D01*
X51497817Y-76821179D01*
X51517044Y-76807209D01*
X51534727Y-76789527D01*
X51583966Y-76758587D01*
X51635240Y-76721336D01*
X51662737Y-76709093D01*
X51688839Y-76692693D01*
X51738986Y-76675145D01*
X51790416Y-76652248D01*
X51826101Y-76644662D01*
X51860635Y-76632579D01*
X51908125Y-76627227D01*
X51956569Y-76616931D01*
X51999512Y-76616931D01*
X52041500Y-76612200D01*
X52083488Y-76616931D01*
G37*
G36*
X79047568Y-75304930D02*
G01*
X79094076Y-75304930D01*
X79134232Y-75313465D01*
X79175530Y-75317533D01*
X79227415Y-75333272D01*
X79278115Y-75344049D01*
X79310558Y-75358493D01*
X79344319Y-75368735D01*
X79397967Y-75397410D01*
X79450000Y-75420577D01*
X79474192Y-75438153D01*
X79499878Y-75451883D01*
X79552271Y-75494881D01*
X79602218Y-75531170D01*
X79618436Y-75549182D01*
X79636221Y-75563778D01*
X79684018Y-75622018D01*
X79728115Y-75670993D01*
X79737377Y-75687036D01*
X79748116Y-75700121D01*
X79787840Y-75774440D01*
X79822191Y-75833937D01*
X79826142Y-75846098D01*
X79831264Y-75855680D01*
X79859504Y-75948775D01*
X79880333Y-76012879D01*
X79881066Y-76019854D01*
X79882466Y-76024469D01*
X79896090Y-76162802D01*
X79900000Y-76200000D01*
X79896090Y-76237200D01*
X79882466Y-76375530D01*
X79881066Y-76380144D01*
X79880333Y-76387121D01*
X79859500Y-76451238D01*
X79831264Y-76544319D01*
X79826143Y-76553899D01*
X79822191Y-76566063D01*
X79787833Y-76625572D01*
X79748116Y-76699878D01*
X79737379Y-76712960D01*
X79728115Y-76729007D01*
X79684009Y-76777991D01*
X79636221Y-76836221D01*
X79618439Y-76850813D01*
X79602218Y-76868830D01*
X79552260Y-76905126D01*
X79499878Y-76948116D01*
X79474197Y-76961842D01*
X79450000Y-76979423D01*
X79397955Y-77002594D01*
X79344319Y-77031264D01*
X79310565Y-77041503D01*
X79278115Y-77055951D01*
X79227404Y-77066729D01*
X79175530Y-77082466D01*
X79134241Y-77086532D01*
X79094076Y-77095070D01*
X79047558Y-77095070D01*
X79000000Y-77099754D01*
X78952442Y-77095070D01*
X78905924Y-77095070D01*
X78865759Y-77086532D01*
X78824469Y-77082466D01*
X78772592Y-77066729D01*
X78721885Y-77055951D01*
X78689436Y-77041503D01*
X78655680Y-77031264D01*
X78602038Y-77002591D01*
X78550000Y-76979423D01*
X78525805Y-76961844D01*
X78500121Y-76948116D01*
X78447730Y-76905119D01*
X78397782Y-76868830D01*
X78381562Y-76850816D01*
X78363778Y-76836221D01*
X78315979Y-76777978D01*
X78271885Y-76729007D01*
X78262622Y-76712964D01*
X78251883Y-76699878D01*
X78212153Y-76625548D01*
X78177809Y-76566063D01*
X78173858Y-76553903D01*
X78168735Y-76544319D01*
X78140484Y-76451191D01*
X78119667Y-76387121D01*
X78118934Y-76380149D01*
X78117533Y-76375530D01*
X78103893Y-76237049D01*
X78100000Y-76200000D01*
X78103893Y-76162953D01*
X78117533Y-76024469D01*
X78118934Y-76019849D01*
X78119667Y-76012879D01*
X78140480Y-75948822D01*
X78168735Y-75855680D01*
X78173859Y-75846093D01*
X78177809Y-75833937D01*
X78212145Y-75774463D01*
X78251883Y-75700121D01*
X78262624Y-75687032D01*
X78271885Y-75670993D01*
X78315970Y-75622031D01*
X78363778Y-75563778D01*
X78381566Y-75549179D01*
X78397782Y-75531170D01*
X78447719Y-75494888D01*
X78500121Y-75451883D01*
X78525810Y-75438151D01*
X78550000Y-75420577D01*
X78602026Y-75397413D01*
X78655680Y-75368735D01*
X78689443Y-75358492D01*
X78721885Y-75344049D01*
X78772581Y-75333273D01*
X78824469Y-75317533D01*
X78865768Y-75313465D01*
X78905924Y-75304930D01*
X78952432Y-75304930D01*
X79000000Y-75300245D01*
X79047568Y-75304930D01*
G37*
G36*
X166129561Y-74497105D02*
G01*
X166290619Y-74553462D01*
X166435099Y-74644244D01*
X166555756Y-74764901D01*
X166646538Y-74909381D01*
X166702895Y-75070439D01*
X166722000Y-75240000D01*
X166702895Y-75409561D01*
X166646538Y-75570619D01*
X166555756Y-75715099D01*
X166435099Y-75835756D01*
X166290619Y-75926538D01*
X166129561Y-75982895D01*
X165960000Y-76002000D01*
X165790439Y-75982895D01*
X165629381Y-75926538D01*
X165484901Y-75835756D01*
X165364244Y-75715099D01*
X165273462Y-75570619D01*
X165217105Y-75409561D01*
X165198000Y-75240000D01*
X165217105Y-75070439D01*
X165273462Y-74909381D01*
X165364244Y-74764901D01*
X165484901Y-74644244D01*
X165629381Y-74553462D01*
X165790439Y-74497105D01*
X165960000Y-74478000D01*
X166129561Y-74497105D01*
G37*
G36*
X168669561Y-74497105D02*
G01*
X168830619Y-74553462D01*
X168975099Y-74644244D01*
X169095756Y-74764901D01*
X169186538Y-74909381D01*
X169242895Y-75070439D01*
X169262000Y-75240000D01*
X169242895Y-75409561D01*
X169186538Y-75570619D01*
X169095756Y-75715099D01*
X168975099Y-75835756D01*
X168830619Y-75926538D01*
X168669561Y-75982895D01*
X168500000Y-76002000D01*
X168330439Y-75982895D01*
X168169381Y-75926538D01*
X168024901Y-75835756D01*
X167904244Y-75715099D01*
X167813462Y-75570619D01*
X167757105Y-75409561D01*
X167738000Y-75240000D01*
X167757105Y-75070439D01*
X167813462Y-74909381D01*
X167904244Y-74764901D01*
X168024901Y-74644244D01*
X168169381Y-74553462D01*
X168330439Y-74497105D01*
X168500000Y-74478000D01*
X168669561Y-74497105D01*
G37*
G36*
X73967568Y-74034930D02*
G01*
X74014076Y-74034930D01*
X74054232Y-74043465D01*
X74095530Y-74047533D01*
X74147415Y-74063272D01*
X74198115Y-74074049D01*
X74230558Y-74088493D01*
X74264319Y-74098735D01*
X74317967Y-74127410D01*
X74370000Y-74150577D01*
X74394192Y-74168153D01*
X74419878Y-74181883D01*
X74472271Y-74224881D01*
X74522218Y-74261170D01*
X74538436Y-74279182D01*
X74556221Y-74293778D01*
X74604018Y-74352018D01*
X74648115Y-74400993D01*
X74657377Y-74417036D01*
X74668116Y-74430121D01*
X74707840Y-74504440D01*
X74742191Y-74563937D01*
X74746142Y-74576098D01*
X74751264Y-74585680D01*
X74779504Y-74678775D01*
X74800333Y-74742879D01*
X74801066Y-74749854D01*
X74802466Y-74754469D01*
X74816090Y-74892802D01*
X74820000Y-74930000D01*
X74816090Y-74967200D01*
X74802466Y-75105530D01*
X74801066Y-75110144D01*
X74800333Y-75117121D01*
X74779500Y-75181238D01*
X74751264Y-75274319D01*
X74746143Y-75283899D01*
X74742191Y-75296063D01*
X74707833Y-75355572D01*
X74668116Y-75429878D01*
X74657379Y-75442960D01*
X74648115Y-75459007D01*
X74604009Y-75507991D01*
X74556221Y-75566221D01*
X74538439Y-75580813D01*
X74522218Y-75598830D01*
X74472260Y-75635126D01*
X74419878Y-75678116D01*
X74394197Y-75691842D01*
X74370000Y-75709423D01*
X74317955Y-75732594D01*
X74264319Y-75761264D01*
X74230565Y-75771503D01*
X74198115Y-75785951D01*
X74147404Y-75796729D01*
X74095530Y-75812466D01*
X74054241Y-75816532D01*
X74014076Y-75825070D01*
X73967558Y-75825070D01*
X73920000Y-75829754D01*
X73872442Y-75825070D01*
X73825924Y-75825070D01*
X73785759Y-75816532D01*
X73744469Y-75812466D01*
X73692592Y-75796729D01*
X73641885Y-75785951D01*
X73609436Y-75771503D01*
X73575680Y-75761264D01*
X73522038Y-75732591D01*
X73470000Y-75709423D01*
X73445805Y-75691844D01*
X73420121Y-75678116D01*
X73367730Y-75635119D01*
X73317782Y-75598830D01*
X73301562Y-75580816D01*
X73283778Y-75566221D01*
X73235979Y-75507978D01*
X73191885Y-75459007D01*
X73182622Y-75442964D01*
X73171883Y-75429878D01*
X73132153Y-75355548D01*
X73097809Y-75296063D01*
X73093858Y-75283903D01*
X73088735Y-75274319D01*
X73060484Y-75181191D01*
X73039667Y-75117121D01*
X73038934Y-75110149D01*
X73037533Y-75105530D01*
X73023893Y-74967049D01*
X73020000Y-74930000D01*
X73023893Y-74892953D01*
X73037533Y-74754469D01*
X73038934Y-74749849D01*
X73039667Y-74742879D01*
X73060480Y-74678822D01*
X73088735Y-74585680D01*
X73093859Y-74576093D01*
X73097809Y-74563937D01*
X73132145Y-74504463D01*
X73171883Y-74430121D01*
X73182624Y-74417032D01*
X73191885Y-74400993D01*
X73235970Y-74352031D01*
X73283778Y-74293778D01*
X73301566Y-74279179D01*
X73317782Y-74261170D01*
X73367719Y-74224888D01*
X73420121Y-74181883D01*
X73445810Y-74168151D01*
X73470000Y-74150577D01*
X73522026Y-74127413D01*
X73575680Y-74098735D01*
X73609443Y-74088492D01*
X73641885Y-74074049D01*
X73692581Y-74063273D01*
X73744469Y-74047533D01*
X73785768Y-74043465D01*
X73825924Y-74034930D01*
X73872432Y-74034930D01*
X73920000Y-74030245D01*
X73967568Y-74034930D01*
G37*
G36*
X79047568Y-72764930D02*
G01*
X79094076Y-72764930D01*
X79134232Y-72773465D01*
X79175530Y-72777533D01*
X79227415Y-72793272D01*
X79278115Y-72804049D01*
X79310558Y-72818493D01*
X79344319Y-72828735D01*
X79397967Y-72857410D01*
X79450000Y-72880577D01*
X79474192Y-72898153D01*
X79499878Y-72911883D01*
X79552271Y-72954881D01*
X79602218Y-72991170D01*
X79618436Y-73009182D01*
X79636221Y-73023778D01*
X79684018Y-73082018D01*
X79728115Y-73130993D01*
X79737377Y-73147036D01*
X79748116Y-73160121D01*
X79787840Y-73234440D01*
X79822191Y-73293937D01*
X79826142Y-73306098D01*
X79831264Y-73315680D01*
X79859504Y-73408775D01*
X79880333Y-73472879D01*
X79881066Y-73479854D01*
X79882466Y-73484469D01*
X79896090Y-73622802D01*
X79900000Y-73660000D01*
X79896090Y-73697200D01*
X79882466Y-73835530D01*
X79881066Y-73840144D01*
X79880333Y-73847121D01*
X79859500Y-73911238D01*
X79831264Y-74004319D01*
X79826143Y-74013899D01*
X79822191Y-74026063D01*
X79787833Y-74085572D01*
X79748116Y-74159878D01*
X79737379Y-74172960D01*
X79728115Y-74189007D01*
X79684009Y-74237991D01*
X79636221Y-74296221D01*
X79618439Y-74310813D01*
X79602218Y-74328830D01*
X79552260Y-74365126D01*
X79499878Y-74408116D01*
X79474197Y-74421842D01*
X79450000Y-74439423D01*
X79397955Y-74462594D01*
X79344319Y-74491264D01*
X79310565Y-74501503D01*
X79278115Y-74515951D01*
X79227404Y-74526729D01*
X79175530Y-74542466D01*
X79134241Y-74546532D01*
X79094076Y-74555070D01*
X79047558Y-74555070D01*
X79000000Y-74559754D01*
X78952442Y-74555070D01*
X78905924Y-74555070D01*
X78865759Y-74546532D01*
X78824469Y-74542466D01*
X78772592Y-74526729D01*
X78721885Y-74515951D01*
X78689436Y-74501503D01*
X78655680Y-74491264D01*
X78602038Y-74462591D01*
X78550000Y-74439423D01*
X78525805Y-74421844D01*
X78500121Y-74408116D01*
X78447730Y-74365119D01*
X78397782Y-74328830D01*
X78381562Y-74310816D01*
X78363778Y-74296221D01*
X78315979Y-74237978D01*
X78271885Y-74189007D01*
X78262622Y-74172964D01*
X78251883Y-74159878D01*
X78212153Y-74085548D01*
X78177809Y-74026063D01*
X78173858Y-74013903D01*
X78168735Y-74004319D01*
X78140484Y-73911191D01*
X78119667Y-73847121D01*
X78118934Y-73840149D01*
X78117533Y-73835530D01*
X78103893Y-73697049D01*
X78100000Y-73660000D01*
X78103893Y-73622953D01*
X78117533Y-73484469D01*
X78118934Y-73479849D01*
X78119667Y-73472879D01*
X78140480Y-73408822D01*
X78168735Y-73315680D01*
X78173859Y-73306093D01*
X78177809Y-73293937D01*
X78212145Y-73234463D01*
X78251883Y-73160121D01*
X78262624Y-73147032D01*
X78271885Y-73130993D01*
X78315970Y-73082031D01*
X78363778Y-73023778D01*
X78381566Y-73009179D01*
X78397782Y-72991170D01*
X78447719Y-72954888D01*
X78500121Y-72911883D01*
X78525810Y-72898151D01*
X78550000Y-72880577D01*
X78602026Y-72857413D01*
X78655680Y-72828735D01*
X78689443Y-72818492D01*
X78721885Y-72804049D01*
X78772581Y-72793273D01*
X78824469Y-72777533D01*
X78865768Y-72773465D01*
X78905924Y-72764930D01*
X78952432Y-72764930D01*
X79000000Y-72760245D01*
X79047568Y-72764930D01*
G37*
G36*
X166129561Y-71957105D02*
G01*
X166290619Y-72013462D01*
X166435099Y-72104244D01*
X166555756Y-72224901D01*
X166646538Y-72369381D01*
X166702895Y-72530439D01*
X166722000Y-72700000D01*
X166702895Y-72869561D01*
X166646538Y-73030619D01*
X166555756Y-73175099D01*
X166435099Y-73295756D01*
X166290619Y-73386538D01*
X166129561Y-73442895D01*
X165960000Y-73462000D01*
X165790439Y-73442895D01*
X165629381Y-73386538D01*
X165484901Y-73295756D01*
X165364244Y-73175099D01*
X165273462Y-73030619D01*
X165217105Y-72869561D01*
X165198000Y-72700000D01*
X165217105Y-72530439D01*
X165273462Y-72369381D01*
X165364244Y-72224901D01*
X165484901Y-72104244D01*
X165629381Y-72013462D01*
X165790439Y-71957105D01*
X165960000Y-71938000D01*
X166129561Y-71957105D01*
G37*
G36*
X168669561Y-71957105D02*
G01*
X168830619Y-72013462D01*
X168975099Y-72104244D01*
X169095756Y-72224901D01*
X169186538Y-72369381D01*
X169242895Y-72530439D01*
X169262000Y-72700000D01*
X169242895Y-72869561D01*
X169186538Y-73030619D01*
X169095756Y-73175099D01*
X168975099Y-73295756D01*
X168830619Y-73386538D01*
X168669561Y-73442895D01*
X168500000Y-73462000D01*
X168330439Y-73442895D01*
X168169381Y-73386538D01*
X168024901Y-73295756D01*
X167904244Y-73175099D01*
X167813462Y-73030619D01*
X167757105Y-72869561D01*
X167738000Y-72700000D01*
X167757105Y-72530439D01*
X167813462Y-72369381D01*
X167904244Y-72224901D01*
X168024901Y-72104244D01*
X168169381Y-72013462D01*
X168330439Y-71957105D01*
X168500000Y-71938000D01*
X168669561Y-71957105D01*
G37*
G36*
X73967568Y-71494930D02*
G01*
X74014076Y-71494930D01*
X74054232Y-71503465D01*
X74095530Y-71507533D01*
X74147415Y-71523272D01*
X74198115Y-71534049D01*
X74230558Y-71548493D01*
X74264319Y-71558735D01*
X74317967Y-71587410D01*
X74370000Y-71610577D01*
X74394192Y-71628153D01*
X74419878Y-71641883D01*
X74472271Y-71684881D01*
X74522218Y-71721170D01*
X74538436Y-71739182D01*
X74556221Y-71753778D01*
X74604018Y-71812018D01*
X74648115Y-71860993D01*
X74657377Y-71877036D01*
X74668116Y-71890121D01*
X74707840Y-71964440D01*
X74742191Y-72023937D01*
X74746142Y-72036098D01*
X74751264Y-72045680D01*
X74779504Y-72138775D01*
X74800333Y-72202879D01*
X74801066Y-72209854D01*
X74802466Y-72214469D01*
X74816090Y-72352802D01*
X74820000Y-72390000D01*
X74816090Y-72427200D01*
X74802466Y-72565530D01*
X74801066Y-72570144D01*
X74800333Y-72577121D01*
X74779500Y-72641238D01*
X74751264Y-72734319D01*
X74746143Y-72743899D01*
X74742191Y-72756063D01*
X74707833Y-72815572D01*
X74668116Y-72889878D01*
X74657379Y-72902960D01*
X74648115Y-72919007D01*
X74604009Y-72967991D01*
X74556221Y-73026221D01*
X74538439Y-73040813D01*
X74522218Y-73058830D01*
X74472260Y-73095126D01*
X74419878Y-73138116D01*
X74394197Y-73151842D01*
X74370000Y-73169423D01*
X74317955Y-73192594D01*
X74264319Y-73221264D01*
X74230565Y-73231503D01*
X74198115Y-73245951D01*
X74147404Y-73256729D01*
X74095530Y-73272466D01*
X74054241Y-73276532D01*
X74014076Y-73285070D01*
X73967558Y-73285070D01*
X73920000Y-73289754D01*
X73872442Y-73285070D01*
X73825924Y-73285070D01*
X73785759Y-73276532D01*
X73744469Y-73272466D01*
X73692592Y-73256729D01*
X73641885Y-73245951D01*
X73609436Y-73231503D01*
X73575680Y-73221264D01*
X73522038Y-73192591D01*
X73470000Y-73169423D01*
X73445805Y-73151844D01*
X73420121Y-73138116D01*
X73367730Y-73095119D01*
X73317782Y-73058830D01*
X73301562Y-73040816D01*
X73283778Y-73026221D01*
X73235979Y-72967978D01*
X73191885Y-72919007D01*
X73182622Y-72902964D01*
X73171883Y-72889878D01*
X73132153Y-72815548D01*
X73097809Y-72756063D01*
X73093858Y-72743903D01*
X73088735Y-72734319D01*
X73060484Y-72641191D01*
X73039667Y-72577121D01*
X73038934Y-72570149D01*
X73037533Y-72565530D01*
X73023893Y-72427049D01*
X73020000Y-72390000D01*
X73023893Y-72352953D01*
X73037533Y-72214469D01*
X73038934Y-72209849D01*
X73039667Y-72202879D01*
X73060480Y-72138822D01*
X73088735Y-72045680D01*
X73093859Y-72036093D01*
X73097809Y-72023937D01*
X73132145Y-71964463D01*
X73171883Y-71890121D01*
X73182624Y-71877032D01*
X73191885Y-71860993D01*
X73235970Y-71812031D01*
X73283778Y-71753778D01*
X73301566Y-71739179D01*
X73317782Y-71721170D01*
X73367719Y-71684888D01*
X73420121Y-71641883D01*
X73445810Y-71628151D01*
X73470000Y-71610577D01*
X73522026Y-71587413D01*
X73575680Y-71558735D01*
X73609443Y-71548492D01*
X73641885Y-71534049D01*
X73692581Y-71523273D01*
X73744469Y-71507533D01*
X73785768Y-71503465D01*
X73825924Y-71494930D01*
X73872432Y-71494930D01*
X73920000Y-71490245D01*
X73967568Y-71494930D01*
G37*
G36*
X108480174Y-71331265D02*
G01*
X108615721Y-71402405D01*
X108730304Y-71503917D01*
X108817265Y-71629901D01*
X108871548Y-71773035D01*
X108890000Y-71925000D01*
X108871548Y-72076965D01*
X108817265Y-72220099D01*
X108730304Y-72346083D01*
X108615721Y-72447595D01*
X108480174Y-72518735D01*
X108331541Y-72555370D01*
X108178459Y-72555370D01*
X108029826Y-72518735D01*
X107894279Y-72447595D01*
X107779696Y-72346083D01*
X107692735Y-72220099D01*
X107638452Y-72076965D01*
X107620000Y-71925000D01*
X107638452Y-71773035D01*
X107692735Y-71629901D01*
X107779696Y-71503917D01*
X107894279Y-71402405D01*
X108029826Y-71331265D01*
X108178459Y-71294630D01*
X108331541Y-71294630D01*
X108480174Y-71331265D01*
G37*
G36*
X79047568Y-70224930D02*
G01*
X79094076Y-70224930D01*
X79134232Y-70233465D01*
X79175530Y-70237533D01*
X79227415Y-70253272D01*
X79278115Y-70264049D01*
X79310558Y-70278493D01*
X79344319Y-70288735D01*
X79397967Y-70317410D01*
X79450000Y-70340577D01*
X79474192Y-70358153D01*
X79499878Y-70371883D01*
X79552271Y-70414881D01*
X79602218Y-70451170D01*
X79618436Y-70469182D01*
X79636221Y-70483778D01*
X79684018Y-70542018D01*
X79728115Y-70590993D01*
X79737377Y-70607036D01*
X79748116Y-70620121D01*
X79787840Y-70694440D01*
X79822191Y-70753937D01*
X79826142Y-70766098D01*
X79831264Y-70775680D01*
X79859504Y-70868775D01*
X79880333Y-70932879D01*
X79881066Y-70939854D01*
X79882466Y-70944469D01*
X79896090Y-71082802D01*
X79900000Y-71120000D01*
X79896090Y-71157200D01*
X79882466Y-71295530D01*
X79881066Y-71300144D01*
X79880333Y-71307121D01*
X79859500Y-71371238D01*
X79831264Y-71464319D01*
X79826143Y-71473899D01*
X79822191Y-71486063D01*
X79787833Y-71545572D01*
X79748116Y-71619878D01*
X79737379Y-71632960D01*
X79728115Y-71649007D01*
X79684009Y-71697991D01*
X79636221Y-71756221D01*
X79618439Y-71770813D01*
X79602218Y-71788830D01*
X79552260Y-71825126D01*
X79499878Y-71868116D01*
X79474197Y-71881842D01*
X79450000Y-71899423D01*
X79397955Y-71922594D01*
X79344319Y-71951264D01*
X79310565Y-71961503D01*
X79278115Y-71975951D01*
X79227404Y-71986729D01*
X79175530Y-72002466D01*
X79134241Y-72006532D01*
X79094076Y-72015070D01*
X79047558Y-72015070D01*
X79000000Y-72019754D01*
X78952442Y-72015070D01*
X78905924Y-72015070D01*
X78865759Y-72006532D01*
X78824469Y-72002466D01*
X78772592Y-71986729D01*
X78721885Y-71975951D01*
X78689436Y-71961503D01*
X78655680Y-71951264D01*
X78602038Y-71922591D01*
X78550000Y-71899423D01*
X78525805Y-71881844D01*
X78500121Y-71868116D01*
X78447730Y-71825119D01*
X78397782Y-71788830D01*
X78381562Y-71770816D01*
X78363778Y-71756221D01*
X78315979Y-71697978D01*
X78271885Y-71649007D01*
X78262622Y-71632964D01*
X78251883Y-71619878D01*
X78212153Y-71545548D01*
X78177809Y-71486063D01*
X78173858Y-71473903D01*
X78168735Y-71464319D01*
X78140484Y-71371191D01*
X78119667Y-71307121D01*
X78118934Y-71300149D01*
X78117533Y-71295530D01*
X78103893Y-71157049D01*
X78100000Y-71120000D01*
X78103893Y-71082953D01*
X78117533Y-70944469D01*
X78118934Y-70939849D01*
X78119667Y-70932879D01*
X78140480Y-70868822D01*
X78168735Y-70775680D01*
X78173859Y-70766093D01*
X78177809Y-70753937D01*
X78212145Y-70694463D01*
X78251883Y-70620121D01*
X78262624Y-70607032D01*
X78271885Y-70590993D01*
X78315970Y-70542031D01*
X78363778Y-70483778D01*
X78381566Y-70469179D01*
X78397782Y-70451170D01*
X78447719Y-70414888D01*
X78500121Y-70371883D01*
X78525810Y-70358151D01*
X78550000Y-70340577D01*
X78602026Y-70317413D01*
X78655680Y-70288735D01*
X78689443Y-70278492D01*
X78721885Y-70264049D01*
X78772581Y-70253273D01*
X78824469Y-70237533D01*
X78865768Y-70233465D01*
X78905924Y-70224930D01*
X78952432Y-70224930D01*
X79000000Y-70220245D01*
X79047568Y-70224930D01*
G37*
G36*
X166129561Y-69417105D02*
G01*
X166290619Y-69473462D01*
X166435099Y-69564244D01*
X166555756Y-69684901D01*
X166646538Y-69829381D01*
X166702895Y-69990439D01*
X166722000Y-70160000D01*
X166702895Y-70329561D01*
X166646538Y-70490619D01*
X166555756Y-70635099D01*
X166435099Y-70755756D01*
X166290619Y-70846538D01*
X166129561Y-70902895D01*
X165960000Y-70922000D01*
X165790439Y-70902895D01*
X165629381Y-70846538D01*
X165484901Y-70755756D01*
X165364244Y-70635099D01*
X165273462Y-70490619D01*
X165217105Y-70329561D01*
X165198000Y-70160000D01*
X165217105Y-69990439D01*
X165273462Y-69829381D01*
X165364244Y-69684901D01*
X165484901Y-69564244D01*
X165629381Y-69473462D01*
X165790439Y-69417105D01*
X165960000Y-69398000D01*
X166129561Y-69417105D01*
G37*
G36*
X168669561Y-69417105D02*
G01*
X168830619Y-69473462D01*
X168975099Y-69564244D01*
X169095756Y-69684901D01*
X169186538Y-69829381D01*
X169242895Y-69990439D01*
X169262000Y-70160000D01*
X169242895Y-70329561D01*
X169186538Y-70490619D01*
X169095756Y-70635099D01*
X168975099Y-70755756D01*
X168830619Y-70846538D01*
X168669561Y-70902895D01*
X168500000Y-70922000D01*
X168330439Y-70902895D01*
X168169381Y-70846538D01*
X168024901Y-70755756D01*
X167904244Y-70635099D01*
X167813462Y-70490619D01*
X167757105Y-70329561D01*
X167738000Y-70160000D01*
X167757105Y-69990439D01*
X167813462Y-69829381D01*
X167904244Y-69684901D01*
X168024901Y-69564244D01*
X168169381Y-69473462D01*
X168330439Y-69417105D01*
X168500000Y-69398000D01*
X168669561Y-69417105D01*
G37*
G36*
X73967568Y-68954930D02*
G01*
X74014076Y-68954930D01*
X74054232Y-68963465D01*
X74095530Y-68967533D01*
X74147415Y-68983272D01*
X74198115Y-68994049D01*
X74230558Y-69008493D01*
X74264319Y-69018735D01*
X74317967Y-69047410D01*
X74370000Y-69070577D01*
X74394192Y-69088153D01*
X74419878Y-69101883D01*
X74472271Y-69144881D01*
X74522218Y-69181170D01*
X74538436Y-69199182D01*
X74556221Y-69213778D01*
X74604018Y-69272018D01*
X74648115Y-69320993D01*
X74657377Y-69337036D01*
X74668116Y-69350121D01*
X74707840Y-69424440D01*
X74742191Y-69483937D01*
X74746142Y-69496098D01*
X74751264Y-69505680D01*
X74779504Y-69598775D01*
X74800333Y-69662879D01*
X74801066Y-69669854D01*
X74802466Y-69674469D01*
X74816090Y-69812802D01*
X74820000Y-69850000D01*
X74816090Y-69887200D01*
X74802466Y-70025530D01*
X74801066Y-70030144D01*
X74800333Y-70037121D01*
X74779500Y-70101238D01*
X74751264Y-70194319D01*
X74746143Y-70203899D01*
X74742191Y-70216063D01*
X74707833Y-70275572D01*
X74668116Y-70349878D01*
X74657379Y-70362960D01*
X74648115Y-70379007D01*
X74604009Y-70427991D01*
X74556221Y-70486221D01*
X74538439Y-70500813D01*
X74522218Y-70518830D01*
X74472260Y-70555126D01*
X74419878Y-70598116D01*
X74394197Y-70611842D01*
X74370000Y-70629423D01*
X74317955Y-70652594D01*
X74264319Y-70681264D01*
X74230565Y-70691503D01*
X74198115Y-70705951D01*
X74147404Y-70716729D01*
X74095530Y-70732466D01*
X74054241Y-70736532D01*
X74014076Y-70745070D01*
X73967558Y-70745070D01*
X73920000Y-70749754D01*
X73872442Y-70745070D01*
X73825924Y-70745070D01*
X73785759Y-70736532D01*
X73744469Y-70732466D01*
X73692592Y-70716729D01*
X73641885Y-70705951D01*
X73609436Y-70691503D01*
X73575680Y-70681264D01*
X73522038Y-70652591D01*
X73470000Y-70629423D01*
X73445805Y-70611844D01*
X73420121Y-70598116D01*
X73367730Y-70555119D01*
X73317782Y-70518830D01*
X73301562Y-70500816D01*
X73283778Y-70486221D01*
X73235979Y-70427978D01*
X73191885Y-70379007D01*
X73182622Y-70362964D01*
X73171883Y-70349878D01*
X73132153Y-70275548D01*
X73097809Y-70216063D01*
X73093858Y-70203903D01*
X73088735Y-70194319D01*
X73060484Y-70101191D01*
X73039667Y-70037121D01*
X73038934Y-70030149D01*
X73037533Y-70025530D01*
X73023893Y-69887049D01*
X73020000Y-69850000D01*
X73023893Y-69812953D01*
X73037533Y-69674469D01*
X73038934Y-69669849D01*
X73039667Y-69662879D01*
X73060480Y-69598822D01*
X73088735Y-69505680D01*
X73093859Y-69496093D01*
X73097809Y-69483937D01*
X73132145Y-69424463D01*
X73171883Y-69350121D01*
X73182624Y-69337032D01*
X73191885Y-69320993D01*
X73235970Y-69272031D01*
X73283778Y-69213778D01*
X73301566Y-69199179D01*
X73317782Y-69181170D01*
X73367719Y-69144888D01*
X73420121Y-69101883D01*
X73445810Y-69088151D01*
X73470000Y-69070577D01*
X73522026Y-69047413D01*
X73575680Y-69018735D01*
X73609443Y-69008492D01*
X73641885Y-68994049D01*
X73692581Y-68983273D01*
X73744469Y-68967533D01*
X73785768Y-68963465D01*
X73825924Y-68954930D01*
X73872432Y-68954930D01*
X73920000Y-68950245D01*
X73967568Y-68954930D01*
G37*
G36*
X108480174Y-68831265D02*
G01*
X108615721Y-68902405D01*
X108730304Y-69003917D01*
X108817265Y-69129901D01*
X108871548Y-69273035D01*
X108890000Y-69425000D01*
X108871548Y-69576965D01*
X108817265Y-69720099D01*
X108730304Y-69846083D01*
X108615721Y-69947595D01*
X108480174Y-70018735D01*
X108331541Y-70055370D01*
X108178459Y-70055370D01*
X108029826Y-70018735D01*
X107894279Y-69947595D01*
X107779696Y-69846083D01*
X107692735Y-69720099D01*
X107638452Y-69576965D01*
X107620000Y-69425000D01*
X107638452Y-69273035D01*
X107692735Y-69129901D01*
X107779696Y-69003917D01*
X107894279Y-68902405D01*
X108029826Y-68831265D01*
X108178459Y-68794630D01*
X108331541Y-68794630D01*
X108480174Y-68831265D01*
G37*
G36*
X79047568Y-67684930D02*
G01*
X79094076Y-67684930D01*
X79134232Y-67693465D01*
X79175530Y-67697533D01*
X79227415Y-67713272D01*
X79278115Y-67724049D01*
X79310558Y-67738493D01*
X79344319Y-67748735D01*
X79397967Y-67777410D01*
X79450000Y-67800577D01*
X79474192Y-67818153D01*
X79499878Y-67831883D01*
X79552271Y-67874881D01*
X79602218Y-67911170D01*
X79618436Y-67929182D01*
X79636221Y-67943778D01*
X79684018Y-68002018D01*
X79728115Y-68050993D01*
X79737377Y-68067036D01*
X79748116Y-68080121D01*
X79787840Y-68154440D01*
X79822191Y-68213937D01*
X79826142Y-68226098D01*
X79831264Y-68235680D01*
X79859504Y-68328775D01*
X79880333Y-68392879D01*
X79881066Y-68399854D01*
X79882466Y-68404469D01*
X79896090Y-68542802D01*
X79900000Y-68580000D01*
X79896090Y-68617200D01*
X79882466Y-68755530D01*
X79881066Y-68760144D01*
X79880333Y-68767121D01*
X79859500Y-68831238D01*
X79831264Y-68924319D01*
X79826143Y-68933899D01*
X79822191Y-68946063D01*
X79787833Y-69005572D01*
X79748116Y-69079878D01*
X79737379Y-69092960D01*
X79728115Y-69109007D01*
X79684009Y-69157991D01*
X79636221Y-69216221D01*
X79618439Y-69230813D01*
X79602218Y-69248830D01*
X79552260Y-69285126D01*
X79499878Y-69328116D01*
X79474197Y-69341842D01*
X79450000Y-69359423D01*
X79397955Y-69382594D01*
X79344319Y-69411264D01*
X79310565Y-69421503D01*
X79278115Y-69435951D01*
X79227404Y-69446729D01*
X79175530Y-69462466D01*
X79134241Y-69466532D01*
X79094076Y-69475070D01*
X79047558Y-69475070D01*
X79000000Y-69479754D01*
X78952442Y-69475070D01*
X78905924Y-69475070D01*
X78865759Y-69466532D01*
X78824469Y-69462466D01*
X78772592Y-69446729D01*
X78721885Y-69435951D01*
X78689436Y-69421503D01*
X78655680Y-69411264D01*
X78602038Y-69382591D01*
X78550000Y-69359423D01*
X78525805Y-69341844D01*
X78500121Y-69328116D01*
X78447730Y-69285119D01*
X78397782Y-69248830D01*
X78381562Y-69230816D01*
X78363778Y-69216221D01*
X78315979Y-69157978D01*
X78271885Y-69109007D01*
X78262622Y-69092964D01*
X78251883Y-69079878D01*
X78212153Y-69005548D01*
X78177809Y-68946063D01*
X78173858Y-68933903D01*
X78168735Y-68924319D01*
X78140484Y-68831191D01*
X78119667Y-68767121D01*
X78118934Y-68760149D01*
X78117533Y-68755530D01*
X78103893Y-68617049D01*
X78100000Y-68580000D01*
X78103893Y-68542953D01*
X78117533Y-68404469D01*
X78118934Y-68399849D01*
X78119667Y-68392879D01*
X78140480Y-68328822D01*
X78168735Y-68235680D01*
X78173859Y-68226093D01*
X78177809Y-68213937D01*
X78212145Y-68154463D01*
X78251883Y-68080121D01*
X78262624Y-68067032D01*
X78271885Y-68050993D01*
X78315970Y-68002031D01*
X78363778Y-67943778D01*
X78381566Y-67929179D01*
X78397782Y-67911170D01*
X78447719Y-67874888D01*
X78500121Y-67831883D01*
X78525810Y-67818151D01*
X78550000Y-67800577D01*
X78602026Y-67777413D01*
X78655680Y-67748735D01*
X78689443Y-67738492D01*
X78721885Y-67724049D01*
X78772581Y-67713273D01*
X78824469Y-67697533D01*
X78865768Y-67693465D01*
X78905924Y-67684930D01*
X78952432Y-67684930D01*
X79000000Y-67680245D01*
X79047568Y-67684930D01*
G37*
G36*
X166129561Y-66877105D02*
G01*
X166290619Y-66933462D01*
X166435099Y-67024244D01*
X166555756Y-67144901D01*
X166646538Y-67289381D01*
X166702895Y-67450439D01*
X166722000Y-67620000D01*
X166702895Y-67789561D01*
X166646538Y-67950619D01*
X166555756Y-68095099D01*
X166435099Y-68215756D01*
X166290619Y-68306538D01*
X166129561Y-68362895D01*
X165960000Y-68382000D01*
X165790439Y-68362895D01*
X165629381Y-68306538D01*
X165484901Y-68215756D01*
X165364244Y-68095099D01*
X165273462Y-67950619D01*
X165217105Y-67789561D01*
X165198000Y-67620000D01*
X165217105Y-67450439D01*
X165273462Y-67289381D01*
X165364244Y-67144901D01*
X165484901Y-67024244D01*
X165629381Y-66933462D01*
X165790439Y-66877105D01*
X165960000Y-66858000D01*
X166129561Y-66877105D01*
G37*
G36*
X168669561Y-66877105D02*
G01*
X168830619Y-66933462D01*
X168975099Y-67024244D01*
X169095756Y-67144901D01*
X169186538Y-67289381D01*
X169242895Y-67450439D01*
X169262000Y-67620000D01*
X169242895Y-67789561D01*
X169186538Y-67950619D01*
X169095756Y-68095099D01*
X168975099Y-68215756D01*
X168830619Y-68306538D01*
X168669561Y-68362895D01*
X168500000Y-68382000D01*
X168330439Y-68362895D01*
X168169381Y-68306538D01*
X168024901Y-68215756D01*
X167904244Y-68095099D01*
X167813462Y-67950619D01*
X167757105Y-67789561D01*
X167738000Y-67620000D01*
X167757105Y-67450439D01*
X167813462Y-67289381D01*
X167904244Y-67144901D01*
X168024901Y-67024244D01*
X168169381Y-66933462D01*
X168330439Y-66877105D01*
X168500000Y-66858000D01*
X168669561Y-66877105D01*
G37*
G36*
X73967568Y-66414930D02*
G01*
X74014076Y-66414930D01*
X74054232Y-66423465D01*
X74095530Y-66427533D01*
X74147415Y-66443272D01*
X74198115Y-66454049D01*
X74230558Y-66468493D01*
X74264319Y-66478735D01*
X74317967Y-66507410D01*
X74370000Y-66530577D01*
X74394192Y-66548153D01*
X74419878Y-66561883D01*
X74472271Y-66604881D01*
X74522218Y-66641170D01*
X74538436Y-66659182D01*
X74556221Y-66673778D01*
X74604018Y-66732018D01*
X74648115Y-66780993D01*
X74657377Y-66797036D01*
X74668116Y-66810121D01*
X74707840Y-66884440D01*
X74742191Y-66943937D01*
X74746142Y-66956098D01*
X74751264Y-66965680D01*
X74779504Y-67058775D01*
X74800333Y-67122879D01*
X74801066Y-67129854D01*
X74802466Y-67134469D01*
X74816090Y-67272802D01*
X74820000Y-67310000D01*
X74816090Y-67347200D01*
X74802466Y-67485530D01*
X74801066Y-67490144D01*
X74800333Y-67497121D01*
X74779500Y-67561238D01*
X74751264Y-67654319D01*
X74746143Y-67663899D01*
X74742191Y-67676063D01*
X74707833Y-67735572D01*
X74668116Y-67809878D01*
X74657379Y-67822960D01*
X74648115Y-67839007D01*
X74604009Y-67887991D01*
X74556221Y-67946221D01*
X74538439Y-67960813D01*
X74522218Y-67978830D01*
X74472260Y-68015126D01*
X74419878Y-68058116D01*
X74394197Y-68071842D01*
X74370000Y-68089423D01*
X74317955Y-68112594D01*
X74264319Y-68141264D01*
X74230565Y-68151503D01*
X74198115Y-68165951D01*
X74147404Y-68176729D01*
X74095530Y-68192466D01*
X74054241Y-68196532D01*
X74014076Y-68205070D01*
X73967558Y-68205070D01*
X73920000Y-68209754D01*
X73872442Y-68205070D01*
X73825924Y-68205070D01*
X73785759Y-68196532D01*
X73744469Y-68192466D01*
X73692592Y-68176729D01*
X73641885Y-68165951D01*
X73609436Y-68151503D01*
X73575680Y-68141264D01*
X73522038Y-68112591D01*
X73470000Y-68089423D01*
X73445805Y-68071844D01*
X73420121Y-68058116D01*
X73367730Y-68015119D01*
X73317782Y-67978830D01*
X73301562Y-67960816D01*
X73283778Y-67946221D01*
X73235979Y-67887978D01*
X73191885Y-67839007D01*
X73182622Y-67822964D01*
X73171883Y-67809878D01*
X73132153Y-67735548D01*
X73097809Y-67676063D01*
X73093858Y-67663903D01*
X73088735Y-67654319D01*
X73060484Y-67561191D01*
X73039667Y-67497121D01*
X73038934Y-67490149D01*
X73037533Y-67485530D01*
X73023893Y-67347049D01*
X73020000Y-67310000D01*
X73023893Y-67272953D01*
X73037533Y-67134469D01*
X73038934Y-67129849D01*
X73039667Y-67122879D01*
X73060480Y-67058822D01*
X73088735Y-66965680D01*
X73093859Y-66956093D01*
X73097809Y-66943937D01*
X73132145Y-66884463D01*
X73171883Y-66810121D01*
X73182624Y-66797032D01*
X73191885Y-66780993D01*
X73235970Y-66732031D01*
X73283778Y-66673778D01*
X73301566Y-66659179D01*
X73317782Y-66641170D01*
X73367719Y-66604888D01*
X73420121Y-66561883D01*
X73445810Y-66548151D01*
X73470000Y-66530577D01*
X73522026Y-66507413D01*
X73575680Y-66478735D01*
X73609443Y-66468492D01*
X73641885Y-66454049D01*
X73692581Y-66443273D01*
X73744469Y-66427533D01*
X73785768Y-66423465D01*
X73825924Y-66414930D01*
X73872432Y-66414930D01*
X73920000Y-66410245D01*
X73967568Y-66414930D01*
G37*
G36*
X79047568Y-65144930D02*
G01*
X79094076Y-65144930D01*
X79134232Y-65153465D01*
X79175530Y-65157533D01*
X79227415Y-65173272D01*
X79278115Y-65184049D01*
X79310558Y-65198493D01*
X79344319Y-65208735D01*
X79397967Y-65237410D01*
X79450000Y-65260577D01*
X79474192Y-65278153D01*
X79499878Y-65291883D01*
X79552271Y-65334881D01*
X79602218Y-65371170D01*
X79618436Y-65389182D01*
X79636221Y-65403778D01*
X79684018Y-65462018D01*
X79728115Y-65510993D01*
X79737377Y-65527036D01*
X79748116Y-65540121D01*
X79787840Y-65614440D01*
X79822191Y-65673937D01*
X79826142Y-65686098D01*
X79831264Y-65695680D01*
X79859504Y-65788775D01*
X79880333Y-65852879D01*
X79881066Y-65859854D01*
X79882466Y-65864469D01*
X79896090Y-66002802D01*
X79900000Y-66040000D01*
X79896090Y-66077200D01*
X79882466Y-66215530D01*
X79881066Y-66220144D01*
X79880333Y-66227121D01*
X79859500Y-66291238D01*
X79831264Y-66384319D01*
X79826143Y-66393899D01*
X79822191Y-66406063D01*
X79787833Y-66465572D01*
X79748116Y-66539878D01*
X79737379Y-66552960D01*
X79728115Y-66569007D01*
X79684009Y-66617991D01*
X79636221Y-66676221D01*
X79618439Y-66690813D01*
X79602218Y-66708830D01*
X79552260Y-66745126D01*
X79499878Y-66788116D01*
X79474197Y-66801842D01*
X79450000Y-66819423D01*
X79397955Y-66842594D01*
X79344319Y-66871264D01*
X79310565Y-66881503D01*
X79278115Y-66895951D01*
X79227404Y-66906729D01*
X79175530Y-66922466D01*
X79134241Y-66926532D01*
X79094076Y-66935070D01*
X79047558Y-66935070D01*
X79000000Y-66939754D01*
X78952442Y-66935070D01*
X78905924Y-66935070D01*
X78865759Y-66926532D01*
X78824469Y-66922466D01*
X78772592Y-66906729D01*
X78721885Y-66895951D01*
X78689436Y-66881503D01*
X78655680Y-66871264D01*
X78602038Y-66842591D01*
X78550000Y-66819423D01*
X78525805Y-66801844D01*
X78500121Y-66788116D01*
X78447730Y-66745119D01*
X78397782Y-66708830D01*
X78381562Y-66690816D01*
X78363778Y-66676221D01*
X78315979Y-66617978D01*
X78271885Y-66569007D01*
X78262622Y-66552964D01*
X78251883Y-66539878D01*
X78212153Y-66465548D01*
X78177809Y-66406063D01*
X78173858Y-66393903D01*
X78168735Y-66384319D01*
X78140484Y-66291191D01*
X78119667Y-66227121D01*
X78118934Y-66220149D01*
X78117533Y-66215530D01*
X78103893Y-66077049D01*
X78100000Y-66040000D01*
X78103893Y-66002953D01*
X78117533Y-65864469D01*
X78118934Y-65859849D01*
X78119667Y-65852879D01*
X78140480Y-65788822D01*
X78168735Y-65695680D01*
X78173859Y-65686093D01*
X78177809Y-65673937D01*
X78212145Y-65614463D01*
X78251883Y-65540121D01*
X78262624Y-65527032D01*
X78271885Y-65510993D01*
X78315970Y-65462031D01*
X78363778Y-65403778D01*
X78381566Y-65389179D01*
X78397782Y-65371170D01*
X78447719Y-65334888D01*
X78500121Y-65291883D01*
X78525810Y-65278151D01*
X78550000Y-65260577D01*
X78602026Y-65237413D01*
X78655680Y-65208735D01*
X78689443Y-65198492D01*
X78721885Y-65184049D01*
X78772581Y-65173273D01*
X78824469Y-65157533D01*
X78865768Y-65153465D01*
X78905924Y-65144930D01*
X78952432Y-65144930D01*
X79000000Y-65140245D01*
X79047568Y-65144930D01*
G37*
G36*
X166129561Y-64337105D02*
G01*
X166290619Y-64393462D01*
X166435099Y-64484244D01*
X166555756Y-64604901D01*
X166646538Y-64749381D01*
X166702895Y-64910439D01*
X166722000Y-65080000D01*
X166702895Y-65249561D01*
X166646538Y-65410619D01*
X166555756Y-65555099D01*
X166435099Y-65675756D01*
X166290619Y-65766538D01*
X166129561Y-65822895D01*
X165960000Y-65842000D01*
X165790439Y-65822895D01*
X165629381Y-65766538D01*
X165484901Y-65675756D01*
X165364244Y-65555099D01*
X165273462Y-65410619D01*
X165217105Y-65249561D01*
X165198000Y-65080000D01*
X165217105Y-64910439D01*
X165273462Y-64749381D01*
X165364244Y-64604901D01*
X165484901Y-64484244D01*
X165629381Y-64393462D01*
X165790439Y-64337105D01*
X165960000Y-64318000D01*
X166129561Y-64337105D01*
G37*
G36*
X168669561Y-64337105D02*
G01*
X168830619Y-64393462D01*
X168975099Y-64484244D01*
X169095756Y-64604901D01*
X169186538Y-64749381D01*
X169242895Y-64910439D01*
X169262000Y-65080000D01*
X169242895Y-65249561D01*
X169186538Y-65410619D01*
X169095756Y-65555099D01*
X168975099Y-65675756D01*
X168830619Y-65766538D01*
X168669561Y-65822895D01*
X168500000Y-65842000D01*
X168330439Y-65822895D01*
X168169381Y-65766538D01*
X168024901Y-65675756D01*
X167904244Y-65555099D01*
X167813462Y-65410619D01*
X167757105Y-65249561D01*
X167738000Y-65080000D01*
X167757105Y-64910439D01*
X167813462Y-64749381D01*
X167904244Y-64604901D01*
X168024901Y-64484244D01*
X168169381Y-64393462D01*
X168330439Y-64337105D01*
X168500000Y-64318000D01*
X168669561Y-64337105D01*
G37*
G36*
X73967568Y-63874930D02*
G01*
X74014076Y-63874930D01*
X74054232Y-63883465D01*
X74095530Y-63887533D01*
X74147415Y-63903272D01*
X74198115Y-63914049D01*
X74230558Y-63928493D01*
X74264319Y-63938735D01*
X74317967Y-63967410D01*
X74370000Y-63990577D01*
X74394192Y-64008153D01*
X74419878Y-64021883D01*
X74472271Y-64064881D01*
X74522218Y-64101170D01*
X74538436Y-64119182D01*
X74556221Y-64133778D01*
X74604018Y-64192018D01*
X74648115Y-64240993D01*
X74657377Y-64257036D01*
X74668116Y-64270121D01*
X74707840Y-64344440D01*
X74742191Y-64403937D01*
X74746142Y-64416098D01*
X74751264Y-64425680D01*
X74779504Y-64518775D01*
X74800333Y-64582879D01*
X74801066Y-64589854D01*
X74802466Y-64594469D01*
X74816090Y-64732802D01*
X74820000Y-64770000D01*
X74816090Y-64807200D01*
X74802466Y-64945530D01*
X74801066Y-64950144D01*
X74800333Y-64957121D01*
X74779500Y-65021238D01*
X74751264Y-65114319D01*
X74746143Y-65123899D01*
X74742191Y-65136063D01*
X74707833Y-65195572D01*
X74668116Y-65269878D01*
X74657379Y-65282960D01*
X74648115Y-65299007D01*
X74604009Y-65347991D01*
X74556221Y-65406221D01*
X74538439Y-65420813D01*
X74522218Y-65438830D01*
X74472260Y-65475126D01*
X74419878Y-65518116D01*
X74394197Y-65531842D01*
X74370000Y-65549423D01*
X74317955Y-65572594D01*
X74264319Y-65601264D01*
X74230565Y-65611503D01*
X74198115Y-65625951D01*
X74147404Y-65636729D01*
X74095530Y-65652466D01*
X74054241Y-65656532D01*
X74014076Y-65665070D01*
X73967558Y-65665070D01*
X73920000Y-65669754D01*
X73872442Y-65665070D01*
X73825924Y-65665070D01*
X73785759Y-65656532D01*
X73744469Y-65652466D01*
X73692592Y-65636729D01*
X73641885Y-65625951D01*
X73609436Y-65611503D01*
X73575680Y-65601264D01*
X73522038Y-65572591D01*
X73470000Y-65549423D01*
X73445805Y-65531844D01*
X73420121Y-65518116D01*
X73367730Y-65475119D01*
X73317782Y-65438830D01*
X73301562Y-65420816D01*
X73283778Y-65406221D01*
X73235979Y-65347978D01*
X73191885Y-65299007D01*
X73182622Y-65282964D01*
X73171883Y-65269878D01*
X73132153Y-65195548D01*
X73097809Y-65136063D01*
X73093858Y-65123903D01*
X73088735Y-65114319D01*
X73060484Y-65021191D01*
X73039667Y-64957121D01*
X73038934Y-64950149D01*
X73037533Y-64945530D01*
X73023893Y-64807049D01*
X73020000Y-64770000D01*
X73023893Y-64732953D01*
X73037533Y-64594469D01*
X73038934Y-64589849D01*
X73039667Y-64582879D01*
X73060480Y-64518822D01*
X73088735Y-64425680D01*
X73093859Y-64416093D01*
X73097809Y-64403937D01*
X73132145Y-64344463D01*
X73171883Y-64270121D01*
X73182624Y-64257032D01*
X73191885Y-64240993D01*
X73235970Y-64192031D01*
X73283778Y-64133778D01*
X73301566Y-64119179D01*
X73317782Y-64101170D01*
X73367719Y-64064888D01*
X73420121Y-64021883D01*
X73445810Y-64008151D01*
X73470000Y-63990577D01*
X73522026Y-63967413D01*
X73575680Y-63938735D01*
X73609443Y-63928492D01*
X73641885Y-63914049D01*
X73692581Y-63903273D01*
X73744469Y-63887533D01*
X73785768Y-63883465D01*
X73825924Y-63874930D01*
X73872432Y-63874930D01*
X73920000Y-63870245D01*
X73967568Y-63874930D01*
G37*
G36*
X79047568Y-62604930D02*
G01*
X79094076Y-62604930D01*
X79134232Y-62613465D01*
X79175530Y-62617533D01*
X79227415Y-62633272D01*
X79278115Y-62644049D01*
X79310558Y-62658493D01*
X79344319Y-62668735D01*
X79397967Y-62697410D01*
X79450000Y-62720577D01*
X79474192Y-62738153D01*
X79499878Y-62751883D01*
X79552271Y-62794881D01*
X79602218Y-62831170D01*
X79618436Y-62849182D01*
X79636221Y-62863778D01*
X79684018Y-62922018D01*
X79728115Y-62970993D01*
X79737377Y-62987036D01*
X79748116Y-63000121D01*
X79787840Y-63074440D01*
X79822191Y-63133937D01*
X79826142Y-63146098D01*
X79831264Y-63155680D01*
X79859504Y-63248775D01*
X79880333Y-63312879D01*
X79881066Y-63319854D01*
X79882466Y-63324469D01*
X79896090Y-63462802D01*
X79900000Y-63500000D01*
X79896090Y-63537200D01*
X79882466Y-63675530D01*
X79881066Y-63680144D01*
X79880333Y-63687121D01*
X79859500Y-63751238D01*
X79831264Y-63844319D01*
X79826143Y-63853899D01*
X79822191Y-63866063D01*
X79787833Y-63925572D01*
X79748116Y-63999878D01*
X79737379Y-64012960D01*
X79728115Y-64029007D01*
X79684009Y-64077991D01*
X79636221Y-64136221D01*
X79618439Y-64150813D01*
X79602218Y-64168830D01*
X79552260Y-64205126D01*
X79499878Y-64248116D01*
X79474197Y-64261842D01*
X79450000Y-64279423D01*
X79397955Y-64302594D01*
X79344319Y-64331264D01*
X79310565Y-64341503D01*
X79278115Y-64355951D01*
X79227404Y-64366729D01*
X79175530Y-64382466D01*
X79134241Y-64386532D01*
X79094076Y-64395070D01*
X79047558Y-64395070D01*
X79000000Y-64399754D01*
X78952442Y-64395070D01*
X78905924Y-64395070D01*
X78865759Y-64386532D01*
X78824469Y-64382466D01*
X78772592Y-64366729D01*
X78721885Y-64355951D01*
X78689436Y-64341503D01*
X78655680Y-64331264D01*
X78602038Y-64302591D01*
X78550000Y-64279423D01*
X78525805Y-64261844D01*
X78500121Y-64248116D01*
X78447730Y-64205119D01*
X78397782Y-64168830D01*
X78381562Y-64150816D01*
X78363778Y-64136221D01*
X78315979Y-64077978D01*
X78271885Y-64029007D01*
X78262622Y-64012964D01*
X78251883Y-63999878D01*
X78212153Y-63925548D01*
X78177809Y-63866063D01*
X78173858Y-63853903D01*
X78168735Y-63844319D01*
X78140484Y-63751191D01*
X78119667Y-63687121D01*
X78118934Y-63680149D01*
X78117533Y-63675530D01*
X78103893Y-63537049D01*
X78100000Y-63500000D01*
X78103893Y-63462953D01*
X78117533Y-63324469D01*
X78118934Y-63319849D01*
X78119667Y-63312879D01*
X78140480Y-63248822D01*
X78168735Y-63155680D01*
X78173859Y-63146093D01*
X78177809Y-63133937D01*
X78212145Y-63074463D01*
X78251883Y-63000121D01*
X78262624Y-62987032D01*
X78271885Y-62970993D01*
X78315970Y-62922031D01*
X78363778Y-62863778D01*
X78381566Y-62849179D01*
X78397782Y-62831170D01*
X78447719Y-62794888D01*
X78500121Y-62751883D01*
X78525810Y-62738151D01*
X78550000Y-62720577D01*
X78602026Y-62697413D01*
X78655680Y-62668735D01*
X78689443Y-62658492D01*
X78721885Y-62644049D01*
X78772581Y-62633273D01*
X78824469Y-62617533D01*
X78865768Y-62613465D01*
X78905924Y-62604930D01*
X78952432Y-62604930D01*
X79000000Y-62600245D01*
X79047568Y-62604930D01*
G37*
G36*
X166129561Y-61797105D02*
G01*
X166290619Y-61853462D01*
X166435099Y-61944244D01*
X166555756Y-62064901D01*
X166646538Y-62209381D01*
X166702895Y-62370439D01*
X166722000Y-62540000D01*
X166702895Y-62709561D01*
X166646538Y-62870619D01*
X166555756Y-63015099D01*
X166435099Y-63135756D01*
X166290619Y-63226538D01*
X166129561Y-63282895D01*
X165960000Y-63302000D01*
X165790439Y-63282895D01*
X165629381Y-63226538D01*
X165484901Y-63135756D01*
X165364244Y-63015099D01*
X165273462Y-62870619D01*
X165217105Y-62709561D01*
X165198000Y-62540000D01*
X165217105Y-62370439D01*
X165273462Y-62209381D01*
X165364244Y-62064901D01*
X165484901Y-61944244D01*
X165629381Y-61853462D01*
X165790439Y-61797105D01*
X165960000Y-61778000D01*
X166129561Y-61797105D01*
G37*
G36*
X168669561Y-61797105D02*
G01*
X168830619Y-61853462D01*
X168975099Y-61944244D01*
X169095756Y-62064901D01*
X169186538Y-62209381D01*
X169242895Y-62370439D01*
X169262000Y-62540000D01*
X169242895Y-62709561D01*
X169186538Y-62870619D01*
X169095756Y-63015099D01*
X168975099Y-63135756D01*
X168830619Y-63226538D01*
X168669561Y-63282895D01*
X168500000Y-63302000D01*
X168330439Y-63282895D01*
X168169381Y-63226538D01*
X168024901Y-63135756D01*
X167904244Y-63015099D01*
X167813462Y-62870619D01*
X167757105Y-62709561D01*
X167738000Y-62540000D01*
X167757105Y-62370439D01*
X167813462Y-62209381D01*
X167904244Y-62064901D01*
X168024901Y-61944244D01*
X168169381Y-61853462D01*
X168330439Y-61797105D01*
X168500000Y-61778000D01*
X168669561Y-61797105D01*
G37*
G36*
X41678300Y-63237800D02*
G01*
X40052700Y-63237800D01*
X40052700Y-61612200D01*
X41678300Y-61612200D01*
X41678300Y-63237800D01*
G37*
G36*
X52083488Y-61616931D02*
G01*
X52126431Y-61616931D01*
X52174873Y-61627227D01*
X52222365Y-61632579D01*
X52256899Y-61644663D01*
X52292583Y-61652248D01*
X52344010Y-61675144D01*
X52394161Y-61692693D01*
X52420262Y-61709093D01*
X52447760Y-61721336D01*
X52499030Y-61758586D01*
X52548273Y-61789527D01*
X52565957Y-61807211D01*
X52585182Y-61821179D01*
X52632705Y-61873959D01*
X52676973Y-61918227D01*
X52687155Y-61934432D01*
X52698843Y-61947413D01*
X52738830Y-62016673D01*
X52773807Y-62072339D01*
X52778173Y-62084818D01*
X52783772Y-62094515D01*
X52812440Y-62182748D01*
X52833921Y-62244135D01*
X52834735Y-62251363D01*
X52836264Y-62256068D01*
X52850119Y-62387898D01*
X52854300Y-62425000D01*
X52850119Y-62462104D01*
X52836264Y-62593931D01*
X52834735Y-62598634D01*
X52833921Y-62605865D01*
X52812436Y-62667264D01*
X52783772Y-62755484D01*
X52778174Y-62765178D01*
X52773807Y-62777661D01*
X52738823Y-62833338D01*
X52698843Y-62902586D01*
X52687157Y-62915563D01*
X52676973Y-62931773D01*
X52632696Y-62976049D01*
X52585182Y-63028820D01*
X52565961Y-63042784D01*
X52548273Y-63060473D01*
X52499020Y-63091420D01*
X52447760Y-63128663D01*
X52420268Y-63140902D01*
X52394161Y-63157307D01*
X52344000Y-63174859D01*
X52292583Y-63197751D01*
X52256905Y-63205334D01*
X52222365Y-63217421D01*
X52174870Y-63222772D01*
X52126431Y-63233069D01*
X52083488Y-63233069D01*
X52041500Y-63237800D01*
X51999512Y-63233069D01*
X51956569Y-63233069D01*
X51908128Y-63222772D01*
X51860635Y-63217421D01*
X51826095Y-63205335D01*
X51790416Y-63197751D01*
X51738995Y-63174857D01*
X51688839Y-63157307D01*
X51662734Y-63140904D01*
X51635239Y-63128663D01*
X51583972Y-63091415D01*
X51534727Y-63060473D01*
X51517041Y-63042787D01*
X51497817Y-63028820D01*
X51450293Y-62976039D01*
X51406027Y-62931773D01*
X51395844Y-62915567D01*
X51384156Y-62902586D01*
X51344164Y-62833318D01*
X51309193Y-62777661D01*
X51304826Y-62765183D01*
X51299227Y-62755484D01*
X51270549Y-62667224D01*
X51249079Y-62605865D01*
X51248264Y-62598639D01*
X51246735Y-62593931D01*
X51232865Y-62461972D01*
X51228700Y-62425000D01*
X51232865Y-62388030D01*
X51246735Y-62256068D01*
X51248265Y-62251359D01*
X51249079Y-62244135D01*
X51270545Y-62182788D01*
X51299227Y-62094515D01*
X51304827Y-62084814D01*
X51309193Y-62072339D01*
X51344157Y-62016692D01*
X51384156Y-61947413D01*
X51395846Y-61934429D01*
X51406027Y-61918227D01*
X51450284Y-61873969D01*
X51497817Y-61821179D01*
X51517044Y-61807209D01*
X51534727Y-61789527D01*
X51583966Y-61758587D01*
X51635240Y-61721336D01*
X51662737Y-61709093D01*
X51688839Y-61692693D01*
X51738986Y-61675145D01*
X51790416Y-61652248D01*
X51826101Y-61644662D01*
X51860635Y-61632579D01*
X51908125Y-61627227D01*
X51956569Y-61616931D01*
X51999512Y-61616931D01*
X52041500Y-61612200D01*
X52083488Y-61616931D01*
G37*
G36*
X73967568Y-61334930D02*
G01*
X74014076Y-61334930D01*
X74054232Y-61343465D01*
X74095530Y-61347533D01*
X74147415Y-61363272D01*
X74198115Y-61374049D01*
X74230558Y-61388493D01*
X74264319Y-61398735D01*
X74317967Y-61427410D01*
X74370000Y-61450577D01*
X74394192Y-61468153D01*
X74419878Y-61481883D01*
X74472271Y-61524881D01*
X74522218Y-61561170D01*
X74538436Y-61579182D01*
X74556221Y-61593778D01*
X74604018Y-61652018D01*
X74648115Y-61700993D01*
X74657377Y-61717036D01*
X74668116Y-61730121D01*
X74707840Y-61804440D01*
X74742191Y-61863937D01*
X74746142Y-61876098D01*
X74751264Y-61885680D01*
X74779504Y-61978775D01*
X74800333Y-62042879D01*
X74801066Y-62049854D01*
X74802466Y-62054469D01*
X74816090Y-62192802D01*
X74820000Y-62230000D01*
X74816090Y-62267200D01*
X74802466Y-62405530D01*
X74801066Y-62410144D01*
X74800333Y-62417121D01*
X74779500Y-62481238D01*
X74751264Y-62574319D01*
X74746143Y-62583899D01*
X74742191Y-62596063D01*
X74707833Y-62655572D01*
X74668116Y-62729878D01*
X74657379Y-62742960D01*
X74648115Y-62759007D01*
X74604009Y-62807991D01*
X74556221Y-62866221D01*
X74538439Y-62880813D01*
X74522218Y-62898830D01*
X74472260Y-62935126D01*
X74419878Y-62978116D01*
X74394197Y-62991842D01*
X74370000Y-63009423D01*
X74317955Y-63032594D01*
X74264319Y-63061264D01*
X74230565Y-63071503D01*
X74198115Y-63085951D01*
X74147404Y-63096729D01*
X74095530Y-63112466D01*
X74054241Y-63116532D01*
X74014076Y-63125070D01*
X73967558Y-63125070D01*
X73920000Y-63129754D01*
X73872442Y-63125070D01*
X73825924Y-63125070D01*
X73785759Y-63116532D01*
X73744469Y-63112466D01*
X73692592Y-63096729D01*
X73641885Y-63085951D01*
X73609436Y-63071503D01*
X73575680Y-63061264D01*
X73522038Y-63032591D01*
X73470000Y-63009423D01*
X73445805Y-62991844D01*
X73420121Y-62978116D01*
X73367730Y-62935119D01*
X73317782Y-62898830D01*
X73301562Y-62880816D01*
X73283778Y-62866221D01*
X73235979Y-62807978D01*
X73191885Y-62759007D01*
X73182622Y-62742964D01*
X73171883Y-62729878D01*
X73132153Y-62655548D01*
X73097809Y-62596063D01*
X73093858Y-62583903D01*
X73088735Y-62574319D01*
X73060484Y-62481191D01*
X73039667Y-62417121D01*
X73038934Y-62410149D01*
X73037533Y-62405530D01*
X73023893Y-62267049D01*
X73020000Y-62230000D01*
X73023893Y-62192953D01*
X73037533Y-62054469D01*
X73038934Y-62049849D01*
X73039667Y-62042879D01*
X73060480Y-61978822D01*
X73088735Y-61885680D01*
X73093859Y-61876093D01*
X73097809Y-61863937D01*
X73132145Y-61804463D01*
X73171883Y-61730121D01*
X73182624Y-61717032D01*
X73191885Y-61700993D01*
X73235970Y-61652031D01*
X73283778Y-61593778D01*
X73301566Y-61579179D01*
X73317782Y-61561170D01*
X73367719Y-61524888D01*
X73420121Y-61481883D01*
X73445810Y-61468151D01*
X73470000Y-61450577D01*
X73522026Y-61427413D01*
X73575680Y-61398735D01*
X73609443Y-61388492D01*
X73641885Y-61374049D01*
X73692581Y-61363273D01*
X73744469Y-61347533D01*
X73785768Y-61343465D01*
X73825924Y-61334930D01*
X73872432Y-61334930D01*
X73920000Y-61330245D01*
X73967568Y-61334930D01*
G37*
G36*
X79047568Y-60064930D02*
G01*
X79094076Y-60064930D01*
X79134232Y-60073465D01*
X79175530Y-60077533D01*
X79227415Y-60093272D01*
X79278115Y-60104049D01*
X79310558Y-60118493D01*
X79344319Y-60128735D01*
X79397967Y-60157410D01*
X79450000Y-60180577D01*
X79474192Y-60198153D01*
X79499878Y-60211883D01*
X79552271Y-60254881D01*
X79602218Y-60291170D01*
X79618436Y-60309182D01*
X79636221Y-60323778D01*
X79684018Y-60382018D01*
X79728115Y-60430993D01*
X79737377Y-60447036D01*
X79748116Y-60460121D01*
X79787840Y-60534440D01*
X79822191Y-60593937D01*
X79826142Y-60606098D01*
X79831264Y-60615680D01*
X79859504Y-60708775D01*
X79880333Y-60772879D01*
X79881066Y-60779854D01*
X79882466Y-60784469D01*
X79896090Y-60922802D01*
X79900000Y-60960000D01*
X79896090Y-60997200D01*
X79882466Y-61135530D01*
X79881066Y-61140144D01*
X79880333Y-61147121D01*
X79859500Y-61211238D01*
X79831264Y-61304319D01*
X79826143Y-61313899D01*
X79822191Y-61326063D01*
X79787833Y-61385572D01*
X79748116Y-61459878D01*
X79737379Y-61472960D01*
X79728115Y-61489007D01*
X79684009Y-61537991D01*
X79636221Y-61596221D01*
X79618439Y-61610813D01*
X79602218Y-61628830D01*
X79552260Y-61665126D01*
X79499878Y-61708116D01*
X79474197Y-61721842D01*
X79450000Y-61739423D01*
X79397955Y-61762594D01*
X79344319Y-61791264D01*
X79310565Y-61801503D01*
X79278115Y-61815951D01*
X79227404Y-61826729D01*
X79175530Y-61842466D01*
X79134241Y-61846532D01*
X79094076Y-61855070D01*
X79047558Y-61855070D01*
X79000000Y-61859754D01*
X78952442Y-61855070D01*
X78905924Y-61855070D01*
X78865759Y-61846532D01*
X78824469Y-61842466D01*
X78772592Y-61826729D01*
X78721885Y-61815951D01*
X78689436Y-61801503D01*
X78655680Y-61791264D01*
X78602038Y-61762591D01*
X78550000Y-61739423D01*
X78525805Y-61721844D01*
X78500121Y-61708116D01*
X78447730Y-61665119D01*
X78397782Y-61628830D01*
X78381562Y-61610816D01*
X78363778Y-61596221D01*
X78315979Y-61537978D01*
X78271885Y-61489007D01*
X78262622Y-61472964D01*
X78251883Y-61459878D01*
X78212153Y-61385548D01*
X78177809Y-61326063D01*
X78173858Y-61313903D01*
X78168735Y-61304319D01*
X78140484Y-61211191D01*
X78119667Y-61147121D01*
X78118934Y-61140149D01*
X78117533Y-61135530D01*
X78103893Y-60997049D01*
X78100000Y-60960000D01*
X78103893Y-60922953D01*
X78117533Y-60784469D01*
X78118934Y-60779849D01*
X78119667Y-60772879D01*
X78140480Y-60708822D01*
X78168735Y-60615680D01*
X78173859Y-60606093D01*
X78177809Y-60593937D01*
X78212145Y-60534463D01*
X78251883Y-60460121D01*
X78262624Y-60447032D01*
X78271885Y-60430993D01*
X78315970Y-60382031D01*
X78363778Y-60323778D01*
X78381566Y-60309179D01*
X78397782Y-60291170D01*
X78447719Y-60254888D01*
X78500121Y-60211883D01*
X78525810Y-60198151D01*
X78550000Y-60180577D01*
X78602026Y-60157413D01*
X78655680Y-60128735D01*
X78689443Y-60118492D01*
X78721885Y-60104049D01*
X78772581Y-60093273D01*
X78824469Y-60077533D01*
X78865768Y-60073465D01*
X78905924Y-60064930D01*
X78952432Y-60064930D01*
X79000000Y-60060245D01*
X79047568Y-60064930D01*
G37*
G36*
X166129561Y-59257105D02*
G01*
X166290619Y-59313462D01*
X166435099Y-59404244D01*
X166555756Y-59524901D01*
X166646538Y-59669381D01*
X166702895Y-59830439D01*
X166722000Y-60000000D01*
X166702895Y-60169561D01*
X166646538Y-60330619D01*
X166555756Y-60475099D01*
X166435099Y-60595756D01*
X166290619Y-60686538D01*
X166129561Y-60742895D01*
X165960000Y-60762000D01*
X165790439Y-60742895D01*
X165629381Y-60686538D01*
X165484901Y-60595756D01*
X165364244Y-60475099D01*
X165273462Y-60330619D01*
X165217105Y-60169561D01*
X165198000Y-60000000D01*
X165217105Y-59830439D01*
X165273462Y-59669381D01*
X165364244Y-59524901D01*
X165484901Y-59404244D01*
X165629381Y-59313462D01*
X165790439Y-59257105D01*
X165960000Y-59238000D01*
X166129561Y-59257105D01*
G37*
G36*
X168669561Y-59257105D02*
G01*
X168830619Y-59313462D01*
X168975099Y-59404244D01*
X169095756Y-59524901D01*
X169186538Y-59669381D01*
X169242895Y-59830439D01*
X169262000Y-60000000D01*
X169242895Y-60169561D01*
X169186538Y-60330619D01*
X169095756Y-60475099D01*
X168975099Y-60595756D01*
X168830619Y-60686538D01*
X168669561Y-60742895D01*
X168500000Y-60762000D01*
X168330439Y-60742895D01*
X168169381Y-60686538D01*
X168024901Y-60595756D01*
X167904244Y-60475099D01*
X167813462Y-60330619D01*
X167757105Y-60169561D01*
X167738000Y-60000000D01*
X167757105Y-59830439D01*
X167813462Y-59669381D01*
X167904244Y-59524901D01*
X168024901Y-59404244D01*
X168169381Y-59313462D01*
X168330439Y-59257105D01*
X168500000Y-59238000D01*
X168669561Y-59257105D01*
G37*
G36*
X74820000Y-60590000D02*
G01*
X73020000Y-60590000D01*
X73020000Y-58790000D01*
X74820000Y-58790000D01*
X74820000Y-60590000D01*
G37*
G36*
X103021988Y-56691931D02*
G01*
X103064931Y-56691931D01*
X103113373Y-56702227D01*
X103160865Y-56707579D01*
X103195399Y-56719663D01*
X103231083Y-56727248D01*
X103282510Y-56750144D01*
X103332661Y-56767693D01*
X103358762Y-56784093D01*
X103386260Y-56796336D01*
X103437530Y-56833586D01*
X103486773Y-56864527D01*
X103504457Y-56882211D01*
X103523682Y-56896179D01*
X103571205Y-56948959D01*
X103615473Y-56993227D01*
X103625655Y-57009432D01*
X103637343Y-57022413D01*
X103677330Y-57091673D01*
X103712307Y-57147339D01*
X103716673Y-57159818D01*
X103722272Y-57169515D01*
X103750940Y-57257748D01*
X103772421Y-57319135D01*
X103773235Y-57326363D01*
X103774764Y-57331068D01*
X103788619Y-57462898D01*
X103792800Y-57500000D01*
X103788619Y-57537104D01*
X103774764Y-57668931D01*
X103773235Y-57673634D01*
X103772421Y-57680865D01*
X103750936Y-57742264D01*
X103722272Y-57830484D01*
X103716674Y-57840178D01*
X103712307Y-57852661D01*
X103677323Y-57908338D01*
X103637343Y-57977586D01*
X103625657Y-57990563D01*
X103615473Y-58006773D01*
X103571196Y-58051049D01*
X103523682Y-58103820D01*
X103504461Y-58117784D01*
X103486773Y-58135473D01*
X103437520Y-58166420D01*
X103386260Y-58203663D01*
X103358768Y-58215902D01*
X103332661Y-58232307D01*
X103282500Y-58249859D01*
X103231083Y-58272751D01*
X103195405Y-58280334D01*
X103160865Y-58292421D01*
X103113370Y-58297772D01*
X103064931Y-58308069D01*
X103021988Y-58308069D01*
X102980000Y-58312800D01*
X102938012Y-58308069D01*
X102895069Y-58308069D01*
X102846628Y-58297772D01*
X102799135Y-58292421D01*
X102764595Y-58280335D01*
X102728916Y-58272751D01*
X102677495Y-58249857D01*
X102627339Y-58232307D01*
X102601234Y-58215904D01*
X102573739Y-58203663D01*
X102522472Y-58166415D01*
X102473227Y-58135473D01*
X102455541Y-58117787D01*
X102436317Y-58103820D01*
X102388793Y-58051039D01*
X102344527Y-58006773D01*
X102334344Y-57990567D01*
X102322656Y-57977586D01*
X102282664Y-57908318D01*
X102247693Y-57852661D01*
X102243326Y-57840183D01*
X102237727Y-57830484D01*
X102209049Y-57742224D01*
X102187579Y-57680865D01*
X102186764Y-57673639D01*
X102185235Y-57668931D01*
X102171365Y-57536972D01*
X102167200Y-57500000D01*
X102171365Y-57463030D01*
X102185235Y-57331068D01*
X102186765Y-57326359D01*
X102187579Y-57319135D01*
X102209045Y-57257788D01*
X102237727Y-57169515D01*
X102243327Y-57159814D01*
X102247693Y-57147339D01*
X102282657Y-57091692D01*
X102322656Y-57022413D01*
X102334346Y-57009429D01*
X102344527Y-56993227D01*
X102388784Y-56948969D01*
X102436317Y-56896179D01*
X102455544Y-56882209D01*
X102473227Y-56864527D01*
X102522466Y-56833587D01*
X102573740Y-56796336D01*
X102601237Y-56784093D01*
X102627339Y-56767693D01*
X102677486Y-56750145D01*
X102728916Y-56727248D01*
X102764601Y-56719662D01*
X102799135Y-56707579D01*
X102846625Y-56702227D01*
X102895069Y-56691931D01*
X102938012Y-56691931D01*
X102980000Y-56687200D01*
X103021988Y-56691931D01*
G37*
G36*
X114968800Y-58312800D02*
G01*
X113343200Y-58312800D01*
X113343200Y-56687200D01*
X114968800Y-56687200D01*
X114968800Y-58312800D01*
G37*
G36*
X166129561Y-56717105D02*
G01*
X166290619Y-56773462D01*
X166435099Y-56864244D01*
X166555756Y-56984901D01*
X166646538Y-57129381D01*
X166702895Y-57290439D01*
X166722000Y-57460000D01*
X166702895Y-57629561D01*
X166646538Y-57790619D01*
X166555756Y-57935099D01*
X166435099Y-58055756D01*
X166290619Y-58146538D01*
X166129561Y-58202895D01*
X165960000Y-58222000D01*
X165790439Y-58202895D01*
X165629381Y-58146538D01*
X165484901Y-58055756D01*
X165364244Y-57935099D01*
X165273462Y-57790619D01*
X165217105Y-57629561D01*
X165198000Y-57460000D01*
X165217105Y-57290439D01*
X165273462Y-57129381D01*
X165364244Y-56984901D01*
X165484901Y-56864244D01*
X165629381Y-56773462D01*
X165790439Y-56717105D01*
X165960000Y-56698000D01*
X166129561Y-56717105D01*
G37*
G36*
X168669561Y-56717105D02*
G01*
X168830619Y-56773462D01*
X168975099Y-56864244D01*
X169095756Y-56984901D01*
X169186538Y-57129381D01*
X169242895Y-57290439D01*
X169262000Y-57460000D01*
X169242895Y-57629561D01*
X169186538Y-57790619D01*
X169095756Y-57935099D01*
X168975099Y-58055756D01*
X168830619Y-58146538D01*
X168669561Y-58202895D01*
X168500000Y-58222000D01*
X168330439Y-58202895D01*
X168169381Y-58146538D01*
X168024901Y-58055756D01*
X167904244Y-57935099D01*
X167813462Y-57790619D01*
X167757105Y-57629561D01*
X167738000Y-57460000D01*
X167757105Y-57290439D01*
X167813462Y-57129381D01*
X167904244Y-56984901D01*
X168024901Y-56864244D01*
X168169381Y-56773462D01*
X168330439Y-56717105D01*
X168500000Y-56698000D01*
X168669561Y-56717105D01*
G37*
G36*
X41010488Y-55616931D02*
G01*
X41053431Y-55616931D01*
X41101873Y-55627227D01*
X41149365Y-55632579D01*
X41183899Y-55644663D01*
X41219583Y-55652248D01*
X41271010Y-55675144D01*
X41321161Y-55692693D01*
X41347262Y-55709093D01*
X41374760Y-55721336D01*
X41426030Y-55758586D01*
X41475273Y-55789527D01*
X41492957Y-55807211D01*
X41512182Y-55821179D01*
X41559705Y-55873959D01*
X41603973Y-55918227D01*
X41614155Y-55934432D01*
X41625843Y-55947413D01*
X41665830Y-56016673D01*
X41700807Y-56072339D01*
X41705173Y-56084818D01*
X41710772Y-56094515D01*
X41739440Y-56182748D01*
X41760921Y-56244135D01*
X41761735Y-56251363D01*
X41763264Y-56256068D01*
X41777119Y-56387898D01*
X41781300Y-56425000D01*
X41777119Y-56462104D01*
X41763264Y-56593931D01*
X41761735Y-56598634D01*
X41760921Y-56605865D01*
X41739436Y-56667264D01*
X41710772Y-56755484D01*
X41705174Y-56765178D01*
X41700807Y-56777661D01*
X41665823Y-56833338D01*
X41625843Y-56902586D01*
X41614157Y-56915563D01*
X41603973Y-56931773D01*
X41559696Y-56976049D01*
X41512182Y-57028820D01*
X41492961Y-57042784D01*
X41475273Y-57060473D01*
X41426020Y-57091420D01*
X41374760Y-57128663D01*
X41347268Y-57140902D01*
X41321161Y-57157307D01*
X41271000Y-57174859D01*
X41219583Y-57197751D01*
X41183905Y-57205334D01*
X41149365Y-57217421D01*
X41101870Y-57222772D01*
X41053431Y-57233069D01*
X41010488Y-57233069D01*
X40968500Y-57237800D01*
X40926512Y-57233069D01*
X40883569Y-57233069D01*
X40835128Y-57222772D01*
X40787635Y-57217421D01*
X40753095Y-57205335D01*
X40717416Y-57197751D01*
X40665995Y-57174857D01*
X40615839Y-57157307D01*
X40589734Y-57140904D01*
X40562239Y-57128663D01*
X40510972Y-57091415D01*
X40461727Y-57060473D01*
X40444041Y-57042787D01*
X40424817Y-57028820D01*
X40377293Y-56976039D01*
X40333027Y-56931773D01*
X40322844Y-56915567D01*
X40311156Y-56902586D01*
X40271164Y-56833318D01*
X40236193Y-56777661D01*
X40231826Y-56765183D01*
X40226227Y-56755484D01*
X40197549Y-56667224D01*
X40176079Y-56605865D01*
X40175264Y-56598639D01*
X40173735Y-56593931D01*
X40159865Y-56461972D01*
X40155700Y-56425000D01*
X40159865Y-56388030D01*
X40173735Y-56256068D01*
X40175265Y-56251359D01*
X40176079Y-56244135D01*
X40197545Y-56182788D01*
X40226227Y-56094515D01*
X40231827Y-56084814D01*
X40236193Y-56072339D01*
X40271157Y-56016692D01*
X40311156Y-55947413D01*
X40322846Y-55934429D01*
X40333027Y-55918227D01*
X40377284Y-55873969D01*
X40424817Y-55821179D01*
X40444044Y-55807209D01*
X40461727Y-55789527D01*
X40510966Y-55758587D01*
X40562240Y-55721336D01*
X40589737Y-55709093D01*
X40615839Y-55692693D01*
X40665986Y-55675145D01*
X40717416Y-55652248D01*
X40753101Y-55644662D01*
X40787635Y-55632579D01*
X40835125Y-55627227D01*
X40883569Y-55616931D01*
X40926512Y-55616931D01*
X40968500Y-55612200D01*
X41010488Y-55616931D01*
G37*
G36*
X52957300Y-57237800D02*
G01*
X51331700Y-57237800D01*
X51331700Y-55612200D01*
X52957300Y-55612200D01*
X52957300Y-57237800D01*
G37*
G36*
X166129561Y-54177105D02*
G01*
X166290619Y-54233462D01*
X166435099Y-54324244D01*
X166555756Y-54444901D01*
X166646538Y-54589381D01*
X166702895Y-54750439D01*
X166722000Y-54920000D01*
X166702895Y-55089561D01*
X166646538Y-55250619D01*
X166555756Y-55395099D01*
X166435099Y-55515756D01*
X166290619Y-55606538D01*
X166129561Y-55662895D01*
X165960000Y-55682000D01*
X165790439Y-55662895D01*
X165629381Y-55606538D01*
X165484901Y-55515756D01*
X165364244Y-55395099D01*
X165273462Y-55250619D01*
X165217105Y-55089561D01*
X165198000Y-54920000D01*
X165217105Y-54750439D01*
X165273462Y-54589381D01*
X165364244Y-54444901D01*
X165484901Y-54324244D01*
X165629381Y-54233462D01*
X165790439Y-54177105D01*
X165960000Y-54158000D01*
X166129561Y-54177105D01*
G37*
G36*
X168669561Y-54177105D02*
G01*
X168830619Y-54233462D01*
X168975099Y-54324244D01*
X169095756Y-54444901D01*
X169186538Y-54589381D01*
X169242895Y-54750439D01*
X169262000Y-54920000D01*
X169242895Y-55089561D01*
X169186538Y-55250619D01*
X169095756Y-55395099D01*
X168975099Y-55515756D01*
X168830619Y-55606538D01*
X168669561Y-55662895D01*
X168500000Y-55682000D01*
X168330439Y-55662895D01*
X168169381Y-55606538D01*
X168024901Y-55515756D01*
X167904244Y-55395099D01*
X167813462Y-55250619D01*
X167757105Y-55089561D01*
X167738000Y-54920000D01*
X167757105Y-54750439D01*
X167813462Y-54589381D01*
X167904244Y-54444901D01*
X168024901Y-54324244D01*
X168169381Y-54233462D01*
X168330439Y-54177105D01*
X168500000Y-54158000D01*
X168669561Y-54177105D01*
G37*
G36*
X166129561Y-51637105D02*
G01*
X166290619Y-51693462D01*
X166435099Y-51784244D01*
X166555756Y-51904901D01*
X166646538Y-52049381D01*
X166702895Y-52210439D01*
X166722000Y-52380000D01*
X166702895Y-52549561D01*
X166646538Y-52710619D01*
X166555756Y-52855099D01*
X166435099Y-52975756D01*
X166290619Y-53066538D01*
X166129561Y-53122895D01*
X165960000Y-53142000D01*
X165790439Y-53122895D01*
X165629381Y-53066538D01*
X165484901Y-52975756D01*
X165364244Y-52855099D01*
X165273462Y-52710619D01*
X165217105Y-52549561D01*
X165198000Y-52380000D01*
X165217105Y-52210439D01*
X165273462Y-52049381D01*
X165364244Y-51904901D01*
X165484901Y-51784244D01*
X165629381Y-51693462D01*
X165790439Y-51637105D01*
X165960000Y-51618000D01*
X166129561Y-51637105D01*
G37*
G36*
X168669561Y-51637105D02*
G01*
X168830619Y-51693462D01*
X168975099Y-51784244D01*
X169095756Y-51904901D01*
X169186538Y-52049381D01*
X169242895Y-52210439D01*
X169262000Y-52380000D01*
X169242895Y-52549561D01*
X169186538Y-52710619D01*
X169095756Y-52855099D01*
X168975099Y-52975756D01*
X168830619Y-53066538D01*
X168669561Y-53122895D01*
X168500000Y-53142000D01*
X168330439Y-53122895D01*
X168169381Y-53066538D01*
X168024901Y-52975756D01*
X167904244Y-52855099D01*
X167813462Y-52710619D01*
X167757105Y-52549561D01*
X167738000Y-52380000D01*
X167757105Y-52210439D01*
X167813462Y-52049381D01*
X167904244Y-51904901D01*
X168024901Y-51784244D01*
X168169381Y-51693462D01*
X168330439Y-51637105D01*
X168500000Y-51618000D01*
X168669561Y-51637105D01*
G37*
G36*
X103923300Y-52312800D02*
G01*
X102297700Y-52312800D01*
X102297700Y-50687200D01*
X103923300Y-50687200D01*
X103923300Y-52312800D01*
G37*
G36*
X114328488Y-50691931D02*
G01*
X114371431Y-50691931D01*
X114419873Y-50702227D01*
X114467365Y-50707579D01*
X114501899Y-50719663D01*
X114537583Y-50727248D01*
X114589010Y-50750144D01*
X114639161Y-50767693D01*
X114665262Y-50784093D01*
X114692760Y-50796336D01*
X114744030Y-50833586D01*
X114793273Y-50864527D01*
X114810957Y-50882211D01*
X114830182Y-50896179D01*
X114877705Y-50948959D01*
X114921973Y-50993227D01*
X114932155Y-51009432D01*
X114943843Y-51022413D01*
X114983830Y-51091673D01*
X115018807Y-51147339D01*
X115023173Y-51159818D01*
X115028772Y-51169515D01*
X115057440Y-51257748D01*
X115078921Y-51319135D01*
X115079735Y-51326363D01*
X115081264Y-51331068D01*
X115095119Y-51462898D01*
X115099300Y-51500000D01*
X115095119Y-51537104D01*
X115081264Y-51668931D01*
X115079735Y-51673634D01*
X115078921Y-51680865D01*
X115057436Y-51742264D01*
X115028772Y-51830484D01*
X115023174Y-51840178D01*
X115018807Y-51852661D01*
X114983823Y-51908338D01*
X114943843Y-51977586D01*
X114932157Y-51990563D01*
X114921973Y-52006773D01*
X114877696Y-52051049D01*
X114830182Y-52103820D01*
X114810961Y-52117784D01*
X114793273Y-52135473D01*
X114744020Y-52166420D01*
X114692760Y-52203663D01*
X114665268Y-52215902D01*
X114639161Y-52232307D01*
X114589000Y-52249859D01*
X114537583Y-52272751D01*
X114501905Y-52280334D01*
X114467365Y-52292421D01*
X114419870Y-52297772D01*
X114371431Y-52308069D01*
X114328488Y-52308069D01*
X114286500Y-52312800D01*
X114244512Y-52308069D01*
X114201569Y-52308069D01*
X114153128Y-52297772D01*
X114105635Y-52292421D01*
X114071095Y-52280335D01*
X114035416Y-52272751D01*
X113983995Y-52249857D01*
X113933839Y-52232307D01*
X113907734Y-52215904D01*
X113880239Y-52203663D01*
X113828972Y-52166415D01*
X113779727Y-52135473D01*
X113762041Y-52117787D01*
X113742817Y-52103820D01*
X113695293Y-52051039D01*
X113651027Y-52006773D01*
X113640844Y-51990567D01*
X113629156Y-51977586D01*
X113589164Y-51908318D01*
X113554193Y-51852661D01*
X113549826Y-51840183D01*
X113544227Y-51830484D01*
X113515549Y-51742224D01*
X113494079Y-51680865D01*
X113493264Y-51673639D01*
X113491735Y-51668931D01*
X113477865Y-51536972D01*
X113473700Y-51500000D01*
X113477865Y-51463030D01*
X113491735Y-51331068D01*
X113493265Y-51326359D01*
X113494079Y-51319135D01*
X113515545Y-51257788D01*
X113544227Y-51169515D01*
X113549827Y-51159814D01*
X113554193Y-51147339D01*
X113589157Y-51091692D01*
X113629156Y-51022413D01*
X113640846Y-51009429D01*
X113651027Y-50993227D01*
X113695284Y-50948969D01*
X113742817Y-50896179D01*
X113762044Y-50882209D01*
X113779727Y-50864527D01*
X113828966Y-50833587D01*
X113880240Y-50796336D01*
X113907737Y-50784093D01*
X113933839Y-50767693D01*
X113983986Y-50750145D01*
X114035416Y-50727248D01*
X114071101Y-50719662D01*
X114105635Y-50707579D01*
X114153125Y-50702227D01*
X114201569Y-50691931D01*
X114244512Y-50691931D01*
X114286500Y-50687200D01*
X114328488Y-50691931D01*
G37*
G36*
X166129561Y-49097105D02*
G01*
X166290619Y-49153462D01*
X166435099Y-49244244D01*
X166555756Y-49364901D01*
X166646538Y-49509381D01*
X166702895Y-49670439D01*
X166722000Y-49840000D01*
X166702895Y-50009561D01*
X166646538Y-50170619D01*
X166555756Y-50315099D01*
X166435099Y-50435756D01*
X166290619Y-50526538D01*
X166129561Y-50582895D01*
X165960000Y-50602000D01*
X165790439Y-50582895D01*
X165629381Y-50526538D01*
X165484901Y-50435756D01*
X165364244Y-50315099D01*
X165273462Y-50170619D01*
X165217105Y-50009561D01*
X165198000Y-49840000D01*
X165217105Y-49670439D01*
X165273462Y-49509381D01*
X165364244Y-49364901D01*
X165484901Y-49244244D01*
X165629381Y-49153462D01*
X165790439Y-49097105D01*
X165960000Y-49078000D01*
X166129561Y-49097105D01*
G37*
G36*
X168669561Y-49097105D02*
G01*
X168830619Y-49153462D01*
X168975099Y-49244244D01*
X169095756Y-49364901D01*
X169186538Y-49509381D01*
X169242895Y-49670439D01*
X169262000Y-49840000D01*
X169242895Y-50009561D01*
X169186538Y-50170619D01*
X169095756Y-50315099D01*
X168975099Y-50435756D01*
X168830619Y-50526538D01*
X168669561Y-50582895D01*
X168500000Y-50602000D01*
X168330439Y-50582895D01*
X168169381Y-50526538D01*
X168024901Y-50435756D01*
X167904244Y-50315099D01*
X167813462Y-50170619D01*
X167757105Y-50009561D01*
X167738000Y-49840000D01*
X167757105Y-49670439D01*
X167813462Y-49509381D01*
X167904244Y-49364901D01*
X168024901Y-49244244D01*
X168169381Y-49153462D01*
X168330439Y-49097105D01*
X168500000Y-49078000D01*
X168669561Y-49097105D01*
G37*
G36*
X24424434Y-20419623D02*
G01*
X24845248Y-20478324D01*
X25258850Y-20575602D01*
X25661712Y-20710628D01*
X26050396Y-20882249D01*
X26421588Y-21089001D01*
X26772119Y-21329121D01*
X27099000Y-21600559D01*
X27399441Y-21901000D01*
X27670879Y-22227881D01*
X27910999Y-22578412D01*
X28117751Y-22949604D01*
X28289372Y-23338288D01*
X28424398Y-23741150D01*
X28521676Y-24154752D01*
X28580377Y-24575566D01*
X28600000Y-25000000D01*
X28580377Y-25424434D01*
X28521676Y-25845248D01*
X28424398Y-26258850D01*
X28289372Y-26661712D01*
X28117751Y-27050396D01*
X27910999Y-27421588D01*
X27670879Y-27772119D01*
X27399441Y-28099000D01*
X27099000Y-28399441D01*
X26772119Y-28670879D01*
X26421588Y-28910999D01*
X26050396Y-29117751D01*
X25661712Y-29289372D01*
X25258850Y-29424398D01*
X24845248Y-29521676D01*
X24424434Y-29580377D01*
X24000000Y-29600000D01*
X23575566Y-29580377D01*
X23154752Y-29521676D01*
X22741150Y-29424398D01*
X22338288Y-29289372D01*
X21949604Y-29117751D01*
X21578412Y-28910999D01*
X21227881Y-28670879D01*
X20901000Y-28399441D01*
X20600559Y-28099000D01*
X20329121Y-27772119D01*
X20089001Y-27421588D01*
X19882249Y-27050396D01*
X19710628Y-26661712D01*
X19575602Y-26258850D01*
X19478324Y-25845248D01*
X19419623Y-25424434D01*
X19400000Y-25000000D01*
X19419623Y-24575566D01*
X19478324Y-24154752D01*
X19575602Y-23741150D01*
X19710628Y-23338288D01*
X19882249Y-22949604D01*
X20089001Y-22578412D01*
X20329121Y-22227881D01*
X20600559Y-21901000D01*
X20901000Y-21600559D01*
X21227881Y-21329121D01*
X21578412Y-21089001D01*
X21949604Y-20882249D01*
X22338288Y-20710628D01*
X22741150Y-20575602D01*
X23154752Y-20478324D01*
X23575566Y-20419623D01*
X24000000Y-20400000D01*
X24424434Y-20419623D01*
G37*
G36*
X164924434Y-20419623D02*
G01*
X165345248Y-20478324D01*
X165758850Y-20575602D01*
X166161712Y-20710628D01*
X166550396Y-20882249D01*
X166921588Y-21089001D01*
X167272119Y-21329121D01*
X167599000Y-21600559D01*
X167899441Y-21901000D01*
X168170879Y-22227881D01*
X168410999Y-22578412D01*
X168617751Y-22949604D01*
X168789372Y-23338288D01*
X168924398Y-23741150D01*
X169021676Y-24154752D01*
X169080377Y-24575566D01*
X169100000Y-25000000D01*
X169080377Y-25424434D01*
X169021676Y-25845248D01*
X168924398Y-26258850D01*
X168789372Y-26661712D01*
X168617751Y-27050396D01*
X168410999Y-27421588D01*
X168170879Y-27772119D01*
X167899441Y-28099000D01*
X167599000Y-28399441D01*
X167272119Y-28670879D01*
X166921588Y-28910999D01*
X166550396Y-29117751D01*
X166161712Y-29289372D01*
X165758850Y-29424398D01*
X165345248Y-29521676D01*
X164924434Y-29580377D01*
X164500000Y-29600000D01*
X164075566Y-29580377D01*
X163654752Y-29521676D01*
X163241150Y-29424398D01*
X162838288Y-29289372D01*
X162449604Y-29117751D01*
X162078412Y-28910999D01*
X161727881Y-28670879D01*
X161401000Y-28399441D01*
X161100559Y-28099000D01*
X160829121Y-27772119D01*
X160589001Y-27421588D01*
X160382249Y-27050396D01*
X160210628Y-26661712D01*
X160075602Y-26258850D01*
X159978324Y-25845248D01*
X159919623Y-25424434D01*
X159900000Y-25000000D01*
X159919623Y-24575566D01*
X159978324Y-24154752D01*
X160075602Y-23741150D01*
X160210628Y-23338288D01*
X160382249Y-22949604D01*
X160589001Y-22578412D01*
X160829121Y-22227881D01*
X161100559Y-21901000D01*
X161401000Y-21600559D01*
X161727881Y-21329121D01*
X162078412Y-21089001D01*
X162449604Y-20882249D01*
X162838288Y-20710628D01*
X163241150Y-20575602D01*
X163654752Y-20478324D01*
X164075566Y-20419623D01*
X164500000Y-20400000D01*
X164924434Y-20419623D01*
G37*
G36*
X40790608Y-22417723D02*
G01*
X41035045Y-22476407D01*
X41267293Y-22572608D01*
X41481632Y-22703955D01*
X41672785Y-22867215D01*
X41836045Y-23058368D01*
X41967392Y-23272707D01*
X42063593Y-23504955D01*
X42122277Y-23749392D01*
X42142000Y-24000000D01*
X42122277Y-24250608D01*
X42063593Y-24495045D01*
X41967392Y-24727293D01*
X41836045Y-24941632D01*
X41672785Y-25132785D01*
X41481632Y-25296045D01*
X41267293Y-25427392D01*
X41035045Y-25523593D01*
X40790608Y-25582277D01*
X40540000Y-25602000D01*
X40289392Y-25582277D01*
X40044955Y-25523593D01*
X39812707Y-25427392D01*
X39598368Y-25296045D01*
X39407215Y-25132785D01*
X39243955Y-24941632D01*
X39112608Y-24727293D01*
X39016407Y-24495045D01*
X38957723Y-24250608D01*
X38938000Y-24000000D01*
X38957723Y-23749392D01*
X39016407Y-23504955D01*
X39112608Y-23272707D01*
X39243955Y-23058368D01*
X39407215Y-22867215D01*
X39598368Y-22703955D01*
X39812707Y-22572608D01*
X40044955Y-22476407D01*
X40289392Y-22417723D01*
X40540000Y-22398000D01*
X40790608Y-22417723D01*
G37*
G36*
X46039034Y-22405764D02*
G01*
X46072125Y-22427875D01*
X46094236Y-22460966D01*
X46102000Y-22500000D01*
X46102000Y-25500000D01*
X46094236Y-25539034D01*
X46072125Y-25572125D01*
X46039034Y-25594236D01*
X46000000Y-25602000D01*
X43000000Y-25602000D01*
X42960966Y-25594236D01*
X42927875Y-25572125D01*
X42905764Y-25539034D01*
X42898000Y-25500000D01*
X42898000Y-22500000D01*
X42905764Y-22460966D01*
X42927875Y-22427875D01*
X42960966Y-22405764D01*
X43000000Y-22398000D01*
X46000000Y-22398000D01*
X46039034Y-22405764D01*
G37*
G36*
X146770608Y-22417723D02*
G01*
X147015045Y-22476407D01*
X147247293Y-22572608D01*
X147461632Y-22703955D01*
X147652785Y-22867215D01*
X147816045Y-23058368D01*
X147947392Y-23272707D01*
X148043593Y-23504955D01*
X148102277Y-23749392D01*
X148122000Y-24000000D01*
X148102277Y-24250608D01*
X148043593Y-24495045D01*
X147947392Y-24727293D01*
X147816045Y-24941632D01*
X147652785Y-25132785D01*
X147461632Y-25296045D01*
X147247293Y-25427392D01*
X147015045Y-25523593D01*
X146770608Y-25582277D01*
X146520000Y-25602000D01*
X146269392Y-25582277D01*
X146024955Y-25523593D01*
X145792707Y-25427392D01*
X145578368Y-25296045D01*
X145387215Y-25132785D01*
X145223955Y-24941632D01*
X145092608Y-24727293D01*
X144996407Y-24495045D01*
X144937723Y-24250608D01*
X144918000Y-24000000D01*
X144937723Y-23749392D01*
X144996407Y-23504955D01*
X145092608Y-23272707D01*
X145223955Y-23058368D01*
X145387215Y-22867215D01*
X145578368Y-22703955D01*
X145792707Y-22572608D01*
X146024955Y-22476407D01*
X146269392Y-22417723D01*
X146520000Y-22398000D01*
X146770608Y-22417723D01*
G37*
G36*
X152019034Y-22405764D02*
G01*
X152052125Y-22427875D01*
X152074236Y-22460966D01*
X152082000Y-22500000D01*
X152082000Y-25500000D01*
X152074236Y-25539034D01*
X152052125Y-25572125D01*
X152019034Y-25594236D01*
X151980000Y-25602000D01*
X148980000Y-25602000D01*
X148940966Y-25594236D01*
X148907875Y-25572125D01*
X148885764Y-25539034D01*
X148878000Y-25500000D01*
X148878000Y-22500000D01*
X148885764Y-22460966D01*
X148907875Y-22427875D01*
X148940966Y-22405764D01*
X148980000Y-22398000D01*
X151980000Y-22398000D01*
X152019034Y-22405764D01*
G37*
G36*
X52234181Y-20382515D02*
G01*
X52375150Y-20456501D01*
X52494316Y-20562074D01*
X52584755Y-20693097D01*
X52641210Y-20841956D01*
X52660400Y-21000000D01*
X52641210Y-21158044D01*
X52584755Y-21306903D01*
X52494316Y-21437926D01*
X52375150Y-21543499D01*
X52234181Y-21617485D01*
X52079602Y-21655585D01*
X51920398Y-21655585D01*
X51765819Y-21617485D01*
X51624850Y-21543499D01*
X51505684Y-21437926D01*
X51415245Y-21306903D01*
X51358790Y-21158044D01*
X51339600Y-21000000D01*
X51358790Y-20841956D01*
X51415245Y-20693097D01*
X51505684Y-20562074D01*
X51624850Y-20456501D01*
X51765819Y-20382515D01*
X51920398Y-20344415D01*
X52079602Y-20344415D01*
X52234181Y-20382515D01*
G37*
G36*
X54234180Y-20382515D02*
G01*
X54375149Y-20456501D01*
X54494315Y-20562074D01*
X54584754Y-20693097D01*
X54641209Y-20841956D01*
X54660399Y-21000000D01*
X54641209Y-21158044D01*
X54584754Y-21306903D01*
X54494315Y-21437926D01*
X54375149Y-21543499D01*
X54234180Y-21617485D01*
X54079601Y-21655585D01*
X53920397Y-21655585D01*
X53765818Y-21617485D01*
X53624849Y-21543499D01*
X53505683Y-21437926D01*
X53415244Y-21306903D01*
X53358789Y-21158044D01*
X53339599Y-21000000D01*
X53358789Y-20841956D01*
X53415244Y-20693097D01*
X53505683Y-20562074D01*
X53624849Y-20456501D01*
X53765818Y-20382515D01*
X53920397Y-20344415D01*
X54079601Y-20344415D01*
X54234180Y-20382515D01*
G37*
G36*
X56234181Y-20382515D02*
G01*
X56375150Y-20456501D01*
X56494316Y-20562074D01*
X56584755Y-20693097D01*
X56641210Y-20841956D01*
X56660400Y-21000000D01*
X56641210Y-21158044D01*
X56584755Y-21306903D01*
X56494316Y-21437926D01*
X56375150Y-21543499D01*
X56234181Y-21617485D01*
X56079602Y-21655585D01*
X55920398Y-21655585D01*
X55765819Y-21617485D01*
X55624850Y-21543499D01*
X55505684Y-21437926D01*
X55415245Y-21306903D01*
X55358790Y-21158044D01*
X55339600Y-21000000D01*
X55358790Y-20841956D01*
X55415245Y-20693097D01*
X55505684Y-20562074D01*
X55624850Y-20456501D01*
X55765819Y-20382515D01*
X55920398Y-20344415D01*
X56079602Y-20344415D01*
X56234181Y-20382515D01*
G37*
G36*
X58234179Y-20382515D02*
G01*
X58375148Y-20456501D01*
X58494314Y-20562074D01*
X58584753Y-20693097D01*
X58641208Y-20841956D01*
X58660398Y-21000000D01*
X58641208Y-21158044D01*
X58584753Y-21306903D01*
X58494314Y-21437926D01*
X58375148Y-21543499D01*
X58234179Y-21617485D01*
X58079600Y-21655585D01*
X57920396Y-21655585D01*
X57765817Y-21617485D01*
X57624848Y-21543499D01*
X57505682Y-21437926D01*
X57415243Y-21306903D01*
X57358788Y-21158044D01*
X57339598Y-21000000D01*
X57358788Y-20841956D01*
X57415243Y-20693097D01*
X57505682Y-20562074D01*
X57624848Y-20456501D01*
X57765817Y-20382515D01*
X57920396Y-20344415D01*
X58079600Y-20344415D01*
X58234179Y-20382515D01*
G37*
G36*
X134234183Y-20382515D02*
G01*
X134375152Y-20456501D01*
X134494318Y-20562074D01*
X134584757Y-20693097D01*
X134641212Y-20841956D01*
X134660402Y-21000000D01*
X134641212Y-21158044D01*
X134584757Y-21306903D01*
X134494318Y-21437926D01*
X134375152Y-21543499D01*
X134234183Y-21617485D01*
X134079604Y-21655585D01*
X133920400Y-21655585D01*
X133765821Y-21617485D01*
X133624852Y-21543499D01*
X133505686Y-21437926D01*
X133415247Y-21306903D01*
X133358792Y-21158044D01*
X133339602Y-21000000D01*
X133358792Y-20841956D01*
X133415247Y-20693097D01*
X133505686Y-20562074D01*
X133624852Y-20456501D01*
X133765821Y-20382515D01*
X133920400Y-20344415D01*
X134079604Y-20344415D01*
X134234183Y-20382515D01*
G37*
G36*
X136234182Y-20382515D02*
G01*
X136375151Y-20456501D01*
X136494317Y-20562074D01*
X136584756Y-20693097D01*
X136641211Y-20841956D01*
X136660401Y-21000000D01*
X136641211Y-21158044D01*
X136584756Y-21306903D01*
X136494317Y-21437926D01*
X136375151Y-21543499D01*
X136234182Y-21617485D01*
X136079603Y-21655585D01*
X135920399Y-21655585D01*
X135765820Y-21617485D01*
X135624851Y-21543499D01*
X135505685Y-21437926D01*
X135415246Y-21306903D01*
X135358791Y-21158044D01*
X135339601Y-21000000D01*
X135358791Y-20841956D01*
X135415246Y-20693097D01*
X135505685Y-20562074D01*
X135624851Y-20456501D01*
X135765820Y-20382515D01*
X135920399Y-20344415D01*
X136079603Y-20344415D01*
X136234182Y-20382515D01*
G37*
G36*
X138234183Y-20382515D02*
G01*
X138375152Y-20456501D01*
X138494318Y-20562074D01*
X138584757Y-20693097D01*
X138641212Y-20841956D01*
X138660402Y-21000000D01*
X138641212Y-21158044D01*
X138584757Y-21306903D01*
X138494318Y-21437926D01*
X138375152Y-21543499D01*
X138234183Y-21617485D01*
X138079604Y-21655585D01*
X137920400Y-21655585D01*
X137765821Y-21617485D01*
X137624852Y-21543499D01*
X137505686Y-21437926D01*
X137415247Y-21306903D01*
X137358792Y-21158044D01*
X137339602Y-21000000D01*
X137358792Y-20841956D01*
X137415247Y-20693097D01*
X137505686Y-20562074D01*
X137624852Y-20456501D01*
X137765821Y-20382515D01*
X137920400Y-20344415D01*
X138079604Y-20344415D01*
X138234183Y-20382515D01*
G37*
G36*
X140234181Y-20382515D02*
G01*
X140375150Y-20456501D01*
X140494316Y-20562074D01*
X140584755Y-20693097D01*
X140641210Y-20841956D01*
X140660400Y-21000000D01*
X140641210Y-21158044D01*
X140584755Y-21306903D01*
X140494316Y-21437926D01*
X140375150Y-21543499D01*
X140234181Y-21617485D01*
X140079602Y-21655585D01*
X139920398Y-21655585D01*
X139765819Y-21617485D01*
X139624850Y-21543499D01*
X139505684Y-21437926D01*
X139415245Y-21306903D01*
X139358790Y-21158044D01*
X139339600Y-21000000D01*
X139358790Y-20841956D01*
X139415245Y-20693097D01*
X139505684Y-20562074D01*
X139624850Y-20456501D01*
X139765819Y-20382515D01*
X139920398Y-20344415D01*
X140079602Y-20344415D01*
X140234181Y-20382515D01*
G37*
M02*
