M48
; DRILL file {KiCad 8.0.6} date 2025-01-22T16:53:38-0500
; FORMAT={-:-/ absolute / metric / decimal}
; #@! TF.CreationDate,2025-01-22T16:53:38-05:00
; #@! TF.GenerationSoftware,Kicad,Pcbnew,8.0.6
; #@! TF.FileFunction,Plated,1,4,PTH
FMAT,2
METRIC
; #@! TA.AperFunction,Plated,PTH,ViaDrill
T1C0.300
; #@! TA.AperFunction,Plated,PTH,ViaDrill
T2C0.330
; #@! TA.AperFunction,Plated,PTH,ComponentDrill
T3C0.600
; #@! TA.AperFunction,Plated,PTH,ComponentDrill
T4C0.762
; #@! TA.AperFunction,Plated,PTH,ComponentDrill
T5C0.813
; #@! TA.AperFunction,Plated,PTH,ComponentDrill
T6C0.850
; #@! TA.AperFunction,Plated,PTH,ViaDrill
T7C1.000
; #@! TA.AperFunction,Plated,PTH,ComponentDrill
T8C1.000
; #@! TA.AperFunction,Plated,PTH,ComponentDrill
T9C1.016
; #@! TA.AperFunction,Plated,PTH,ComponentDrill
T10C1.118
; #@! TA.AperFunction,Plated,PTH,ComponentDrill
T11C1.295
; #@! TA.AperFunction,Plated,PTH,ComponentDrill
T12C1.700
; #@! TA.AperFunction,Plated,PTH,ComponentDrill
T13C2.700
; #@! TA.AperFunction,Plated,PTH,ComponentDrill
T14C5.300
%
G90
G05
T1
X27.0Y-110.5
X27.0Y-122.5
X27.5Y-112.0
X27.5Y-118.5
X28.5Y-115.5
X28.5Y-118.5
X28.5Y-120.5
X28.5Y-122.0
X32.047Y-112.047
X32.047Y-129.0
X33.0Y-120.0
X33.905Y-128.241
X33.905Y-128.241
X34.0Y-122.6
X35.5Y-113.5
X35.5Y-116.5
X35.5Y-118.5
X35.805Y-122.6
X36.405Y-128.241
X36.5Y-122.0
X37.5Y-120.0
X37.5Y-123.5
X37.5Y-129.0
X40.4Y-35.8
X40.865Y-65.0
X42.0Y-116.5
X42.5Y-122.5
X42.5Y-139.186
X44.0Y-113.5
X44.0Y-121.5
X44.4Y-34.6
X52.0Y-32.6
X52.083Y-74.5
X55.5Y-34.6
X55.5Y-74.5
X56.066Y-34.0
X56.4Y-80.0
X56.5Y-35.8
X58.0Y-33.2
X59.2Y-81.4
X64.5Y-142.5
X66.5Y-109.0
X66.5Y-162.0
X67.0Y-75.0
X67.0Y-77.5
X69.0Y-56.5
X71.0Y-93.5
X71.0Y-108.0
X71.0Y-110.5
X72.0Y-92.5
X72.5Y-45.5
X72.5Y-154.0
X73.5Y-44.5
X73.5Y-108.0
X73.8Y-81.4
X74.5Y-56.5
X75.0Y-28.0
X75.0Y-120.9
X75.5Y-110.5
X75.5Y-142.5
X75.5Y-154.6
X76.0Y-97.0
X77.0Y-112.5
X78.5Y-46.5
X78.5Y-139.0
X78.5Y-154.0
X78.5Y-162.0
X78.9Y-97.0
X78.9Y-108.5
X79.0Y-134.5
X79.5Y-93.5
X79.5Y-116.5
X79.5Y-154.5
X80.0Y-28.0
X80.0Y-124.1
X80.066Y-92.934
X80.1Y-112.5
X80.665Y-149.335
X81.0Y-151.0
X81.0Y-155.5
X81.5Y-139.0
X82.0Y-149.0
X82.0Y-155.97
X82.4Y-102.0
X82.6Y-150.0
X83.0Y-151.0
X83.0Y-153.9
X83.5Y-116.5
X83.5Y-149.0
X83.5Y-157.5
X83.63Y-155.392
X84.0Y-156.5
X85.0Y-76.2
X85.0Y-84.0
X85.4Y-73.66
X85.6Y-81.0
X86.0Y-108.5
X86.0Y-146.658
X86.5Y-72.5
X86.5Y-80.0
X87.5Y-71.0
X87.5Y-79.0
X87.5Y-97.0
X88.0Y-120.9
X88.0Y-157.5
X88.5Y-67.31
X88.5Y-78.0
X89.0Y-152.5
X89.5Y-66.0
X89.5Y-77.0
X89.5Y-108.0
X89.5Y-149.7
X89.5Y-150.5
X90.2Y-152.5
X91.0Y-64.77
X91.0Y-76.0
X91.0Y-134.5
X91.0Y-149.527
X91.5Y-152.5
X92.5Y-43.5
X92.5Y-96.5
X92.8Y-149.3
X93.5Y-143.5
X93.5Y-148.0
X93.7Y-42.7
X94.0Y-157.5
X95.0Y-42.0
X95.0Y-57.5
X95.0Y-61.0
X95.658Y-146.658
X96.2Y-41.3
X97.5Y-32.6
X97.5Y-96.5
X97.5Y-150.5
X98.7Y-28.4
X99.5Y-157.5
X100.0Y-150.5
X103.0Y-157.0
X108.0Y-63.5
X110.0Y-28.4
X110.0Y-157.0
X111.8Y-143.5
X112.0Y-132.0
X112.95Y-40.0
X113.0Y-69.5
X113.5Y-63.0
X114.2Y-39.0
X115.45Y-38.0
X116.7Y-37.0
X117.0Y-132.0
X118.0Y-28.4
X118.0Y-32.4
X119.0Y-27.5
X123.5Y-140.0
X127.5Y-132.0
X129.5Y-130.5
X129.5Y-140.0
X132.525Y-147.4
X132.525Y-160.9
X133.5Y-124.1
X134.0Y-28.4
X134.5Y-152.0
X135.0Y-144.0
X135.025Y-160.9
X136.0Y-130.5
X136.025Y-139.9
X136.525Y-147.4
X138.0Y-36.0
X138.0Y-147.5
X138.0Y-152.0
X139.5Y-79.0
X139.5Y-93.02
X140.0Y-35.0
X140.0Y-40.0
X140.0Y-62.54
X140.5Y-80.0
X140.5Y-99.5
X141.0Y-39.0
X141.0Y-57.5
X141.25Y-144.25
X141.5Y-81.0
X141.5Y-96.0
X142.0Y-38.0
X142.0Y-55.0
X142.5Y-78.0
X142.5Y-88.0
X142.5Y-147.5
X143.0Y-37.0
X143.0Y-52.5
X143.0Y-152.0
X143.5Y-77.0
X143.5Y-90.5
X143.5Y-133.0
X144.0Y-43.5
X144.0Y-75.0
X144.5Y-76.0
X144.5Y-85.5
X144.8Y-42.7
X145.5Y-42.0
X145.6Y-67.4
X146.2Y-41.3
X146.5Y-65.0
X147.5Y-139.5
X148.4Y-46.5
X148.434Y-61.0
X149.0Y-45.5
X149.0Y-59.5
X149.5Y-44.5
X149.6Y-58.338
X150.5Y-36.0
X150.5Y-68.5
X151.0Y-35.0
X151.0Y-89.0
X151.0Y-123.5
X151.1Y-71.5
X152.0Y-33.4
X152.0Y-79.0
X152.0Y-91.5
X152.0Y-121.5
X153.0Y-34.0
X153.0Y-76.5
X153.0Y-97.0
X153.0Y-122.0
X155.0Y-50.5
X155.0Y-56.0
X155.0Y-60.1
X155.0Y-64.0
X155.0Y-73.5
X155.0Y-86.5
X155.0Y-89.9
X155.0Y-98.5
X160.5Y-133.0
X161.0Y-139.5
X161.0Y-145.0
T2
X40.0Y-137.0
X48.0Y-137.0
X51.0Y-135.0
X51.0Y-137.0
X54.0Y-135.0
X54.5Y-137.0
X59.0Y-136.0
X61.5Y-68.5
X66.5Y-136.0
X67.5Y-138.0
X67.5Y-140.5
X69.0Y-68.18
X69.0Y-71.5
X72.0Y-71.77
X145.0Y-72.5
T4
X108.255Y-69.425
X108.255Y-71.925
T5
X52.0Y-21.0
X54.0Y-21.0
X56.0Y-21.0
X58.0Y-21.0
X134.0Y-21.0
X136.0Y-21.0
X138.0Y-21.0
X140.0Y-21.0
T6
X21.0Y-116.5
X21.0Y-118.5
X21.0Y-120.5
X21.0Y-122.5
T7
X30.2Y-147.0
X46.5Y-147.0
X59.6Y-147.0
X70.2Y-30.0
X103.111Y-31.2
X146.52Y-29.8
X151.0Y-32.173
T8
X70.96Y-97.0
X70.96Y-102.0
X73.5Y-97.0
X73.5Y-102.0
X73.92Y-59.69
X73.92Y-62.23
X73.92Y-64.77
X73.92Y-67.31
X73.92Y-69.85
X73.92Y-72.39
X73.92Y-74.93
X73.92Y-77.47
X79.0Y-60.96
X79.0Y-63.5
X79.0Y-66.04
X79.0Y-68.58
X79.0Y-71.12
X79.0Y-73.66
X79.0Y-76.2
X90.26Y-162.07
X92.8Y-162.07
X140.435Y-140.0
X142.975Y-140.0
T9
X165.96Y-49.84
X165.96Y-52.38
X165.96Y-54.92
X165.96Y-57.46
X165.96Y-60.0
X165.96Y-62.54
X165.96Y-65.08
X165.96Y-67.62
X165.96Y-70.16
X165.96Y-72.7
X165.96Y-75.24
X165.96Y-77.78
X165.96Y-80.32
X165.96Y-82.86
X165.96Y-85.4
X165.96Y-87.94
X165.96Y-90.48
X165.96Y-93.02
X165.96Y-95.56
X165.96Y-98.1
X168.5Y-49.84
X168.5Y-52.38
X168.5Y-54.92
X168.5Y-57.46
X168.5Y-60.0
X168.5Y-62.54
X168.5Y-65.08
X168.5Y-67.62
X168.5Y-70.16
X168.5Y-72.7
X168.5Y-75.24
X168.5Y-77.78
X168.5Y-80.32
X168.5Y-82.86
X168.5Y-85.4
X168.5Y-87.94
X168.5Y-90.48
X168.5Y-93.02
X168.5Y-95.56
X168.5Y-98.1
T10
X40.865Y-62.425
X40.865Y-77.425
X40.968Y-56.425
X40.968Y-83.925
X52.041Y-62.425
X52.041Y-77.425
X52.145Y-56.425
X52.145Y-83.925
X101.713Y-84.0
X101.713Y-90.5
X102.98Y-57.5
X103.111Y-51.5
X112.889Y-84.0
X112.889Y-90.5
X114.156Y-57.5
X114.286Y-51.5
T11
X38.0Y-167.5
X43.0Y-167.5
T12
X40.54Y-24.0
X44.5Y-24.0
X146.52Y-24.0
X150.48Y-24.0
T13
X52.4Y-154.35
X59.6Y-154.35
T14
X24.0Y-25.0
X24.0Y-165.5
X164.5Y-25.0
X164.5Y-165.5
T3
X49.25Y-160.9G85X49.25Y-159.8
G05
X62.75Y-160.9G85X62.75Y-159.8
G05
X163.4Y-110.5G85X164.0Y-110.5
G05
X163.4Y-119.14G85X164.0Y-119.14
G05
X167.2Y-110.5G85X167.8Y-110.5
G05
X167.2Y-119.14G85X167.8Y-119.14
G05
M30
