M48
; DRILL file {KiCad 8.0.6} date 2025-01-26T17:30:37-0500
; FORMAT={-:-/ absolute / metric / decimal}
; #@! TF.CreationDate,2025-01-26T17:30:37-05:00
; #@! TF.GenerationSoftware,Kicad,Pcbnew,8.0.6
; #@! TF.FileFunction,Plated,1,4,PTH
FMAT,2
METRIC
; #@! TA.AperFunction,Plated,PTH,ViaDrill
T1C0.300
; #@! TA.AperFunction,Plated,PTH,ViaDrill
T2C0.330
; #@! TA.AperFunction,Plated,PTH,ViaDrill
T3C0.400
; #@! TA.AperFunction,Plated,PTH,ViaDrill
T4C0.450
; #@! TA.AperFunction,Plated,PTH,ViaDrill
T5C0.500
; #@! TA.AperFunction,Plated,PTH,ViaDrill
T6C0.600
; #@! TA.AperFunction,Plated,PTH,ComponentDrill
T7C0.600
; #@! TA.AperFunction,Plated,PTH,ComponentDrill
T8C0.762
; #@! TA.AperFunction,Plated,PTH,ComponentDrill
T9C0.813
; #@! TA.AperFunction,Plated,PTH,ComponentDrill
T10C0.850
; #@! TA.AperFunction,Plated,PTH,ViaDrill
T11C1.000
; #@! TA.AperFunction,Plated,PTH,ComponentDrill
T12C1.000
; #@! TA.AperFunction,Plated,PTH,ComponentDrill
T13C1.016
; #@! TA.AperFunction,Plated,PTH,ComponentDrill
T14C1.118
; #@! TA.AperFunction,Plated,PTH,ComponentDrill
T15C1.295
; #@! TA.AperFunction,Plated,PTH,ComponentDrill
T16C1.700
; #@! TA.AperFunction,Plated,PTH,ComponentDrill
T17C2.700
; #@! TA.AperFunction,Plated,PTH,ComponentDrill
T18C5.300
%
G90
G05
T1
X25.5Y-110.6
X25.5Y-122.5
X27.5Y-112.0
X27.5Y-118.5
X28.5Y-115.5
X28.5Y-118.5
X28.5Y-120.5
X28.5Y-122.0
X32.047Y-112.047
X32.047Y-129.0
X33.0Y-120.0
X33.905Y-128.241
X33.905Y-128.241
X34.0Y-122.6
X35.5Y-113.5
X35.5Y-116.5
X35.5Y-118.5
X35.805Y-122.6
X36.405Y-128.241
X36.5Y-122.0
X37.5Y-120.0
X37.5Y-123.5
X37.5Y-129.0
X40.5Y-39.0
X42.0Y-116.5
X42.5Y-122.5
X42.5Y-139.186
X44.0Y-113.5
X44.0Y-121.5
X44.5Y-37.0
X49.3Y-72.95
X52.0Y-32.6
X54.9Y-77.5
X55.5Y-37.0
X55.5Y-73.0
X56.066Y-34.0
X57.0Y-80.0
X58.0Y-33.2
X58.5Y-39.0
X59.2Y-81.4
X66.5Y-109.0
X67.0Y-75.0
X67.0Y-77.5
X70.0Y-90.5
X71.0Y-93.5
X71.0Y-108.0
X71.0Y-110.0
X72.2Y-45.45
X72.5Y-154.0
X73.5Y-44.5
X73.5Y-108.0
X73.8Y-81.4
X74.75Y-27.75
X75.0Y-120.9
X75.5Y-110.0
X76.0Y-97.0
X77.5Y-112.5
X78.5Y-46.5
X78.5Y-154.0
X78.9Y-97.0
X78.9Y-108.5
X79.5Y-28.0
X79.5Y-93.5
X79.5Y-116.5
X80.349Y-93.217
X81.0Y-112.5
X81.0Y-125.0
X81.0Y-151.0
X81.0Y-155.5
X82.5Y-101.9
X82.6Y-150.0
X83.0Y-151.0
X83.5Y-116.5
X83.63Y-155.392
X83.75Y-149.25
X84.0Y-84.0
X84.0Y-156.5
X84.5Y-76.2
X85.4Y-73.66
X85.6Y-81.0
X86.0Y-108.5
X86.0Y-146.658
X86.5Y-72.5
X86.5Y-80.0
X87.5Y-71.0
X87.5Y-79.0
X87.651Y-96.849
X88.0Y-120.9
X88.5Y-67.31
X88.5Y-78.0
X88.5Y-148.701
X88.5Y-156.5
X89.0Y-152.5
X89.5Y-66.0
X89.5Y-77.0
X89.5Y-108.0
X89.5Y-149.7
X91.0Y-64.77
X91.0Y-76.0
X92.501Y-96.499
X93.75Y-42.7
X93.75Y-96.499
X93.8Y-32.65
X95.658Y-146.658
X97.1Y-84.05
X97.5Y-150.5
X100.0Y-150.5
X102.5Y-28.4
X103.0Y-60.65
X110.0Y-28.4
X115.3Y-32.55
X123.5Y-140.0
X127.15Y-76.15
X129.0Y-78.0
X129.5Y-140.0
X130.05Y-79.1
X131.6Y-81.05
X132.525Y-160.9
X132.55Y-146.9
X133.5Y-125.0
X134.5Y-152.0
X135.025Y-160.9
X135.2Y-143.85
X135.35Y-56.15
X136.025Y-139.9
X136.5Y-146.85
X138.0Y-146.4
X138.0Y-152.0
X141.25Y-144.25
X143.5Y-133.0
X143.85Y-152.15
X144.0Y-75.0
X144.8Y-42.7
X148.4Y-46.5
X150.05Y-139.5
X151.0Y-123.5
X151.15Y-39.75
X152.0Y-121.5
X152.14Y-43.09
X153.0Y-122.0
X153.06Y-50.71
X155.0Y-48.0
X155.0Y-57.45
X155.0Y-60.1
X155.0Y-86.5
X155.0Y-89.9
X155.0Y-98.5
X157.1Y-34.1
X159.0Y-33.55
X160.0Y-146.0
X160.5Y-133.0
X161.0Y-139.5
T2
X22.5Y-56.0
X23.5Y-81.5
X25.0Y-39.0
X25.0Y-155.5
X25.5Y-93.5
X26.5Y-130.5
X28.5Y-64.0
X29.0Y-50.5
X31.5Y-158.5
X32.5Y-76.0
X33.5Y-30.0
X36.9Y-67.75
X40.0Y-91.5
X40.0Y-137.0
X41.0Y-132.0
X46.0Y-49.0
X47.0Y-126.5
X48.0Y-137.0
X49.5Y-104.5
X50.5Y-43.5
X51.0Y-137.0
X53.0Y-115.5
X53.17Y-62.23
X54.5Y-137.0
X57.5Y-98.5
X60.5Y-91.0
X60.5Y-129.0
X61.0Y-54.0
X61.5Y-46.0
X61.5Y-68.5
X64.0Y-28.5
X65.0Y-38.5
X65.5Y-50.0
X65.5Y-68.5
X65.5Y-71.5
X67.5Y-65.0
X68.0Y-56.0
X71.0Y-71.5
X73.5Y-129.5
X75.0Y-50.0
X75.0Y-166.0
X75.5Y-56.0
X80.0Y-86.0
X82.0Y-40.5
X86.5Y-130.5
X87.0Y-51.5
X88.5Y-37.5
X89.5Y-168.5
X91.0Y-54.0
X92.0Y-89.5
X92.4Y-28.25
X94.5Y-152.5
X94.95Y-41.75
X95.835Y-154.165
X96.5Y-20.0
X97.0Y-115.0
X97.45Y-35.25
X97.5Y-69.95
X99.5Y-39.0
X99.95Y-37.475
X100.0Y-126.5
X101.5Y-153.5
X102.0Y-137.0
X102.5Y-160.0
X107.0Y-106.0
X107.7Y-35.25
X107.7Y-36.65
X108.5Y-114.0
X108.5Y-129.0
X108.95Y-38.85
X108.95Y-40.75
X110.175Y-37.5
X110.2Y-39.8
X114.0Y-27.353
X116.5Y-23.5
X117.9Y-35.25
X118.5Y-137.5
X120.0Y-113.5
X120.35Y-67.5
X120.425Y-37.5
X120.5Y-83.5
X121.0Y-48.5
X121.0Y-161.5
X123.0Y-97.5
X123.5Y-28.0
X123.6Y-69.7
X123.75Y-36.65
X125.0Y-86.5
X125.0Y-105.5
X125.0Y-128.0
X126.5Y-153.5
X127.2Y-61.05
X127.5Y-55.5
X128.5Y-117.5
X129.05Y-63.4
X130.2Y-64.8
X131.0Y-27.5
X131.0Y-101.0
X131.55Y-66.15
X133.0Y-91.0
X134.0Y-110.0
X134.5Y-73.05
X135.5Y-51.0
X136.8Y-39.85
X136.8Y-49.65
X138.7Y-74.0
X140.0Y-67.15
X140.0Y-118.0
X140.5Y-104.5
X140.75Y-92.45
X141.95Y-48.05
X142.1Y-84.7
X143.4Y-146.4
X145.0Y-72.5
X145.0Y-113.5
X146.15Y-41.8
X146.15Y-82.6
X147.35Y-37.3
X147.5Y-128.5
X148.4Y-55.7
X154.45Y-69.7
X154.45Y-81.15
X154.5Y-150.5
X155.5Y-163.5
X156.5Y-102.5
X157.0Y-128.0
X157.275Y-76.075
X159.0Y-69.75
X159.5Y-122.5
X161.5Y-106.7
X161.5Y-113.25
X161.5Y-155.0
X162.1Y-40.8
X162.113Y-45.687
X163.0Y-37.5
X163.15Y-90.4
X166.6Y-103.6
T3
X92.75Y-149.25
T4
X82.5Y-134.5
X91.0Y-134.5
X93.5Y-143.5
X93.5Y-147.5
X111.8Y-143.5
X112.5Y-132.0
X127.5Y-132.0
X129.5Y-129.0
X136.0Y-129.0
T5
X75.275Y-155.4
X79.4Y-140.8
X79.737Y-155.4
X80.6Y-148.9
X81.5Y-139.0
X86.0Y-154.5
X86.3Y-152.57
X86.5Y-150.5
T6
X114.0Y-64.0
T8
X108.255Y-69.425
X108.255Y-71.925
T9
X52.0Y-21.0
X54.0Y-21.0
X56.0Y-21.0
X58.0Y-21.0
X134.0Y-21.0
X136.0Y-21.0
X138.0Y-21.0
X140.0Y-21.0
T10
X21.0Y-116.5
X21.0Y-118.5
X21.0Y-120.5
X21.0Y-122.5
T11
X30.2Y-147.0
X46.0Y-129.5
X46.0Y-142.0
X49.5Y-129.5
X53.0Y-129.5
X57.0Y-142.0
X57.0Y-147.0
X61.0Y-136.0
X62.5Y-146.0
X66.0Y-136.1
X68.5Y-158.5
X70.475Y-29.725
X75.0Y-143.5
X76.5Y-162.0
X95.5Y-157.5
X98.5Y-160.5
X102.0Y-164.0
X103.111Y-31.2
X110.0Y-164.0
X146.52Y-29.8
X150.48Y-31.653
T12
X70.96Y-97.0
X70.96Y-102.0
X73.5Y-97.0
X73.5Y-102.0
X73.92Y-59.69
X73.92Y-62.23
X73.92Y-64.77
X73.92Y-67.31
X73.92Y-69.85
X73.92Y-72.39
X73.92Y-74.93
X73.92Y-77.47
X79.0Y-60.96
X79.0Y-63.5
X79.0Y-66.04
X79.0Y-68.58
X79.0Y-71.12
X79.0Y-73.66
X79.0Y-76.2
X90.26Y-162.07
X92.8Y-162.07
X140.435Y-140.0
X142.975Y-140.0
T13
X165.9Y-38.01
X165.9Y-40.55
X165.9Y-43.09
X165.9Y-45.63
X165.9Y-48.17
X165.9Y-50.71
X165.9Y-53.25
X165.9Y-55.79
X165.9Y-58.33
X165.9Y-60.87
X165.9Y-63.41
X165.9Y-65.95
X165.9Y-68.49
X165.9Y-71.03
X165.9Y-73.57
X165.9Y-76.11
X165.9Y-78.65
X165.9Y-81.19
X165.9Y-83.73
X165.9Y-86.27
X168.44Y-38.01
X168.44Y-40.55
X168.44Y-43.09
X168.44Y-45.63
X168.44Y-48.17
X168.44Y-50.71
X168.44Y-53.25
X168.44Y-55.79
X168.44Y-58.33
X168.44Y-60.87
X168.44Y-63.41
X168.44Y-65.95
X168.44Y-68.49
X168.44Y-71.03
X168.44Y-73.57
X168.44Y-76.11
X168.44Y-78.65
X168.44Y-81.19
X168.44Y-83.73
X168.44Y-86.27
T14
X36.402Y-62.225
X36.463Y-56.35
X38.16Y-77.45
X38.413Y-83.95
X47.578Y-62.225
X47.639Y-56.35
X49.337Y-77.45
X49.59Y-83.95
X101.713Y-84.0
X101.713Y-90.5
X102.98Y-57.5
X103.111Y-51.5
X112.889Y-84.0
X112.889Y-90.5
X114.156Y-57.5
X114.286Y-51.5
T15
X38.0Y-167.5
X43.0Y-167.5
T16
X40.54Y-24.0
X44.5Y-24.0
X146.52Y-24.0
X150.48Y-24.0
T17
X52.4Y-154.35
X59.6Y-154.35
T18
X24.0Y-25.0
X24.0Y-165.5
X164.5Y-25.0
X164.5Y-165.5
T7
X49.25Y-160.9G85X49.25Y-159.8
G05
X62.75Y-160.9G85X62.75Y-159.8
G05
X163.4Y-110.5G85X164.0Y-110.5
G05
X163.4Y-119.14G85X164.0Y-119.14
G05
X167.2Y-110.5G85X167.8Y-110.5
G05
X167.2Y-119.14G85X167.8Y-119.14
G05
M30
