G04 #@! TF.GenerationSoftware,KiCad,Pcbnew,8.0.6*
G04 #@! TF.CreationDate,2025-01-26T17:26:35-05:00*
G04 #@! TF.ProjectId,Main_Board_Rev1,4d61696e-5f42-46f6-9172-645f52657631,rev?*
G04 #@! TF.SameCoordinates,Original*
G04 #@! TF.FileFunction,Copper,L4,Bot*
G04 #@! TF.FilePolarity,Positive*
%FSLAX46Y46*%
G04 Gerber Fmt 4.6, Leading zero omitted, Abs format (unit mm)*
G04 Created by KiCad (PCBNEW 8.0.6) date 2025-01-26 17:26:35*
%MOMM*%
%LPD*%
G01*
G04 APERTURE LIST*
G04 Aperture macros list*
%AMRoundRect*
0 Rectangle with rounded corners*
0 $1 Rounding radius*
0 $2 $3 $4 $5 $6 $7 $8 $9 X,Y pos of 4 corners*
0 Add a 4 corners polygon primitive as box body*
4,1,4,$2,$3,$4,$5,$6,$7,$8,$9,$2,$3,0*
0 Add four circle primitives for the rounded corners*
1,1,$1+$1,$2,$3*
1,1,$1+$1,$4,$5*
1,1,$1+$1,$6,$7*
1,1,$1+$1,$8,$9*
0 Add four rect primitives between the rounded corners*
20,1,$1+$1,$2,$3,$4,$5,0*
20,1,$1+$1,$4,$5,$6,$7,0*
20,1,$1+$1,$6,$7,$8,$9,0*
20,1,$1+$1,$8,$9,$2,$3,0*%
G04 Aperture macros list end*
G04 #@! TA.AperFunction,ComponentPad*
%ADD10R,1.625600X1.625600*%
G04 #@! TD*
G04 #@! TA.AperFunction,ComponentPad*
%ADD11C,1.625600*%
G04 #@! TD*
G04 #@! TA.AperFunction,ComponentPad*
%ADD12C,9.200000*%
G04 #@! TD*
G04 #@! TA.AperFunction,ComponentPad*
%ADD13O,1.600000X0.800000*%
G04 #@! TD*
G04 #@! TA.AperFunction,ComponentPad*
%ADD14C,1.524000*%
G04 #@! TD*
G04 #@! TA.AperFunction,ComponentPad*
%ADD15R,1.800000X1.800000*%
G04 #@! TD*
G04 #@! TA.AperFunction,ComponentPad*
%ADD16O,1.800000X1.800000*%
G04 #@! TD*
G04 #@! TA.AperFunction,ComponentPad*
%ADD17R,1.700000X1.700000*%
G04 #@! TD*
G04 #@! TA.AperFunction,ComponentPad*
%ADD18O,1.700000X1.700000*%
G04 #@! TD*
G04 #@! TA.AperFunction,ComponentPad*
%ADD19C,1.270000*%
G04 #@! TD*
G04 #@! TA.AperFunction,ComponentPad*
%ADD20R,0.900000X2.000000*%
G04 #@! TD*
G04 #@! TA.AperFunction,ComponentPad*
%ADD21RoundRect,1.025000X1.025000X1.025000X-1.025000X1.025000X-1.025000X-1.025000X1.025000X-1.025000X0*%
G04 #@! TD*
G04 #@! TA.AperFunction,ComponentPad*
%ADD22C,4.100000*%
G04 #@! TD*
G04 #@! TA.AperFunction,ComponentPad*
%ADD23C,1.803400*%
G04 #@! TD*
G04 #@! TA.AperFunction,ComponentPad*
%ADD24C,1.320800*%
G04 #@! TD*
G04 #@! TA.AperFunction,ComponentPad*
%ADD25R,1.200000X1.200000*%
G04 #@! TD*
G04 #@! TA.AperFunction,ComponentPad*
%ADD26C,1.200000*%
G04 #@! TD*
G04 #@! TA.AperFunction,ComponentPad*
%ADD27R,3.000000X3.000000*%
G04 #@! TD*
G04 #@! TA.AperFunction,ComponentPad*
%ADD28C,3.000000*%
G04 #@! TD*
G04 #@! TA.AperFunction,ViaPad*
%ADD29C,0.685800*%
G04 #@! TD*
G04 #@! TA.AperFunction,ViaPad*
%ADD30C,0.600000*%
G04 #@! TD*
G04 #@! TA.AperFunction,ViaPad*
%ADD31C,1.000000*%
G04 #@! TD*
G04 #@! TA.AperFunction,ViaPad*
%ADD32C,1.200000*%
G04 #@! TD*
G04 #@! TA.AperFunction,ViaPad*
%ADD33C,0.900000*%
G04 #@! TD*
G04 #@! TA.AperFunction,ViaPad*
%ADD34C,2.000000*%
G04 #@! TD*
G04 #@! TA.AperFunction,ViaPad*
%ADD35C,0.800000*%
G04 #@! TD*
G04 #@! TA.AperFunction,Conductor*
%ADD36C,0.254000*%
G04 #@! TD*
G04 #@! TA.AperFunction,Conductor*
%ADD37C,0.200000*%
G04 #@! TD*
G04 #@! TA.AperFunction,Conductor*
%ADD38C,0.400000*%
G04 #@! TD*
G04 #@! TA.AperFunction,Conductor*
%ADD39C,1.800000*%
G04 #@! TD*
G04 #@! TA.AperFunction,Conductor*
%ADD40C,1.016000*%
G04 #@! TD*
G04 #@! TA.AperFunction,Conductor*
%ADD41C,0.500000*%
G04 #@! TD*
G04 #@! TA.AperFunction,Conductor*
%ADD42C,2.540000*%
G04 #@! TD*
G04 #@! TA.AperFunction,Conductor*
%ADD43C,0.250000*%
G04 #@! TD*
G04 #@! TA.AperFunction,Conductor*
%ADD44C,0.700000*%
G04 #@! TD*
G04 #@! TA.AperFunction,Conductor*
%ADD45C,0.508000*%
G04 #@! TD*
G04 APERTURE END LIST*
D10*
X38160500Y-77450000D03*
D11*
X49336500Y-77450000D03*
D12*
X24000000Y-165500000D03*
D10*
X49589500Y-83950000D03*
D11*
X38413500Y-83950000D03*
D10*
X114156000Y-57500000D03*
D11*
X102980000Y-57500000D03*
D13*
X163700000Y-119140000D03*
X163700000Y-110500000D03*
X167500000Y-119140000D03*
X167500000Y-110500000D03*
D12*
X24000000Y-25000000D03*
D14*
X165900000Y-38010000D03*
X168440000Y-38010000D03*
X165900000Y-40550000D03*
X168440000Y-40550000D03*
X165900000Y-43090000D03*
X168440000Y-43090000D03*
X165900000Y-45630000D03*
X168440000Y-45630000D03*
X165900000Y-48170000D03*
X168440000Y-48170000D03*
X165900000Y-50710000D03*
X168440000Y-50710000D03*
X165900000Y-53250000D03*
X168440000Y-53250000D03*
X165900000Y-55790000D03*
X168440000Y-55790000D03*
X165900000Y-58330000D03*
X168440000Y-58330000D03*
X165900000Y-60870000D03*
X168440000Y-60870000D03*
X165900000Y-63410000D03*
X168440000Y-63410000D03*
X165900000Y-65950000D03*
X168440000Y-65950000D03*
X165900000Y-68490000D03*
X168440000Y-68490000D03*
X165900000Y-71030000D03*
X168440000Y-71030000D03*
X165900000Y-73570000D03*
X168440000Y-73570000D03*
X165900000Y-76110000D03*
X168440000Y-76110000D03*
X165900000Y-78650000D03*
X168440000Y-78650000D03*
X165900000Y-81190000D03*
X168440000Y-81190000D03*
X165900000Y-83730000D03*
X168440000Y-83730000D03*
X165900000Y-86270000D03*
X168440000Y-86270000D03*
D15*
X73920000Y-59690000D03*
D16*
X79000000Y-60960000D03*
X73920000Y-62230000D03*
X79000000Y-63500000D03*
X73920000Y-64770000D03*
X79000000Y-66040000D03*
X73920000Y-67310000D03*
X79000000Y-68580000D03*
X73920000Y-69850000D03*
X79000000Y-71120000D03*
X73920000Y-72390000D03*
X79000000Y-73660000D03*
X73920000Y-74930000D03*
X79000000Y-76200000D03*
X73920000Y-77470000D03*
D10*
X103110500Y-51500000D03*
D11*
X114286500Y-51500000D03*
D17*
X73500000Y-102000000D03*
D18*
X70960000Y-102000000D03*
D12*
X164500000Y-25000000D03*
D17*
X142975000Y-140000000D03*
D18*
X140435000Y-140000000D03*
D19*
X108255000Y-69425000D03*
X108255000Y-71925000D03*
D12*
X164500000Y-165500000D03*
D20*
X62750000Y-160350000D03*
X49250000Y-160350000D03*
D21*
X59600000Y-154350000D03*
D22*
X52400000Y-154350000D03*
D10*
X112889500Y-84000000D03*
D11*
X101713500Y-84000000D03*
D23*
X43000000Y-167500000D03*
X38000000Y-167500000D03*
D24*
X52000000Y-21000000D03*
X53999999Y-21000000D03*
X56000000Y-21000000D03*
X57999998Y-21000000D03*
D10*
X101713500Y-90500000D03*
D11*
X112889500Y-90500000D03*
D24*
X134000002Y-21000000D03*
X136000001Y-21000000D03*
X138000002Y-21000000D03*
X140000000Y-21000000D03*
D17*
X92799976Y-162070108D03*
D18*
X90259976Y-162070108D03*
D25*
X21000000Y-122500000D03*
D26*
X21000000Y-120500000D03*
X21000000Y-118500000D03*
X21000000Y-116500000D03*
D10*
X36402000Y-62225000D03*
D11*
X47578000Y-62225000D03*
D10*
X47639500Y-56350000D03*
D11*
X36463500Y-56350000D03*
D17*
X73500000Y-97000000D03*
D18*
X70960000Y-97000000D03*
D27*
X150480000Y-24000000D03*
D28*
X146520000Y-24000000D03*
D27*
X44500000Y-24000000D03*
D28*
X40540000Y-24000000D03*
D29*
X40000000Y-137000000D03*
X51000000Y-137000000D03*
X54500000Y-137000000D03*
X48000000Y-137000000D03*
X23500000Y-81500000D03*
X22500000Y-56000000D03*
X140000000Y-118000000D03*
X26500000Y-130500000D03*
X94500000Y-152500000D03*
D30*
X134500000Y-152000000D03*
D29*
X61000000Y-54000000D03*
X126500000Y-153500000D03*
X33500000Y-30000000D03*
D30*
X84000000Y-156500000D03*
D29*
X80000000Y-86000000D03*
X108500000Y-114000000D03*
X125000000Y-105500000D03*
D30*
X59200000Y-81400000D03*
D29*
X127500000Y-55500000D03*
X147350000Y-37300000D03*
D30*
X155000000Y-60100000D03*
D29*
X57500000Y-98500000D03*
D30*
X75000000Y-120900000D03*
D29*
X131000000Y-101000000D03*
X125000000Y-86500000D03*
X97500000Y-69950000D03*
X25000000Y-39000000D03*
X60500000Y-129000000D03*
D30*
X143850000Y-152150000D03*
D29*
X87000000Y-51500000D03*
X140750000Y-92450000D03*
X89500000Y-168500000D03*
D30*
X78500000Y-154000000D03*
D29*
X100000000Y-126500000D03*
X147500000Y-128500000D03*
D30*
X33000000Y-120000000D03*
D29*
X120000000Y-113500000D03*
X107000000Y-106000000D03*
D30*
X155000000Y-98500000D03*
X135350000Y-56150000D03*
D29*
X32500000Y-76000000D03*
X60500000Y-91000000D03*
X47000000Y-126500000D03*
D30*
X34000000Y-122600000D03*
D29*
X133000000Y-91000000D03*
X25500000Y-93500000D03*
X95834900Y-154165100D03*
X102500000Y-160000000D03*
D30*
X72500000Y-154000000D03*
D29*
X97000000Y-115000000D03*
D31*
X86299976Y-152570108D03*
D30*
X89000000Y-152500000D03*
X88500000Y-148700900D03*
X155000000Y-89900000D03*
D29*
X135500000Y-51000000D03*
X61500000Y-46000000D03*
X118500000Y-137500000D03*
X108500000Y-129000000D03*
X29000000Y-50500000D03*
D31*
X86500000Y-150500000D03*
D29*
X41000000Y-132000000D03*
X92400000Y-28250000D03*
X128500000Y-117500000D03*
X102000000Y-137000000D03*
D30*
X88500000Y-156500000D03*
D31*
X86000000Y-154500000D03*
D32*
X155000000Y-48000000D03*
D29*
X155500000Y-163500000D03*
D30*
X73800000Y-81400000D03*
D29*
X86500000Y-130500000D03*
X25000000Y-155500000D03*
X64000000Y-28500000D03*
D30*
X42500000Y-139186250D03*
D29*
X121000000Y-161500000D03*
X53000000Y-115500000D03*
X134000000Y-110000000D03*
D30*
X123500000Y-140000000D03*
D29*
X49500000Y-104500000D03*
X88500000Y-37500000D03*
X82000000Y-40500000D03*
X156500000Y-102500000D03*
X140500000Y-104500000D03*
X75000000Y-166000000D03*
D30*
X144000000Y-75000000D03*
D29*
X50500000Y-43500000D03*
X159500000Y-122500000D03*
X125000000Y-128000000D03*
D30*
X161000000Y-139500000D03*
X155000000Y-86500000D03*
X35805500Y-122600000D03*
D29*
X123000000Y-97500000D03*
X145000000Y-113500000D03*
X92000000Y-89500000D03*
X65000000Y-38500000D03*
X157000000Y-128000000D03*
D30*
X138000000Y-152000000D03*
X88000000Y-120900000D03*
D29*
X28500000Y-64000000D03*
X31500000Y-158500000D03*
X154500000Y-150500000D03*
D30*
X83750000Y-149250000D03*
X37500000Y-120000000D03*
D29*
X163150000Y-90400000D03*
D30*
X102500000Y-28400000D03*
D29*
X46000000Y-49000000D03*
D30*
X110000000Y-28400000D03*
X129500000Y-140000000D03*
X155000000Y-57450000D03*
D29*
X134500000Y-73050000D03*
X120350000Y-67500000D03*
X161500000Y-155000000D03*
X123500000Y-28000000D03*
D30*
X150050000Y-139500000D03*
D29*
X101500000Y-153500000D03*
X163000000Y-37500000D03*
X166600000Y-103600000D03*
X91000000Y-54000000D03*
X73500000Y-129500000D03*
X40000000Y-91500000D03*
D30*
X83000000Y-151000000D03*
X81000000Y-151000000D03*
X97500000Y-150500000D03*
X100000000Y-150500000D03*
D33*
X91000000Y-134500000D03*
D34*
X110000000Y-164000000D03*
D33*
X82500000Y-134500000D03*
D34*
X95500000Y-157500000D03*
X98500000Y-160500000D03*
X102000000Y-164000000D03*
D31*
X75274976Y-155400000D03*
D32*
X114000000Y-64000000D03*
D30*
X82600000Y-150000000D03*
D33*
X129500000Y-129000000D03*
X112500000Y-132000000D03*
D31*
X81500000Y-139000000D03*
D33*
X93500000Y-147500000D03*
D29*
X67500000Y-65000000D03*
D34*
X75000000Y-143500000D03*
D33*
X111799976Y-143500000D03*
D31*
X79737476Y-155400000D03*
D29*
X75500000Y-56000000D03*
D33*
X127500000Y-132000000D03*
D31*
X79400000Y-140800000D03*
D29*
X68000000Y-56000000D03*
D33*
X93500000Y-143500000D03*
X136000000Y-129000000D03*
D34*
X62500000Y-146000000D03*
D31*
X80600000Y-148900000D03*
D29*
X36900000Y-67750000D03*
D30*
X82500000Y-101900000D03*
X52000000Y-32600000D03*
X87650707Y-96849293D03*
X66500000Y-109000000D03*
X78900000Y-97000000D03*
X115300000Y-32550000D03*
X86000000Y-108500000D03*
X93800000Y-32650000D03*
D29*
X145000000Y-72500000D03*
X131000000Y-27500000D03*
D30*
X92500707Y-96499293D03*
X89500000Y-108000000D03*
X78900000Y-108500000D03*
X93750000Y-42700000D03*
D29*
X114000000Y-27353100D03*
D30*
X144800000Y-42700000D03*
X93750000Y-96499293D03*
X76000000Y-97000000D03*
X160500000Y-133000000D03*
X138000000Y-146400000D03*
X143500000Y-133000000D03*
D29*
X143400000Y-146400000D03*
D30*
X75500000Y-110000000D03*
X77500000Y-112500000D03*
X25500000Y-110600000D03*
X81000000Y-112500000D03*
X25500000Y-122500000D03*
D29*
X161500000Y-113250000D03*
X161500000Y-106700000D03*
X65500000Y-50000000D03*
X65500000Y-71500000D03*
D30*
X141250000Y-144250000D03*
D29*
X75000000Y-50000000D03*
D30*
X80348531Y-93217156D03*
X79500000Y-28000000D03*
D29*
X71000000Y-71500000D03*
D30*
X135200000Y-143850000D03*
D29*
X65500000Y-68500000D03*
D30*
X81000000Y-125000000D03*
X74750000Y-27750000D03*
X160000000Y-146000000D03*
X71000000Y-110000000D03*
X133500000Y-125000000D03*
D29*
X61500000Y-68500000D03*
D30*
X70000000Y-90500000D03*
X136500000Y-146850000D03*
X135025000Y-160900000D03*
X132550000Y-146900000D03*
X132525000Y-160900000D03*
D34*
X68500000Y-158500000D03*
X61000000Y-136000000D03*
X76500000Y-162000000D03*
X66000000Y-136100000D03*
D30*
X71000000Y-108000000D03*
X73500000Y-108000000D03*
X136025000Y-139900000D03*
X86000000Y-146657608D03*
X95657608Y-146657608D03*
X83629902Y-155391777D03*
X81000000Y-155500000D03*
D35*
X92750000Y-149250000D03*
D30*
X89500000Y-149699997D03*
X79500000Y-93500000D03*
X71000000Y-93500000D03*
X83500000Y-116500000D03*
X79500000Y-116500000D03*
X32047500Y-129000000D03*
X37500000Y-123500000D03*
X151000000Y-123500000D03*
X37500000Y-129000000D03*
X151150000Y-39750000D03*
X36405500Y-128241300D03*
X33905500Y-128241300D03*
X33905500Y-128241300D03*
X28500000Y-122000000D03*
X36500000Y-122000000D03*
X28500000Y-120500000D03*
X32047500Y-112047500D03*
X27500000Y-112000000D03*
X27500000Y-118500000D03*
X44000000Y-121500000D03*
X44000000Y-113500000D03*
X35500000Y-113500000D03*
X152000000Y-121500000D03*
X152140000Y-43090000D03*
X153000000Y-122000000D03*
X153060000Y-50710000D03*
X42500000Y-122500000D03*
X28500000Y-115500000D03*
X35500000Y-118500000D03*
X42000000Y-116500000D03*
X35500000Y-116500000D03*
X28500000Y-118500000D03*
D34*
X30200000Y-147000000D03*
X46000000Y-129500000D03*
X53000000Y-129500000D03*
X49500000Y-129500000D03*
X57000000Y-147000000D03*
X46000000Y-142000000D03*
X57000000Y-142000000D03*
D30*
X103000000Y-60650000D03*
D34*
X150480000Y-31653000D03*
X103110500Y-31200000D03*
X146520000Y-29800000D03*
X70475000Y-29725000D03*
D29*
X53170000Y-62230000D03*
D30*
X67000000Y-75000000D03*
X67000000Y-77500000D03*
X55500000Y-73000000D03*
X54900000Y-77500000D03*
X44500000Y-37000000D03*
X49300000Y-72950000D03*
X55500000Y-37000000D03*
X58500000Y-39000000D03*
X84000000Y-84000000D03*
X57000000Y-80000000D03*
X84500000Y-76200000D03*
X97100000Y-84050000D03*
X40500000Y-39000000D03*
X72200000Y-45450000D03*
X78500000Y-46500000D03*
X148400000Y-46500000D03*
D29*
X148400000Y-55700000D03*
X138700000Y-74000000D03*
X140000000Y-67150000D03*
D30*
X58000000Y-33200000D03*
X159000000Y-33550000D03*
D29*
X159000000Y-69750000D03*
X157275000Y-76075000D03*
D30*
X56065687Y-34000000D03*
X157100000Y-34100000D03*
X73500000Y-44500000D03*
D29*
X146150000Y-41800000D03*
X94950000Y-41750000D03*
X146150000Y-82600000D03*
X120500000Y-83500000D03*
X99500000Y-39000000D03*
X108950000Y-40750000D03*
X108950000Y-38850000D03*
X162100000Y-40800000D03*
X162113336Y-45686664D03*
X141950000Y-48050000D03*
X142100000Y-84700000D03*
X121000000Y-48500000D03*
X136800000Y-49650000D03*
X120425000Y-37500000D03*
X99950000Y-37475000D03*
X110175000Y-37500000D03*
X136800000Y-39850000D03*
X110200000Y-39800000D03*
X107700000Y-35250000D03*
X123600000Y-69700000D03*
X97450000Y-35250000D03*
X154450000Y-69700000D03*
X123750000Y-36650000D03*
X154450000Y-81150000D03*
X107700000Y-36650000D03*
X117900000Y-35250000D03*
D30*
X89500000Y-66000000D03*
X89500000Y-77000000D03*
X85600000Y-81000000D03*
X85400000Y-73660000D03*
D29*
X131550000Y-66150000D03*
D30*
X131600000Y-81050000D03*
X86500000Y-72500000D03*
X86500000Y-80000000D03*
X127150000Y-76150000D03*
X91000000Y-76000000D03*
X91000000Y-64770000D03*
D29*
X127200000Y-61050000D03*
D30*
X130050000Y-79100000D03*
X87500000Y-79000000D03*
D29*
X130200000Y-64800000D03*
D30*
X87500000Y-71000000D03*
X88500000Y-78000000D03*
X129000000Y-78000000D03*
D29*
X129050000Y-63400000D03*
D30*
X88500000Y-67310000D03*
D29*
X116500000Y-23500000D03*
X96500000Y-20000000D03*
D36*
X51000000Y-137000000D02*
X54500000Y-137000000D01*
X40000000Y-137000000D02*
X48000000Y-137000000D01*
X110427000Y-27973000D02*
X123473000Y-27973000D01*
D37*
X34000000Y-122600000D02*
X35805500Y-122600000D01*
X33000000Y-120000000D02*
X37500000Y-120000000D01*
X88000000Y-120900000D02*
X77000000Y-120900000D01*
X72500000Y-154000000D02*
X78500000Y-154000000D01*
X134500000Y-152000000D02*
X138000000Y-152000000D01*
X77000000Y-120900000D02*
X75000000Y-120900000D01*
X143850000Y-152150000D02*
X143700000Y-152000000D01*
D36*
X123473000Y-27973000D02*
X123500000Y-28000000D01*
D37*
X123500000Y-140000000D02*
X129500000Y-140000000D01*
D36*
X92450000Y-28300000D02*
X102400000Y-28300000D01*
X110000000Y-28400000D02*
X110427000Y-27973000D01*
D37*
X73800000Y-81400000D02*
X59200000Y-81400000D01*
X102500000Y-28400000D02*
X110000000Y-28400000D01*
D36*
X102400000Y-28300000D02*
X102500000Y-28400000D01*
D37*
X143700000Y-152000000D02*
X138000000Y-152000000D01*
X155100000Y-60000000D02*
X155000000Y-60100000D01*
X78600000Y-153900000D02*
X78500000Y-154000000D01*
X161000000Y-139500000D02*
X150050000Y-139500000D01*
D36*
X92400000Y-28250000D02*
X92450000Y-28300000D01*
D38*
X81000000Y-151000000D02*
X83000000Y-151000000D01*
D37*
X97500000Y-150500000D02*
X100000000Y-150500000D01*
D39*
X95500000Y-157500000D02*
X98500000Y-160500000D01*
X102000000Y-164000000D02*
X110000000Y-164000000D01*
D40*
X82500000Y-134500000D02*
X91000000Y-134500000D01*
D41*
X80600000Y-148900000D02*
X81700000Y-150000000D01*
X81735000Y-148065000D02*
X81735000Y-147765000D01*
D40*
X36900000Y-67750000D02*
X37150000Y-67500000D01*
X81200000Y-139000000D02*
X81500000Y-139000000D01*
X37150000Y-67500000D02*
X50500000Y-67500000D01*
X93500000Y-143500000D02*
X111799976Y-143500000D01*
X136000000Y-129000000D02*
X129500000Y-129000000D01*
X53000000Y-65000000D02*
X67500000Y-65000000D01*
D42*
X65000000Y-146000000D02*
X62500000Y-146000000D01*
D40*
X75274976Y-155400000D02*
X79737476Y-155400000D01*
X79400000Y-140800000D02*
X81200000Y-139000000D01*
X75500000Y-56000000D02*
X68000000Y-56000000D01*
D42*
X75000000Y-143500000D02*
X67500000Y-143500000D01*
D40*
X79000000Y-63500000D02*
X113500000Y-63500000D01*
D41*
X81700000Y-150000000D02*
X82600000Y-150000000D01*
D40*
X113500000Y-63500000D02*
X114000000Y-64000000D01*
X93300000Y-147700000D02*
X81800000Y-147700000D01*
D41*
X80600000Y-148900000D02*
X80900000Y-148900000D01*
D40*
X93500000Y-147500000D02*
X93300000Y-147700000D01*
D42*
X67500000Y-143500000D02*
X65000000Y-146000000D01*
D40*
X81800000Y-147700000D02*
X81735000Y-147765000D01*
X127500000Y-132000000D02*
X117000000Y-132000000D01*
D41*
X80900000Y-148900000D02*
X81735000Y-148065000D01*
D40*
X117000000Y-132000000D02*
X112500000Y-132000000D01*
X50500000Y-67500000D02*
X53000000Y-65000000D01*
D37*
X82500000Y-101900000D02*
X82400000Y-102000000D01*
X82400000Y-102000000D02*
X73500000Y-102000000D01*
X78900000Y-108500000D02*
X86000000Y-108500000D01*
X86500000Y-108000000D02*
X86000000Y-108500000D01*
D43*
X93800000Y-32650000D02*
X93750000Y-32600000D01*
D37*
X93750000Y-96499293D02*
X92500707Y-96499293D01*
X87500000Y-97000000D02*
X78900000Y-97000000D01*
D43*
X93750000Y-32600000D02*
X52000000Y-32600000D01*
D37*
X87650707Y-96849293D02*
X87500707Y-96999293D01*
X144800000Y-42700000D02*
X93750000Y-42700000D01*
D36*
X115200000Y-32650000D02*
X93800000Y-32650000D01*
D37*
X78000000Y-109000000D02*
X66500000Y-109000000D01*
X76000000Y-97000000D02*
X78900000Y-97000000D01*
X78500000Y-108500000D02*
X78000000Y-109000000D01*
X89500000Y-108000000D02*
X86500000Y-108000000D01*
X78900000Y-108500000D02*
X78500000Y-108500000D01*
D36*
X131000000Y-27500000D02*
X130880100Y-27380100D01*
X130880100Y-27380100D02*
X114027000Y-27380100D01*
X114027000Y-27380100D02*
X114000000Y-27353100D01*
X115300000Y-32550000D02*
X115200000Y-32650000D01*
D37*
X143500000Y-133000000D02*
X160500000Y-133000000D01*
D36*
X143400000Y-146400000D02*
X138000000Y-146400000D01*
D44*
X75000000Y-50000000D02*
X65500000Y-50000000D01*
X71000000Y-71500000D02*
X65500000Y-71500000D01*
X135200000Y-143850000D02*
X135600000Y-144250000D01*
X65500000Y-68500000D02*
X61500000Y-68500000D01*
X79631375Y-92500000D02*
X72000000Y-92500000D01*
X135600000Y-144250000D02*
X141000000Y-144250000D01*
X74750000Y-27750000D02*
X75000000Y-28000000D01*
X80348531Y-93217156D02*
X79631375Y-92500000D01*
X25600000Y-110500000D02*
X25500000Y-110600000D01*
X70000000Y-110000000D02*
X69500000Y-110500000D01*
X133500000Y-125000000D02*
X81000000Y-125000000D01*
X75000000Y-28000000D02*
X79500000Y-28000000D01*
X141000000Y-144250000D02*
X141250000Y-144250000D01*
X141500000Y-144500000D02*
X141250000Y-144250000D01*
X69500000Y-110500000D02*
X25600000Y-110500000D01*
X160000000Y-146000000D02*
X158500000Y-144500000D01*
X75500000Y-110000000D02*
X71000000Y-110000000D01*
X71000000Y-110000000D02*
X70000000Y-110000000D01*
X25500000Y-122500000D02*
X21000000Y-122500000D01*
X158500000Y-144500000D02*
X141500000Y-144500000D01*
X77500000Y-112500000D02*
X81000000Y-112500000D01*
D36*
X161500000Y-106700000D02*
X161500000Y-113250000D01*
D44*
X72000000Y-92500000D02*
X70000000Y-90500000D01*
D37*
X132550000Y-146900000D02*
X132600000Y-146850000D01*
X132600000Y-146850000D02*
X136500000Y-146850000D01*
X135025000Y-160900000D02*
X132525000Y-160900000D01*
D42*
X76500000Y-162000000D02*
X72000000Y-162000000D01*
X72000000Y-162000000D02*
X68500000Y-158500000D01*
D40*
X65900000Y-136000000D02*
X66000000Y-136100000D01*
D42*
X61000000Y-136000000D02*
X65900000Y-136000000D01*
D37*
X71000000Y-108000000D02*
X73500000Y-108000000D01*
X136025000Y-139900000D02*
X140335000Y-139900000D01*
X140335000Y-139900000D02*
X140435000Y-140000000D01*
X95657608Y-146657608D02*
X86000000Y-146657608D01*
X83608233Y-155370108D02*
X83629902Y-155391777D01*
X81129892Y-155370108D02*
X83608233Y-155370108D01*
X81000000Y-155500000D02*
X81129892Y-155370108D01*
D41*
X92750000Y-149250000D02*
X92500000Y-149000000D01*
X92500000Y-149000000D02*
X90199997Y-149000000D01*
X90199997Y-149000000D02*
X89500000Y-149699997D01*
D37*
X79500000Y-93500000D02*
X71000000Y-93500000D01*
X83500000Y-116500000D02*
X79500000Y-116500000D01*
D36*
X151150000Y-39750000D02*
X165100000Y-39750000D01*
D37*
X151000000Y-123500000D02*
X37500000Y-123500000D01*
X32047500Y-129000000D02*
X37500000Y-129000000D01*
D36*
X165100000Y-39750000D02*
X165900000Y-40550000D01*
D37*
X33905500Y-128241300D02*
X36405500Y-128241300D01*
X28500000Y-120500000D02*
X21000000Y-120500000D01*
X36500000Y-122000000D02*
X28500000Y-122000000D01*
X32047500Y-112047500D02*
X27547500Y-112047500D01*
X27500000Y-118500000D02*
X21000000Y-118500000D01*
X27547500Y-112047500D02*
X27500000Y-112000000D01*
D36*
X152140000Y-43090000D02*
X165900000Y-43090000D01*
D37*
X44000000Y-113500000D02*
X35500000Y-113500000D01*
X44000000Y-121500000D02*
X152000000Y-121500000D01*
X153000000Y-122000000D02*
X152500000Y-122500000D01*
X152500000Y-122500000D02*
X42500000Y-122500000D01*
D36*
X153060000Y-50710000D02*
X165900000Y-50710000D01*
D37*
X22000000Y-115500000D02*
X28500000Y-115500000D01*
X42000000Y-116500000D02*
X35500000Y-116500000D01*
X35500000Y-118500000D02*
X28500000Y-118500000D01*
X21000000Y-116500000D02*
X22000000Y-115500000D01*
D42*
X57000000Y-147000000D02*
X30200000Y-147000000D01*
X53000000Y-129500000D02*
X49500000Y-129500000D01*
X57000000Y-142000000D02*
X46000000Y-142000000D01*
X49500000Y-129500000D02*
X46000000Y-129500000D01*
D40*
X149960000Y-32173000D02*
X120173000Y-32173000D01*
X102690000Y-60960000D02*
X103000000Y-60650000D01*
D36*
X102750000Y-60900000D02*
X103000000Y-60650000D01*
D40*
X119200000Y-31200000D02*
X103110500Y-31200000D01*
X120173000Y-32173000D02*
X119200000Y-31200000D01*
D36*
X102750000Y-61150000D02*
X102750000Y-60900000D01*
D40*
X150480000Y-31653000D02*
X149960000Y-32173000D01*
X79000000Y-60960000D02*
X102690000Y-60960000D01*
D37*
X47578000Y-62225000D02*
X47653000Y-62300000D01*
D40*
X70750000Y-29450000D02*
X146170000Y-29450000D01*
X53170000Y-62230000D02*
X73920000Y-62230000D01*
D37*
X73650000Y-62500000D02*
X73920000Y-62230000D01*
X146520000Y-24000000D02*
X146500000Y-24000000D01*
D40*
X146170000Y-29450000D02*
X146520000Y-29800000D01*
X70475000Y-29725000D02*
X70750000Y-29450000D01*
X54900000Y-77500000D02*
X67000000Y-77500000D01*
D37*
X73850000Y-75000000D02*
X73920000Y-74930000D01*
X49336500Y-77450000D02*
X49461500Y-77575000D01*
D40*
X55500000Y-37000000D02*
X44500000Y-37000000D01*
X55500000Y-73000000D02*
X49350000Y-73000000D01*
X49350000Y-73000000D02*
X49300000Y-72950000D01*
X67000000Y-75000000D02*
X73850000Y-75000000D01*
D45*
X79000000Y-76600000D02*
X79000000Y-76200000D01*
D40*
X97050000Y-84150000D02*
X97100000Y-84100000D01*
X75600000Y-80000000D02*
X79000000Y-76600000D01*
D37*
X79200000Y-76000000D02*
X79000000Y-76200000D01*
D40*
X84000000Y-84000000D02*
X84150000Y-84150000D01*
X79000000Y-76200000D02*
X84500000Y-76200000D01*
X40500000Y-39000000D02*
X58500000Y-39000000D01*
X84150000Y-84150000D02*
X97050000Y-84150000D01*
X57000000Y-80000000D02*
X75600000Y-80000000D01*
D36*
X159850000Y-45450000D02*
X161531000Y-47131000D01*
X72200000Y-45450000D02*
X159850000Y-45450000D01*
X167401000Y-47131000D02*
X168440000Y-48170000D01*
X161531000Y-47131000D02*
X167401000Y-47131000D01*
X78500000Y-46500000D02*
X148400000Y-46500000D01*
X165840000Y-55850000D02*
X165900000Y-55790000D01*
X148550000Y-55850000D02*
X165840000Y-55850000D01*
X148400000Y-55700000D02*
X148550000Y-55850000D01*
X138700000Y-74000000D02*
X138839000Y-74139000D01*
X138839000Y-74139000D02*
X165331000Y-74139000D01*
X165331000Y-74139000D02*
X165900000Y-73570000D01*
X140000000Y-67150000D02*
X167240000Y-67150000D01*
X167240000Y-67150000D02*
X168440000Y-65950000D01*
X159000000Y-69750000D02*
X159050000Y-69800000D01*
D37*
X58000000Y-33200000D02*
X58200000Y-33400000D01*
D36*
X159050000Y-69800000D02*
X167130000Y-69800000D01*
D43*
X158850000Y-33400000D02*
X58200000Y-33400000D01*
X159000000Y-33550000D02*
X158850000Y-33400000D01*
D36*
X167130000Y-69800000D02*
X168440000Y-68490000D01*
D43*
X157000000Y-34000000D02*
X157100000Y-34100000D01*
D36*
X157605000Y-76075000D02*
X157640000Y-76110000D01*
X157640000Y-76110000D02*
X165900000Y-76110000D01*
X157275000Y-76075000D02*
X157605000Y-76075000D01*
D43*
X56065687Y-34000000D02*
X157000000Y-34000000D01*
D36*
X73500000Y-44500000D02*
X167310000Y-44500000D01*
X167310000Y-44500000D02*
X168440000Y-45630000D01*
X166939000Y-82691000D02*
X168440000Y-81190000D01*
X146100000Y-41750000D02*
X146150000Y-41800000D01*
X146150000Y-82600000D02*
X146241000Y-82691000D01*
X94950000Y-41750000D02*
X146100000Y-41750000D01*
X146241000Y-82691000D02*
X166939000Y-82691000D01*
X159900000Y-83500000D02*
X160100000Y-83700000D01*
X165900000Y-83730000D02*
X160130000Y-83730000D01*
X120500000Y-83500000D02*
X159900000Y-83500000D01*
X160130000Y-83730000D02*
X160100000Y-83700000D01*
X100650000Y-38850000D02*
X108950000Y-38850000D01*
X109000000Y-40800000D02*
X162100000Y-40800000D01*
X162113336Y-45686664D02*
X162170000Y-45630000D01*
X108950000Y-40750000D02*
X109000000Y-40800000D01*
X100500000Y-39000000D02*
X100650000Y-38850000D01*
X99500000Y-39000000D02*
X100500000Y-39000000D01*
X162170000Y-45630000D02*
X165900000Y-45630000D01*
X141500000Y-48500000D02*
X141950000Y-48050000D01*
X142100000Y-84700000D02*
X142169000Y-84769000D01*
X121000000Y-48500000D02*
X141500000Y-48500000D01*
X142169000Y-84769000D02*
X167401000Y-84769000D01*
X167401000Y-84769000D02*
X168440000Y-83730000D01*
X167401000Y-49671000D02*
X168440000Y-50710000D01*
X110200000Y-39800000D02*
X136750000Y-39800000D01*
X136800000Y-49650000D02*
X136821000Y-49671000D01*
X136821000Y-49671000D02*
X167401000Y-49671000D01*
X99975000Y-37500000D02*
X120425000Y-37500000D01*
X107700000Y-36650000D02*
X123750000Y-36650000D01*
X154450000Y-81150000D02*
X154490000Y-81190000D01*
X154490000Y-81190000D02*
X165900000Y-81190000D01*
X97450000Y-35250000D02*
X117950000Y-35250000D01*
X154450000Y-69700000D02*
X123600000Y-69700000D01*
D37*
X168440000Y-76110000D02*
X167200000Y-77350000D01*
X167200000Y-77350000D02*
X89850000Y-77350000D01*
X89850000Y-77350000D02*
X89500000Y-77000000D01*
X89500000Y-66000000D02*
X79040000Y-66000000D01*
X79040000Y-66000000D02*
X79000000Y-66040000D01*
X131550000Y-81000000D02*
X85600000Y-81000000D01*
X131600000Y-81050000D02*
X131550000Y-81000000D01*
D36*
X131750000Y-65950000D02*
X165900000Y-65950000D01*
X131550000Y-66150000D02*
X131750000Y-65950000D01*
D37*
X85400000Y-73660000D02*
X79000000Y-73660000D01*
X86390000Y-72390000D02*
X73920000Y-72390000D01*
X164550000Y-80000000D02*
X86500000Y-80000000D01*
X165900000Y-78650000D02*
X164550000Y-80000000D01*
X86500000Y-72500000D02*
X86390000Y-72390000D01*
X165960000Y-77960000D02*
X166000000Y-78000000D01*
X91150000Y-76150000D02*
X91000000Y-76000000D01*
X91000000Y-64770000D02*
X73920000Y-64770000D01*
X127150000Y-76150000D02*
X91150000Y-76150000D01*
D36*
X127200000Y-61050000D02*
X127380000Y-60870000D01*
X127380000Y-60870000D02*
X165900000Y-60870000D01*
D37*
X129950000Y-79000000D02*
X87500000Y-79000000D01*
D36*
X130350000Y-64650000D02*
X167200000Y-64650000D01*
X130200000Y-64800000D02*
X130350000Y-64650000D01*
X167200000Y-64650000D02*
X168440000Y-63410000D01*
D37*
X87380000Y-71120000D02*
X87500000Y-71000000D01*
X87380000Y-71120000D02*
X79000000Y-71120000D01*
X130050000Y-79100000D02*
X129950000Y-79000000D01*
X129000000Y-78000000D02*
X88500000Y-78000000D01*
D36*
X165690000Y-63200000D02*
X165900000Y-63410000D01*
D37*
X88500000Y-67310000D02*
X73920000Y-67310000D01*
D36*
X129250000Y-63200000D02*
X165690000Y-63200000D01*
X129050000Y-63400000D02*
X129250000Y-63200000D01*
X113000000Y-20000000D02*
X116500000Y-23500000D01*
X96500000Y-20000000D02*
X113000000Y-20000000D01*
G04 #@! TA.AperFunction,Conductor*
G36*
X165612879Y-83036823D02*
G01*
X165613087Y-83037294D01*
X165899133Y-83725510D01*
X165899144Y-83734464D01*
X165899133Y-83734490D01*
X165613087Y-84422705D01*
X165606747Y-84429030D01*
X165597793Y-84429019D01*
X165597322Y-84428811D01*
X164382739Y-83860155D01*
X164376699Y-83853544D01*
X164376000Y-83849559D01*
X164376000Y-83610440D01*
X164379427Y-83602167D01*
X164382735Y-83599846D01*
X165597322Y-83031187D01*
X165606268Y-83030783D01*
X165612879Y-83036823D01*
G37*
G04 #@! TD.AperFunction*
G04 #@! TA.AperFunction,Conductor*
G36*
X74274884Y-71563803D02*
G01*
X74275648Y-71564153D01*
X75713554Y-72286761D01*
X75719407Y-72293537D01*
X75720000Y-72297214D01*
X75720000Y-72482785D01*
X75716573Y-72491058D01*
X75713554Y-72493239D01*
X74275650Y-73215845D01*
X74266719Y-73216498D01*
X74259942Y-73210645D01*
X74259591Y-73209879D01*
X73960981Y-72491058D01*
X73920863Y-72394487D01*
X73920855Y-72385534D01*
X73920864Y-72385512D01*
X73957545Y-72297214D01*
X74259591Y-71570119D01*
X74265930Y-71563794D01*
X74274884Y-71563803D01*
G37*
G04 #@! TD.AperFunction*
G04 #@! TA.AperFunction,Conductor*
G36*
X41883641Y-116227050D02*
G01*
X41889503Y-116233148D01*
X41999115Y-116495489D01*
X41999142Y-116504444D01*
X41999115Y-116504511D01*
X41889503Y-116766851D01*
X41883151Y-116773163D01*
X41874694Y-116773329D01*
X41740947Y-116724493D01*
X41407687Y-116602806D01*
X41401091Y-116596750D01*
X41400000Y-116591816D01*
X41400000Y-116408183D01*
X41403427Y-116399910D01*
X41407687Y-116397193D01*
X41874697Y-116226669D01*
X41883641Y-116227050D01*
G37*
G04 #@! TD.AperFunction*
G04 #@! TA.AperFunction,Conductor*
G36*
X27383641Y-118227050D02*
G01*
X27389503Y-118233148D01*
X27499115Y-118495489D01*
X27499142Y-118504444D01*
X27499115Y-118504511D01*
X27389503Y-118766851D01*
X27383151Y-118773163D01*
X27374694Y-118773329D01*
X27240947Y-118724493D01*
X26907687Y-118602806D01*
X26901091Y-118596750D01*
X26900000Y-118591816D01*
X26900000Y-118408183D01*
X26903427Y-118399910D01*
X26907687Y-118397193D01*
X27374697Y-118226669D01*
X27383641Y-118227050D01*
G37*
G04 #@! TD.AperFunction*
G04 #@! TA.AperFunction,Conductor*
G36*
X144683641Y-42427050D02*
G01*
X144689503Y-42433148D01*
X144799115Y-42695489D01*
X144799142Y-42704444D01*
X144799115Y-42704511D01*
X144689503Y-42966851D01*
X144683151Y-42973163D01*
X144674694Y-42973329D01*
X144540947Y-42924493D01*
X144207687Y-42802806D01*
X144201091Y-42796750D01*
X144200000Y-42791816D01*
X144200000Y-42608183D01*
X144203427Y-42599910D01*
X144207687Y-42597193D01*
X144674697Y-42426669D01*
X144683641Y-42427050D01*
G37*
G04 #@! TD.AperFunction*
G04 #@! TA.AperFunction,Conductor*
G36*
X105101715Y-30689741D02*
G01*
X105108873Y-30695119D01*
X105110500Y-30701071D01*
X105110500Y-31698928D01*
X105107073Y-31707201D01*
X105101714Y-31710259D01*
X103503010Y-32121352D01*
X103494144Y-32120094D01*
X103489291Y-32114508D01*
X103111363Y-31204487D01*
X103111354Y-31195535D01*
X103489291Y-30285490D01*
X103495629Y-30279164D01*
X103503010Y-30278647D01*
X105101715Y-30689741D01*
G37*
G04 #@! TD.AperFunction*
G04 #@! TA.AperFunction,Conductor*
G36*
X153651759Y-50580449D02*
G01*
X153658649Y-50586169D01*
X153660000Y-50591626D01*
X153660000Y-50828373D01*
X153656573Y-50836646D01*
X153651759Y-50839550D01*
X153184961Y-50984020D01*
X153176045Y-50983192D01*
X153170706Y-50977354D01*
X153060883Y-50714509D01*
X153060857Y-50705556D01*
X153060862Y-50705542D01*
X153170707Y-50442643D01*
X153177058Y-50436333D01*
X153184960Y-50435979D01*
X153651759Y-50580449D01*
G37*
G04 #@! TD.AperFunction*
G04 #@! TA.AperFunction,Conductor*
G36*
X165612879Y-44936823D02*
G01*
X165613087Y-44937294D01*
X165899133Y-45625510D01*
X165899144Y-45634464D01*
X165899133Y-45634490D01*
X165613087Y-46322705D01*
X165606747Y-46329030D01*
X165597793Y-46329019D01*
X165597322Y-46328811D01*
X164382739Y-45760155D01*
X164376699Y-45753544D01*
X164376000Y-45749559D01*
X164376000Y-45510440D01*
X164379427Y-45502167D01*
X164382735Y-45499846D01*
X165597322Y-44931187D01*
X165606268Y-44930783D01*
X165612879Y-44936823D01*
G37*
G04 #@! TD.AperFunction*
G04 #@! TA.AperFunction,Conductor*
G36*
X167459168Y-44465102D02*
G01*
X168720109Y-44921840D01*
X168726720Y-44927880D01*
X168727125Y-44936826D01*
X168726939Y-44937305D01*
X168442562Y-45626211D01*
X168436237Y-45632551D01*
X168436211Y-45632562D01*
X167747305Y-45916939D01*
X167738351Y-45916928D01*
X167732026Y-45910588D01*
X167731840Y-45910109D01*
X167275102Y-44649168D01*
X167275507Y-44640222D01*
X167277827Y-44636913D01*
X167446911Y-44467829D01*
X167455183Y-44464403D01*
X167459168Y-44465102D01*
G37*
G04 #@! TD.AperFunction*
G04 #@! TA.AperFunction,Conductor*
G36*
X28383641Y-120227050D02*
G01*
X28389503Y-120233148D01*
X28499115Y-120495489D01*
X28499142Y-120504444D01*
X28499115Y-120504511D01*
X28389503Y-120766851D01*
X28383151Y-120773163D01*
X28374694Y-120773329D01*
X28240947Y-120724493D01*
X27907687Y-120602806D01*
X27901091Y-120596750D01*
X27900000Y-120591816D01*
X27900000Y-120408183D01*
X27903427Y-120399910D01*
X27907687Y-120397193D01*
X28374697Y-120226669D01*
X28383641Y-120227050D01*
G37*
G04 #@! TD.AperFunction*
G04 #@! TA.AperFunction,Conductor*
G36*
X86359339Y-108010812D02*
G01*
X86489187Y-108140660D01*
X86492614Y-108148933D01*
X86491523Y-108153867D01*
X86281877Y-108604670D01*
X86275281Y-108610726D01*
X86266824Y-108610559D01*
X86003815Y-108502563D01*
X85997463Y-108496251D01*
X85997436Y-108496184D01*
X85889440Y-108233175D01*
X85889467Y-108224220D01*
X85895326Y-108218124D01*
X86346134Y-108008475D01*
X86355079Y-108008095D01*
X86359339Y-108010812D01*
G37*
G04 #@! TD.AperFunction*
G04 #@! TA.AperFunction,Conductor*
G36*
X34497813Y-128138493D02*
G01*
X34504409Y-128144549D01*
X34505500Y-128149483D01*
X34505500Y-128333116D01*
X34502073Y-128341389D01*
X34497813Y-128344106D01*
X34030805Y-128514630D01*
X34021858Y-128514249D01*
X34015996Y-128508151D01*
X33906383Y-128245809D01*
X33906357Y-128236856D01*
X33906362Y-128236842D01*
X34015996Y-127974447D01*
X34022348Y-127968136D01*
X34030802Y-127967969D01*
X34497813Y-128138493D01*
G37*
G04 #@! TD.AperFunction*
G04 #@! TA.AperFunction,Conductor*
G36*
X93093020Y-96396486D02*
G01*
X93099616Y-96402542D01*
X93100707Y-96407476D01*
X93100707Y-96591109D01*
X93097280Y-96599382D01*
X93093020Y-96602099D01*
X92626012Y-96772623D01*
X92617065Y-96772242D01*
X92611203Y-96766144D01*
X92501590Y-96503802D01*
X92501564Y-96494849D01*
X92501569Y-96494835D01*
X92611203Y-96232440D01*
X92617555Y-96226129D01*
X92626009Y-96225962D01*
X93093020Y-96396486D01*
G37*
G04 #@! TD.AperFunction*
G04 #@! TA.AperFunction,Conductor*
G36*
X138591759Y-146270449D02*
G01*
X138598649Y-146276169D01*
X138600000Y-146281626D01*
X138600000Y-146518373D01*
X138596573Y-146526646D01*
X138591759Y-146529550D01*
X138124961Y-146674020D01*
X138116045Y-146673192D01*
X138110706Y-146667354D01*
X138000883Y-146404509D01*
X138000857Y-146395556D01*
X138000862Y-146395542D01*
X138110707Y-146132643D01*
X138117058Y-146126333D01*
X138124960Y-146125979D01*
X138591759Y-146270449D01*
G37*
G04 #@! TD.AperFunction*
G04 #@! TA.AperFunction,Conductor*
G36*
X167747485Y-75823134D02*
G01*
X168436211Y-76107437D01*
X168442551Y-76113762D01*
X168442562Y-76113788D01*
X168726856Y-76802491D01*
X168726845Y-76811445D01*
X168720505Y-76817770D01*
X168719829Y-76818025D01*
X167439983Y-77255979D01*
X167431046Y-77255415D01*
X167427922Y-77253182D01*
X167296817Y-77122077D01*
X167293390Y-77113804D01*
X167294018Y-77110022D01*
X167731975Y-75830168D01*
X167737895Y-75823452D01*
X167746832Y-75822888D01*
X167747485Y-75823134D01*
G37*
G04 #@! TD.AperFunction*
G04 #@! TA.AperFunction,Conductor*
G36*
X91220253Y-75794102D02*
G01*
X91386236Y-75921503D01*
X91549071Y-76046488D01*
X91553547Y-76054242D01*
X91553647Y-76055768D01*
X91553647Y-76239308D01*
X91550220Y-76247581D01*
X91542999Y-76250961D01*
X91012709Y-76298852D01*
X91004162Y-76296183D01*
X91000004Y-76288251D01*
X90999957Y-76287238D01*
X90999836Y-76250961D01*
X90999016Y-76004884D01*
X91002414Y-75996601D01*
X91204876Y-75795089D01*
X91213157Y-75791683D01*
X91220253Y-75794102D01*
G37*
G04 #@! TD.AperFunction*
G04 #@! TA.AperFunction,Conductor*
G36*
X165612879Y-80496823D02*
G01*
X165613087Y-80497294D01*
X165899133Y-81185510D01*
X165899144Y-81194464D01*
X165899133Y-81194490D01*
X165613087Y-81882705D01*
X165606747Y-81889030D01*
X165597793Y-81889019D01*
X165597322Y-81888811D01*
X164382739Y-81320155D01*
X164376699Y-81313544D01*
X164376000Y-81309559D01*
X164376000Y-81070440D01*
X164379427Y-81062167D01*
X164382735Y-81059846D01*
X165597322Y-80491187D01*
X165606268Y-80490783D01*
X165612879Y-80496823D01*
G37*
G04 #@! TD.AperFunction*
G04 #@! TA.AperFunction,Conductor*
G36*
X36092313Y-113397193D02*
G01*
X36098909Y-113403249D01*
X36100000Y-113408183D01*
X36100000Y-113591816D01*
X36096573Y-113600089D01*
X36092313Y-113602806D01*
X35625305Y-113773330D01*
X35616358Y-113772949D01*
X35610496Y-113766851D01*
X35500883Y-113504509D01*
X35500857Y-113495556D01*
X35500862Y-113495542D01*
X35610496Y-113233147D01*
X35616848Y-113226836D01*
X35625302Y-113226669D01*
X36092313Y-113397193D01*
G37*
G04 #@! TD.AperFunction*
G04 #@! TA.AperFunction,Conductor*
G36*
X99883641Y-150227050D02*
G01*
X99889503Y-150233148D01*
X99999115Y-150495489D01*
X99999142Y-150504444D01*
X99999115Y-150504511D01*
X99889503Y-150766851D01*
X99883151Y-150773163D01*
X99874694Y-150773329D01*
X99740947Y-150724493D01*
X99407687Y-150602806D01*
X99401091Y-150596750D01*
X99400000Y-150591816D01*
X99400000Y-150408183D01*
X99403427Y-150399910D01*
X99407687Y-150397193D01*
X99874697Y-150226669D01*
X99883641Y-150227050D01*
G37*
G04 #@! TD.AperFunction*
G04 #@! TA.AperFunction,Conductor*
G36*
X73574825Y-61402186D02*
G01*
X73579349Y-61407569D01*
X73919135Y-62225512D01*
X73919144Y-62234466D01*
X73919135Y-62234488D01*
X73579349Y-63052430D01*
X73573010Y-63058756D01*
X73566006Y-63059363D01*
X72129162Y-62740036D01*
X72121829Y-62734896D01*
X72120000Y-62728615D01*
X72120000Y-61731384D01*
X72123427Y-61723111D01*
X72129159Y-61719964D01*
X73566008Y-61400636D01*
X73574825Y-61402186D01*
G37*
G04 #@! TD.AperFunction*
G04 #@! TA.AperFunction,Conductor*
G36*
X87883641Y-120627050D02*
G01*
X87889503Y-120633148D01*
X87999115Y-120895489D01*
X87999142Y-120904444D01*
X87999115Y-120904511D01*
X87889503Y-121166851D01*
X87883151Y-121173163D01*
X87874694Y-121173329D01*
X87740947Y-121124493D01*
X87407687Y-121002806D01*
X87401091Y-120996750D01*
X87400000Y-120991816D01*
X87400000Y-120808183D01*
X87403427Y-120799910D01*
X87407687Y-120797193D01*
X87874697Y-120626669D01*
X87883641Y-120627050D01*
G37*
G04 #@! TD.AperFunction*
G04 #@! TA.AperFunction,Conductor*
G36*
X52591802Y-32472429D02*
G01*
X52598670Y-32478174D01*
X52600000Y-32483592D01*
X52600000Y-32716407D01*
X52596573Y-32724680D01*
X52591801Y-32727571D01*
X52124987Y-32873970D01*
X52116068Y-32873176D01*
X52110691Y-32867318D01*
X52000883Y-32604509D01*
X52000857Y-32595556D01*
X52000862Y-32595542D01*
X52110691Y-32332680D01*
X52117042Y-32326370D01*
X52124986Y-32326029D01*
X52591802Y-32472429D01*
G37*
G04 #@! TD.AperFunction*
G04 #@! TA.AperFunction,Conductor*
G36*
X165207485Y-78363134D02*
G01*
X165896211Y-78647437D01*
X165902551Y-78653762D01*
X165902562Y-78653788D01*
X166186856Y-79342491D01*
X166186845Y-79351445D01*
X166180505Y-79357770D01*
X166179829Y-79358025D01*
X164899983Y-79795979D01*
X164891046Y-79795415D01*
X164887922Y-79793182D01*
X164756817Y-79662077D01*
X164753390Y-79653804D01*
X164754018Y-79650022D01*
X165191975Y-78370168D01*
X165197895Y-78363452D01*
X165206832Y-78362888D01*
X165207485Y-78363134D01*
G37*
G04 #@! TD.AperFunction*
G04 #@! TA.AperFunction,Conductor*
G36*
X131484194Y-80776651D02*
G01*
X131489136Y-80782270D01*
X131599115Y-81045489D01*
X131599142Y-81054444D01*
X131599115Y-81054511D01*
X131489937Y-81315813D01*
X131483585Y-81322125D01*
X131474630Y-81322098D01*
X131474095Y-81321858D01*
X131016600Y-81103180D01*
X131010614Y-81096520D01*
X131009946Y-81092624D01*
X131009946Y-80908980D01*
X131013373Y-80900707D01*
X131018620Y-80897678D01*
X131475316Y-80775479D01*
X131484194Y-80776651D01*
G37*
G04 #@! TD.AperFunction*
G04 #@! TA.AperFunction,Conductor*
G36*
X167747305Y-80903060D02*
G01*
X168436211Y-81187437D01*
X168442551Y-81193762D01*
X168442562Y-81193788D01*
X168726939Y-81882694D01*
X168726928Y-81891648D01*
X168720588Y-81897973D01*
X168720109Y-81898159D01*
X167459168Y-82354897D01*
X167450222Y-82354492D01*
X167446910Y-82352169D01*
X167277830Y-82183089D01*
X167274403Y-82174816D01*
X167275102Y-82170831D01*
X167379471Y-81882694D01*
X167731840Y-80909889D01*
X167737880Y-80903279D01*
X167746826Y-80902874D01*
X167747305Y-80903060D01*
G37*
G04 #@! TD.AperFunction*
G04 #@! TA.AperFunction,Conductor*
G36*
X167361764Y-49549135D02*
G01*
X168719705Y-50002035D01*
X168726469Y-50007903D01*
X168727102Y-50016836D01*
X168726818Y-50017598D01*
X168442853Y-50705508D01*
X168436528Y-50711848D01*
X168436510Y-50711856D01*
X167747706Y-50996764D01*
X167738751Y-50996759D01*
X167732422Y-50990424D01*
X167732103Y-50989555D01*
X167346937Y-49799757D01*
X167346368Y-49796154D01*
X167346368Y-49560235D01*
X167349795Y-49551962D01*
X167358068Y-49548535D01*
X167361764Y-49549135D01*
G37*
G04 #@! TD.AperFunction*
G04 #@! TA.AperFunction,Conductor*
G36*
X167747700Y-83443232D02*
G01*
X168150101Y-83609676D01*
X168436510Y-83728143D01*
X168442845Y-83734472D01*
X168442853Y-83734491D01*
X168726818Y-84422401D01*
X168726807Y-84431355D01*
X168720467Y-84437680D01*
X168719705Y-84437964D01*
X167361770Y-84890863D01*
X167352837Y-84890230D01*
X167346969Y-84883466D01*
X167346368Y-84879764D01*
X167346368Y-84643845D01*
X167346937Y-84640242D01*
X167417457Y-84422401D01*
X167732103Y-83450443D01*
X167737911Y-83443628D01*
X167746837Y-83442916D01*
X167747700Y-83443232D01*
G37*
G04 #@! TD.AperFunction*
G04 #@! TA.AperFunction,Conductor*
G36*
X115189677Y-32283709D02*
G01*
X115190168Y-32284738D01*
X115300088Y-32547817D01*
X115300992Y-32552367D01*
X115300044Y-32836780D01*
X115296590Y-32845042D01*
X115288305Y-32848441D01*
X115286883Y-32848349D01*
X114730130Y-32778288D01*
X114722350Y-32773855D01*
X114719891Y-32766680D01*
X114719891Y-32529993D01*
X114723318Y-32521720D01*
X114726051Y-32519688D01*
X115173834Y-32278943D01*
X115182741Y-32278045D01*
X115189677Y-32283709D01*
G37*
G04 #@! TD.AperFunction*
G04 #@! TA.AperFunction,Conductor*
G36*
X73683641Y-81127050D02*
G01*
X73689503Y-81133148D01*
X73799115Y-81395489D01*
X73799142Y-81404444D01*
X73799115Y-81404511D01*
X73689503Y-81666851D01*
X73683151Y-81673163D01*
X73674694Y-81673329D01*
X73540947Y-81624493D01*
X73207687Y-81502806D01*
X73201091Y-81496750D01*
X73200000Y-81491816D01*
X73200000Y-81308183D01*
X73203427Y-81299910D01*
X73207687Y-81297193D01*
X73674697Y-81126669D01*
X73683641Y-81127050D01*
G37*
G04 #@! TD.AperFunction*
G04 #@! TA.AperFunction,Conductor*
G36*
X151883641Y-121227050D02*
G01*
X151889503Y-121233148D01*
X151999115Y-121495489D01*
X151999142Y-121504444D01*
X151999115Y-121504511D01*
X151889503Y-121766851D01*
X151883151Y-121773163D01*
X151874694Y-121773329D01*
X151740947Y-121724493D01*
X151407687Y-121602806D01*
X151401091Y-121596750D01*
X151400000Y-121591816D01*
X151400000Y-121408183D01*
X151403427Y-121399910D01*
X151407687Y-121397193D01*
X151874697Y-121226669D01*
X151883641Y-121227050D01*
G37*
G04 #@! TD.AperFunction*
G04 #@! TA.AperFunction,Conductor*
G36*
X82595900Y-149703780D02*
G01*
X82600002Y-149711740D01*
X82600042Y-149712673D01*
X82601000Y-150000000D01*
X82601000Y-150000078D01*
X82600042Y-150287326D01*
X82596588Y-150295588D01*
X82588303Y-150298987D01*
X82587370Y-150298947D01*
X82010728Y-150250894D01*
X82002768Y-150246792D01*
X82000000Y-150239234D01*
X82000000Y-149760766D01*
X82003427Y-149752493D01*
X82010728Y-149749106D01*
X82587371Y-149701052D01*
X82595900Y-149703780D01*
G37*
G04 #@! TD.AperFunction*
G04 #@! TA.AperFunction,Conductor*
G36*
X146515956Y-28803732D02*
G01*
X146519980Y-28811732D01*
X146520012Y-28812578D01*
X146520997Y-29797661D01*
X146520102Y-29802160D01*
X146142110Y-30712338D01*
X146135772Y-30718665D01*
X146126818Y-30718656D01*
X146126116Y-30718337D01*
X144596130Y-29961221D01*
X144590235Y-29954481D01*
X144589619Y-29950735D01*
X144589619Y-28952870D01*
X144593046Y-28944597D01*
X144600459Y-28941202D01*
X146507456Y-28800922D01*
X146515956Y-28803732D01*
G37*
G04 #@! TD.AperFunction*
G04 #@! TA.AperFunction,Conductor*
G36*
X165369476Y-73039604D02*
G01*
X165370637Y-73040619D01*
X165897558Y-73566564D01*
X165900993Y-73574834D01*
X165900993Y-73574860D01*
X165900016Y-74319700D01*
X165896578Y-74327969D01*
X165888301Y-74331385D01*
X165887717Y-74331370D01*
X164622789Y-74266568D01*
X164614702Y-74262722D01*
X164611688Y-74254883D01*
X164611688Y-74015958D01*
X164614092Y-74008854D01*
X165353076Y-73041795D01*
X165360822Y-73037303D01*
X165369476Y-73039604D01*
G37*
G04 #@! TD.AperFunction*
G04 #@! TA.AperFunction,Conductor*
G36*
X124092313Y-139897193D02*
G01*
X124098909Y-139903249D01*
X124100000Y-139908183D01*
X124100000Y-140091816D01*
X124096573Y-140100089D01*
X124092313Y-140102806D01*
X123625305Y-140273330D01*
X123616358Y-140272949D01*
X123610496Y-140266851D01*
X123500883Y-140004509D01*
X123500857Y-139995556D01*
X123500862Y-139995542D01*
X123610496Y-139733147D01*
X123616848Y-139726836D01*
X123625302Y-139726669D01*
X124092313Y-139897193D01*
G37*
G04 #@! TD.AperFunction*
G04 #@! TA.AperFunction,Conductor*
G36*
X73383641Y-107727050D02*
G01*
X73389503Y-107733148D01*
X73499115Y-107995489D01*
X73499142Y-108004444D01*
X73499115Y-108004511D01*
X73389503Y-108266851D01*
X73383151Y-108273163D01*
X73374694Y-108273329D01*
X73240947Y-108224493D01*
X72907687Y-108102806D01*
X72901091Y-108096750D01*
X72900000Y-108091816D01*
X72900000Y-107908183D01*
X72903427Y-107899910D01*
X72907687Y-107897193D01*
X73374697Y-107726669D01*
X73383641Y-107727050D01*
G37*
G04 #@! TD.AperFunction*
G04 #@! TA.AperFunction,Conductor*
G36*
X113022873Y-62997851D02*
G01*
X114141602Y-63413012D01*
X114218241Y-63441453D01*
X114224805Y-63447544D01*
X114225139Y-63456493D01*
X114224986Y-63456883D01*
X114001893Y-63997833D01*
X113999340Y-64001655D01*
X113582827Y-64417189D01*
X113574550Y-64420606D01*
X113567653Y-64418347D01*
X113011895Y-64011505D01*
X113007244Y-64003853D01*
X113007106Y-64002064D01*
X113007106Y-63008821D01*
X113010533Y-63000548D01*
X113018806Y-62997121D01*
X113022873Y-62997851D01*
G37*
G04 #@! TD.AperFunction*
G04 #@! TA.AperFunction,Conductor*
G36*
X95541249Y-146384658D02*
G01*
X95547111Y-146390756D01*
X95656723Y-146653097D01*
X95656750Y-146662052D01*
X95656723Y-146662119D01*
X95547111Y-146924459D01*
X95540759Y-146930771D01*
X95532302Y-146930937D01*
X95398555Y-146882101D01*
X95065295Y-146760414D01*
X95058699Y-146754358D01*
X95057608Y-146749424D01*
X95057608Y-146565791D01*
X95061035Y-146557518D01*
X95065295Y-146554801D01*
X95532305Y-146384277D01*
X95541249Y-146384658D01*
G37*
G04 #@! TD.AperFunction*
G04 #@! TA.AperFunction,Conductor*
G36*
X34592313Y-122497193D02*
G01*
X34598909Y-122503249D01*
X34600000Y-122508183D01*
X34600000Y-122691816D01*
X34596573Y-122700089D01*
X34592313Y-122702806D01*
X34125305Y-122873330D01*
X34116358Y-122872949D01*
X34110496Y-122866851D01*
X34000883Y-122604509D01*
X34000857Y-122595556D01*
X34000862Y-122595542D01*
X34110496Y-122333147D01*
X34116848Y-122326836D01*
X34125302Y-122326669D01*
X34592313Y-122497193D01*
G37*
G04 #@! TD.AperFunction*
G04 #@! TA.AperFunction,Conductor*
G36*
X38092313Y-123397193D02*
G01*
X38098909Y-123403249D01*
X38100000Y-123408183D01*
X38100000Y-123591816D01*
X38096573Y-123600089D01*
X38092313Y-123602806D01*
X37625305Y-123773330D01*
X37616358Y-123772949D01*
X37610496Y-123766851D01*
X37500883Y-123504509D01*
X37500857Y-123495556D01*
X37500862Y-123495542D01*
X37610496Y-123233147D01*
X37616848Y-123226836D01*
X37625302Y-123226669D01*
X38092313Y-123397193D01*
G37*
G04 #@! TD.AperFunction*
G04 #@! TA.AperFunction,Conductor*
G36*
X152733174Y-121889439D02*
G01*
X152896804Y-121956629D01*
X152996184Y-121997436D01*
X153002536Y-122003748D01*
X153002563Y-122003815D01*
X153110559Y-122266824D01*
X153110532Y-122275779D01*
X153104670Y-122281877D01*
X152653867Y-122491523D01*
X152644920Y-122491904D01*
X152640660Y-122489187D01*
X152510812Y-122359339D01*
X152507385Y-122351066D01*
X152508474Y-122346136D01*
X152718124Y-121895327D01*
X152724718Y-121889273D01*
X152733174Y-121889439D01*
G37*
G04 #@! TD.AperFunction*
G04 #@! TA.AperFunction,Conductor*
G36*
X32639813Y-128897193D02*
G01*
X32646409Y-128903249D01*
X32647500Y-128908183D01*
X32647500Y-129091816D01*
X32644073Y-129100089D01*
X32639813Y-129102806D01*
X32172805Y-129273330D01*
X32163858Y-129272949D01*
X32157996Y-129266851D01*
X32048383Y-129004509D01*
X32048357Y-128995556D01*
X32048362Y-128995542D01*
X32157996Y-128733147D01*
X32164348Y-128726836D01*
X32172802Y-128726669D01*
X32639813Y-128897193D01*
G37*
G04 #@! TD.AperFunction*
G04 #@! TA.AperFunction,Conductor*
G36*
X93633641Y-96226343D02*
G01*
X93639503Y-96232441D01*
X93749115Y-96494782D01*
X93749142Y-96503737D01*
X93749115Y-96503804D01*
X93639503Y-96766144D01*
X93633151Y-96772456D01*
X93624694Y-96772622D01*
X93490947Y-96723786D01*
X93157687Y-96602099D01*
X93151091Y-96596043D01*
X93150000Y-96591109D01*
X93150000Y-96407476D01*
X93153427Y-96399203D01*
X93157687Y-96396486D01*
X93624697Y-96225962D01*
X93633641Y-96226343D01*
G37*
G04 #@! TD.AperFunction*
G04 #@! TA.AperFunction,Conductor*
G36*
X56657489Y-33872429D02*
G01*
X56664357Y-33878174D01*
X56665687Y-33883592D01*
X56665687Y-34116407D01*
X56662260Y-34124680D01*
X56657488Y-34127571D01*
X56190674Y-34273970D01*
X56181755Y-34273176D01*
X56176378Y-34267318D01*
X56066570Y-34004509D01*
X56066544Y-33995556D01*
X56066549Y-33995542D01*
X56176378Y-33732680D01*
X56182729Y-33726370D01*
X56190673Y-33726029D01*
X56657489Y-33872429D01*
G37*
G04 #@! TD.AperFunction*
G04 #@! TA.AperFunction,Conductor*
G36*
X76592313Y-96897193D02*
G01*
X76598909Y-96903249D01*
X76600000Y-96908183D01*
X76600000Y-97091816D01*
X76596573Y-97100089D01*
X76592313Y-97102806D01*
X76125305Y-97273330D01*
X76116358Y-97272949D01*
X76110496Y-97266851D01*
X76000883Y-97004509D01*
X76000857Y-96995556D01*
X76000862Y-96995542D01*
X76110496Y-96733147D01*
X76116848Y-96726836D01*
X76125302Y-96726669D01*
X76592313Y-96897193D01*
G37*
G04 #@! TD.AperFunction*
G04 #@! TA.AperFunction,Conductor*
G36*
X83513777Y-155118640D02*
G01*
X83519247Y-155124546D01*
X83629017Y-155387266D01*
X83629044Y-155396221D01*
X83629017Y-155396288D01*
X83519590Y-155658185D01*
X83513238Y-155664497D01*
X83504323Y-155664486D01*
X83041441Y-155473096D01*
X83035105Y-155466768D01*
X83034212Y-155462284D01*
X83034212Y-155278620D01*
X83037639Y-155270347D01*
X83042309Y-155267489D01*
X83504853Y-155117925D01*
X83513777Y-155118640D01*
G37*
G04 #@! TD.AperFunction*
G04 #@! TA.AperFunction,Conductor*
G36*
X86495247Y-72204208D02*
G01*
X86499906Y-72211855D01*
X86500045Y-72213616D01*
X86500992Y-72497632D01*
X86500088Y-72502182D01*
X86390487Y-72764498D01*
X86384135Y-72770810D01*
X86375180Y-72770783D01*
X86373527Y-72769932D01*
X85927416Y-72493431D01*
X85922190Y-72486160D01*
X85921880Y-72483486D01*
X85921880Y-72300019D01*
X85925307Y-72291746D01*
X85931777Y-72288459D01*
X86486546Y-72202094D01*
X86495247Y-72204208D01*
G37*
G04 #@! TD.AperFunction*
G04 #@! TA.AperFunction,Conductor*
G36*
X165612879Y-50016823D02*
G01*
X165613087Y-50017294D01*
X165899133Y-50705510D01*
X165899144Y-50714464D01*
X165899133Y-50714490D01*
X165613087Y-51402705D01*
X165606747Y-51409030D01*
X165597793Y-51409019D01*
X165597322Y-51408811D01*
X164382739Y-50840155D01*
X164376699Y-50833544D01*
X164376000Y-50829559D01*
X164376000Y-50590440D01*
X164379427Y-50582167D01*
X164382735Y-50579846D01*
X165597322Y-50011187D01*
X165606268Y-50010783D01*
X165612879Y-50016823D01*
G37*
G04 #@! TD.AperFunction*
G04 #@! TA.AperFunction,Conductor*
G36*
X160383641Y-132727050D02*
G01*
X160389503Y-132733148D01*
X160499115Y-132995489D01*
X160499142Y-133004444D01*
X160499115Y-133004511D01*
X160389503Y-133266851D01*
X160383151Y-133273163D01*
X160374694Y-133273329D01*
X160240947Y-133224493D01*
X159907687Y-133102806D01*
X159901091Y-133096750D01*
X159900000Y-133091816D01*
X159900000Y-132908183D01*
X159903427Y-132899910D01*
X159907687Y-132897193D01*
X160374697Y-132726669D01*
X160383641Y-132727050D01*
G37*
G04 #@! TD.AperFunction*
G04 #@! TA.AperFunction,Conductor*
G36*
X167747305Y-63123060D02*
G01*
X168436211Y-63407437D01*
X168442551Y-63413762D01*
X168442562Y-63413788D01*
X168726939Y-64102694D01*
X168726928Y-64111648D01*
X168720588Y-64117973D01*
X168720109Y-64118159D01*
X167459168Y-64574897D01*
X167450222Y-64574492D01*
X167446910Y-64572169D01*
X167277830Y-64403089D01*
X167274403Y-64394816D01*
X167275102Y-64390831D01*
X167379471Y-64102694D01*
X167731840Y-63129889D01*
X167737880Y-63123279D01*
X167746826Y-63122874D01*
X167747305Y-63123060D01*
G37*
G04 #@! TD.AperFunction*
G04 #@! TA.AperFunction,Conductor*
G36*
X164720667Y-39624839D02*
G01*
X165889917Y-39786605D01*
X165897642Y-39791133D01*
X165900013Y-39798179D01*
X165900989Y-40542166D01*
X165897573Y-40550443D01*
X165893761Y-40552993D01*
X165206016Y-40837463D01*
X165197061Y-40837458D01*
X165191107Y-40831938D01*
X164708634Y-39879493D01*
X164707371Y-39874206D01*
X164707371Y-39636430D01*
X164710798Y-39628157D01*
X164719071Y-39624730D01*
X164720667Y-39624839D01*
G37*
G04 #@! TD.AperFunction*
G04 #@! TA.AperFunction,Conductor*
G36*
X81013082Y-155201617D02*
G01*
X81556819Y-155268839D01*
X81564609Y-155273255D01*
X81567083Y-155280451D01*
X81567083Y-155463924D01*
X81563656Y-155472197D01*
X81561974Y-155473591D01*
X81220122Y-155706683D01*
X81211356Y-155708512D01*
X81205277Y-155705309D01*
X81002462Y-155503446D01*
X80999016Y-155495181D01*
X80999016Y-155495114D01*
X80999093Y-155472197D01*
X80999956Y-155213190D01*
X81003410Y-155204929D01*
X81011695Y-155201530D01*
X81013082Y-155201617D01*
G37*
G04 #@! TD.AperFunction*
G04 #@! TA.AperFunction,Conductor*
G36*
X150883641Y-123227050D02*
G01*
X150889503Y-123233148D01*
X150999115Y-123495489D01*
X150999142Y-123504444D01*
X150999115Y-123504511D01*
X150889503Y-123766851D01*
X150883151Y-123773163D01*
X150874694Y-123773329D01*
X150740947Y-123724493D01*
X150407687Y-123602806D01*
X150401091Y-123596750D01*
X150400000Y-123591816D01*
X150400000Y-123408183D01*
X150403427Y-123399910D01*
X150407687Y-123397193D01*
X150874697Y-123226669D01*
X150883641Y-123227050D01*
G37*
G04 #@! TD.AperFunction*
G04 #@! TA.AperFunction,Conductor*
G36*
X133117313Y-160797193D02*
G01*
X133123909Y-160803249D01*
X133125000Y-160808183D01*
X133125000Y-160991816D01*
X133121573Y-161000089D01*
X133117313Y-161002806D01*
X132650305Y-161173330D01*
X132641358Y-161172949D01*
X132635496Y-161166851D01*
X132525883Y-160904509D01*
X132525857Y-160895556D01*
X132525862Y-160895542D01*
X132635496Y-160633147D01*
X132641848Y-160626836D01*
X132650302Y-160626669D01*
X133117313Y-160797193D01*
G37*
G04 #@! TD.AperFunction*
G04 #@! TA.AperFunction,Conductor*
G36*
X150101716Y-30740204D02*
G01*
X150102692Y-30742064D01*
X150480102Y-31650839D01*
X150480997Y-31655338D01*
X150480011Y-32641488D01*
X150476576Y-32649757D01*
X150468490Y-32653175D01*
X148659751Y-32680818D01*
X148651426Y-32677518D01*
X148647873Y-32669298D01*
X148647872Y-32669119D01*
X148647872Y-31671372D01*
X148651299Y-31663099D01*
X148653220Y-31661546D01*
X150085544Y-30736721D01*
X150094350Y-30735113D01*
X150101716Y-30740204D01*
G37*
G04 #@! TD.AperFunction*
G04 #@! TA.AperFunction,Conductor*
G36*
X80790839Y-75689964D02*
G01*
X80798171Y-75695103D01*
X80800000Y-75701384D01*
X80800000Y-76698615D01*
X80796573Y-76706888D01*
X80790838Y-76710036D01*
X79353993Y-77029363D01*
X79345174Y-77027813D01*
X79340650Y-77022431D01*
X79000863Y-76204487D01*
X79000855Y-76195534D01*
X79000864Y-76195512D01*
X79340651Y-75377567D01*
X79346989Y-75371243D01*
X79353990Y-75370636D01*
X80790839Y-75689964D01*
G37*
G04 #@! TD.AperFunction*
G04 #@! TA.AperFunction,Conductor*
G36*
X33592313Y-119897193D02*
G01*
X33598909Y-119903249D01*
X33600000Y-119908183D01*
X33600000Y-120091816D01*
X33596573Y-120100089D01*
X33592313Y-120102806D01*
X33125305Y-120273330D01*
X33116358Y-120272949D01*
X33110496Y-120266851D01*
X33000883Y-120004509D01*
X33000857Y-119995556D01*
X33000862Y-119995542D01*
X33110496Y-119733147D01*
X33116848Y-119726836D01*
X33125302Y-119726669D01*
X33592313Y-119897193D01*
G37*
G04 #@! TD.AperFunction*
G04 #@! TA.AperFunction,Conductor*
G36*
X36383641Y-121727050D02*
G01*
X36389503Y-121733148D01*
X36499115Y-121995489D01*
X36499142Y-122004444D01*
X36499115Y-122004511D01*
X36389503Y-122266851D01*
X36383151Y-122273163D01*
X36374694Y-122273329D01*
X36240947Y-122224493D01*
X35907687Y-122102806D01*
X35901091Y-122096750D01*
X35900000Y-122091816D01*
X35900000Y-121908183D01*
X35903427Y-121899910D01*
X35907687Y-121897193D01*
X36374697Y-121726669D01*
X36383641Y-121727050D01*
G37*
G04 #@! TD.AperFunction*
G04 #@! TA.AperFunction,Conductor*
G36*
X43883641Y-113227050D02*
G01*
X43889503Y-113233148D01*
X43999115Y-113495489D01*
X43999142Y-113504444D01*
X43999115Y-113504511D01*
X43889503Y-113766851D01*
X43883151Y-113773163D01*
X43874694Y-113773329D01*
X43740947Y-113724493D01*
X43407687Y-113602806D01*
X43401091Y-113596750D01*
X43400000Y-113591816D01*
X43400000Y-113408183D01*
X43403427Y-113399910D01*
X43407687Y-113397193D01*
X43874697Y-113226669D01*
X43883641Y-113227050D01*
G37*
G04 #@! TD.AperFunction*
G04 #@! TA.AperFunction,Conductor*
G36*
X54367350Y-136687313D02*
G01*
X54372998Y-136693313D01*
X54499119Y-136995494D01*
X54499143Y-137004448D01*
X54499119Y-137004506D01*
X54372998Y-137306686D01*
X54366649Y-137313001D01*
X54358413Y-137313250D01*
X53822112Y-137129707D01*
X53815394Y-137123786D01*
X53814200Y-137118637D01*
X53814200Y-136881362D01*
X53817627Y-136873089D01*
X53822111Y-136870292D01*
X54358413Y-136686749D01*
X54367350Y-136687313D01*
G37*
G04 #@! TD.AperFunction*
G04 #@! TA.AperFunction,Conductor*
G36*
X21240211Y-119950648D02*
G01*
X21240680Y-119950854D01*
X22193262Y-120396845D01*
X22199301Y-120403455D01*
X22200000Y-120407440D01*
X22200000Y-120592559D01*
X22196573Y-120600832D01*
X22193261Y-120603155D01*
X21240678Y-121049145D01*
X21231732Y-121049550D01*
X21225121Y-121043510D01*
X21224915Y-121043043D01*
X21041914Y-120603155D01*
X21000868Y-120504492D01*
X21000855Y-120495541D01*
X21224916Y-119956954D01*
X21231256Y-119950634D01*
X21240211Y-119950648D01*
G37*
G04 #@! TD.AperFunction*
G04 #@! TA.AperFunction,Conductor*
G36*
X137883641Y-151727050D02*
G01*
X137889503Y-151733148D01*
X137999115Y-151995489D01*
X137999142Y-152004444D01*
X137999115Y-152004511D01*
X137889503Y-152266851D01*
X137883151Y-152273163D01*
X137874694Y-152273329D01*
X137740947Y-152224493D01*
X137407687Y-152102806D01*
X137401091Y-152096750D01*
X137400000Y-152091816D01*
X137400000Y-151908183D01*
X137403427Y-151899910D01*
X137407687Y-151897193D01*
X137874697Y-151726669D01*
X137883641Y-151727050D01*
G37*
G04 #@! TD.AperFunction*
G04 #@! TA.AperFunction,Conductor*
G36*
X73092313Y-153897193D02*
G01*
X73098909Y-153903249D01*
X73100000Y-153908183D01*
X73100000Y-154091816D01*
X73096573Y-154100089D01*
X73092313Y-154102806D01*
X72625305Y-154273330D01*
X72616358Y-154272949D01*
X72610496Y-154266851D01*
X72500883Y-154004509D01*
X72500857Y-153995556D01*
X72500862Y-153995542D01*
X72610496Y-153733147D01*
X72616848Y-153726836D01*
X72625302Y-153726669D01*
X73092313Y-153897193D01*
G37*
G04 #@! TD.AperFunction*
G04 #@! TA.AperFunction,Conductor*
G36*
X44592313Y-121397193D02*
G01*
X44598909Y-121403249D01*
X44600000Y-121408183D01*
X44600000Y-121591816D01*
X44596573Y-121600089D01*
X44592313Y-121602806D01*
X44125305Y-121773330D01*
X44116358Y-121772949D01*
X44110496Y-121766851D01*
X44000883Y-121504509D01*
X44000857Y-121495556D01*
X44000862Y-121495542D01*
X44110496Y-121233147D01*
X44116848Y-121226836D01*
X44125302Y-121226669D01*
X44592313Y-121397193D01*
G37*
G04 #@! TD.AperFunction*
G04 #@! TA.AperFunction,Conductor*
G36*
X58220376Y-32995551D02*
G01*
X58313591Y-33082420D01*
X58445001Y-33204885D01*
X58516515Y-33271530D01*
X58520231Y-33279677D01*
X58520238Y-33280089D01*
X58520238Y-33512723D01*
X58516811Y-33520996D01*
X58508538Y-33524423D01*
X58507976Y-33524410D01*
X58011100Y-33500533D01*
X58003001Y-33496713D01*
X57999962Y-33488887D01*
X57999016Y-33204884D01*
X58002414Y-33196601D01*
X58204145Y-32995816D01*
X58212427Y-32992410D01*
X58220376Y-32995551D01*
G37*
G04 #@! TD.AperFunction*
G04 #@! TA.AperFunction,Conductor*
G36*
X28383641Y-115227050D02*
G01*
X28389503Y-115233148D01*
X28499115Y-115495489D01*
X28499142Y-115504444D01*
X28499115Y-115504511D01*
X28389503Y-115766851D01*
X28383151Y-115773163D01*
X28374694Y-115773329D01*
X28240947Y-115724493D01*
X27907687Y-115602806D01*
X27901091Y-115596750D01*
X27900000Y-115591816D01*
X27900000Y-115408183D01*
X27903427Y-115399910D01*
X27907687Y-115397193D01*
X28374697Y-115226669D01*
X28383641Y-115227050D01*
G37*
G04 #@! TD.AperFunction*
G04 #@! TA.AperFunction,Conductor*
G36*
X86192313Y-80897193D02*
G01*
X86198909Y-80903249D01*
X86200000Y-80908183D01*
X86200000Y-81091816D01*
X86196573Y-81100089D01*
X86192313Y-81102806D01*
X85725305Y-81273330D01*
X85716358Y-81272949D01*
X85710496Y-81266851D01*
X85600883Y-81004509D01*
X85600857Y-80995556D01*
X85600862Y-80995542D01*
X85710496Y-80733147D01*
X85716848Y-80726836D01*
X85725302Y-80726669D01*
X86192313Y-80897193D01*
G37*
G04 #@! TD.AperFunction*
G04 #@! TA.AperFunction,Conductor*
G36*
X136617313Y-139797193D02*
G01*
X136623909Y-139803249D01*
X136625000Y-139808183D01*
X136625000Y-139991816D01*
X136621573Y-140000089D01*
X136617313Y-140002806D01*
X136150305Y-140173330D01*
X136141358Y-140172949D01*
X136135496Y-140166851D01*
X136025883Y-139904509D01*
X136025857Y-139895556D01*
X136025862Y-139895542D01*
X136135496Y-139633147D01*
X136141848Y-139626836D01*
X136150302Y-139626669D01*
X136617313Y-139797193D01*
G37*
G04 #@! TD.AperFunction*
G04 #@! TA.AperFunction,Conductor*
G36*
X80790839Y-62989964D02*
G01*
X80798171Y-62995103D01*
X80800000Y-63001384D01*
X80800000Y-63998615D01*
X80796573Y-64006888D01*
X80790838Y-64010036D01*
X79353993Y-64329363D01*
X79345174Y-64327813D01*
X79340650Y-64322431D01*
X79000863Y-63504487D01*
X79000855Y-63495534D01*
X79000864Y-63495512D01*
X79340651Y-62677567D01*
X79346989Y-62671243D01*
X79353990Y-62670636D01*
X80790839Y-62989964D01*
G37*
G04 #@! TD.AperFunction*
G04 #@! TA.AperFunction,Conductor*
G36*
X165612879Y-75416823D02*
G01*
X165613087Y-75417294D01*
X165899133Y-76105510D01*
X165899144Y-76114464D01*
X165899133Y-76114490D01*
X165613087Y-76802705D01*
X165606747Y-76809030D01*
X165597793Y-76809019D01*
X165597322Y-76808811D01*
X164382739Y-76240155D01*
X164376699Y-76233544D01*
X164376000Y-76229559D01*
X164376000Y-75990440D01*
X164379427Y-75982167D01*
X164382735Y-75979846D01*
X165597322Y-75411187D01*
X165606268Y-75410783D01*
X165612879Y-75416823D01*
G37*
G04 #@! TD.AperFunction*
G04 #@! TA.AperFunction,Conductor*
G36*
X89092313Y-77897193D02*
G01*
X89098909Y-77903249D01*
X89100000Y-77908183D01*
X89100000Y-78091816D01*
X89096573Y-78100089D01*
X89092313Y-78102806D01*
X88625305Y-78273330D01*
X88616358Y-78272949D01*
X88610496Y-78266851D01*
X88500883Y-78004509D01*
X88500857Y-77995556D01*
X88500862Y-77995542D01*
X88610496Y-77733147D01*
X88616848Y-77726836D01*
X88625302Y-77726669D01*
X89092313Y-77897193D01*
G37*
G04 #@! TD.AperFunction*
G04 #@! TA.AperFunction,Conductor*
G36*
X167747305Y-65663060D02*
G01*
X168436211Y-65947437D01*
X168442551Y-65953762D01*
X168442562Y-65953788D01*
X168726939Y-66642694D01*
X168726928Y-66651648D01*
X168720588Y-66657973D01*
X168720109Y-66658159D01*
X167459168Y-67114897D01*
X167450222Y-67114492D01*
X167446910Y-67112169D01*
X167277830Y-66943089D01*
X167274403Y-66934816D01*
X167275102Y-66930831D01*
X167379471Y-66642694D01*
X167731840Y-65669889D01*
X167737880Y-65663279D01*
X167746826Y-65662874D01*
X167747305Y-65663060D01*
G37*
G04 #@! TD.AperFunction*
G04 #@! TA.AperFunction,Conductor*
G36*
X110340560Y-27892033D02*
G01*
X110507966Y-28059439D01*
X110511393Y-28067712D01*
X110510042Y-28073169D01*
X110282122Y-28505400D01*
X110275232Y-28511120D01*
X110267329Y-28510766D01*
X110003815Y-28402563D01*
X109997463Y-28396251D01*
X109997436Y-28396184D01*
X109889233Y-28132670D01*
X109889260Y-28123715D01*
X109894599Y-28117877D01*
X110326832Y-27889956D01*
X110335746Y-27889129D01*
X110340560Y-27892033D01*
G37*
G04 #@! TD.AperFunction*
G04 #@! TA.AperFunction,Conductor*
G36*
X43092313Y-122397193D02*
G01*
X43098909Y-122403249D01*
X43100000Y-122408183D01*
X43100000Y-122591816D01*
X43096573Y-122600089D01*
X43092313Y-122602806D01*
X42625305Y-122773330D01*
X42616358Y-122772949D01*
X42610496Y-122766851D01*
X42500883Y-122504509D01*
X42500857Y-122495556D01*
X42500862Y-122495542D01*
X42610496Y-122233147D01*
X42616848Y-122226836D01*
X42625302Y-122226669D01*
X43092313Y-122397193D01*
G37*
G04 #@! TD.AperFunction*
G04 #@! TA.AperFunction,Conductor*
G36*
X89755099Y-149106569D02*
G01*
X90093427Y-149444897D01*
X90096854Y-149453170D01*
X90094086Y-149460728D01*
X89720318Y-149902454D01*
X89712358Y-149906556D01*
X89703828Y-149903828D01*
X89703140Y-149903197D01*
X89499293Y-149700704D01*
X89499238Y-149700649D01*
X89296799Y-149496856D01*
X89293400Y-149488571D01*
X89296854Y-149480309D01*
X89297523Y-149479694D01*
X89739270Y-149105909D01*
X89747798Y-149103182D01*
X89755099Y-149106569D01*
G37*
G04 #@! TD.AperFunction*
G04 #@! TA.AperFunction,Conductor*
G36*
X165612879Y-60176823D02*
G01*
X165613087Y-60177294D01*
X165899133Y-60865510D01*
X165899144Y-60874464D01*
X165899133Y-60874490D01*
X165613087Y-61562705D01*
X165606747Y-61569030D01*
X165597793Y-61569019D01*
X165597322Y-61568811D01*
X164382739Y-61000155D01*
X164376699Y-60993544D01*
X164376000Y-60989559D01*
X164376000Y-60750440D01*
X164379427Y-60742167D01*
X164382735Y-60739846D01*
X165597322Y-60171187D01*
X165606268Y-60170783D01*
X165612879Y-60176823D01*
G37*
G04 #@! TD.AperFunction*
G04 #@! TA.AperFunction,Conductor*
G36*
X165607143Y-62709975D02*
G01*
X165612478Y-62715828D01*
X165899133Y-63405510D01*
X165899144Y-63414464D01*
X165899133Y-63414490D01*
X165613832Y-64100913D01*
X165607492Y-64107238D01*
X165598538Y-64107227D01*
X165596576Y-64106183D01*
X164423020Y-63330468D01*
X164418008Y-63323048D01*
X164417772Y-63320708D01*
X164417772Y-63081636D01*
X164421199Y-63073363D01*
X164426023Y-63070456D01*
X165598230Y-62709137D01*
X165607143Y-62709975D01*
G37*
G04 #@! TD.AperFunction*
G04 #@! TA.AperFunction,Conductor*
G36*
X79354884Y-72833803D02*
G01*
X79355648Y-72834153D01*
X80793554Y-73556761D01*
X80799407Y-73563537D01*
X80800000Y-73567214D01*
X80800000Y-73752785D01*
X80796573Y-73761058D01*
X80793554Y-73763239D01*
X79355650Y-74485845D01*
X79346719Y-74486498D01*
X79339942Y-74480645D01*
X79339591Y-74479879D01*
X79040981Y-73761058D01*
X79000863Y-73664487D01*
X79000855Y-73655534D01*
X79000864Y-73655512D01*
X79037545Y-73567214D01*
X79339591Y-72840119D01*
X79345930Y-72833794D01*
X79354884Y-72833803D01*
G37*
G04 #@! TD.AperFunction*
G04 #@! TA.AperFunction,Conductor*
G36*
X92058551Y-148751892D02*
G01*
X92739970Y-148848576D01*
X92747678Y-148853131D01*
X92750025Y-148860131D01*
X92750987Y-149245124D01*
X92747581Y-149253405D01*
X92747546Y-149253441D01*
X92473957Y-149526066D01*
X92465677Y-149529478D01*
X92459183Y-149527497D01*
X92050397Y-149253475D01*
X92045433Y-149246021D01*
X92045212Y-149243756D01*
X92045212Y-148763477D01*
X92048639Y-148755204D01*
X92056912Y-148751777D01*
X92058551Y-148751892D01*
G37*
G04 #@! TD.AperFunction*
G04 #@! TA.AperFunction,Conductor*
G36*
X71592313Y-107897193D02*
G01*
X71598909Y-107903249D01*
X71600000Y-107908183D01*
X71600000Y-108091816D01*
X71596573Y-108100089D01*
X71592313Y-108102806D01*
X71125305Y-108273330D01*
X71116358Y-108272949D01*
X71110496Y-108266851D01*
X71000883Y-108004509D01*
X71000857Y-107995556D01*
X71000862Y-107995542D01*
X71110496Y-107733147D01*
X71116848Y-107726836D01*
X71125302Y-107726669D01*
X71592313Y-107897193D01*
G37*
G04 #@! TD.AperFunction*
G04 #@! TA.AperFunction,Conductor*
G36*
X34497813Y-128138493D02*
G01*
X34504409Y-128144549D01*
X34505500Y-128149483D01*
X34505500Y-128333116D01*
X34502073Y-128341389D01*
X34497813Y-128344106D01*
X34030805Y-128514630D01*
X34021858Y-128514249D01*
X34015996Y-128508151D01*
X33906383Y-128245809D01*
X33906357Y-128236856D01*
X33906362Y-128236842D01*
X34015996Y-127974447D01*
X34022348Y-127968136D01*
X34030802Y-127967969D01*
X34497813Y-128138493D01*
G37*
G04 #@! TD.AperFunction*
G04 #@! TA.AperFunction,Conductor*
G36*
X148283954Y-46226807D02*
G01*
X148289293Y-46232645D01*
X148399115Y-46495489D01*
X148399142Y-46504444D01*
X148399115Y-46504511D01*
X148289293Y-46767354D01*
X148282941Y-46773666D01*
X148275038Y-46774020D01*
X147808241Y-46629550D01*
X147801351Y-46623830D01*
X147800000Y-46618373D01*
X147800000Y-46381626D01*
X147803427Y-46373353D01*
X147808239Y-46370449D01*
X148275039Y-46225979D01*
X148283954Y-46226807D01*
G37*
G04 #@! TD.AperFunction*
G04 #@! TA.AperFunction,Conductor*
G36*
X74358235Y-101157266D02*
G01*
X75196041Y-101896507D01*
X75199977Y-101904549D01*
X75200000Y-101905279D01*
X75200000Y-102094720D01*
X75196573Y-102102993D01*
X75196041Y-102103493D01*
X74358236Y-102842732D01*
X74349765Y-102845636D01*
X74342228Y-102842237D01*
X73507286Y-102008276D01*
X73503855Y-102000007D01*
X73507276Y-101991733D01*
X74342230Y-101157760D01*
X74350502Y-101154340D01*
X74358235Y-101157266D01*
G37*
G04 #@! TD.AperFunction*
G04 #@! TA.AperFunction,Conductor*
G36*
X140114207Y-139225508D02*
G01*
X140114271Y-139225659D01*
X140434134Y-139995511D01*
X140434143Y-140004466D01*
X140434134Y-140004489D01*
X140114841Y-140772970D01*
X140108502Y-140779295D01*
X140099547Y-140779286D01*
X140098169Y-140778603D01*
X138760724Y-140003380D01*
X138755285Y-139996267D01*
X138754891Y-139993258D01*
X138754891Y-139807691D01*
X138758318Y-139799418D01*
X138761951Y-139796950D01*
X140098828Y-139219406D01*
X140107780Y-139219272D01*
X140114207Y-139225508D01*
G37*
G04 #@! TD.AperFunction*
G04 #@! TA.AperFunction,Conductor*
G36*
X85283641Y-73387050D02*
G01*
X85289503Y-73393148D01*
X85399115Y-73655489D01*
X85399142Y-73664444D01*
X85399115Y-73664511D01*
X85289503Y-73926851D01*
X85283151Y-73933163D01*
X85274694Y-73933329D01*
X85140947Y-73884493D01*
X84807687Y-73762806D01*
X84801091Y-73756750D01*
X84800000Y-73751816D01*
X84800000Y-73568183D01*
X84803427Y-73559910D01*
X84807687Y-73557193D01*
X85274697Y-73386669D01*
X85283641Y-73387050D01*
G37*
G04 #@! TD.AperFunction*
G04 #@! TA.AperFunction,Conductor*
G36*
X37383641Y-119727050D02*
G01*
X37389503Y-119733148D01*
X37499115Y-119995489D01*
X37499142Y-120004444D01*
X37499115Y-120004511D01*
X37389503Y-120266851D01*
X37383151Y-120273163D01*
X37374694Y-120273329D01*
X37240947Y-120224493D01*
X36907687Y-120102806D01*
X36901091Y-120096750D01*
X36900000Y-120091816D01*
X36900000Y-119908183D01*
X36903427Y-119899910D01*
X36907687Y-119897193D01*
X37374697Y-119726669D01*
X37383641Y-119727050D01*
G37*
G04 #@! TD.AperFunction*
G04 #@! TA.AperFunction,Conductor*
G36*
X109883641Y-28127050D02*
G01*
X109889503Y-28133148D01*
X109999115Y-28395489D01*
X109999142Y-28404444D01*
X109999115Y-28404511D01*
X109889503Y-28666851D01*
X109883151Y-28673163D01*
X109874694Y-28673329D01*
X109740947Y-28624493D01*
X109407687Y-28502806D01*
X109401091Y-28496750D01*
X109400000Y-28491816D01*
X109400000Y-28308183D01*
X109403427Y-28299910D01*
X109407687Y-28297193D01*
X109874697Y-28126669D01*
X109883641Y-28127050D01*
G37*
G04 #@! TD.AperFunction*
G04 #@! TA.AperFunction,Conductor*
G36*
X36092313Y-116397193D02*
G01*
X36098909Y-116403249D01*
X36100000Y-116408183D01*
X36100000Y-116591816D01*
X36096573Y-116600089D01*
X36092313Y-116602806D01*
X35625305Y-116773330D01*
X35616358Y-116772949D01*
X35610496Y-116766851D01*
X35500883Y-116504509D01*
X35500857Y-116495556D01*
X35500862Y-116495542D01*
X35610496Y-116233147D01*
X35616848Y-116226836D01*
X35625302Y-116226669D01*
X36092313Y-116397193D01*
G37*
G04 #@! TD.AperFunction*
G04 #@! TA.AperFunction,Conductor*
G36*
X35383641Y-118227050D02*
G01*
X35389503Y-118233148D01*
X35499115Y-118495489D01*
X35499142Y-118504444D01*
X35499115Y-118504511D01*
X35389503Y-118766851D01*
X35383151Y-118773163D01*
X35374694Y-118773329D01*
X35240947Y-118724493D01*
X34907687Y-118602806D01*
X34901091Y-118596750D01*
X34900000Y-118591816D01*
X34900000Y-118408183D01*
X34903427Y-118399910D01*
X34907687Y-118397193D01*
X35374697Y-118226669D01*
X35383641Y-118227050D01*
G37*
G04 #@! TD.AperFunction*
G04 #@! TA.AperFunction,Conductor*
G36*
X80790839Y-60449964D02*
G01*
X80798171Y-60455103D01*
X80800000Y-60461384D01*
X80800000Y-61458615D01*
X80796573Y-61466888D01*
X80790838Y-61470036D01*
X79353993Y-61789363D01*
X79345174Y-61787813D01*
X79340650Y-61782431D01*
X79000863Y-60964487D01*
X79000855Y-60955534D01*
X79000864Y-60955512D01*
X79340651Y-60137567D01*
X79346989Y-60131243D01*
X79353990Y-60130636D01*
X80790839Y-60449964D01*
G37*
G04 #@! TD.AperFunction*
G04 #@! TA.AperFunction,Conductor*
G36*
X70487978Y-28726447D02*
G01*
X72409897Y-28940839D01*
X72417738Y-28945162D01*
X72420299Y-28952467D01*
X72420299Y-29950380D01*
X72416872Y-29958653D01*
X72413330Y-29961081D01*
X70868628Y-30644040D01*
X70859676Y-30644251D01*
X70853196Y-30638070D01*
X70853092Y-30637826D01*
X70474897Y-29727160D01*
X70474002Y-29722661D01*
X70474986Y-28738061D01*
X70478421Y-28729795D01*
X70486698Y-28726376D01*
X70487978Y-28726447D01*
G37*
G04 #@! TD.AperFunction*
G04 #@! TA.AperFunction,Conductor*
G36*
X136383641Y-146577050D02*
G01*
X136389503Y-146583148D01*
X136499115Y-146845489D01*
X136499142Y-146854444D01*
X136499115Y-146854511D01*
X136389503Y-147116851D01*
X136383151Y-147123163D01*
X136374694Y-147123329D01*
X136240947Y-147074493D01*
X135907687Y-146952806D01*
X135901091Y-146946750D01*
X135900000Y-146941816D01*
X135900000Y-146758183D01*
X135903427Y-146749910D01*
X135907687Y-146747193D01*
X136374697Y-146576669D01*
X136383641Y-146577050D01*
G37*
G04 #@! TD.AperFunction*
G04 #@! TA.AperFunction,Conductor*
G36*
X87389619Y-70733910D02*
G01*
X87390594Y-70735759D01*
X87500088Y-70997817D01*
X87500992Y-71002367D01*
X87500044Y-71286600D01*
X87496590Y-71294862D01*
X87488305Y-71298261D01*
X87486728Y-71298149D01*
X86936391Y-71221406D01*
X86928671Y-71216869D01*
X86926307Y-71209818D01*
X86926307Y-71026362D01*
X86929734Y-71018089D01*
X86931641Y-71016545D01*
X87373439Y-70730448D01*
X87382245Y-70728829D01*
X87389619Y-70733910D01*
G37*
G04 #@! TD.AperFunction*
G04 #@! TA.AperFunction,Conductor*
G36*
X21240211Y-117950648D02*
G01*
X21240680Y-117950854D01*
X22193262Y-118396845D01*
X22199301Y-118403455D01*
X22200000Y-118407440D01*
X22200000Y-118592559D01*
X22196573Y-118600832D01*
X22193261Y-118603155D01*
X21240678Y-119049145D01*
X21231732Y-119049550D01*
X21225121Y-119043510D01*
X21224915Y-119043043D01*
X21041914Y-118603155D01*
X21000868Y-118504492D01*
X21000855Y-118495541D01*
X21224916Y-117956954D01*
X21231256Y-117950634D01*
X21240211Y-117950648D01*
G37*
G04 #@! TD.AperFunction*
G04 #@! TA.AperFunction,Conductor*
G36*
X79383641Y-93227050D02*
G01*
X79389503Y-93233148D01*
X79499115Y-93495489D01*
X79499142Y-93504444D01*
X79499115Y-93504511D01*
X79389503Y-93766851D01*
X79383151Y-93773163D01*
X79374694Y-93773329D01*
X79240947Y-93724493D01*
X78907687Y-93602806D01*
X78901091Y-93596750D01*
X78900000Y-93591816D01*
X78900000Y-93408183D01*
X78903427Y-93399910D01*
X78907687Y-93397193D01*
X79374697Y-93226669D01*
X79383641Y-93227050D01*
G37*
G04 #@! TD.AperFunction*
G04 #@! TA.AperFunction,Conductor*
G36*
X165612879Y-42396823D02*
G01*
X165613087Y-42397294D01*
X165899133Y-43085510D01*
X165899144Y-43094464D01*
X165899133Y-43094490D01*
X165613087Y-43782705D01*
X165606747Y-43789030D01*
X165597793Y-43789019D01*
X165597322Y-43788811D01*
X164382739Y-43220155D01*
X164376699Y-43213544D01*
X164376000Y-43209559D01*
X164376000Y-42970440D01*
X164379427Y-42962167D01*
X164382735Y-42959846D01*
X165597322Y-42391187D01*
X165606268Y-42390783D01*
X165612879Y-42396823D01*
G37*
G04 #@! TD.AperFunction*
G04 #@! TA.AperFunction,Conductor*
G36*
X158996232Y-33253600D02*
G01*
X159000028Y-33261710D01*
X159000040Y-33262199D01*
X159000983Y-33545114D01*
X158997584Y-33553399D01*
X158997537Y-33553446D01*
X158794781Y-33755250D01*
X158786499Y-33758657D01*
X158779854Y-33756567D01*
X158451380Y-33528490D01*
X158446539Y-33520957D01*
X158446353Y-33518880D01*
X158446353Y-33286183D01*
X158449780Y-33277910D01*
X158457523Y-33274495D01*
X158987812Y-33250550D01*
X158996232Y-33253600D01*
G37*
G04 #@! TD.AperFunction*
G04 #@! TA.AperFunction,Conductor*
G36*
X29092313Y-121897193D02*
G01*
X29098909Y-121903249D01*
X29100000Y-121908183D01*
X29100000Y-122091816D01*
X29096573Y-122100089D01*
X29092313Y-122102806D01*
X28625305Y-122273330D01*
X28616358Y-122272949D01*
X28610496Y-122266851D01*
X28500883Y-122004509D01*
X28500857Y-121995556D01*
X28500862Y-121995542D01*
X28610496Y-121733147D01*
X28616848Y-121726836D01*
X28625302Y-121726669D01*
X29092313Y-121897193D01*
G37*
G04 #@! TD.AperFunction*
G04 #@! TA.AperFunction,Conductor*
G36*
X102495519Y-28104017D02*
G01*
X102499952Y-28111797D01*
X102500044Y-28113219D01*
X102500992Y-28397632D01*
X102500088Y-28402182D01*
X102390168Y-28665261D01*
X102383816Y-28671573D01*
X102374861Y-28671546D01*
X102373832Y-28671055D01*
X101926051Y-28430311D01*
X101920387Y-28423375D01*
X101919891Y-28420006D01*
X101919891Y-28183319D01*
X101923318Y-28175046D01*
X101930128Y-28171711D01*
X102486884Y-28101650D01*
X102495519Y-28104017D01*
G37*
G04 #@! TD.AperFunction*
G04 #@! TA.AperFunction,Conductor*
G36*
X94342313Y-42597193D02*
G01*
X94348909Y-42603249D01*
X94350000Y-42608183D01*
X94350000Y-42791816D01*
X94346573Y-42800089D01*
X94342313Y-42802806D01*
X93875305Y-42973330D01*
X93866358Y-42972949D01*
X93860496Y-42966851D01*
X93750883Y-42704509D01*
X93750857Y-42695556D01*
X93750862Y-42695542D01*
X93860496Y-42433147D01*
X93866848Y-42426836D01*
X93875302Y-42426669D01*
X94342313Y-42597193D01*
G37*
G04 #@! TD.AperFunction*
G04 #@! TA.AperFunction,Conductor*
G36*
X157095488Y-33804037D02*
G01*
X157099947Y-33811803D01*
X157100044Y-33813264D01*
X157100992Y-34097632D01*
X157100088Y-34102182D01*
X156990185Y-34365220D01*
X156983833Y-34371532D01*
X156974878Y-34371505D01*
X156973814Y-34370996D01*
X156526016Y-34128319D01*
X156520375Y-34121364D01*
X156519891Y-34118032D01*
X156519891Y-33885284D01*
X156523318Y-33877011D01*
X156530090Y-33873681D01*
X157086846Y-33801700D01*
X157095488Y-33804037D01*
G37*
G04 #@! TD.AperFunction*
G04 #@! TA.AperFunction,Conductor*
G36*
X37383641Y-128727050D02*
G01*
X37389503Y-128733148D01*
X37499115Y-128995489D01*
X37499142Y-129004444D01*
X37499115Y-129004511D01*
X37389503Y-129266851D01*
X37383151Y-129273163D01*
X37374694Y-129273329D01*
X37240947Y-129224493D01*
X36907687Y-129102806D01*
X36901091Y-129096750D01*
X36900000Y-129091816D01*
X36900000Y-128908183D01*
X36903427Y-128899910D01*
X36907687Y-128897193D01*
X37374697Y-128726669D01*
X37383641Y-128727050D01*
G37*
G04 #@! TD.AperFunction*
G04 #@! TA.AperFunction,Conductor*
G36*
X82389649Y-101633801D02*
G01*
X82390393Y-101635278D01*
X82500088Y-101897817D01*
X82500992Y-101902367D01*
X82500046Y-102186157D01*
X82496592Y-102194419D01*
X82488307Y-102197818D01*
X82486358Y-102197648D01*
X81929603Y-102101674D01*
X81922033Y-102096891D01*
X81919891Y-102090144D01*
X81919891Y-101906649D01*
X81923318Y-101898376D01*
X81925599Y-101896599D01*
X82373609Y-101629736D01*
X82382471Y-101628447D01*
X82389649Y-101633801D01*
G37*
G04 #@! TD.AperFunction*
G04 #@! TA.AperFunction,Conductor*
G36*
X74091759Y-44370449D02*
G01*
X74098649Y-44376169D01*
X74100000Y-44381626D01*
X74100000Y-44618373D01*
X74096573Y-44626646D01*
X74091759Y-44629550D01*
X73624961Y-44774020D01*
X73616045Y-44773192D01*
X73610706Y-44767354D01*
X73500883Y-44504509D01*
X73500857Y-44495556D01*
X73500862Y-44495542D01*
X73610707Y-44232643D01*
X73617058Y-44226333D01*
X73624960Y-44225979D01*
X74091759Y-44370449D01*
G37*
G04 #@! TD.AperFunction*
G04 #@! TA.AperFunction,Conductor*
G36*
X31931141Y-111774550D02*
G01*
X31937003Y-111780648D01*
X32046615Y-112042989D01*
X32046642Y-112051944D01*
X32046615Y-112052011D01*
X31937003Y-112314351D01*
X31930651Y-112320663D01*
X31922194Y-112320829D01*
X31788447Y-112271993D01*
X31455187Y-112150306D01*
X31448591Y-112144250D01*
X31447500Y-112139316D01*
X31447500Y-111955683D01*
X31450927Y-111947410D01*
X31455187Y-111944693D01*
X31922197Y-111774169D01*
X31931141Y-111774550D01*
G37*
G04 #@! TD.AperFunction*
G04 #@! TA.AperFunction,Conductor*
G36*
X21779767Y-115583701D02*
G01*
X21783079Y-115586024D01*
X21913975Y-115716920D01*
X21917402Y-115725193D01*
X21916703Y-115729178D01*
X21558490Y-116718118D01*
X21552450Y-116724729D01*
X21543504Y-116725134D01*
X21543028Y-116724949D01*
X21003792Y-116502562D01*
X20997451Y-116496240D01*
X20997437Y-116496207D01*
X20775050Y-115956971D01*
X20775064Y-115948016D01*
X20781405Y-115941694D01*
X20781853Y-115941519D01*
X21770821Y-115583296D01*
X21779767Y-115583701D01*
G37*
G04 #@! TD.AperFunction*
G04 #@! TA.AperFunction,Conductor*
G36*
X138592313Y-151897193D02*
G01*
X138598909Y-151903249D01*
X138600000Y-151908183D01*
X138600000Y-152091816D01*
X138596573Y-152100089D01*
X138592313Y-152102806D01*
X138125305Y-152273330D01*
X138116358Y-152272949D01*
X138110496Y-152266851D01*
X138000883Y-152004509D01*
X138000857Y-151995556D01*
X138000862Y-151995542D01*
X138110496Y-151733147D01*
X138116848Y-151726836D01*
X138125302Y-151726669D01*
X138592313Y-151897193D01*
G37*
G04 #@! TD.AperFunction*
G04 #@! TA.AperFunction,Conductor*
G36*
X47867350Y-136687313D02*
G01*
X47872998Y-136693313D01*
X47999119Y-136995494D01*
X47999143Y-137004448D01*
X47999119Y-137004506D01*
X47872998Y-137306686D01*
X47866649Y-137313001D01*
X47858413Y-137313250D01*
X47322112Y-137129707D01*
X47315394Y-137123786D01*
X47314200Y-137118637D01*
X47314200Y-136881362D01*
X47317627Y-136873089D01*
X47322111Y-136870292D01*
X47858413Y-136686749D01*
X47867350Y-136687313D01*
G37*
G04 #@! TD.AperFunction*
G04 #@! TA.AperFunction,Conductor*
G36*
X160883641Y-139227050D02*
G01*
X160889503Y-139233148D01*
X160999115Y-139495489D01*
X160999142Y-139504444D01*
X160999115Y-139504511D01*
X160889503Y-139766851D01*
X160883151Y-139773163D01*
X160874694Y-139773329D01*
X160740947Y-139724493D01*
X160407687Y-139602806D01*
X160401091Y-139596750D01*
X160400000Y-139591816D01*
X160400000Y-139408183D01*
X160403427Y-139399910D01*
X160407687Y-139397193D01*
X160874697Y-139226669D01*
X160883641Y-139227050D01*
G37*
G04 #@! TD.AperFunction*
G04 #@! TA.AperFunction,Conductor*
G36*
X89383641Y-65727050D02*
G01*
X89389503Y-65733148D01*
X89499115Y-65995489D01*
X89499142Y-66004444D01*
X89499115Y-66004511D01*
X89389503Y-66266851D01*
X89383151Y-66273163D01*
X89374694Y-66273329D01*
X89240947Y-66224493D01*
X88907687Y-66102806D01*
X88901091Y-66096750D01*
X88900000Y-66091816D01*
X88900000Y-65908183D01*
X88903427Y-65899910D01*
X88907687Y-65897193D01*
X89374697Y-65726669D01*
X89383641Y-65727050D01*
G37*
G04 #@! TD.AperFunction*
G04 #@! TA.AperFunction,Conductor*
G36*
X29092313Y-118397193D02*
G01*
X29098909Y-118403249D01*
X29100000Y-118408183D01*
X29100000Y-118591816D01*
X29096573Y-118600089D01*
X29092313Y-118602806D01*
X28625305Y-118773330D01*
X28616358Y-118772949D01*
X28610496Y-118766851D01*
X28500883Y-118504509D01*
X28500857Y-118495556D01*
X28500862Y-118495542D01*
X28610496Y-118233147D01*
X28616848Y-118226836D01*
X28625302Y-118226669D01*
X29092313Y-118397193D01*
G37*
G04 #@! TD.AperFunction*
G04 #@! TA.AperFunction,Conductor*
G36*
X143845837Y-151853816D02*
G01*
X143849995Y-151861748D01*
X143850042Y-151862761D01*
X143850983Y-152145114D01*
X143847584Y-152153399D01*
X143847537Y-152153446D01*
X143645124Y-152354909D01*
X143636842Y-152358316D01*
X143629746Y-152355897D01*
X143300929Y-152103512D01*
X143296453Y-152095756D01*
X143296353Y-152094231D01*
X143296353Y-151910691D01*
X143299780Y-151902418D01*
X143307000Y-151899038D01*
X143837292Y-151851147D01*
X143845837Y-151853816D01*
G37*
G04 #@! TD.AperFunction*
G04 #@! TA.AperFunction,Conductor*
G36*
X21607223Y-121903009D02*
G01*
X22192800Y-122147000D01*
X22199119Y-122153345D01*
X22200000Y-122157800D01*
X22200000Y-122842200D01*
X22196573Y-122850473D01*
X22192800Y-122853000D01*
X21607225Y-123096989D01*
X21598270Y-123097008D01*
X21594461Y-123094470D01*
X21007292Y-122508278D01*
X21003859Y-122500010D01*
X21007278Y-122491735D01*
X21594462Y-121905528D01*
X21602735Y-121902110D01*
X21607223Y-121903009D01*
G37*
G04 #@! TD.AperFunction*
G04 #@! TA.AperFunction,Conductor*
G36*
X167361764Y-47009135D02*
G01*
X168719705Y-47462035D01*
X168726469Y-47467903D01*
X168727102Y-47476836D01*
X168726818Y-47477598D01*
X168442853Y-48165508D01*
X168436528Y-48171848D01*
X168436510Y-48171856D01*
X167747706Y-48456764D01*
X167738751Y-48456759D01*
X167732422Y-48450424D01*
X167732103Y-48449555D01*
X167346937Y-47259757D01*
X167346368Y-47256154D01*
X167346368Y-47020235D01*
X167349795Y-47011962D01*
X167358068Y-47008535D01*
X167361764Y-47009135D01*
G37*
G04 #@! TD.AperFunction*
G04 #@! TA.AperFunction,Conductor*
G36*
X135092313Y-151897193D02*
G01*
X135098909Y-151903249D01*
X135100000Y-151908183D01*
X135100000Y-152091816D01*
X135096573Y-152100089D01*
X135092313Y-152102806D01*
X134625305Y-152273330D01*
X134616358Y-152272949D01*
X134610496Y-152266851D01*
X134500883Y-152004509D01*
X134500857Y-151995556D01*
X134500862Y-151995542D01*
X134610496Y-151733147D01*
X134616848Y-151726836D01*
X134625302Y-151726669D01*
X135092313Y-151897193D01*
G37*
G04 #@! TD.AperFunction*
G04 #@! TA.AperFunction,Conductor*
G36*
X81245888Y-148205765D02*
G01*
X81248441Y-148207699D01*
X81589198Y-148548456D01*
X81592625Y-148556729D01*
X81589522Y-148564665D01*
X80961796Y-149244623D01*
X80953666Y-149248378D01*
X80945263Y-149245284D01*
X80944957Y-149244992D01*
X80600955Y-148902363D01*
X80598398Y-148898535D01*
X80413666Y-148450213D01*
X80413683Y-148441260D01*
X80420027Y-148434939D01*
X80421302Y-148434497D01*
X81236997Y-148204710D01*
X81245888Y-148205765D01*
G37*
G04 #@! TD.AperFunction*
G04 #@! TA.AperFunction,Conductor*
G36*
X130045093Y-78804323D02*
G01*
X130049876Y-78811893D01*
X130050046Y-78813842D01*
X130050992Y-79097632D01*
X130050088Y-79102182D01*
X129940393Y-79364721D01*
X129934041Y-79371033D01*
X129925086Y-79371006D01*
X129923609Y-79370262D01*
X129475603Y-79103402D01*
X129470249Y-79096224D01*
X129469891Y-79093350D01*
X129469891Y-78909855D01*
X129473318Y-78901582D01*
X129479600Y-78898326D01*
X130036359Y-78802351D01*
X130045093Y-78804323D01*
G37*
G04 #@! TD.AperFunction*
G04 #@! TA.AperFunction,Conductor*
G36*
X165612863Y-55096869D02*
G01*
X165613295Y-55097793D01*
X165899133Y-55785510D01*
X165899144Y-55794464D01*
X165899133Y-55794490D01*
X165612916Y-56483118D01*
X165606576Y-56489443D01*
X165597622Y-56489432D01*
X165597548Y-56489401D01*
X164395071Y-55980022D01*
X164388790Y-55973640D01*
X164387935Y-55969249D01*
X164387935Y-55730091D01*
X164391362Y-55721818D01*
X164394221Y-55719719D01*
X165597077Y-55091910D01*
X165605997Y-55091121D01*
X165612863Y-55096869D01*
G37*
G04 #@! TD.AperFunction*
G04 #@! TA.AperFunction,Conductor*
G36*
X144092313Y-132897193D02*
G01*
X144098909Y-132903249D01*
X144100000Y-132908183D01*
X144100000Y-133091816D01*
X144096573Y-133100089D01*
X144092313Y-133102806D01*
X143625305Y-133273330D01*
X143616358Y-133272949D01*
X143610496Y-133266851D01*
X143500883Y-133004509D01*
X143500857Y-132995556D01*
X143500862Y-132995542D01*
X143610496Y-132733147D01*
X143616848Y-132726836D01*
X143625302Y-132726669D01*
X144092313Y-132897193D01*
G37*
G04 #@! TD.AperFunction*
G04 #@! TA.AperFunction,Conductor*
G36*
X71592313Y-93397193D02*
G01*
X71598909Y-93403249D01*
X71600000Y-93408183D01*
X71600000Y-93591816D01*
X71596573Y-93600089D01*
X71592313Y-93602806D01*
X71125305Y-93773330D01*
X71116358Y-93772949D01*
X71110496Y-93766851D01*
X71000883Y-93504509D01*
X71000857Y-93495556D01*
X71000862Y-93495542D01*
X71110496Y-93233147D01*
X71116848Y-93226836D01*
X71125302Y-93226669D01*
X71592313Y-93397193D01*
G37*
G04 #@! TD.AperFunction*
G04 #@! TA.AperFunction,Conductor*
G36*
X167747305Y-68203060D02*
G01*
X168436211Y-68487437D01*
X168442551Y-68493762D01*
X168442562Y-68493788D01*
X168726939Y-69182694D01*
X168726928Y-69191648D01*
X168720588Y-69197973D01*
X168720109Y-69198159D01*
X167459168Y-69654897D01*
X167450222Y-69654492D01*
X167446910Y-69652169D01*
X167277830Y-69483089D01*
X167274403Y-69474816D01*
X167275102Y-69470831D01*
X167379471Y-69182694D01*
X167731840Y-68209889D01*
X167737880Y-68203279D01*
X167746826Y-68202874D01*
X167747305Y-68203060D01*
G37*
G04 #@! TD.AperFunction*
G04 #@! TA.AperFunction,Conductor*
G36*
X73574533Y-74102346D02*
G01*
X73579535Y-74108018D01*
X73920102Y-74927839D01*
X73920997Y-74932340D01*
X73920015Y-75816018D01*
X73916579Y-75824287D01*
X73908302Y-75827705D01*
X73906239Y-75827519D01*
X72143548Y-75509735D01*
X72136014Y-75504895D01*
X72133924Y-75498221D01*
X72133924Y-74500934D01*
X72137351Y-74492661D01*
X72142541Y-74489647D01*
X73565651Y-74101219D01*
X73574533Y-74102346D01*
G37*
G04 #@! TD.AperFunction*
G04 #@! TA.AperFunction,Conductor*
G36*
X103092313Y-28297193D02*
G01*
X103098909Y-28303249D01*
X103100000Y-28308183D01*
X103100000Y-28491816D01*
X103096573Y-28500089D01*
X103092313Y-28502806D01*
X102625305Y-28673330D01*
X102616358Y-28672949D01*
X102610496Y-28666851D01*
X102500883Y-28404509D01*
X102500857Y-28395556D01*
X102500862Y-28395542D01*
X102610496Y-28133147D01*
X102616848Y-28126836D01*
X102625302Y-28126669D01*
X103092313Y-28297193D01*
G37*
G04 #@! TD.AperFunction*
G04 #@! TA.AperFunction,Conductor*
G36*
X79492313Y-96897193D02*
G01*
X79498909Y-96903249D01*
X79500000Y-96908183D01*
X79500000Y-97091816D01*
X79496573Y-97100089D01*
X79492313Y-97102806D01*
X79025305Y-97273330D01*
X79016358Y-97272949D01*
X79010496Y-97266851D01*
X78900883Y-97004509D01*
X78900857Y-96995556D01*
X78900862Y-96995542D01*
X79010496Y-96733147D01*
X79016848Y-96726836D01*
X79025302Y-96726669D01*
X79492313Y-96897193D01*
G37*
G04 #@! TD.AperFunction*
G04 #@! TA.AperFunction,Conductor*
G36*
X82995145Y-150704282D02*
G01*
X82999886Y-150711880D01*
X83000045Y-150713764D01*
X83001000Y-151000000D01*
X83001000Y-151000078D01*
X83000045Y-151286235D01*
X82996590Y-151294497D01*
X82988306Y-151297896D01*
X82986422Y-151297737D01*
X82409777Y-151201629D01*
X82402179Y-151196888D01*
X82400000Y-151190088D01*
X82400000Y-150809911D01*
X82403427Y-150801638D01*
X82409775Y-150798370D01*
X82986424Y-150702262D01*
X82995145Y-150704282D01*
G37*
G04 #@! TD.AperFunction*
G04 #@! TA.AperFunction,Conductor*
G36*
X67092313Y-108897193D02*
G01*
X67098909Y-108903249D01*
X67100000Y-108908183D01*
X67100000Y-109091816D01*
X67096573Y-109100089D01*
X67092313Y-109102806D01*
X66625305Y-109273330D01*
X66616358Y-109272949D01*
X66610496Y-109266851D01*
X66500883Y-109004509D01*
X66500857Y-108995556D01*
X66500862Y-108995542D01*
X66610496Y-108733147D01*
X66616848Y-108726836D01*
X66625302Y-108726669D01*
X67092313Y-108897193D01*
G37*
G04 #@! TD.AperFunction*
G04 #@! TA.AperFunction,Conductor*
G36*
X134908641Y-160627050D02*
G01*
X134914503Y-160633148D01*
X135024115Y-160895489D01*
X135024142Y-160904444D01*
X135024115Y-160904511D01*
X134914503Y-161166851D01*
X134908151Y-161173163D01*
X134899694Y-161173329D01*
X134765947Y-161124493D01*
X134432687Y-161002806D01*
X134426091Y-160996750D01*
X134425000Y-160991816D01*
X134425000Y-160808183D01*
X134428427Y-160799910D01*
X134432687Y-160797193D01*
X134899697Y-160626669D01*
X134908641Y-160627050D01*
G37*
G04 #@! TD.AperFunction*
G04 #@! TA.AperFunction,Conductor*
G36*
X94391759Y-32520449D02*
G01*
X94398649Y-32526169D01*
X94400000Y-32531626D01*
X94400000Y-32768373D01*
X94396573Y-32776646D01*
X94391759Y-32779550D01*
X93924961Y-32924020D01*
X93916045Y-32923192D01*
X93910706Y-32917354D01*
X93800883Y-32654509D01*
X93800857Y-32645556D01*
X93800862Y-32645542D01*
X93910707Y-32382643D01*
X93917058Y-32376333D01*
X93924960Y-32375979D01*
X94391759Y-32520449D01*
G37*
G04 #@! TD.AperFunction*
G04 #@! TA.AperFunction,Conductor*
G36*
X151741759Y-39620449D02*
G01*
X151748649Y-39626169D01*
X151750000Y-39631626D01*
X151750000Y-39868373D01*
X151746573Y-39876646D01*
X151741759Y-39879550D01*
X151274961Y-40024020D01*
X151266045Y-40023192D01*
X151260706Y-40017354D01*
X151150883Y-39754509D01*
X151150857Y-39745556D01*
X151150862Y-39745542D01*
X151260707Y-39482643D01*
X151267058Y-39476333D01*
X151274960Y-39475979D01*
X151741759Y-39620449D01*
G37*
G04 #@! TD.AperFunction*
G04 #@! TA.AperFunction,Conductor*
G36*
X85883641Y-108227050D02*
G01*
X85889503Y-108233148D01*
X85999115Y-108495489D01*
X85999142Y-108504444D01*
X85999115Y-108504511D01*
X85889503Y-108766851D01*
X85883151Y-108773163D01*
X85874694Y-108773329D01*
X85740947Y-108724493D01*
X85407687Y-108602806D01*
X85401091Y-108596750D01*
X85400000Y-108591816D01*
X85400000Y-108408183D01*
X85403427Y-108399910D01*
X85407687Y-108397193D01*
X85874697Y-108226669D01*
X85883641Y-108227050D01*
G37*
G04 #@! TD.AperFunction*
G04 #@! TA.AperFunction,Conductor*
G36*
X129383641Y-139727050D02*
G01*
X129389503Y-139733148D01*
X129499115Y-139995489D01*
X129499142Y-140004444D01*
X129499115Y-140004511D01*
X129389503Y-140266851D01*
X129383151Y-140273163D01*
X129374694Y-140273329D01*
X129240947Y-140224493D01*
X128907687Y-140102806D01*
X128901091Y-140096750D01*
X128900000Y-140091816D01*
X128900000Y-139908183D01*
X128903427Y-139899910D01*
X128907687Y-139897193D01*
X129374697Y-139726669D01*
X129383641Y-139727050D01*
G37*
G04 #@! TD.AperFunction*
G04 #@! TA.AperFunction,Conductor*
G36*
X88383641Y-67037050D02*
G01*
X88389503Y-67043148D01*
X88499115Y-67305489D01*
X88499142Y-67314444D01*
X88499115Y-67314511D01*
X88389503Y-67576851D01*
X88383151Y-67583163D01*
X88374694Y-67583329D01*
X88240947Y-67534493D01*
X87907687Y-67412806D01*
X87901091Y-67406750D01*
X87900000Y-67401816D01*
X87900000Y-67218183D01*
X87903427Y-67209910D01*
X87907687Y-67207193D01*
X88374697Y-67036669D01*
X88383641Y-67037050D01*
G37*
G04 #@! TD.AperFunction*
G04 #@! TA.AperFunction,Conductor*
G36*
X79091759Y-46370449D02*
G01*
X79098649Y-46376169D01*
X79100000Y-46381626D01*
X79100000Y-46618373D01*
X79096573Y-46626646D01*
X79091759Y-46629550D01*
X78624961Y-46774020D01*
X78616045Y-46773192D01*
X78610706Y-46767354D01*
X78500883Y-46504509D01*
X78500857Y-46495556D01*
X78500862Y-46495542D01*
X78610707Y-46232643D01*
X78617058Y-46226333D01*
X78624960Y-46225979D01*
X79091759Y-46370449D01*
G37*
G04 #@! TD.AperFunction*
G04 #@! TA.AperFunction,Conductor*
G36*
X75592313Y-120797193D02*
G01*
X75598909Y-120803249D01*
X75600000Y-120808183D01*
X75600000Y-120991816D01*
X75596573Y-121000089D01*
X75592313Y-121002806D01*
X75125305Y-121173330D01*
X75116358Y-121172949D01*
X75110496Y-121166851D01*
X75000883Y-120904509D01*
X75000857Y-120895556D01*
X75000862Y-120895542D01*
X75110496Y-120633147D01*
X75116848Y-120626836D01*
X75125302Y-120626669D01*
X75592313Y-120797193D01*
G37*
G04 #@! TD.AperFunction*
G04 #@! TA.AperFunction,Conductor*
G36*
X79492313Y-108397193D02*
G01*
X79498909Y-108403249D01*
X79500000Y-108408183D01*
X79500000Y-108591816D01*
X79496573Y-108600089D01*
X79492313Y-108602806D01*
X79025305Y-108773330D01*
X79016358Y-108772949D01*
X79010496Y-108766851D01*
X78900883Y-108504509D01*
X78900857Y-108495556D01*
X78900862Y-108495542D01*
X79010496Y-108233147D01*
X79016848Y-108226836D01*
X79025302Y-108226669D01*
X79492313Y-108397193D01*
G37*
G04 #@! TD.AperFunction*
G04 #@! TA.AperFunction,Conductor*
G36*
X152731759Y-42960449D02*
G01*
X152738649Y-42966169D01*
X152740000Y-42971626D01*
X152740000Y-43208373D01*
X152736573Y-43216646D01*
X152731759Y-43219550D01*
X152264961Y-43364020D01*
X152256045Y-43363192D01*
X152250706Y-43357354D01*
X152140883Y-43094509D01*
X152140857Y-43085556D01*
X152140862Y-43085542D01*
X152250707Y-42822643D01*
X152257058Y-42816333D01*
X152264960Y-42815979D01*
X152731759Y-42960449D01*
G37*
G04 #@! TD.AperFunction*
G04 #@! TA.AperFunction,Conductor*
G36*
X59792313Y-81297193D02*
G01*
X59798909Y-81303249D01*
X59800000Y-81308183D01*
X59800000Y-81491816D01*
X59796573Y-81500089D01*
X59792313Y-81502806D01*
X59325305Y-81673330D01*
X59316358Y-81672949D01*
X59310496Y-81666851D01*
X59200883Y-81404509D01*
X59200857Y-81395556D01*
X59200862Y-81395542D01*
X59310496Y-81133147D01*
X59316848Y-81126836D01*
X59325302Y-81126669D01*
X59792313Y-81297193D01*
G37*
G04 #@! TD.AperFunction*
G04 #@! TA.AperFunction,Conductor*
G36*
X86592313Y-146554801D02*
G01*
X86598909Y-146560857D01*
X86600000Y-146565791D01*
X86600000Y-146749424D01*
X86596573Y-146757697D01*
X86592313Y-146760414D01*
X86125305Y-146930938D01*
X86116358Y-146930557D01*
X86110496Y-146924459D01*
X86000883Y-146662117D01*
X86000857Y-146653164D01*
X86000862Y-146653150D01*
X86110496Y-146390755D01*
X86116848Y-146384444D01*
X86125302Y-146384277D01*
X86592313Y-146554801D01*
G37*
G04 #@! TD.AperFunction*
G04 #@! TA.AperFunction,Conductor*
G36*
X128883641Y-77727050D02*
G01*
X128889503Y-77733148D01*
X128999115Y-77995489D01*
X128999142Y-78004444D01*
X128999115Y-78004511D01*
X128889503Y-78266851D01*
X128883151Y-78273163D01*
X128874694Y-78273329D01*
X128740947Y-78224493D01*
X128407687Y-78102806D01*
X128401091Y-78096750D01*
X128400000Y-78091816D01*
X128400000Y-77908183D01*
X128403427Y-77899910D01*
X128407687Y-77897193D01*
X128874697Y-77726669D01*
X128883641Y-77727050D01*
G37*
G04 #@! TD.AperFunction*
G04 #@! TA.AperFunction,Conductor*
G36*
X40677888Y-136870292D02*
G01*
X40684606Y-136876213D01*
X40685800Y-136881362D01*
X40685800Y-137118637D01*
X40682373Y-137126910D01*
X40677888Y-137129707D01*
X40141586Y-137313250D01*
X40132649Y-137312686D01*
X40127001Y-137306687D01*
X40000879Y-137004504D01*
X40000856Y-136995552D01*
X40127002Y-136693311D01*
X40133350Y-136686998D01*
X40141586Y-136686749D01*
X40677888Y-136870292D01*
G37*
G04 #@! TD.AperFunction*
G04 #@! TA.AperFunction,Conductor*
G36*
X127033641Y-75877050D02*
G01*
X127039503Y-75883148D01*
X127149115Y-76145489D01*
X127149142Y-76154444D01*
X127149115Y-76154511D01*
X127039503Y-76416851D01*
X127033151Y-76423163D01*
X127024694Y-76423329D01*
X126890947Y-76374493D01*
X126557687Y-76252806D01*
X126551091Y-76246750D01*
X126550000Y-76241816D01*
X126550000Y-76058183D01*
X126553427Y-76049910D01*
X126557687Y-76047193D01*
X127024697Y-75876669D01*
X127033641Y-75877050D01*
G37*
G04 #@! TD.AperFunction*
G04 #@! TA.AperFunction,Conductor*
G36*
X36289141Y-127968350D02*
G01*
X36295003Y-127974448D01*
X36404615Y-128236789D01*
X36404642Y-128245744D01*
X36404615Y-128245811D01*
X36295003Y-128508151D01*
X36288651Y-128514463D01*
X36280194Y-128514629D01*
X36146447Y-128465793D01*
X35813187Y-128344106D01*
X35806591Y-128338050D01*
X35805500Y-128333116D01*
X35805500Y-128149483D01*
X35808927Y-128141210D01*
X35813187Y-128138493D01*
X36280197Y-127967969D01*
X36289141Y-127968350D01*
G37*
G04 #@! TD.AperFunction*
G04 #@! TA.AperFunction,Conductor*
G36*
X90883641Y-64497050D02*
G01*
X90889503Y-64503148D01*
X90999115Y-64765489D01*
X90999142Y-64774444D01*
X90999115Y-64774511D01*
X90889503Y-65036851D01*
X90883151Y-65043163D01*
X90874694Y-65043329D01*
X90740947Y-64994493D01*
X90407687Y-64872806D01*
X90401091Y-64866750D01*
X90400000Y-64861816D01*
X90400000Y-64678183D01*
X90403427Y-64669910D01*
X90407687Y-64667193D01*
X90874697Y-64496669D01*
X90883641Y-64497050D01*
G37*
G04 #@! TD.AperFunction*
G04 #@! TA.AperFunction,Conductor*
G36*
X74274884Y-66483803D02*
G01*
X74275648Y-66484153D01*
X75713554Y-67206761D01*
X75719407Y-67213537D01*
X75720000Y-67217214D01*
X75720000Y-67402785D01*
X75716573Y-67411058D01*
X75713554Y-67413239D01*
X74275650Y-68135845D01*
X74266719Y-68136498D01*
X74259942Y-68130645D01*
X74259591Y-68129879D01*
X73960981Y-67411058D01*
X73920863Y-67314487D01*
X73920855Y-67305534D01*
X73920864Y-67305512D01*
X73957545Y-67217214D01*
X74259591Y-66490119D01*
X74265930Y-66483794D01*
X74274884Y-66483803D01*
G37*
G04 #@! TD.AperFunction*
G04 #@! TA.AperFunction,Conductor*
G36*
X89775956Y-76889400D02*
G01*
X89781982Y-76895077D01*
X89835336Y-77004510D01*
X89953843Y-77247573D01*
X89955026Y-77252700D01*
X89955026Y-77434225D01*
X89951599Y-77442498D01*
X89943326Y-77445925D01*
X89939930Y-77445421D01*
X89397510Y-77280899D01*
X89390588Y-77275219D01*
X89389710Y-77266307D01*
X89390083Y-77265259D01*
X89395240Y-77252700D01*
X89497148Y-77004507D01*
X89503456Y-76998160D01*
X89767002Y-76889389D01*
X89775956Y-76889400D01*
G37*
G04 #@! TD.AperFunction*
G04 #@! TA.AperFunction,Conductor*
G36*
X93684497Y-32376491D02*
G01*
X93688943Y-32381807D01*
X93799115Y-32645489D01*
X93799142Y-32654444D01*
X93799115Y-32654511D01*
X93689734Y-32916299D01*
X93683382Y-32922611D01*
X93674428Y-32922584D01*
X93674358Y-32922554D01*
X93217066Y-32728028D01*
X93210795Y-32721637D01*
X93209946Y-32717262D01*
X93209946Y-32484452D01*
X93213373Y-32476179D01*
X93219185Y-32473013D01*
X93675689Y-32374879D01*
X93684497Y-32376491D01*
G37*
G04 #@! TD.AperFunction*
G04 #@! TA.AperFunction,Conductor*
G36*
X150642313Y-139397193D02*
G01*
X150648909Y-139403249D01*
X150650000Y-139408183D01*
X150650000Y-139591816D01*
X150646573Y-139600089D01*
X150642313Y-139602806D01*
X150175305Y-139773330D01*
X150166358Y-139772949D01*
X150160496Y-139766851D01*
X150050883Y-139504509D01*
X150050857Y-139495556D01*
X150050862Y-139495542D01*
X150160496Y-139233147D01*
X150166848Y-139226836D01*
X150175302Y-139226669D01*
X150642313Y-139397193D01*
G37*
G04 #@! TD.AperFunction*
G04 #@! TA.AperFunction,Conductor*
G36*
X165612879Y-65256823D02*
G01*
X165613087Y-65257294D01*
X165899133Y-65945510D01*
X165899144Y-65954464D01*
X165899133Y-65954490D01*
X165613087Y-66642705D01*
X165606747Y-66649030D01*
X165597793Y-66649019D01*
X165597322Y-66648811D01*
X164382739Y-66080155D01*
X164376699Y-66073544D01*
X164376000Y-66069559D01*
X164376000Y-65830440D01*
X164379427Y-65822167D01*
X164382735Y-65819846D01*
X165597322Y-65251187D01*
X165606268Y-65250783D01*
X165612879Y-65256823D01*
G37*
G04 #@! TD.AperFunction*
G04 #@! TA.AperFunction,Conductor*
G36*
X35689141Y-122327050D02*
G01*
X35695003Y-122333148D01*
X35804615Y-122595489D01*
X35804642Y-122604444D01*
X35804615Y-122604511D01*
X35695003Y-122866851D01*
X35688651Y-122873163D01*
X35680194Y-122873329D01*
X35546447Y-122824493D01*
X35213187Y-122702806D01*
X35206591Y-122696750D01*
X35205500Y-122691816D01*
X35205500Y-122508183D01*
X35208927Y-122499910D01*
X35213187Y-122497193D01*
X35680197Y-122326669D01*
X35689141Y-122327050D01*
G37*
G04 #@! TD.AperFunction*
G04 #@! TA.AperFunction,Conductor*
G36*
X78783641Y-96727050D02*
G01*
X78789503Y-96733148D01*
X78899115Y-96995489D01*
X78899142Y-97004444D01*
X78899115Y-97004511D01*
X78789503Y-97266851D01*
X78783151Y-97273163D01*
X78774694Y-97273329D01*
X78640947Y-97224493D01*
X78307687Y-97102806D01*
X78301091Y-97096750D01*
X78300000Y-97091816D01*
X78300000Y-96908183D01*
X78303427Y-96899910D01*
X78307687Y-96897193D01*
X78774697Y-96726669D01*
X78783641Y-96727050D01*
G37*
G04 #@! TD.AperFunction*
G04 #@! TA.AperFunction,Conductor*
G36*
X98092313Y-150397193D02*
G01*
X98098909Y-150403249D01*
X98100000Y-150408183D01*
X98100000Y-150591816D01*
X98096573Y-150600089D01*
X98092313Y-150602806D01*
X97625305Y-150773330D01*
X97616358Y-150772949D01*
X97610496Y-150766851D01*
X97500883Y-150504509D01*
X97500857Y-150495556D01*
X97500862Y-150495542D01*
X97610496Y-150233147D01*
X97616848Y-150226836D01*
X97625302Y-150226669D01*
X98092313Y-150397193D01*
G37*
G04 #@! TD.AperFunction*
G04 #@! TA.AperFunction,Conductor*
G36*
X79354980Y-65213571D02*
G01*
X79355511Y-65213808D01*
X80785387Y-65896820D01*
X80791375Y-65903478D01*
X80792044Y-65907377D01*
X80792044Y-66092977D01*
X80788617Y-66101250D01*
X80785847Y-66103302D01*
X79355781Y-66865434D01*
X79346868Y-66866301D01*
X79339953Y-66860612D01*
X79339478Y-66859607D01*
X79000863Y-66044487D01*
X79000855Y-66035534D01*
X79000864Y-66035512D01*
X79339687Y-65219887D01*
X79346026Y-65213562D01*
X79354980Y-65213571D01*
G37*
G04 #@! TD.AperFunction*
G04 #@! TA.AperFunction,Conductor*
G36*
X89383641Y-107727050D02*
G01*
X89389503Y-107733148D01*
X89499115Y-107995489D01*
X89499142Y-108004444D01*
X89499115Y-108004511D01*
X89389503Y-108266851D01*
X89383151Y-108273163D01*
X89374694Y-108273329D01*
X89240947Y-108224493D01*
X88907687Y-108102806D01*
X88901091Y-108096750D01*
X88900000Y-108091816D01*
X88900000Y-107908183D01*
X88903427Y-107899910D01*
X88907687Y-107897193D01*
X89374697Y-107726669D01*
X89383641Y-107727050D01*
G37*
G04 #@! TD.AperFunction*
G04 #@! TA.AperFunction,Conductor*
G36*
X87092313Y-79897193D02*
G01*
X87098909Y-79903249D01*
X87100000Y-79908183D01*
X87100000Y-80091816D01*
X87096573Y-80100089D01*
X87092313Y-80102806D01*
X86625305Y-80273330D01*
X86616358Y-80272949D01*
X86610496Y-80266851D01*
X86500883Y-80004509D01*
X86500857Y-79995556D01*
X86500862Y-79995542D01*
X86610496Y-79733147D01*
X86616848Y-79726836D01*
X86625302Y-79726669D01*
X87092313Y-79897193D01*
G37*
G04 #@! TD.AperFunction*
G04 #@! TA.AperFunction,Conductor*
G36*
X79354884Y-70293803D02*
G01*
X79355648Y-70294153D01*
X80793554Y-71016761D01*
X80799407Y-71023537D01*
X80800000Y-71027214D01*
X80800000Y-71212785D01*
X80796573Y-71221058D01*
X80793554Y-71223239D01*
X79355650Y-71945845D01*
X79346719Y-71946498D01*
X79339942Y-71940645D01*
X79339591Y-71939879D01*
X79040981Y-71221058D01*
X79000863Y-71124487D01*
X79000855Y-71115534D01*
X79000864Y-71115512D01*
X79037545Y-71027214D01*
X79339591Y-70300119D01*
X79345930Y-70293794D01*
X79354884Y-70293803D01*
G37*
G04 #@! TD.AperFunction*
G04 #@! TA.AperFunction,Conductor*
G36*
X133131379Y-146747678D02*
G01*
X133138484Y-146753126D01*
X133140054Y-146758980D01*
X133140054Y-146942624D01*
X133136627Y-146950897D01*
X133133400Y-146953180D01*
X132675904Y-147171858D01*
X132666962Y-147172334D01*
X132660302Y-147166348D01*
X132660062Y-147165813D01*
X132550883Y-146904509D01*
X132550857Y-146895556D01*
X132550862Y-146895542D01*
X132660863Y-146632269D01*
X132667215Y-146625958D01*
X132674683Y-146625479D01*
X133131379Y-146747678D01*
G37*
G04 #@! TD.AperFunction*
G04 #@! TA.AperFunction,Conductor*
G36*
X80092313Y-116397193D02*
G01*
X80098909Y-116403249D01*
X80100000Y-116408183D01*
X80100000Y-116591816D01*
X80096573Y-116600089D01*
X80092313Y-116602806D01*
X79625305Y-116773330D01*
X79616358Y-116772949D01*
X79610496Y-116766851D01*
X79500883Y-116504509D01*
X79500857Y-116495556D01*
X79500862Y-116495542D01*
X79610496Y-116233147D01*
X79616848Y-116226836D01*
X79625302Y-116226669D01*
X80092313Y-116397193D01*
G37*
G04 #@! TD.AperFunction*
G04 #@! TA.AperFunction,Conductor*
G36*
X88092313Y-78897193D02*
G01*
X88098909Y-78903249D01*
X88100000Y-78908183D01*
X88100000Y-79091816D01*
X88096573Y-79100089D01*
X88092313Y-79102806D01*
X87625305Y-79273330D01*
X87616358Y-79272949D01*
X87610496Y-79266851D01*
X87500883Y-79004509D01*
X87500857Y-78995556D01*
X87500862Y-78995542D01*
X87610496Y-78733147D01*
X87616848Y-78726836D01*
X87625302Y-78726669D01*
X88092313Y-78897193D01*
G37*
G04 #@! TD.AperFunction*
G04 #@! TA.AperFunction,Conductor*
G36*
X83383641Y-116227050D02*
G01*
X83389503Y-116233148D01*
X83499115Y-116495489D01*
X83499142Y-116504444D01*
X83499115Y-116504511D01*
X83389503Y-116766851D01*
X83383151Y-116773163D01*
X83374694Y-116773329D01*
X83240947Y-116724493D01*
X82907687Y-116602806D01*
X82901091Y-116596750D01*
X82900000Y-116591816D01*
X82900000Y-116408183D01*
X82903427Y-116399910D01*
X82907687Y-116397193D01*
X83374697Y-116226669D01*
X83383641Y-116227050D01*
G37*
G04 #@! TD.AperFunction*
G04 #@! TA.AperFunction,Conductor*
G36*
X78694840Y-108294794D02*
G01*
X78897241Y-108495850D01*
X78900695Y-108504112D01*
X78900695Y-108504178D01*
X78900033Y-108785947D01*
X78896587Y-108794213D01*
X78888306Y-108797620D01*
X78886186Y-108797421D01*
X78432853Y-108712797D01*
X78426727Y-108709569D01*
X78297681Y-108580523D01*
X78294254Y-108572250D01*
X78297681Y-108563977D01*
X78299193Y-108562701D01*
X78679842Y-108293542D01*
X78688575Y-108291564D01*
X78694840Y-108294794D01*
G37*
G04 #@! TD.AperFunction*
G04 #@! TA.AperFunction,Conductor*
G36*
X72791759Y-45320449D02*
G01*
X72798649Y-45326169D01*
X72800000Y-45331626D01*
X72800000Y-45568373D01*
X72796573Y-45576646D01*
X72791759Y-45579550D01*
X72324961Y-45724020D01*
X72316045Y-45723192D01*
X72310706Y-45717354D01*
X72200883Y-45454509D01*
X72200857Y-45445556D01*
X72200862Y-45445542D01*
X72310707Y-45182643D01*
X72317058Y-45176333D01*
X72324960Y-45175979D01*
X72791759Y-45320449D01*
G37*
G04 #@! TD.AperFunction*
G04 #@! TA.AperFunction,Conductor*
G36*
X78383641Y-153727050D02*
G01*
X78389503Y-153733148D01*
X78499115Y-153995489D01*
X78499142Y-154004444D01*
X78499115Y-154004511D01*
X78389503Y-154266851D01*
X78383151Y-154273163D01*
X78374694Y-154273329D01*
X78240947Y-154224493D01*
X77907687Y-154102806D01*
X77901091Y-154096750D01*
X77900000Y-154091816D01*
X77900000Y-153908183D01*
X77903427Y-153899910D01*
X77907687Y-153897193D01*
X78374697Y-153726669D01*
X78383641Y-153727050D01*
G37*
G04 #@! TD.AperFunction*
G04 #@! TA.AperFunction,Conductor*
G36*
X81061477Y-148712554D02*
G01*
X81067080Y-148717450D01*
X81176033Y-148903797D01*
X81479326Y-149422535D01*
X81480544Y-149431405D01*
X81477499Y-149436712D01*
X81136712Y-149777499D01*
X81128439Y-149780926D01*
X81122535Y-149779326D01*
X80742258Y-149556987D01*
X80417450Y-149367080D01*
X80412037Y-149359946D01*
X80412536Y-149352526D01*
X80597437Y-148903795D01*
X80603755Y-148897454D01*
X81052526Y-148712537D01*
X81061477Y-148712554D01*
G37*
G04 #@! TD.AperFunction*
G04 #@! TA.AperFunction,Conductor*
G36*
X74274884Y-63943803D02*
G01*
X74275648Y-63944153D01*
X75713554Y-64666761D01*
X75719407Y-64673537D01*
X75720000Y-64677214D01*
X75720000Y-64862785D01*
X75716573Y-64871058D01*
X75713554Y-64873239D01*
X74275650Y-65595845D01*
X74266719Y-65596498D01*
X74259942Y-65590645D01*
X74259591Y-65589879D01*
X73960981Y-64871058D01*
X73920863Y-64774487D01*
X73920855Y-64765534D01*
X73920864Y-64765512D01*
X73957545Y-64677214D01*
X74259591Y-63950119D01*
X74265930Y-63943794D01*
X74274884Y-63943803D01*
G37*
G04 #@! TD.AperFunction*
G04 #@! TA.AperFunction,Conductor*
G36*
X51677888Y-136870292D02*
G01*
X51684606Y-136876213D01*
X51685800Y-136881362D01*
X51685800Y-137118637D01*
X51682373Y-137126910D01*
X51677888Y-137129707D01*
X51141586Y-137313250D01*
X51132649Y-137312686D01*
X51127001Y-137306687D01*
X51000879Y-137004504D01*
X51000856Y-136995552D01*
X51127002Y-136693311D01*
X51133350Y-136686998D01*
X51141586Y-136686749D01*
X51677888Y-136870292D01*
G37*
G04 #@! TD.AperFunction*
G04 #@! TA.AperFunction,Conductor*
G36*
X81013566Y-150702261D02*
G01*
X81590224Y-150798370D01*
X81597821Y-150803111D01*
X81600000Y-150809911D01*
X81600000Y-151190088D01*
X81596573Y-151198361D01*
X81590223Y-151201629D01*
X81013577Y-151297737D01*
X81004854Y-151295717D01*
X81000113Y-151288119D01*
X80999954Y-151286235D01*
X80999661Y-151198361D01*
X80999000Y-151000000D01*
X80999954Y-150713763D01*
X81003408Y-150705502D01*
X81011693Y-150702103D01*
X81013566Y-150702261D01*
G37*
G04 #@! TD.AperFunction*
G04 #@! TA.AperFunction,Conductor*
G36*
X103003399Y-60652415D02*
G01*
X103003446Y-60652462D01*
X103203194Y-60853152D01*
X103206601Y-60861434D01*
X103203155Y-60869699D01*
X103202470Y-60870328D01*
X102978058Y-61060711D01*
X102890792Y-61134747D01*
X102880275Y-61143669D01*
X102872706Y-61146447D01*
X102636655Y-61146447D01*
X102628382Y-61143020D01*
X102624955Y-61134747D01*
X102625093Y-61132954D01*
X102642261Y-61022262D01*
X102698468Y-60659871D01*
X102703123Y-60652223D01*
X102709988Y-60649966D01*
X102995114Y-60649016D01*
X103003399Y-60652415D01*
G37*
G04 #@! TD.AperFunction*
G04 #@! TA.AperFunction,Conductor*
G36*
X27625391Y-111727848D02*
G01*
X27625872Y-111728062D01*
X27638727Y-111734133D01*
X28083848Y-111944334D01*
X28089866Y-111950966D01*
X28090552Y-111954914D01*
X28090552Y-112138562D01*
X28087125Y-112146835D01*
X28081929Y-112149850D01*
X27624717Y-112274462D01*
X27615833Y-112273331D01*
X27610844Y-112267685D01*
X27500883Y-112004509D01*
X27500857Y-111995556D01*
X27500862Y-111995542D01*
X27610085Y-111734131D01*
X27616436Y-111727821D01*
X27625391Y-111727848D01*
G37*
G04 #@! TD.AperFunction*
G04 #@! TA.AperFunction,Conductor*
G36*
X78179481Y-75860117D02*
G01*
X78998543Y-76198399D01*
X79002359Y-76200949D01*
X79627608Y-76827588D01*
X79631026Y-76835865D01*
X79627590Y-76844134D01*
X79627066Y-76844626D01*
X78334442Y-77984949D01*
X78325971Y-77987852D01*
X78318429Y-77984448D01*
X77613211Y-77279230D01*
X77609784Y-77270957D01*
X77610603Y-77266657D01*
X78164141Y-75866629D01*
X78170368Y-75860197D01*
X78179322Y-75860053D01*
X78179481Y-75860117D01*
G37*
G04 #@! TD.AperFunction*
G04 #@! TA.AperFunction,Conductor*
G36*
X87445845Y-96644397D02*
G01*
X87648244Y-96845846D01*
X87651690Y-96854111D01*
X87651690Y-96854178D01*
X87650749Y-97136546D01*
X87647295Y-97144808D01*
X87639010Y-97148207D01*
X87638011Y-97148161D01*
X87108194Y-97100950D01*
X87100257Y-97096802D01*
X87097532Y-97089296D01*
X87097532Y-96905754D01*
X87100959Y-96897481D01*
X87102090Y-96896487D01*
X87430450Y-96643422D01*
X87439094Y-96641087D01*
X87445845Y-96644397D01*
G37*
G04 #@! TD.AperFunction*
M02*
