G04 #@! TF.GenerationSoftware,KiCad,Pcbnew,8.0.6*
G04 #@! TF.CreationDate,2025-01-26T18:33:20-05:00*
G04 #@! TF.ProjectId,Mic_Board_Unidirectional,4d69635f-426f-4617-9264-5f556e696469,rev?*
G04 #@! TF.SameCoordinates,Original*
G04 #@! TF.FileFunction,Soldermask,Top*
G04 #@! TF.FilePolarity,Negative*
%FSLAX46Y46*%
G04 Gerber Fmt 4.6, Leading zero omitted, Abs format (unit mm)*
G04 Created by KiCad (PCBNEW 8.0.6) date 2025-01-26 18:33:20*
%MOMM*%
%LPD*%
G01*
G04 APERTURE LIST*
G04 Aperture macros list*
%AMRoundRect*
0 Rectangle with rounded corners*
0 $1 Rounding radius*
0 $2 $3 $4 $5 $6 $7 $8 $9 X,Y pos of 4 corners*
0 Add a 4 corners polygon primitive as box body*
4,1,4,$2,$3,$4,$5,$6,$7,$8,$9,$2,$3,0*
0 Add four circle primitives for the rounded corners*
1,1,$1+$1,$2,$3*
1,1,$1+$1,$4,$5*
1,1,$1+$1,$6,$7*
1,1,$1+$1,$8,$9*
0 Add four rect primitives between the rounded corners*
20,1,$1+$1,$2,$3,$4,$5,0*
20,1,$1+$1,$4,$5,$6,$7,0*
20,1,$1+$1,$6,$7,$8,$9,0*
20,1,$1+$1,$8,$9,$2,$3,0*%
G04 Aperture macros list end*
%ADD10C,0.010000*%
%ADD11R,1.409700X0.279400*%
%ADD12RoundRect,0.250000X0.450000X-0.262500X0.450000X0.262500X-0.450000X0.262500X-0.450000X-0.262500X0*%
%ADD13RoundRect,0.250000X0.475000X-0.250000X0.475000X0.250000X-0.475000X0.250000X-0.475000X-0.250000X0*%
%ADD14C,1.000000*%
%ADD15C,5.600000*%
%ADD16RoundRect,0.102000X-1.250000X0.350000X-1.250000X-0.350000X1.250000X-0.350000X1.250000X0.350000X0*%
%ADD17RoundRect,0.102000X-0.950000X0.550000X-0.950000X-0.550000X0.950000X-0.550000X0.950000X0.550000X0*%
%ADD18RoundRect,0.250000X-0.262500X-0.450000X0.262500X-0.450000X0.262500X0.450000X-0.262500X0.450000X0*%
%ADD19R,0.977900X0.508000*%
%ADD20RoundRect,0.250000X-0.475000X0.250000X-0.475000X-0.250000X0.475000X-0.250000X0.475000X0.250000X0*%
%ADD21RoundRect,0.250000X0.250000X0.475000X-0.250000X0.475000X-0.250000X-0.475000X0.250000X-0.475000X0*%
%ADD22RoundRect,0.250000X-0.250000X-0.475000X0.250000X-0.475000X0.250000X0.475000X-0.250000X0.475000X0*%
G04 APERTURE END LIST*
D10*
X173876200Y-78226200D02*
X172123800Y-78226200D01*
X172123800Y-77273800D01*
X173876200Y-77273800D01*
X173876200Y-78226200D01*
G36*
X173876200Y-78226200D02*
G01*
X172123800Y-78226200D01*
X172123800Y-77273800D01*
X173876200Y-77273800D01*
X173876200Y-78226200D01*
G37*
X173876200Y-79476200D02*
X172123800Y-79476200D01*
X172123800Y-78523800D01*
X173876200Y-78523800D01*
X173876200Y-79476200D01*
G36*
X173876200Y-79476200D02*
G01*
X172123800Y-79476200D01*
X172123800Y-78523800D01*
X173876200Y-78523800D01*
X173876200Y-79476200D01*
G37*
X173876200Y-80726200D02*
X172123800Y-80726200D01*
X172123800Y-79773800D01*
X173876200Y-79773800D01*
X173876200Y-80726200D01*
G36*
X173876200Y-80726200D02*
G01*
X172123800Y-80726200D01*
X172123800Y-79773800D01*
X173876200Y-79773800D01*
X173876200Y-80726200D01*
G37*
X173876200Y-81976200D02*
X172123800Y-81976200D01*
X172123800Y-81023800D01*
X173876200Y-81023800D01*
X173876200Y-81976200D01*
G36*
X173876200Y-81976200D02*
G01*
X172123800Y-81976200D01*
X172123800Y-81023800D01*
X173876200Y-81023800D01*
X173876200Y-81976200D01*
G37*
X173876200Y-83226200D02*
X172123800Y-83226200D01*
X172123800Y-82273800D01*
X173876200Y-82273800D01*
X173876200Y-83226200D01*
G36*
X173876200Y-83226200D02*
G01*
X172123800Y-83226200D01*
X172123800Y-82273800D01*
X173876200Y-82273800D01*
X173876200Y-83226200D01*
G37*
X173876200Y-84476200D02*
X172123800Y-84476200D01*
X172123800Y-83523800D01*
X173876200Y-83523800D01*
X173876200Y-84476200D01*
G36*
X173876200Y-84476200D02*
G01*
X172123800Y-84476200D01*
X172123800Y-83523800D01*
X173876200Y-83523800D01*
X173876200Y-84476200D01*
G37*
X173876200Y-85726200D02*
X172123800Y-85726200D01*
X172123800Y-84773800D01*
X173876200Y-84773800D01*
X173876200Y-85726200D01*
G36*
X173876200Y-85726200D02*
G01*
X172123800Y-85726200D01*
X172123800Y-84773800D01*
X173876200Y-84773800D01*
X173876200Y-85726200D01*
G37*
X177476200Y-76326200D02*
X174323800Y-76326200D01*
X174323800Y-74073800D01*
X177476200Y-74073800D01*
X177476200Y-76326200D01*
G36*
X177476200Y-76326200D02*
G01*
X174323800Y-76326200D01*
X174323800Y-74073800D01*
X177476200Y-74073800D01*
X177476200Y-76326200D01*
G37*
X177476200Y-88926200D02*
X174323800Y-88926200D01*
X174323800Y-86673800D01*
X177476200Y-86673800D01*
X177476200Y-88926200D01*
G36*
X177476200Y-88926200D02*
G01*
X174323800Y-88926200D01*
X174323800Y-86673800D01*
X177476200Y-86673800D01*
X177476200Y-88926200D01*
G37*
D11*
X158777750Y-79625003D03*
X158777750Y-80275001D03*
X158777750Y-80925003D03*
X158777750Y-81575001D03*
X158777750Y-82225000D03*
X158777750Y-82875001D03*
X158777750Y-83525000D03*
X158777750Y-84175001D03*
X164683250Y-84175001D03*
X164683250Y-83525003D03*
X164683250Y-82875001D03*
X164683250Y-82225003D03*
X164683250Y-81575004D03*
X164683250Y-80925003D03*
X164683250Y-80275004D03*
X164683250Y-79625003D03*
D12*
X144000000Y-81825000D03*
X144000000Y-80000000D03*
D13*
X158730500Y-89400002D03*
X158730500Y-87500002D03*
D14*
X132636000Y-88400002D03*
D15*
X132000000Y-93500000D03*
D16*
X134380500Y-78650002D03*
X134380500Y-80150002D03*
D17*
X130780500Y-76700002D03*
X130780500Y-82100002D03*
D15*
X132000000Y-93500000D03*
D18*
X143230500Y-94400002D03*
X145055500Y-94400002D03*
D15*
X175500000Y-93500000D03*
D12*
X144500000Y-75912500D03*
X144500000Y-74087500D03*
D19*
X150500000Y-79500000D03*
X150500000Y-80450001D03*
X150500000Y-81400002D03*
X153230500Y-81400002D03*
X153230500Y-79500000D03*
D18*
X168087500Y-88500000D03*
X169912500Y-88500000D03*
D20*
X163500000Y-93050000D03*
X163500000Y-94950000D03*
D21*
X157900000Y-93900002D03*
X156000000Y-93900002D03*
D18*
X163500000Y-76000000D03*
X165325000Y-76000000D03*
D22*
X137280500Y-91400002D03*
X139180500Y-91400002D03*
D14*
X139000000Y-84500000D03*
D22*
X157600000Y-75000000D03*
X159500000Y-75000000D03*
D13*
X164000000Y-89450000D03*
X164000000Y-87550000D03*
D12*
X147230500Y-88500000D03*
X147230500Y-86675000D03*
D18*
X138087500Y-70500000D03*
X139912500Y-70500000D03*
D22*
X152600000Y-89500000D03*
X154500000Y-89500000D03*
D15*
X132000000Y-69500000D03*
D12*
X144000000Y-70825000D03*
X144000000Y-69000000D03*
D22*
X157280500Y-69900002D03*
X159180500Y-69900002D03*
D15*
X175500000Y-93500000D03*
X175500000Y-69500000D03*
X132000000Y-69500000D03*
D12*
X169000000Y-94912500D03*
X169000000Y-93087500D03*
D21*
X151400000Y-74500000D03*
X149500000Y-74500000D03*
D14*
X152500000Y-69400002D03*
D21*
X139900000Y-75500000D03*
X138000000Y-75500000D03*
X151900000Y-93900002D03*
X150000000Y-93900002D03*
M02*
