M48
; DRILL file {KiCad 8.0.6} date 2025-01-26T18:33:52-0500
; FORMAT={-:-/ absolute / metric / decimal}
; #@! TF.CreationDate,2025-01-26T18:33:52-05:00
; #@! TF.GenerationSoftware,Kicad,Pcbnew,8.0.6
; #@! TF.FileFunction,Plated,1,2,PTH
FMAT,2
METRIC
; #@! TA.AperFunction,Plated,PTH,ViaDrill
T1C0.300
; #@! TA.AperFunction,Plated,PTH,ComponentDrill
T2C3.200
%
G90
G05
T1
X136.0Y-67.5
X138.0Y-73.5
X138.0Y-79.5
X139.18Y-96.4
X140.0Y-72.0
X140.0Y-73.5
X140.0Y-77.5
X142.5Y-78.1
X143.0Y-79.5
X143.3Y-86.9
X144.0Y-67.0
X144.0Y-72.0
X144.5Y-73.0
X144.5Y-77.5
X145.055Y-96.4
X145.4Y-81.4
X145.5Y-80.0
X146.1Y-86.9
X146.6Y-79.6
X146.6Y-83.0
X147.2Y-85.6
X148.0Y-81.4
X148.3Y-88.8
X149.2Y-79.5
X149.5Y-73.0
X149.5Y-80.5
X150.0Y-84.9
X150.5Y-76.0
X151.0Y-88.8
X151.2Y-67.0
X151.5Y-80.5
X152.5Y-76.0
X153.0Y-78.0
X153.0Y-88.0
X153.231Y-85.43
X153.4Y-67.0
X153.4Y-77.122
X154.0Y-79.5
X155.1Y-83.5
X155.1Y-87.4
X155.5Y-79.5
X156.0Y-76.0
X156.0Y-89.0
X156.0Y-92.0
X156.2Y-78.5
X157.0Y-67.0
X157.0Y-82.0
X157.0Y-83.0
X157.6Y-87.5
X157.6Y-89.0
X158.5Y-92.0
X158.778Y-77.122
X158.8Y-86.0
X159.0Y-94.0
X159.5Y-78.5
X160.0Y-87.5
X160.0Y-89.5
X161.5Y-86.0
X161.5Y-94.5
X162.5Y-87.5
X162.5Y-89.5
X163.5Y-73.5
X165.0Y-87.5
X166.0Y-80.225
X166.0Y-82.175
X166.0Y-84.0
X166.5Y-86.0
X168.5Y-85.0
X169.5Y-81.0
X170.0Y-87.0
X170.0Y-90.0
X170.5Y-82.0
X171.1Y-82.901
X171.5Y-73.5
X171.5Y-80.0
X171.5Y-81.0
X174.5Y-86.0
T2
X132.0Y-69.5
X132.0Y-69.5
X132.0Y-93.5
X132.0Y-93.5
X175.5Y-69.5
X175.5Y-93.5
X175.5Y-93.5
M30
